<svg id="svg" version="1.1" xmlns="http://www.w3.org/2000/svg" xmlns:xlink="http://www.w3.org/1999/xlink" width="400" height="400" viewBox="0, 0, 400,400"><g id="svgg"><path id="path0" d="M189.211 78.676 C 187.855 79.277,186.477 80.943,185.141 83.594 C 180.622 92.562,94.014 282.182,93.858 283.450 C 93.375 287.366,94.155 287.495,118.300 287.498 C 140.979 287.500,140.242 287.592,142.035 284.532 C 142.582 283.600,155.763 255.458,171.328 221.995 C 186.893 188.532,199.756 161.033,199.912 160.886 C 200.068 160.739,213.014 188.201,228.681 221.912 C 244.348 255.624,257.573 283.888,258.070 284.720 C 259.766 287.564,259.220 287.500,281.700 287.498 C 305.848 287.495,306.635 287.365,306.135 283.450 C 305.925 281.802,215.835 85.014,213.763 81.678 C 211.658 78.288,211.830 78.333,200.461 78.228 C 192.610 78.156,190.165 78.254,189.211 78.676 " stroke="none" fill="#141c1c" fill-rule="evenodd"></path><path id="path1" d="M0.000 200.000 L 0.000 400.000 200.000 400.000 L 400.000 400.000 400.000 200.000 L 400.000 0.000 200.000 0.000 L 0.000 0.000 0.000 200.000 M211.360 79.014 C 212.085 79.503,213.145 80.601,213.715 81.455 C 215.343 83.896,305.937 281.669,306.149 283.244 C 306.394 285.069,305.730 286.259,304.083 286.947 C 301.724 287.932,261.541 287.746,259.894 286.742 C 258.114 285.656,259.295 288.098,228.478 221.777 C 212.929 188.315,200.117 160.938,200.006 160.938 C 199.895 160.938,187.083 188.316,171.534 221.778 C 140.808 287.903,141.899 285.649,140.106 286.742 C 138.664 287.621,99.420 287.931,96.383 287.088 C 94.474 286.558,93.587 285.215,93.850 283.252 C 94.071 281.605,184.600 83.955,186.279 81.455 C 188.491 78.161,188.639 78.125,200.000 78.125 C 209.799 78.125,210.072 78.146,211.360 79.014 M215.723 299.805 C 207.184 316.885,200.109 330.859,200.000 330.859 C 199.891 330.859,192.816 316.885,184.277 299.805 L 168.751 268.750 200.000 268.750 L 231.249 268.750 215.723 299.805 " stroke="none" fill="#fbfbfb" fill-rule="evenodd"></path><path id="path2" d="M184.277 299.805 C 192.816 316.885,199.891 330.859,200.000 330.859 C 200.109 330.859,207.184 316.885,215.723 299.805 L 231.249 268.750 200.000 268.750 L 168.751 268.750 184.277 299.805 " stroke="none" fill="#64fcfc" fill-rule="evenodd"></path></g></svg>