<svg id="svg" version="1.1" xmlns="http://www.w3.org/2000/svg" xmlns:xlink="http://www.w3.org/1999/xlink" width="400" height="400" viewBox="0, 0, 400,400"><g id="svgg"><path id="path0" d="M157.000 47.993 C 139.573 49.706,124.089 65.418,121.165 84.356 C 120.401 89.305,119.939 140.734,120.643 142.567 C 121.397 144.533,122.280 143.913,138.156 130.272 C 144.335 124.963,143.817 127.062,143.700 107.807 C 143.644 98.787,143.773 90.018,143.986 88.320 C 144.914 80.925,150.289 74.417,157.735 71.673 L 160.600 70.617 185.400 70.512 L 210.200 70.408 216.600 71.559 C 240.660 75.885,257.250 93.566,259.988 117.800 C 261.614 132.194,257.783 145.007,248.600 155.889 C 242.701 162.879,241.755 164.772,242.098 168.901 C 242.518 173.962,244.641 176.875,251.799 182.214 C 278.504 202.131,289.813 239.584,279.273 273.200 C 275.933 283.850,271.052 292.509,263.148 301.800 C 261.651 303.560,260.015 305.376,259.513 305.836 C 256.222 308.851,250.563 313.640,248.748 314.945 C 243.194 318.941,232.626 324.321,227.000 326.016 C 225.680 326.413,224.060 326.927,223.400 327.158 C 214.949 330.108,195.715 331.157,186.800 329.153 C 185.810 328.930,183.740 328.509,182.200 328.217 C 178.044 327.428,171.610 325.177,166.268 322.644 C 163.665 321.410,161.451 320.400,161.348 320.400 C 161.020 320.400,154.702 316.427,151.806 314.399 C 139.865 306.039,130.355 293.758,123.309 277.600 C 118.291 266.091,115.980 242.398,118.842 231.800 C 119.079 230.920,119.505 229.030,119.787 227.600 C 120.933 221.802,126.058 209.358,129.673 203.600 C 133.691 197.198,142.220 188.140,152.645 179.200 C 153.286 178.650,156.159 176.130,159.029 173.600 C 161.900 171.070,165.469 168.010,166.961 166.800 C 168.453 165.590,170.242 164.091,170.937 163.468 C 171.632 162.845,174.349 160.505,176.976 158.268 C 179.603 156.031,183.113 153.030,184.776 151.599 C 186.439 150.169,188.700 148.283,189.800 147.410 C 190.900 146.536,192.053 145.476,192.362 145.055 C 192.873 144.357,193.274 144.311,196.809 144.542 C 211.991 145.537,221.800 137.239,221.800 123.400 C 221.800 110.276,213.629 102.200,200.350 102.200 L 194.500 102.200 190.978 104.000 C 184.229 107.449,180.079 113.483,179.149 121.200 C 178.571 125.995,178.031 127.024,174.707 129.662 C 172.221 131.635,168.379 134.865,151.011 149.585 C 147.498 152.563,143.435 156.080,141.983 157.400 C 140.532 158.720,137.390 161.510,135.002 163.600 C 119.306 177.337,111.088 187.400,104.950 200.400 C 104.171 202.050,103.387 203.683,103.208 204.028 C 100.701 208.867,96.504 222.375,95.822 227.800 C 93.717 244.548,93.640 251.097,95.403 263.310 C 97.138 275.327,103.692 293.350,109.545 302.200 C 110.564 303.740,111.668 305.478,111.999 306.063 C 112.874 307.610,116.936 313.139,118.565 315.000 C 122.187 319.139,127.217 324.389,129.295 326.200 C 130.557 327.300,132.267 328.790,133.095 329.511 C 133.923 330.231,135.860 331.660,137.400 332.686 C 138.940 333.712,140.560 334.863,141.000 335.244 C 141.942 336.061,145.956 338.576,149.548 340.601 C 155.126 343.746,169.345 349.428,173.600 350.213 C 174.370 350.355,176.530 350.804,178.400 351.212 C 199.845 355.880,225.179 353.098,245.400 343.853 C 248.542 342.416,249.181 342.090,252.800 340.074 C 264.461 333.579,281.249 319.191,286.010 311.612 C 294.740 297.715,297.401 292.588,300.775 283.164 C 309.668 258.325,308.378 226.545,297.547 203.690 C 296.476 201.430,295.600 199.505,295.600 199.412 C 295.600 198.648,287.216 185.417,284.759 182.303 C 282.257 179.134,279.196 175.717,275.100 171.525 C 270.072 166.378,269.990 167.304,276.482 155.852 C 280.494 148.774,283.589 134.920,283.596 124.000 C 283.601 116.760,282.067 104.859,280.812 102.400 C 280.643 102.070,280.376 101.080,280.217 100.200 C 279.717 97.422,274.908 86.751,273.097 84.400 C 272.673 83.850,271.281 81.780,270.004 79.800 C 264.108 70.663,252.902 60.749,243.200 56.089 C 232.153 50.782,228.370 49.548,219.000 48.193 C 214.731 47.576,162.941 47.408,157.000 47.993 M194.400 203.454 C 162.424 207.378,145.808 245.210,164.125 272.383 C 178.834 294.202,212.688 298.176,230.576 280.183 C 242.007 268.685,246.674 255.083,244.246 240.338 C 240.317 216.468,218.700 200.472,194.400 203.454 M205.093 226.967 C 225.082 232.288,227.471 257.785,208.800 266.539 C 200.480 270.439,189.436 267.641,184.279 260.327 C 180.846 255.457,180.770 255.279,180.084 250.557 C 178.318 238.405,186.423 227.902,198.400 226.824 C 200.270 226.656,202.070 226.493,202.400 226.464 C 202.730 226.434,203.942 226.660,205.093 226.967 " stroke="none" fill="#ea6328" fill-rule="evenodd"></path><path id="path1" d="M0.000 200.000 L 0.000 400.000 200.000 400.000 L 400.000 400.000 400.000 200.000 L 400.000 0.000 200.000 0.000 L 0.000 0.000 0.000 200.000 M219.000 48.193 C 228.370 49.548,232.153 50.782,243.200 56.089 C 252.902 60.749,264.108 70.663,270.004 79.800 C 271.281 81.780,272.673 83.850,273.097 84.400 C 274.908 86.751,279.717 97.422,280.217 100.200 C 280.376 101.080,280.643 102.070,280.812 102.400 C 282.067 104.859,283.601 116.760,283.596 124.000 C 283.589 134.920,280.494 148.774,276.482 155.852 C 269.990 167.304,270.072 166.378,275.100 171.525 C 283.012 179.623,285.007 182.154,291.403 192.200 C 292.965 194.653,295.600 199.181,295.600 199.412 C 295.600 199.505,296.476 201.430,297.547 203.690 C 308.378 226.545,309.668 258.325,300.775 283.164 C 297.401 292.588,294.740 297.715,286.010 311.612 C 281.249 319.191,264.461 333.579,252.800 340.074 C 249.181 342.090,248.542 342.416,245.400 343.853 C 225.179 353.098,199.845 355.880,178.400 351.212 C 176.530 350.804,174.370 350.355,173.600 350.213 C 169.345 349.428,155.126 343.746,149.548 340.601 C 145.956 338.576,141.942 336.061,141.000 335.244 C 140.560 334.863,138.940 333.712,137.400 332.686 C 135.860 331.660,133.923 330.231,133.095 329.511 C 132.267 328.790,130.557 327.300,129.295 326.200 C 127.217 324.389,122.187 319.139,118.565 315.000 C 116.936 313.139,112.874 307.610,111.999 306.063 C 111.668 305.478,110.564 303.740,109.545 302.200 C 103.692 293.350,97.138 275.327,95.403 263.310 C 93.640 251.097,93.717 244.548,95.822 227.800 C 96.504 222.375,100.701 208.867,103.208 204.028 C 103.387 203.683,104.171 202.050,104.950 200.400 C 111.088 187.400,119.306 177.337,135.002 163.600 C 137.390 161.510,140.532 158.720,141.983 157.400 C 143.435 156.080,147.498 152.563,151.011 149.585 C 168.379 134.865,172.221 131.635,174.707 129.662 C 178.031 127.024,178.571 125.995,179.149 121.200 C 180.079 113.483,184.229 107.449,190.978 104.000 L 194.500 102.200 200.350 102.200 C 213.629 102.200,221.800 110.276,221.800 123.400 C 221.800 137.239,211.991 145.537,196.809 144.542 C 193.274 144.311,192.873 144.357,192.362 145.055 C 192.053 145.476,190.900 146.536,189.800 147.410 C 188.700 148.283,186.439 150.169,184.776 151.599 C 183.113 153.030,179.603 156.031,176.976 158.268 C 174.349 160.505,171.632 162.845,170.937 163.468 C 170.242 164.091,168.453 165.590,166.961 166.800 C 165.469 168.010,161.900 171.070,159.029 173.600 C 156.159 176.130,153.286 178.650,152.645 179.200 C 142.220 188.140,133.691 197.198,129.673 203.600 C 126.058 209.358,120.933 221.802,119.787 227.600 C 119.505 229.030,119.079 230.920,118.842 231.800 C 115.980 242.398,118.291 266.091,123.309 277.600 C 130.355 293.758,139.865 306.039,151.806 314.399 C 154.702 316.427,161.020 320.400,161.348 320.400 C 161.451 320.400,163.665 321.410,166.268 322.644 C 171.610 325.177,178.044 327.428,182.200 328.217 C 183.740 328.509,185.810 328.930,186.800 329.153 C 195.715 331.157,214.949 330.108,223.400 327.158 C 224.060 326.927,225.680 326.413,227.000 326.016 C 232.626 324.321,243.194 318.941,248.748 314.945 C 250.563 313.640,256.222 308.851,259.513 305.836 C 260.015 305.376,261.651 303.560,263.148 301.800 C 284.868 276.266,289.539 240.925,275.124 211.200 C 269.748 200.115,260.663 188.825,251.799 182.214 C 244.641 176.875,242.518 173.962,242.098 168.901 C 241.755 164.772,242.701 162.879,248.600 155.889 C 274.250 125.494,256.506 78.734,216.600 71.559 L 210.200 70.408 185.400 70.512 L 160.600 70.617 157.735 71.673 C 150.289 74.417,144.914 80.925,143.986 88.320 C 143.773 90.018,143.644 98.787,143.700 107.807 C 143.817 127.062,144.335 124.963,138.156 130.272 C 122.280 143.913,121.397 144.533,120.643 142.567 C 119.939 140.734,120.401 89.305,121.165 84.356 C 124.089 65.418,139.573 49.706,157.000 47.993 C 162.941 47.408,214.731 47.576,219.000 48.193 M211.691 204.525 C 243.500 212.899,255.627 251.909,234.028 276.377 C 230.429 280.454,230.134 280.732,226.976 283.039 C 198.176 304.077,157.953 284.635,156.554 249.000 C 155.390 219.367,183.116 197.003,211.691 204.525 M198.400 226.824 C 186.423 227.902,178.318 238.405,180.084 250.557 C 180.770 255.279,180.846 255.457,184.279 260.327 C 195.393 276.090,221.600 266.849,221.600 247.166 C 221.600 237.293,210.850 225.701,202.400 226.464 C 202.070 226.493,200.270 226.656,198.400 226.824 " stroke="none" fill="#040404" fill-rule="evenodd"></path></g></svg>