<svg id="svg" version="1.1" xmlns="http://www.w3.org/2000/svg" xmlns:xlink="http://www.w3.org/1999/xlink" width="400" height="400" viewBox="0, 0, 400,400"><g id="svgg"><path id="path0" d="M196.800 52.528 C 195.590 53.258,190.460 56.208,185.400 59.085 C 180.340 61.961,174.940 65.038,173.400 65.922 C 171.860 66.806,168.440 68.742,165.800 70.225 C 163.160 71.708,158.735 74.244,155.966 75.860 C 153.198 77.477,150.806 78.800,150.650 78.800 C 150.495 78.800,149.880 79.137,149.284 79.550 C 148.688 79.962,145.590 81.792,142.400 83.617 C 139.210 85.441,136.316 87.174,135.969 87.467 C 135.621 87.760,135.154 88.000,134.931 88.000 C 134.708 88.000,131.842 89.549,128.562 91.442 C 125.283 93.336,121.880 95.288,121.000 95.781 C 120.120 96.273,117.639 97.694,115.486 98.938 C 113.333 100.182,111.492 101.200,111.394 101.200 C 111.296 101.200,110.231 101.830,109.027 102.600 C 107.823 103.370,106.731 104.000,106.600 104.000 C 106.469 104.000,105.425 104.596,104.281 105.324 C 103.136 106.053,101.930 106.780,101.600 106.940 C 101.270 107.100,100.638 107.449,100.196 107.716 C 97.394 109.402,92.803 112.000,92.625 112.000 C 92.508 112.000,91.554 112.510,90.506 113.133 C 87.203 115.096,83.067 117.479,81.200 118.494 C 77.315 120.606,72.798 123.321,72.457 123.749 C 71.917 124.426,71.030 272.134,71.559 273.124 C 71.790 273.556,72.659 274.325,73.490 274.833 C 75.109 275.824,75.338 275.955,79.000 277.991 C 80.320 278.725,82.030 279.717,82.800 280.196 C 83.570 280.674,85.190 281.609,86.400 282.272 C 90.708 284.635,98.222 288.929,99.600 289.814 C 100.370 290.309,102.080 291.299,103.400 292.014 C 104.720 292.729,106.250 293.623,106.800 294.002 C 107.350 294.380,109.330 295.543,111.200 296.586 C 113.070 297.629,115.230 298.890,116.000 299.388 C 116.770 299.886,120.370 301.963,124.000 304.003 C 127.630 306.044,131.590 308.294,132.800 309.004 C 134.010 309.713,139.140 312.682,144.200 315.600 C 149.260 318.519,154.030 321.304,154.800 321.789 C 155.570 322.274,157.240 323.249,158.511 323.954 C 159.782 324.659,161.672 325.755,162.711 326.388 C 163.750 327.022,165.500 328.027,166.600 328.621 C 167.700 329.215,170.985 331.118,173.900 332.851 C 176.814 334.583,179.263 336.000,179.342 336.000 C 179.421 336.000,180.996 336.870,182.843 337.933 C 194.153 344.447,197.084 346.156,197.789 346.649 C 199.341 347.733,200.457 347.358,206.839 343.610 C 209.600 341.989,214.271 339.292,215.939 338.357 C 217.514 337.473,224.073 333.678,229.200 330.683 C 229.970 330.233,231.770 329.213,233.200 328.417 C 234.630 327.620,236.517 326.480,237.393 325.884 C 238.269 325.288,239.104 324.800,239.249 324.800 C 239.394 324.800,241.917 323.387,244.856 321.659 C 247.795 319.932,251.190 317.948,252.400 317.252 C 253.610 316.555,254.870 315.807,255.200 315.590 C 255.530 315.373,256.070 315.074,256.400 314.926 C 256.730 314.778,258.393 313.789,260.096 312.728 C 261.798 311.668,263.298 310.800,263.428 310.800 C 263.559 310.800,264.776 310.140,266.133 309.333 C 273.224 305.119,277.659 302.551,279.963 301.326 C 281.373 300.577,282.993 299.645,283.563 299.255 C 284.134 298.865,286.490 297.496,288.800 296.212 C 292.614 294.093,302.130 288.547,303.600 287.587 C 303.930 287.371,304.470 287.075,304.800 286.929 C 305.130 286.782,306.410 285.998,307.644 285.187 C 308.878 284.376,310.766 283.282,311.840 282.756 C 312.913 282.230,314.915 281.125,316.289 280.300 C 317.662 279.475,318.883 278.800,319.003 278.800 C 319.122 278.800,320.340 278.095,321.710 277.234 C 323.674 275.999,334.658 269.604,340.800 266.121 C 341.350 265.809,342.700 265.019,343.800 264.365 C 344.900 263.712,346.160 263.023,346.600 262.834 C 347.040 262.645,349.799 261.030,352.731 259.245 C 355.663 257.460,358.183 255.999,358.331 255.999 C 358.479 255.998,359.680 255.279,361.000 254.400 C 362.320 253.521,363.715 252.802,364.100 252.801 C 365.061 252.800,365.206 104.642,364.245 104.273 C 363.867 104.127,363.750 104.286,363.877 104.773 C 364.011 105.286,363.634 105.711,362.532 106.286 C 361.689 106.726,359.290 107.988,357.200 109.091 C 355.110 110.195,348.801 113.446,343.180 116.317 C 337.559 119.188,332.069 122.013,330.980 122.595 C 328.259 124.048,328.365 124.088,316.031 117.018 C 310.065 113.598,305.089 110.800,304.973 110.800 C 304.857 110.800,303.777 110.170,302.573 109.400 C 301.369 108.630,300.295 108.000,300.185 108.000 C 300.076 108.000,298.535 107.100,296.761 106.000 C 294.988 104.900,293.435 104.000,293.311 104.000 C 293.187 104.000,291.626 103.130,289.843 102.067 C 288.059 101.004,284.890 99.171,282.800 97.994 C 280.710 96.816,277.920 95.229,276.600 94.466 C 270.260 90.804,265.831 88.311,265.055 87.969 C 264.585 87.761,263.480 87.148,262.600 86.606 C 261.720 86.064,259.650 84.872,258.000 83.955 C 256.350 83.039,253.110 81.174,250.800 79.810 C 247.187 77.677,244.400 76.092,241.000 74.237 C 240.560 73.996,240.110 73.700,240.000 73.578 C 239.890 73.456,239.080 72.986,238.200 72.532 C 236.323 71.566,236.007 71.388,226.600 66.002 C 222.640 63.735,216.880 60.452,213.800 58.708 C 210.720 56.964,206.511 54.561,204.446 53.368 C 200.044 50.825,199.690 50.786,196.800 52.528 " stroke="none" fill="#3f73e0" fill-rule="evenodd"></path><path id="path1" d="M198.189 10.551 C 197.324 11.155,188.909 16.044,182.600 19.608 C 180.400 20.850,176.800 22.917,174.600 24.201 C 172.400 25.485,170.240 26.733,169.800 26.974 C 169.360 27.215,167.740 28.154,166.200 29.061 C 153.669 36.442,141.497 43.496,136.600 46.216 C 135.500 46.827,133.929 47.749,133.108 48.264 C 132.287 48.779,131.519 49.200,131.400 49.200 C 131.281 49.200,130.423 49.680,129.493 50.267 C 127.459 51.551,121.140 55.200,120.950 55.200 C 120.876 55.200,119.867 55.804,118.708 56.542 C 117.548 57.279,114.170 59.284,111.200 60.997 C 108.230 62.710,102.830 65.824,99.200 67.917 C 88.613 74.022,85.811 75.626,82.800 77.305 C 81.590 77.980,80.121 78.817,79.536 79.166 C 77.960 80.105,73.974 82.425,72.600 83.201 C 71.940 83.575,70.140 84.654,68.600 85.600 C 67.060 86.546,65.260 87.625,64.600 87.998 C 63.940 88.372,60.340 90.441,56.600 92.597 C 52.860 94.754,48.990 96.963,48.000 97.506 C 47.010 98.050,43.725 99.934,40.700 101.695 L 35.200 104.895 35.200 199.832 C 35.200 275.284,35.303 294.857,35.700 295.202 C 36.207 295.641,44.935 300.779,48.600 302.796 C 49.700 303.401,53.300 305.465,56.600 307.383 C 59.900 309.300,63.410 311.322,64.400 311.876 C 65.390 312.430,66.380 313.021,66.600 313.189 C 66.820 313.357,68.080 314.088,69.400 314.813 C 70.720 315.538,72.279 316.417,72.864 316.766 C 74.987 318.031,78.640 320.146,80.400 321.128 C 81.390 321.681,82.740 322.461,83.400 322.863 C 84.060 323.265,84.870 323.721,85.200 323.877 C 85.530 324.032,87.060 324.904,88.600 325.813 C 90.140 326.722,92.210 327.918,93.200 328.471 C 97.197 330.703,114.268 340.585,115.200 341.206 C 115.530 341.425,116.070 341.725,116.400 341.870 C 116.730 342.016,117.948 342.735,119.108 343.468 C 120.267 344.201,121.284 344.800,121.367 344.800 C 121.451 344.800,123.832 346.172,126.659 347.850 C 129.487 349.527,132.961 351.518,134.379 352.274 C 135.798 353.030,137.958 354.249,139.179 354.983 C 141.059 356.112,146.572 359.276,151.474 362.039 C 152.175 362.434,153.435 363.185,154.274 363.708 C 155.113 364.231,156.070 364.787,156.400 364.945 C 156.730 365.102,157.360 365.451,157.800 365.720 C 161.301 367.856,165.378 370.226,168.200 371.764 C 168.640 372.004,169.090 372.290,169.200 372.400 C 169.310 372.510,169.760 372.796,170.200 373.037 C 173.676 374.933,176.027 376.268,177.326 377.085 C 178.871 378.054,179.483 378.406,183.800 380.800 C 185.120 381.533,186.740 382.452,187.400 382.843 C 189.865 384.306,197.450 388.614,198.800 389.319 L 200.200 390.050 203.600 388.093 C 205.470 387.017,207.900 385.635,209.000 385.021 C 210.100 384.407,213.520 382.460,216.600 380.694 C 219.680 378.928,223.010 377.034,224.000 376.484 C 224.990 375.935,226.278 375.151,226.862 374.743 C 227.446 374.334,228.014 374.000,228.124 374.000 C 228.234 374.000,231.058 372.380,234.400 370.400 C 237.742 368.420,240.535 366.800,240.606 366.800 C 240.678 366.800,242.188 365.900,243.961 364.800 C 245.735 363.700,247.288 362.800,247.412 362.800 C 247.537 362.800,248.623 362.170,249.827 361.400 C 251.031 360.630,252.106 360.000,252.216 360.000 C 252.326 360.000,253.087 359.578,253.908 359.063 C 254.729 358.548,256.480 357.528,257.800 356.798 C 259.120 356.067,260.740 355.168,261.400 354.800 C 262.544 354.162,265.783 352.365,268.800 350.694 C 269.570 350.268,270.470 349.712,270.800 349.459 C 271.130 349.207,271.760 348.804,272.200 348.564 C 274.853 347.118,276.916 345.927,279.307 344.460 C 280.796 343.547,282.110 342.800,282.226 342.800 C 282.343 342.800,283.423 342.170,284.627 341.400 C 285.831 340.630,286.885 340.000,286.969 340.000 C 287.053 340.000,289.838 338.380,293.156 336.400 C 296.475 334.420,299.270 332.800,299.368 332.800 C 299.466 332.800,301.943 331.388,304.873 329.662 C 307.803 327.936,311.370 325.887,312.800 325.108 C 316.300 323.202,318.766 321.784,322.724 319.400 C 326.974 316.840,327.799 316.356,330.060 315.096 C 331.083 314.527,332.613 313.629,333.460 313.101 C 334.307 312.573,335.270 312.013,335.600 311.855 C 335.930 311.698,336.564 311.351,337.008 311.084 C 337.892 310.555,342.366 307.970,348.600 304.389 C 350.800 303.125,354.760 300.874,357.400 299.387 C 360.040 297.901,362.785 296.251,363.500 295.722 L 364.800 294.759 364.800 273.780 C 364.800 249.785,365.162 251.630,361.000 254.400 C 359.680 255.279,358.479 255.998,358.331 255.999 C 358.183 255.999,355.663 257.460,352.731 259.245 C 349.799 261.030,347.040 262.645,346.600 262.834 C 346.160 263.023,344.900 263.712,343.800 264.365 C 342.700 265.019,341.350 265.809,340.800 266.121 C 334.658 269.604,323.674 275.999,321.710 277.234 C 320.340 278.095,319.122 278.800,319.003 278.800 C 318.883 278.800,317.662 279.475,316.289 280.300 C 314.915 281.125,312.913 282.230,311.840 282.756 C 310.766 283.282,308.873 284.362,307.633 285.156 C 306.394 285.950,305.024 286.826,304.590 287.103 C 304.155 287.379,303.530 287.727,303.200 287.876 C 302.870 288.026,300.440 289.437,297.800 291.013 C 295.160 292.589,291.110 294.929,288.800 296.212 C 286.490 297.496,284.134 298.865,283.563 299.255 C 282.993 299.645,281.373 300.577,279.963 301.326 C 277.659 302.551,273.224 305.119,266.133 309.333 C 264.776 310.140,263.559 310.800,263.428 310.800 C 263.234 310.800,258.291 313.739,256.000 315.218 C 255.670 315.431,255.130 315.728,254.800 315.878 C 254.470 316.029,253.300 316.684,252.200 317.335 C 243.769 322.324,239.474 324.800,239.249 324.800 C 239.104 324.800,238.269 325.288,237.393 325.884 C 236.517 326.480,234.630 327.620,233.200 328.417 C 231.770 329.213,229.970 330.233,229.200 330.683 C 224.073 333.678,217.514 337.473,215.939 338.357 C 214.271 339.292,209.600 341.989,206.839 343.610 C 200.457 347.358,199.341 347.733,197.789 346.649 C 197.084 346.156,194.153 344.447,182.843 337.933 C 180.996 336.870,179.421 336.000,179.342 336.000 C 179.263 336.000,176.814 334.583,173.900 332.851 C 170.985 331.118,167.700 329.215,166.600 328.621 C 165.500 328.027,163.750 327.022,162.711 326.388 C 161.672 325.755,159.782 324.659,158.511 323.954 C 157.240 323.249,155.570 322.274,154.800 321.789 C 154.030 321.304,149.260 318.519,144.200 315.600 C 139.140 312.682,134.010 309.713,132.800 309.004 C 131.590 308.294,127.630 306.044,124.000 304.003 C 120.370 301.963,116.770 299.886,116.000 299.388 C 115.230 298.890,113.070 297.629,111.200 296.586 C 109.330 295.543,107.350 294.380,106.800 294.002 C 106.250 293.623,104.720 292.729,103.400 292.014 C 102.080 291.299,100.370 290.309,99.600 289.814 C 98.222 288.929,90.708 284.635,86.400 282.272 C 85.190 281.609,83.570 280.674,82.800 280.196 C 82.030 279.717,80.320 278.725,79.000 277.991 C 75.338 275.955,75.109 275.824,73.490 274.833 C 72.659 274.325,71.790 273.556,71.559 273.124 C 71.030 272.134,71.917 124.426,72.457 123.749 C 72.798 123.321,77.315 120.606,81.200 118.494 C 83.067 117.479,87.203 115.096,90.506 113.133 C 91.554 112.510,92.508 112.000,92.625 112.000 C 92.803 112.000,97.394 109.402,100.196 107.716 C 100.638 107.449,101.270 107.100,101.600 106.940 C 101.930 106.780,103.136 106.053,104.281 105.324 C 105.425 104.596,106.469 104.000,106.600 104.000 C 106.731 104.000,107.823 103.370,109.027 102.600 C 110.231 101.830,111.296 101.200,111.394 101.200 C 111.492 101.200,113.333 100.182,115.486 98.938 C 117.639 97.694,120.120 96.273,121.000 95.781 C 121.880 95.288,125.283 93.336,128.562 91.442 C 131.842 89.549,134.708 88.000,134.931 88.000 C 135.154 88.000,135.621 87.760,135.969 87.467 C 136.316 87.174,139.210 85.441,142.400 83.617 C 145.590 81.792,148.688 79.962,149.284 79.550 C 149.880 79.137,150.495 78.800,150.650 78.800 C 150.806 78.800,153.198 77.477,155.966 75.860 C 158.735 74.244,163.160 71.708,165.800 70.225 C 168.440 68.742,171.860 66.806,173.400 65.921 C 174.940 65.036,179.080 62.684,182.600 60.694 C 186.120 58.704,191.264 55.754,194.030 54.138 C 200.043 50.626,199.739 50.649,204.446 53.368 C 206.511 54.561,210.720 56.964,213.800 58.708 C 216.880 60.452,222.640 63.735,226.600 66.002 C 236.007 71.388,236.323 71.566,238.200 72.532 C 239.080 72.986,239.890 73.456,240.000 73.578 C 240.110 73.700,240.560 73.996,241.000 74.237 C 244.400 76.092,247.187 77.677,250.800 79.810 C 253.110 81.174,256.350 83.039,258.000 83.955 C 259.650 84.872,261.720 86.064,262.600 86.606 C 263.480 87.148,264.585 87.761,265.055 87.969 C 265.831 88.311,270.260 90.804,276.600 94.466 C 277.920 95.229,280.710 96.816,282.800 97.994 C 284.890 99.171,288.059 101.004,289.843 102.067 C 291.626 103.130,293.187 104.000,293.311 104.000 C 293.435 104.000,294.988 104.900,296.761 106.000 C 298.535 107.100,300.076 108.000,300.185 108.000 C 300.295 108.000,301.369 108.630,302.573 109.400 C 303.777 110.170,304.857 110.800,304.973 110.800 C 305.089 110.800,310.065 113.598,316.031 117.018 C 328.365 124.088,328.259 124.048,330.980 122.595 C 332.069 122.013,337.559 119.188,343.180 116.317 C 348.801 113.446,355.110 110.195,357.200 109.091 C 359.290 107.988,361.684 106.729,362.520 106.292 C 365.037 104.978,364.957 104.901,355.600 99.606 C 352.432 97.814,352.044 97.590,342.845 92.261 C 338.800 89.917,335.437 88.000,335.372 88.000 C 335.168 88.000,328.625 84.041,328.117 83.610 C 327.851 83.384,327.562 83.200,327.474 83.200 C 327.283 83.200,320.372 79.249,319.800 78.812 C 319.406 78.511,317.908 77.671,312.800 74.887 C 311.370 74.107,308.615 72.509,306.677 71.335 C 304.739 70.161,303.100 69.200,303.034 69.200 C 302.898 69.200,297.497 66.113,292.200 63.006 C 290.220 61.845,287.970 60.533,287.200 60.091 C 286.430 59.649,284.180 58.338,282.200 57.177 C 277.674 54.523,266.659 48.142,264.800 47.097 C 258.703 43.671,246.335 36.502,245.207 35.740 C 244.441 35.223,243.682 34.800,243.520 34.800 C 243.358 34.800,241.973 33.990,240.442 33.000 C 238.912 32.010,237.582 31.200,237.487 31.200 C 237.315 31.200,234.694 29.694,226.000 24.602 C 220.226 21.220,219.545 20.830,216.600 19.212 C 215.280 18.487,214.020 17.762,213.800 17.601 C 213.423 17.324,211.467 16.210,207.800 14.182 C 206.920 13.696,204.943 12.556,203.406 11.649 C 200.419 9.885,199.437 9.679,198.189 10.551 " stroke="none" fill="#15243e" fill-rule="evenodd"></path><path id="path2" d="M0.000 200.000 L 0.000 400.000 200.000 400.000 L 400.000 400.000 400.000 200.000 L 400.000 0.000 200.000 0.000 L 0.000 0.000 0.000 200.000 M203.351 10.413 C 204.918 11.300,206.470 12.200,206.800 12.412 C 207.904 13.123,217.392 18.639,218.000 18.924 C 218.330 19.079,219.320 19.658,220.200 20.212 C 221.080 20.765,222.250 21.434,222.800 21.699 C 223.350 21.963,224.970 22.919,226.400 23.823 C 228.623 25.227,230.926 26.559,234.600 28.563 C 235.040 28.804,235.670 29.207,236.000 29.459 C 236.685 29.984,238.506 31.018,242.800 33.320 C 244.450 34.205,246.471 35.350,247.292 35.865 C 248.113 36.379,248.886 36.800,249.011 36.800 C 249.136 36.800,250.175 37.396,251.319 38.124 C 252.464 38.853,253.670 39.575,254.000 39.729 C 254.330 39.884,255.320 40.428,256.200 40.938 C 258.076 42.025,261.458 43.942,262.600 44.564 C 263.040 44.804,263.670 45.207,264.000 45.460 C 264.532 45.868,267.126 47.362,269.406 48.572 C 269.849 48.807,270.749 49.360,271.407 49.800 C 273.230 51.019,274.072 51.515,275.600 52.268 C 276.370 52.648,277.090 53.075,277.200 53.219 C 277.310 53.362,278.210 53.927,279.200 54.474 C 284.913 57.631,285.936 58.211,287.292 59.063 C 288.113 59.578,288.874 60.000,288.984 60.000 C 289.156 60.000,290.533 60.814,294.210 63.089 C 294.644 63.358,295.630 63.889,296.400 64.269 C 297.170 64.649,298.928 65.644,300.307 66.480 C 301.686 67.316,302.911 68.000,303.029 68.000 C 303.147 68.000,304.647 68.900,306.362 70.000 C 308.077 71.100,309.593 72.000,309.732 72.000 C 309.871 72.000,310.933 72.591,312.092 73.314 C 313.252 74.037,314.875 74.978,315.700 75.405 C 316.525 75.832,317.200 76.321,317.200 76.491 C 317.200 76.661,317.560 76.800,318.000 76.800 C 318.440 76.800,318.800 76.948,318.800 77.129 C 318.800 77.310,319.565 77.854,320.500 78.338 C 323.254 79.763,325.556 81.066,326.096 81.505 C 326.654 81.959,328.308 82.899,332.800 85.318 C 334.450 86.207,336.701 87.503,337.803 88.200 C 339.727 89.416,340.448 89.831,345.800 92.800 C 347.120 93.532,348.740 94.460,349.400 94.862 C 350.060 95.264,350.870 95.717,351.200 95.867 C 351.530 96.018,351.890 96.245,352.000 96.371 C 352.110 96.497,352.560 96.796,353.000 97.037 C 356.750 99.083,358.750 100.210,359.602 100.757 C 361.409 101.917,362.182 102.369,363.514 103.041 C 364.236 103.406,364.994 104.015,365.197 104.395 C 365.606 105.158,365.833 294.191,365.427 295.209 C 365.195 295.791,362.054 297.807,355.632 301.495 C 353.999 302.433,352.601 303.200,352.524 303.200 C 352.447 303.200,351.713 303.622,350.892 304.138 C 348.722 305.503,338.806 311.229,337.400 311.929 C 336.740 312.258,335.750 312.832,335.200 313.206 C 334.650 313.580,333.390 314.332,332.400 314.877 C 326.779 317.973,325.674 318.607,324.407 319.461 C 323.641 319.977,322.786 320.400,322.507 320.400 C 322.228 320.400,322.000 320.559,322.000 320.753 C 322.000 320.948,321.685 321.208,321.300 321.332 C 320.915 321.456,319.700 322.097,318.600 322.755 C 317.500 323.414,316.150 324.210,315.600 324.523 C 314.438 325.186,309.728 327.950,303.200 331.800 C 300.670 333.293,297.610 335.052,296.400 335.711 C 295.190 336.369,292.040 338.152,289.400 339.673 C 283.285 343.197,283.301 343.187,281.400 344.223 C 280.520 344.702,276.438 347.086,272.330 349.522 C 268.221 351.958,263.451 354.749,261.730 355.726 C 256.329 358.790,255.875 359.053,252.652 360.970 C 250.920 362.000,248.580 363.351,247.452 363.971 C 244.212 365.751,236.339 370.216,234.800 371.147 C 234.030 371.612,233.130 372.119,232.800 372.272 C 232.470 372.426,231.300 373.117,230.200 373.808 C 229.100 374.499,227.930 375.184,227.600 375.330 C 227.270 375.475,226.651 375.821,226.223 376.097 C 224.109 377.465,221.217 379.200,221.051 379.200 C 220.948 379.200,219.412 380.100,217.639 381.200 C 215.865 382.300,214.312 383.200,214.188 383.200 C 214.063 383.200,212.977 383.830,211.773 384.600 C 210.569 385.370,209.472 386.000,209.335 386.000 C 209.199 386.000,207.946 386.720,206.553 387.600 C 205.160 388.480,203.921 389.200,203.801 389.200 C 203.681 389.200,202.868 389.673,201.993 390.252 L 200.404 391.304 198.502 390.328 C 196.168 389.131,187.076 383.917,186.800 383.617 C 186.690 383.498,185.970 383.086,185.200 382.702 C 184.430 382.319,183.530 381.827,183.200 381.609 C 182.460 381.120,170.653 374.132,169.000 373.204 C 168.340 372.834,166.720 371.937,165.400 371.212 C 164.080 370.487,162.820 369.757,162.600 369.589 C 162.380 369.421,161.300 368.785,160.200 368.175 C 159.100 367.566,157.660 366.743,157.000 366.347 C 156.340 365.950,155.080 365.249,154.200 364.788 C 153.320 364.327,152.240 363.734,151.800 363.472 C 151.360 363.209,149.560 362.164,147.800 361.150 C 146.040 360.135,142.980 358.353,141.000 357.188 C 139.020 356.024,136.860 354.797,136.200 354.462 C 135.540 354.127,133.819 353.099,132.375 352.177 C 130.932 351.256,129.357 350.377,128.875 350.224 C 128.394 350.071,128.000 349.778,128.000 349.573 C 128.000 349.368,127.846 349.200,127.657 349.200 C 127.469 349.200,125.714 348.271,123.757 347.136 C 121.801 346.000,119.750 344.821,119.200 344.514 C 118.650 344.208,117.660 343.636,117.000 343.244 C 116.340 342.852,114.720 341.940,113.400 341.216 C 111.043 339.924,105.250 336.577,101.494 334.337 C 100.446 333.712,99.515 333.200,99.426 333.200 C 99.277 333.200,84.281 324.457,79.200 321.407 C 76.959 320.062,76.045 319.544,71.800 317.212 C 70.480 316.487,69.220 315.755,69.000 315.586 C 68.780 315.416,67.743 314.813,66.696 314.246 C 63.656 312.601,61.800 311.546,55.000 307.596 C 51.480 305.551,47.610 303.337,46.400 302.674 C 45.190 302.012,42.580 300.480,40.600 299.271 C 38.620 298.061,36.523 296.826,35.939 296.526 C 35.355 296.226,34.769 295.696,34.636 295.349 C 34.186 294.177,34.369 104.720,34.820 104.176 C 35.049 103.900,35.814 103.382,36.518 103.026 C 37.223 102.669,38.149 102.158,38.577 101.889 C 41.726 99.906,43.597 98.800,43.800 98.800 C 43.931 98.800,44.975 98.204,46.119 97.476 C 47.264 96.747,48.470 96.026,48.800 95.872 C 49.130 95.719,49.940 95.265,50.600 94.863 C 52.112 93.943,55.259 92.159,57.600 90.895 C 58.590 90.360,59.580 89.782,59.800 89.610 C 60.226 89.276,67.130 85.272,69.800 83.809 C 72.793 82.170,75.397 80.675,76.892 79.736 C 77.713 79.221,78.495 78.800,78.630 78.800 C 78.766 78.800,79.442 78.395,80.133 77.900 C 80.823 77.405,81.789 76.789,82.279 76.532 C 84.294 75.472,85.812 74.586,86.000 74.360 C 86.110 74.228,87.280 73.523,88.600 72.794 C 91.269 71.321,90.919 71.522,99.800 66.371 C 103.320 64.329,106.785 62.383,107.500 62.046 C 108.215 61.709,108.800 61.291,108.800 61.117 C 108.800 60.942,108.961 60.800,109.157 60.800 C 109.452 60.800,113.669 58.505,117.000 56.532 C 117.440 56.272,118.430 55.740,119.200 55.352 C 119.970 54.963,121.993 53.780,123.696 52.722 C 125.398 51.665,126.900 50.800,127.034 50.800 C 127.167 50.800,127.842 50.395,128.533 49.900 C 129.223 49.405,130.151 48.807,130.594 48.572 C 133.114 47.234,135.475 45.858,136.000 45.421 C 136.330 45.146,136.870 44.811,137.200 44.675 C 137.530 44.539,138.880 43.789,140.200 43.007 C 141.520 42.226,143.050 41.368,143.600 41.101 C 144.150 40.834,144.690 40.505,144.800 40.368 C 144.910 40.231,146.080 39.523,147.400 38.793 C 148.720 38.063,151.934 36.236,154.543 34.733 C 157.151 33.230,159.433 32.000,159.614 32.000 C 159.795 32.000,160.188 31.775,160.487 31.500 C 160.786 31.225,161.384 30.804,161.815 30.563 C 162.247 30.323,163.673 29.532,164.985 28.804 C 166.296 28.077,168.313 26.878,169.466 26.141 C 170.618 25.403,171.662 24.800,171.785 24.800 C 171.908 24.800,173.445 23.900,175.200 22.800 C 176.955 21.700,178.492 20.800,178.615 20.800 C 178.738 20.800,179.775 20.204,180.919 19.476 C 182.064 18.747,183.270 18.026,183.600 17.872 C 183.930 17.719,184.740 17.265,185.400 16.863 C 186.060 16.461,187.500 15.634,188.600 15.024 C 190.730 13.842,193.739 12.071,197.000 10.078 C 199.607 8.485,199.979 8.504,203.351 10.413 " stroke="none" fill="#fbfbfb" fill-rule="evenodd"></path><path id="path3" d="M197.000 10.078 C 193.739 12.071,190.730 13.842,188.600 15.024 C 187.500 15.634,186.060 16.461,185.400 16.863 C 184.740 17.265,183.930 17.719,183.600 17.872 C 183.270 18.026,182.064 18.747,180.919 19.476 C 179.775 20.204,178.738 20.800,178.615 20.800 C 178.492 20.800,176.955 21.700,175.200 22.800 C 173.445 23.900,171.908 24.800,171.785 24.800 C 171.662 24.800,170.618 25.403,169.466 26.141 C 168.313 26.878,166.296 28.077,164.985 28.804 C 163.673 29.532,162.247 30.323,161.815 30.563 C 161.384 30.804,160.786 31.225,160.487 31.500 C 160.188 31.775,159.795 32.000,159.614 32.000 C 159.433 32.000,157.151 33.230,154.543 34.733 C 151.934 36.236,148.720 38.063,147.400 38.793 C 146.080 39.523,144.910 40.231,144.800 40.368 C 144.690 40.505,144.150 40.834,143.600 41.101 C 143.050 41.368,141.520 42.226,140.200 43.007 C 138.880 43.789,137.530 44.539,137.200 44.675 C 136.870 44.811,136.330 45.146,136.000 45.421 C 135.475 45.858,133.114 47.234,130.594 48.572 C 130.151 48.807,129.223 49.405,128.533 49.900 C 127.842 50.395,127.167 50.800,127.034 50.800 C 126.900 50.800,125.398 51.665,123.696 52.722 C 121.993 53.780,119.970 54.963,119.200 55.352 C 118.430 55.740,117.440 56.272,117.000 56.532 C 113.669 58.505,109.452 60.800,109.157 60.800 C 108.961 60.800,108.800 60.942,108.800 61.117 C 108.800 61.291,108.215 61.709,107.500 62.046 C 106.785 62.383,103.320 64.329,99.800 66.371 C 90.919 71.522,91.269 71.321,88.600 72.794 C 87.280 73.523,86.110 74.228,86.000 74.360 C 85.812 74.586,84.294 75.472,82.279 76.532 C 81.789 76.789,80.823 77.405,80.133 77.900 C 79.442 78.395,78.766 78.800,78.630 78.800 C 78.495 78.800,77.713 79.221,76.892 79.736 C 75.397 80.675,72.793 82.170,69.800 83.809 C 67.130 85.272,60.226 89.276,59.800 89.610 C 59.580 89.782,58.590 90.360,57.600 90.895 C 55.259 92.159,52.112 93.943,50.600 94.863 C 49.940 95.265,49.130 95.719,48.800 95.872 C 48.470 96.026,47.264 96.747,46.119 97.476 C 44.975 98.204,43.931 98.800,43.800 98.800 C 43.597 98.800,41.726 99.906,38.577 101.889 C 38.149 102.158,37.223 102.669,36.518 103.026 C 35.814 103.382,35.049 103.900,34.820 104.176 C 34.369 104.720,34.186 294.177,34.636 295.349 C 34.769 295.696,35.355 296.226,35.939 296.526 C 36.523 296.826,38.620 298.061,40.600 299.271 C 42.580 300.480,45.190 302.012,46.400 302.674 C 47.610 303.337,51.480 305.551,55.000 307.596 C 61.800 311.546,63.656 312.601,66.696 314.246 C 67.743 314.813,68.780 315.416,69.000 315.586 C 69.220 315.755,70.480 316.487,71.800 317.212 C 76.045 319.544,76.959 320.062,79.200 321.407 C 84.281 324.457,99.277 333.200,99.426 333.200 C 99.515 333.200,100.446 333.712,101.494 334.337 C 105.250 336.577,111.043 339.924,113.400 341.216 C 114.720 341.940,116.340 342.852,117.000 343.244 C 117.660 343.636,118.650 344.208,119.200 344.514 C 119.750 344.821,121.801 346.000,123.757 347.136 C 125.714 348.271,127.469 349.200,127.657 349.200 C 127.846 349.200,128.000 349.368,128.000 349.573 C 128.000 349.778,128.394 350.071,128.875 350.224 C 129.357 350.377,130.932 351.256,132.375 352.177 C 133.819 353.099,135.540 354.127,136.200 354.462 C 136.860 354.797,139.020 356.024,141.000 357.188 C 142.980 358.353,146.040 360.135,147.800 361.150 C 149.560 362.164,151.360 363.209,151.800 363.472 C 152.240 363.734,153.320 364.327,154.200 364.788 C 155.080 365.249,156.340 365.950,157.000 366.347 C 157.660 366.743,159.100 367.566,160.200 368.175 C 161.300 368.785,162.380 369.421,162.600 369.589 C 162.820 369.757,164.080 370.487,165.400 371.212 C 166.720 371.937,168.340 372.834,169.000 373.204 C 170.653 374.132,182.460 381.120,183.200 381.609 C 183.530 381.827,184.430 382.319,185.200 382.702 C 185.970 383.086,186.690 383.498,186.800 383.617 C 187.076 383.917,196.168 389.131,198.502 390.328 L 200.404 391.304 201.993 390.252 C 202.868 389.673,203.681 389.200,203.801 389.200 C 203.921 389.200,205.160 388.480,206.553 387.600 C 207.946 386.720,209.199 386.000,209.335 386.000 C 209.472 386.000,210.569 385.370,211.773 384.600 C 212.977 383.830,214.063 383.200,214.188 383.200 C 214.312 383.200,215.865 382.300,217.639 381.200 C 219.412 380.100,220.948 379.200,221.051 379.200 C 221.217 379.200,224.109 377.465,226.223 376.097 C 226.651 375.821,227.270 375.475,227.600 375.330 C 227.930 375.184,229.100 374.499,230.200 373.808 C 231.300 373.117,232.470 372.426,232.800 372.272 C 233.130 372.119,234.030 371.612,234.800 371.147 C 236.339 370.216,244.212 365.751,247.452 363.971 C 248.580 363.351,250.920 362.000,252.652 360.970 C 255.875 359.053,256.329 358.790,261.730 355.726 C 263.451 354.749,268.221 351.958,272.330 349.522 C 276.438 347.086,280.520 344.702,281.400 344.223 C 283.301 343.187,283.285 343.197,289.400 339.673 C 292.040 338.152,295.190 336.369,296.400 335.711 C 297.610 335.052,300.670 333.293,303.200 331.800 C 309.728 327.950,314.438 325.186,315.600 324.523 C 316.150 324.210,317.500 323.414,318.600 322.755 C 319.700 322.097,320.915 321.456,321.300 321.332 C 321.685 321.208,322.000 320.948,322.000 320.753 C 322.000 320.559,322.228 320.400,322.507 320.400 C 322.786 320.400,323.641 319.977,324.407 319.461 C 325.674 318.607,326.779 317.973,332.400 314.877 C 333.390 314.332,334.650 313.580,335.200 313.206 C 335.750 312.832,336.740 312.258,337.400 311.929 C 338.806 311.229,348.722 305.503,350.892 304.138 C 351.713 303.622,352.447 303.200,352.524 303.200 C 352.601 303.200,353.999 302.433,355.632 301.495 C 362.054 297.807,365.195 295.791,365.427 295.209 C 365.833 294.191,365.606 105.158,365.197 104.395 C 364.994 104.015,364.236 103.406,363.514 103.041 C 362.182 102.369,361.409 101.917,359.602 100.757 C 358.750 100.210,356.750 99.083,353.000 97.037 C 352.560 96.796,352.110 96.497,352.000 96.371 C 351.890 96.245,351.530 96.018,351.200 95.867 C 350.870 95.717,350.060 95.264,349.400 94.862 C 348.740 94.460,347.120 93.532,345.800 92.800 C 340.448 89.831,339.727 89.416,337.803 88.200 C 336.701 87.503,334.450 86.207,332.800 85.318 C 328.308 82.899,326.654 81.959,326.096 81.505 C 325.556 81.066,323.254 79.763,320.500 78.338 C 319.565 77.854,318.800 77.310,318.800 77.129 C 318.800 76.948,318.440 76.800,318.000 76.800 C 317.560 76.800,317.200 76.661,317.200 76.491 C 317.200 76.321,316.525 75.832,315.700 75.405 C 314.875 74.978,313.252 74.037,312.092 73.314 C 310.933 72.591,309.871 72.000,309.732 72.000 C 309.593 72.000,308.077 71.100,306.362 70.000 C 304.647 68.900,303.147 68.000,303.029 68.000 C 302.911 68.000,301.686 67.316,300.307 66.480 C 298.928 65.644,297.170 64.649,296.400 64.269 C 295.630 63.889,294.644 63.358,294.210 63.089 C 290.533 60.814,289.156 60.000,288.984 60.000 C 288.874 60.000,288.113 59.578,287.292 59.063 C 285.936 58.211,284.913 57.631,279.200 54.474 C 278.210 53.927,277.310 53.362,277.200 53.219 C 277.090 53.075,276.370 52.648,275.600 52.268 C 274.072 51.515,273.230 51.019,271.407 49.800 C 270.749 49.360,269.849 48.807,269.406 48.572 C 267.126 47.362,264.532 45.868,264.000 45.460 C 263.670 45.207,263.040 44.804,262.600 44.564 C 261.458 43.942,258.076 42.025,256.200 40.938 C 255.320 40.428,254.330 39.884,254.000 39.729 C 253.670 39.575,252.464 38.853,251.319 38.124 C 250.175 37.396,249.136 36.800,249.011 36.800 C 248.886 36.800,248.113 36.379,247.292 35.865 C 246.471 35.350,244.450 34.205,242.800 33.320 C 238.506 31.018,236.685 29.984,236.000 29.459 C 235.670 29.207,235.040 28.804,234.600 28.563 C 230.926 26.559,228.623 25.227,226.400 23.823 C 224.970 22.919,223.350 21.963,222.800 21.699 C 222.250 21.434,221.080 20.765,220.200 20.212 C 219.320 19.658,218.330 19.079,218.000 18.924 C 217.392 18.639,207.904 13.123,206.800 12.412 C 200.961 8.656,199.786 8.376,197.000 10.078 M205.612 12.723 C 208.135 14.221,211.370 16.086,212.800 16.867 C 217.531 19.453,223.784 23.086,226.891 25.055 C 227.712 25.575,228.478 26.000,228.594 26.000 C 228.710 26.000,231.009 27.317,233.703 28.926 C 236.396 30.535,238.870 31.976,239.200 32.129 C 239.530 32.282,240.340 32.744,241.000 33.157 C 242.068 33.825,249.731 38.326,251.800 39.501 C 258.466 43.287,267.836 48.680,274.400 52.508 C 283.419 57.769,284.177 58.207,286.800 59.677 C 287.790 60.232,291.930 62.631,296.000 65.008 C 305.993 70.844,317.156 77.200,317.411 77.200 C 317.526 77.200,318.740 77.893,320.110 78.740 C 323.878 81.070,333.247 86.559,342.400 91.799 C 346.910 94.381,351.590 97.085,352.800 97.809 C 355.166 99.223,357.815 100.725,362.100 103.083 L 364.800 104.568 364.800 199.835 C 364.800 275.565,364.697 295.185,364.300 295.508 C 364.025 295.732,363.170 296.265,362.400 296.692 C 361.630 297.120,360.010 298.020,358.800 298.693 C 357.590 299.366,354.740 301.015,352.467 302.358 C 350.194 303.701,348.289 304.800,348.234 304.800 C 348.120 304.800,337.763 310.754,332.200 314.017 C 330.220 315.178,328.090 316.415,327.467 316.764 C 326.844 317.114,326.034 317.582,325.667 317.805 C 325.300 318.028,323.767 318.928,322.261 319.805 C 320.754 320.682,318.954 321.735,318.261 322.145 C 317.567 322.555,311.420 326.090,304.600 330.000 C 297.780 333.910,289.500 338.680,286.200 340.601 C 282.900 342.521,279.390 344.549,278.400 345.107 C 277.410 345.665,275.700 346.690,274.600 347.385 C 273.500 348.080,272.330 348.774,272.000 348.928 C 271.670 349.081,270.770 349.587,270.000 350.051 C 268.793 350.778,262.470 354.392,258.000 356.910 C 253.038 359.704,249.789 361.579,244.165 364.890 C 240.664 366.952,237.530 368.764,237.200 368.917 C 236.870 369.070,236.330 369.375,236.000 369.596 C 234.765 370.420,220.866 378.482,217.000 380.616 C 216.120 381.102,212.054 383.412,207.965 385.750 C 198.941 390.908,200.817 390.901,192.200 385.813 C 190.660 384.904,189.130 384.032,188.800 383.877 C 188.470 383.721,187.570 383.213,186.800 382.749 C 185.624 382.040,177.183 377.179,173.000 374.802 C 172.340 374.427,170.582 373.373,169.093 372.460 C 167.604 371.547,166.290 370.800,166.174 370.800 C 166.057 370.800,164.977 370.170,163.773 369.400 C 162.569 368.630,161.516 368.000,161.433 368.000 C 161.349 368.000,159.058 366.685,156.341 365.079 C 153.623 363.472,151.130 362.030,150.800 361.875 C 150.470 361.720,149.660 361.265,149.000 360.863 C 148.340 360.461,146.990 359.678,146.000 359.123 C 145.010 358.568,142.400 357.070,140.200 355.795 C 135.819 353.256,134.958 352.768,131.400 350.809 C 130.080 350.082,128.522 349.152,127.938 348.743 C 127.354 348.335,126.772 348.000,126.645 348.000 C 126.518 348.000,125.238 347.280,123.800 346.400 C 122.362 345.520,121.082 344.800,120.955 344.800 C 120.828 344.800,120.158 344.395,119.467 343.900 C 118.777 343.405,117.849 342.807,117.406 342.572 C 116.360 342.017,113.826 340.569,109.600 338.111 C 102.872 334.199,90.039 326.806,88.139 325.748 C 87.073 325.153,85.660 324.339,85.000 323.937 C 84.340 323.535,83.530 323.085,83.200 322.936 C 82.870 322.786,81.652 322.065,80.492 321.332 C 79.333 320.599,78.301 320.000,78.199 320.000 C 78.097 320.000,76.838 319.280,75.400 318.400 C 73.962 317.520,72.711 316.800,72.620 316.800 C 72.463 316.800,63.567 311.632,59.473 309.162 C 58.414 308.523,57.465 308.000,57.365 308.000 C 57.266 308.000,56.513 307.578,55.692 307.063 C 54.871 306.548,53.120 305.528,51.800 304.798 C 47.739 302.550,47.087 302.173,44.337 300.487 C 42.873 299.589,40.983 298.483,40.137 298.029 C 39.292 297.576,37.880 296.782,37.000 296.266 L 35.400 295.328 35.299 199.949 L 35.198 104.569 38.065 102.985 C 41.384 101.149,41.270 101.215,55.200 93.214 C 65.673 87.198,75.018 81.727,79.923 78.737 C 81.311 77.892,82.544 77.200,82.663 77.200 C 82.782 77.200,84.526 76.231,86.540 75.047 C 88.553 73.863,91.100 72.393,92.200 71.781 C 93.300 71.168,94.683 70.382,95.274 70.034 C 95.865 69.685,98.295 68.274,100.674 66.897 C 103.053 65.520,106.260 63.655,107.800 62.752 C 109.340 61.849,111.140 60.811,111.800 60.446 C 113.162 59.692,116.647 57.650,124.267 53.141 C 129.836 49.845,131.377 48.959,134.600 47.200 C 136.490 46.169,146.710 40.258,172.800 25.103 C 202.975 7.577,199.286 8.968,205.612 12.723 " stroke="none" fill="#a4acb2" fill-rule="evenodd"></path></g></svg>