<svg id="svg" version="1.1" xmlns="http://www.w3.org/2000/svg" xmlns:xlink="http://www.w3.org/1999/xlink" width="400" height="400" viewBox="0, 0, 400,400"><g id="svgg"><path id="path0" d="M0.025 92.300 C 0.039 143.065,0.194 184.240,0.368 183.800 C 0.543 183.360,0.996 180.840,1.375 178.200 C 2.798 168.287,5.068 156.353,7.006 148.600 C 8.156 144.000,12.363 130.957,13.586 128.200 C 13.977 127.320,14.874 125.070,15.581 123.200 C 17.988 116.831,26.668 100.000,30.845 93.600 C 31.635 92.390,33.073 90.050,34.041 88.400 C 35.008 86.750,36.525 84.500,37.411 83.400 C 38.297 82.300,39.911 80.230,40.998 78.800 C 48.746 68.604,59.112 57.473,68.002 49.800 C 70.042 48.040,72.721 45.682,73.955 44.560 C 76.255 42.471,79.602 40.035,85.600 36.087 C 87.470 34.856,89.966 32.996,91.146 31.955 C 92.397 30.850,95.177 29.140,97.813 27.853 C 100.300 26.639,103.223 25.008,104.308 24.228 C 105.394 23.448,107.343 22.341,108.641 21.769 C 109.938 21.196,112.260 20.126,113.800 19.390 C 129.948 11.678,146.601 6.232,163.933 2.996 C 168.907 2.068,173.200 0.764,173.200 0.181 C 173.200 0.082,134.230 0.000,86.600 0.000 L 0.000 0.000 0.025 92.300 M226.400 0.191 C 226.400 0.886,229.006 1.731,233.826 2.601 C 242.505 4.168,245.562 4.823,248.800 5.812 C 250.450 6.316,253.150 7.035,254.800 7.410 C 261.019 8.826,279.704 15.680,284.400 18.269 C 285.390 18.815,287.403 19.774,288.874 20.402 C 290.345 21.029,292.505 22.154,293.674 22.902 C 294.843 23.650,297.870 25.382,300.400 26.750 C 302.930 28.119,307.193 30.805,309.874 32.720 C 312.555 34.634,316.515 37.444,318.674 38.965 C 320.833 40.486,323.600 42.646,324.823 43.765 C 326.046 44.884,328.923 47.330,331.217 49.200 C 339.543 55.988,351.392 68.542,357.264 76.800 C 358.281 78.230,359.602 79.850,360.200 80.400 C 361.244 81.361,368.824 92.603,372.249 98.271 C 376.768 105.751,383.074 119.299,387.946 132.000 C 388.963 134.652,390.991 141.258,391.383 143.200 C 391.539 143.970,392.354 146.760,393.194 149.400 C 394.808 154.474,395.072 155.639,396.401 163.600 C 396.861 166.350,397.425 169.410,397.655 170.400 C 397.885 171.390,398.314 174.000,398.608 176.200 C 398.902 178.400,399.324 180.650,399.546 181.200 C 399.819 181.877,399.957 152.767,399.975 91.100 L 400.000 0.000 313.200 0.000 C 265.460 0.000,226.400 0.086,226.400 0.191 M0.012 308.300 L 0.000 400.000 89.700 399.988 C 141.216 399.981,179.145 399.827,178.800 399.625 C 178.470 399.433,175.770 398.883,172.800 398.404 C 163.446 396.895,151.946 394.511,146.780 393.011 C 138.269 390.539,133.870 389.160,132.000 388.379 C 131.010 387.965,127.860 386.707,125.000 385.583 C 122.140 384.458,119.170 383.199,118.400 382.784 C 117.630 382.369,114.930 381.065,112.400 379.886 C 86.259 367.703,58.794 345.000,40.556 320.498 C 35.218 313.327,34.126 311.770,32.213 308.600 C 31.151 306.840,29.576 304.357,28.714 303.083 C 20.415 290.814,6.838 256.297,4.766 242.200 C 4.539 240.660,3.918 237.240,3.386 234.600 C 2.853 231.960,2.221 227.910,1.983 225.600 C 1.510 221.036,0.978 218.232,0.396 217.236 C 0.166 216.843,0.020 251.619,0.012 308.300 M399.421 217.700 C 399.313 218.195,398.853 221.120,398.398 224.200 C 397.942 227.280,397.235 231.510,396.826 233.600 C 396.417 235.690,395.873 238.840,395.616 240.600 C 394.447 248.622,390.751 260.590,384.126 277.800 C 381.232 285.320,374.539 298.284,369.671 305.800 C 363.293 315.649,361.739 317.948,359.941 320.200 C 353.510 328.253,351.443 330.763,348.346 334.279 C 342.502 340.912,327.920 354.507,323.546 357.400 C 322.880 357.840,321.479 358.920,320.432 359.800 C 310.439 368.197,289.120 380.126,272.400 386.674 C 265.176 389.503,245.147 395.384,240.600 396.011 C 238.840 396.253,235.946 396.789,234.169 397.202 C 232.393 397.614,228.883 398.252,226.369 398.618 C 223.856 398.984,221.530 399.439,221.200 399.630 C 220.861 399.825,259.609 399.981,310.300 399.988 L 400.000 400.000 400.000 308.400 C 400.000 258.020,399.913 216.800,399.808 216.800 C 399.702 216.800,399.528 217.205,399.421 217.700 " stroke="none" fill="#f4f4f9" fill-rule="evenodd"></path><path id="path1" d="M171.596 0.993 C 170.583 1.503,167.247 2.377,163.996 2.984 C 146.589 6.235,129.971 11.667,113.800 19.390 C 112.260 20.126,109.938 21.196,108.641 21.769 C 107.343 22.341,105.394 23.448,104.308 24.228 C 103.223 25.008,100.300 26.639,97.813 27.853 C 95.177 29.140,92.397 30.850,91.146 31.955 C 89.966 32.996,87.470 34.856,85.600 36.087 C 79.602 40.035,76.255 42.471,73.955 44.560 C 72.721 45.682,70.042 48.040,68.002 49.800 C 59.112 57.473,48.746 68.604,40.998 78.800 C 39.911 80.230,38.297 82.300,37.411 83.400 C 36.525 84.500,35.008 86.750,34.041 88.400 C 33.073 90.050,31.635 92.390,30.845 93.600 C 26.668 100.000,17.988 116.831,15.581 123.200 C 14.874 125.070,13.977 127.320,13.586 128.200 C 12.363 130.957,8.156 144.000,7.006 148.600 C 5.255 155.603,4.278 160.657,1.126 179.000 C 0.096 184.992,-0.491 211.951,0.420 211.387 C 0.906 211.087,2.499 212.568,2.109 212.957 C 1.976 213.091,2.035 213.200,2.240 213.200 C 2.446 213.200,2.584 213.833,2.548 214.608 C 2.501 215.609,2.693 216.129,3.214 216.408 C 4.296 216.987,4.400 216.916,4.400 215.600 C 4.400 214.910,4.612 214.397,4.900 214.394 C 5.239 214.390,5.210 214.268,4.812 214.016 C 4.488 213.811,4.351 213.515,4.508 213.359 C 4.665 213.202,4.625 212.871,4.419 212.623 C 4.189 212.346,4.188 211.948,4.417 211.587 C 4.727 211.096,4.789 211.114,4.794 211.700 C 4.797 212.085,4.991 212.400,5.224 212.400 C 5.457 212.400,5.544 212.567,5.417 212.772 C 5.291 212.976,5.802 213.366,6.552 213.637 C 7.598 214.015,8.118 214.576,8.779 216.040 C 10.602 220.072,12.689 218.639,14.859 211.866 C 15.863 208.731,16.485 209.059,17.013 213.000 C 17.160 214.100,17.537 216.130,17.851 217.510 C 18.165 218.891,18.597 221.411,18.812 223.110 C 19.503 228.596,21.863 238.602,23.598 243.400 C 24.831 246.808,25.199 247.031,24.199 243.764 C 20.297 231.017,18.202 209.393,19.121 191.365 C 20.205 170.112,23.378 154.646,30.739 134.738 C 32.480 130.030,39.973 114.006,41.750 111.189 C 42.371 110.205,44.167 107.230,45.740 104.577 C 48.408 100.077,51.647 95.324,54.689 91.444 C 55.398 90.540,56.737 88.720,57.665 87.400 C 58.592 86.080,61.166 83.020,63.383 80.600 C 65.601 78.180,68.222 75.230,69.208 74.044 C 70.193 72.858,72.281 70.788,73.848 69.444 C 75.414 68.100,78.834 65.086,81.448 62.746 C 86.495 58.228,92.363 53.453,93.758 52.729 C 94.221 52.488,96.040 51.221,97.800 49.913 C 105.360 44.295,123.111 34.788,132.656 31.245 C 134.385 30.604,137.385 29.436,139.321 28.651 C 143.559 26.933,152.503 24.411,162.000 22.256 C 184.317 17.193,213.307 17.018,236.847 21.802 C 252.053 24.893,271.245 31.563,282.600 37.703 C 283.040 37.941,284.409 38.637,285.641 39.250 C 286.874 39.863,289.394 41.298,291.241 42.440 C 293.089 43.582,295.230 44.879,296.000 45.323 C 301.442 48.459,311.427 55.646,317.225 60.600 C 325.162 67.382,328.670 70.863,338.793 82.000 C 345.429 89.300,363.600 116.929,363.600 119.718 C 363.600 119.844,364.680 122.160,366.000 124.866 C 367.320 127.572,368.400 129.998,368.400 130.257 C 368.400 130.517,369.046 132.230,369.835 134.065 C 373.043 141.525,377.940 158.862,379.183 167.159 C 379.426 168.786,379.713 170.259,379.820 170.432 C 380.041 170.790,380.551 175.793,381.428 186.200 C 382.131 194.543,382.212 207.630,381.596 213.400 C 380.296 225.591,379.945 228.509,379.406 231.600 C 377.542 242.288,374.260 254.404,370.850 263.179 C 368.868 268.279,368.924 268.962,370.926 264.107 C 374.225 256.107,377.108 246.921,378.995 238.400 C 379.555 235.870,380.273 232.720,380.591 231.400 C 380.909 230.080,381.254 227.801,381.359 226.334 C 381.783 220.359,383.822 208.800,384.451 208.800 C 384.616 208.800,384.872 209.610,385.021 210.600 C 385.169 211.590,385.450 212.400,385.645 212.400 C 385.840 212.400,386.003 212.715,386.006 213.100 C 386.009 213.485,386.275 214.555,386.596 215.477 C 386.917 216.399,387.492 218.964,387.874 221.177 L 388.568 225.200 390.038 225.200 C 391.863 225.200,392.697 224.089,393.203 220.984 C 393.589 218.612,394.824 215.519,395.758 214.584 C 396.085 214.258,396.277 213.600,396.185 213.122 C 395.995 212.133,397.554 208.724,398.055 209.034 C 400.007 210.240,401.176 186.509,399.446 180.800 C 399.146 179.810,398.780 177.830,398.633 176.400 C 398.486 174.970,398.113 172.630,397.803 171.200 C 397.494 169.770,396.864 166.350,396.403 163.600 C 395.068 155.625,394.807 154.470,393.194 149.400 C 392.354 146.760,391.539 143.970,391.383 143.200 C 389.525 134.010,379.214 109.798,372.249 98.271 C 368.824 92.603,361.244 81.361,360.200 80.400 C 359.602 79.850,358.281 78.230,357.264 76.800 C 351.392 68.542,339.543 55.988,331.217 49.200 C 328.923 47.330,326.046 44.884,324.823 43.765 C 323.600 42.646,320.833 40.486,318.674 38.965 C 316.515 37.444,312.555 34.634,309.874 32.720 C 307.193 30.805,302.930 28.119,300.400 26.750 C 297.870 25.382,294.843 23.650,293.674 22.902 C 292.505 22.154,290.345 21.029,288.874 20.402 C 287.403 19.774,285.390 18.815,284.400 18.269 C 279.704 15.680,261.019 8.826,254.800 7.410 C 253.150 7.035,250.450 6.316,248.800 5.812 C 245.550 4.819,242.461 4.158,233.800 2.600 C 230.098 1.934,227.833 1.323,227.116 0.796 C 226.059 0.019,225.396 0.001,199.716 0.042 L 173.400 0.085 171.596 0.993 M235.833 76.926 C 234.861 77.637,234.242 83.631,234.575 89.098 C 235.509 104.420,245.250 118.174,259.667 124.528 C 262.775 125.897,263.305 126.856,267.567 138.801 C 268.391 141.112,269.294 143.429,269.574 143.951 C 271.736 147.992,274.823 161.444,273.741 162.113 C 273.542 162.236,270.680 159.691,267.379 156.459 C 257.340 146.625,247.637 142.254,230.800 139.978 C 225.036 139.198,213.004 139.818,206.722 141.217 C 204.789 141.648,202.780 142.000,202.255 142.000 C 201.731 142.000,199.971 142.434,198.345 142.965 C 196.718 143.496,194.230 144.141,192.816 144.397 C 191.401 144.654,188.524 145.585,186.422 146.468 C 184.320 147.350,181.070 148.707,179.200 149.483 C 172.798 152.140,166.157 155.773,158.800 160.640 C 154.970 163.173,154.030 163.854,147.167 169.055 C 142.901 172.288,131.912 183.039,129.208 186.624 C 128.223 187.931,126.683 189.900,125.787 191.000 C 121.255 196.562,113.108 210.395,112.540 213.494 C 112.154 215.599,113.151 215.557,117.933 213.270 C 120.280 212.148,123.190 210.851,124.400 210.388 C 125.610 209.924,126.960 209.314,127.400 209.031 C 128.244 208.488,136.297 206.796,141.962 205.972 C 146.102 205.370,157.128 205.681,163.400 206.578 C 165.820 206.924,169.240 207.398,171.000 207.631 C 172.760 207.864,176.090 208.484,178.400 209.009 C 180.710 209.534,184.227 210.241,186.216 210.579 C 188.205 210.918,191.217 211.558,192.909 212.001 C 194.601 212.445,197.834 212.995,200.093 213.223 C 202.352 213.452,205.280 213.884,206.600 214.182 C 214.952 216.068,238.889 217.481,251.600 216.837 C 256.330 216.598,263.207 216.402,266.881 216.401 C 276.061 216.400,275.895 216.514,277.933 208.800 C 280.929 197.454,281.198 193.088,279.747 179.364 C 279.579 177.781,279.806 176.452,280.766 173.380 C 282.895 166.569,282.528 159.307,279.574 149.800 C 275.802 137.662,275.585 138.386,282.920 138.682 C 290.377 138.982,300.351 136.984,303.900 134.478 C 304.505 134.051,306.170 133.118,307.600 132.405 C 313.956 129.238,324.698 115.627,324.903 110.482 C 325.015 107.675,323.427 106.882,315.400 105.739 C 300.566 103.626,285.495 110.029,276.240 122.376 C 271.991 128.044,271.950 128.004,271.813 118.070 C 271.704 110.195,270.770 105.075,268.851 101.829 C 268.451 101.153,267.889 99.970,267.601 99.200 C 264.112 89.857,250.967 79.373,239.766 77.000 C 236.393 76.285,236.702 76.291,235.833 76.926 M198.834 206.681 L 200.577 208.510 206.588 208.230 C 209.895 208.076,216.290 207.821,220.800 207.664 C 225.310 207.507,229.183 207.263,229.407 207.123 C 230.485 206.447,258.966 206.710,261.800 207.423 C 265.217 208.281,270.867 208.310,272.140 207.476 C 274.990 205.608,276.207 206.301,276.365 209.879 C 276.579 214.716,275.345 215.552,267.916 215.607 C 264.992 215.629,260.260 215.795,257.400 215.976 C 252.273 216.300,232.302 216.203,228.800 215.837 C 227.810 215.733,225.380 215.544,223.400 215.417 C 221.420 215.289,219.350 215.115,218.800 215.029 C 218.250 214.943,216.450 214.756,214.800 214.615 C 213.150 214.473,210.300 214.006,208.467 213.578 C 206.633 213.150,204.113 212.693,202.867 212.563 C 198.592 212.119,190.677 210.328,189.810 209.609 C 189.366 209.240,188.095 208.917,185.600 208.538 C 184.830 208.421,184.020 208.136,183.800 207.904 C 183.525 207.614,183.618 207.559,184.100 207.729 C 184.544 207.885,184.800 207.776,184.800 207.431 C 184.800 206.759,186.202 206.398,187.800 206.657 C 192.471 207.414,193.147 207.358,193.841 206.148 C 194.934 204.244,196.689 204.431,198.834 206.681 M120.920 207.082 C 121.624 207.457,122.335 207.727,122.500 207.682 C 123.905 207.297,122.132 209.375,119.591 211.091 C 114.761 214.354,113.159 214.119,114.660 210.367 C 115.875 207.331,118.652 205.874,120.920 207.082 M138.600 219.225 C 127.427 220.330,110.370 228.260,109.206 232.892 C 108.970 233.831,108.422 235.693,107.988 237.028 C 106.386 241.964,107.476 239.845,109.752 233.600 C 111.083 229.946,113.354 228.431,123.891 224.166 C 135.075 219.639,147.224 218.267,160.800 219.999 C 166.129 220.678,169.687 221.117,173.400 221.552 C 177.993 222.091,184.916 223.145,188.400 223.836 C 203.589 226.848,214.215 228.473,226.000 229.586 C 228.530 229.825,232.130 230.191,234.000 230.399 C 243.879 231.502,257.040 232.075,261.272 231.588 C 269.776 230.610,271.537 232.703,268.023 239.616 C 266.439 242.733,266.456 243.214,268.051 240.432 C 269.618 237.698,271.277 232.873,270.976 231.924 C 270.646 230.884,270.357 230.861,255.400 230.649 C 243.077 230.474,233.191 229.898,223.654 228.799 C 214.597 227.756,214.054 227.679,202.600 225.816 C 195.389 224.644,189.551 223.562,188.702 223.241 C 188.206 223.053,186.810 222.780,185.600 222.634 C 183.023 222.323,175.091 221.015,170.800 220.193 C 163.893 218.869,147.257 218.370,138.600 219.225 M265.952 243.700 C 265.690 244.195,265.215 245.050,264.896 245.600 C 264.339 246.559,264.343 246.567,264.988 245.800 C 265.786 244.852,266.905 242.800,266.624 242.800 C 266.516 242.800,266.214 243.205,265.952 243.700 M25.633 250.822 C 25.595 251.539,27.220 256.514,27.424 256.309 C 27.499 256.234,27.134 254.829,26.613 253.187 C 26.091 251.544,25.650 250.480,25.633 250.822 M105.709 257.600 C 105.709 258.590,105.787 258.995,105.882 258.500 C 105.978 258.005,105.978 257.195,105.882 256.700 C 105.787 256.205,105.709 256.610,105.709 257.600 M28.477 260.000 C 29.449 262.855,31.344 267.589,31.466 267.468 C 31.643 267.291,28.879 259.931,28.516 259.613 C 28.382 259.496,28.364 259.670,28.477 260.000 " stroke="none" fill="#42bebb" fill-rule="evenodd"></path><path id="path2" d="M193.841 206.148 C 193.147 207.358,192.471 207.414,187.800 206.657 C 186.202 206.398,184.800 206.759,184.800 207.431 C 184.800 207.776,184.544 207.885,184.100 207.729 C 183.618 207.559,183.525 207.614,183.800 207.904 C 184.020 208.136,184.830 208.421,185.600 208.538 C 188.095 208.917,189.366 209.240,189.810 209.609 C 190.677 210.328,198.592 212.119,202.867 212.563 C 204.113 212.693,206.633 213.150,208.467 213.578 C 210.300 214.006,213.150 214.473,214.800 214.615 C 216.450 214.756,218.250 214.943,218.800 215.029 C 219.350 215.115,221.420 215.289,223.400 215.417 C 225.380 215.544,227.810 215.733,228.800 215.837 C 232.302 216.203,252.273 216.300,257.400 215.976 C 260.260 215.795,264.992 215.629,267.916 215.607 C 275.345 215.552,276.579 214.716,276.365 209.879 C 276.207 206.301,274.990 205.608,272.140 207.476 C 270.867 208.310,265.217 208.281,261.800 207.423 C 258.966 206.710,230.485 206.447,229.407 207.123 C 229.183 207.263,225.310 207.507,220.800 207.664 C 216.290 207.821,209.895 208.076,206.588 208.230 L 200.577 208.510 198.834 206.681 C 196.689 204.431,194.934 204.244,193.841 206.148 M116.920 207.559 C 114.890 209.030,113.271 212.703,114.358 213.374 C 115.118 213.844,120.259 211.040,122.100 209.152 C 122.808 208.425,123.052 207.531,122.500 207.682 C 122.335 207.727,121.624 207.457,120.920 207.082 C 119.193 206.162,118.781 206.211,116.920 207.559 M399.097 208.849 C 398.710 209.066,398.244 209.151,398.060 209.037 C 397.555 208.725,395.993 212.128,396.185 213.122 C 396.277 213.600,396.085 214.258,395.758 214.584 C 394.824 215.519,393.589 218.612,393.203 220.984 C 392.697 224.089,391.863 225.200,390.038 225.200 L 388.568 225.200 387.874 221.177 C 387.492 218.964,386.917 216.399,386.596 215.477 C 386.275 214.555,386.009 213.485,386.006 213.100 C 386.003 212.715,385.840 212.400,385.645 212.400 C 385.450 212.400,385.169 211.590,385.021 210.600 C 384.872 209.610,384.616 208.800,384.451 208.800 C 383.822 208.800,381.783 220.359,381.359 226.334 C 381.254 227.801,380.909 230.080,380.591 231.400 C 380.273 232.720,379.555 235.870,378.995 238.400 C 374.852 257.115,363.952 282.369,353.270 298.000 C 344.609 310.674,341.435 314.816,335.755 320.856 C 333.140 323.637,330.010 326.972,328.800 328.266 C 323.685 333.740,312.842 342.987,308.271 345.775 C 307.572 346.202,305.232 347.822,303.072 349.375 C 300.911 350.929,298.211 352.718,297.072 353.350 C 295.932 353.983,293.920 355.170,292.600 355.988 C 289.084 358.169,280.759 362.665,279.600 363.009 C 279.050 363.173,276.440 364.371,273.800 365.673 C 271.160 366.974,266.390 368.930,263.200 370.019 C 260.010 371.109,256.947 372.256,256.393 372.568 C 255.840 372.880,253.230 373.618,250.593 374.208 C 247.957 374.798,244.450 375.693,242.800 376.198 C 240.011 377.051,236.191 377.834,230.100 378.803 C 228.725 379.021,226.565 379.368,225.300 379.573 C 215.944 381.092,186.072 381.141,176.400 379.654 C 156.584 376.606,138.414 371.420,125.800 365.211 C 123.160 363.911,119.200 362.017,117.000 361.001 C 112.781 359.053,108.338 356.545,106.000 354.794 C 105.230 354.217,103.520 353.147,102.200 352.415 C 100.880 351.684,97.100 349.070,93.800 346.607 C 90.500 344.144,87.352 341.890,86.803 341.599 C 86.255 341.307,84.905 340.153,83.803 339.034 C 82.702 337.915,79.718 335.171,77.174 332.936 C 64.606 321.893,49.938 303.442,41.619 288.210 C 39.820 284.915,38.203 282.035,38.026 281.810 C 37.849 281.584,37.481 280.680,37.208 279.800 C 36.934 278.920,36.493 277.840,36.227 277.400 C 35.960 276.960,35.441 275.832,35.071 274.892 C 34.702 273.953,33.952 272.474,33.404 271.606 C 31.392 268.419,26.200 254.166,25.188 249.050 C 24.932 247.757,24.130 244.967,23.407 242.850 C 21.587 237.526,19.496 228.542,18.812 223.110 C 18.597 221.411,18.165 218.891,17.851 217.510 C 17.537 216.130,17.160 214.100,17.013 213.000 C 16.485 209.059,15.863 208.731,14.859 211.866 C 12.689 218.639,10.602 220.072,8.779 216.040 C 8.118 214.576,7.598 214.015,6.552 213.637 C 5.802 213.366,5.291 212.976,5.417 212.772 C 5.544 212.567,5.457 212.400,5.224 212.400 C 4.991 212.400,4.797 212.085,4.794 211.700 C 4.789 211.114,4.727 211.096,4.417 211.587 C 4.188 211.948,4.189 212.346,4.419 212.623 C 4.625 212.871,4.665 213.202,4.508 213.359 C 4.351 213.515,4.488 213.811,4.812 214.016 C 5.210 214.268,5.239 214.390,4.900 214.394 C 4.612 214.397,4.400 214.910,4.400 215.600 C 4.400 216.916,4.296 216.987,3.214 216.408 C 2.693 216.129,2.501 215.609,2.548 214.608 C 2.584 213.833,2.446 213.200,2.240 213.200 C 2.035 213.200,1.976 213.091,2.109 212.957 C 2.243 212.824,2.002 212.339,1.574 211.880 C -0.115 210.067,-0.508 214.285,0.908 219.016 C 1.240 220.125,1.714 223.005,1.962 225.416 C 2.211 227.827,2.850 231.960,3.384 234.600 C 3.918 237.240,4.539 240.660,4.766 242.200 C 6.838 256.297,20.415 290.814,28.714 303.083 C 29.576 304.357,31.151 306.840,32.213 308.600 C 34.126 311.770,35.218 313.327,40.556 320.498 C 58.794 345.000,86.259 367.703,112.400 379.886 C 114.930 381.065,117.630 382.369,118.400 382.784 C 119.170 383.199,122.140 384.458,125.000 385.583 C 127.860 386.707,131.010 387.965,132.000 388.379 C 133.870 389.160,138.269 390.539,146.780 393.011 C 151.940 394.510,163.427 396.891,172.798 398.405 C 175.767 398.884,178.500 399.439,178.872 399.638 C 179.751 400.109,220.238 400.113,221.126 399.643 C 221.497 399.447,223.856 398.986,226.369 398.619 C 228.883 398.252,232.393 397.614,234.169 397.202 C 235.946 396.789,238.840 396.253,240.600 396.011 C 245.147 395.384,265.176 389.503,272.400 386.674 C 289.120 380.126,310.439 368.197,320.432 359.800 C 321.479 358.920,322.880 357.840,323.546 357.400 C 330.454 352.832,346.307 337.204,354.912 326.479 C 362.408 317.136,361.558 318.328,369.671 305.800 C 374.539 298.284,381.232 285.320,384.126 277.800 C 390.751 260.590,394.447 248.622,395.616 240.600 C 395.873 238.840,396.417 235.690,396.826 233.600 C 397.235 231.510,397.940 227.280,398.392 224.200 C 398.845 221.120,399.402 217.970,399.631 217.200 C 400.360 214.746,399.952 208.369,399.097 208.849 M143.600 219.304 C 143.490 219.417,141.960 219.635,140.200 219.789 C 132.485 220.463,118.083 225.650,112.550 229.747 C 110.564 231.217,110.000 232.349,107.557 239.776 C 104.150 250.130,105.748 270.233,110.595 278.000 C 111.076 278.770,112.236 280.879,113.173 282.687 C 117.153 290.368,129.821 299.836,141.100 303.560 C 165.051 311.466,204.469 303.379,226.953 285.945 C 227.587 285.454,229.194 284.348,230.523 283.489 C 237.588 278.923,256.400 260.733,256.400 258.468 C 256.400 258.301,257.255 257.154,258.301 255.917 C 259.347 254.680,261.538 251.358,263.171 248.534 C 272.241 232.849,271.961 230.359,261.272 231.588 C 257.040 232.075,243.879 231.502,234.000 230.399 C 232.130 230.191,228.530 229.825,226.000 229.586 C 214.215 228.473,203.589 226.848,188.400 223.836 C 184.948 223.151,178.007 222.093,173.500 221.564 C 168.736 221.005,164.516 220.482,161.000 220.016 C 157.404 219.539,143.909 218.987,143.600 219.304 " stroke="none" fill="#a854e6" fill-rule="evenodd"></path><path id="path3" d="M189.200 18.622 C 180.208 19.253,175.017 19.803,170.000 20.657 C 160.561 22.263,145.210 26.264,139.321 28.651 C 137.385 29.436,134.385 30.604,132.656 31.245 C 129.521 32.409,127.694 33.238,118.600 37.626 C 112.626 40.508,102.044 46.759,97.800 49.913 C 96.040 51.221,94.221 52.488,93.758 52.729 C 92.363 53.453,86.495 58.228,81.448 62.746 C 78.834 65.086,75.414 68.100,73.848 69.444 C 72.281 70.788,70.193 72.858,69.208 74.044 C 68.222 75.230,65.601 78.180,63.383 80.600 C 61.166 83.020,58.592 86.080,57.665 87.400 C 56.737 88.720,55.398 90.540,54.689 91.444 C 51.647 95.324,48.408 100.077,45.740 104.577 C 44.167 107.230,42.371 110.205,41.750 111.189 C 39.973 114.006,32.480 130.030,30.739 134.738 C 19.186 165.986,16.111 196.786,21.201 230.298 C 22.079 236.081,25.961 251.453,28.145 257.800 C 31.312 267.001,32.564 270.276,33.457 271.690 C 33.976 272.512,34.702 273.953,35.071 274.892 C 35.441 275.832,35.960 276.960,36.227 277.400 C 36.493 277.840,36.934 278.920,37.208 279.800 C 37.481 280.680,37.849 281.584,38.026 281.810 C 38.203 282.035,39.820 284.915,41.619 288.210 C 46.164 296.532,55.395 309.804,61.366 316.600 C 67.803 323.927,72.815 329.106,77.174 332.936 C 79.718 335.171,82.702 337.915,83.803 339.034 C 84.905 340.153,86.255 341.307,86.803 341.599 C 87.352 341.890,90.500 344.144,93.800 346.607 C 97.100 349.070,100.880 351.684,102.200 352.415 C 103.520 353.147,105.230 354.217,106.000 354.794 C 108.338 356.545,112.781 359.053,117.000 361.001 C 119.200 362.017,123.160 363.911,125.800 365.211 C 138.414 371.420,156.584 376.606,176.400 379.654 C 186.139 381.151,216.007 381.091,225.400 379.554 C 226.720 379.338,229.330 378.919,231.200 378.623 C 237.061 377.695,239.704 377.142,242.800 376.197 C 244.450 375.693,247.957 374.798,250.593 374.208 C 253.230 373.618,255.840 372.880,256.393 372.568 C 256.947 372.256,260.010 371.109,263.200 370.019 C 266.390 368.930,271.160 366.974,273.800 365.673 C 276.440 364.371,279.050 363.173,279.600 363.009 C 280.759 362.665,289.084 358.169,292.600 355.988 C 293.920 355.170,295.932 353.983,297.072 353.350 C 298.211 352.718,300.911 350.929,303.072 349.375 C 305.232 347.822,307.572 346.202,308.271 345.775 C 312.842 342.987,323.685 333.740,328.800 328.266 C 330.010 326.972,333.140 323.637,335.755 320.856 C 343.244 312.892,353.585 298.550,358.722 289.000 C 370.255 267.563,375.836 252.074,379.406 231.600 C 379.945 228.509,380.296 225.591,381.596 213.400 C 382.212 207.630,382.131 194.543,381.428 186.200 C 380.551 175.793,380.041 170.790,379.820 170.432 C 379.713 170.259,379.426 168.786,379.183 167.159 C 377.940 158.862,373.043 141.525,369.835 134.065 C 369.046 132.230,368.400 130.517,368.400 130.257 C 368.400 129.998,367.320 127.572,366.000 124.866 C 364.680 122.160,363.600 119.844,363.600 119.718 C 363.600 116.929,345.429 89.300,338.793 82.000 C 328.670 70.863,325.162 67.382,317.225 60.600 C 311.427 55.646,301.442 48.459,296.000 45.323 C 295.230 44.879,293.089 43.582,291.241 42.440 C 289.394 41.298,286.874 39.863,285.641 39.250 C 284.409 38.637,283.040 37.941,282.600 37.703 C 270.680 31.258,251.601 24.722,235.800 21.673 C 220.718 18.763,203.386 17.628,189.200 18.622 M239.766 77.000 C 250.967 79.373,264.112 89.857,267.601 99.200 C 267.889 99.970,268.451 101.153,268.851 101.829 C 270.770 105.075,271.704 110.195,271.813 118.070 C 271.950 128.004,271.991 128.044,276.240 122.376 C 285.495 110.029,300.566 103.626,315.400 105.739 C 323.427 106.882,325.015 107.675,324.903 110.482 C 324.698 115.627,313.956 129.238,307.600 132.405 C 306.170 133.118,304.505 134.051,303.900 134.478 C 300.351 136.984,290.377 138.982,282.920 138.682 C 275.585 138.386,275.802 137.662,279.574 149.800 C 282.528 159.307,282.895 166.569,280.766 173.380 C 279.806 176.452,279.579 177.781,279.747 179.364 C 281.198 193.088,280.929 197.454,277.933 208.800 C 275.895 216.514,276.061 216.400,266.881 216.401 C 263.207 216.402,256.330 216.598,251.600 216.837 C 238.889 217.481,214.952 216.068,206.600 214.182 C 205.280 213.884,202.352 213.452,200.093 213.223 C 197.834 212.995,194.601 212.445,192.909 212.001 C 191.217 211.558,188.205 210.918,186.216 210.579 C 184.227 210.241,180.710 209.534,178.400 209.009 C 176.090 208.484,172.760 207.864,171.000 207.631 C 169.240 207.398,165.820 206.924,163.400 206.578 C 157.128 205.681,146.102 205.370,141.962 205.972 C 136.297 206.796,128.244 208.488,127.400 209.031 C 126.960 209.314,125.610 209.924,124.400 210.388 C 123.190 210.851,120.280 212.148,117.933 213.270 C 113.151 215.557,112.154 215.599,112.540 213.494 C 113.108 210.395,121.255 196.562,125.787 191.000 C 126.683 189.900,128.223 187.931,129.208 186.624 C 131.912 183.039,142.901 172.288,147.167 169.055 C 154.030 163.854,154.970 163.173,158.800 160.640 C 166.157 155.773,172.798 152.140,179.200 149.483 C 181.070 148.707,184.320 147.350,186.422 146.468 C 188.524 145.585,191.401 144.654,192.816 144.397 C 194.230 144.141,196.718 143.496,198.345 142.965 C 199.971 142.434,201.731 142.000,202.255 142.000 C 202.780 142.000,204.789 141.648,206.722 141.217 C 213.004 139.818,225.036 139.198,230.800 139.978 C 247.637 142.254,257.340 146.625,267.379 156.459 C 270.680 159.691,273.542 162.236,273.741 162.113 C 274.823 161.444,271.736 147.992,269.574 143.951 C 269.294 143.429,268.391 141.112,267.567 138.801 C 263.305 126.856,262.775 125.897,259.667 124.528 C 245.250 118.174,235.509 104.420,234.575 89.098 C 234.242 83.631,234.861 77.637,235.833 76.926 C 236.702 76.291,236.393 76.285,239.766 77.000 M163.400 219.208 C 165.820 219.433,169.150 219.877,170.800 220.193 C 175.091 221.015,183.023 222.323,185.600 222.634 C 186.810 222.780,188.206 223.053,188.702 223.241 C 190.241 223.823,210.170 227.184,217.000 228.013 C 232.257 229.865,240.627 230.440,255.400 230.649 C 272.909 230.897,271.865 230.582,270.352 235.163 C 265.717 249.195,245.352 273.905,230.523 283.489 C 229.194 284.348,227.587 285.454,226.953 285.945 C 204.469 303.379,165.051 311.466,141.100 303.560 C 129.821 299.836,117.153 290.368,113.173 282.687 C 112.236 280.879,111.076 278.770,110.595 278.000 C 105.502 269.838,104.113 249.928,107.790 237.800 C 108.324 236.040,108.958 233.831,109.198 232.892 C 110.385 228.253,127.433 220.329,138.600 219.225 C 143.391 218.752,158.392 218.741,163.400 219.208 " stroke="none" fill="#040405" fill-rule="evenodd"></path></g></svg>