<svg id="svg" version="1.1" xmlns="http://www.w3.org/2000/svg" xmlns:xlink="http://www.w3.org/1999/xlink" width="400" height="400" viewBox="0, 0, 400,400"><g id="svgg"><path id="path0" d="M147.783 75.945 C 144.919 77.692,143.302 81.019,143.745 84.254 C 144.463 89.489,148.458 92.000,156.071 92.000 L 160.000 92.000 160.000 119.581 C 160.000 139.513,159.872 147.473,159.538 148.281 C 159.092 149.363,154.649 158.520,145.895 176.400 C 141.277 185.833,134.836 199.027,129.396 210.200 C 126.167 216.833,122.947 223.389,107.593 254.600 C 97.751 274.604,96.104 278.169,95.766 280.200 C 93.446 294.120,101.083 306.021,114.466 309.339 C 118.511 310.342,278.562 310.364,283.200 309.362 C 293.557 307.125,299.351 301.931,303.357 291.292 C 304.076 289.381,304.302 278.634,303.631 278.219 C 303.428 278.094,303.135 277.414,302.980 276.709 C 302.825 276.003,302.552 275.150,302.373 274.813 C 302.194 274.476,299.328 268.620,296.004 261.800 C 292.681 254.980,289.668 248.860,289.310 248.200 C 288.471 246.654,289.117 247.958,281.086 231.600 C 270.807 210.662,265.294 199.447,257.489 183.600 C 253.642 175.790,248.306 164.900,245.632 159.400 C 242.957 153.900,240.551 149.040,240.284 148.600 C 239.600 147.469,239.360 92.971,240.036 92.157 C 240.374 91.749,241.581 91.598,244.549 91.594 C 253.460 91.581,258.159 86.466,255.378 79.808 C 253.483 75.273,253.073 75.173,236.931 75.295 L 223.000 75.400 223.000 113.400 L 223.000 151.400 224.555 154.600 C 226.259 158.107,233.938 173.746,245.669 197.600 C 249.834 206.070,253.548 213.630,253.921 214.400 C 254.294 215.170,254.735 215.860,254.900 215.933 C 255.065 216.007,255.200 216.262,255.200 216.502 C 255.200 216.741,257.427 221.451,260.150 226.968 C 262.872 232.486,267.352 241.590,270.104 247.200 C 272.855 252.810,277.828 262.918,281.154 269.662 C 288.224 284.001,288.373 284.605,285.821 288.594 C 284.347 290.898,283.719 291.368,280.615 292.485 C 277.835 293.486,120.343 293.586,119.024 292.587 C 118.596 292.264,117.958 292.000,117.605 292.000 C 116.852 292.000,114.487 289.549,113.493 287.738 C 112.642 286.188,112.571 282.354,113.365 280.862 C 113.986 279.697,121.855 263.689,129.814 247.400 C 132.609 241.680,136.923 232.860,139.399 227.800 C 141.876 222.740,146.188 213.920,148.981 208.200 C 151.775 202.480,154.528 196.900,155.100 195.800 C 156.401 193.297,156.009 194.092,160.714 184.400 C 162.904 179.890,166.519 172.492,168.748 167.961 C 170.976 163.429,172.800 159.536,172.800 159.310 C 172.800 159.083,173.040 158.698,173.334 158.455 C 173.628 158.211,174.107 157.286,174.400 156.400 C 174.693 155.514,175.172 154.589,175.466 154.345 C 175.760 154.102,176.000 153.485,176.000 152.975 C 176.000 152.465,176.180 151.936,176.400 151.800 C 176.652 151.644,176.802 147.222,176.806 139.876 C 176.809 133.454,176.946 127.990,177.109 127.734 C 177.317 127.407,180.195 127.228,186.718 127.134 C 194.458 127.023,196.094 126.899,196.409 126.400 C 196.830 125.733,196.924 121.502,196.548 120.100 L 196.307 119.200 187.053 119.194 C 175.868 119.186,176.743 119.619,176.886 114.168 L 177.000 109.800 186.368 109.692 C 197.347 109.566,196.816 109.773,196.758 105.651 C 196.690 100.884,197.474 101.231,186.490 101.107 L 177.000 101.000 176.894 88.100 L 176.789 75.200 162.894 75.201 C 150.066 75.203,148.907 75.260,147.783 75.945 M198.883 194.284 C 195.196 194.991,193.823 201.258,196.754 204.005 C 198.063 205.232,200.813 206.193,201.534 205.675 C 201.900 205.413,202.587 205.030,203.061 204.824 C 206.129 203.490,207.217 198.471,204.900 196.336 C 202.459 194.087,201.544 193.775,198.883 194.284 M212.629 201.429 C 212.283 201.774,212.000 202.278,212.000 202.549 C 212.000 203.921,214.756 204.648,214.847 203.300 C 214.999 201.057,213.915 200.142,212.629 201.429 M186.880 201.680 C 186.194 202.366,186.287 203.871,187.033 204.157 C 188.097 204.566,188.586 204.434,189.107 203.600 C 190.060 202.075,188.140 200.420,186.880 201.680 M174.283 204.853 C 168.532 207.824,171.361 215.995,177.800 215.008 C 180.679 214.567,182.007 212.855,181.986 209.611 C 181.959 205.486,177.905 202.982,174.283 204.853 M222.000 204.695 C 216.996 207.112,217.872 214.304,223.260 215.043 C 229.857 215.947,232.262 206.885,226.019 204.648 C 223.800 203.853,223.741 203.853,222.000 204.695 M198.955 208.236 C 198.408 210.416,201.198 211.528,201.986 209.444 C 202.461 208.188,201.761 207.200,200.394 207.200 C 199.459 207.200,199.161 207.415,198.955 208.236 M199.429 212.629 C 198.206 213.851,199.630 216.040,201.127 215.239 C 202.448 214.532,201.880 212.000,200.400 212.000 C 200.211 212.000,199.774 212.283,199.429 212.629 M181.800 215.200 C 180.498 216.639,182.848 218.409,184.229 217.029 C 184.983 216.274,184.949 215.859,184.069 215.062 C 183.117 214.201,182.680 214.227,181.800 215.200 M216.833 214.961 C 216.016 215.944,216.448 217.400,217.556 217.400 C 218.802 217.400,219.560 216.261,218.955 215.300 C 218.371 214.373,217.443 214.225,216.833 214.961 M199.429 217.829 C 198.624 218.633,198.638 218.911,199.538 220.022 C 200.403 221.091,201.452 220.871,201.954 219.514 C 202.627 217.693,200.790 216.467,199.429 217.829 M185.700 218.265 C 184.967 218.561,185.090 220.431,185.880 221.009 C 186.839 221.710,188.000 220.909,188.000 219.547 C 188.000 218.267,187.032 217.728,185.700 218.265 M213.280 218.480 C 212.687 219.073,212.651 220.661,213.223 221.014 C 213.958 221.468,215.496 220.841,215.717 219.997 C 216.095 218.551,214.317 217.443,213.280 218.480 M230.642 219.262 C 229.746 220.540,230.796 222.283,232.149 221.764 C 233.008 221.434,233.330 220.191,232.808 219.215 C 232.244 218.160,231.401 218.178,230.642 219.262 M168.900 219.465 C 168.030 219.816,168.293 221.912,169.245 222.214 C 170.441 222.594,171.318 221.607,170.980 220.262 C 170.724 219.244,170.069 218.993,168.900 219.465 M209.817 222.138 C 208.645 222.995,209.155 224.600,210.600 224.600 C 211.604 224.600,211.820 224.425,211.924 223.527 C 212.081 222.167,210.869 221.369,209.817 222.138 M188.850 222.706 C 188.330 223.678,189.215 224.800,190.501 224.800 C 191.680 224.800,192.175 223.874,191.584 222.771 C 191.066 221.802,189.356 221.761,188.850 222.706 M195.600 223.709 C 185.490 228.728,189.289 244.052,200.626 243.983 C 203.390 243.967,205.009 243.344,207.863 241.200 C 210.852 238.955,212.081 231.883,210.121 228.200 C 207.271 222.842,201.156 220.951,195.600 223.709 M164.828 228.301 C 160.821 230.344,160.712 235.755,164.632 238.056 C 169.422 240.867,175.109 234.503,171.747 230.095 C 169.941 227.727,167.298 227.041,164.828 228.301 M231.400 228.344 C 227.597 230.693,227.296 235.227,230.779 237.700 C 234.488 240.334,239.200 237.696,239.200 232.987 C 239.200 228.970,234.712 226.299,231.400 228.344 M175.030 232.208 C 174.116 232.900,174.818 234.800,175.988 234.800 C 177.462 234.800,178.275 232.345,176.967 231.843 C 176.094 231.508,175.910 231.542,175.030 232.208 M180.500 232.034 C 179.505 232.410,179.394 232.867,180.014 234.026 C 180.750 235.401,182.800 234.744,182.800 233.134 C 182.800 232.181,181.614 231.614,180.500 232.034 M185.198 232.402 C 184.231 233.369,184.839 234.800,186.216 234.800 C 187.929 234.800,188.661 232.782,187.226 232.014 C 186.194 231.462,186.125 231.475,185.198 232.402 M213.900 232.032 C 212.600 232.789,213.302 234.800,214.866 234.800 C 216.182 234.800,216.602 232.682,215.440 231.906 C 214.876 231.529,214.745 231.540,213.900 232.032 M218.587 232.160 C 217.630 232.860,218.445 234.800,219.696 234.800 C 221.550 234.800,222.231 232.620,220.574 231.990 C 219.311 231.510,219.498 231.494,218.587 232.160 M223.900 232.032 C 222.888 232.622,223.041 233.780,224.214 234.407 C 225.128 234.896,225.315 234.861,226.114 234.051 L 227.000 233.151 226.056 232.376 C 224.980 231.492,224.860 231.473,223.900 232.032 M189.700 242.265 C 188.913 242.582,189.075 244.715,189.900 244.891 C 191.643 245.265,192.722 244.076,191.928 242.657 C 191.568 242.014,190.700 241.862,189.700 242.265 M209.216 242.581 C 208.594 243.330,209.018 244.659,209.956 244.905 C 211.037 245.187,212.000 244.489,212.000 243.423 C 212.000 242.038,210.135 241.474,209.216 242.581 M229.583 243.933 C 228.330 244.948,228.976 246.800,230.584 246.800 C 231.976 246.800,232.428 245.050,231.321 243.944 C 230.547 243.169,230.527 243.169,229.583 243.933 M170.432 244.562 C 169.603 245.560,170.279 246.800,171.652 246.800 C 172.763 246.800,172.842 246.705,172.725 245.500 C 172.584 244.034,171.305 243.510,170.432 244.562 M186.342 245.967 C 185.538 246.618,185.486 246.831,185.906 247.753 C 186.677 249.445,188.800 248.905,188.800 247.016 C 188.800 245.660,187.439 245.079,186.342 245.967 M212.816 246.181 C 211.753 247.461,213.314 249.428,214.700 248.555 C 216.085 247.683,215.592 245.600,214.000 245.600 C 213.614 245.600,213.081 245.861,212.816 246.181 M199.285 246.633 C 198.583 247.889,199.170 248.856,200.552 248.721 C 201.645 248.615,201.800 248.451,201.800 247.400 C 201.800 245.969,199.969 245.411,199.285 246.633 M182.231 250.218 C 181.891 251.574,182.217 252.000,183.594 252.000 C 184.781 252.000,185.208 251.298,184.874 249.900 C 184.594 248.727,182.543 248.974,182.231 250.218 M216.218 249.944 C 215.828 251.172,216.390 252.000,217.613 252.000 C 218.780 252.000,219.206 251.290,218.874 249.900 C 218.638 248.914,216.534 248.948,216.218 249.944 M199.535 251.211 C 199.038 251.502,198.944 251.879,199.163 252.700 C 199.489 253.919,200.526 254.325,201.419 253.584 C 202.056 253.056,202.222 251.200,201.633 251.200 C 201.431 251.200,201.026 251.115,200.733 251.011 C 200.440 250.907,199.901 250.997,199.535 251.211 M175.000 252.060 C 172.696 253.228,171.921 254.454,171.939 256.901 C 171.980 262.070,178.160 264.731,181.235 260.903 C 185.182 255.990,180.460 249.294,175.000 252.060 M221.721 252.003 C 217.612 253.830,217.336 259.361,221.231 261.820 C 223.110 263.006,224.142 263.045,226.277 262.014 C 232.820 258.853,228.359 249.052,221.721 252.003 M199.467 256.267 C 198.944 256.789,199.204 258.716,199.829 258.956 C 200.701 259.290,202.000 258.518,202.000 257.666 C 202.000 256.397,200.284 255.449,199.467 256.267 M199.488 261.128 C 197.352 261.373,195.200 263.972,195.200 266.306 C 195.200 271.675,200.630 274.076,204.353 270.353 C 208.251 266.455,205.102 260.483,199.488 261.128 M187.680 261.680 C 186.415 262.945,187.664 264.811,189.344 264.166 C 190.541 263.707,189.913 261.200,188.600 261.200 C 188.358 261.200,187.944 261.416,187.680 261.680 M211.364 261.750 C 210.885 262.999,211.370 263.800,212.605 263.800 C 213.666 263.800,213.800 263.665,213.800 262.600 C 213.800 261.236,211.826 260.547,211.364 261.750 " stroke="none" fill="#0b51eb" fill-rule="evenodd"></path><path id="path1" d="M0.000 200.000 L 0.000 400.000 200.000 400.000 L 400.000 400.000 400.000 200.000 L 400.000 0.000 200.000 0.000 L 0.000 0.000 0.000 200.000 M176.967 74.346 C 177.085 74.537,177.268 80.416,177.373 87.412 C 177.522 97.208,177.685 100.207,178.083 100.460 C 178.367 100.640,182.684 100.791,187.676 100.794 C 198.119 100.801,197.238 100.365,197.278 105.551 C 197.319 110.846,198.244 110.400,187.219 110.400 C 179.954 110.400,177.643 110.519,177.507 110.900 C 177.105 112.025,177.556 117.726,178.073 118.053 C 178.363 118.237,182.560 118.393,187.400 118.400 C 198.001 118.415,197.280 118.075,197.320 123.066 C 197.364 128.439,198.223 127.999,187.676 128.006 C 182.684 128.009,178.392 128.145,178.137 128.307 C 177.809 128.516,177.634 132.034,177.537 140.401 L 177.400 152.200 175.052 157.000 C 173.761 159.640,170.822 165.670,168.521 170.400 C 166.220 175.130,164.050 179.540,163.699 180.200 C 162.784 181.916,162.489 182.520,162.232 183.200 C 162.107 183.530,161.852 184.070,161.665 184.400 C 161.478 184.730,161.148 185.360,160.933 185.800 C 160.717 186.240,160.259 187.140,159.914 187.800 C 159.568 188.460,158.172 191.340,156.811 194.200 C 155.449 197.060,154.173 199.670,153.974 200.000 C 153.775 200.330,153.367 201.140,153.068 201.800 C 151.499 205.261,148.962 210.217,148.700 210.333 C 148.535 210.407,148.401 210.677,148.402 210.933 C 148.404 211.190,146.983 214.280,145.245 217.800 C 143.507 221.320,141.605 225.190,141.017 226.400 C 140.430 227.610,139.796 228.870,139.610 229.200 C 139.423 229.530,137.263 233.940,134.810 239.000 C 127.955 253.137,127.023 254.990,126.700 255.133 C 126.535 255.207,126.400 255.529,126.400 255.850 C 126.400 256.170,125.878 257.460,125.241 258.716 C 121.880 265.335,114.436 280.731,114.183 281.586 C 112.567 287.046,115.341 291.086,121.644 292.451 C 124.203 293.006,269.810 292.615,276.800 292.035 C 285.927 291.278,288.671 286.200,284.404 277.966 C 284.224 277.617,282.914 275.007,281.494 272.166 C 276.293 261.757,274.891 258.975,274.255 257.800 C 273.897 257.140,273.604 256.300,273.602 255.933 C 273.601 255.567,273.465 255.207,273.300 255.133 C 273.135 255.060,272.338 253.650,271.529 252.000 C 270.720 250.350,267.094 242.970,263.470 235.600 C 259.846 228.230,254.600 217.520,251.812 211.800 C 249.025 206.080,246.587 201.130,246.396 200.800 C 245.087 198.543,243.600 195.440,243.600 194.966 C 243.600 194.654,243.420 194.400,243.200 194.400 C 242.980 194.400,242.800 194.205,242.800 193.967 C 242.800 193.588,240.550 188.846,239.304 186.600 C 239.060 186.160,237.482 182.920,235.797 179.400 C 232.290 172.073,232.351 172.199,231.510 170.600 C 231.163 169.940,230.097 167.780,229.140 165.800 C 228.183 163.820,227.265 162.140,227.100 162.067 C 226.935 161.993,226.800 161.693,226.800 161.399 C 226.800 160.757,225.523 158.255,225.100 158.067 C 224.935 157.993,224.800 157.705,224.800 157.426 C 224.800 157.147,224.386 156.127,223.880 155.160 C 221.968 151.502,222.000 152.234,222.000 112.598 C 222.000 77.343,222.042 75.056,222.700 74.557 C 223.247 74.141,226.183 74.023,236.154 74.013 C 251.154 73.998,251.586 74.067,254.418 76.966 C 256.445 79.040,257.327 82.275,256.612 85.018 C 255.164 90.579,252.288 92.400,244.956 92.400 L 240.400 92.400 240.400 119.525 C 240.400 145.184,240.440 146.735,241.147 148.225 C 241.558 149.091,242.203 150.520,242.581 151.400 C 242.958 152.280,243.427 153.270,243.623 153.600 C 244.473 155.033,248.400 163.265,248.400 163.615 C 248.400 163.827,248.580 164.000,248.800 164.000 C 249.020 164.000,249.200 164.255,249.200 164.568 C 249.200 165.235,250.465 167.740,250.900 167.933 C 251.065 168.007,251.200 168.275,251.200 168.530 C 251.200 169.134,258.667 184.426,261.137 188.878 C 261.831 190.131,262.400 191.511,262.400 191.945 C 262.400 192.379,262.557 192.793,262.748 192.867 C 263.122 193.010,267.200 201.311,267.200 201.929 C 267.200 202.134,267.470 202.526,267.800 202.800 C 268.130 203.074,268.400 203.636,268.400 204.049 C 268.400 204.462,268.580 204.800,268.800 204.800 C 269.020 204.800,269.200 204.991,269.200 205.224 C 269.200 205.817,272.523 212.571,272.895 212.733 C 273.063 212.807,273.200 213.045,273.200 213.263 C 273.200 213.595,278.404 224.623,279.648 226.927 C 280.008 227.594,281.978 231.542,284.176 236.000 C 284.664 236.990,285.259 238.160,285.499 238.600 C 285.738 239.040,288.753 245.160,292.198 252.200 C 295.644 259.240,298.661 265.360,298.903 265.800 C 305.781 278.292,306.717 286.023,302.509 295.600 C 299.630 302.154,291.910 308.401,284.782 309.946 C 281.680 310.619,115.357 310.722,113.400 310.053 C 109.825 308.830,106.604 307.317,105.203 306.202 C 101.603 303.337,96.800 297.415,96.800 295.843 C 96.800 295.515,96.632 295.143,96.426 295.016 C 94.878 294.060,94.139 282.020,95.403 278.350 C 96.129 276.241,95.992 276.547,99.783 268.600 C 102.925 262.011,103.017 261.825,104.102 259.800 C 104.656 258.765,113.633 240.391,115.533 236.400 C 115.900 235.630,116.297 234.910,116.416 234.800 C 116.534 234.690,117.148 233.430,117.779 232.000 C 118.410 230.570,119.348 228.729,119.863 227.908 C 120.378 227.087,120.800 226.277,120.800 226.108 C 120.800 225.939,122.149 223.100,123.797 219.800 C 125.445 216.500,126.795 213.661,126.797 213.492 C 126.799 213.323,127.250 212.471,127.800 211.600 C 128.350 210.729,128.800 209.742,128.800 209.408 C 128.800 209.074,128.980 208.800,129.200 208.800 C 129.420 208.800,129.600 208.533,129.600 208.207 C 129.600 207.881,130.754 205.316,132.164 202.507 C 136.895 193.084,140.800 184.943,140.800 184.503 C 140.800 184.263,140.935 184.007,141.100 183.933 C 141.523 183.745,142.800 181.243,142.800 180.601 C 142.800 180.307,142.935 180.007,143.100 179.933 C 143.265 179.860,144.001 178.540,144.735 177.000 C 146.107 174.119,147.196 171.907,148.151 170.057 C 148.451 169.476,149.462 167.380,150.398 165.400 C 152.087 161.825,152.466 161.044,153.163 159.700 C 154.553 157.018,158.757 147.956,159.115 146.869 C 159.543 145.572,159.405 95.451,158.968 93.300 C 158.791 92.433,158.626 92.400,154.406 92.400 C 149.572 92.400,148.061 91.951,145.661 89.800 C 140.462 85.142,142.584 76.487,149.400 74.558 C 151.318 74.015,176.642 73.821,176.967 74.346 M203.631 194.234 C 203.979 194.545,204.452 194.800,204.684 194.800 C 205.530 194.800,207.326 199.070,207.054 200.432 C 206.666 202.370,205.279 204.340,203.521 205.450 C 201.983 206.421,201.957 206.475,202.570 207.410 C 203.425 208.715,203.365 209.305,202.257 210.501 C 201.322 211.509,201.321 211.526,202.100 212.193 C 203.594 213.472,202.384 216.400,200.361 216.400 C 198.212 216.400,197.314 213.398,199.054 212.029 C 199.634 211.573,199.878 211.200,199.598 211.200 C 198.087 211.200,197.464 208.021,198.793 207.090 C 199.548 206.561,199.505 206.494,197.893 205.686 C 195.821 204.648,194.800 203.503,194.800 202.219 C 194.800 201.685,194.620 201.136,194.400 201.000 C 194.180 200.864,194.000 200.324,194.000 199.800 C 194.000 199.276,194.180 198.736,194.400 198.600 C 194.620 198.464,194.800 197.884,194.800 197.312 C 194.800 196.103,196.827 194.091,198.388 193.750 C 198.945 193.629,199.580 193.464,199.800 193.384 C 200.535 193.115,202.992 193.661,203.631 194.234 M215.070 200.709 C 215.549 201.089,215.975 201.670,216.017 202.000 C 216.405 205.008,213.178 205.859,211.338 203.233 C 209.971 201.281,213.113 199.155,215.070 200.709 M189.669 201.462 C 191.167 202.818,190.013 205.200,187.857 205.200 C 185.857 205.200,185.007 203.611,185.843 201.433 C 186.170 200.580,188.715 200.599,189.669 201.462 M179.335 203.975 C 180.601 204.457,182.400 206.392,182.400 207.272 C 182.400 207.647,182.580 208.064,182.800 208.200 C 183.399 208.570,183.282 210.951,182.602 212.254 C 182.024 213.362,182.037 213.404,182.993 213.526 C 184.317 213.694,185.590 215.361,185.361 216.627 C 185.203 217.497,185.296 217.591,186.108 217.387 C 187.352 217.075,189.200 218.534,189.200 219.829 C 189.200 220.540,189.419 220.800,190.017 220.800 C 190.920 220.800,192.135 221.818,192.523 222.900 C 192.860 223.838,193.469 223.784,195.923 222.600 C 197.063 222.050,198.349 221.600,198.780 221.600 C 199.504 221.600,199.489 221.526,198.582 220.618 C 196.849 218.886,197.807 216.800,200.334 216.800 C 202.989 216.800,204.019 218.950,202.179 220.654 L 201.159 221.600 202.240 221.600 C 202.834 221.600,204.289 222.074,205.473 222.653 C 206.658 223.233,207.679 223.638,207.743 223.553 C 207.807 223.469,208.263 222.815,208.757 222.100 C 209.354 221.236,209.981 220.800,210.627 220.800 C 211.310 220.800,211.600 220.577,211.600 220.054 C 211.600 218.993,213.014 217.334,214.163 217.045 C 214.816 216.881,215.286 216.350,215.588 215.436 C 216.041 214.065,216.648 213.600,217.986 213.600 C 218.646 213.600,218.662 213.476,218.170 212.100 C 215.661 205.070,225.451 200.038,229.530 206.261 C 230.835 208.252,230.746 211.600,229.339 213.445 C 227.518 215.833,223.182 217.224,222.000 215.800 C 221.332 214.995,220.400 215.038,220.400 215.874 C 220.400 216.968,218.773 218.400,217.530 218.400 C 216.544 218.400,216.400 218.551,216.400 219.584 C 216.400 220.900,215.081 222.400,213.925 222.400 C 213.506 222.400,213.195 222.696,213.187 223.100 C 213.171 223.996,212.443 224.940,211.300 225.549 C 210.404 226.026,210.079 227.354,210.756 227.773 C 210.951 227.894,211.223 228.436,211.359 228.979 C 211.989 231.489,212.433 232.241,212.848 231.500 C 213.101 231.047,213.720 230.800,214.600 230.800 C 215.479 230.800,216.099 231.048,216.353 231.500 C 216.727 232.167,216.803 232.167,217.935 231.500 C 219.529 230.561,220.487 230.618,221.680 231.724 C 222.673 232.644,222.677 232.644,223.038 231.824 C 223.504 230.763,225.258 230.557,226.560 231.411 C 227.539 232.052,227.574 232.042,227.827 231.035 C 227.970 230.466,228.247 230.000,228.443 230.000 C 228.640 230.000,228.800 229.773,228.800 229.496 C 228.800 229.005,229.621 228.352,231.546 227.311 C 232.619 226.731,236.000 226.614,236.000 227.157 C 236.000 227.353,236.450 227.626,237.000 227.764 C 241.407 228.870,241.059 236.769,236.512 238.840 C 233.248 240.327,227.600 237.857,227.600 234.943 C 227.600 234.396,227.493 234.347,227.120 234.720 C 226.395 235.445,223.313 235.332,222.884 234.564 C 222.559 233.984,222.474 233.984,221.893 234.564 C 221.070 235.388,218.062 235.427,217.752 234.618 C 217.562 234.125,217.319 234.149,216.148 234.777 C 214.782 235.509,213.257 235.460,212.734 234.667 C 212.496 234.306,211.200 236.807,211.200 237.626 C 211.200 237.807,210.846 238.553,210.414 239.286 L 209.629 240.617 210.780 241.127 C 212.361 241.827,213.414 243.461,212.778 244.227 C 212.381 244.705,212.521 244.800,213.620 244.800 C 215.319 244.800,216.400 245.796,216.401 247.362 C 216.402 248.473,216.530 248.605,217.658 248.645 C 218.992 248.694,220.537 250.182,220.205 251.100 C 219.978 251.732,220.886 251.754,221.508 251.132 C 222.053 250.587,226.013 250.582,226.363 251.125 C 226.493 251.327,226.960 251.612,227.400 251.759 C 229.703 252.527,231.449 258.232,229.800 259.600 C 229.470 259.874,229.200 260.269,229.200 260.478 C 229.200 261.732,226.330 263.276,224.000 263.276 C 219.267 263.276,216.115 258.432,218.210 254.380 C 218.807 253.226,218.799 253.200,217.826 253.200 C 216.603 253.200,215.200 251.771,215.200 250.525 C 215.200 249.805,214.978 249.600,214.200 249.600 C 212.907 249.600,211.600 248.281,211.600 246.976 C 211.600 246.413,211.433 246.056,211.230 246.181 C 210.189 246.825,207.159 243.837,207.801 242.799 C 207.936 242.580,207.974 242.400,207.885 242.400 C 207.490 242.400,205.193 243.687,204.984 244.025 C 204.857 244.231,204.218 244.400,203.564 244.400 C 202.125 244.400,201.704 245.242,202.544 246.441 C 203.098 247.232,203.097 247.439,202.536 248.525 C 202.024 249.513,201.995 250.005,202.371 251.263 C 202.849 252.856,202.507 254.164,201.528 254.491 C 201.212 254.596,201.417 255.138,202.123 256.064 C 203.159 257.422,203.177 257.524,202.573 258.733 C 201.909 260.066,202.071 260.800,203.031 260.800 C 206.470 260.800,207.902 268.019,205.021 270.836 C 201.782 274.003,194.800 272.746,194.800 268.995 C 194.800 268.639,194.613 267.998,194.385 267.571 C 193.483 265.886,195.292 262.068,197.500 260.994 C 198.778 260.373,199.247 259.124,198.400 258.600 C 197.751 258.199,197.940 257.015,198.800 256.092 C 199.240 255.620,199.600 255.089,199.600 254.913 C 199.600 254.737,199.240 254.368,198.800 254.093 C 197.842 253.494,197.722 251.528,198.600 250.800 C 198.930 250.526,199.200 250.076,199.200 249.800 C 199.200 249.524,198.930 249.074,198.600 248.800 C 197.922 248.237,197.794 246.575,198.400 246.200 C 199.244 245.679,198.832 244.400,197.821 244.400 C 197.283 244.400,196.023 243.964,195.021 243.432 L 193.200 242.463 193.191 243.332 C 193.175 244.858,191.872 246.131,190.528 245.934 C 189.485 245.780,189.362 245.865,189.509 246.635 C 189.759 247.946,188.957 249.102,187.586 249.403 C 186.655 249.608,186.311 249.943,186.136 250.820 C 185.880 252.102,184.495 253.200,183.134 253.200 C 182.439 253.200,182.347 253.307,182.720 253.680 C 183.566 254.526,183.330 259.495,182.379 260.829 C 180.960 262.822,175.716 264.238,174.832 262.867 C 174.704 262.670,174.236 262.394,173.791 262.256 C 169.942 261.057,170.143 253.740,174.086 251.477 C 175.382 250.733,179.391 250.539,179.800 251.200 C 179.936 251.420,180.317 251.600,180.647 251.600 C 180.977 251.600,181.135 251.419,180.998 251.197 C 180.505 250.398,182.383 248.400,183.627 248.400 C 184.632 248.400,184.800 248.247,184.800 247.331 C 184.800 245.802,185.871 244.800,187.505 244.800 C 188.571 244.800,188.833 244.663,188.654 244.197 C 188.266 243.186,189.078 241.721,190.333 241.166 L 191.520 240.640 190.560 239.227 C 190.032 238.450,189.600 237.417,189.600 236.931 C 189.600 236.445,189.420 235.936,189.200 235.800 C 188.980 235.664,188.795 235.158,188.788 234.676 C 188.777 233.889,188.734 233.871,188.368 234.500 C 187.836 235.413,185.320 235.433,184.325 234.532 C 183.636 233.908,183.554 233.909,183.086 234.550 C 181.957 236.094,178.800 235.338,178.800 233.524 C 178.800 231.033,181.638 229.776,182.969 231.677 L 183.584 232.555 184.518 231.677 C 185.732 230.537,187.374 230.542,188.177 231.689 L 188.800 232.578 188.800 231.713 C 188.800 231.237,188.980 230.736,189.200 230.600 C 189.420 230.464,189.600 229.986,189.600 229.538 C 189.600 229.090,189.915 228.175,190.300 227.505 C 190.807 226.623,190.867 226.239,190.520 226.116 C 189.334 225.697,188.041 224.289,187.926 223.291 C 187.845 222.588,187.595 222.245,187.222 222.326 C 185.771 222.642,183.467 219.986,184.185 218.824 C 184.344 218.566,184.035 218.400,183.397 218.400 C 181.695 218.400,180.800 217.706,180.800 216.386 C 180.800 215.012,180.544 214.954,178.590 215.885 C 175.627 217.298,171.050 214.500,170.715 211.072 C 170.160 205.388,174.232 202.035,179.335 203.975 M233.346 218.429 C 235.147 219.845,234.174 222.400,231.834 222.400 C 228.676 222.400,228.688 217.855,231.846 217.632 C 232.091 217.614,232.766 217.973,233.346 218.429 M171.600 219.200 C 172.632 220.232,172.612 221.123,171.530 222.274 C 170.448 223.427,168.592 223.507,168.014 222.426 C 166.510 219.616,169.409 217.009,171.600 219.200 M169.893 227.594 C 171.476 228.359,172.768 229.767,173.343 231.354 C 173.597 232.056,173.667 232.063,174.340 231.454 C 176.115 229.848,178.525 231.116,178.321 233.550 C 178.191 235.110,175.542 235.914,174.201 234.800 C 173.774 234.447,173.515 234.658,172.974 235.799 C 171.409 239.095,167.629 240.386,164.400 238.726 C 157.046 234.944,162.449 223.997,169.893 227.594 M173.074 243.670 C 175.226 245.691,172.626 249.278,170.298 247.500 C 169.043 246.541,169.008 244.939,170.219 243.817 C 171.558 242.577,171.892 242.559,173.074 243.670 M232.386 243.574 C 233.856 246.321,230.331 249.186,228.646 246.614 C 227.820 245.353,227.830 244.607,228.689 243.605 C 229.606 242.534,231.819 242.515,232.386 243.574 M214.500 261.123 C 216.150 262.539,214.757 265.385,212.538 265.130 C 210.399 264.884,209.787 261.460,211.722 260.564 C 212.721 260.101,213.491 260.256,214.500 261.123 M190.611 261.612 C 191.993 263.139,190.039 265.849,187.950 265.303 C 186.698 264.975,185.926 263.119,186.515 261.852 C 187.141 260.502,189.483 260.365,190.611 261.612 " stroke="none" fill="#fbfbfb" fill-rule="evenodd"></path><path id="path2" d="M149.400 74.558 C 142.584 76.487,140.462 85.142,145.661 89.800 C 148.061 91.951,149.572 92.400,154.406 92.400 C 158.626 92.400,158.791 92.433,158.968 93.300 C 159.405 95.451,159.543 145.572,159.115 146.869 C 158.757 147.956,154.553 157.018,153.163 159.700 C 152.466 161.044,152.087 161.825,150.398 165.400 C 149.462 167.380,148.451 169.476,148.151 170.057 C 147.196 171.907,146.107 174.119,144.735 177.000 C 144.001 178.540,143.265 179.860,143.100 179.933 C 142.935 180.007,142.800 180.307,142.800 180.601 C 142.800 181.243,141.523 183.745,141.100 183.933 C 140.935 184.007,140.800 184.263,140.800 184.503 C 140.800 184.943,136.895 193.084,132.164 202.507 C 130.754 205.316,129.600 207.881,129.600 208.207 C 129.600 208.533,129.420 208.800,129.200 208.800 C 128.980 208.800,128.800 209.074,128.800 209.408 C 128.800 209.742,128.350 210.729,127.800 211.600 C 127.250 212.471,126.799 213.323,126.797 213.492 C 126.795 213.661,125.445 216.500,123.797 219.800 C 122.149 223.100,120.800 225.939,120.800 226.108 C 120.800 226.277,120.378 227.087,119.863 227.908 C 119.348 228.729,118.410 230.570,117.779 232.000 C 117.148 233.430,116.534 234.690,116.416 234.800 C 116.297 234.910,115.900 235.630,115.533 236.400 C 113.633 240.391,104.656 258.765,104.102 259.800 C 103.017 261.825,102.925 262.011,99.783 268.600 C 95.992 276.547,96.129 276.241,95.403 278.350 C 94.139 282.020,94.878 294.060,96.426 295.016 C 96.632 295.143,96.800 295.515,96.800 295.843 C 96.800 297.415,101.603 303.337,105.203 306.202 C 106.604 307.317,109.825 308.830,113.400 310.053 C 115.357 310.722,281.680 310.619,284.782 309.946 C 291.910 308.401,299.630 302.154,302.509 295.600 C 306.717 286.023,305.781 278.292,298.903 265.800 C 298.661 265.360,295.644 259.240,292.198 252.200 C 288.753 245.160,285.738 239.040,285.499 238.600 C 285.259 238.160,284.664 236.990,284.176 236.000 C 281.978 231.542,280.008 227.594,279.648 226.927 C 278.404 224.623,273.200 213.595,273.200 213.263 C 273.200 213.045,273.063 212.807,272.895 212.733 C 272.523 212.571,269.200 205.817,269.200 205.224 C 269.200 204.991,269.020 204.800,268.800 204.800 C 268.580 204.800,268.400 204.462,268.400 204.049 C 268.400 203.636,268.130 203.074,267.800 202.800 C 267.470 202.526,267.200 202.134,267.200 201.929 C 267.200 201.311,263.122 193.010,262.748 192.867 C 262.557 192.793,262.400 192.379,262.400 191.945 C 262.400 191.511,261.831 190.131,261.137 188.878 C 258.667 184.426,251.200 169.134,251.200 168.530 C 251.200 168.275,251.065 168.007,250.900 167.933 C 250.465 167.740,249.200 165.235,249.200 164.568 C 249.200 164.255,249.020 164.000,248.800 164.000 C 248.580 164.000,248.400 163.827,248.400 163.615 C 248.400 163.265,244.473 155.033,243.623 153.600 C 243.427 153.270,242.958 152.280,242.581 151.400 C 242.203 150.520,241.558 149.091,241.147 148.225 C 240.440 146.735,240.400 145.184,240.400 119.525 L 240.400 92.400 244.956 92.400 C 249.884 92.400,251.511 91.956,253.877 89.965 C 257.584 86.846,257.849 80.477,254.418 76.966 C 251.586 74.067,251.154 73.998,236.154 74.013 C 226.183 74.023,223.247 74.141,222.700 74.557 C 222.042 75.056,222.000 77.343,222.000 112.598 C 222.000 152.234,221.968 151.502,223.880 155.160 C 224.386 156.127,224.800 157.147,224.800 157.426 C 224.800 157.705,224.935 157.993,225.100 158.067 C 225.523 158.255,226.800 160.757,226.800 161.399 C 226.800 161.693,226.935 161.993,227.100 162.067 C 227.265 162.140,228.183 163.820,229.140 165.800 C 230.097 167.780,231.163 169.940,231.510 170.600 C 232.351 172.199,232.290 172.073,235.797 179.400 C 237.482 182.920,239.060 186.160,239.304 186.600 C 240.550 188.846,242.800 193.588,242.800 193.967 C 242.800 194.205,242.980 194.400,243.200 194.400 C 243.420 194.400,243.600 194.654,243.600 194.966 C 243.600 195.440,245.087 198.543,246.396 200.800 C 246.587 201.130,249.025 206.080,251.812 211.800 C 254.600 217.520,259.846 228.230,263.470 235.600 C 267.094 242.970,270.720 250.350,271.529 252.000 C 272.338 253.650,273.135 255.060,273.300 255.133 C 273.465 255.207,273.601 255.567,273.602 255.933 C 273.604 256.300,273.897 257.140,274.255 257.800 C 274.891 258.975,276.293 261.757,281.494 272.166 C 282.914 275.007,284.224 277.617,284.404 277.966 C 287.545 284.028,286.714 288.584,282.001 291.143 C 279.637 292.427,127.268 293.670,121.644 292.451 C 115.341 291.086,112.567 287.046,114.183 281.586 C 114.436 280.731,121.880 265.335,125.241 258.716 C 125.878 257.460,126.400 256.170,126.400 255.850 C 126.400 255.529,126.535 255.207,126.700 255.133 C 127.023 254.990,127.955 253.137,134.810 239.000 C 137.263 233.940,139.423 229.530,139.610 229.200 C 139.796 228.870,140.430 227.610,141.017 226.400 C 141.605 225.190,143.507 221.320,145.245 217.800 C 146.983 214.280,148.404 211.190,148.402 210.933 C 148.401 210.677,148.535 210.407,148.700 210.333 C 148.962 210.217,151.499 205.261,153.068 201.800 C 153.367 201.140,153.775 200.330,153.974 200.000 C 154.173 199.670,155.449 197.060,156.811 194.200 C 158.172 191.340,159.568 188.460,159.914 187.800 C 160.259 187.140,160.717 186.240,160.933 185.800 C 161.148 185.360,161.478 184.730,161.665 184.400 C 161.852 184.070,162.107 183.530,162.232 183.200 C 162.489 182.520,162.784 181.916,163.699 180.200 C 164.050 179.540,166.220 175.130,168.521 170.400 C 170.822 165.670,173.761 159.640,175.052 157.000 L 177.400 152.200 177.537 140.401 C 177.634 132.034,177.809 128.516,178.137 128.307 C 178.392 128.145,182.684 128.009,187.676 128.006 C 198.223 127.999,197.364 128.439,197.320 123.066 C 197.280 118.075,198.001 118.415,187.400 118.400 C 182.560 118.393,178.363 118.237,178.073 118.053 C 177.556 117.726,177.105 112.025,177.507 110.900 C 177.643 110.519,179.954 110.400,187.219 110.400 C 198.244 110.400,197.319 110.846,197.278 105.551 C 197.238 100.365,198.119 100.801,187.676 100.794 C 182.684 100.791,178.367 100.640,178.083 100.460 C 177.685 100.207,177.522 97.208,177.373 87.412 C 177.268 80.416,177.085 74.537,176.967 74.346 C 176.642 73.821,151.318 74.015,149.400 74.558 M176.894 88.100 L 177.000 101.000 186.490 101.107 C 197.474 101.231,196.690 100.884,196.758 105.651 C 196.816 109.773,197.347 109.566,186.368 109.692 L 177.000 109.800 176.886 114.168 C 176.743 119.619,175.868 119.186,187.053 119.194 L 196.307 119.200 196.548 120.100 C 196.924 121.502,196.830 125.733,196.409 126.400 C 196.094 126.899,194.458 127.023,186.718 127.134 C 180.195 127.228,177.317 127.407,177.109 127.734 C 176.946 127.990,176.809 133.454,176.806 139.876 C 176.802 147.222,176.652 151.644,176.400 151.800 C 176.180 151.936,176.000 152.465,176.000 152.975 C 176.000 153.485,175.760 154.102,175.466 154.345 C 175.172 154.589,174.693 155.514,174.400 156.400 C 174.107 157.286,173.628 158.211,173.334 158.455 C 173.040 158.698,172.800 159.083,172.800 159.310 C 172.800 159.536,170.976 163.429,168.748 167.961 C 166.519 172.492,162.904 179.890,160.714 184.400 C 156.009 194.092,156.401 193.297,155.100 195.800 C 154.528 196.900,151.775 202.480,148.981 208.200 C 146.188 213.920,141.876 222.740,139.399 227.800 C 136.923 232.860,132.609 241.680,129.814 247.400 C 121.855 263.689,113.986 279.697,113.365 280.862 C 112.571 282.354,112.642 286.188,113.493 287.738 C 114.487 289.549,116.852 292.000,117.605 292.000 C 117.958 292.000,118.596 292.264,119.024 292.587 C 120.343 293.586,277.835 293.486,280.615 292.485 C 283.719 291.368,284.347 290.898,285.821 288.594 C 288.373 284.605,288.224 284.001,281.154 269.662 C 277.828 262.918,272.855 252.810,270.104 247.200 C 267.352 241.590,262.872 232.486,260.150 226.968 C 257.427 221.451,255.200 216.741,255.200 216.502 C 255.200 216.262,255.065 216.007,254.900 215.933 C 254.735 215.860,254.294 215.170,253.921 214.400 C 253.548 213.630,249.834 206.070,245.669 197.600 C 233.938 173.746,226.259 158.107,224.555 154.600 L 223.000 151.400 223.000 113.400 L 223.000 75.400 236.931 75.295 C 253.073 75.173,253.483 75.273,255.378 79.808 C 258.159 86.466,253.460 91.581,244.549 91.594 C 241.581 91.598,240.374 91.749,240.036 92.157 C 239.360 92.971,239.600 147.469,240.284 148.600 C 240.551 149.040,242.957 153.900,245.632 159.400 C 248.306 164.900,253.642 175.790,257.489 183.600 C 265.294 199.447,270.807 210.662,281.086 231.600 C 289.117 247.958,288.471 246.654,289.310 248.200 C 289.668 248.860,292.681 254.980,296.004 261.800 C 299.328 268.620,302.194 274.476,302.373 274.813 C 302.552 275.150,302.825 276.003,302.980 276.709 C 303.135 277.414,303.428 278.094,303.631 278.219 C 304.302 278.634,304.076 289.381,303.357 291.292 C 299.351 301.931,293.557 307.125,283.200 309.362 C 278.562 310.364,118.511 310.342,114.466 309.339 C 101.083 306.021,93.446 294.120,95.766 280.200 C 96.104 278.169,97.751 274.604,107.593 254.600 C 122.947 223.389,126.167 216.833,129.396 210.200 C 134.836 199.027,141.277 185.833,145.895 176.400 C 154.649 158.520,159.092 149.363,159.538 148.281 C 159.872 147.473,160.000 139.513,160.000 119.581 L 160.000 92.000 156.071 92.000 C 145.607 92.000,139.973 84.523,145.493 77.962 C 147.867 75.141,147.478 75.203,162.894 75.201 L 176.789 75.200 176.894 88.100 M199.800 193.384 C 199.580 193.464,198.945 193.629,198.388 193.750 C 196.827 194.091,194.800 196.103,194.800 197.312 C 194.800 197.884,194.620 198.464,194.400 198.600 C 194.180 198.736,194.000 199.276,194.000 199.800 C 194.000 200.324,194.180 200.864,194.400 201.000 C 194.620 201.136,194.800 201.685,194.800 202.219 C 194.800 203.503,195.821 204.648,197.893 205.686 C 199.505 206.494,199.548 206.561,198.793 207.090 C 197.464 208.021,198.087 211.200,199.598 211.200 C 199.878 211.200,199.634 211.573,199.054 212.029 C 197.314 213.398,198.212 216.400,200.361 216.400 C 202.384 216.400,203.594 213.472,202.100 212.193 C 201.321 211.526,201.322 211.509,202.257 210.501 C 203.365 209.305,203.425 208.715,202.570 207.410 C 201.957 206.475,201.983 206.421,203.521 205.450 C 205.279 204.340,206.666 202.370,207.054 200.432 C 207.326 199.070,205.530 194.800,204.684 194.800 C 204.452 194.800,203.979 194.545,203.631 194.234 C 202.992 193.661,200.535 193.115,199.800 193.384 M202.811 194.661 C 207.194 197.592,207.326 202.970,203.061 204.824 C 202.587 205.030,201.900 205.413,201.534 205.675 C 200.367 206.512,196.708 204.552,195.654 202.526 C 193.226 197.855,198.658 191.884,202.811 194.661 M211.602 201.197 C 210.662 202.517,210.957 203.394,212.767 204.662 C 213.663 205.289,215.936 204.189,216.047 203.073 C 216.324 200.315,213.176 198.987,211.602 201.197 M185.843 201.433 C 185.443 202.475,185.568 204.208,186.080 204.720 C 187.421 206.061,190.400 204.718,190.400 202.773 C 190.400 201.099,186.420 199.929,185.843 201.433 M214.260 201.106 C 215.339 201.795,215.050 204.000,213.880 204.000 C 212.161 204.000,211.472 202.585,212.629 201.429 C 213.328 200.729,213.589 200.677,214.260 201.106 M189.107 202.000 C 189.507 202.640,189.507 202.960,189.107 203.600 C 188.300 204.892,186.400 204.497,186.400 203.037 C 186.400 201.261,188.212 200.567,189.107 202.000 M173.800 203.982 C 171.562 204.907,170.379 207.627,170.715 211.072 C 171.050 214.500,175.627 217.298,178.590 215.885 C 180.544 214.954,180.800 215.012,180.800 216.386 C 180.800 217.706,181.695 218.400,183.397 218.400 C 184.035 218.400,184.344 218.566,184.185 218.824 C 183.467 219.986,185.771 222.642,187.222 222.326 C 187.595 222.245,187.845 222.588,187.926 223.291 C 188.041 224.289,189.334 225.697,190.520 226.116 C 190.867 226.239,190.807 226.623,190.300 227.505 C 189.915 228.175,189.600 229.090,189.600 229.538 C 189.600 229.986,189.420 230.464,189.200 230.600 C 188.980 230.736,188.800 231.237,188.800 231.713 L 188.800 232.578 188.177 231.689 C 187.374 230.542,185.732 230.537,184.518 231.677 L 183.584 232.555 182.969 231.677 C 181.638 229.776,178.800 231.033,178.800 233.524 C 178.800 235.338,181.957 236.094,183.086 234.550 C 183.554 233.909,183.636 233.908,184.325 234.532 C 185.320 235.433,187.836 235.413,188.368 234.500 C 188.734 233.871,188.777 233.889,188.788 234.676 C 188.795 235.158,188.980 235.664,189.200 235.800 C 189.420 235.936,189.600 236.445,189.600 236.931 C 189.600 237.417,190.032 238.450,190.560 239.227 L 191.520 240.640 190.333 241.166 C 189.078 241.721,188.266 243.186,188.654 244.197 C 188.833 244.663,188.571 244.800,187.505 244.800 C 185.871 244.800,184.800 245.802,184.800 247.331 C 184.800 248.247,184.632 248.400,183.627 248.400 C 182.383 248.400,180.505 250.398,180.998 251.197 C 181.135 251.419,180.977 251.600,180.647 251.600 C 180.317 251.600,179.936 251.420,179.800 251.200 C 179.391 250.539,175.382 250.733,174.086 251.477 C 170.143 253.740,169.942 261.057,173.791 262.256 C 174.236 262.394,174.704 262.670,174.832 262.867 C 175.716 264.238,180.960 262.822,182.379 260.829 C 183.330 259.495,183.566 254.526,182.720 253.680 C 182.347 253.307,182.439 253.200,183.134 253.200 C 184.495 253.200,185.880 252.102,186.136 250.820 C 186.311 249.943,186.655 249.608,187.586 249.403 C 188.957 249.102,189.759 247.946,189.509 246.635 C 189.362 245.865,189.485 245.780,190.528 245.934 C 191.872 246.131,193.175 244.858,193.191 243.332 L 193.200 242.463 195.021 243.432 C 196.023 243.964,197.283 244.400,197.821 244.400 C 198.832 244.400,199.244 245.679,198.400 246.200 C 197.794 246.575,197.922 248.237,198.600 248.800 C 198.930 249.074,199.200 249.524,199.200 249.800 C 199.200 250.076,198.930 250.526,198.600 250.800 C 197.722 251.528,197.842 253.494,198.800 254.093 C 199.240 254.368,199.600 254.737,199.600 254.913 C 199.600 255.089,199.240 255.620,198.800 256.092 C 197.940 257.015,197.751 258.199,198.400 258.600 C 199.247 259.124,198.778 260.373,197.500 260.994 C 195.292 262.068,193.483 265.886,194.385 267.571 C 194.613 267.998,194.800 268.639,194.800 268.995 C 194.800 272.746,201.782 274.003,205.021 270.836 C 207.902 268.019,206.470 260.800,203.031 260.800 C 202.071 260.800,201.909 260.066,202.573 258.733 C 203.177 257.524,203.159 257.422,202.123 256.064 C 201.417 255.138,201.212 254.596,201.528 254.491 C 202.507 254.164,202.849 252.856,202.371 251.263 C 201.995 250.005,202.024 249.513,202.536 248.525 C 203.097 247.439,203.098 247.232,202.544 246.441 C 201.704 245.242,202.125 244.400,203.564 244.400 C 204.218 244.400,204.857 244.231,204.984 244.025 C 205.193 243.687,207.490 242.400,207.885 242.400 C 207.974 242.400,207.936 242.580,207.801 242.799 C 207.159 243.837,210.189 246.825,211.230 246.181 C 211.433 246.056,211.600 246.413,211.600 246.976 C 211.600 248.281,212.907 249.600,214.200 249.600 C 214.978 249.600,215.200 249.805,215.200 250.525 C 215.200 251.771,216.603 253.200,217.826 253.200 C 218.799 253.200,218.807 253.226,218.210 254.380 C 216.115 258.432,219.267 263.276,224.000 263.276 C 226.330 263.276,229.200 261.732,229.200 260.478 C 229.200 260.269,229.470 259.874,229.800 259.600 C 231.449 258.232,229.703 252.527,227.400 251.759 C 226.960 251.612,226.493 251.327,226.363 251.125 C 226.013 250.582,222.053 250.587,221.508 251.132 C 220.886 251.754,219.978 251.732,220.205 251.100 C 220.537 250.182,218.992 248.694,217.658 248.645 C 216.530 248.605,216.402 248.473,216.401 247.362 C 216.400 245.796,215.319 244.800,213.620 244.800 C 212.521 244.800,212.381 244.705,212.778 244.227 C 213.414 243.461,212.361 241.827,210.780 241.127 L 209.629 240.617 210.414 239.286 C 210.846 238.553,211.200 237.807,211.200 237.626 C 211.200 236.807,212.496 234.306,212.734 234.667 C 213.257 235.460,214.782 235.509,216.148 234.777 C 217.319 234.149,217.562 234.125,217.752 234.618 C 218.062 235.427,221.070 235.388,221.893 234.564 C 222.474 233.984,222.559 233.984,222.884 234.564 C 223.313 235.332,226.395 235.445,227.120 234.720 C 227.493 234.347,227.600 234.396,227.600 234.943 C 227.600 237.857,233.248 240.327,236.512 238.840 C 241.059 236.769,241.407 228.870,237.000 227.764 C 236.450 227.626,236.000 227.353,236.000 227.157 C 236.000 226.614,232.619 226.731,231.546 227.311 C 229.621 228.352,228.800 229.005,228.800 229.496 C 228.800 229.773,228.640 230.000,228.443 230.000 C 228.247 230.000,227.970 230.466,227.827 231.035 C 227.574 232.042,227.539 232.052,226.560 231.411 C 225.258 230.557,223.504 230.763,223.038 231.824 C 222.677 232.644,222.673 232.644,221.680 231.724 C 220.487 230.618,219.529 230.561,217.935 231.500 C 216.803 232.167,216.727 232.167,216.353 231.500 C 216.099 231.048,215.479 230.800,214.600 230.800 C 213.720 230.800,213.101 231.047,212.848 231.500 C 212.433 232.241,211.989 231.489,211.359 228.979 C 211.223 228.436,210.951 227.894,210.756 227.773 C 210.079 227.354,210.404 226.026,211.300 225.549 C 212.443 224.940,213.171 223.996,213.187 223.100 C 213.195 222.696,213.506 222.400,213.925 222.400 C 215.081 222.400,216.400 220.900,216.400 219.584 C 216.400 218.551,216.544 218.400,217.530 218.400 C 218.773 218.400,220.400 216.968,220.400 215.874 C 220.400 215.038,221.332 214.995,222.000 215.800 C 223.182 217.224,227.518 215.833,229.339 213.445 C 230.746 211.600,230.835 208.252,229.530 206.261 C 225.451 200.038,215.661 205.070,218.170 212.100 C 218.662 213.476,218.646 213.600,217.986 213.600 C 216.648 213.600,216.041 214.065,215.588 215.436 C 215.286 216.350,214.816 216.881,214.163 217.045 C 213.014 217.334,211.600 218.993,211.600 220.054 C 211.600 220.577,211.310 220.800,210.627 220.800 C 209.981 220.800,209.354 221.236,208.757 222.100 C 208.263 222.815,207.807 223.469,207.743 223.553 C 207.679 223.638,206.658 223.233,205.473 222.653 C 204.289 222.074,202.834 221.600,202.240 221.600 L 201.159 221.600 202.179 220.654 C 204.019 218.950,202.989 216.800,200.334 216.800 C 197.807 216.800,196.849 218.886,198.582 220.618 C 199.489 221.526,199.504 221.600,198.780 221.600 C 198.349 221.600,197.063 222.050,195.923 222.600 C 193.469 223.784,192.860 223.838,192.523 222.900 C 192.135 221.818,190.920 220.800,190.017 220.800 C 189.419 220.800,189.200 220.540,189.200 219.829 C 189.200 218.534,187.352 217.075,186.108 217.387 C 185.296 217.591,185.203 217.497,185.361 216.627 C 185.590 215.361,184.317 213.694,182.993 213.526 C 182.037 213.404,182.024 213.362,182.602 212.254 C 183.282 210.951,183.399 208.570,182.800 208.200 C 182.580 208.064,182.400 207.647,182.400 207.272 C 182.400 204.720,177.005 202.656,173.800 203.982 M179.200 204.919 C 182.635 206.481,183.107 211.877,180.018 214.281 C 177.993 215.858,173.607 215.059,172.115 212.841 C 168.955 208.146,173.969 202.541,179.200 204.919 M226.019 204.648 C 232.262 206.885,229.857 215.947,223.260 215.043 C 217.872 214.304,216.996 207.112,222.000 204.695 C 223.741 203.853,223.800 203.853,226.019 204.648 M201.939 207.900 C 202.404 208.787,201.882 210.206,200.960 210.560 C 199.878 210.975,198.631 209.529,198.955 208.236 C 199.272 206.975,201.332 206.742,201.939 207.900 M201.371 212.629 C 202.261 213.518,202.151 214.691,201.127 215.239 C 200.278 215.694,198.800 214.643,198.800 213.584 C 198.800 213.152,199.964 212.000,200.400 212.000 C 200.589 212.000,201.026 212.283,201.371 212.629 M184.069 215.062 C 184.949 215.859,184.983 216.274,184.229 217.029 C 182.848 218.409,180.498 216.639,181.800 215.200 C 182.680 214.227,183.117 214.201,184.069 215.062 M218.955 215.300 C 219.560 216.261,218.802 217.400,217.556 217.400 C 216.862 217.400,216.564 217.147,216.469 216.478 C 216.207 214.630,217.999 213.781,218.955 215.300 M201.848 217.905 C 202.937 219.649,200.812 221.596,199.538 220.022 C 198.638 218.911,198.624 218.633,199.429 217.829 C 200.259 216.998,201.302 217.031,201.848 217.905 M230.800 217.892 C 228.509 218.764,229.343 222.400,231.834 222.400 C 234.174 222.400,235.147 219.845,233.346 218.429 C 232.267 217.580,231.849 217.492,230.800 217.892 M187.367 218.243 C 188.232 218.575,188.173 220.500,187.280 221.057 C 186.299 221.670,185.200 220.841,185.200 219.489 C 185.200 218.239,186.063 217.742,187.367 218.243 M215.336 218.593 C 216.138 219.396,215.716 220.756,214.575 221.042 C 213.366 221.346,212.800 220.968,212.800 219.856 C 212.800 218.186,214.221 217.478,215.336 218.593 M168.229 219.029 C 166.857 220.400,167.740 223.200,169.544 223.200 C 170.773 223.200,172.400 221.761,172.400 220.674 C 172.400 218.872,169.521 217.736,168.229 219.029 M232.808 219.215 C 233.330 220.191,233.008 221.434,232.149 221.764 C 230.796 222.283,229.746 220.540,230.642 219.262 C 231.401 218.178,232.244 218.160,232.808 219.215 M170.980 220.262 C 171.318 221.607,170.441 222.594,169.245 222.214 C 168.293 221.912,168.030 219.816,168.900 219.465 C 170.069 218.993,170.724 219.244,170.980 220.262 M211.924 223.527 C 211.820 224.425,211.604 224.600,210.600 224.600 C 209.155 224.600,208.645 222.995,209.817 222.138 C 210.869 221.369,212.081 222.167,211.924 223.527 M191.584 222.771 C 192.175 223.874,191.680 224.800,190.501 224.800 C 189.215 224.800,188.330 223.678,188.850 222.706 C 189.356 221.761,191.066 221.802,191.584 222.771 M204.667 223.225 C 211.593 226.180,213.510 236.959,207.863 241.200 C 200.530 246.708,191.807 243.798,189.969 235.231 C 188.203 226.996,196.884 219.904,204.667 223.225 M163.787 227.874 C 159.679 230.452,160.019 236.473,164.400 238.726 C 167.629 240.386,171.409 239.095,172.974 235.799 C 173.515 234.658,173.774 234.447,174.201 234.800 C 175.542 235.914,178.191 235.110,178.321 233.550 C 178.525 231.116,176.115 229.848,174.340 231.454 C 173.667 232.063,173.597 232.056,173.343 231.354 C 171.913 227.407,167.242 225.706,163.787 227.874 M169.360 228.158 C 170.094 228.464,171.168 229.336,171.747 230.095 C 175.109 234.503,169.422 240.867,164.632 238.056 C 158.657 234.549,162.982 225.493,169.360 228.158 M236.152 228.154 C 239.954 229.743,240.194 235.827,236.540 237.982 C 234.598 239.128,232.656 239.033,230.779 237.700 C 225.363 233.855,230.015 225.590,236.152 228.154 M176.967 231.843 C 178.275 232.345,177.462 234.800,175.988 234.800 C 174.818 234.800,174.116 232.900,175.030 232.208 C 175.910 231.542,176.094 231.508,176.967 231.843 M182.800 233.134 C 182.800 234.744,180.750 235.401,180.014 234.026 C 179.394 232.867,179.505 232.410,180.500 232.034 C 181.614 231.614,182.800 232.181,182.800 233.134 M187.226 232.014 C 188.661 232.782,187.929 234.800,186.216 234.800 C 184.839 234.800,184.231 233.369,185.198 232.402 C 186.125 231.475,186.194 231.462,187.226 232.014 M215.440 231.906 C 216.602 232.682,216.182 234.800,214.866 234.800 C 213.302 234.800,212.600 232.789,213.900 232.032 C 214.745 231.540,214.876 231.529,215.440 231.906 M220.574 231.990 C 222.231 232.620,221.550 234.800,219.696 234.800 C 218.445 234.800,217.630 232.860,218.587 232.160 C 219.498 231.494,219.311 231.510,220.574 231.990 M226.056 232.376 L 227.000 233.151 226.114 234.051 C 225.315 234.861,225.128 234.896,224.214 234.407 C 223.041 233.780,222.888 232.622,223.900 232.032 C 224.860 231.473,224.980 231.492,226.056 232.376 M191.928 242.657 C 192.722 244.076,191.643 245.265,189.900 244.891 C 189.075 244.715,188.913 242.582,189.700 242.265 C 190.700 241.862,191.568 242.014,191.928 242.657 M211.367 242.243 C 212.198 242.561,212.181 244.259,211.343 244.728 C 209.837 245.571,208.149 243.866,209.216 242.581 C 209.734 241.956,210.363 241.857,211.367 242.243 M170.219 243.817 C 169.008 244.939,169.043 246.541,170.298 247.500 C 172.626 249.278,175.226 245.691,173.074 243.670 C 171.892 242.559,171.558 242.577,170.219 243.817 M228.689 243.605 C 227.830 244.607,227.820 245.353,228.646 246.614 C 230.331 249.186,233.856 246.321,232.386 243.574 C 231.819 242.515,229.606 242.534,228.689 243.605 M231.845 245.764 C 231.481 247.214,229.768 247.207,229.106 245.753 C 228.683 244.826,228.738 244.618,229.583 243.933 C 230.860 242.899,232.276 244.046,231.845 245.764 M172.725 245.500 C 172.842 246.705,172.763 246.800,171.652 246.800 C 170.279 246.800,169.603 245.560,170.432 244.562 C 171.305 243.510,172.584 244.034,172.725 245.500 M188.800 247.016 C 188.800 248.905,186.677 249.445,185.906 247.753 C 185.486 246.831,185.538 246.618,186.342 245.967 C 187.439 245.079,188.800 245.660,188.800 247.016 M215.184 246.181 C 216.247 247.461,214.686 249.428,213.300 248.555 C 211.915 247.683,212.408 245.600,214.000 245.600 C 214.386 245.600,214.919 245.861,215.184 246.181 M201.800 247.400 C 201.800 248.451,201.645 248.615,200.552 248.721 C 199.170 248.856,198.583 247.889,199.285 246.633 C 199.969 245.411,201.800 245.969,201.800 247.400 M184.874 249.900 C 185.208 251.298,184.781 252.000,183.594 252.000 C 182.217 252.000,181.891 251.574,182.231 250.218 C 182.543 248.974,184.594 248.727,184.874 249.900 M218.874 249.900 C 219.206 251.290,218.780 252.000,217.613 252.000 C 216.390 252.000,215.828 251.172,216.218 249.944 C 216.534 248.948,218.638 248.914,218.874 249.900 M201.633 251.200 C 202.222 251.200,202.056 253.056,201.419 253.584 C 200.526 254.325,199.489 253.919,199.163 252.700 C 198.849 251.523,199.674 250.635,200.733 251.011 C 201.026 251.115,201.431 251.200,201.633 251.200 M179.797 252.134 C 183.872 254.353,183.687 260.101,179.474 262.203 C 176.017 263.928,171.972 261.081,171.939 256.901 C 171.906 252.639,176.077 250.109,179.797 252.134 M225.984 251.948 C 231.597 254.461,229.854 262.800,223.717 262.800 C 218.214 262.800,216.636 254.264,221.721 252.003 C 223.858 251.053,223.980 251.051,225.984 251.948 M201.520 256.480 C 202.661 257.621,201.350 259.540,199.829 258.956 C 199.204 258.716,198.944 256.789,199.467 256.267 C 199.891 255.842,200.997 255.957,201.520 256.480 M211.722 260.564 C 209.787 261.460,210.399 264.884,212.538 265.130 C 213.207 265.207,213.984 264.977,214.435 264.568 C 216.433 262.760,214.175 259.428,211.722 260.564 M186.515 261.852 C 185.926 263.119,186.698 264.975,187.950 265.303 C 190.039 265.849,191.993 263.139,190.611 261.612 C 189.483 260.365,187.141 260.502,186.515 261.852 M204.453 262.853 C 205.866 264.266,206.000 264.587,206.000 266.553 C 206.000 272.019,198.571 274.208,195.887 269.533 C 192.610 263.823,199.809 258.209,204.453 262.853 M189.520 261.680 C 190.768 262.928,189.638 264.720,187.944 264.182 C 186.659 263.774,187.225 261.200,188.600 261.200 C 188.842 261.200,189.256 261.416,189.520 261.680 M213.800 262.600 C 213.800 263.665,213.666 263.800,212.605 263.800 C 211.370 263.800,210.885 262.999,211.364 261.750 C 211.826 260.547,213.800 261.236,213.800 262.600 " stroke="none" fill="#9bc0f4" fill-rule="evenodd"></path></g></svg>