<svg id="svg" version="1.1" xmlns="http://www.w3.org/2000/svg" xmlns:xlink="http://www.w3.org/1999/xlink" width="400" height="323.45215759849907" viewBox="0, 0, 400,323.45215759849907"><g id="svgg"><path id="path0" d="M67.716 0.652 C 51.429 6.441,38.048 22.820,35.860 39.644 C 35.445 42.840,35.196 75.507,35.594 74.595 C 35.750 74.239,35.887 71.193,35.900 67.826 C 35.923 61.499,36.084 60.573,36.544 64.120 C 36.778 65.926,36.816 66.008,36.852 64.783 C 36.875 64.014,37.108 63.169,37.371 62.906 C 37.634 62.643,38.035 62.166,38.261 61.846 C 38.833 61.037,40.961 60.658,41.214 61.319 C 41.614 62.360,42.044 61.736,42.156 59.951 C 42.220 58.928,42.332 63.406,42.404 69.903 C 42.530 81.233,42.543 80.909,42.718 61.974 C 42.851 47.610,43.014 41.748,43.316 40.453 C 43.545 39.474,43.895 37.872,44.095 36.893 C 46.556 24.829,58.321 11.876,70.550 7.768 C 78.096 5.234,78.631 5.204,118.447 5.113 L 152.913 5.034 122.923 4.863 C 106.429 4.769,92.825 4.583,92.691 4.450 C 92.558 4.316,93.310 4.193,94.364 4.175 C 96.785 4.134,95.552 3.641,92.907 3.592 C 91.943 3.574,91.245 3.469,91.356 3.358 C 91.467 3.247,91.269 2.919,90.916 2.630 C 90.280 2.109,90.282 2.095,91.092 1.228 C 91.541 0.746,91.909 0.273,91.909 0.176 C 91.909 -0.379,69.368 0.065,67.716 0.652 M306.387 0.193 C 306.281 0.300,306.272 0.591,306.368 0.841 C 306.463 1.090,306.385 1.294,306.194 1.294 C 306.002 1.294,305.918 1.482,306.006 1.712 C 306.104 1.968,305.723 2.289,305.020 2.544 C 304.389 2.772,303.957 3.094,304.059 3.259 C 304.165 3.429,303.499 3.568,302.527 3.579 C 299.618 3.610,297.683 4.123,300.297 4.170 C 301.439 4.190,302.264 4.316,302.131 4.450 C 301.997 4.583,285.844 4.769,266.235 4.863 L 230.583 5.033 273.731 5.106 C 318.986 5.182,320.587 5.229,326.343 6.663 C 335.569 8.962,343.970 14.540,349.572 22.087 C 350.464 23.289,351.309 24.201,351.450 24.114 C 351.591 24.026,351.687 24.208,351.662 24.518 C 351.638 24.829,351.810 25.041,352.047 24.992 C 352.282 24.943,352.388 25.044,352.282 25.216 C 352.176 25.388,352.862 27.102,353.808 29.026 C 354.754 30.950,355.692 33.107,355.893 33.819 C 356.781 36.960,357.266 39.116,357.441 40.699 C 357.544 41.635,357.771 42.727,357.946 43.126 C 358.183 43.667,358.203 43.522,358.025 42.557 C 357.893 41.845,357.781 40.570,357.776 39.725 C 357.771 38.879,357.642 38.188,357.490 38.188 C 357.337 38.188,357.296 37.969,357.399 37.702 C 357.501 37.435,357.428 37.217,357.237 37.217 C 357.045 37.217,356.973 36.998,357.075 36.731 C 357.177 36.464,357.104 36.246,356.912 36.246 C 356.706 36.246,356.616 35.794,356.693 35.136 C 356.764 34.525,356.712 34.095,356.576 34.178 C 356.227 34.394,355.876 32.804,356.168 32.331 C 356.310 32.102,356.275 32.023,356.084 32.140 C 355.905 32.251,355.594 31.983,355.394 31.543 C 355.183 31.081,355.159 30.744,355.337 30.744 C 355.505 30.744,355.550 30.502,355.436 30.206 C 355.298 29.844,355.354 29.744,355.608 29.901 C 356.179 30.254,356.063 29.914,355.439 29.409 C 355.067 29.107,354.970 29.094,355.135 29.369 C 355.274 29.601,355.216 29.773,354.998 29.773 C 354.770 29.773,354.689 29.500,354.795 29.094 C 354.892 28.721,354.892 28.495,354.794 28.593 C 354.282 29.105,353.747 27.782,353.876 26.325 C 353.952 25.463,354.022 24.648,354.030 24.515 C 354.038 24.381,354.268 24.272,354.541 24.272 C 354.813 24.272,355.111 24.077,355.203 23.838 C 355.306 23.570,355.862 23.412,356.655 23.426 C 357.528 23.441,357.893 23.575,357.790 23.844 C 357.692 24.099,357.832 24.169,358.188 24.042 C 358.490 23.934,358.630 23.964,358.498 24.110 C 358.236 24.398,358.806 25.243,359.263 25.243 C 359.419 25.243,359.547 25.088,359.547 24.900 C 359.547 24.711,359.379 24.661,359.173 24.788 C 358.926 24.941,358.888 24.876,359.061 24.595 C 359.227 24.328,359.196 24.250,358.980 24.384 C 358.764 24.518,358.700 24.354,358.808 23.942 C 358.947 23.410,359.147 23.605,359.882 24.993 C 360.825 26.775,360.872 27.234,360.040 26.544 C 359.712 26.271,359.547 26.254,359.547 26.491 C 359.547 26.688,359.925 26.943,360.387 27.059 C 360.849 27.175,361.103 27.360,360.953 27.470 C 360.594 27.732,360.610 28.685,360.978 29.022 C 361.144 29.174,361.169 29.115,361.036 28.883 C 360.908 28.661,360.957 28.479,361.146 28.479 C 361.467 28.479,361.535 28.655,361.622 29.706 C 361.641 29.936,361.849 30.243,362.084 30.389 C 362.319 30.534,362.854 31.802,363.273 33.207 C 363.691 34.611,364.044 35.519,364.056 35.223 C 364.142 33.104,359.947 23.668,356.995 19.344 C 351.311 11.020,341.730 3.562,332.820 0.526 C 331.264 -0.004,306.891 -0.311,306.387 0.193 M364.024 36.429 C 363.933 36.595,364.051 37.095,364.287 37.540 C 364.523 37.985,364.707 38.131,364.697 37.864 C 364.669 37.087,364.205 36.099,364.024 36.429 M364.817 39.968 C 364.820 40.858,364.883 41.183,364.957 40.691 C 365.032 40.199,365.030 39.471,364.953 39.073 C 364.876 38.675,364.815 39.078,364.817 39.968 M365.290 46.162 C 365.449 50.652,365.604 51.224,365.629 47.411 C 365.641 45.631,365.544 43.904,365.414 43.573 C 365.284 43.243,365.228 44.408,365.290 46.162 M153.583 64.586 C 152.910 65.259,152.791 239.716,153.463 240.388 C 154.024 240.949,193.225 240.949,193.786 240.388 C 194.084 240.091,194.175 231.996,194.175 205.922 C 194.175 172.276,194.183 171.836,194.822 171.197 C 195.460 170.560,195.901 170.550,224.731 170.550 C 240.825 170.550,254.223 170.462,254.504 170.354 C 255.384 170.016,255.272 136.406,254.390 135.934 C 253.972 135.710,244.045 135.599,224.473 135.599 L 195.182 135.599 194.679 134.879 C 194.238 134.251,194.175 132.053,194.175 117.476 C 194.175 102.899,194.238 100.700,194.679 100.072 L 195.182 99.353 234.581 99.353 C 264.794 99.353,274.071 99.262,274.369 98.964 C 274.929 98.404,274.929 65.026,274.369 64.466 C 273.698 63.795,154.255 63.914,153.583 64.586 M365.448 243.792 C 365.404 249.034,365.237 253.047,365.048 253.400 C 364.844 253.780,364.838 254.077,365.031 254.196 C 365.599 254.547,365.722 252.321,365.622 243.528 L 365.523 234.790 365.448 243.792 M42.800 254.207 C 42.804 254.919,42.870 255.172,42.947 254.770 C 43.025 254.367,43.022 253.785,42.941 253.475 C 42.860 253.166,42.796 253.495,42.800 254.207 M357.663 255.164 C 357.453 256.210,357.282 257.415,357.282 257.841 C 357.282 258.267,357.054 259.372,356.777 260.295 C 356.499 261.219,356.110 262.557,355.912 263.269 C 355.380 265.182,352.661 270.785,351.316 272.740 C 350.346 274.151,350.204 274.555,350.493 275.095 C 350.847 275.757,351.460 275.684,351.451 274.981 C 351.448 274.749,351.321 274.789,351.133 275.081 C 350.865 275.496,350.818 275.484,350.814 275.000 C 350.811 274.689,350.970 274.434,351.167 274.434 C 351.364 274.434,351.444 274.220,351.343 273.959 C 351.243 273.697,351.289 273.404,351.446 273.307 C 351.603 273.210,351.794 273.315,351.871 273.540 C 351.948 273.764,351.972 273.693,351.925 273.381 C 351.879 273.069,352.080 272.680,352.374 272.515 C 352.667 272.351,352.806 272.116,352.682 271.992 C 352.432 271.742,354.284 267.863,354.735 267.691 C 354.892 267.631,354.938 267.449,354.837 267.286 C 354.737 267.123,354.778 266.990,354.928 266.990 C 355.079 266.990,355.227 266.665,355.257 266.267 C 355.287 265.869,355.464 265.493,355.651 265.430 C 355.838 265.368,355.909 265.184,355.808 265.021 C 355.708 264.858,355.763 264.725,355.932 264.725 C 356.101 264.725,356.223 264.543,356.203 264.320 C 356.144 263.661,356.981 260.218,357.239 260.059 C 357.369 259.978,357.507 259.284,357.544 258.516 C 357.581 257.748,357.769 256.432,357.962 255.592 C 358.155 254.751,358.252 253.884,358.179 253.663 C 358.106 253.443,357.874 254.118,357.663 255.164 M364.786 256.650 C 364.752 257.816,364.550 258.945,364.337 259.159 C 364.123 259.372,364.073 259.547,364.225 259.547 C 364.377 259.547,364.260 259.814,363.965 260.140 C 363.505 260.648,363.498 260.734,363.917 260.734 C 364.597 260.734,365.105 258.623,364.964 256.379 L 364.847 254.531 364.786 256.650 M363.780 261.990 C 363.766 262.355,363.579 262.828,363.366 263.042 C 363.152 263.256,363.102 263.430,363.254 263.430 C 363.406 263.430,363.253 263.747,362.914 264.133 C 362.575 264.520,362.480 264.730,362.702 264.600 C 362.925 264.470,363.107 264.522,363.107 264.716 C 363.107 264.910,362.779 265.201,362.379 265.362 C 361.804 265.593,361.772 265.659,362.228 265.675 C 362.730 265.693,362.753 265.791,362.402 266.424 C 362.180 266.824,362.026 267.252,362.061 267.375 C 362.095 267.498,361.834 267.690,361.482 267.801 C 360.767 268.028,360.622 268.790,361.246 269.041 C 361.557 269.167,361.553 269.210,361.227 269.230 C 360.988 269.245,360.905 269.421,361.037 269.634 C 361.196 269.891,361.093 269.944,360.716 269.800 C 360.410 269.683,360.240 269.715,360.337 269.873 C 360.435 270.030,360.296 270.242,360.031 270.344 C 359.765 270.446,359.549 270.716,359.552 270.945 C 359.555 271.235,359.651 271.213,359.871 270.874 C 360.125 270.480,360.185 270.524,360.189 271.106 C 360.193 271.621,360.053 271.770,359.696 271.633 C 359.421 271.528,359.220 271.569,359.248 271.724 C 359.403 272.571,359.216 272.982,358.900 272.492 C 358.628 272.072,358.585 272.079,358.581 272.546 C 358.578 272.843,358.733 273.138,358.926 273.202 C 359.458 273.379,358.579 275.082,357.958 275.076 C 357.507 275.072,357.504 275.032,357.929 274.757 C 358.360 274.478,358.360 274.443,357.929 274.443 C 357.450 274.442,355.987 276.382,355.987 277.018 C 355.987 277.199,356.165 277.346,356.383 277.346 C 356.600 277.346,356.455 277.573,356.059 277.850 C 355.663 278.127,355.328 278.600,355.314 278.902 C 355.297 279.268,355.232 279.309,355.119 279.027 C 355.026 278.794,355.206 278.320,355.519 277.975 C 355.831 277.629,355.954 277.346,355.791 277.346 C 355.446 277.346,354.523 278.689,354.624 279.045 C 354.662 279.179,354.511 279.298,354.288 279.311 C 354.066 279.323,354.156 279.441,354.489 279.572 C 355.069 279.799,355.070 279.835,354.523 280.382 C 354.065 280.840,353.897 280.869,353.679 280.526 C 353.472 280.200,353.214 280.331,352.605 281.068 C 351.731 282.127,351.506 282.830,352.237 282.225 C 352.488 282.016,352.770 281.969,352.863 282.120 C 352.956 282.271,352.757 282.567,352.421 282.776 C 352.053 283.006,351.735 283.037,351.621 282.853 C 351.518 282.685,350.875 283.089,350.194 283.750 C 349.014 284.896,348.585 285.531,349.110 285.356 C 349.244 285.311,349.313 285.155,349.264 285.008 C 349.215 284.862,349.335 284.841,349.531 284.962 C 349.765 285.106,349.637 285.447,349.159 285.956 C 348.312 286.858,348.170 286.914,348.427 286.246 C 348.529 285.979,348.470 285.761,348.294 285.761 C 347.880 285.761,347.135 286.664,347.046 287.275 C 346.898 288.278,346.610 288.656,346.131 288.472 C 345.858 288.367,345.735 288.115,345.857 287.911 C 345.979 287.707,345.834 287.739,345.535 287.982 C 344.885 288.508,345.108 289.053,345.856 288.766 C 346.209 288.630,346.307 288.689,346.150 288.942 C 346.022 289.150,345.625 289.320,345.269 289.320 C 344.913 289.320,344.706 289.456,344.808 289.622 C 344.911 289.787,344.862 290.005,344.699 290.105 C 344.234 290.393,344.022 289.447,344.443 288.960 C 344.651 288.719,344.422 288.872,343.932 289.301 C 343.443 289.730,343.042 290.341,343.042 290.660 C 343.042 291.324,341.857 292.083,341.019 291.955 C 340.708 291.908,340.453 292.073,340.453 292.323 C 340.453 292.832,339.136 293.528,338.172 293.528 C 337.795 293.528,337.540 293.748,337.540 294.075 C 337.540 294.555,337.478 294.545,337.031 293.994 C 336.751 293.648,336.596 293.518,336.686 293.705 C 336.869 294.081,336.412 294.969,336.015 295.010 C 335.875 295.025,335.105 295.330,334.304 295.688 C 333.503 296.047,332.629 296.436,332.362 296.554 C 332.095 296.671,332.314 296.691,332.848 296.597 C 336.497 295.956,346.063 289.897,350.908 285.157 C 355.184 280.975,361.336 271.937,360.657 270.837 C 360.521 270.617,360.555 270.535,360.736 270.647 C 360.911 270.755,361.278 270.304,361.551 269.645 C 363.481 264.996,364.259 262.464,363.977 261.756 C 363.876 261.504,363.795 261.601,363.780 261.990 M45.869 266.347 C 46.150 267.060,46.438 267.586,46.510 267.514 C 46.665 267.358,45.731 265.049,45.512 265.049 C 45.428 265.049,45.589 265.633,45.869 266.347 M38.524 267.738 C 38.508 268.073,40.133 271.521,40.307 271.521 C 40.478 271.521,40.017 270.380,39.197 268.770 C 38.834 268.058,38.531 267.594,38.524 267.738 M47.255 269.342 C 47.235 270.258,51.454 276.240,54.280 279.304 C 55.210 280.313,55.866 281.254,55.737 281.397 C 55.607 281.540,55.674 281.559,55.884 281.438 C 56.286 281.208,56.731 281.708,56.847 282.524 C 56.896 282.864,56.779 282.823,56.455 282.386 C 56.201 282.043,55.913 281.843,55.814 281.942 C 55.715 282.041,56.214 282.690,56.922 283.385 C 58.200 284.638,58.206 284.655,57.713 285.674 C 57.212 286.707,55.663 288.002,55.663 287.386 C 55.663 286.867,54.460 286.999,54.252 287.540 C 54.138 287.836,54.251 288.026,54.541 288.026 C 54.802 288.026,54.980 288.161,54.935 288.327 C 54.891 288.492,55.146 288.867,55.502 289.160 C 55.858 289.452,55.930 289.587,55.663 289.458 C 54.661 288.975,53.799 287.962,53.938 287.431 C 54.029 287.082,53.702 286.599,53.047 286.115 C 52.477 285.694,52.113 285.515,52.238 285.717 C 52.363 285.919,52.311 286.084,52.123 286.084 C 51.934 286.084,51.780 285.857,51.780 285.580 C 51.780 285.302,51.632 285.167,51.451 285.278 C 51.270 285.390,51.220 285.640,51.339 285.833 C 51.470 286.044,51.405 286.091,51.177 285.950 C 50.969 285.821,50.872 285.597,50.962 285.451 C 51.052 285.306,50.910 285.008,50.647 284.790 C 50.384 284.571,50.268 284.227,50.389 284.025 C 50.511 283.822,50.363 283.857,50.062 284.101 C 49.557 284.511,49.368 284.384,49.484 283.714 C 49.510 283.567,49.394 283.531,49.228 283.634 C 48.804 283.896,45.942 280.401,43.283 276.375 C 40.750 272.539,40.235 271.903,41.581 274.272 C 49.174 287.642,61.541 296.173,77.670 299.169 C 80.094 299.619,85.084 299.670,119.741 299.604 C 153.118 299.541,156.689 299.493,143.366 299.288 C 124.730 299.002,118.770 298.778,118.770 298.364 C 118.770 298.196,118.297 298.048,117.718 298.036 C 116.861 298.017,116.786 297.965,117.314 297.756 L 117.961 297.498 117.314 297.330 C 116.749 297.184,116.742 297.158,117.256 297.125 C 118.030 297.076,118.608 296.437,118.608 295.631 C 118.608 295.177,118.947 294.874,119.741 294.615 C 120.814 294.266,120.831 294.238,120.065 294.093 C 119.465 293.979,119.591 293.919,120.550 293.863 C 122.276 293.761,123.747 293.311,122.816 293.171 C 122.460 293.117,123.989 292.986,126.214 292.880 C 129.225 292.737,127.405 292.651,119.094 292.544 C 112.021 292.452,119.554 292.339,139.644 292.233 L 171.359 292.066 125.458 291.988 C 85.196 291.919,79.291 291.847,77.399 291.405 C 64.026 288.274,55.027 281.803,47.952 270.227 C 47.572 269.604,47.258 269.206,47.255 269.342 M347.691 277.435 C 342.903 283.087,336.457 287.398,329.193 289.804 C 327.716 290.294,326.576 290.762,326.659 290.845 C 326.826 291.011,330.821 289.681,333.144 288.685 C 333.960 288.335,334.630 288.153,334.633 288.280 C 334.636 288.407,334.745 288.358,334.876 288.171 C 335.189 287.721,337.540 286.297,337.540 286.556 C 337.540 286.667,337.938 286.389,338.425 285.938 C 339.007 285.398,339.532 285.179,339.962 285.298 C 340.490 285.445,340.522 285.414,340.129 285.139 C 339.644 284.800,340.020 284.610,340.882 284.759 C 341.028 284.785,341.056 284.656,340.943 284.474 C 340.831 284.292,340.950 284.142,341.208 284.142 C 341.467 284.142,341.755 283.943,341.849 283.699 C 341.947 283.443,342.374 283.294,342.856 283.347 C 343.316 283.397,343.614 283.312,343.519 283.157 C 343.423 283.003,343.095 282.955,342.789 283.051 C 342.398 283.174,342.459 283.026,342.995 282.553 C 343.414 282.183,343.910 281.975,344.097 282.091 C 344.284 282.206,344.348 282.157,344.240 281.982 C 343.980 281.562,347.367 278.227,347.724 278.552 C 347.876 278.690,347.896 278.621,347.768 278.399 C 347.623 278.147,347.841 277.858,348.353 277.624 C 348.803 277.419,349.094 277.127,349.000 276.975 C 348.906 276.823,349.008 276.699,349.226 276.699 C 349.444 276.699,349.528 276.604,349.412 276.488 C 349.296 276.372,349.437 276.105,349.726 275.894 C 350.015 275.683,350.192 275.333,350.120 275.116 C 350.047 274.900,348.955 275.943,347.691 277.435 M346.101 280.332 C 345.398 281.084,345.125 281.447,345.496 281.140 C 345.866 280.833,346.266 280.654,346.385 280.744 C 346.505 280.833,346.536 280.816,346.456 280.706 C 346.280 280.466,346.844 279.872,347.735 279.358 C 348.215 279.080,348.253 278.982,347.881 278.974 C 347.606 278.969,346.805 279.580,346.101 280.332 M58.213 282.968 L 58.934 283.736 58.089 283.574 C 57.564 283.474,57.306 283.252,57.406 282.989 C 57.496 282.757,57.395 282.495,57.182 282.409 C 56.952 282.315,56.937 282.241,57.144 282.226 C 57.336 282.212,57.817 282.546,58.213 282.968 M351.001 283.785 C 350.571 284.261,350.541 284.435,350.870 284.561 C 351.104 284.651,350.970 284.708,350.574 284.688 L 349.854 284.653 350.550 283.912 C 351.385 283.024,351.795 282.908,351.001 283.785 M52.546 286.477 C 52.460 286.617,52.528 286.731,52.697 286.731 C 52.867 286.731,53.093 286.959,53.199 287.237 C 53.345 287.618,53.154 287.572,52.425 287.053 C 51.281 286.239,51.274 286.223,52.080 286.223 C 52.423 286.223,52.633 286.337,52.546 286.477 M323.139 291.418 C 322.026 291.787,321.981 291.835,322.816 291.759 C 323.350 291.711,324.005 291.587,324.272 291.485 C 324.539 291.383,325.049 291.236,325.405 291.157 C 325.910 291.045,325.875 291.011,325.243 291.001 C 324.798 290.994,323.851 291.182,323.139 291.418 M298.647 292.152 C 302.619 292.203,309.027 292.203,312.886 292.152 C 316.745 292.100,313.495 292.058,305.663 292.058 C 297.832 292.058,294.674 292.100,298.647 292.152 M329.773 297.275 L 328.317 297.722 329.612 297.537 C 330.324 297.435,331.125 297.224,331.392 297.068 C 332.065 296.674,331.492 296.747,329.773 297.275 M326.214 298.118 C 326.214 298.239,325.886 298.403,325.485 298.482 C 325.085 298.561,325.389 298.587,326.161 298.540 C 327.785 298.442,328.763 297.805,327.204 297.861 C 326.660 297.880,326.215 297.996,326.214 298.118 M322.006 299.029 L 321.197 299.288 322.006 299.288 C 322.451 299.288,323.180 299.172,323.625 299.029 L 324.434 298.770 323.625 298.770 C 323.180 298.770,322.451 298.887,322.006 299.029 M304.105 299.595 C 307.164 299.648,312.261 299.648,315.432 299.595 C 318.603 299.542,316.100 299.499,309.871 299.498 C 303.641 299.498,301.046 299.542,304.105 299.595 " stroke="none" fill="#040807" fill-rule="evenodd"></path><path id="path1" d="M138.657 0.350 C 138.538 0.542,138.034 0.947,137.538 1.249 C 136.510 1.874,136.772 2.629,138.217 3.207 C 138.904 3.482,138.824 3.526,137.540 3.578 C 136.195 3.632,136.158 3.655,137.055 3.883 C 137.881 4.094,137.759 4.140,136.246 4.192 C 135.267 4.225,134.175 4.378,133.819 4.531 C 133.454 4.687,159.240 4.819,192.799 4.832 C 232.351 4.847,252.427 4.745,252.427 4.531 C 252.427 4.353,251.590 4.188,250.566 4.165 C 248.909 4.127,248.829 4.096,249.838 3.883 C 250.919 3.656,250.897 3.643,249.353 3.599 L 247.735 3.552 249.515 2.705 C 251.681 1.674,251.660 1.692,251.217 1.250 C 251.021 1.053,250.937 0.691,251.031 0.446 C 251.175 0.071,248.917 0.004,236.847 0.026 C 228.952 0.040,222.675 0.125,222.898 0.215 C 223.122 0.305,223.223 0.512,223.122 0.675 C 223.021 0.838,223.093 0.971,223.282 0.971 C 224.372 0.971,223.159 2.455,221.803 2.779 C 221.292 2.902,220.709 3.131,220.508 3.289 C 220.306 3.447,218.007 3.668,215.398 3.780 C 212.789 3.893,210.579 4.108,210.486 4.258 C 210.263 4.619,170.227 4.612,170.227 4.252 C 170.227 4.098,168.449 3.899,166.277 3.810 C 163.752 3.706,162.283 3.515,162.204 3.280 C 162.137 3.078,161.839 2.910,161.543 2.908 C 161.246 2.905,160.806 2.778,160.565 2.625 C 159.959 2.241,160.650 0.971,161.465 0.971 C 161.796 0.971,162.150 0.752,162.253 0.485 C 162.489 -0.129,139.036 -0.263,138.657 0.350 M228.155 8.107 C 226.464 8.236,222.896 8.390,220.227 8.449 L 215.372 8.557 222.330 8.738 L 229.288 8.919 222.330 9.046 C 214.868 9.182,215.039 9.253,224.595 9.983 C 226.923 10.161,227.764 10.323,227.265 10.499 C 226.865 10.640,226.537 10.872,226.537 11.015 C 226.537 11.158,226.100 11.371,225.566 11.489 C 225.032 11.606,224.595 11.836,224.595 12.000 C 224.595 12.164,224.352 12.298,224.055 12.298 C 223.757 12.298,223.250 12.536,222.928 12.828 C 222.605 13.120,221.773 13.666,221.077 14.042 C 220.381 14.417,218.703 15.380,217.348 16.181 C 215.993 16.982,213.712 18.293,212.279 19.094 C 210.847 19.895,208.092 21.570,206.159 22.816 C 201.871 25.578,200.134 26.670,195.955 29.227 C 194.175 30.316,191.799 31.831,190.675 32.594 C 189.552 33.357,188.523 33.981,188.390 33.981 C 188.257 33.981,187.859 34.250,187.506 34.579 C 186.963 35.084,185.398 36.156,179.400 40.129 C 176.668 41.939,165.347 49.942,161.777 52.587 C 146.164 64.154,136.829 71.601,122.654 83.795 C 108.436 96.026,88.257 115.723,75.383 129.935 C 74.416 131.003,73.989 131.589,74.434 131.237 C 75.253 130.589,75.207 130.644,72.337 133.819 C 71.854 134.353,71.327 134.790,71.166 134.790 C 71.005 134.790,70.855 134.935,70.831 135.113 C 70.808 135.291,70.152 136.144,69.375 137.009 C 68.538 137.940,67.961 138.897,67.961 139.355 C 67.961 139.781,67.816 140.129,67.638 140.129 C 67.460 140.129,67.314 140.421,67.314 140.777 C 67.314 141.136,67.098 141.424,66.828 141.424 C 66.465 141.424,66.343 141.812,66.343 142.971 C 66.343 144.146,66.188 144.629,65.696 144.984 C 65.340 145.240,65.049 145.782,65.049 146.188 C 65.049 146.628,64.853 146.926,64.563 146.926 C 64.293 146.926,64.078 147.213,64.078 147.573 C 64.078 147.929,63.932 148.220,63.754 148.220 C 63.576 148.220,63.430 148.948,63.430 149.838 C 63.430 150.728,63.285 151.456,63.107 151.456 C 62.929 151.456,62.783 151.748,62.783 152.104 C 62.783 152.463,62.567 152.751,62.298 152.751 C 62.031 152.751,61.812 152.969,61.812 153.236 C 61.812 153.503,61.667 153.722,61.489 153.722 C 61.311 153.722,61.165 154.231,61.165 154.854 C 61.165 155.477,61.019 155.987,60.841 155.987 C 60.663 155.987,60.518 156.278,60.518 156.634 C 60.518 156.990,60.372 157.282,60.194 157.282 C 60.016 157.282,59.871 158.010,59.871 158.900 C 59.871 160.122,59.752 160.518,59.385 160.518 C 59.115 160.518,58.900 160.805,58.900 161.165 C 58.900 161.521,58.754 161.812,58.576 161.812 C 58.398 161.812,58.252 162.468,58.252 163.269 C 58.252 164.070,58.107 164.725,57.929 164.725 C 57.751 164.725,57.605 164.943,57.605 165.210 C 57.605 165.477,57.387 165.696,57.120 165.696 C 56.850 165.696,56.634 165.983,56.634 166.343 C 56.634 166.699,56.489 166.990,56.311 166.990 C 56.133 166.990,55.987 167.354,55.987 167.799 C 55.987 168.244,55.841 168.608,55.663 168.608 C 55.485 168.608,55.340 169.264,55.340 170.065 C 55.340 171.143,55.214 171.521,54.854 171.521 C 54.565 171.521,54.369 171.819,54.369 172.259 C 54.369 172.664,54.078 173.206,53.722 173.463 C 53.301 173.766,53.074 174.301,53.074 174.991 C 53.074 175.718,52.922 176.052,52.589 176.052 C 52.250 176.052,52.104 176.393,52.104 177.184 C 52.104 177.807,51.958 178.317,51.780 178.317 C 51.602 178.317,51.456 178.827,51.456 179.450 C 51.456 180.073,51.311 180.583,51.133 180.583 C 50.955 180.583,50.809 180.947,50.809 181.392 C 50.809 181.837,50.686 182.201,50.535 182.201 C 50.384 182.201,50.151 186.460,50.016 191.667 C 49.882 196.873,49.672 202.516,49.549 204.207 L 49.326 207.282 49.113 202.265 C 48.721 193.085,48.209 172.414,48.214 166.046 C 48.217 162.590,48.111 159.872,47.977 160.005 C 47.844 160.139,47.654 166.389,47.555 173.894 L 47.375 187.540 47.272 175.243 C 47.215 168.479,47.076 161.926,46.963 160.680 L 46.758 158.414 46.520 161.650 C 46.199 166.014,46.211 246.278,46.533 246.278 C 46.672 246.278,46.787 246.570,46.787 246.926 C 46.787 247.282,46.672 247.573,46.533 247.573 C 46.393 247.573,46.278 247.864,46.278 248.220 C 46.278 248.576,46.400 248.867,46.548 248.867 C 46.696 248.867,46.818 249.079,46.818 249.339 C 46.818 249.598,46.681 249.725,46.513 249.622 C 46.345 249.517,46.287 249.704,46.383 250.040 C 46.479 250.374,46.723 251.485,46.926 252.508 C 47.129 253.532,47.430 254.369,47.596 254.369 C 47.761 254.369,47.896 254.523,47.896 254.712 C 47.896 254.900,47.714 254.945,47.492 254.811 C 47.201 254.637,47.208 254.718,47.518 255.099 C 47.755 255.391,48.017 256.232,48.102 256.967 C 48.290 258.602,48.749 259.871,49.153 259.871 C 49.318 259.871,49.378 260.162,49.285 260.518 C 49.180 260.917,49.275 261.165,49.531 261.165 C 49.759 261.165,49.854 261.257,49.742 261.369 C 49.629 261.482,49.709 261.882,49.919 262.259 C 50.129 262.636,50.325 263.018,50.356 263.107 C 50.386 263.196,50.517 263.596,50.648 263.997 C 50.778 264.397,51.122 264.727,51.413 264.730 C 51.873 264.734,51.878 264.776,51.456 265.049 C 51.133 265.258,51.106 265.364,51.375 265.367 C 51.598 265.370,51.780 265.606,51.780 265.892 C 51.780 266.198,51.961 266.343,52.221 266.243 C 52.484 266.142,52.663 266.291,52.665 266.613 C 52.670 267.519,53.131 268.611,53.431 268.426 C 53.587 268.330,53.628 268.477,53.522 268.753 C 53.416 269.030,53.490 269.256,53.687 269.256 C 53.884 269.256,54.045 269.407,54.045 269.593 C 54.045 269.778,54.194 270.106,54.375 270.321 C 54.967 271.023,55.908 272.175,57.009 273.544 C 58.871 275.859,60.781 277.670,61.362 277.670 C 61.669 277.670,61.832 277.758,61.724 277.866 C 61.424 278.166,62.688 279.385,63.060 279.155 C 63.239 279.045,63.491 279.124,63.620 279.333 C 63.777 279.587,63.704 279.629,63.400 279.462 C 63.150 279.324,63.382 279.607,63.916 280.090 C 64.450 280.572,65.324 281.192,65.858 281.466 C 66.392 281.740,66.945 282.163,67.087 282.406 C 67.230 282.649,67.498 282.848,67.683 282.848 C 67.869 282.848,68.389 283.137,68.838 283.491 C 69.288 283.844,69.784 284.054,69.941 283.957 C 70.098 283.860,70.227 283.943,70.227 284.142 C 70.227 284.341,70.372 284.414,70.550 284.304 C 70.728 284.194,70.874 284.236,70.874 284.398 C 70.874 284.559,71.493 284.947,72.249 285.259 C 76.257 286.911,78.455 287.716,79.385 287.872 C 79.955 287.968,81.149 288.248,82.039 288.495 C 82.929 288.742,85.040 289.062,86.731 289.205 C 91.925 289.644,313.150 289.498,313.684 289.055 C 313.933 288.848,314.230 288.771,314.342 288.884 C 314.455 288.997,314.769 288.905,315.041 288.680 C 315.312 288.454,315.534 288.409,315.534 288.580 C 315.534 289.141,319.866 288.609,320.242 288.001 C 320.323 287.870,320.680 287.839,321.036 287.932 C 321.392 288.025,321.683 287.963,321.683 287.794 C 321.683 287.625,321.865 287.479,322.087 287.469 C 322.891 287.435,324.640 287.034,325.178 286.761 C 325.481 286.607,326.493 286.149,327.427 285.742 C 328.362 285.335,329.126 284.873,329.126 284.715 C 329.126 284.557,329.272 284.518,329.450 284.628 C 329.628 284.738,329.773 284.665,329.773 284.466 C 329.773 284.267,329.919 284.194,330.097 284.304 C 330.275 284.414,330.421 284.326,330.421 284.108 C 330.421 283.889,330.512 283.802,330.624 283.914 C 330.833 284.123,333.565 282.733,334.142 282.123 C 334.365 281.888,334.324 281.863,334.011 282.041 C 333.704 282.217,333.633 282.178,333.791 281.922 C 333.920 281.713,334.155 281.623,334.313 281.721 C 334.730 281.978,335.922 281.156,335.922 280.613 C 335.922 280.359,336.017 280.246,336.133 280.362 C 336.249 280.478,336.551 280.320,336.804 280.011 C 337.058 279.702,337.156 279.659,337.022 279.915 C 336.889 280.171,337.388 279.892,338.131 279.295 C 338.874 278.697,339.482 278.023,339.482 277.797 C 339.482 277.570,339.650 277.281,339.856 277.154 C 340.106 276.999,340.144 277.073,339.972 277.377 C 339.830 277.627,340.465 277.106,341.384 276.220 C 342.305 275.331,342.980 274.416,342.890 274.180 C 342.795 273.934,342.872 273.843,343.072 273.966 C 343.431 274.189,344.559 272.855,344.407 272.387 C 344.359 272.240,344.463 272.208,344.638 272.316 C 344.813 272.424,345.213 272.107,345.528 271.612 C 345.844 271.117,346.188 270.639,346.294 270.550 C 346.605 270.289,347.035 269.122,346.950 268.770 C 346.907 268.592,346.982 268.557,347.117 268.692 C 347.443 269.018,348.562 267.290,348.312 266.849 C 348.204 266.660,348.233 266.611,348.377 266.740 C 348.712 267.044,350.858 262.800,350.589 262.365 C 350.477 262.184,350.539 262.131,350.728 262.247 C 351.106 262.482,351.880 260.618,351.595 260.157 C 351.498 259.999,351.542 259.871,351.693 259.871 C 352.326 259.871,354.675 250.749,354.092 250.555 C 353.888 250.487,353.733 250.189,353.747 249.892 C 353.763 249.556,353.834 249.505,353.936 249.757 C 354.026 249.980,354.196 250.162,354.315 250.162 C 354.614 250.161,354.588 46.956,354.289 45.955 C 354.156 45.510,353.959 44.636,353.851 44.013 C 353.551 42.288,352.378 38.401,352.019 37.945 C 351.844 37.722,351.809 37.540,351.942 37.540 C 352.074 37.540,352.002 37.322,351.780 37.055 C 351.558 36.788,351.476 36.570,351.597 36.570 C 351.718 36.570,351.608 36.169,351.353 35.680 C 351.098 35.190,350.544 34.086,350.121 33.227 C 349.699 32.367,349.148 31.275,348.898 30.800 C 348.324 29.708,345.995 26.210,345.414 25.566 C 345.173 25.299,344.321 24.264,343.521 23.265 C 342.336 21.786,340.006 19.604,336.982 17.141 C 335.869 16.234,332.371 13.898,331.688 13.605 C 331.258 13.421,330.688 13.133,330.421 12.966 C 330.154 12.798,329.207 12.343,328.317 11.954 C 327.427 11.565,326.302 11.040,325.817 10.788 C 325.332 10.535,324.859 10.335,324.765 10.342 C 324.458 10.367,323.983 10.222,322.909 9.775 C 322.426 9.575,321.698 9.358,321.291 9.293 C 320.883 9.228,319.968 9.014,319.256 8.817 C 315.717 7.837,312.224 7.763,272.006 7.817 C 249.579 7.847,229.846 7.977,228.155 8.107 M54.784 26.483 C 54.302 27.135,54.232 27.400,54.543 27.400 C 54.783 27.400,54.957 27.315,54.929 27.211 C 54.902 27.108,55.060 26.695,55.282 26.294 C 55.839 25.291,55.598 25.382,54.784 26.483 M46.353 51.456 C 46.353 52.079,46.420 52.334,46.501 52.023 C 46.583 51.711,46.583 51.201,46.501 50.890 C 46.420 50.578,46.353 50.833,46.353 51.456 M275.312 63.523 C 276.249 64.460,276.201 99.176,275.262 99.864 C 274.727 100.255,268.818 100.324,235.563 100.324 C 214.075 100.324,196.263 100.412,195.981 100.520 C 195.079 100.866,195.217 133.823,196.122 134.307 C 196.577 134.551,205.599 134.642,225.916 134.611 C 253.268 134.568,255.096 134.600,255.684 135.132 C 256.551 135.917,256.676 170.138,255.815 171.000 C 254.915 171.900,253.207 171.938,224.904 171.698 C 204.237 171.522,196.657 171.556,196.153 171.825 L 195.469 172.191 195.469 206.337 L 195.469 240.482 194.668 241.284 L 193.866 242.085 173.520 241.997 C 156.848 241.925,153.077 241.829,152.639 241.465 C 151.812 240.779,151.812 64.399,152.639 63.713 C 153.086 63.342,162.480 63.239,209.839 63.090 C 281.445 62.864,274.608 62.819,275.312 63.523 M364.997 94.579 L 364.945 106.311 364.640 100.000 C 364.473 96.529,364.205 93.641,364.045 93.581 C 363.885 93.522,363.754 92.889,363.754 92.174 C 363.754 91.459,363.515 90.371,363.223 89.756 L 362.693 88.638 361.935 89.972 C 361.519 90.705,360.884 91.679,360.524 92.136 C 360.129 92.639,359.858 93.494,359.838 94.299 C 359.780 96.721,359.297 97.501,359.215 95.307 C 358.782 83.773,358.690 92.684,358.690 146.117 C 358.690 199.357,358.795 209.502,359.216 196.602 L 359.290 194.337 359.708 196.820 C 360.224 199.886,360.304 200.018,361.586 199.879 C 362.391 199.792,362.646 199.595,362.733 198.994 C 362.795 198.568,362.977 198.060,363.138 197.863 C 363.299 197.667,363.524 196.615,363.637 195.526 C 363.751 194.436,363.952 193.612,364.084 193.693 C 364.215 193.774,364.450 190.821,364.605 187.131 L 364.887 180.421 365.055 191.748 C 365.147 197.977,365.257 176.023,365.298 142.961 C 365.339 109.899,365.299 82.848,365.210 82.848 C 365.121 82.848,365.025 88.127,364.997 94.579 M41.993 111.489 C 41.860 112.735,41.728 114.846,41.699 116.181 C 41.648 118.509,41.637 118.542,41.424 116.990 C 41.302 116.100,41.179 115.504,41.151 115.664 C 41.123 115.825,40.828 115.643,40.496 115.260 C 39.415 114.013,38.287 114.489,37.381 116.573 L 36.919 117.638 36.849 116.667 C 36.810 116.133,36.685 116.715,36.570 117.961 L 36.360 120.227 36.246 117.476 C 36.145 115.043,36.105 115.287,35.907 119.579 C 35.598 126.258,35.624 152.337,35.937 150.324 C 36.076 149.434,36.202 147.932,36.218 146.987 C 36.235 145.931,36.371 145.346,36.570 145.469 C 36.748 145.579,36.895 145.406,36.898 145.084 C 36.902 144.587,36.951 144.572,37.217 144.984 C 37.454 145.351,37.532 145.210,37.535 144.401 C 37.541 143.237,38.531 141.012,38.752 141.667 C 39.077 142.628,40.729 142.122,40.866 141.019 C 40.965 140.222,41.009 140.344,41.049 141.524 C 41.079 142.433,41.231 143.000,41.414 142.887 C 41.607 142.767,41.762 144.154,41.818 146.508 C 41.869 148.643,42.026 145.691,42.173 139.806 C 42.484 127.443,42.360 108.028,41.993 111.489 M364.503 146.926 C 364.276 152.917,364.216 153.457,364.073 150.809 C 363.890 147.435,363.699 147.492,363.143 151.085 C 362.746 153.644,361.812 155.666,361.812 153.966 C 361.812 153.324,361.684 153.144,361.327 153.281 C 360.981 153.414,360.840 153.249,360.836 152.705 C 360.833 152.163,360.752 152.067,360.558 152.374 C 360.199 152.940,359.902 151.862,359.816 149.676 C 359.765 148.390,359.710 148.589,359.547 150.647 C 359.422 152.228,359.342 150.275,359.342 145.631 C 359.342 141.448,359.425 139.191,359.525 140.615 L 359.709 143.204 359.890 140.959 C 359.995 139.657,360.233 138.660,360.456 138.586 C 360.668 138.515,360.841 138.237,360.841 137.968 C 360.841 137.435,361.741 135.700,362.364 135.030 C 362.675 134.696,362.886 135.025,363.398 136.642 L 364.041 138.673 364.105 135.599 L 364.169 132.524 364.468 136.246 C 364.641 138.398,364.656 142.903,364.503 146.926 M41.667 203.883 C 41.412 208.547,40.906 212.878,40.824 211.103 C 40.773 209.980,40.129 209.257,40.129 210.322 C 40.129 211.099,39.476 212.621,39.142 212.621 C 39.012 212.621,38.795 213.022,38.660 213.511 C 38.378 214.534,37.667 212.869,37.519 210.841 C 37.456 209.969,37.429 209.999,37.252 211.140 C 36.893 213.454,36.249 212.930,36.222 210.302 C 36.209 208.997,36.081 207.273,35.939 206.472 C 35.622 204.690,35.595 235.363,35.907 242.395 L 36.130 247.411 36.246 243.689 C 36.360 240.050,36.367 240.021,36.547 242.395 C 36.658 243.859,36.838 244.657,37.000 244.407 C 37.276 243.980,38.182 244.856,38.599 245.955 C 38.730 246.299,38.791 246.246,38.809 245.773 C 38.823 245.406,39.126 244.793,39.482 244.411 C 39.838 244.029,40.129 243.447,40.129 243.117 C 40.129 242.449,41.041 241.077,41.147 241.586 C 41.184 241.764,41.309 240.890,41.424 239.644 C 41.628 237.441,41.636 237.477,41.726 240.939 C 41.776 242.896,41.926 245.372,42.059 246.440 C 42.351 248.796,42.390 217.378,42.108 206.958 L 41.907 199.515 41.667 203.883 M35.599 250.485 C 35.599 251.435,35.695 252.115,35.814 251.997 C 36.056 251.755,36.011 249.172,35.761 248.921 C 35.672 248.832,35.599 249.536,35.599 250.485 M172.006 292.526 C 180.016 292.632,185.550 292.799,184.304 292.898 C 182.448 293.045,182.858 293.098,186.570 293.193 C 190.745 293.299,190.923 293.328,188.835 293.554 C 184.435 294.032,183.055 294.670,183.330 296.101 C 183.401 296.466,183.285 296.769,183.072 296.775 C 182.860 296.782,183.036 296.980,183.463 297.217 C 184.032 297.532,184.119 297.696,183.787 297.828 C 183.444 297.963,183.437 298.013,183.757 298.033 C 185.372 298.130,183.272 298.717,181.130 298.767 C 172.891 298.959,201.986 299.262,228.803 299.264 C 255.884 299.267,285.795 298.956,277.184 298.761 C 273.319 298.674,272.020 297.910,275.047 297.504 C 275.770 297.407,276.291 297.213,276.205 297.073 C 276.118 296.933,276.584 296.488,277.240 296.082 C 277.895 295.677,278.260 295.289,278.051 295.219 C 277.841 295.149,277.670 294.894,277.670 294.652 C 277.670 293.947,277.083 293.760,274.137 293.523 C 271.382 293.301,271.396 293.298,275.890 293.189 C 279.398 293.104,279.946 293.038,278.317 292.899 C 277.160 292.800,282.985 292.632,291.262 292.526 C 299.539 292.420,291.748 292.378,273.948 292.433 C 239.281 292.540,234.860 292.711,235.886 293.910 C 236.163 294.234,236.657 294.498,236.984 294.498 C 237.311 294.498,237.489 294.644,237.379 294.822 C 237.269 295.000,237.487 295.146,237.864 295.146 C 238.241 295.146,238.460 295.291,238.350 295.469 C 238.240 295.647,237.856 295.793,237.498 295.793 C 236.880 295.793,235.583 296.741,236.142 296.784 C 236.288 296.796,236.059 296.944,235.633 297.115 C 234.533 297.555,234.854 297.705,237.571 298.020 L 239.968 298.298 237.217 298.407 C 234.836 298.502,235.098 298.542,239.159 298.706 C 241.739 298.809,237.006 298.894,228.641 298.894 C 220.275 298.894,215.615 298.809,218.285 298.706 C 221.080 298.597,222.315 298.469,221.197 298.404 L 219.256 298.291 220.874 298.088 C 222.661 297.864,223.409 297.524,223.125 297.065 C 223.023 296.899,223.069 296.764,223.228 296.764 C 223.387 296.764,223.517 296.545,223.517 296.278 C 223.517 296.011,223.323 295.793,223.085 295.793 C 222.848 295.793,222.654 295.647,222.654 295.469 C 222.654 295.291,222.945 295.146,223.301 295.146 C 223.657 295.146,223.948 295.000,223.948 294.822 C 223.948 294.644,224.320 294.498,224.773 294.498 C 225.227 294.498,226.065 294.249,226.634 293.945 L 227.670 293.392 224.757 292.996 C 222.686 292.714,212.542 292.561,189.644 292.466 C 171.934 292.393,163.997 292.420,172.006 292.526 " stroke="none" fill="#09c196" fill-rule="evenodd"></path><path id="path2" d="M162.253 0.485 C 162.150 0.752,161.796 0.971,161.465 0.971 C 160.650 0.971,159.959 2.241,160.565 2.625 C 160.806 2.778,161.246 2.905,161.543 2.908 C 161.839 2.910,162.137 3.078,162.204 3.280 C 162.283 3.515,163.752 3.706,166.277 3.810 C 168.449 3.899,170.227 4.098,170.227 4.252 C 170.227 4.612,210.263 4.619,210.486 4.258 C 210.579 4.108,212.789 3.893,215.398 3.780 C 218.007 3.668,220.306 3.447,220.508 3.289 C 220.709 3.131,221.292 2.902,221.803 2.779 C 223.159 2.455,224.372 0.971,223.282 0.971 C 223.093 0.971,223.020 0.841,223.118 0.681 C 223.508 0.050,221.247 -0.000,192.358 -0.000 C 166.062 -0.000,162.417 0.059,162.253 0.485 M172.274 5.097 C 183.101 5.144,200.722 5.144,211.433 5.097 C 222.143 5.050,213.285 5.011,191.748 5.011 C 170.210 5.011,161.447 5.050,172.274 5.097 M85.599 7.825 C 85.065 8.004,84.264 8.128,83.819 8.101 C 82.519 8.022,77.994 9.177,77.994 9.588 C 77.994 9.794,77.754 10.055,77.462 10.167 C 77.029 10.333,77.003 10.284,77.320 9.902 C 77.655 9.498,77.549 9.483,76.544 9.791 C 75.690 10.053,75.431 10.284,75.573 10.657 C 75.718 11.037,75.673 11.073,75.396 10.797 C 74.977 10.382,72.384 11.214,72.668 11.674 C 72.755 11.814,72.678 12.021,72.497 12.133 C 72.316 12.244,72.168 12.189,72.168 12.010 C 72.168 11.466,70.250 12.296,69.871 13.004 C 69.675 13.370,69.330 13.566,69.062 13.463 C 68.804 13.364,68.318 13.559,67.981 13.896 C 67.644 14.233,67.306 14.447,67.230 14.371 C 67.154 14.295,66.737 14.562,66.303 14.964 C 65.869 15.367,65.372 15.747,65.200 15.809 C 65.028 15.871,64.935 16.090,64.995 16.294 C 65.054 16.499,64.998 16.563,64.871 16.435 C 64.521 16.086,63.379 16.808,63.633 17.218 C 63.771 17.441,63.705 17.484,63.460 17.332 C 62.916 16.996,61.817 18.060,62.026 18.720 C 62.174 19.183,62.148 19.190,61.835 18.770 C 61.532 18.365,61.026 18.748,58.776 21.082 C 55.646 24.330,54.251 26.129,55.121 25.795 C 55.612 25.607,55.630 25.667,55.279 26.302 C 55.059 26.698,54.902 27.108,54.929 27.211 C 54.957 27.315,54.769 27.400,54.511 27.400 C 54.127 27.400,54.139 27.294,54.580 26.807 C 54.895 26.458,54.964 26.214,54.746 26.214 C 54.160 26.214,52.004 29.670,52.285 30.157 C 52.420 30.391,52.409 30.472,52.259 30.336 C 51.883 29.994,50.178 33.000,50.409 33.600 C 50.522 33.897,50.460 34.003,50.248 33.872 C 49.620 33.484,49.180 35.424,49.794 35.878 C 50.085 36.094,50.142 36.183,49.919 36.077 C 49.697 35.971,49.512 36.075,49.510 36.308 C 49.506 36.616,49.419 36.599,49.191 36.246 C 48.856 35.728,48.729 36.260,48.845 37.702 C 48.888 38.240,48.840 38.268,48.563 37.864 C 48.368 37.580,48.228 37.536,48.225 37.757 C 48.222 37.965,48.134 38.402,48.028 38.728 C 47.868 39.221,47.894 39.239,48.185 38.835 C 48.466 38.444,48.535 38.437,48.539 38.799 C 48.541 39.047,48.323 39.411,48.053 39.608 C 47.783 39.806,47.496 40.405,47.415 40.939 C 47.335 41.472,47.009 42.929,46.693 44.175 C 46.148 46.318,46.126 49.583,46.287 104.693 C 46.381 136.731,46.513 161.926,46.581 160.680 L 46.704 158.414 46.936 160.680 C 47.064 161.926,47.215 168.479,47.272 175.243 L 47.375 187.540 47.555 173.894 C 47.654 166.389,47.844 160.139,47.977 160.005 C 48.111 159.872,48.217 162.590,48.214 166.046 C 48.209 172.414,48.721 193.085,49.113 202.265 L 49.326 207.282 49.549 204.207 C 49.672 202.516,49.882 196.873,50.016 191.667 C 50.151 186.460,50.384 182.201,50.535 182.201 C 50.686 182.201,50.809 181.837,50.809 181.392 C 50.809 180.947,50.955 180.583,51.133 180.583 C 51.311 180.583,51.456 180.073,51.456 179.450 C 51.456 178.827,51.602 178.317,51.780 178.317 C 51.958 178.317,52.104 177.807,52.104 177.184 C 52.104 176.393,52.250 176.052,52.589 176.052 C 52.922 176.052,53.074 175.718,53.074 174.991 C 53.074 174.301,53.301 173.766,53.722 173.463 C 54.078 173.206,54.369 172.664,54.369 172.259 C 54.369 171.819,54.565 171.521,54.854 171.521 C 55.214 171.521,55.340 171.143,55.340 170.065 C 55.340 169.264,55.485 168.608,55.663 168.608 C 55.841 168.608,55.987 168.244,55.987 167.799 C 55.987 167.354,56.133 166.990,56.311 166.990 C 56.489 166.990,56.634 166.699,56.634 166.343 C 56.634 165.983,56.850 165.696,57.120 165.696 C 57.387 165.696,57.605 165.477,57.605 165.210 C 57.605 164.943,57.751 164.725,57.929 164.725 C 58.107 164.725,58.252 164.070,58.252 163.269 C 58.252 162.468,58.398 161.812,58.576 161.812 C 58.754 161.812,58.900 161.521,58.900 161.165 C 58.900 160.805,59.115 160.518,59.385 160.518 C 59.752 160.518,59.871 160.122,59.871 158.900 C 59.871 158.010,60.016 157.282,60.194 157.282 C 60.372 157.282,60.518 156.990,60.518 156.634 C 60.518 156.278,60.663 155.987,60.841 155.987 C 61.019 155.987,61.165 155.477,61.165 154.854 C 61.165 154.231,61.311 153.722,61.489 153.722 C 61.667 153.722,61.812 153.503,61.812 153.236 C 61.812 152.969,62.031 152.751,62.298 152.751 C 62.567 152.751,62.783 152.463,62.783 152.104 C 62.783 151.748,62.929 151.456,63.107 151.456 C 63.285 151.456,63.430 150.728,63.430 149.838 C 63.430 148.948,63.576 148.220,63.754 148.220 C 63.932 148.220,64.078 147.929,64.078 147.573 C 64.078 147.213,64.293 146.926,64.563 146.926 C 64.853 146.926,65.049 146.628,65.049 146.188 C 65.049 145.782,65.340 145.240,65.696 144.984 C 66.188 144.629,66.343 144.146,66.343 142.971 C 66.343 141.812,66.465 141.424,66.828 141.424 C 67.098 141.424,67.314 141.136,67.314 140.777 C 67.314 140.421,67.460 140.129,67.638 140.129 C 67.816 140.129,67.961 139.781,67.961 139.355 C 67.961 138.897,68.538 137.940,69.375 137.009 C 70.152 136.144,70.795 135.316,70.804 135.167 C 70.813 135.019,70.928 134.800,71.061 134.682 C 71.193 134.563,71.188 134.684,71.050 134.951 C 70.814 135.408,71.901 134.303,74.228 131.722 C 75.001 130.865,75.050 130.749,74.434 131.237 C 73.989 131.589,74.416 131.003,75.383 129.935 C 88.257 115.723,108.436 96.026,122.654 83.795 C 136.829 71.601,146.164 64.154,161.777 52.587 C 165.347 49.942,176.668 41.939,179.400 40.129 C 185.398 36.156,186.963 35.084,187.506 34.579 C 187.859 34.250,188.257 33.981,188.390 33.981 C 188.523 33.981,189.552 33.357,190.675 32.594 C 191.799 31.831,194.175 30.316,195.955 29.227 C 200.134 26.670,201.871 25.578,206.159 22.816 C 208.092 21.570,210.847 19.895,212.279 19.094 C 213.712 18.293,215.993 16.982,217.348 16.181 C 218.703 15.380,220.381 14.417,221.077 14.042 C 221.773 13.666,222.605 13.120,222.928 12.828 C 223.250 12.536,223.757 12.298,224.055 12.298 C 224.352 12.298,224.595 12.164,224.595 12.000 C 224.595 11.836,225.032 11.606,225.566 11.489 C 226.100 11.371,226.537 11.158,226.537 11.015 C 226.537 10.872,226.865 10.640,227.265 10.499 C 227.764 10.323,226.923 10.161,224.595 9.983 C 215.039 9.253,214.868 9.182,222.330 9.046 L 229.288 8.919 222.330 8.738 L 215.372 8.557 220.227 8.449 C 233.681 8.152,228.861 7.879,207.605 7.734 C 170.163 7.480,89.547 7.578,88.835 7.878 C 88.328 8.093,88.293 8.076,88.673 7.802 C 89.314 7.342,86.988 7.359,85.599 7.825 M311.489 7.607 C 312.228 7.865,314.182 7.936,314.036 7.699 C 313.949 7.559,313.267 7.455,312.521 7.469 C 311.775 7.483,311.311 7.545,311.489 7.607 M316.909 8.314 C 317.221 8.395,317.731 8.395,318.042 8.314 C 318.354 8.232,318.099 8.166,317.476 8.166 C 316.853 8.166,316.598 8.232,316.909 8.314 M329.264 12.259 C 329.361 12.415,329.770 12.626,330.173 12.728 C 330.880 12.906,330.884 12.896,330.278 12.443 C 329.582 11.924,328.990 11.816,329.264 12.259 M337.540 17.454 C 337.540 17.644,337.700 17.799,337.896 17.799 C 338.092 17.799,338.638 18.211,339.110 18.713 C 339.582 19.216,340.550 20.117,341.262 20.716 C 342.398 21.672,342.358 21.597,340.939 20.101 C 339.092 18.154,337.540 16.946,337.540 17.454 M346.168 26.537 C 346.483 27.071,346.860 27.508,347.005 27.508 C 347.150 27.508,346.946 27.071,346.551 26.537 C 346.156 26.003,345.779 25.566,345.714 25.566 C 345.648 25.566,345.853 26.003,346.168 26.537 M347.251 28.020 C 347.252 28.184,347.628 28.754,348.087 29.288 L 348.921 30.259 348.190 29.126 C 347.252 27.673,347.249 27.669,347.251 28.020 M358.412 147.249 C 358.412 203.050,358.450 225.878,358.495 197.977 C 358.541 170.077,358.541 124.422,358.495 96.521 C 358.450 68.621,358.412 91.448,358.412 147.249 M354.689 49.287 L 354.847 51.618 354.948 49.547 C 355.004 48.409,354.933 47.359,354.790 47.216 C 354.647 47.072,354.602 48.004,354.689 49.287 M46.501 52.023 C 46.420 52.334,46.353 52.079,46.353 51.456 C 46.353 50.833,46.420 50.578,46.501 50.890 C 46.583 51.201,46.583 51.711,46.501 52.023 M365.532 142.718 C 365.532 193.536,365.569 214.324,365.615 188.916 C 365.661 163.507,365.661 121.930,365.615 96.521 C 365.569 71.112,365.532 91.901,365.532 142.718 M364.105 135.599 L 364.041 138.673 363.398 136.642 C 362.886 135.025,362.675 134.696,362.364 135.030 C 361.741 135.700,360.841 137.435,360.841 137.968 C 360.841 138.237,360.668 138.515,360.456 138.586 C 360.233 138.660,359.995 139.657,359.890 140.959 L 359.709 143.204 359.525 140.615 C 359.425 139.191,359.342 141.448,359.342 145.631 C 359.342 150.275,359.422 152.228,359.547 150.647 C 359.710 148.589,359.765 148.390,359.816 149.676 C 359.902 151.862,360.199 152.940,360.558 152.374 C 360.752 152.067,360.833 152.163,360.836 152.705 C 360.840 153.249,360.981 153.414,361.327 153.281 C 361.684 153.144,361.812 153.324,361.812 153.966 C 361.812 155.666,362.746 153.644,363.143 151.085 C 363.699 147.492,363.890 147.435,364.073 150.809 C 364.216 153.457,364.276 152.917,364.503 146.926 C 364.656 142.903,364.641 138.398,364.468 136.246 L 364.169 132.524 364.105 135.599 M42.070 144.984 C 41.935 150.213,41.930 150.245,41.829 146.508 C 41.766 144.157,41.607 142.767,41.414 142.887 C 41.231 143.000,41.079 142.433,41.049 141.524 C 41.009 140.344,40.965 140.222,40.866 141.019 C 40.729 142.122,39.077 142.628,38.752 141.667 C 38.531 141.012,37.541 143.237,37.535 144.401 C 37.532 145.210,37.454 145.351,37.217 144.984 C 36.951 144.572,36.902 144.587,36.898 145.084 C 36.895 145.406,36.769 145.592,36.617 145.498 C 36.465 145.404,36.241 146.743,36.120 148.473 C 35.999 150.203,35.759 151.667,35.588 151.726 C 35.134 151.883,35.163 205.087,35.617 205.238 C 35.815 205.304,36.041 206.893,36.152 208.997 C 36.349 212.739,36.852 213.718,37.252 211.140 C 37.429 209.999,37.456 209.969,37.519 210.841 C 37.667 212.869,38.378 214.534,38.660 213.511 C 38.795 213.022,39.012 212.621,39.142 212.621 C 39.476 212.621,40.129 211.099,40.129 210.322 C 40.129 209.257,40.773 209.980,40.824 211.103 C 40.902 212.784,41.394 208.688,41.693 203.883 L 41.964 199.515 42.086 206.149 C 42.153 209.798,42.286 203.972,42.382 193.204 C 42.478 182.435,42.478 165.979,42.383 156.634 C 42.287 147.290,42.147 142.047,42.070 144.984 M354.527 193.366 C 354.527 222.023,354.565 233.698,354.612 219.311 C 354.658 204.924,354.658 181.477,354.612 167.208 C 354.565 152.938,354.527 164.709,354.527 193.366 M45.999 247.796 C 45.970 249.727,46.085 250.851,46.326 251.000 C 46.588 251.162,46.631 250.970,46.474 250.345 C 46.352 249.858,46.380 249.539,46.535 249.635 C 46.690 249.731,46.818 249.598,46.818 249.339 C 46.818 249.079,46.696 248.867,46.548 248.867 C 46.400 248.867,46.278 248.576,46.278 248.220 C 46.278 247.864,46.393 247.573,46.533 247.573 C 46.672 247.573,46.787 247.282,46.787 246.926 C 46.787 246.570,46.683 246.278,46.555 246.278 C 46.428 246.278,46.260 245.951,46.183 245.550 C 46.106 245.150,46.023 246.160,45.999 247.796 M354.716 247.573 C 354.662 248.374,354.644 249.284,354.676 249.595 C 354.742 250.243,354.182 250.366,353.936 249.757 C 353.833 249.502,353.763 249.549,353.747 249.884 C 353.715 250.553,354.659 250.950,354.884 250.363 C 354.976 250.123,354.998 249.070,354.933 248.022 C 354.823 246.242,354.808 246.213,354.716 247.573 M46.799 253.560 C 46.899 254.094,47.060 254.749,47.157 255.016 C 47.255 255.283,47.381 255.851,47.437 256.278 C 47.493 256.704,47.688 257.203,47.871 257.386 C 48.099 257.613,48.149 257.368,48.029 256.610 C 47.934 256.000,47.843 255.283,47.827 255.016 C 47.811 254.749,47.707 254.458,47.596 254.369 C 47.484 254.280,47.219 253.843,47.006 253.398 C 46.624 252.599,46.621 252.601,46.799 253.560 M48.774 260.518 C 48.867 260.874,48.982 261.165,49.029 261.165 C 49.077 261.165,49.192 260.874,49.285 260.518 C 49.390 260.113,49.295 259.871,49.029 259.871 C 48.764 259.871,48.668 260.113,48.774 260.518 M351.564 260.923 C 351.520 261.766,351.563 261.846,351.784 261.327 C 352.136 260.495,352.169 259.870,351.861 259.871 C 351.727 259.872,351.594 260.345,351.564 260.923 M49.442 261.346 C 49.174 261.614,49.542 262.783,49.895 262.783 C 50.063 262.783,50.096 262.951,49.969 263.157 C 49.827 263.387,49.880 263.443,50.108 263.302 C 50.377 263.136,50.346 262.871,49.995 262.336 C 49.730 261.931,49.610 261.501,49.729 261.382 C 49.848 261.263,49.873 261.165,49.784 261.165 C 49.695 261.165,49.541 261.246,49.442 261.346 M350.000 264.210 C 349.524 265.023,349.186 265.844,349.250 266.035 C 349.314 266.226,349.772 265.630,350.269 264.711 C 351.398 262.620,351.175 262.205,350.000 264.210 M51.389 265.550 C 51.120 265.977,53.963 270.559,54.476 270.525 C 54.737 270.507,54.730 270.449,54.450 270.336 C 54.227 270.246,54.045 269.966,54.045 269.714 C 54.045 269.462,53.884 269.256,53.687 269.256 C 53.490 269.256,53.416 269.030,53.522 268.753 C 53.628 268.477,53.587 268.330,53.431 268.426 C 53.131 268.611,52.670 267.519,52.665 266.613 C 52.663 266.310,52.482 266.143,52.249 266.232 C 52.022 266.319,51.784 266.125,51.720 265.800 C 51.652 265.460,51.512 265.354,51.389 265.550 M55.885 272.860 C 58.148 275.744,63.154 280.382,63.464 279.882 C 63.800 279.337,63.514 278.952,62.937 279.174 C 62.674 279.275,62.377 279.127,62.267 278.838 C 62.157 278.554,61.913 278.417,61.723 278.534 C 61.507 278.668,61.456 278.546,61.585 278.208 C 61.721 277.856,61.627 277.670,61.313 277.670 C 61.049 277.670,59.952 276.796,58.874 275.728 C 57.796 274.660,57.018 273.786,57.145 273.786 C 57.272 273.786,56.991 273.429,56.520 272.993 C 56.049 272.556,55.663 272.109,55.663 271.999 C 55.663 271.735,54.797 270.874,54.532 270.874 C 54.419 270.874,55.027 271.767,55.885 272.860 M345.363 271.876 C 344.764 272.835,345.030 272.907,345.727 271.975 C 346.047 271.547,346.191 271.197,346.048 271.197 C 345.904 271.197,345.596 271.503,345.363 271.876 M343.799 273.643 C 343.689 273.931,343.396 274.067,343.116 273.959 C 342.725 273.809,342.704 273.864,343.008 274.231 C 343.314 274.600,343.215 274.829,342.510 275.383 C 342.026 275.764,341.414 276.398,341.151 276.792 C 340.808 277.304,340.972 277.232,341.725 276.537 C 343.216 275.163,344.782 273.139,344.354 273.139 C 344.155 273.139,343.906 273.366,343.799 273.643 M339.577 277.666 C 339.484 278.020,339.257 278.216,339.072 278.102 C 338.875 277.980,338.832 278.050,338.967 278.269 C 339.096 278.477,338.985 278.728,338.719 278.830 C 338.454 278.931,338.144 279.258,338.030 279.555 C 337.908 279.873,338.219 279.717,338.785 279.174 C 339.642 278.353,340.336 277.023,339.907 277.023 C 339.818 277.023,339.669 277.312,339.577 277.666 M336.689 280.091 C 336.416 280.802,336.716 281.024,337.186 280.457 C 337.451 280.138,337.465 279.927,337.230 279.782 C 337.042 279.666,336.799 279.805,336.689 280.091 M334.793 281.558 C 334.984 281.868,334.911 281.931,334.529 281.784 C 334.239 281.673,333.901 281.743,333.779 281.941 C 333.651 282.149,333.703 282.210,333.903 282.087 C 334.093 281.969,334.303 282.035,334.369 282.234 C 334.447 282.467,334.635 282.420,334.898 282.103 C 335.214 281.722,335.218 281.557,334.917 281.370 C 334.653 281.207,334.613 281.267,334.793 281.558 M66.019 281.848 C 66.019 281.998,66.238 282.303,66.505 282.524 C 66.900 282.852,66.990 282.836,66.990 282.437 C 66.990 282.167,66.772 281.862,66.505 281.760 C 66.238 281.658,66.019 281.697,66.019 281.848 M332.794 283.057 C 332.794 283.348,332.960 283.372,333.387 283.143 C 333.714 282.968,333.981 282.766,333.981 282.695 C 333.981 282.623,333.714 282.585,333.387 282.609 C 333.061 282.634,332.794 282.835,332.794 283.057 M67.314 283.001 C 67.314 283.086,67.787 283.397,68.366 283.693 L 69.417 284.231 68.801 283.539 C 68.255 282.928,67.314 282.587,67.314 283.001 M331.587 283.657 C 331.249 283.913,330.848 284.045,330.697 283.951 C 330.545 283.857,330.421 283.943,330.421 284.142 C 330.421 284.341,330.275 284.414,330.097 284.304 C 329.919 284.194,329.773 284.267,329.773 284.466 C 329.773 284.665,329.643 284.747,329.484 284.649 C 329.324 284.550,329.111 284.687,329.008 284.953 C 328.906 285.219,328.896 285.437,328.985 285.437 C 329.456 285.437,332.362 283.761,332.362 283.490 C 332.362 283.087,332.330 283.095,331.587 283.657 M72.928 285.960 C 73.791 286.409,74.570 286.703,74.658 286.614 C 74.863 286.410,72.338 285.108,71.777 285.128 C 71.547 285.137,72.065 285.511,72.928 285.960 M75.081 286.727 C 75.081 286.951,75.842 287.379,76.240 287.379 C 76.682 287.379,76.267 286.779,75.728 286.638 C 75.372 286.545,75.081 286.585,75.081 286.727 M325.032 286.748 C 324.845 286.935,324.379 287.112,323.996 287.140 C 323.614 287.169,323.301 287.310,323.301 287.454 C 323.301 287.774,324.744 287.432,325.868 286.845 C 326.602 286.462,326.622 286.412,326.036 286.410 C 325.671 286.409,325.219 286.561,325.032 286.748 M320.252 287.984 C 320.157 288.139,319.615 288.359,319.049 288.472 C 318.483 288.585,318.087 288.745,318.170 288.828 C 318.421 289.079,320.712 288.342,320.712 288.011 C 320.712 287.625,320.482 287.612,320.252 287.984 M81.877 288.661 C 81.877 289.008,84.725 289.493,85.020 289.198 C 85.131 289.087,84.842 288.997,84.379 288.997 C 83.916 288.997,83.164 288.855,82.707 288.681 C 82.220 288.496,81.877 288.488,81.877 288.661 M315.858 289.078 C 315.858 289.211,316.294 289.320,316.828 289.320 C 317.362 289.320,317.799 289.211,317.799 289.078 C 317.799 288.944,317.362 288.835,316.828 288.835 C 316.294 288.835,315.858 288.944,315.858 289.078 M87.831 289.374 C 87.739 289.523,87.964 289.644,88.330 289.644 C 88.697 289.644,88.997 289.523,88.997 289.374 C 88.997 289.226,88.772 289.105,88.497 289.105 C 88.222 289.105,87.922 289.226,87.831 289.374 M89.532 289.725 C 89.737 290.057,311.247 290.035,311.453 289.702 C 311.543 289.557,261.614 289.447,200.499 289.460 C 139.385 289.472,89.450 289.591,89.532 289.725 M196.117 292.295 C 212.846 292.482,222.275 292.713,224.434 292.986 L 227.670 293.397 226.634 293.948 C 226.065 294.251,225.227 294.498,224.773 294.498 C 224.320 294.498,223.948 294.644,223.948 294.822 C 223.948 295.000,223.657 295.146,223.301 295.146 C 222.945 295.146,222.654 295.291,222.654 295.469 C 222.654 295.647,222.848 295.793,223.085 295.793 C 223.323 295.793,223.517 296.011,223.517 296.278 C 223.517 296.545,223.387 296.764,223.228 296.764 C 223.069 296.764,223.023 296.899,223.125 297.065 C 223.409 297.524,222.661 297.864,220.874 298.088 L 219.256 298.291 221.197 298.404 C 222.315 298.469,221.080 298.597,218.285 298.706 C 215.615 298.809,220.275 298.894,228.641 298.894 C 237.006 298.894,241.739 298.809,239.159 298.706 C 235.098 298.542,234.836 298.502,237.217 298.407 L 239.968 298.298 237.571 298.020 C 234.854 297.705,234.533 297.555,235.633 297.115 C 236.059 296.944,236.288 296.796,236.142 296.784 C 235.583 296.741,236.880 295.793,237.498 295.793 C 237.856 295.793,238.240 295.647,238.350 295.469 C 238.460 295.291,238.241 295.146,237.864 295.146 C 237.487 295.146,237.269 295.000,237.379 294.822 C 237.489 294.644,237.311 294.498,236.984 294.498 C 236.657 294.498,236.159 294.228,235.876 293.899 C 234.961 292.830,240.388 292.547,267.152 292.270 C 287.524 292.059,281.384 292.015,231.392 292.015 C 178.279 292.015,174.046 292.049,196.117 292.295 M193.770 299.595 C 213.038 299.642,244.567 299.642,263.835 299.595 C 283.103 299.549,267.338 299.512,228.803 299.512 C 190.267 299.512,174.502 299.549,193.770 299.595 " stroke="none" fill="#1ce694" fill-rule="evenodd"></path><path id="path3" d="M91.187 1.062 C 90.320 2.084,90.315 2.113,90.931 2.630 C 91.276 2.919,91.467 3.247,91.356 3.358 C 91.245 3.469,91.943 3.574,92.907 3.592 C 95.635 3.642,96.742 4.125,94.337 4.216 L 92.395 4.289 94.660 4.579 C 99.699 5.225,139.929 4.549,137.055 3.867 C 136.174 3.658,136.219 3.631,137.540 3.578 C 138.824 3.526,138.904 3.482,138.217 3.207 C 136.772 2.629,136.510 1.874,137.538 1.249 C 138.034 0.947,138.538 0.542,138.657 0.350 C 138.811 0.100,132.162 0.003,115.472 0.010 L 92.071 0.020 91.187 1.062 M251.031 0.446 C 250.937 0.691,251.021 1.053,251.217 1.250 C 251.660 1.692,251.681 1.674,249.515 2.705 L 247.735 3.552 249.353 3.599 C 250.897 3.643,250.919 3.656,249.838 3.883 C 248.829 4.096,248.909 4.127,250.566 4.165 C 251.590 4.188,252.427 4.353,252.427 4.531 C 252.427 4.909,296.967 4.920,300.324 4.542 L 302.427 4.306 300.324 4.219 C 297.746 4.113,299.471 3.612,302.527 3.579 C 303.499 3.568,304.165 3.429,304.059 3.259 C 303.957 3.094,304.389 2.772,305.020 2.544 C 305.723 2.289,306.104 1.968,306.006 1.712 C 305.918 1.482,305.978 1.294,306.139 1.294 C 306.300 1.294,306.410 1.003,306.384 0.647 C 306.320 -0.198,251.355 -0.398,251.031 0.446 M181.639 7.676 C 182.131 7.750,182.859 7.748,183.257 7.671 C 183.655 7.594,183.252 7.533,182.362 7.536 C 181.472 7.538,181.147 7.601,181.639 7.676 M218.528 7.686 C 235.570 7.732,263.459 7.732,280.502 7.686 C 297.544 7.640,283.600 7.602,249.515 7.602 C 215.429 7.602,201.485 7.640,218.528 7.686 M355.203 23.838 C 355.111 24.077,354.813 24.272,354.541 24.272 C 354.268 24.272,354.038 24.381,354.030 24.515 C 354.022 24.648,353.952 25.463,353.876 26.325 C 353.747 27.782,354.282 29.105,354.794 28.593 C 354.892 28.495,354.892 28.721,354.795 29.094 C 354.689 29.500,354.770 29.773,354.998 29.773 C 355.207 29.773,355.288 29.628,355.178 29.450 C 354.852 28.923,355.224 29.081,355.705 29.674 C 356.084 30.141,356.082 30.181,355.689 29.944 C 355.345 29.737,355.281 29.802,355.436 30.206 C 355.550 30.502,355.505 30.744,355.337 30.744 C 355.159 30.744,355.183 31.081,355.394 31.543 C 355.594 31.983,355.905 32.251,356.084 32.140 C 356.275 32.023,356.310 32.102,356.168 32.331 C 355.876 32.804,356.227 34.394,356.576 34.178 C 356.712 34.095,356.764 34.525,356.693 35.136 C 356.616 35.794,356.706 36.246,356.912 36.246 C 357.104 36.246,357.177 36.464,357.075 36.731 C 356.973 36.998,357.045 37.217,357.237 37.217 C 357.428 37.217,357.501 37.435,357.399 37.702 C 357.296 37.969,357.344 38.188,357.506 38.188 C 357.667 38.188,357.742 38.674,357.673 39.269 C 357.603 39.864,357.724 40.920,357.942 41.615 C 358.228 42.530,358.406 49.379,358.586 66.343 C 358.831 89.537,359.111 98.060,359.575 96.440 C 359.702 95.995,359.821 95.032,359.838 94.299 C 359.858 93.494,360.129 92.639,360.524 92.136 C 360.884 91.679,361.519 90.705,361.935 89.972 L 362.693 88.638 363.223 89.756 C 363.515 90.371,363.754 91.459,363.754 92.174 C 363.754 92.889,363.887 93.522,364.050 93.581 C 364.212 93.641,364.467 96.529,364.616 100.000 L 364.887 106.311 365.085 93.042 C 365.615 57.489,365.329 38.979,364.220 37.185 C 364.084 36.966,363.943 36.410,363.905 35.950 C 363.771 34.316,362.446 30.485,361.950 30.294 C 361.674 30.188,361.530 29.968,361.631 29.805 C 361.872 29.415,361.505 28.479,361.111 28.479 C 360.942 28.479,360.908 28.661,361.036 28.883 C 361.169 29.115,361.144 29.174,360.978 29.022 C 360.610 28.685,360.594 27.732,360.953 27.470 C 361.103 27.360,360.849 27.175,360.387 27.059 C 359.925 26.943,359.547 26.688,359.547 26.491 C 359.547 26.254,359.712 26.271,360.040 26.544 C 360.872 27.234,360.825 26.775,359.882 24.993 C 359.147 23.605,358.947 23.410,358.808 23.942 C 358.700 24.354,358.764 24.518,358.980 24.384 C 359.196 24.250,359.227 24.328,359.061 24.595 C 358.888 24.876,358.926 24.941,359.173 24.788 C 359.379 24.661,359.547 24.711,359.547 24.900 C 359.547 25.088,359.419 25.243,359.263 25.243 C 358.806 25.243,358.236 24.398,358.498 24.110 C 358.630 23.964,358.490 23.934,358.188 24.042 C 357.832 24.169,357.692 24.099,357.790 23.844 C 357.893 23.575,357.528 23.441,356.655 23.426 C 355.862 23.412,355.306 23.570,355.203 23.838 M354.852 148.867 C 354.852 202.532,354.890 224.486,354.935 197.654 C 354.981 170.821,354.981 126.913,354.935 100.081 C 354.890 73.248,354.852 95.202,354.852 148.867 M46.114 148.706 C 46.114 201.748,46.152 223.495,46.197 197.033 C 46.243 170.570,46.243 127.172,46.197 100.593 C 46.152 74.013,46.114 95.663,46.114 148.706 M42.133 59.951 C 42.074 61.719,41.625 62.388,41.214 61.319 C 40.961 60.658,38.833 61.037,38.261 61.846 C 38.035 62.166,37.634 62.643,37.371 62.906 C 37.108 63.169,36.873 64.014,36.849 64.783 C 36.825 65.552,36.750 65.817,36.683 65.372 C 36.129 61.701,36.075 61.875,35.828 68.123 C 35.687 71.683,35.529 91.998,35.476 113.269 C 35.408 141.035,35.446 146.758,35.612 133.562 C 35.738 123.453,35.933 115.092,36.044 114.981 C 36.155 114.870,36.272 116.005,36.303 117.503 L 36.360 120.227 36.570 117.961 C 36.685 116.715,36.810 116.133,36.849 116.667 L 36.919 117.638 37.381 116.573 C 38.287 114.489,39.415 114.013,40.496 115.260 C 40.828 115.643,41.123 115.825,41.151 115.664 C 41.179 115.504,41.302 116.100,41.424 116.990 C 41.637 118.542,41.648 118.509,41.699 116.181 C 41.961 104.208,42.262 114.648,42.397 140.453 L 42.561 171.683 42.595 128.155 C 42.623 91.691,42.362 53.108,42.133 59.951 M209.839 63.090 C 162.480 63.239,153.086 63.342,152.639 63.713 C 151.812 64.399,151.812 240.779,152.639 241.465 C 153.077 241.829,156.848 241.925,173.520 241.997 L 193.866 242.085 194.668 241.284 L 195.469 240.482 195.469 206.337 L 195.469 172.191 196.153 171.825 C 196.657 171.556,204.237 171.522,224.904 171.698 C 253.207 171.938,254.915 171.900,255.815 171.000 C 256.676 170.138,256.551 135.917,255.684 135.132 C 255.096 134.600,253.268 134.568,225.916 134.611 C 205.599 134.642,196.577 134.551,196.122 134.307 C 195.217 133.823,195.079 100.866,195.981 100.520 C 196.263 100.412,214.075 100.324,235.563 100.324 C 268.818 100.324,274.727 100.255,275.262 99.864 C 276.201 99.176,276.249 64.460,275.312 63.523 C 274.608 62.819,281.445 62.864,209.839 63.090 M274.369 64.466 C 274.929 65.026,274.929 98.404,274.369 98.964 C 274.071 99.262,264.794 99.353,234.581 99.353 L 195.182 99.353 194.679 100.072 C 194.238 100.700,194.175 102.899,194.175 117.476 C 194.175 132.053,194.238 134.251,194.679 134.879 L 195.182 135.599 224.473 135.599 C 244.045 135.599,253.972 135.710,254.390 135.934 C 255.272 136.406,255.384 170.016,254.504 170.354 C 254.223 170.462,240.825 170.550,224.731 170.550 C 195.901 170.550,195.460 170.560,194.822 171.197 C 194.183 171.836,194.175 172.276,194.175 205.922 C 194.175 231.996,194.084 240.091,193.786 240.388 C 193.225 240.949,154.024 240.949,153.463 240.388 C 152.791 239.716,152.910 65.259,153.583 64.586 C 154.255 63.914,273.698 63.795,274.369 64.466 M42.425 212.136 C 42.317 243.419,42.062 253.917,41.726 240.939 C 41.636 237.477,41.628 237.441,41.424 239.644 C 41.309 240.890,41.184 241.764,41.147 241.586 C 41.041 241.077,40.129 242.449,40.129 243.117 C 40.129 243.447,39.838 244.029,39.482 244.411 C 39.126 244.793,38.823 245.406,38.809 245.773 C 38.791 246.246,38.730 246.299,38.599 245.955 C 38.182 244.856,37.276 243.980,37.000 244.407 C 36.838 244.657,36.658 243.859,36.547 242.395 C 36.374 240.120,36.359 240.199,36.304 243.662 C 36.272 245.694,36.151 247.262,36.035 247.146 C 35.919 247.030,35.725 237.504,35.603 225.976 L 35.381 205.016 35.457 228.964 C 35.540 255.430,35.529 254.774,35.854 254.573 C 35.980 254.495,36.100 255.254,36.120 256.260 C 36.139 257.267,36.226 258.528,36.313 259.061 C 36.677 261.298,36.983 262.477,37.239 262.635 C 37.389 262.728,37.430 263.018,37.330 263.279 C 37.230 263.540,37.304 263.754,37.496 263.754 C 37.687 263.754,37.760 263.972,37.657 264.239 C 37.555 264.506,37.641 264.725,37.849 264.725 C 38.056 264.725,38.145 264.855,38.047 265.014 C 37.827 265.371,38.440 267.144,39.767 269.981 C 40.322 271.169,40.777 272.239,40.777 272.358 C 40.777 273.503,48.681 283.972,49.270 283.608 C 49.459 283.491,49.526 283.539,49.417 283.714 C 49.241 283.999,51.330 286.226,52.839 287.362 C 53.329 287.731,53.386 287.722,53.225 287.304 C 53.121 287.034,52.718 286.659,52.327 286.471 C 51.937 286.282,51.809 286.118,52.042 286.106 C 52.275 286.094,52.363 285.919,52.238 285.717 C 52.113 285.515,52.477 285.694,53.047 286.115 C 53.702 286.599,54.029 287.082,53.938 287.431 C 53.799 287.962,54.661 288.975,55.663 289.458 C 55.930 289.587,55.858 289.452,55.502 289.160 C 55.146 288.867,54.891 288.492,54.935 288.327 C 54.980 288.161,54.802 288.026,54.541 288.026 C 54.251 288.026,54.138 287.836,54.252 287.540 C 54.460 286.999,55.663 286.867,55.663 287.386 C 55.663 288.002,57.212 286.707,57.713 285.674 C 58.206 284.655,58.200 284.638,56.922 283.385 C 56.214 282.690,55.724 282.032,55.835 281.921 C 55.945 281.811,56.174 281.968,56.344 282.271 C 56.515 282.578,56.864 282.740,57.132 282.637 C 57.461 282.510,57.554 282.604,57.428 282.932 C 57.299 283.268,57.518 283.464,58.153 283.583 C 59.010 283.744,58.979 283.683,57.624 282.511 C 56.834 281.827,56.033 281.355,55.845 281.462 C 55.656 281.570,55.607 281.540,55.737 281.397 C 55.866 281.254,55.210 280.313,54.280 279.304 C 48.677 273.230,43.183 262.462,43.343 257.869 C 43.359 257.391,43.239 256.918,43.076 256.817 C 42.913 256.716,42.855 256.343,42.948 255.987 C 43.041 255.631,42.991 255.340,42.837 255.340 C 42.681 255.340,42.594 244.150,42.641 230.016 C 42.688 216.088,42.686 198.212,42.638 190.291 C 42.589 182.371,42.493 192.201,42.425 212.136 M364.595 187.131 C 364.445 190.821,364.215 193.774,364.084 193.693 C 363.952 193.612,363.751 194.436,363.637 195.526 C 363.524 196.615,363.299 197.667,363.138 197.863 C 362.977 198.060,362.795 198.568,362.733 198.994 C 362.646 199.600,362.391 199.792,361.561 199.882 C 360.302 200.018,360.051 199.559,359.649 196.389 L 359.389 194.337 359.151 197.573 C 359.021 199.353,358.785 212.896,358.628 227.670 C 358.438 245.439,358.222 254.896,357.988 255.610 C 357.794 256.203,357.602 257.413,357.561 258.297 C 357.521 259.181,357.378 259.972,357.245 260.055 C 356.983 260.217,356.144 263.652,356.203 264.320 C 356.223 264.543,356.101 264.725,355.932 264.725 C 355.763 264.725,355.708 264.858,355.808 265.021 C 355.909 265.184,355.838 265.368,355.651 265.430 C 355.464 265.493,355.287 265.869,355.257 266.267 C 355.227 266.665,355.079 266.990,354.928 266.990 C 354.778 266.990,354.737 267.123,354.837 267.286 C 354.938 267.449,354.899 267.631,354.752 267.691 C 354.604 267.751,353.966 268.780,353.334 269.978 C 352.702 271.176,352.312 272.078,352.468 271.981 C 353.096 271.593,352.698 272.279,351.956 272.862 C 351.496 273.224,351.239 273.686,351.344 273.960 C 351.444 274.221,351.364 274.434,351.167 274.434 C 350.970 274.434,350.811 274.689,350.814 275.000 C 350.818 275.484,350.865 275.496,351.133 275.081 C 351.321 274.789,351.448 274.749,351.451 274.981 C 351.460 275.647,350.863 275.767,350.515 275.169 C 350.196 274.621,350.181 274.621,350.172 275.172 C 350.166 275.489,349.944 275.832,349.678 275.934 C 349.412 276.036,349.275 276.250,349.374 276.409 C 349.472 276.569,349.390 276.699,349.191 276.699 C 348.992 276.699,348.906 276.823,349.000 276.975 C 349.094 277.127,348.803 277.419,348.353 277.624 C 347.841 277.858,347.623 278.147,347.768 278.399 C 347.896 278.621,347.876 278.690,347.724 278.552 C 347.367 278.227,343.980 281.562,344.240 281.982 C 344.351 282.162,344.271 282.198,344.055 282.065 C 343.830 281.926,343.229 282.273,342.596 282.905 C 342.004 283.497,341.132 284.190,340.657 284.444 C 340.017 284.786,339.900 284.980,340.204 285.192 C 340.479 285.384,340.398 285.419,339.962 285.298 C 339.532 285.179,339.007 285.398,338.425 285.938 C 337.938 286.389,337.540 286.667,337.540 286.556 C 337.540 286.297,335.189 287.721,334.876 288.171 C 334.745 288.358,334.636 288.407,334.633 288.280 C 334.630 288.153,333.936 288.347,333.091 288.711 C 330.679 289.749,325.957 291.262,325.130 291.262 C 324.717 291.262,324.280 291.362,324.157 291.484 C 323.632 292.010,308.723 292.492,289.806 292.595 C 282.330 292.635,277.160 292.764,278.317 292.880 C 280.065 293.056,279.655 293.110,275.890 293.196 C 271.413 293.298,271.392 293.302,274.137 293.523 C 277.083 293.760,277.670 293.947,277.670 294.652 C 277.670 294.894,277.841 295.149,278.051 295.219 C 278.260 295.289,277.895 295.677,277.240 296.082 C 276.584 296.488,276.118 296.933,276.205 297.073 C 276.291 297.213,275.770 297.407,275.047 297.504 C 272.030 297.909,273.311 298.670,277.184 298.774 C 278.786 298.817,276.092 298.932,271.197 299.029 C 266.025 299.132,274.430 299.239,291.262 299.284 C 320.907 299.363,326.214 299.164,326.214 297.974 C 326.214 297.821,326.352 297.782,326.521 297.887 C 326.913 298.129,332.097 296.680,334.179 295.746 C 335.049 295.356,335.875 295.025,336.015 295.010 C 336.412 294.969,336.869 294.081,336.686 293.705 C 336.596 293.518,336.751 293.648,337.031 293.994 C 337.478 294.545,337.540 294.555,337.540 294.075 C 337.540 293.748,337.795 293.528,338.172 293.528 C 339.136 293.528,340.453 292.832,340.453 292.323 C 340.453 292.073,340.708 291.908,341.019 291.955 C 341.857 292.083,343.042 291.324,343.042 290.660 C 343.042 290.341,343.443 289.730,343.932 289.301 C 344.422 288.872,344.651 288.719,344.443 288.960 C 344.022 289.447,344.234 290.393,344.699 290.105 C 344.862 290.005,344.911 289.787,344.808 289.622 C 344.706 289.456,344.899 289.320,345.238 289.320 C 345.987 289.320,346.873 288.399,347.014 287.474 C 347.133 286.691,347.828 285.761,348.294 285.761 C 348.470 285.761,348.516 286.012,348.399 286.319 C 348.241 286.729,348.402 286.674,349.001 286.110 C 349.451 285.688,349.741 285.218,349.647 285.066 C 349.437 284.725,349.161 284.700,349.272 285.032 C 349.316 285.166,349.244 285.311,349.110 285.356 C 348.585 285.531,349.014 284.896,350.194 283.750 C 350.875 283.089,351.518 282.685,351.621 282.853 C 351.735 283.037,352.053 283.006,352.421 282.776 C 352.757 282.567,352.956 282.271,352.863 282.120 C 352.770 281.969,352.488 282.016,352.237 282.225 C 351.506 282.830,351.731 282.127,352.605 281.068 C 353.214 280.331,353.472 280.200,353.679 280.526 C 353.897 280.869,354.065 280.840,354.523 280.382 C 355.070 279.835,355.069 279.799,354.489 279.572 C 354.156 279.441,354.066 279.323,354.288 279.311 C 354.511 279.298,354.662 279.179,354.624 279.045 C 354.523 278.689,355.446 277.346,355.791 277.346 C 355.954 277.346,355.831 277.629,355.519 277.975 C 355.206 278.320,355.026 278.794,355.119 279.027 C 355.232 279.309,355.297 279.268,355.314 278.902 C 355.328 278.600,355.663 278.127,356.059 277.850 C 356.455 277.573,356.600 277.346,356.383 277.346 C 356.165 277.346,355.987 277.199,355.987 277.018 C 355.987 276.382,357.450 274.442,357.929 274.443 C 358.360 274.443,358.360 274.478,357.929 274.757 C 357.504 275.032,357.507 275.072,357.958 275.076 C 358.579 275.082,359.458 273.379,358.926 273.202 C 358.733 273.138,358.578 272.843,358.581 272.546 C 358.585 272.079,358.628 272.072,358.900 272.492 C 359.216 272.982,359.403 272.571,359.248 271.724 C 359.220 271.569,359.421 271.528,359.696 271.633 C 360.053 271.770,360.193 271.621,360.189 271.106 C 360.185 270.524,360.125 270.480,359.871 270.874 C 359.651 271.213,359.555 271.235,359.552 270.945 C 359.549 270.716,359.765 270.446,360.031 270.344 C 360.296 270.242,360.435 270.030,360.337 269.873 C 360.240 269.715,360.410 269.683,360.716 269.800 C 361.073 269.937,361.194 269.887,361.054 269.662 C 360.935 269.469,361.020 269.237,361.244 269.147 C 361.567 269.017,361.567 268.978,361.246 268.958 C 360.598 268.917,360.780 268.024,361.482 267.801 C 361.834 267.690,362.095 267.498,362.061 267.375 C 362.026 267.252,362.180 266.824,362.402 266.424 C 362.753 265.791,362.730 265.693,362.228 265.675 C 361.772 265.659,361.804 265.593,362.379 265.362 C 362.779 265.201,363.107 264.910,363.107 264.716 C 363.107 264.522,362.925 264.470,362.702 264.600 C 362.480 264.730,362.575 264.520,362.914 264.133 C 363.253 263.747,363.418 263.430,363.279 263.430 C 363.141 263.430,363.174 263.248,363.353 263.026 C 363.927 262.314,364.219 260.395,363.708 260.695 C 363.456 260.843,363.500 260.688,363.812 260.331 C 364.111 259.989,364.384 259.563,364.419 259.385 C 364.455 259.207,364.529 258.916,364.585 258.738 C 365.222 256.706,365.518 221.956,365.116 196.278 C 364.872 180.659,364.864 180.521,364.595 187.131 M35.976 250.433 C 36.005 251.175,35.932 251.878,35.814 251.997 C 35.695 252.115,35.599 251.435,35.599 250.485 C 35.599 248.481,35.898 248.439,35.976 250.433 M347.735 279.358 C 346.844 279.872,346.280 280.466,346.456 280.706 C 346.536 280.816,346.505 280.833,346.385 280.744 C 346.266 280.654,345.866 280.833,345.496 281.140 C 345.125 281.447,345.398 281.084,346.101 280.332 C 346.805 279.580,347.606 278.969,347.881 278.974 C 348.253 278.982,348.215 279.080,347.735 279.358 M350.550 283.912 L 349.854 284.653 350.574 284.688 C 350.970 284.708,351.104 284.651,350.870 284.561 C 350.541 284.435,350.571 284.261,351.001 283.785 C 351.795 282.908,351.385 283.024,350.550 283.912 M50.377 284.035 C 50.086 284.326,51.143 285.468,51.500 285.248 C 51.654 285.153,51.780 285.329,51.780 285.640 C 51.780 286.098,51.598 286.031,50.821 285.286 C 49.981 284.482,49.790 283.819,50.397 283.819 C 50.505 283.819,50.496 283.916,50.377 284.035 M345.793 288.026 C 345.683 288.204,345.784 288.352,346.016 288.354 C 346.333 288.358,346.321 288.435,345.970 288.657 C 345.321 289.068,344.869 288.716,345.331 288.159 C 345.765 287.636,346.092 287.542,345.793 288.026 M119.094 292.557 C 125.235 292.653,128.439 292.775,126.214 292.828 C 123.909 292.884,122.440 293.032,122.800 293.173 C 123.507 293.449,122.246 293.809,120.267 293.895 C 119.376 293.934,119.352 293.957,120.065 294.093 C 120.831 294.238,120.814 294.266,119.741 294.615 C 118.947 294.874,118.608 295.177,118.608 295.631 C 118.608 296.409,118.138 296.961,117.291 297.177 C 116.691 297.330,116.692 297.338,117.314 297.396 L 117.961 297.456 117.314 297.735 C 116.772 297.968,116.837 298.016,117.718 298.036 C 118.297 298.048,118.770 298.196,118.770 298.364 C 118.770 298.909,127.047 299.058,161.650 299.135 C 180.340 299.177,191.772 299.130,187.055 299.031 C 182.338 298.932,179.672 298.818,181.130 298.778 C 183.575 298.711,184.724 298.346,183.740 297.950 C 183.457 297.836,183.481 297.774,183.819 297.749 C 184.127 297.725,184.009 297.543,183.495 297.249 C 183.050 296.995,182.860 296.782,183.072 296.775 C 183.285 296.769,183.401 296.466,183.330 296.101 C 183.055 294.670,184.435 294.032,188.835 293.554 C 190.915 293.329,190.730 293.300,186.570 293.199 C 182.827 293.109,182.433 293.057,184.304 292.904 C 187.531 292.640,145.891 292.219,125.270 292.308 C 108.377 292.380,108.217 292.387,119.094 292.557 " stroke="none" fill="#07663e" fill-rule="evenodd"></path></g></svg>