<svg id="svg" version="1.1" xmlns="http://www.w3.org/2000/svg" xmlns:xlink="http://www.w3.org/1999/xlink" width="400" height="400" viewBox="0, 0, 400,400"><g id="svgg"><path id="path0" d="M168.733 0.374 C 168.660 0.579,167.160 0.788,165.400 0.837 C 163.030 0.903,162.070 1.092,161.699 1.563 C 161.251 2.133,161.224 2.126,161.444 1.495 C 161.631 0.957,161.531 0.851,161.022 1.047 C 160.654 1.188,160.440 1.528,160.545 1.802 C 160.651 2.076,160.526 2.295,160.268 2.287 C 156.287 2.174,153.582 2.475,152.954 3.100 C 152.283 3.768,152.293 3.806,153.180 3.935 C 153.691 4.009,154.220 3.906,154.355 3.706 C 154.791 3.058,155.966 2.822,156.287 3.317 C 156.593 3.789,156.909 49.001,157.505 177.197 L 157.800 240.594 221.525 176.876 C 261.648 136.758,285.500 113.190,285.925 113.245 C 286.348 113.299,296.928 102.983,314.212 85.666 C 329.398 70.450,342.123 58.000,342.488 58.000 C 342.854 58.000,343.281 57.792,343.438 57.538 C 343.615 57.252,343.548 57.185,343.262 57.362 C 342.973 57.540,342.800 57.356,342.800 56.870 C 342.800 56.016,341.006 54.625,340.393 55.004 C 340.180 55.136,340.114 54.968,340.245 54.626 C 340.404 54.212,340.141 53.882,339.441 53.615 C 338.868 53.398,338.400 52.945,338.400 52.610 C 338.400 52.274,338.265 52.021,338.100 52.047 C 337.216 52.187,336.800 51.916,336.800 51.200 C 336.800 50.667,336.533 50.400,336.000 50.400 C 335.284 50.400,335.013 49.984,335.153 49.100 C 335.179 48.935,335.065 48.821,334.900 48.847 C 333.813 49.019,333.177 48.725,333.282 48.100 C 333.363 47.623,333.177 47.437,332.700 47.518 C 332.315 47.582,331.978 47.447,331.950 47.218 C 331.923 46.988,331.878 46.575,331.850 46.300 C 331.822 46.025,331.590 45.800,331.334 45.800 C 331.077 45.800,330.516 45.395,330.087 44.900 C 329.657 44.405,329.012 44.000,328.653 44.000 C 328.294 44.000,328.045 43.775,328.100 43.500 C 328.155 43.225,327.975 43.045,327.700 43.100 C 327.425 43.155,327.200 43.020,327.200 42.800 C 327.200 42.580,326.840 42.400,326.400 42.400 C 325.684 42.400,325.413 41.984,325.553 41.100 C 325.579 40.935,325.465 40.821,325.300 40.847 C 324.470 40.978,324.000 40.740,324.000 40.187 C 324.000 39.851,323.685 39.458,323.300 39.315 C 322.915 39.172,322.309 38.728,321.953 38.328 C 321.597 37.927,321.130 37.600,320.915 37.600 C 320.700 37.600,320.205 37.247,319.814 36.816 C 319.424 36.385,318.991 36.046,318.852 36.063 C 318.042 36.164,317.600 35.927,317.600 35.390 C 317.600 35.055,317.169 34.616,316.642 34.416 C 316.115 34.216,315.617 33.850,315.535 33.604 C 315.398 33.194,314.573 32.909,313.300 32.831 C 313.025 32.814,312.800 32.526,312.800 32.190 C 312.800 31.855,312.369 31.416,311.842 31.216 C 311.315 31.016,310.815 30.646,310.731 30.394 C 310.647 30.142,309.953 29.808,309.189 29.651 C 308.368 29.483,307.800 29.129,307.800 28.784 C 307.800 28.211,307.650 28.151,305.963 28.050 C 305.488 28.022,305.034 27.653,304.916 27.200 C 304.801 26.760,304.434 26.400,304.100 26.400 C 303.767 26.400,303.203 26.076,302.847 25.681 C 302.491 25.286,301.774 24.935,301.253 24.902 C 300.731 24.869,300.046 24.473,299.730 24.021 C 299.414 23.570,298.737 23.200,298.226 23.200 C 297.251 23.200,296.220 22.314,296.670 21.863 C 296.896 21.637,295.660 21.451,294.153 21.484 C 293.908 21.489,293.728 21.202,293.753 20.847 C 293.783 20.429,293.424 20.157,292.742 20.077 C 292.159 20.010,291.367 19.605,290.980 19.177 C 290.593 18.750,289.876 18.400,289.387 18.400 C 288.898 18.400,288.276 18.132,288.004 17.804 C 287.732 17.477,287.350 17.307,287.155 17.428 C 286.960 17.549,286.800 17.457,286.800 17.224 C 286.800 16.991,286.262 16.800,285.603 16.800 C 284.840 16.800,284.226 16.510,283.907 16.000 C 283.580 15.476,282.974 15.200,282.150 15.200 C 281.230 15.200,280.837 14.986,280.684 14.400 C 280.527 13.800,280.138 13.600,279.126 13.600 C 278.273 13.600,277.526 13.306,277.093 12.800 C 276.601 12.225,275.913 12.000,274.651 12.000 C 273.230 12.000,272.853 11.847,272.684 11.200 C 272.510 10.535,272.138 10.400,270.486 10.400 C 268.962 10.400,268.369 10.216,267.949 9.614 C 267.548 9.040,266.850 8.798,265.361 8.716 C 263.842 8.633,263.331 8.452,263.361 8.004 C 263.389 7.571,262.919 7.376,261.667 7.305 C 260.665 7.247,259.502 6.867,258.913 6.403 C 258.212 5.852,257.289 5.600,255.966 5.600 C 254.598 5.600,253.934 5.410,253.673 4.945 C 253.406 4.468,252.558 4.243,250.553 4.117 C 248.982 4.018,247.628 3.723,247.398 3.430 C 246.809 2.677,245.756 2.449,242.344 2.335 C 240.219 2.265,239.343 2.092,239.467 1.769 C 239.566 1.513,239.346 1.188,238.978 1.047 C 238.469 0.851,238.369 0.957,238.556 1.495 C 238.775 2.123,238.748 2.131,238.301 1.568 C 237.946 1.119,236.986 0.908,235.000 0.839 C 233.460 0.787,232.140 0.576,232.067 0.372 C 231.887 -0.130,168.913 -0.128,168.733 0.374 M147.134 4.269 C 145.974 4.577,145.898 5.600,147.036 5.600 C 147.614 5.600,147.940 5.427,147.798 5.197 C 147.661 4.975,147.965 4.626,148.474 4.422 C 149.497 4.012,148.524 3.901,147.134 4.269 M141.810 6.248 C 140.960 7.097,141.388 7.509,142.298 6.716 C 142.684 6.380,143.270 6.005,143.600 5.884 C 144.003 5.735,143.914 5.653,143.329 5.632 C 142.849 5.614,142.166 5.891,141.810 6.248 M136.300 7.632 C 135.915 7.856,135.600 8.211,135.600 8.420 C 135.600 9.077,136.646 8.834,137.400 8.000 C 138.210 7.105,137.571 6.892,136.300 7.632 M131.500 9.232 C 131.115 9.456,130.800 9.811,130.800 10.020 C 130.800 10.677,131.846 10.434,132.600 9.600 C 133.410 8.705,132.771 8.492,131.500 9.232 M127.467 10.667 C 126.783 11.350,127.185 12.137,127.900 11.514 C 128.285 11.179,128.870 10.805,129.200 10.684 C 129.556 10.553,129.379 10.450,128.767 10.432 C 128.198 10.414,127.613 10.520,127.467 10.667 M123.500 12.276 C 122.646 12.499,122.565 13.467,123.400 13.467 C 123.730 13.467,123.913 13.379,123.806 13.273 C 123.700 13.166,123.925 12.842,124.306 12.552 C 125.007 12.020,124.779 11.942,123.500 12.276 M119.467 13.867 C 118.783 14.550,119.185 15.337,119.900 14.714 C 120.285 14.379,120.870 14.005,121.200 13.884 C 121.556 13.753,121.379 13.650,120.767 13.632 C 120.198 13.614,119.613 13.720,119.467 13.867 M115.400 16.000 C 114.749 16.719,114.743 16.800,115.338 16.800 C 115.702 16.800,116.000 16.635,116.000 16.433 C 116.000 16.232,116.495 15.886,117.100 15.665 L 118.200 15.263 117.162 15.232 C 116.591 15.214,115.798 15.560,115.400 16.000 M112.200 17.600 C 111.789 18.054,111.676 18.400,111.938 18.400 C 112.192 18.400,112.760 18.040,113.200 17.600 C 113.740 17.060,113.825 16.800,113.462 16.800 C 113.166 16.800,112.598 17.160,112.200 17.600 M109.100 18.832 C 108.242 19.332,108.185 20.000,109.000 20.000 C 109.330 20.000,109.600 19.814,109.600 19.587 C 109.600 19.360,110.005 19.011,110.500 18.812 C 111.322 18.482,111.330 18.450,110.600 18.438 C 110.160 18.430,109.485 18.608,109.100 18.832 M105.800 20.800 C 105.235 21.424,105.202 21.600,105.649 21.600 C 105.964 21.600,106.530 21.240,106.907 20.800 C 107.414 20.208,107.453 20.000,107.058 20.000 C 106.764 20.000,106.198 20.360,105.800 20.800 M102.620 22.378 C 102.233 22.805,101.532 23.210,101.062 23.278 C 100.593 23.345,100.143 23.743,100.063 24.161 C 99.927 24.876,99.985 24.870,101.013 24.061 C 101.615 23.588,102.264 23.200,102.454 23.200 C 102.644 23.200,103.160 22.840,103.600 22.400 C 104.140 21.860,104.225 21.600,103.862 21.600 C 103.566 21.600,103.007 21.950,102.620 22.378 M97.192 25.410 C 96.369 26.401,97.070 26.560,98.233 25.646 C 99.196 24.888,99.224 24.800,98.503 24.800 C 98.060 24.800,97.470 25.074,97.192 25.410 M94.436 27.164 C 94.016 27.584,93.343 27.991,92.941 28.068 C 92.538 28.146,92.155 28.567,92.090 29.005 C 91.984 29.708,92.019 29.723,92.388 29.131 C 92.617 28.763,93.344 28.344,94.002 28.199 C 94.661 28.055,95.200 27.694,95.200 27.398 C 95.200 27.101,95.515 26.776,95.900 26.676 C 96.567 26.502,96.567 26.491,95.900 26.446 C 95.515 26.421,94.856 26.744,94.436 27.164 M89.900 29.876 C 89.046 30.099,88.965 31.067,89.800 31.067 C 90.130 31.067,90.312 30.978,90.203 30.870 C 90.095 30.762,90.207 30.432,90.452 30.137 C 90.697 29.842,90.831 29.621,90.749 29.646 C 90.667 29.672,90.285 29.775,89.900 29.876 M87.338 31.817 C 86.991 32.721,87.302 32.769,88.100 31.933 C 88.692 31.313,88.706 31.200,88.187 31.200 C 87.851 31.200,87.468 31.478,87.338 31.817 M84.516 33.536 C 84.122 33.941,83.485 34.385,83.100 34.523 C 82.715 34.662,82.421 35.096,82.446 35.487 C 82.487 36.105,82.516 36.112,82.668 35.538 C 82.829 34.932,84.542 34.164,85.330 34.344 C 85.511 34.386,85.552 34.246,85.421 34.034 C 85.290 33.823,85.502 33.464,85.892 33.237 C 86.545 32.856,86.547 32.823,85.916 32.812 C 85.539 32.805,84.909 33.131,84.516 33.536 M80.200 36.800 C 79.802 37.240,79.244 37.600,78.961 37.600 C 78.677 37.600,78.210 37.927,77.923 38.326 C 77.635 38.726,77.085 39.170,76.700 39.314 C 76.315 39.457,76.000 39.851,76.000 40.187 C 76.000 40.737,76.072 40.737,76.700 40.185 C 78.388 38.704,79.949 37.600,80.358 37.600 C 80.601 37.600,80.800 37.343,80.800 37.029 C 80.800 36.715,81.115 36.376,81.500 36.276 C 82.069 36.127,82.080 36.084,81.562 36.046 C 81.211 36.021,80.598 36.360,80.200 36.800 M72.300 42.703 C 71.472 42.887,71.349 44.000,72.157 44.000 C 72.464 44.000,72.828 43.704,72.967 43.343 C 73.268 42.557,73.209 42.501,72.300 42.703 M69.953 44.367 C 69.927 44.495,69.928 44.739,69.956 44.909 C 69.983 45.079,69.555 45.389,69.003 45.599 C 68.451 45.809,68.000 46.255,68.000 46.590 C 68.000 47.104,68.116 47.090,68.734 46.500 C 69.138 46.115,69.858 45.535,70.334 45.212 C 70.810 44.888,71.200 44.513,71.200 44.378 C 71.200 44.066,70.016 44.055,69.953 44.367 M59.200 54.600 C 58.683 55.150,58.022 55.600,57.730 55.600 C 57.439 55.600,57.200 55.804,57.200 56.053 C 57.200 56.302,56.600 57.072,55.866 57.764 C 53.806 59.707,51.875 62.000,52.299 62.000 C 52.822 62.000,55.010 59.871,55.322 59.059 C 55.461 58.697,55.830 58.400,56.141 58.400 C 56.452 58.400,56.801 58.040,56.916 57.600 C 57.031 57.160,57.391 56.800,57.716 56.800 C 58.041 56.800,58.401 56.440,58.516 56.000 C 58.631 55.560,58.969 55.200,59.266 55.200 C 59.564 55.200,60.032 54.840,60.307 54.400 C 61.007 53.279,60.325 53.402,59.200 54.600 M47.316 67.200 C 47.201 67.640,46.853 68.000,46.543 68.000 C 46.234 68.000,45.809 68.451,45.599 69.003 C 45.389 69.555,45.013 69.960,44.762 69.903 C 44.511 69.846,44.253 70.115,44.189 70.500 C 44.028 71.456,44.501 71.379,45.212 70.334 C 45.535 69.858,46.475 68.778,47.300 67.934 C 48.320 66.891,48.596 66.400,48.163 66.400 C 47.812 66.400,47.431 66.760,47.316 67.200 M42.800 71.967 C 42.800 72.169,42.684 72.637,42.542 73.007 C 42.314 73.602,42.382 73.618,43.142 73.143 C 44.129 72.527,44.284 71.600,43.400 71.600 C 43.070 71.600,42.800 71.765,42.800 71.967 M41.500 74.276 C 41.115 74.376,40.800 74.714,40.800 75.025 C 40.800 75.475,40.965 75.451,41.600 74.907 C 42.286 74.319,42.635 73.891,42.300 74.046 C 42.245 74.072,41.885 74.175,41.500 74.276 M39.314 76.700 C 39.170 77.085,38.726 77.635,38.326 77.923 C 37.927 78.210,37.606 78.750,37.613 79.123 C 37.622 79.622,37.882 79.485,38.602 78.600 C 39.139 77.940,39.853 77.085,40.189 76.700 C 40.737 76.072,40.737 76.000,40.187 76.000 C 39.851 76.000,39.457 76.315,39.314 76.700 M36.577 80.967 C 36.150 81.279,35.936 81.669,36.101 81.834 C 36.265 81.999,36.400 81.923,36.400 81.667 C 36.400 81.410,36.670 81.200,37.000 81.200 C 37.330 81.200,37.600 81.020,37.600 80.800 C 37.600 80.276,37.500 80.293,36.577 80.967 M34.538 83.017 C 34.408 83.357,34.413 83.747,34.551 83.884 C 34.688 84.021,34.800 83.847,34.800 83.496 C 34.800 83.145,35.115 82.776,35.500 82.676 C 36.156 82.504,36.155 82.490,35.487 82.446 C 35.096 82.421,34.668 82.678,34.538 83.017 M33.200 84.767 C 33.200 84.969,33.096 85.464,32.970 85.867 C 32.753 86.558,32.765 86.560,33.194 85.892 C 33.445 85.502,33.788 85.269,33.958 85.374 C 34.128 85.479,34.267 85.303,34.267 84.982 C 34.267 84.662,34.027 84.400,33.733 84.400 C 33.440 84.400,33.200 84.565,33.200 84.767 M31.323 87.900 C 31.185 88.285,30.741 88.922,30.336 89.316 C 29.931 89.709,29.605 90.339,29.612 90.716 C 29.623 91.347,29.656 91.345,30.037 90.692 C 30.264 90.302,30.623 90.090,30.834 90.221 C 31.046 90.352,31.186 90.311,31.144 90.130 C 30.964 89.342,31.732 87.629,32.338 87.468 C 32.912 87.316,32.905 87.287,32.287 87.246 C 31.896 87.221,31.462 87.515,31.323 87.900 M28.267 92.267 C 28.120 92.413,28.014 92.908,28.032 93.367 C 28.053 93.939,28.130 94.012,28.278 93.600 C 28.396 93.270,28.776 92.775,29.122 92.500 C 29.676 92.061,29.678 92.000,29.143 92.000 C 28.808 92.000,28.413 92.120,28.267 92.267 M25.280 97.280 C 25.016 97.544,24.800 98.108,24.800 98.534 C 24.800 99.218,24.893 99.190,25.600 98.291 C 26.717 96.871,26.469 96.091,25.280 97.280 M23.338 100.617 C 22.991 101.521,23.302 101.569,24.100 100.733 C 24.692 100.113,24.706 100.000,24.187 100.000 C 23.851 100.000,23.468 100.278,23.338 100.617 M20.690 105.901 C 20.310 106.320,20.014 107.009,20.032 107.431 C 20.055 107.994,20.121 108.039,20.278 107.600 C 20.396 107.270,20.760 106.786,21.088 106.525 C 21.415 106.264,21.615 105.845,21.532 105.595 C 21.437 105.311,21.119 105.427,20.690 105.901 M19.090 109.101 C 18.710 109.520,18.414 110.209,18.432 110.631 C 18.455 111.194,18.521 111.239,18.678 110.800 C 18.796 110.470,19.160 109.986,19.488 109.725 C 19.815 109.464,20.015 109.045,19.932 108.795 C 19.837 108.511,19.519 108.627,19.090 109.101 M17.490 112.301 C 17.110 112.720,16.814 113.409,16.832 113.831 C 16.855 114.394,16.921 114.439,17.078 114.000 C 17.196 113.670,17.560 113.186,17.888 112.925 C 18.215 112.664,18.415 112.245,18.332 111.995 C 18.237 111.711,17.919 111.827,17.490 112.301 M15.350 116.587 C 15.226 116.910,15.217 117.405,15.331 117.687 C 15.444 117.969,15.551 117.808,15.568 117.329 C 15.586 116.850,15.915 116.376,16.300 116.276 C 16.956 116.104,16.955 116.090,16.287 116.046 C 15.896 116.021,15.474 116.264,15.350 116.587 M13.867 119.467 C 13.720 119.613,13.621 120.198,13.646 120.767 C 13.683 121.587,13.731 121.635,13.880 121.000 C 13.983 120.560,14.357 119.975,14.710 119.700 C 15.268 119.266,15.272 119.200,14.743 119.200 C 14.408 119.200,14.013 119.320,13.867 119.467 M12.400 123.167 C 12.400 123.369,12.295 123.864,12.167 124.267 C 11.948 124.957,11.968 124.960,12.507 124.306 C 12.822 123.925,13.166 123.700,13.273 123.806 C 13.379 123.913,13.467 123.730,13.467 123.400 C 13.467 123.070,13.227 122.800,12.933 122.800 C 12.640 122.800,12.400 122.965,12.400 123.167 M10.667 127.467 C 10.520 127.613,10.414 128.198,10.432 128.767 C 10.450 129.379,10.553 129.556,10.684 129.200 C 10.805 128.870,11.179 128.285,11.514 127.900 C 12.137 127.185,11.350 126.783,10.667 127.467 M9.067 132.267 C 8.920 132.413,8.814 132.908,8.832 133.367 C 8.853 133.939,8.930 134.012,9.078 133.600 C 9.196 133.270,9.576 132.775,9.922 132.500 C 10.476 132.061,10.478 132.000,9.943 132.000 C 9.608 132.000,9.213 132.120,9.067 132.267 M7.614 136.374 C 6.940 137.632,7.140 138.060,8.000 137.200 C 8.440 136.760,8.800 136.220,8.800 136.000 C 8.800 135.322,8.051 135.558,7.614 136.374 M6.297 141.650 C 5.886 141.879,5.613 142.484,5.632 143.120 C 5.650 143.740,5.757 143.945,5.884 143.600 C 6.005 143.270,6.380 142.684,6.716 142.298 C 7.459 141.445,7.247 141.118,6.297 141.650 M4.629 147.029 C 4.283 147.374,4.011 148.049,4.025 148.529 C 4.050 149.389,4.056 149.388,4.422 148.474 C 4.626 147.965,4.937 147.638,5.114 147.747 C 5.290 147.855,5.460 147.597,5.492 147.172 C 5.563 146.236,5.441 146.216,4.629 147.029 M3.034 153.563 C 2.575 154.070,2.399 154.773,2.508 155.663 L 2.672 157.000 2.736 155.700 C 2.778 154.840,3.003 154.400,3.400 154.400 C 3.733 154.400,4.000 154.044,4.000 153.600 C 4.000 152.610,3.899 152.606,3.034 153.563 M1.190 160.626 C 0.976 161.190,0.817 162.405,0.838 163.326 L 0.877 165.000 1.338 163.062 C 1.592 161.997,1.896 161.223,2.014 161.343 C 2.132 161.464,2.265 161.121,2.310 160.581 C 2.417 159.292,1.686 159.321,1.190 160.626 M0.000 169.400 C 0.000 169.730,0.180 170.000,0.400 170.000 C 0.620 170.000,0.800 169.730,0.800 169.400 C 0.800 169.070,0.620 168.800,0.400 168.800 C 0.180 168.800,0.000 169.070,0.000 169.400 M0.917 237.346 C 1.127 239.635,1.691 240.842,2.278 240.255 C 2.439 240.095,2.338 239.593,2.055 239.140 C 1.632 238.462,1.635 238.364,2.070 238.588 C 2.382 238.747,2.353 238.641,2.000 238.330 C 1.670 238.038,1.337 237.260,1.261 236.600 C 1.000 234.346,0.702 234.994,0.917 237.346 M2.454 244.638 C 2.420 245.421,2.694 246.142,3.200 246.600 C 3.975 247.302,4.000 247.299,4.000 246.505 C 4.000 246.054,3.744 245.587,3.431 245.467 C 3.118 245.347,2.783 244.833,2.685 244.324 C 2.545 243.591,2.498 243.656,2.454 244.638 M4.025 251.471 C 4.011 251.951,4.283 252.626,4.629 252.971 C 5.441 253.784,5.563 253.764,5.492 252.828 C 5.460 252.403,5.290 252.145,5.114 252.253 C 4.937 252.362,4.626 252.035,4.422 251.526 C 4.056 250.612,4.050 250.611,4.025 251.471 M5.600 256.917 C 5.600 257.602,6.775 258.958,7.093 258.640 C 7.202 258.531,6.911 257.958,6.446 257.367 C 5.870 256.636,5.600 256.492,5.600 256.917 M7.200 262.364 C 7.200 263.099,7.976 264.400,8.414 264.400 C 9.077 264.400,8.837 263.357,8.000 262.600 C 7.499 262.147,7.200 262.058,7.200 262.364 M8.800 267.338 C 8.800 267.634,9.160 268.202,9.600 268.600 C 10.054 269.011,10.400 269.124,10.400 268.862 C 10.400 268.608,10.040 268.040,9.600 267.600 C 9.060 267.060,8.800 266.975,8.800 267.338 M10.513 271.397 C 10.574 272.237,10.838 272.638,11.400 272.743 C 12.147 272.883,12.157 272.844,11.552 272.146 C 11.196 271.736,10.797 271.130,10.665 270.800 C 10.533 270.470,10.465 270.738,10.513 271.397 M12.167 275.733 C 12.295 276.136,12.400 276.631,12.400 276.833 C 12.400 277.035,12.640 277.200,12.933 277.200 C 13.227 277.200,13.467 276.930,13.467 276.600 C 13.467 276.270,13.379 276.087,13.273 276.194 C 13.166 276.300,12.822 276.075,12.507 275.694 C 11.968 275.040,11.948 275.043,12.167 275.733 M13.713 279.397 C 13.774 280.237,14.038 280.638,14.600 280.743 C 15.347 280.883,15.357 280.844,14.752 280.146 C 14.396 279.736,13.997 279.130,13.865 278.800 C 13.733 278.470,13.665 278.738,13.713 279.397 M15.310 282.796 C 15.368 283.438,15.684 283.842,16.200 283.932 C 16.924 284.059,16.938 284.021,16.346 283.536 C 15.986 283.241,15.586 282.730,15.457 282.400 C 15.327 282.070,15.261 282.248,15.310 282.796 M16.800 286.538 C 16.800 286.834,17.160 287.402,17.600 287.800 C 18.054 288.211,18.400 288.324,18.400 288.062 C 18.400 287.808,18.040 287.240,17.600 286.800 C 17.060 286.260,16.800 286.175,16.800 286.538 M85.200 314.600 C 56.509 343.293,56.297 343.481,55.322 340.941 C 55.005 340.116,52.819 338.000,52.283 338.000 C 51.775 338.000,56.030 342.556,56.700 342.729 C 56.975 342.800,57.200 343.038,57.200 343.258 C 57.200 343.477,57.470 343.387,57.800 343.057 C 58.130 342.727,58.400 342.310,58.400 342.130 C 58.400 341.950,70.595 329.607,85.499 314.701 C 100.403 299.795,112.508 287.600,112.398 287.600 C 112.288 287.600,100.049 299.750,85.200 314.600 M18.425 289.438 C 18.411 289.899,18.760 290.602,19.200 291.000 C 19.919 291.651,20.000 291.657,20.000 291.062 C 20.000 290.698,19.814 290.400,19.587 290.400 C 19.360 290.400,19.011 289.995,18.812 289.500 C 18.463 288.631,18.450 288.629,18.425 289.438 M20.046 292.653 C 20.017 293.194,20.293 293.583,20.800 293.716 C 21.240 293.831,21.600 293.762,21.600 293.563 C 21.600 293.363,21.343 293.200,21.029 293.200 C 20.715 293.200,20.376 292.885,20.276 292.500 C 20.131 291.945,20.083 291.977,20.046 292.653 M23.200 298.768 C 23.200 299.240,23.478 299.732,23.817 299.862 C 24.761 300.224,24.809 299.896,23.966 298.856 C 23.210 297.924,23.200 297.923,23.200 298.768 M24.917 301.400 C 25.070 302.552,25.590 303.253,26.070 302.957 C 26.323 302.800,26.338 302.602,26.109 302.450 C 25.901 302.313,25.524 301.840,25.271 301.400 L 24.810 300.600 24.917 301.400 M27.297 305.500 C 27.638 305.885,27.983 306.558,28.063 306.995 C 28.144 307.433,28.526 307.820,28.912 307.855 C 29.329 307.892,29.384 307.845,29.048 307.738 C 28.736 307.638,28.365 306.937,28.222 306.178 C 28.055 305.285,27.737 304.800,27.320 304.800 C 26.737 304.800,26.735 304.866,27.297 305.500 M29.884 310.000 C 29.999 310.440,30.342 310.800,30.647 310.800 C 31.408 310.800,31.346 309.742,30.567 309.443 C 29.669 309.098,29.652 309.112,29.884 310.000 M31.200 311.813 C 31.200 312.149,31.478 312.532,31.817 312.662 C 32.721 313.009,32.769 312.698,31.933 311.900 C 31.313 311.308,31.200 311.294,31.200 311.813 M33.078 314.777 C 33.325 315.723,34.267 315.899,34.267 315.000 C 34.267 314.670,34.178 314.488,34.070 314.597 C 33.962 314.705,33.646 314.604,33.368 314.374 C 32.982 314.053,32.913 314.147,33.078 314.777 M34.528 316.595 C 34.575 317.062,34.938 317.425,35.405 317.472 C 35.981 317.532,36.014 317.499,35.525 317.352 C 35.153 317.242,34.758 316.847,34.648 316.475 C 34.501 315.986,34.468 316.019,34.528 316.595 M37.613 320.877 C 37.606 321.250,37.927 321.790,38.326 322.077 C 38.726 322.365,39.170 322.915,39.314 323.300 C 39.457 323.685,39.851 324.000,40.187 324.000 C 40.737 324.000,40.737 323.928,40.189 323.300 C 39.853 322.915,39.139 322.060,38.602 321.400 C 37.882 320.515,37.622 320.378,37.613 320.877 M42.684 327.600 C 42.799 328.040,43.142 328.400,43.447 328.400 C 44.208 328.400,44.146 327.342,43.367 327.043 C 42.469 326.698,42.452 326.712,42.684 327.600 M44.189 329.500 C 44.253 329.885,44.511 330.154,44.762 330.097 C 45.013 330.040,45.389 330.445,45.599 330.997 C 45.809 331.549,46.255 332.000,46.590 332.000 C 47.104 332.000,47.090 331.884,46.500 331.266 C 46.115 330.862,45.535 330.142,45.212 329.666 C 44.501 328.621,44.028 328.544,44.189 329.500 " stroke="none" fill="#04f4d4" fill-rule="evenodd"></path><path id="path1" d="M155.200 3.110 C 154.870 3.225,154.506 3.462,154.391 3.636 C 154.277 3.809,153.096 3.991,151.768 4.039 C 149.105 4.135,147.429 4.600,147.768 5.149 C 147.889 5.345,146.918 5.582,145.609 5.677 C 144.205 5.778,142.937 6.112,142.515 6.490 C 142.122 6.843,140.990 7.177,140.000 7.234 C 138.991 7.292,137.848 7.644,137.400 8.034 C 136.960 8.418,135.880 8.780,135.000 8.839 C 134.120 8.897,133.040 9.249,132.600 9.620 C 132.160 9.991,131.103 10.400,130.250 10.530 C 129.398 10.660,128.408 11.029,128.050 11.351 C 127.693 11.673,126.860 12.012,126.200 12.105 C 124.453 12.350,123.568 12.819,123.866 13.342 C 124.010 13.594,123.997 13.683,123.837 13.540 C 123.465 13.207,120.787 13.926,120.000 14.571 C 119.670 14.841,118.635 15.280,117.700 15.547 C 116.765 15.814,116.000 16.205,116.000 16.416 C 116.000 16.627,115.550 16.800,115.000 16.800 C 114.450 16.800,113.658 17.142,113.241 17.559 C 112.823 17.977,111.911 18.444,111.214 18.597 C 110.516 18.750,109.849 19.128,109.730 19.438 C 109.612 19.747,109.082 20.000,108.553 20.000 C 108.025 20.000,107.284 20.360,106.907 20.800 C 106.530 21.240,105.812 21.600,105.311 21.600 C 104.810 21.600,104.083 21.915,103.695 22.300 C 103.306 22.685,102.541 23.224,101.995 23.497 C 100.891 24.049,99.925 24.622,98.340 25.666 C 97.757 26.050,96.812 26.482,96.240 26.626 C 95.668 26.769,95.200 27.123,95.200 27.412 C 95.200 27.700,94.648 28.058,93.973 28.206 C 93.298 28.354,92.649 28.728,92.530 29.038 C 92.412 29.347,91.996 29.600,91.606 29.600 C 90.839 29.600,89.884 30.510,90.203 30.937 C 90.312 31.082,90.287 31.117,90.149 31.016 C 89.828 30.780,87.600 31.922,87.600 32.323 C 87.600 32.489,87.044 32.835,86.363 33.091 C 85.652 33.360,85.240 33.741,85.393 33.989 C 85.540 34.226,85.511 34.386,85.330 34.344 C 84.564 34.169,82.800 34.930,82.800 35.436 C 82.800 35.738,82.350 36.098,81.800 36.236 C 81.250 36.374,80.800 36.737,80.800 37.043 C 80.800 37.350,80.601 37.600,80.358 37.600 C 79.949 37.600,78.388 38.704,76.700 40.185 C 76.315 40.523,75.822 40.800,75.603 40.800 C 75.385 40.800,74.982 41.160,74.707 41.600 C 74.432 42.040,73.993 42.400,73.731 42.400 C 73.468 42.400,73.140 42.760,73.000 43.200 C 72.860 43.640,72.482 44.000,72.159 44.000 C 71.836 44.000,71.173 44.360,70.686 44.801 C 70.199 45.241,68.924 46.366,67.853 47.301 C 66.783 48.235,64.481 50.378,62.740 52.062 C 60.998 53.747,59.309 55.226,58.986 55.350 C 58.664 55.474,58.400 55.851,58.400 56.187 C 58.400 56.524,58.113 56.800,57.763 56.800 C 57.412 56.800,57.031 57.160,56.916 57.600 C 56.801 58.040,56.452 58.400,56.141 58.400 C 55.830 58.400,55.461 58.697,55.322 59.059 C 55.023 59.838,52.831 62.000,52.341 62.000 C 52.153 62.000,52.000 62.206,52.000 62.459 C 52.000 62.711,51.371 63.566,50.603 64.359 C 49.384 65.616,47.754 67.391,44.795 70.686 C 44.358 71.173,44.000 71.743,44.000 71.953 C 44.000 72.163,43.325 73.055,42.500 73.936 C 41.675 74.817,40.683 75.957,40.296 76.469 C 39.910 76.981,39.145 77.966,38.596 78.658 C 38.048 79.350,37.600 80.205,37.600 80.558 C 37.600 80.911,37.342 81.200,37.027 81.200 C 36.712 81.200,36.340 81.560,36.200 82.000 C 36.060 82.440,35.708 82.800,35.416 82.800 C 34.926 82.800,34.172 84.578,34.344 85.330 C 34.386 85.511,34.226 85.540,33.989 85.393 C 33.741 85.240,33.360 85.652,33.091 86.363 C 32.835 87.044,32.414 87.600,32.156 87.600 C 31.711 87.600,30.982 89.423,31.144 90.130 C 31.186 90.311,31.036 90.346,30.812 90.207 C 30.587 90.068,30.181 90.460,29.910 91.077 C 29.639 91.695,29.202 92.336,28.940 92.502 C 28.677 92.669,28.344 93.343,28.200 94.000 C 28.056 94.657,27.709 95.331,27.429 95.498 C 26.963 95.775,26.615 96.332,25.120 99.195 C 24.834 99.741,24.285 100.506,23.900 100.895 C 23.515 101.283,23.200 101.932,23.200 102.338 C 23.200 102.744,22.840 103.402,22.400 103.800 C 21.960 104.198,21.600 104.927,21.600 105.419 C 21.600 105.912,21.340 106.414,21.022 106.536 C 20.704 106.658,20.327 107.385,20.183 108.151 C 20.039 108.918,19.679 109.638,19.383 109.751 C 19.087 109.865,18.727 110.585,18.583 111.351 C 18.439 112.118,18.072 112.840,17.768 112.957 C 17.463 113.074,17.098 113.896,16.956 114.785 C 16.810 115.699,16.475 116.400,16.184 116.400 C 15.898 116.400,15.553 117.096,15.405 117.969 C 15.260 118.831,14.902 119.629,14.610 119.741 C 14.132 119.924,13.325 122.917,13.535 123.730 C 13.582 123.911,13.454 123.957,13.252 123.832 C 12.813 123.561,12.337 124.544,12.105 126.200 C 12.012 126.860,11.665 127.701,11.334 128.069 C 11.003 128.437,10.628 129.517,10.502 130.469 C 10.375 131.421,10.018 132.386,9.709 132.614 C 9.400 132.842,9.042 133.814,8.913 134.775 C 8.784 135.736,8.381 136.819,8.018 137.182 C 7.622 137.578,7.317 138.631,7.256 139.815 C 7.199 140.901,6.915 142.061,6.624 142.394 C 5.937 143.180,5.649 144.210,5.537 146.276 C 5.487 147.198,5.300 147.862,5.120 147.751 C 4.511 147.374,4.076 149.193,4.031 152.300 C 4.009 153.792,3.842 154.400,3.454 154.400 C 2.905 154.400,2.400 156.781,2.400 159.376 C 2.400 160.071,2.239 160.811,2.043 161.020 C 1.492 161.606,0.800 165.393,0.800 167.820 C 0.800 169.019,0.620 170.000,0.400 170.000 C 0.137 170.000,0.000 180.333,0.000 200.200 C 0.000 216.810,0.154 230.400,0.343 230.400 C 0.531 230.400,0.784 231.795,0.904 233.500 C 1.172 237.320,1.250 237.665,2.000 238.328 C 2.533 238.800,2.533 238.825,2.000 238.553 C 1.524 238.310,1.492 238.365,1.848 238.823 C 2.094 239.140,2.391 240.649,2.508 242.176 C 2.649 244.019,2.927 245.104,3.336 245.403 C 3.753 245.707,3.981 246.632,4.039 248.250 C 4.133 250.856,4.600 252.571,5.126 252.246 C 5.309 252.133,5.497 252.976,5.544 254.120 C 5.596 255.406,5.915 256.596,6.379 257.236 C 6.792 257.806,7.176 259.066,7.233 260.036 C 7.290 261.006,7.648 262.160,8.028 262.600 C 8.408 263.040,8.803 264.285,8.906 265.366 C 9.009 266.448,9.357 267.528,9.680 267.766 C 10.003 268.005,10.379 268.897,10.517 269.750 C 10.654 270.602,11.029 271.592,11.351 271.950 C 11.673 272.307,12.012 273.140,12.105 273.800 C 12.350 275.547,12.819 276.432,13.342 276.134 C 13.594 275.990,13.683 276.003,13.540 276.163 C 13.197 276.546,13.937 279.234,14.595 280.000 C 14.879 280.330,15.238 281.197,15.393 281.927 C 15.548 282.657,15.928 283.351,16.238 283.470 C 16.547 283.588,16.800 284.206,16.800 284.843 C 16.800 285.479,17.142 286.342,17.559 286.759 C 17.977 287.177,18.444 288.089,18.597 288.786 C 18.750 289.484,19.111 290.144,19.398 290.255 C 19.686 290.365,20.037 291.073,20.179 291.828 C 20.332 292.644,20.672 293.200,21.018 293.200 C 21.382 293.200,21.600 293.600,21.600 294.269 C 21.600 294.856,21.887 295.654,22.237 296.041 C 22.962 296.842,24.026 298.706,25.013 300.900 C 25.383 301.725,25.833 302.400,26.012 302.400 C 26.190 302.400,26.455 302.940,26.600 303.600 C 26.745 304.260,27.111 304.800,27.414 304.800 C 27.726 304.800,28.077 305.406,28.226 306.200 C 28.377 307.002,28.726 307.600,29.045 307.600 C 29.350 307.600,29.600 307.948,29.600 308.373 C 29.600 308.798,29.960 309.260,30.400 309.400 C 30.840 309.540,31.200 310.002,31.200 310.427 C 31.200 310.852,31.560 311.560,32.000 312.000 C 32.440 312.440,32.800 313.048,32.800 313.351 C 32.800 314.061,33.784 314.883,34.170 314.497 C 34.333 314.333,34.422 314.380,34.368 314.600 C 34.171 315.395,34.899 317.200,35.416 317.200 C 35.708 317.200,36.060 317.560,36.200 318.000 C 36.340 318.440,36.612 318.800,36.805 318.800 C 36.998 318.800,37.391 319.217,37.678 319.726 C 38.939 321.961,40.106 323.600,40.440 323.600 C 40.638 323.600,40.800 323.868,40.800 324.197 C 40.800 324.525,41.160 325.018,41.600 325.293 C 42.040 325.568,42.400 326.007,42.400 326.269 C 42.400 326.532,42.760 326.860,43.200 327.000 C 43.640 327.140,44.000 327.518,44.000 327.841 C 44.000 328.164,44.360 328.827,44.801 329.314 C 45.241 329.801,46.366 331.080,47.301 332.155 C 48.235 333.231,49.675 334.778,50.500 335.593 C 51.325 336.408,52.000 337.283,52.000 337.538 C 52.000 337.792,52.153 338.000,52.341 338.000 C 52.831 338.000,55.023 340.162,55.322 340.941 C 56.294 343.474,56.495 343.296,85.403 314.400 L 112.614 287.200 199.407 287.101 L 286.200 287.002 199.830 286.900 C 120.159 286.806,113.404 286.747,112.730 286.137 C 112.028 285.501,112.000 282.251,112.000 199.813 L 112.000 114.150 113.133 113.064 L 114.266 111.979 134.919 112.089 C 154.126 112.192,155.622 112.250,156.286 112.914 C 156.964 113.593,157.005 116.785,157.100 177.114 C 157.155 212.031,157.298 240.861,157.418 241.181 C 157.565 241.569,178.854 220.545,221.591 177.809 C 277.140 122.261,285.627 113.925,286.172 114.377 C 286.738 114.847,286.810 123.305,286.899 200.549 L 286.998 286.200 287.100 200.728 C 287.202 115.016,287.175 113.200,285.814 113.200 C 285.481 113.200,256.542 141.864,221.504 176.897 L 157.800 240.594 157.505 177.197 C 156.667 -3.264,156.744 2.570,155.200 3.110 " stroke="none" fill="#44fcec" fill-rule="evenodd"></path><path id="path2" d="M113.085 113.112 L 112.000 114.244 112.000 199.860 C 112.000 282.338,112.027 285.500,112.733 286.139 C 113.410 286.752,119.908 286.794,200.033 286.701 L 286.600 286.600 286.701 200.750 C 286.792 123.115,286.742 114.850,286.173 114.378 C 285.627 113.924,277.183 122.218,221.591 177.809 C 178.854 220.545,157.565 241.569,157.418 241.181 C 157.298 240.861,157.155 212.031,157.100 177.114 C 157.005 116.785,156.964 113.593,156.286 112.914 C 155.622 112.250,154.125 112.192,134.871 112.090 L 114.169 111.979 113.085 113.112 M155.626 114.014 C 156.386 114.421,156.400 115.560,156.400 178.165 C 156.400 235.579,156.462 241.954,157.028 242.423 C 157.566 242.869,282.970 118.593,284.909 115.692 C 285.930 114.165,286.000 119.645,286.000 200.825 L 286.000 286.002 199.900 285.901 L 113.800 285.800 113.699 200.242 C 113.625 137.333,113.717 114.541,114.048 114.142 C 114.620 113.453,154.350 113.331,155.626 114.014 " stroke="none" fill="#71fceb" fill-rule="evenodd"></path><path id="path3" d="M342.600 57.917 C 341.940 58.233,329.174 70.756,314.232 85.746 L 287.064 113.000 287.136 199.364 C 287.204 279.459,287.161 285.781,286.542 286.464 C 285.899 287.174,282.881 287.200,199.437 287.200 L 112.998 287.200 85.699 314.501 C 70.685 329.517,58.400 341.950,58.400 342.130 C 58.400 342.310,58.128 342.729,57.796 343.061 C 57.229 343.628,57.337 344.605,57.928 344.249 C 58.203 344.082,59.140 344.926,59.308 345.492 C 59.359 345.661,59.535 345.755,59.700 345.700 C 59.865 345.645,60.000 345.780,60.000 346.000 C 60.000 346.220,60.360 346.400,60.800 346.400 C 61.333 346.400,61.600 346.667,61.600 347.200 C 61.600 347.733,61.867 348.000,62.400 348.000 C 62.865 348.000,63.200 348.267,63.200 348.637 C 63.200 348.988,63.560 349.369,64.000 349.484 C 64.440 349.599,64.800 349.948,64.800 350.259 C 64.800 350.570,65.088 350.936,65.440 351.071 C 66.266 351.388,68.000 353.120,68.000 353.628 C 68.000 353.844,68.451 354.191,69.003 354.401 C 69.555 354.611,69.960 354.921,69.903 355.091 C 69.846 355.261,69.890 355.415,70.000 355.432 C 70.817 355.565,71.972 356.522,71.749 356.882 C 71.591 357.138,71.658 357.211,71.911 357.055 C 72.149 356.908,72.458 356.970,72.596 357.193 C 72.734 357.417,73.197 357.600,73.624 357.600 C 74.067 357.600,74.400 357.873,74.400 358.237 C 74.400 358.588,74.760 358.969,75.200 359.084 C 75.640 359.199,76.000 359.547,76.000 359.857 C 76.000 360.166,76.451 360.591,77.003 360.801 C 77.555 361.011,77.960 361.387,77.903 361.638 C 77.846 361.889,78.134 362.150,78.543 362.218 C 78.952 362.286,79.684 362.715,80.169 363.171 C 80.654 363.627,81.355 364.000,81.726 364.000 C 82.097 364.000,82.400 364.274,82.400 364.610 C 82.400 364.945,82.812 365.377,83.316 365.568 C 83.820 365.760,84.473 366.205,84.765 366.558 C 85.058 366.911,85.613 367.200,85.998 367.200 C 86.384 367.200,87.487 367.920,88.449 368.800 C 89.412 369.680,90.584 370.400,91.053 370.400 C 91.570 370.400,91.989 370.715,92.116 371.200 C 92.276 371.813,92.662 372.000,93.763 372.000 C 94.784 372.000,95.200 372.177,95.200 372.610 C 95.200 372.945,95.651 373.391,96.203 373.601 C 96.755 373.811,97.160 374.203,97.103 374.473 C 96.999 374.971,97.244 375.060,98.953 375.150 C 99.544 375.181,99.986 375.504,100.116 376.000 C 100.276 376.613,100.662 376.800,101.763 376.800 C 102.933 376.800,103.200 376.948,103.200 377.600 C 103.200 378.222,103.467 378.400,104.400 378.400 C 105.125 378.400,105.560 378.591,105.500 378.882 C 105.445 379.147,105.610 379.372,105.867 379.382 C 106.123 379.392,106.468 379.535,106.633 379.700 C 106.798 379.865,107.353 380.000,107.867 380.000 C 108.383 380.000,108.755 380.215,108.700 380.482 C 108.645 380.747,108.810 380.972,109.067 380.982 C 109.323 380.992,109.668 381.135,109.833 381.300 C 109.998 381.465,110.553 381.600,111.067 381.600 C 111.600 381.600,111.957 381.814,111.900 382.100 C 111.845 382.375,112.025 382.555,112.300 382.500 C 112.575 382.445,112.800 382.580,112.800 382.800 C 112.800 383.020,113.499 383.200,114.353 383.200 C 115.570 383.200,115.952 383.373,116.116 384.000 C 116.275 384.606,116.662 384.800,117.716 384.800 C 118.770 384.800,119.157 384.994,119.316 385.600 C 119.474 386.204,119.862 386.400,120.901 386.400 C 121.718 386.400,122.541 386.693,122.929 387.121 C 123.321 387.555,124.254 387.882,125.268 387.942 C 126.405 388.009,127.131 388.295,127.500 388.821 C 127.915 389.414,128.516 389.600,130.023 389.600 C 131.733 389.600,132.000 389.708,132.000 390.400 C 132.000 390.840,132.135 391.179,132.300 391.153 C 133.673 390.936,135.984 391.276,135.900 391.682 C 135.845 391.947,136.010 392.172,136.267 392.182 C 136.523 392.192,136.868 392.335,137.033 392.500 C 137.198 392.665,137.995 392.800,138.805 392.800 C 139.768 392.800,140.526 393.076,141.000 393.600 C 141.580 394.241,142.232 394.400,144.286 394.400 C 145.694 394.400,146.749 394.560,146.628 394.755 C 146.424 395.085,147.556 396.320,147.861 396.100 C 148.263 395.810,153.214 396.054,153.028 396.355 C 152.594 397.057,153.851 397.488,156.588 397.574 C 159.616 397.669,160.155 397.825,159.745 398.489 C 159.591 398.739,159.661 398.809,159.911 398.655 C 160.149 398.508,160.444 398.547,160.564 398.742 C 160.685 398.938,162.543 399.130,164.692 399.169 C 166.841 399.208,168.660 399.411,168.733 399.620 C 168.921 400.154,231.200 400.135,231.200 399.600 C 231.200 399.361,232.733 399.200,235.000 399.200 C 237.373 399.200,238.800 399.043,238.800 398.782 C 238.800 398.553,239.115 398.418,239.500 398.482 C 239.891 398.548,240.156 398.379,240.100 398.100 C 240.028 397.742,240.794 397.586,242.800 397.550 C 246.482 397.484,246.390 397.502,246.953 396.732 C 247.308 396.246,248.149 396.038,250.021 395.973 C 252.575 395.883,253.795 395.440,253.372 394.755 C 253.251 394.560,254.260 394.400,255.614 394.400 C 257.738 394.400,258.103 394.291,258.284 393.600 C 258.463 392.914,258.830 392.800,260.847 392.800 C 262.149 392.800,263.200 392.621,263.200 392.400 C 263.200 392.180,263.425 392.045,263.700 392.100 C 263.975 392.155,264.155 391.975,264.100 391.700 C 264.031 391.353,264.613 391.200,266.000 391.200 C 267.100 391.200,268.000 391.020,268.000 390.800 C 268.000 390.580,268.225 390.445,268.500 390.500 C 268.775 390.555,268.955 390.375,268.900 390.100 C 268.833 389.767,269.333 389.600,270.397 389.600 C 271.560 389.600,272.129 389.383,272.493 388.800 C 272.861 388.211,273.426 388.000,274.634 388.000 C 275.768 388.000,276.500 387.752,277.000 387.200 C 277.398 386.760,278.148 386.400,278.666 386.400 C 279.184 386.400,279.916 386.040,280.293 385.600 C 280.744 385.073,281.473 384.800,282.427 384.800 C 283.368 384.800,284.130 384.520,284.600 384.000 C 284.998 383.560,285.718 383.200,286.200 383.200 C 286.682 383.200,287.402 382.840,287.800 382.400 C 288.198 381.960,288.826 381.600,289.195 381.600 C 289.565 381.600,290.002 381.465,290.167 381.300 C 290.332 381.135,290.677 380.992,290.933 380.982 C 291.190 380.972,291.355 380.747,291.300 380.482 C 291.241 380.196,291.662 380.000,292.338 380.000 C 292.968 380.000,293.799 379.643,294.200 379.200 C 294.598 378.760,295.318 378.400,295.800 378.400 C 296.282 378.400,297.002 378.040,297.400 377.600 C 297.798 377.160,298.356 376.800,298.639 376.800 C 298.923 376.800,299.399 376.451,299.698 376.024 C 299.997 375.598,300.682 375.188,301.221 375.114 C 302.500 374.939,303.271 374.439,302.983 373.972 C 302.856 373.768,303.213 373.600,303.776 373.600 C 304.339 373.600,304.800 373.420,304.800 373.200 C 304.800 372.980,305.025 372.845,305.300 372.900 C 305.575 372.955,305.755 372.775,305.700 372.500 C 305.641 372.203,306.021 372.000,306.637 372.000 C 307.338 372.000,307.743 371.741,307.884 371.200 C 308.015 370.698,308.430 370.400,308.998 370.400 C 309.495 370.400,310.142 370.111,310.435 369.758 C 310.727 369.405,311.380 368.960,311.884 368.768 C 312.388 368.577,312.800 368.145,312.800 367.810 C 312.800 367.434,313.165 367.200,313.751 367.200 C 314.274 367.200,314.942 366.911,315.235 366.558 C 315.527 366.205,316.180 365.760,316.684 365.568 C 317.188 365.377,317.600 364.945,317.600 364.610 C 317.600 364.274,317.932 364.000,318.338 364.000 C 318.744 364.000,319.402 363.640,319.800 363.200 C 320.198 362.760,320.873 362.400,321.299 362.400 C 321.726 362.400,322.165 362.057,322.274 361.637 C 322.384 361.217,322.817 360.784,323.237 360.674 C 323.657 360.565,324.000 360.209,324.000 359.884 C 324.000 359.559,324.360 359.199,324.800 359.084 C 325.240 358.969,325.600 358.608,325.600 358.282 C 325.600 357.921,326.148 357.586,327.000 357.426 C 327.838 357.269,328.400 356.930,328.400 356.582 C 328.400 356.258,328.771 356.000,329.237 356.000 C 329.725 356.000,330.158 355.681,330.274 355.237 C 330.384 354.817,330.817 354.384,331.237 354.274 C 331.657 354.165,332.000 353.809,332.000 353.484 C 332.000 353.159,332.360 352.799,332.800 352.684 C 333.240 352.569,333.600 352.209,333.600 351.884 C 333.600 351.559,333.960 351.199,334.400 351.084 C 334.840 350.969,335.200 350.609,335.200 350.284 C 335.200 349.959,335.560 349.599,336.000 349.484 C 336.440 349.369,336.800 348.988,336.800 348.637 C 336.800 348.267,337.135 348.000,337.600 348.000 C 338.133 348.000,338.400 347.733,338.400 347.200 C 338.400 346.694,338.667 346.400,339.125 346.400 C 339.524 346.400,340.362 345.866,340.986 345.214 C 341.611 344.562,342.303 344.140,342.523 344.276 C 342.743 344.412,342.822 344.359,342.697 344.157 C 342.445 343.750,343.337 342.354,343.864 342.333 C 344.049 342.326,344.172 342.203,344.138 342.060 C 344.070 341.772,344.830 340.999,345.300 340.878 C 345.465 340.835,345.640 340.665,345.688 340.500 C 345.737 340.335,346.277 339.779,346.888 339.264 C 347.500 338.750,348.000 337.985,348.000 337.564 C 348.000 337.132,348.277 336.800,348.637 336.800 C 348.988 336.800,349.369 336.440,349.484 336.000 C 349.599 335.560,349.948 335.200,350.259 335.200 C 350.570 335.200,350.936 334.912,351.071 334.560 C 351.387 333.736,352.936 332.187,353.760 331.871 C 354.112 331.736,354.400 331.370,354.400 331.059 C 354.400 330.748,354.745 330.403,355.166 330.293 C 355.587 330.183,355.997 329.667,356.076 329.146 C 356.154 328.626,356.453 328.249,356.739 328.310 C 357.025 328.370,357.153 328.248,357.023 328.038 C 356.893 327.827,356.970 327.542,357.193 327.404 C 357.417 327.266,357.600 326.803,357.600 326.376 C 357.600 325.933,357.873 325.600,358.237 325.600 C 358.588 325.600,358.969 325.240,359.084 324.800 C 359.199 324.360,359.548 324.000,359.859 324.000 C 360.170 324.000,360.543 323.685,360.686 323.300 C 360.830 322.915,361.274 322.365,361.674 322.077 C 362.093 321.776,362.400 321.056,362.400 320.377 C 362.400 319.467,362.581 319.200,363.200 319.200 C 363.733 319.200,364.000 318.933,364.000 318.400 C 364.000 317.950,364.267 317.600,364.610 317.600 C 364.945 317.600,365.377 317.188,365.568 316.684 C 365.760 316.180,366.205 315.527,366.558 315.235 C 366.911 314.942,367.200 314.387,367.200 314.002 C 367.200 313.616,367.920 312.513,368.800 311.551 C 369.680 310.588,370.400 309.416,370.400 308.947 C 370.400 308.430,370.715 308.011,371.200 307.884 C 371.813 307.724,372.000 307.338,372.000 306.237 C 372.000 305.084,372.153 304.800,372.772 304.800 C 373.268 304.800,373.590 304.478,373.672 303.900 C 373.742 303.405,374.070 303.000,374.400 303.000 C 374.998 303.000,375.055 302.851,375.150 301.047 C 375.181 300.456,375.504 300.014,376.000 299.884 C 376.613 299.724,376.800 299.338,376.800 298.237 C 376.800 297.067,376.948 296.800,377.600 296.800 C 378.173 296.800,378.400 296.533,378.400 295.862 C 378.400 295.346,378.760 294.598,379.200 294.200 C 379.640 293.802,380.000 293.127,380.000 292.701 C 380.000 292.275,380.360 291.469,380.800 290.909 C 381.240 290.350,381.600 289.630,381.600 289.309 C 381.600 288.989,381.960 288.269,382.400 287.709 C 382.840 287.150,383.200 286.107,383.200 285.393 C 383.200 284.430,383.407 284.039,384.000 283.884 C 384.606 283.725,384.800 283.338,384.800 282.284 C 384.800 281.230,384.994 280.843,385.600 280.684 C 386.204 280.526,386.400 280.138,386.400 279.099 C 386.400 278.232,386.695 277.457,387.200 277.000 C 387.752 276.500,388.000 275.768,388.000 274.634 C 388.000 273.426,388.211 272.861,388.800 272.493 C 389.422 272.104,389.600 271.560,389.600 270.043 C 389.600 268.430,389.738 268.057,390.400 267.884 C 391.054 267.713,391.200 267.338,391.200 265.837 C 391.200 264.616,391.361 264.034,391.682 264.100 C 391.947 264.155,392.172 263.990,392.182 263.733 C 392.192 263.477,392.335 263.132,392.500 262.967 C 392.665 262.802,392.800 261.719,392.800 260.560 C 392.800 258.805,392.933 258.412,393.600 258.200 C 394.267 257.988,394.400 257.595,394.400 255.835 C 394.400 254.232,394.593 253.550,395.200 253.000 C 395.834 252.427,396.000 251.768,396.000 249.834 C 396.000 247.826,396.142 247.304,396.800 246.893 C 397.492 246.461,397.600 245.960,397.600 243.197 C 397.600 240.915,397.738 240.029,398.082 240.100 C 398.347 240.155,398.572 239.990,398.582 239.733 C 398.592 239.477,398.735 239.132,398.900 238.967 C 399.065 238.802,399.200 236.897,399.200 234.733 C 399.200 232.378,399.360 230.800,399.600 230.800 C 399.863 230.800,400.000 220.200,400.000 199.800 C 400.000 179.400,399.863 168.800,399.600 168.800 C 399.362 168.800,399.200 167.289,399.200 165.067 C 399.200 163.013,399.065 161.198,398.900 161.033 C 398.735 160.868,398.592 160.523,398.582 160.267 C 398.572 160.010,398.347 159.845,398.082 159.900 C 397.738 159.971,397.600 159.085,397.600 156.803 C 397.600 154.040,397.492 153.539,396.800 153.107 C 396.142 152.696,396.000 152.174,396.000 150.166 C 396.000 148.232,395.834 147.573,395.200 147.000 C 394.587 146.445,394.400 145.768,394.400 144.101 C 394.400 142.262,394.276 141.893,393.600 141.716 C 392.929 141.540,392.800 141.170,392.800 139.420 C 392.800 138.272,392.665 137.198,392.500 137.033 C 392.335 136.868,392.192 136.523,392.182 136.267 C 392.172 136.010,391.947 135.845,391.682 135.900 C 391.359 135.967,391.200 135.362,391.200 134.062 C 391.200 132.632,390.990 131.934,390.400 131.400 C 389.956 130.998,389.600 130.168,389.600 129.534 C 389.600 128.887,389.253 128.095,388.800 127.707 C 388.240 127.228,388.000 126.527,388.000 125.373 C 388.000 124.232,387.754 123.501,387.200 123.000 C 386.760 122.602,386.400 121.852,386.400 121.334 C 386.400 120.816,386.040 120.084,385.600 119.707 C 385.094 119.274,384.800 118.527,384.800 117.674 C 384.800 116.662,384.600 116.273,384.000 116.116 C 383.380 115.954,383.200 115.570,383.200 114.415 C 383.200 113.432,382.927 112.677,382.400 112.200 C 381.960 111.802,381.600 111.168,381.600 110.792 C 381.600 110.416,381.240 109.650,380.800 109.091 C 380.360 108.531,380.000 107.697,380.000 107.237 C 380.000 106.667,379.745 106.400,379.200 106.400 C 378.548 106.400,378.400 106.133,378.400 104.963 C 378.400 103.862,378.213 103.476,377.600 103.316 C 377.034 103.168,376.800 102.770,376.800 101.957 C 376.800 101.240,376.499 100.619,376.000 100.307 C 375.515 100.004,375.200 99.374,375.200 98.707 C 375.200 98.040,374.885 97.410,374.400 97.107 C 373.960 96.832,373.600 96.319,373.600 95.966 C 373.600 95.613,373.240 94.998,372.800 94.600 C 372.360 94.202,372.000 93.527,372.000 93.101 C 372.000 92.674,371.657 92.235,371.238 92.126 C 370.752 91.999,370.382 91.432,370.219 90.563 C 370.068 89.754,369.727 89.200,369.382 89.200 C 369.058 89.200,368.800 88.829,368.800 88.363 C 368.800 87.862,368.479 87.441,368.000 87.316 C 367.498 87.185,367.200 86.770,367.200 86.202 C 367.200 85.705,366.911 85.058,366.558 84.765 C 366.205 84.473,365.760 83.820,365.568 83.316 C 365.377 82.812,364.945 82.400,364.610 82.400 C 364.267 82.400,364.000 82.050,364.000 81.600 C 364.000 81.067,363.733 80.800,363.200 80.800 C 362.627 80.800,362.386 80.517,362.350 79.800 C 362.262 78.045,362.174 77.798,361.673 77.903 C 361.403 77.960,361.011 77.555,360.801 77.003 C 360.591 76.451,360.166 76.000,359.857 76.000 C 359.547 76.000,359.199 75.640,359.084 75.200 C 358.969 74.760,358.608 74.400,358.282 74.400 C 357.921 74.400,357.586 73.852,357.426 73.000 C 357.269 72.162,356.930 71.600,356.582 71.600 C 356.258 71.600,356.000 71.229,356.000 70.763 C 356.000 70.275,355.681 69.842,355.237 69.726 C 354.817 69.616,354.384 69.183,354.274 68.763 C 354.165 68.343,353.788 68.000,353.437 68.000 C 353.087 68.000,352.800 67.713,352.800 67.363 C 352.800 67.012,352.457 66.635,352.037 66.526 C 351.617 66.416,351.184 65.983,351.074 65.563 C 350.965 65.143,350.609 64.800,350.284 64.800 C 349.959 64.800,349.599 64.440,349.484 64.000 C 349.369 63.560,348.988 63.200,348.637 63.200 C 348.282 63.200,348.000 62.870,348.000 62.455 C 348.000 62.045,347.104 60.871,346.008 59.846 C 344.912 58.821,344.027 57.882,344.041 57.758 C 344.091 57.317,343.783 57.351,342.600 57.917 " stroke="none" fill="#0cb4ac" fill-rule="evenodd"></path><path id="path4" d="M114.048 114.142 C 113.717 114.541,113.625 137.333,113.699 200.242 L 113.800 285.800 199.900 285.901 L 286.000 286.002 286.000 200.825 C 286.000 119.645,285.930 114.165,284.909 115.692 C 282.970 118.593,157.566 242.869,157.028 242.423 C 156.462 241.954,156.400 235.579,156.400 178.165 C 156.400 115.560,156.386 114.421,155.626 114.014 C 154.350 113.331,114.620 113.453,114.048 114.142 " stroke="none" fill="#fcfcfc" fill-rule="evenodd"></path></g></svg>