<svg id="svg" version="1.1" xmlns="http://www.w3.org/2000/svg" xmlns:xlink="http://www.w3.org/1999/xlink" width="400" height="398.2222222222222" viewBox="0, 0, 400,398.2222222222222"><g id="svgg"><path id="path0" d="M184.462 0.598 C 184.462 1.058,183.889 1.211,181.972 1.265 C 179.850 1.324,179.746 1.358,181.266 1.491 C 183.684 1.704,185.657 1.294,185.657 0.580 C 185.657 0.261,185.388 0.000,185.060 0.000 C 184.731 0.000,184.462 0.269,184.462 0.598 M216.335 0.566 C 216.335 1.182,220.527 1.825,222.332 1.487 C 222.883 1.383,222.483 1.280,221.414 1.249 C 220.022 1.210,219.522 1.037,219.522 0.598 C 219.522 0.166,219.079 0.000,217.928 0.000 C 216.817 0.000,216.335 0.171,216.335 0.566 M171.116 1.968 C 170.664 2.148,171.612 2.208,173.307 2.107 C 177.199 1.874,177.770 1.657,174.502 1.653 C 173.078 1.651,171.554 1.793,171.116 1.968 M225.199 1.884 C 226.021 1.970,227.366 1.970,228.187 1.884 C 229.009 1.798,228.337 1.728,226.693 1.728 C 225.050 1.728,224.377 1.798,225.199 1.884 M231.275 2.569 C 232.151 2.902,233.137 3.173,233.466 3.169 C 234.560 3.158,233.025 2.488,231.275 2.213 L 229.681 1.962 231.275 2.569 M168.327 2.789 L 167.530 3.131 168.327 3.153 C 168.765 3.165,169.392 3.001,169.721 2.789 C 170.513 2.277,169.518 2.277,168.327 2.789 M235.558 3.462 C 235.941 3.562,236.569 3.562,236.952 3.462 C 237.336 3.362,237.022 3.280,236.255 3.280 C 235.488 3.280,235.174 3.362,235.558 3.462 M241.235 4.195 C 243.231 4.914,243.504 4.911,242.231 4.183 C 241.683 3.870,240.876 3.615,240.438 3.617 C 240.000 3.619,240.359 3.879,241.235 4.195 M158.167 4.781 C 157.347 5.044,157.312 5.106,157.968 5.133 C 158.406 5.152,159.034 4.993,159.363 4.781 C 160.061 4.330,159.576 4.330,158.167 4.781 M144.622 7.769 C 144.074 8.082,143.805 8.338,144.024 8.338 C 144.243 8.338,144.871 8.082,145.418 7.769 C 145.966 7.456,146.235 7.200,146.016 7.200 C 145.797 7.200,145.169 7.456,144.622 7.769 M292.629 22.311 C 293.287 22.746,294.004 23.103,294.223 23.103 C 294.442 23.104,294.035 22.747,293.317 22.309 C 291.626 21.278,291.072 21.279,292.629 22.311 M103.586 24.104 C 102.843 24.651,102.370 25.100,102.533 25.100 C 102.697 25.100,103.491 24.651,104.297 24.104 C 105.103 23.556,105.577 23.108,105.349 23.108 C 105.122 23.108,104.328 23.556,103.586 24.104 M304.183 28.547 C 305.472 29.767,308.290 31.797,309.011 32.025 C 309.475 32.171,310.175 32.645,310.567 33.078 C 310.959 33.511,311.562 33.865,311.909 33.865 C 312.557 33.865,312.404 33.748,307.570 30.544 C 304.639 28.601,303.582 27.978,304.183 28.547 M315.312 36.212 C 315.612 36.698,320.355 39.939,320.518 39.770 C 320.587 39.699,319.391 38.785,317.861 37.739 C 316.332 36.693,315.185 36.006,315.312 36.212 M81.873 37.849 C 81.045 38.506,80.259 39.051,80.125 39.059 C 79.990 39.068,78.984 39.892,77.888 40.892 C 76.129 42.497,76.083 42.577,77.490 41.576 C 78.367 40.953,79.173 40.350,79.283 40.236 C 79.392 40.122,80.423 39.322,81.574 38.459 C 82.724 37.595,83.665 36.835,83.665 36.771 C 83.665 36.496,83.292 36.720,81.873 37.849 M321.782 41.145 C 323.891 42.841,324.507 43.148,322.908 41.706 C 322.032 40.916,321.167 40.262,320.985 40.254 C 320.804 40.246,321.163 40.647,321.782 41.145 M69.497 47.510 L 68.327 48.805 69.622 47.635 C 70.334 46.991,70.916 46.408,70.916 46.340 C 70.916 46.032,70.588 46.303,69.497 47.510 M66.733 50.035 L 65.538 51.062 66.833 50.205 C 67.545 49.734,68.127 49.271,68.127 49.176 C 68.127 48.878,67.959 48.982,66.733 50.035 M337.052 54.382 C 337.795 55.149,338.493 55.777,338.603 55.777 C 338.712 55.777,338.194 55.149,337.450 54.382 C 336.707 53.616,336.009 52.988,335.899 52.988 C 335.790 52.988,336.308 53.616,337.052 54.382 M353.216 71.751 C 353.858 72.538,354.463 73.115,354.561 73.033 C 354.660 72.950,354.135 72.306,353.395 71.601 L 352.050 70.319 353.216 71.751 M355.693 74.701 C 355.920 75.139,356.764 76.215,357.568 77.092 L 359.030 78.685 357.523 76.693 C 355.629 74.190,355.170 73.690,355.693 74.701 M225.100 79.143 C 224.552 79.225,222.053 79.573,219.548 79.916 C 211.303 81.044,207.289 84.104,208.135 88.615 C 208.407 90.061,210.685 92.430,211.804 92.430 C 212.145 92.430,212.880 92.789,213.437 93.227 C 213.994 93.665,214.715 94.024,215.039 94.024 C 215.363 94.024,217.446 94.456,219.667 94.984 C 222.815 95.732,225.330 96.000,231.076 96.197 C 235.129 96.336,239.253 96.628,240.239 96.846 C 241.225 97.064,243.825 97.418,246.016 97.633 C 248.207 97.847,250.718 98.286,251.595 98.608 C 252.472 98.930,254.265 99.392,255.579 99.635 C 256.893 99.877,258.416 100.310,258.964 100.596 C 259.512 100.882,261.711 101.784,263.852 102.600 C 265.992 103.415,267.840 104.240,267.959 104.432 C 268.077 104.624,268.454 104.781,268.797 104.781 C 269.855 104.781,272.949 106.872,275.139 109.067 C 278.414 112.351,278.608 116.382,275.644 119.583 C 274.136 121.212,269.576 124.303,268.681 124.303 C 268.359 124.303,267.431 124.637,266.618 125.046 C 265.805 125.454,264.153 126.016,262.948 126.293 C 261.743 126.571,260.426 126.970,260.022 127.179 C 258.098 128.173,250.821 129.599,246.215 129.884 C 243.476 130.054,239.084 130.400,236.454 130.655 C 224.144 131.844,201.985 130.189,191.434 127.291 C 190.339 126.990,188.411 126.559,187.150 126.333 C 185.889 126.108,184.512 125.738,184.089 125.511 C 183.665 125.285,182.969 125.100,182.542 125.100 C 182.114 125.100,180.444 124.663,178.830 124.129 C 177.217 123.596,174.779 122.945,173.413 122.684 C 172.048 122.423,170.726 121.964,170.476 121.663 C 170.226 121.362,169.769 121.116,169.461 121.116 C 168.617 121.116,161.166 118.852,159.884 118.206 C 159.269 117.896,158.069 117.535,157.219 117.404 C 155.653 117.162,152.568 116.068,149.526 114.676 C 148.608 114.256,146.905 113.806,145.741 113.675 C 144.578 113.545,143.177 113.213,142.629 112.938 C 141.726 112.486,138.832 111.717,134.415 110.758 C 133.512 110.562,131.680 110.034,130.343 109.583 C 129.007 109.133,127.236 108.759,126.407 108.752 C 125.578 108.745,123.914 108.392,122.709 107.968 C 120.784 107.291,118.350 106.845,119.845 107.443 C 120.132 107.558,120.806 108.059,121.343 108.557 L 122.319 109.462 120.452 110.807 C 118.116 112.489,116.035 114.573,110.852 120.424 C 105.363 126.621,99.602 133.954,99.602 134.745 C 99.602 134.909,98.997 135.989,98.259 137.144 C 97.521 138.298,96.169 140.646,95.256 142.360 C 94.342 144.075,93.429 145.778,93.225 146.145 C 93.022 146.512,92.379 148.048,91.797 149.557 C 91.214 151.066,90.333 152.898,89.838 153.627 C 89.343 154.356,88.815 155.611,88.664 156.415 C 88.513 157.219,88.044 158.522,87.621 159.311 C 87.198 160.100,86.853 160.981,86.853 161.269 C 86.853 161.557,86.552 162.366,86.185 163.068 C 85.818 163.769,85.300 165.508,85.034 166.932 C 84.168 171.575,83.184 175.883,82.840 176.536 C 80.382 181.209,80.159 215.542,82.541 222.709 C 82.795 223.476,83.317 225.538,83.701 227.291 C 85.450 235.292,86.302 238.055,88.085 241.513 C 88.503 242.324,88.845 243.319,88.845 243.726 C 88.845 244.133,89.407 245.352,90.094 246.436 C 90.781 247.519,91.680 249.430,92.091 250.682 C 92.808 252.866,94.029 255.310,95.035 256.574 C 95.296 256.902,95.618 257.624,95.748 258.178 C 95.879 258.731,96.795 260.255,97.783 261.564 C 98.772 262.873,99.585 264.098,99.591 264.285 C 99.600 264.580,99.981 265.108,101.956 267.567 C 102.148 267.807,102.619 268.614,103.001 269.360 C 103.384 270.106,103.807 270.807,103.941 270.916 C 104.372 271.268,106.548 273.906,107.371 275.072 C 107.809 275.694,108.616 276.687,109.163 277.278 C 110.169 278.364,112.808 281.342,113.985 282.719 C 114.336 283.130,115.730 284.452,117.083 285.657 C 118.437 286.863,120.390 288.621,121.425 289.564 C 122.460 290.507,123.822 291.554,124.451 291.890 C 125.080 292.226,126.200 293.106,126.940 293.845 C 127.679 294.585,128.688 295.405,129.182 295.668 C 129.676 295.931,130.992 296.834,132.108 297.675 C 133.223 298.515,134.288 299.203,134.473 299.203 C 134.658 299.203,135.628 299.888,136.628 300.725 C 138.441 302.243,153.447 309.966,154.582 309.966 C 154.910 309.965,155.717 310.322,156.375 310.757 C 157.032 311.192,157.933 311.550,158.377 311.551 C 158.822 311.553,159.582 311.832,160.067 312.171 C 160.552 312.511,162.071 313.028,163.443 313.320 C 164.814 313.611,166.384 314.039,166.932 314.270 C 167.480 314.501,168.556 314.792,169.323 314.917 C 170.090 315.042,171.255 315.429,171.912 315.777 C 172.834 316.266,177.465 316.950,180.976 317.117 C 181.789 317.156,181.120 317.953,179.980 318.305 C 178.807 318.667,178.853 318.683,180.478 318.470 C 184.991 317.877,184.455 316.338,179.732 316.329 C 176.201 316.323,174.900 316.051,174.900 315.319 C 174.900 314.573,173.885 314.343,170.789 314.390 C 168.648 314.422,167.975 314.286,167.576 313.740 C 167.281 313.337,166.188 312.911,164.942 312.714 C 163.039 312.413,162.411 312.051,162.056 311.049 C 161.996 310.880,160.962 310.631,159.759 310.495 C 158.405 310.341,157.298 309.964,156.857 309.506 C 156.465 309.098,155.737 308.765,155.239 308.765 C 154.740 308.765,153.591 308.406,152.684 307.968 C 151.777 307.530,150.816 307.171,150.549 307.171 C 150.281 307.171,149.780 306.918,149.434 306.608 C 149.088 306.298,148.177 305.886,147.410 305.692 C 146.581 305.483,145.856 304.984,145.623 304.463 C 145.350 303.855,144.879 303.586,144.091 303.586 C 143.310 303.586,142.892 303.349,142.756 302.832 C 142.639 302.384,142.047 301.964,141.299 301.797 L 140.040 301.517 141.335 300.956 C 142.813 300.317,142.966 299.810,141.859 299.217 C 140.859 298.682,140.913 298.671,139.816 299.623 C 138.781 300.521,137.408 300.413,136.344 299.349 C 136.008 299.013,135.313 298.578,134.799 298.383 C 134.285 298.188,133.865 297.777,133.865 297.470 C 133.865 297.163,133.341 296.808,132.701 296.680 C 132.011 296.542,131.433 296.117,131.280 295.635 C 131.139 295.188,130.560 294.707,129.995 294.565 C 129.431 294.423,128.654 294.019,128.269 293.667 C 125.664 291.285,124.754 290.500,123.636 289.674 C 122.940 289.160,122.264 288.312,122.133 287.790 C 121.949 287.058,121.692 286.887,121.007 287.038 C 120.201 287.215,117.514 284.648,117.536 283.722 C 117.558 282.812,118.267 282.410,119.081 282.846 C 120.315 283.506,120.717 283.060,120.717 281.034 C 120.717 279.441,120.853 279.172,121.963 278.567 C 122.648 278.194,123.704 277.485,124.311 276.992 C 124.918 276.499,125.870 276.096,126.428 276.096 C 126.986 276.096,127.560 275.906,127.703 275.675 C 127.846 275.444,130.142 274.183,132.806 272.873 C 138.290 270.177,138.478 270.134,153.586 268.125 C 155.120 267.921,157.361 267.583,158.566 267.372 C 166.218 266.038,198.879 267.385,202.470 269.183 C 203.062 269.479,204.388 269.721,205.417 269.721 C 207.145 269.721,210.343 270.617,213.407 271.960 C 214.097 272.262,214.943 272.510,215.286 272.510 C 215.629 272.510,216.498 272.771,217.218 273.091 C 217.937 273.410,220.139 274.143,222.112 274.719 C 224.084 275.295,227.042 276.193,228.685 276.714 C 230.329 277.235,233.108 278.110,234.861 278.657 C 236.614 279.204,239.034 280.000,240.239 280.426 C 246.287 282.562,259.574 283.630,262.861 282.244 C 263.676 281.901,265.598 281.520,267.131 281.398 C 269.809 281.185,275.380 279.431,280.926 277.056 C 282.159 276.528,283.374 276.096,283.627 276.096 C 283.880 276.096,284.976 275.393,286.062 274.535 C 287.148 273.677,288.621 272.846,289.337 272.689 C 290.883 272.350,292.049 271.503,295.243 268.396 C 296.556 267.120,297.849 266.148,298.118 266.236 C 299.046 266.542,298.897 268.049,297.871 268.721 C 297.331 269.075,296.782 269.788,296.652 270.306 C 296.522 270.824,295.743 271.984,294.921 272.883 C 294.099 273.782,292.799 275.247,292.032 276.138 C 291.265 277.030,288.083 280.363,284.960 283.547 C 279.295 289.322,278.349 290.792,279.913 291.392 C 280.885 291.765,281.155 291.655,280.378 291.203 C 279.344 290.601,279.533 289.355,280.777 288.570 C 281.379 288.190,282.679 287.060,283.665 286.059 C 287.433 282.236,292.032 277.243,292.035 276.974 C 292.036 276.820,293.109 275.528,294.418 274.104 C 295.727 272.679,297.002 271.021,297.252 270.418 C 297.502 269.816,297.859 269.323,298.046 269.323 C 298.233 269.323,298.683 268.749,299.045 268.047 C 299.408 267.346,299.937 266.540,300.221 266.256 C 300.504 265.972,301.229 264.709,301.831 263.448 C 302.432 262.187,303.545 260.270,304.304 259.189 C 305.062 258.107,305.852 256.611,306.058 255.864 C 306.264 255.117,307.008 253.582,307.711 252.452 C 309.402 249.735,312.650 242.097,313.073 239.841 C 313.258 238.855,313.701 237.420,314.057 236.653 C 315.575 233.385,316.342 230.895,316.904 227.412 C 317.233 225.373,317.963 221.912,318.526 219.721 C 320.521 211.953,320.698 185.551,318.788 180.540 C 318.341 179.369,317.867 177.397,317.733 176.158 C 317.472 173.738,316.139 168.287,315.330 166.335 C 315.058 165.677,314.607 164.422,314.329 163.546 C 314.051 162.669,313.599 161.594,313.325 161.155 C 313.051 160.717,312.698 159.740,312.540 158.983 C 312.113 156.944,308.065 149.242,306.352 147.211 C 305.982 146.773,305.580 145.622,305.459 144.653 C 305.337 143.685,304.979 142.748,304.663 142.571 C 304.347 142.395,303.862 141.702,303.584 141.033 C 303.307 140.363,302.986 139.909,302.871 140.024 C 302.462 140.433,301.594 139.328,301.594 138.397 C 301.594 137.876,301.414 137.450,301.195 137.450 C 300.699 137.450,300.686 138.463,301.159 140.113 C 301.670 141.894,299.444 142.669,298.329 141.099 C 297.849 140.422,296.223 140.006,296.630 140.665 C 296.942 141.169,294.276 142.437,293.173 142.309 C 291.605 142.127,291.335 140.226,292.575 138.087 C 293.599 136.319,294.342 132.669,293.677 132.669 C 293.459 132.669,293.156 132.277,293.004 131.798 C 292.737 130.957,292.709 130.953,292.181 131.675 C 291.781 132.222,291.630 132.269,291.621 131.849 C 291.613 131.510,291.272 131.725,290.789 132.373 C 290.339 132.976,289.803 133.367,289.599 133.241 C 289.395 133.115,288.617 133.389,287.871 133.851 C 286.532 134.679,283.843 134.873,283.411 134.173 C 283.301 133.996,283.045 133.955,282.841 134.081 C 282.637 134.207,282.470 134.110,282.470 133.865 C 282.470 133.620,282.291 133.530,282.072 133.665 C 281.853 133.801,281.673 133.653,281.673 133.336 C 281.673 132.628,279.982 131.474,278.945 131.474 C 278.525 131.474,278.070 131.160,277.935 130.777 C 277.799 130.393,277.584 129.856,277.457 129.582 C 277.305 129.256,277.560 129.084,278.193 129.084 C 279.310 129.084,280.827 127.909,280.593 127.225 C 280.506 126.970,280.803 126.644,281.253 126.501 C 282.312 126.165,282.307 125.254,281.245 124.976 C 280.791 124.858,280.322 124.388,280.203 123.934 C 280.060 123.389,279.663 123.108,279.037 123.108 C 277.901 123.108,277.777 123.752,278.848 124.092 C 279.893 124.424,280.232 125.517,279.511 126.237 C 278.980 126.768,278.763 126.753,277.557 126.104 C 275.672 125.088,274.900 125.487,274.900 127.478 C 274.900 128.724,274.744 129.094,274.203 129.131 C 273.820 129.156,272.072 129.226,270.319 129.285 C 268.566 129.345,266.010 129.590,264.639 129.831 C 263.268 130.072,261.053 130.343,259.717 130.435 C 258.381 130.526,257.091 130.797,256.851 131.038 C 256.334 131.555,248.358 131.643,248.044 131.135 C 247.929 130.948,249.667 130.677,251.905 130.533 C 254.651 130.356,256.110 130.091,256.388 129.719 C 256.637 129.386,258.019 129.054,259.885 128.879 C 262.214 128.660,263.063 128.419,263.344 127.894 C 263.589 127.435,264.433 127.103,265.822 126.920 C 266.981 126.767,268.287 126.317,268.725 125.920 C 269.163 125.523,270.174 124.989,270.972 124.734 C 273.203 124.020,278.082 119.574,278.086 118.251 C 278.087 117.880,278.284 117.456,278.523 117.308 C 279.457 116.731,278.114 111.043,276.746 109.775 C 276.169 109.240,275.697 108.615,275.697 108.386 C 275.697 108.156,275.428 107.968,275.100 107.968 C 274.771 107.968,274.502 107.711,274.502 107.397 C 274.502 107.083,274.099 106.704,273.606 106.555 C 273.113 106.405,272.351 105.966,271.912 105.579 C 270.876 104.663,267.296 102.789,266.584 102.789 C 266.279 102.789,265.471 102.452,264.788 102.041 C 264.105 101.629,262.864 101.171,262.030 101.022 C 261.196 100.874,260.165 100.404,259.739 99.978 C 259.190 99.429,258.413 99.203,257.072 99.201 C 255.760 99.200,254.690 98.898,253.586 98.218 C 252.444 97.514,251.409 97.232,249.934 97.224 C 248.801 97.217,247.811 97.020,247.733 96.786 C 247.508 96.110,239.741 95.246,233.765 95.232 C 230.387 95.224,228.287 95.066,228.287 94.821 C 228.287 94.572,230.619 94.422,234.485 94.422 C 237.894 94.422,241.939 94.215,243.475 93.961 C 245.568 93.616,246.756 93.613,248.228 93.953 C 249.580 94.265,250.518 94.281,251.246 94.005 C 252.575 93.499,252.427 93.372,250.199 93.108 C 247.604 92.799,246.098 92.370,245.493 91.765 C 245.202 91.474,244.653 91.235,244.274 91.235 C 243.896 91.235,243.353 91.011,243.070 90.737 C 242.654 90.336,242.435 90.414,241.945 91.135 C 241.303 92.083,239.712 92.323,238.645 91.633 C 238.114 91.290,238.114 91.246,238.645 91.232 C 238.974 91.224,239.651 90.903,240.150 90.520 L 241.056 89.822 238.890 88.509 C 237.451 87.637,235.740 87.026,233.788 86.687 C 230.743 86.158,229.084 85.509,229.084 84.847 C 229.084 84.635,228.815 84.462,228.486 84.462 C 228.157 84.462,227.494 84.068,227.012 83.585 C 226.284 82.857,225.490 82.660,222.330 82.424 C 217.846 82.089,218.327 82.197,218.327 81.524 C 218.327 81.223,218.909 80.854,219.622 80.705 C 222.607 80.078,227.891 79.526,230.677 79.549 C 232.755 79.566,233.301 79.483,232.470 79.276 C 231.220 78.965,226.811 78.885,225.100 79.143 M249.402 82.869 C 251.252 83.881,251.950 83.880,250.289 82.867 C 249.572 82.430,248.765 82.079,248.496 82.088 C 248.228 82.098,248.635 82.449,249.402 82.869 M216.733 82.788 C 216.733 82.964,216.067 83.348,215.254 83.642 C 214.440 83.936,213.538 84.413,213.250 84.701 C 212.962 84.989,212.463 85.124,212.142 85.001 C 211.385 84.710,211.787 84.064,212.726 84.064 C 213.126 84.064,213.547 83.705,213.661 83.267 C 213.870 82.470,216.733 82.024,216.733 82.788 M35.620 84.960 C 35.259 85.672,34.672 86.610,34.315 87.045 C 33.701 87.791,33.705 87.804,34.389 87.273 C 34.787 86.964,35.394 86.161,35.739 85.487 C 36.084 84.814,36.565 84.131,36.809 83.970 C 37.120 83.764,37.107 83.676,36.763 83.671 C 36.495 83.668,35.980 84.248,35.620 84.960 M363.354 84.772 C 365.365 87.428,366.149 88.227,364.964 86.412 C 364.306 85.403,363.451 84.327,363.066 84.022 C 362.662 83.701,362.784 84.018,363.354 84.772 M210.310 87.851 C 210.832 88.617,211.583 89.243,211.980 89.243 C 212.786 89.243,213.344 89.871,212.825 90.192 C 212.195 90.581,210.831 89.968,210.632 89.206 C 210.516 88.764,210.085 88.446,209.599 88.446 C 208.975 88.446,208.765 88.195,208.765 87.450 C 208.765 86.093,209.188 86.203,210.310 87.851 M366.496 89.044 C 366.723 89.482,367.285 90.289,367.744 90.837 C 368.314 91.516,368.448 91.580,368.166 91.036 C 367.938 90.598,367.376 89.791,366.917 89.243 C 366.347 88.563,366.213 88.500,366.496 89.044 M31.151 91.617 C 30.671 92.266,30.279 92.928,30.279 93.089 C 30.279 93.250,30.727 92.774,31.275 92.032 C 31.823 91.289,32.271 90.627,32.271 90.560 C 32.271 90.234,31.947 90.540,31.151 91.617 M276.494 91.833 C 277.042 92.146,277.669 92.402,277.888 92.402 C 278.108 92.402,277.839 92.146,277.291 91.833 C 276.743 91.520,276.116 91.263,275.896 91.263 C 275.677 91.263,275.946 91.520,276.494 91.833 M224.004 92.188 C 225.371 93.225,224.792 93.625,221.925 93.625 C 219.014 93.625,218.222 92.728,220.661 92.193 C 221.240 92.066,221.892 91.902,222.112 91.829 C 222.868 91.577,223.309 91.661,224.004 92.188 M280.418 93.430 C 281.590 93.976,282.756 94.421,283.008 94.418 C 283.260 94.416,282.507 93.968,281.335 93.422 C 280.163 92.877,278.997 92.432,278.745 92.434 C 278.493 92.436,279.246 92.885,280.418 93.430 M284.839 94.862 C 285.375 95.076,286.011 95.378,286.252 95.534 C 286.494 95.690,286.349 95.503,285.931 95.120 C 285.513 94.736,284.877 94.434,284.518 94.448 C 284.105 94.464,284.223 94.616,284.839 94.862 M297.809 100.797 C 298.466 101.232,299.266 101.590,299.586 101.591 C 299.906 101.592,299.465 101.235,298.606 100.797 C 296.615 99.782,296.276 99.782,297.809 100.797 M25.254 101.407 C 24.891 101.962,24.666 102.488,24.754 102.576 C 24.843 102.665,25.217 102.211,25.587 101.568 C 26.409 100.135,26.165 100.017,25.254 101.407 M374.381 101.788 C 374.745 102.552,375.114 103.107,375.200 103.020 C 375.383 102.838,374.173 100.398,373.901 100.398 C 373.800 100.398,374.016 101.024,374.381 101.788 M301.055 101.989 C 301.525 102.179,302.029 102.526,302.174 102.761 C 302.319 102.995,302.630 103.187,302.866 103.187 C 303.102 103.187,302.839 102.829,302.282 102.390 C 301.725 101.952,301.028 101.605,300.734 101.619 C 300.440 101.633,300.584 101.799,301.055 101.989 M23.805 104.198 C 22.810 105.528,22.939 105.900,23.950 104.614 C 24.413 104.026,24.727 103.481,24.647 103.404 C 24.567 103.328,24.188 103.685,23.805 104.198 M304.017 103.308 C 304.109 103.374,304.721 103.743,305.378 104.128 L 306.574 104.828 305.633 104.008 C 305.116 103.556,304.503 103.187,304.272 103.187 C 304.041 103.187,303.926 103.242,304.017 103.308 M89.442 104.393 C 88.539 104.561,89.488 104.599,91.633 104.482 C 93.715 104.368,95.493 104.209,95.584 104.129 C 95.871 103.878,91.111 104.083,89.442 104.393 M375.329 104.382 C 375.327 104.957,376.451 107.237,376.480 106.719 C 376.488 106.580,376.232 105.863,375.912 105.125 C 375.592 104.388,375.329 104.054,375.329 104.382 M96.713 104.664 C 97.206 104.759,98.013 104.759,98.506 104.664 C 98.999 104.569,98.596 104.491,97.610 104.491 C 96.624 104.491,96.220 104.569,96.713 104.664 M102.295 105.063 C 102.791 105.158,103.508 105.154,103.889 105.055 C 104.270 104.955,103.865 104.877,102.988 104.881 C 102.112 104.886,101.800 104.967,102.295 105.063 M22.289 107.070 C 21.389 108.866,21.401 109.043,22.331 107.653 C 22.813 106.931,23.124 106.258,23.023 106.157 C 22.921 106.056,22.591 106.467,22.289 107.070 M376.617 109.363 C 376.620 110.677,376.694 111.167,376.783 110.451 C 376.871 109.735,376.870 108.659,376.779 108.061 C 376.688 107.462,376.615 108.048,376.617 109.363 M314.343 108.784 C 315.725 109.722,316.512 109.995,315.538 109.199 C 314.990 108.751,314.363 108.383,314.143 108.381 C 313.924 108.380,314.014 108.561,314.343 108.784 M68.980 109.575 C 67.745 110.604,68.302 110.592,69.612 109.562 C 70.170 109.124,70.467 108.771,70.273 108.778 C 70.079 108.785,69.497 109.144,68.980 109.575 M64.542 111.602 C 63.775 112.013,63.441 112.350,63.800 112.350 C 64.160 112.350,64.877 111.998,65.394 111.567 C 66.534 110.618,66.365 110.625,64.542 111.602 M320.750 112.073 C 320.842 112.139,321.454 112.508,322.112 112.893 L 323.307 113.593 322.366 112.773 C 321.849 112.321,321.236 111.952,321.005 111.952 C 320.774 111.952,320.659 112.006,320.750 112.073 M60.757 113.573 C 59.417 114.431,59.601 114.580,61.137 113.880 C 61.695 113.626,62.151 113.267,62.151 113.083 C 62.151 112.667,62.195 112.652,60.757 113.573 M375.741 113.988 C 375.496 114.693,375.362 115.335,375.443 115.416 C 375.524 115.497,375.818 115.014,376.096 114.343 C 376.374 113.671,376.508 113.029,376.395 112.915 C 376.281 112.801,375.987 113.284,375.741 113.988 M18.625 114.556 C 17.630 115.887,17.760 116.258,18.771 114.973 C 19.234 114.384,19.547 113.840,19.468 113.763 C 19.388 113.686,19.009 114.043,18.625 114.556 M343.825 123.705 C 345.134 124.454,345.781 124.462,344.797 123.718 C 344.372 123.396,343.755 123.134,343.426 123.134 C 343.080 123.135,343.247 123.375,343.825 123.705 M365.602 124.948 C 363.897 125.872,364.564 126.003,366.346 125.094 C 367.200 124.659,367.636 124.310,367.315 124.319 C 366.995 124.328,366.224 124.610,365.602 124.948 M349.203 125.310 C 351.199 126.029,351.472 126.026,350.199 125.299 C 349.651 124.986,348.845 124.731,348.406 124.733 C 347.968 124.735,348.327 124.995,349.203 125.310 M355.876 126.580 C 356.479 126.671,357.465 126.671,358.068 126.580 C 358.670 126.489,358.177 126.414,356.972 126.414 C 355.767 126.414,355.274 126.489,355.876 126.580 M292.032 127.260 C 292.032 128.082,292.482 128.249,293.584 127.833 C 294.687 127.417,294.627 127.301,293.127 126.941 C 292.313 126.745,292.032 126.827,292.032 127.260 M270.675 127.722 C 270.808 128.068,270.919 128.472,270.922 128.618 C 270.931 128.975,271.699 127.772,271.707 127.390 C 271.710 127.226,271.425 127.092,271.073 127.092 C 270.653 127.092,270.516 127.308,270.675 127.722 M8.050 142.903 C 7.127 145.619,7.096 146.051,7.953 144.247 C 8.416 143.274,8.743 142.231,8.680 141.931 C 8.617 141.630,8.333 142.067,8.050 142.903 M4.821 155.777 C 4.783 156.325,4.496 157.221,4.183 157.769 C 3.870 158.317,3.611 159.034,3.609 159.363 C 3.606 159.691,3.965 159.162,4.408 158.185 C 4.851 157.209,5.140 156.044,5.051 155.596 C 4.917 154.920,4.878 154.950,4.821 155.777 M15.063 158.466 C 14.361 159.284,13.834 160.159,14.045 160.159 C 14.126 160.159,14.590 159.622,15.076 158.964 C 16.037 157.665,16.028 157.342,15.063 158.466 M3.280 162.550 C 3.280 163.317,3.362 163.630,3.462 163.247 C 3.562 162.864,3.562 162.236,3.462 161.853 C 3.362 161.469,3.280 161.783,3.280 162.550 M2.835 165.406 C 2.810 165.771,2.686 166.399,2.560 166.800 C 2.342 167.492,2.354 167.493,2.786 166.820 C 3.036 166.430,3.160 165.802,3.061 165.426 C 2.899 164.809,2.877 164.807,2.835 165.406 M9.315 166.833 C 8.949 167.435,8.294 168.466,7.858 169.124 C 7.072 170.309,7.072 170.312,7.855 169.522 C 8.754 168.614,10.538 165.737,10.201 165.737 C 10.079 165.737,9.680 166.230,9.315 166.833 M1.694 170.717 C 1.699 171.594,1.780 171.905,1.875 171.410 C 1.971 170.914,1.967 170.197,1.867 169.816 C 1.768 169.435,1.690 169.841,1.694 170.717 M1.267 175.598 C 1.216 176.805,1.024 177.291,0.598 177.291 C 0.269 177.291,0.000 177.560,0.000 177.888 C 0.000 178.217,0.269 178.486,0.598 178.486 C 0.926 178.486,1.195 178.755,1.195 179.084 C 1.195 179.412,0.926 179.681,0.598 179.681 C 0.269 179.681,0.000 179.861,0.000 180.080 C 0.000 180.900,1.189 180.441,1.417 179.532 C 1.548 179.012,2.089 178.388,2.620 178.146 C 3.151 177.904,3.572 177.478,3.554 177.200 C 3.529 176.800,3.480 176.799,3.322 177.191 C 2.776 178.544,1.636 177.678,1.488 175.797 L 1.339 173.904 1.267 175.598 M398.648 218.898 C 398.514 219.431,398.002 219.998,397.509 220.158 C 396.643 220.439,396.651 220.458,397.743 220.756 C 399.350 221.195,400.254 220.802,399.314 220.072 C 398.640 219.549,398.639 219.496,399.303 218.980 C 400.143 218.327,400.197 217.928,399.446 217.928 C 399.141 217.928,398.782 218.365,398.648 218.898 M391.724 229.232 C 391.236 229.945,390.837 230.676,390.837 230.857 C 390.837 231.039,391.294 230.513,391.852 229.690 C 392.411 228.867,392.810 228.136,392.740 228.065 C 392.669 227.995,392.212 228.520,391.724 229.232 M397.095 232.208 C 396.721 233.469,396.446 235.479,396.484 236.673 C 396.551 238.765,396.559 238.779,396.689 237.052 C 396.764 236.066,397.118 234.136,397.477 232.763 C 398.305 229.596,398.002 229.155,397.095 232.208 M395.490 240.457 C 395.122 241.228,394.842 242.347,394.867 242.942 C 394.901 243.735,394.959 243.811,395.085 243.227 C 395.179 242.789,395.545 241.756,395.898 240.932 C 396.721 239.009,396.373 238.604,395.490 240.457 M379.380 247.112 C 377.234 249.756,375.780 251.806,376.767 250.797 C 377.685 249.858,382.105 244.223,381.924 244.223 C 381.814 244.223,380.670 245.523,379.380 247.112 M394.469 245.884 C 394.443 246.249,394.319 246.877,394.193 247.278 C 393.976 247.970,393.987 247.971,394.419 247.298 C 394.669 246.908,394.793 246.280,394.695 245.904 C 394.533 245.287,394.510 245.285,394.469 245.884 M371.725 256.673 C 371.023 257.385,370.076 258.506,369.622 259.163 C 368.683 260.521,368.845 260.375,371.502 257.470 C 373.602 255.174,373.760 254.611,371.725 256.673 M366.714 262.251 L 365.139 263.944 366.833 262.369 C 368.407 260.905,368.709 260.558,368.408 260.558 C 368.342 260.558,367.581 261.320,366.714 262.251 M102.716 265.071 C 102.785 265.656,102.651 266.135,102.417 266.135 C 102.183 266.135,101.992 265.881,101.992 265.570 C 101.992 265.260,101.874 264.697,101.729 264.321 C 101.545 263.840,101.634 263.691,102.028 263.821 C 102.337 263.923,102.646 264.485,102.716 265.071 M360.956 267.864 C 360.189 268.583,359.302 269.520,358.985 269.945 C 358.668 270.369,359.340 269.827,360.479 268.740 C 362.357 266.947,362.747 266.512,362.450 266.545 C 362.395 266.551,361.723 267.144,360.956 267.864 M355.899 272.738 L 354.781 273.763 356.076 272.863 C 356.788 272.367,357.371 271.906,357.371 271.837 C 357.371 271.523,356.930 271.793,355.899 272.738 M49.402 273.108 C 49.950 273.421,50.667 273.676,50.996 273.675 C 51.325 273.675,50.990 273.412,50.253 273.092 C 48.557 272.355,48.101 272.364,49.402 273.108 M31.997 274.402 C 31.579 274.786,31.435 274.972,31.676 274.817 C 31.917 274.661,32.553 274.359,33.089 274.145 C 33.705 273.899,33.824 273.746,33.411 273.730 C 33.051 273.717,32.416 274.019,31.997 274.402 M29.213 275.996 C 28.797 276.379,28.105 277.152,27.674 277.712 C 27.193 278.340,27.352 278.250,28.088 277.480 C 28.745 276.791,29.641 276.024,30.080 275.775 C 30.518 275.527,30.672 275.318,30.423 275.311 C 30.173 275.304,29.628 275.613,29.213 275.996 M64.088 278.462 C 64.605 278.914,65.218 279.283,65.449 279.283 C 65.939 279.283,65.916 279.263,64.343 278.342 L 63.147 277.642 64.088 278.462 M77.634 285.634 C 78.151 286.085,78.764 286.454,78.995 286.454 C 79.485 286.454,79.462 286.434,77.888 285.513 L 76.693 284.813 77.634 285.634 M335.736 286.345 C 334.245 287.112,333.095 287.810,333.180 287.895 C 333.392 288.106,338.178 285.693,338.464 285.231 C 338.747 284.772,338.960 284.685,335.736 286.345 M330.622 288.868 L 329.681 289.689 330.876 288.989 C 332.450 288.068,332.473 288.048,331.983 288.048 C 331.752 288.048,331.139 288.417,330.622 288.868 M375.975 293.998 C 375.004 295.642,375.152 296.067,376.152 294.505 C 376.614 293.784,376.915 293.117,376.822 293.023 C 376.728 292.930,376.347 293.368,375.975 293.998 M294.124 293.502 C 294.507 293.602,295.134 293.602,295.518 293.502 C 295.901 293.402,295.588 293.320,294.821 293.320 C 294.054 293.320,293.740 293.402,294.124 293.502 M316.036 293.502 C 316.419 293.602,317.047 293.602,317.430 293.502 C 317.814 293.402,317.500 293.320,316.733 293.320 C 315.966 293.320,315.652 293.402,316.036 293.502 M94.024 294.422 C 94.572 294.851,95.179 295.205,95.372 295.210 C 95.566 295.215,95.269 294.861,94.712 294.422 C 94.155 293.984,93.548 293.629,93.363 293.634 C 93.179 293.639,93.476 293.994,94.024 294.422 M299.303 293.900 C 299.686 294.000,300.314 294.000,300.697 293.900 C 301.081 293.800,300.767 293.718,300.000 293.718 C 299.233 293.718,298.919 293.800,299.303 293.900 M302.092 294.299 C 302.475 294.399,303.103 294.399,303.486 294.299 C 303.870 294.198,303.556 294.116,302.789 294.116 C 302.022 294.116,301.708 294.198,302.092 294.299 M308.272 294.306 C 308.767 294.401,309.484 294.397,309.865 294.298 C 310.246 294.198,309.841 294.120,308.964 294.124 C 308.088 294.129,307.776 294.210,308.272 294.306 M98.207 296.414 C 98.865 296.850,99.664 297.207,99.985 297.209 C 100.305 297.210,99.864 296.853,99.004 296.414 C 97.013 295.399,96.675 295.399,98.207 296.414 M147.087 301.123 C 144.734 301.349,145.894 302.183,148.737 302.309 C 150.960 302.408,151.394 302.541,151.394 303.126 C 151.394 304.116,152.182 304.780,153.367 304.787 C 153.925 304.790,154.640 304.956,154.955 305.156 C 155.329 305.392,155.811 305.320,156.339 304.950 C 156.785 304.638,157.894 304.382,158.804 304.382 C 160.851 304.382,162.948 303.982,162.948 303.592 C 162.948 303.150,157.288 302.460,156.375 302.791 C 155.936 302.950,155.219 302.937,154.781 302.763 C 154.343 302.589,153.421 302.434,152.732 302.418 C 152.043 302.403,151.385 302.143,151.268 301.840 C 151.039 301.241,149.177 300.922,147.087 301.123 M28.289 302.014 C 28.288 302.136,28.735 302.843,29.283 303.586 C 29.831 304.328,30.272 304.766,30.265 304.559 C 30.249 304.160,28.292 301.638,28.289 302.014 M171.315 305.156 C 171.315 305.866,172.153 306.045,174.173 305.767 C 175.554 305.577,176.023 305.378,175.649 305.141 C 174.909 304.672,171.315 304.684,171.315 305.156 M157.647 306.235 C 156.603 306.535,157.048 307.335,158.399 307.587 C 159.812 307.851,162.734 307.196,162.260 306.722 C 161.835 306.298,158.614 305.957,157.647 306.235 M122.709 306.571 C 122.709 306.971,125.404 307.971,126.382 307.933 C 126.918 307.912,126.534 307.688,125.447 307.389 C 124.433 307.109,123.403 306.756,123.157 306.604 C 122.910 306.452,122.709 306.437,122.709 306.571 M366.920 309.284 C 366.160 310.423,365.314 311.498,365.040 311.673 C 364.766 311.848,364.542 312.228,364.542 312.516 C 364.542 312.804,364.166 313.557,363.706 314.189 L 362.870 315.339 363.905 314.221 C 364.475 313.606,364.940 312.844,364.940 312.528 C 364.940 312.211,365.081 311.952,365.254 311.952 C 365.610 311.952,368.649 307.560,368.439 307.350 C 368.364 307.275,367.680 308.145,366.920 309.284 M133.665 310.567 C 134.761 311.106,136.106 311.531,136.653 311.511 C 137.419 311.484,137.281 311.369,136.056 311.017 C 135.179 310.764,134.071 310.334,133.592 310.060 C 133.113 309.786,132.486 309.567,132.198 309.574 C 131.909 309.581,132.570 310.028,133.665 310.567 M166.633 309.888 C 165.613 310.033,165.402 310.757,166.380 310.757 C 166.734 310.757,167.716 311.147,168.563 311.623 C 170.064 312.466,170.125 312.469,170.916 311.753 C 171.613 311.123,172.586 310.998,177.779 310.872 C 183.746 310.728,184.472 310.634,183.913 310.075 C 183.636 309.799,168.422 309.634,166.633 309.888 M37.414 315.471 C 37.629 315.873,38.118 316.455,38.501 316.766 C 38.931 317.115,38.835 316.837,38.248 316.036 C 37.202 314.606,36.810 314.341,37.414 315.471 M39.898 318.655 C 40.414 319.384,41.534 320.728,42.386 321.643 L 43.935 323.307 42.673 321.713 C 41.979 320.837,40.859 319.492,40.185 318.725 L 38.959 317.331 39.898 318.655 M161.853 318.601 C 162.236 318.702,162.864 318.702,163.247 318.601 C 163.630 318.501,163.317 318.419,162.550 318.419 C 161.783 318.419,161.469 318.501,161.853 318.601 M353.029 327.703 C 352.349 328.478,351.793 329.231,351.793 329.376 C 351.793 329.522,351.929 329.471,352.095 329.263 C 352.261 329.055,352.922 328.302,353.564 327.590 C 354.206 326.877,354.626 326.295,354.498 326.295 C 354.370 326.295,353.709 326.929,353.029 327.703 M50.199 331.200 C 50.199 331.269,50.782 331.852,51.494 332.495 L 52.789 333.665 51.619 332.371 C 50.528 331.164,50.199 330.893,50.199 331.200 M349.045 332.484 C 348.365 333.259,347.809 334.012,347.809 334.157 C 347.809 334.303,347.945 334.252,348.111 334.044 C 348.277 333.836,348.938 333.083,349.580 332.371 C 350.222 331.658,350.642 331.076,350.514 331.076 C 350.386 331.076,349.725 331.709,349.045 332.484 M55.179 336.653 C 56.258 337.749,57.231 338.645,57.341 338.645 C 57.450 338.645,56.657 337.749,55.578 336.653 C 54.499 335.558,53.526 334.661,53.416 334.661 C 53.307 334.661,54.100 335.558,55.179 336.653 M62.550 344.024 C 63.293 344.791,63.991 345.418,64.101 345.418 C 64.210 345.418,63.692 344.791,62.948 344.024 C 62.205 343.257,61.507 342.629,61.397 342.629 C 61.288 342.629,61.806 343.257,62.550 344.024 M333.640 347.908 L 332.470 349.203 333.765 348.033 C 334.477 347.389,335.060 346.807,335.060 346.738 C 335.060 346.430,334.731 346.701,333.640 347.908 M68.924 349.925 C 68.924 349.994,69.507 350.577,70.219 351.220 L 71.514 352.390 70.344 351.096 C 69.253 349.889,68.924 349.618,68.924 349.925 M328.486 352.042 C 327.770 352.651,327.623 352.894,328.120 352.647 C 328.851 352.284,330.221 350.973,329.830 351.010 C 329.748 351.018,329.143 351.482,328.486 352.042 M324.756 355.204 C 323.151 356.345,319.835 359.363,320.187 359.363 C 320.323 359.363,321.294 358.601,322.344 357.669 C 323.393 356.738,324.757 355.579,325.373 355.094 C 326.855 353.928,326.450 354.000,324.756 355.204 M75.859 355.687 C 76.891 356.893,83.665 362.075,83.665 361.659 C 83.665 361.582,82.726 360.809,81.579 359.942 C 79.046 358.029,78.387 357.512,76.537 355.986 C 75.613 355.224,75.371 355.117,75.859 355.687 M317.331 360.807 C 316.614 361.416,316.468 361.659,316.965 361.412 C 317.695 361.049,319.065 359.738,318.674 359.775 C 318.593 359.783,317.988 360.247,317.331 360.807 M313.353 363.734 C 313.221 363.948,312.494 364.416,311.736 364.776 C 310.978 365.135,310.359 365.588,310.359 365.782 C 310.359 365.977,310.145 366.135,309.884 366.135 C 309.387 366.135,303.187 370.085,303.187 370.401 C 303.187 370.636,305.729 369.108,307.748 367.661 C 308.613 367.041,309.526 366.534,309.778 366.534 C 310.029 366.534,310.560 366.175,310.956 365.737 C 311.353 365.299,311.891 364.940,312.151 364.940 C 312.412 364.940,312.950 364.582,313.347 364.143 C 313.743 363.705,313.961 363.347,313.830 363.347 C 313.700 363.347,313.485 363.521,313.353 363.734 M293.698 375.383 C 292.533 376.038,291.654 376.648,291.745 376.739 C 291.954 376.947,295.531 374.964,295.836 374.470 C 296.122 374.009,296.212 373.970,293.698 375.383 M109.723 377.888 C 110.530 378.436,111.307 378.884,111.450 378.884 C 111.592 378.884,111.101 378.436,110.359 377.888 C 109.616 377.341,108.839 376.892,108.632 376.892 C 108.425 376.892,108.916 377.341,109.723 377.888 M288.645 378.088 C 287.988 378.523,287.629 378.876,287.849 378.873 C 288.248 378.867,290.414 377.314,290.040 377.302 C 289.930 377.299,289.303 377.652,288.645 378.088 M126.295 385.060 C 126.843 385.373,127.470 385.629,127.689 385.629 C 127.908 385.629,127.639 385.373,127.092 385.060 C 126.544 384.747,125.916 384.490,125.697 384.490 C 125.478 384.490,125.747 384.747,126.295 385.060 M130.080 386.349 C 130.518 386.460,131.230 386.797,131.662 387.100 C 132.095 387.402,132.719 387.649,133.051 387.649 C 133.382 387.649,132.985 387.291,132.167 386.853 C 131.349 386.414,130.366 386.077,129.982 386.102 C 129.412 386.140,129.430 386.185,130.080 386.349 M134.296 387.793 C 134.387 387.871,135.000 388.056,135.657 388.203 C 136.530 388.398,136.691 388.361,136.255 388.066 C 135.717 387.702,133.896 387.448,134.296 387.793 M261.530 388.633 C 261.105 388.954,260.936 389.218,261.155 389.218 C 261.375 389.218,261.902 388.954,262.327 388.633 C 262.752 388.311,262.921 388.048,262.702 388.048 C 262.483 388.048,261.956 388.311,261.530 388.633 M155.378 393.625 C 156.741 394.062,157.788 394.062,156.773 393.625 C 156.335 393.437,155.618 393.288,155.179 393.295 C 154.539 393.304,154.578 393.369,155.378 393.625 M162.056 395.102 C 162.552 395.198,163.269 395.194,163.650 395.094 C 164.031 394.995,163.625 394.917,162.749 394.921 C 161.873 394.926,161.561 395.007,162.056 395.102 M234.965 395.102 C 235.460 395.198,236.178 395.194,236.558 395.094 C 236.939 394.995,236.534 394.917,235.657 394.921 C 234.781 394.926,234.469 395.007,234.965 395.102 M166.932 395.887 C 167.794 396.280,169.697 396.566,171.912 396.635 L 175.498 396.746 171.912 396.451 C 169.940 396.288,167.935 395.945,167.456 395.687 C 166.978 395.430,166.350 395.226,166.062 395.235 C 165.774 395.243,166.165 395.537,166.932 395.887 M224.203 396.703 C 224.915 396.791,226.081 396.791,226.793 396.703 C 227.505 396.614,226.922 396.542,225.498 396.542 C 224.074 396.542,223.491 396.614,224.203 396.703 M179.059 397.196 C 180.934 397.352,182.285 397.652,182.379 397.933 C 182.604 398.610,185.259 398.548,185.259 397.866 C 185.259 397.254,181.811 396.774,178.129 396.873 C 176.108 396.927,176.196 396.958,179.059 397.196 M215.139 397.077 C 211.719 397.413,210.359 397.685,210.359 398.032 C 210.359 398.598,215.440 398.502,215.629 397.933 C 215.723 397.652,217.074 397.352,218.949 397.196 L 222.112 396.933 219.323 396.937 C 217.789 396.939,215.906 397.002,215.139 397.077 " stroke="none" fill="#25d1bf" fill-rule="evenodd"></path><path id="path1" d="M185.657 0.580 C 185.657 1.316,184.472 1.495,177.494 1.813 C 174.429 1.952,171.202 2.304,170.323 2.595 C 169.444 2.887,167.291 3.251,165.538 3.405 C 163.785 3.559,161.454 4.005,160.359 4.395 C 159.263 4.785,157.266 5.218,155.920 5.356 C 154.574 5.494,152.472 5.959,151.249 6.389 C 150.025 6.819,148.473 7.171,147.799 7.171 C 147.125 7.171,146.088 7.423,145.493 7.730 C 144.899 8.038,143.249 8.515,141.828 8.791 C 140.406 9.067,138.884 9.519,138.446 9.796 C 138.008 10.072,136.663 10.569,135.458 10.899 C 134.253 11.230,132.550 11.774,131.673 12.107 C 130.797 12.441,129.788 12.722,129.431 12.732 C 129.075 12.741,128.564 13.013,128.296 13.336 C 128.028 13.659,127.154 14.039,126.354 14.181 C 125.555 14.323,124.341 14.776,123.658 15.188 C 122.975 15.600,122.114 15.936,121.745 15.936 C 121.376 15.936,120.411 16.289,119.601 16.720 C 118.790 17.151,115.797 18.523,112.948 19.768 C 110.100 21.013,106.630 22.722,105.238 23.566 C 103.846 24.409,102.479 25.100,102.199 25.100 C 101.920 25.100,101.468 25.369,101.195 25.697 C 100.922 26.026,100.524 26.295,100.310 26.295 C 99.759 26.295,88.468 33.345,87.021 34.593 C 86.784 34.797,85.888 35.412,85.029 35.960 C 84.169 36.508,82.822 37.471,82.034 38.100 C 80.436 39.375,79.849 39.820,74.646 43.700 C 67.513 49.019,55.793 60.379,47.211 70.293 C 45.884 71.826,44.514 73.560,42.629 76.093 C 41.643 77.418,40.030 79.553,39.044 80.838 C 37.201 83.239,36.732 83.894,35.548 85.722 C 35.170 86.305,33.499 88.815,31.836 91.299 C 27.596 97.631,26.848 98.924,22.304 107.769 C 21.403 109.522,20.412 111.404,20.100 111.952 C 19.789 112.500,19.531 113.240,19.528 113.597 C 19.525 113.953,19.254 114.467,18.927 114.739 C 18.600 115.010,18.135 115.967,17.893 116.865 C 17.651 117.763,17.112 118.932,16.695 119.462 C 16.278 119.992,15.936 120.721,15.936 121.081 C 15.936 121.441,15.677 122.105,15.360 122.557 C 15.043 123.010,14.570 124.260,14.308 125.335 C 14.046 126.411,13.588 127.574,13.290 127.920 C 12.993 128.266,12.749 128.845,12.749 129.207 C 12.749 129.569,12.324 130.989,11.806 132.363 C 10.303 136.341,9.540 138.686,8.981 141.036 C 8.695 142.241,8.171 143.894,7.816 144.708 C 7.461 145.523,7.171 146.599,7.170 147.099 C 7.169 147.599,6.724 149.263,6.182 150.797 C 5.640 152.331,5.192 154.235,5.188 155.029 C 5.183 155.823,4.842 157.257,4.430 158.216 C 4.018 159.175,3.566 161.294,3.424 162.924 C 3.283 164.554,2.901 166.674,2.574 167.636 C 1.541 170.678,1.301 177.691,2.230 177.684 C 2.760 177.680,3.502 176.751,4.696 174.596 C 5.636 172.901,6.751 170.976,7.174 170.319 C 7.598 169.661,8.220 168.635,8.558 168.039 C 9.270 166.783,10.990 164.132,11.481 163.535 C 11.666 163.311,12.159 162.594,12.577 161.942 C 12.994 161.290,13.518 160.544,13.740 160.283 C 13.962 160.022,14.592 159.162,15.139 158.372 C 15.687 157.582,16.942 155.875,17.928 154.579 C 18.914 153.283,20.338 151.364,21.092 150.314 C 21.847 149.265,22.661 148.227,22.902 148.008 C 23.142 147.789,23.870 146.898,24.518 146.029 C 25.167 145.160,25.966 144.153,26.295 143.793 C 26.624 143.432,28.058 141.832,29.482 140.237 C 33.013 136.283,39.038 130.235,42.639 127.030 C 48.023 122.237,48.799 121.594,51.004 120.089 C 52.205 119.269,53.331 118.359,53.506 118.065 C 53.681 117.770,54.057 117.530,54.341 117.530 C 54.624 117.530,55.181 117.171,55.578 116.733 C 55.974 116.295,56.515 115.936,56.779 115.936 C 57.043 115.936,57.957 115.458,58.809 114.874 C 60.866 113.464,66.843 110.359,67.500 110.359 C 67.786 110.359,68.448 110.023,68.970 109.614 C 69.493 109.204,70.548 108.734,71.315 108.569 C 72.082 108.404,73.374 107.933,74.187 107.521 C 75.000 107.110,76.114 106.773,76.663 106.773 C 77.211 106.773,78.521 106.433,79.575 106.018 C 85.047 103.861,99.606 103.767,110.293 105.818 C 111.972 106.141,114.871 106.558,116.733 106.745 C 118.596 106.931,121.234 107.462,122.597 107.925 C 123.960 108.387,125.713 108.765,126.494 108.765 C 127.275 108.765,129.007 109.133,130.343 109.583 C 131.680 110.034,133.512 110.562,134.415 110.758 C 138.832 111.717,141.726 112.486,142.629 112.938 C 143.177 113.213,144.578 113.545,145.741 113.675 C 146.905 113.806,148.608 114.256,149.526 114.676 C 152.568 116.068,155.653 117.162,157.219 117.404 C 158.069 117.535,159.269 117.896,159.884 118.206 C 161.166 118.852,168.617 121.116,169.461 121.116 C 169.769 121.116,170.226 121.362,170.476 121.663 C 170.726 121.964,172.048 122.423,173.413 122.684 C 174.779 122.945,177.217 123.596,178.830 124.129 C 180.444 124.663,182.114 125.100,182.542 125.100 C 182.969 125.100,183.665 125.285,184.089 125.511 C 184.512 125.738,185.889 126.108,187.150 126.333 C 188.411 126.559,190.339 126.990,191.434 127.291 C 201.985 130.189,224.144 131.844,236.454 130.655 C 239.084 130.400,243.476 130.054,246.215 129.884 C 250.821 129.599,258.098 128.173,260.022 127.179 C 260.426 126.970,261.743 126.571,262.948 126.293 C 264.153 126.016,265.805 125.454,266.618 125.046 C 267.431 124.637,268.359 124.303,268.681 124.303 C 269.576 124.303,274.136 121.212,275.644 119.583 C 278.608 116.382,278.414 112.351,275.139 109.067 C 272.949 106.872,269.855 104.781,268.797 104.781 C 268.454 104.781,268.077 104.624,267.959 104.432 C 267.840 104.240,265.992 103.415,263.852 102.600 C 261.711 101.784,259.512 100.882,258.964 100.596 C 258.416 100.310,256.893 99.877,255.579 99.635 C 254.265 99.392,252.472 98.930,251.595 98.608 C 250.718 98.286,248.207 97.847,246.016 97.633 C 243.825 97.418,241.225 97.064,240.239 96.846 C 239.253 96.628,235.129 96.336,231.076 96.197 C 225.330 96.000,222.815 95.732,219.667 94.984 C 217.446 94.456,215.363 94.024,215.039 94.024 C 214.715 94.024,213.994 93.665,213.437 93.227 C 212.880 92.789,212.145 92.430,211.804 92.430 C 209.664 92.430,207.595 88.765,208.129 85.919 C 208.986 81.353,223.572 77.649,233.618 79.447 C 235.564 79.795,238.074 80.084,239.196 80.088 C 240.330 80.093,241.974 80.433,242.900 80.853 C 243.815 81.269,245.608 81.739,246.884 81.898 C 248.159 82.057,249.619 82.458,250.127 82.791 C 250.635 83.123,251.958 83.538,253.066 83.713 C 254.174 83.888,255.372 84.285,255.728 84.594 C 256.083 84.903,257.335 85.277,258.510 85.426 C 259.684 85.575,261.029 85.945,261.498 86.249 C 261.967 86.552,263.247 87.019,264.343 87.287 C 265.438 87.554,266.688 88.014,267.121 88.309 C 267.553 88.604,268.222 88.845,268.607 88.845 C 268.992 88.845,270.521 89.311,272.004 89.881 C 273.487 90.450,275.687 91.273,276.892 91.709 C 278.098 92.145,280.092 92.933,281.325 93.462 C 282.557 93.990,283.923 94.422,284.359 94.422 C 284.795 94.422,285.579 94.754,286.102 95.158 C 286.624 95.563,287.575 96.023,288.216 96.179 C 288.856 96.336,289.821 96.811,290.361 97.236 C 290.901 97.661,291.637 98.008,291.997 98.008 C 292.357 98.008,293.005 98.251,293.437 98.549 C 293.869 98.846,294.865 99.299,295.650 99.554 C 296.435 99.809,297.773 100.372,298.623 100.806 C 299.473 101.239,300.416 101.594,300.719 101.594 C 301.021 101.594,301.725 101.952,302.282 102.390 C 302.839 102.829,303.589 103.187,303.949 103.187 C 304.309 103.187,305.023 103.481,305.535 103.840 C 306.377 104.429,310.056 106.308,311.554 106.912 C 311.882 107.045,313.048 107.695,314.143 108.358 C 315.239 109.020,317.570 110.286,319.323 111.170 C 321.076 112.055,323.406 113.318,324.502 113.977 C 325.598 114.637,327.032 115.444,327.689 115.772 C 328.347 116.100,329.781 116.874,330.876 117.493 C 335.555 120.134,340.708 122.509,342.629 122.909 C 343.396 123.069,344.248 123.380,344.523 123.602 C 344.797 123.823,346.052 124.236,347.312 124.521 C 348.571 124.806,350.408 125.338,351.394 125.705 C 353.939 126.649,363.461 126.423,364.940 125.382 C 365.488 124.997,366.634 124.493,367.486 124.263 C 373.525 122.630,378.181 111.829,375.712 105.179 C 374.668 102.368,373.125 98.986,372.589 98.334 C 372.286 97.966,371.741 97.121,371.377 96.457 C 370.821 95.440,369.396 93.320,364.542 86.292 C 363.797 85.215,361.628 82.340,361.357 82.072 C 361.246 81.962,360.976 81.575,360.757 81.211 C 360.407 80.630,356.660 75.840,354.687 73.452 C 353.769 72.341,350.669 68.777,349.402 67.377 C 348.855 66.772,346.882 64.589,345.020 62.526 C 341.150 58.241,339.626 56.693,336.839 54.222 C 335.751 53.258,333.875 51.544,332.669 50.414 C 331.464 49.284,329.313 47.412,327.888 46.253 C 326.464 45.094,325.120 43.939,324.900 43.686 C 324.681 43.434,323.845 42.737,323.042 42.138 C 322.240 41.538,321.343 40.815,321.050 40.530 C 320.758 40.245,319.622 39.394,318.526 38.640 C 317.430 37.885,315.609 36.502,314.478 35.566 C 313.348 34.630,312.165 33.865,311.851 33.865 C 311.536 33.865,310.959 33.511,310.567 33.078 C 310.175 32.645,309.494 32.177,309.053 32.037 C 308.612 31.897,307.246 31.013,306.018 30.072 C 304.790 29.131,302.799 27.866,301.594 27.261 C 300.388 26.656,299.133 25.939,298.805 25.667 C 298.476 25.395,295.339 23.700,291.833 21.900 C 288.327 20.100,285.288 18.470,285.080 18.278 C 284.872 18.086,284.441 17.928,284.123 17.928 C 283.806 17.928,282.631 17.496,281.514 16.967 C 280.396 16.438,278.317 15.526,276.892 14.940 C 275.468 14.354,273.765 13.640,273.108 13.354 C 272.450 13.067,271.285 12.701,270.518 12.539 C 269.751 12.377,268.499 11.910,267.735 11.501 C 266.971 11.092,265.933 10.757,265.428 10.757 C 264.923 10.757,263.845 10.423,263.032 10.014 C 262.219 9.605,260.837 9.143,259.960 8.987 C 259.084 8.830,257.582 8.358,256.623 7.937 C 255.664 7.516,254.281 7.171,253.550 7.171 C 252.819 7.171,251.314 6.814,250.206 6.377 C 249.097 5.940,247.163 5.468,245.908 5.328 C 244.653 5.189,242.998 4.815,242.231 4.498 C 241.464 4.181,239.047 3.749,236.859 3.538 C 234.671 3.328,232.161 2.917,231.281 2.626 C 230.401 2.335,227.530 1.978,224.900 1.834 C 218.123 1.462,216.335 1.193,216.335 0.546 C 216.335 0.093,213.724 0.000,200.996 0.000 C 187.840 0.000,185.657 0.082,185.657 0.580 M0.000 179.084 C 0.000 179.412,0.269 179.681,0.598 179.681 C 0.926 179.681,1.195 179.412,1.195 179.084 C 1.195 178.755,0.926 178.486,0.598 178.486 C 0.269 178.486,0.000 178.755,0.000 179.084 M399.004 219.124 C 398.713 219.594,399.090 220.319,399.625 220.319 C 399.831 220.319,400.000 219.960,400.000 219.522 C 400.000 218.682,399.420 218.450,399.004 219.124 M396.583 221.614 C 396.426 222.107,395.518 223.696,394.564 225.145 C 393.609 226.594,392.829 227.901,392.829 228.049 C 392.829 228.198,392.489 228.805,392.073 229.399 C 391.658 229.992,390.076 232.361,388.559 234.661 C 384.109 241.407,383.232 242.629,382.840 242.629 C 382.637 242.629,382.470 242.882,382.470 243.191 C 382.470 243.499,381.696 244.709,380.750 245.880 C 379.804 247.050,378.072 249.263,376.901 250.797 C 375.730 252.331,374.539 253.855,374.254 254.183 C 373.969 254.512,372.809 255.857,371.675 257.171 C 368.235 261.163,357.372 271.840,353.984 274.560 C 349.457 278.195,346.076 280.712,344.598 281.549 C 342.404 282.791,342.042 283.043,341.128 283.964 C 340.639 284.457,339.891 284.861,339.466 284.861 C 339.040 284.861,338.587 285.031,338.458 285.240 C 338.329 285.448,337.019 286.182,335.546 286.869 C 334.073 287.557,331.954 288.552,330.837 289.080 C 329.719 289.608,328.554 290.041,328.247 290.042 C 327.940 290.044,327.151 290.401,326.494 290.837 C 325.837 291.272,324.851 291.630,324.303 291.633 C 323.755 291.635,322.052 292.081,320.518 292.623 C 318.984 293.165,317.012 293.614,316.135 293.620 C 315.259 293.627,312.581 293.891,310.185 294.207 C 306.424 294.704,305.198 294.707,301.221 294.226 C 291.771 293.084,289.778 292.800,287.251 292.232 C 285.827 291.912,283.735 291.646,282.602 291.642 C 277.682 291.622,277.954 290.689,284.960 283.547 C 288.083 280.363,291.265 277.030,292.032 276.138 C 292.799 275.247,294.099 273.782,294.921 272.883 C 295.743 271.984,296.522 270.824,296.652 270.306 C 296.782 269.788,297.331 269.075,297.871 268.721 C 298.897 268.049,299.046 266.542,298.118 266.236 C 297.849 266.148,296.556 267.120,295.243 268.396 C 292.049 271.503,290.883 272.350,289.337 272.689 C 288.621 272.846,287.148 273.677,286.062 274.535 C 284.976 275.393,283.880 276.096,283.627 276.096 C 283.374 276.096,282.159 276.528,280.926 277.056 C 275.380 279.431,269.809 281.185,267.131 281.398 C 265.598 281.520,263.676 281.901,262.861 282.244 C 259.574 283.630,246.287 282.562,240.239 280.426 C 239.034 280.000,236.614 279.204,234.861 278.657 C 233.108 278.110,230.329 277.235,228.685 276.714 C 227.042 276.193,224.084 275.295,222.112 274.719 C 220.139 274.143,217.937 273.410,217.218 273.091 C 216.498 272.771,215.629 272.510,215.286 272.510 C 214.943 272.510,214.097 272.262,213.407 271.960 C 210.343 270.617,207.145 269.721,205.417 269.721 C 204.388 269.721,203.062 269.479,202.470 269.183 C 198.879 267.385,166.218 266.038,158.566 267.372 C 157.361 267.583,155.120 267.921,153.586 268.125 C 138.478 270.134,138.290 270.177,132.806 272.873 C 130.142 274.183,127.846 275.444,127.703 275.675 C 127.560 275.906,126.986 276.096,126.428 276.096 C 125.870 276.096,124.918 276.499,124.311 276.992 C 123.704 277.485,122.648 278.194,121.963 278.567 C 120.853 279.172,120.717 279.441,120.717 281.034 C 120.717 283.060,120.315 283.506,119.081 282.846 C 118.267 282.410,117.558 282.812,117.536 283.722 C 117.514 284.648,120.201 287.215,121.007 287.038 C 121.692 286.887,121.949 287.058,122.133 287.790 C 122.264 288.312,122.940 289.160,123.636 289.674 C 124.754 290.500,125.664 291.285,128.269 293.667 C 128.654 294.019,129.431 294.423,129.995 294.565 C 130.560 294.707,131.139 295.188,131.280 295.635 C 131.433 296.117,132.011 296.542,132.701 296.680 C 133.341 296.808,133.865 297.163,133.865 297.470 C 133.865 297.777,134.285 298.188,134.799 298.383 C 135.313 298.578,136.008 299.013,136.344 299.349 C 137.408 300.413,138.781 300.521,139.816 299.623 C 140.913 298.671,140.859 298.682,141.859 299.217 C 142.966 299.810,142.813 300.317,141.335 300.956 L 140.040 301.517 141.299 301.797 C 142.047 301.964,142.639 302.384,142.756 302.832 C 142.892 303.349,143.310 303.586,144.091 303.586 C 144.879 303.586,145.350 303.855,145.623 304.463 C 145.856 304.984,146.581 305.483,147.410 305.692 C 148.177 305.886,149.088 306.298,149.434 306.608 C 149.780 306.918,150.281 307.171,150.549 307.171 C 150.816 307.171,151.777 307.530,152.684 307.968 C 153.591 308.406,154.740 308.765,155.239 308.765 C 155.737 308.765,156.465 309.098,156.857 309.506 C 157.295 309.961,158.402 310.341,159.731 310.491 C 161.662 310.710,162.286 311.046,162.646 312.061 C 162.706 312.230,163.726 312.522,164.913 312.709 C 166.183 312.910,167.279 313.334,167.576 313.740 C 167.975 314.286,168.648 314.422,170.789 314.390 C 173.885 314.343,174.900 314.573,174.900 315.319 C 174.900 316.051,176.201 316.323,179.732 316.329 C 183.038 316.335,184.508 317.051,182.938 317.891 C 182.145 318.316,177.351 318.982,172.311 319.370 C 168.882 319.633,157.892 318.277,156.531 317.423 C 156.007 317.094,154.596 316.703,153.396 316.554 C 152.197 316.405,151.031 316.131,150.806 315.944 C 150.581 315.757,149.052 315.244,147.409 314.803 C 142.065 313.371,140.062 312.754,138.784 312.149 C 138.094 311.822,137.108 311.552,136.593 311.550 C 136.078 311.548,134.761 311.106,133.665 310.567 C 132.570 310.028,131.312 309.581,130.871 309.574 C 130.429 309.567,129.399 309.203,128.581 308.765 C 127.764 308.327,126.693 307.968,126.202 307.968 C 125.712 307.968,124.411 307.539,123.312 307.016 C 119.659 305.273,116.442 303.984,115.750 303.984 C 115.374 303.984,114.610 303.625,114.053 303.187 C 113.496 302.749,112.638 302.390,112.146 302.390 C 111.655 302.390,111.030 302.122,110.758 301.794 C 110.486 301.466,109.413 300.945,108.374 300.637 C 107.335 300.328,106.146 299.895,105.733 299.674 C 103.947 298.721,100.483 297.211,100.081 297.211 C 99.841 297.211,98.852 296.790,97.885 296.276 C 96.918 295.762,95.788 295.232,95.374 295.098 C 94.960 294.965,93.725 294.316,92.629 293.655 C 91.534 292.995,88.307 291.272,85.458 289.827 C 82.610 288.382,79.562 286.772,78.685 286.250 C 77.809 285.727,76.733 285.122,76.295 284.905 C 75.857 284.687,74.960 284.141,74.303 283.692 C 73.645 283.242,72.804 282.873,72.433 282.871 C 72.062 282.870,71.524 282.539,71.238 282.136 C 70.951 281.733,70.193 281.274,69.553 281.115 C 68.913 280.957,67.948 280.480,67.408 280.055 C 66.868 279.630,66.116 279.283,65.737 279.283 C 65.358 279.283,64.620 278.949,64.098 278.541 C 63.575 278.133,62.699 277.663,62.151 277.498 C 61.604 277.332,60.886 276.969,60.558 276.690 C 60.229 276.412,59.333 276.054,58.566 275.896 C 57.799 275.737,56.454 275.289,55.578 274.900 C 54.701 274.510,53.177 274.061,52.191 273.902 C 51.205 273.742,49.861 273.325,49.203 272.974 C 48.283 272.484,46.772 272.335,42.629 272.324 C 36.852 272.310,36.746 272.336,31.275 275.183 C 28.582 276.584,24.724 281.246,24.708 283.119 C 24.704 283.585,24.432 284.610,24.104 285.397 C 22.534 289.154,24.548 296.649,28.587 302.075 C 29.517 303.325,30.279 304.453,30.279 304.581 C 30.279 304.709,30.612 305.299,31.019 305.893 C 31.425 306.486,32.098 307.492,32.513 308.127 C 33.925 310.290,34.462 311.031,37.450 314.947 C 40.493 318.933,41.138 319.776,44.119 323.653 C 45.047 324.861,46.600 326.712,47.568 327.765 C 48.536 328.819,50.173 330.667,51.206 331.873 C 53.671 334.750,60.831 342.072,64.786 345.758 C 66.514 347.370,68.930 349.624,70.155 350.769 C 71.380 351.913,73.083 353.368,73.940 354.002 C 74.797 354.635,76.046 355.608,76.715 356.163 C 77.384 356.717,78.536 357.620,79.275 358.167 C 80.013 358.715,81.527 359.885,82.639 360.768 C 83.751 361.650,85.110 362.679,85.657 363.055 C 86.969 363.955,90.464 366.239,91.292 366.738 C 91.651 366.954,93.444 368.146,95.276 369.386 C 97.107 370.625,100.398 372.583,102.590 373.736 C 104.781 374.889,107.470 376.331,108.566 376.940 C 109.661 377.549,111.006 378.251,111.554 378.499 C 112.102 378.747,113.177 379.268,113.944 379.656 C 114.711 380.044,115.862 380.489,116.502 380.644 C 117.142 380.799,118.108 381.273,118.648 381.698 C 119.188 382.123,119.919 382.471,120.273 382.473 C 120.627 382.474,121.454 382.762,122.112 383.112 C 123.441 383.820,126.746 385.048,129.482 385.850 C 130.468 386.139,131.813 386.661,132.470 387.010 C 133.127 387.359,134.078 387.646,134.582 387.647 C 135.085 387.648,136.072 387.947,136.773 388.310 C 138.005 388.948,141.262 389.921,145.817 391.012 C 147.022 391.301,149.123 391.917,150.485 392.382 C 151.848 392.847,153.568 393.227,154.308 393.227 C 155.047 393.227,156.621 393.558,157.806 393.963 C 158.991 394.368,161.394 394.819,163.147 394.965 C 164.900 395.112,167.052 395.476,167.928 395.774 C 168.805 396.073,171.853 396.434,174.701 396.576 C 183.223 397.002,185.259 397.250,185.259 397.860 C 185.259 398.311,187.445 398.406,197.809 398.406 C 204.714 398.406,210.359 398.250,210.359 398.058 C 210.359 397.512,212.020 397.299,220.133 396.805 C 224.289 396.551,228.406 396.163,229.283 395.941 C 230.159 395.719,232.669 395.297,234.861 395.003 C 237.052 394.710,239.725 394.190,240.800 393.848 C 241.876 393.507,243.350 393.227,244.075 393.227 C 244.800 393.227,246.767 392.779,248.445 392.231 C 250.123 391.683,251.927 391.235,252.454 391.235 C 252.981 391.235,254.017 390.982,254.756 390.674 C 255.495 390.365,257.081 389.908,258.280 389.659 C 259.479 389.410,261.148 388.856,261.988 388.428 C 262.828 388.000,264.065 387.649,264.737 387.649 C 265.408 387.649,266.328 387.390,266.780 387.073 C 267.233 386.757,268.446 386.285,269.476 386.026 C 270.506 385.767,272.006 385.219,272.810 384.809 C 273.614 384.399,274.504 384.064,274.787 384.064 C 275.070 384.064,275.971 383.705,276.788 383.267 C 277.606 382.829,278.657 382.470,279.124 382.470 C 279.590 382.470,280.414 382.123,280.954 381.698 C 281.494 381.273,282.459 380.798,283.099 380.641 C 283.739 380.485,284.691 380.025,285.213 379.621 C 285.736 379.216,286.393 378.884,286.674 378.884 C 286.955 378.884,288.410 378.233,289.907 377.436 C 294.715 374.879,298.811 372.724,299.918 372.168 C 300.511 371.871,302.886 370.392,305.197 368.882 C 307.507 367.371,309.613 366.135,309.878 366.135 C 310.142 366.135,310.359 365.986,310.359 365.804 C 310.359 365.622,310.852 365.222,311.454 364.915 C 312.057 364.608,313.894 363.350,315.538 362.119 C 317.181 360.888,319.064 359.602,319.721 359.261 C 320.378 358.920,321.365 358.158,321.912 357.568 C 322.460 356.977,323.851 355.866,325.003 355.099 C 326.155 354.331,327.231 353.475,327.393 353.197 C 327.556 352.918,328.855 351.760,330.279 350.623 C 333.049 348.412,338.993 343.066,341.624 340.418 C 344.634 337.389,351.356 330.055,352.273 328.800 C 352.776 328.111,354.532 325.937,356.175 323.969 C 357.819 322.001,359.612 319.736,360.159 318.936 C 360.707 318.137,361.408 317.208,361.718 316.873 C 362.720 315.786,364.527 312.961,364.535 312.470 C 364.539 312.207,364.770 311.848,365.050 311.673 C 365.582 311.339,371.198 302.915,372.035 301.195 C 372.302 300.647,372.936 299.482,373.444 298.606 C 376.481 293.366,379.676 287.185,381.474 283.068 C 382.049 281.753,382.688 280.408,382.896 280.080 C 383.313 279.418,383.547 278.895,384.857 275.697 C 385.350 274.492,385.847 272.968,385.961 272.311 C 386.074 271.653,386.501 270.688,386.908 270.165 C 387.316 269.643,387.649 268.741,387.649 268.162 C 387.649 267.583,387.909 266.740,388.225 266.287 C 388.542 265.835,389.013 264.585,389.271 263.509 C 389.530 262.434,389.973 261.179,390.257 260.720 C 390.541 260.261,390.960 258.876,391.188 257.642 C 391.416 256.408,391.854 254.901,392.160 254.293 C 392.467 253.685,392.838 252.403,392.985 251.443 C 393.132 250.484,393.605 248.652,394.037 247.372 C 394.468 246.092,394.821 244.315,394.821 243.423 C 394.821 242.531,395.179 241.098,395.618 240.239 C 396.124 239.247,396.414 237.891,396.414 236.522 C 396.414 235.337,396.763 233.275,397.189 231.941 C 398.018 229.348,399.007 221.765,398.603 221.111 C 398.152 220.382,396.872 220.701,396.583 221.614 M101.729 264.321 C 101.874 264.697,101.992 265.260,101.992 265.570 C 101.992 265.881,102.183 266.135,102.417 266.135 C 103.040 266.135,102.688 264.038,102.028 263.821 C 101.634 263.691,101.545 263.840,101.729 264.321 M151.268 301.840 C 151.385 302.143,152.043 302.403,152.732 302.418 C 153.421 302.434,154.343 302.589,154.781 302.763 C 155.219 302.937,155.936 302.950,156.375 302.791 C 157.288 302.460,162.948 303.150,162.948 303.592 C 162.948 303.982,160.851 304.382,158.804 304.382 C 157.894 304.382,156.785 304.638,156.339 304.950 C 155.811 305.320,155.329 305.392,154.955 305.156 C 154.640 304.956,153.925 304.790,153.367 304.787 C 152.182 304.780,151.394 304.116,151.394 303.126 C 151.394 302.541,150.960 302.408,148.737 302.309 C 147.141 302.238,146.017 302.003,145.924 301.720 C 145.604 300.753,150.897 300.871,151.268 301.840 M175.649 305.141 C 176.023 305.378,175.554 305.577,174.173 305.767 C 172.153 306.045,171.315 305.866,171.315 305.156 C 171.315 304.684,174.909 304.672,175.649 305.141 M162.260 306.722 C 162.734 307.196,159.812 307.851,158.399 307.587 C 157.048 307.335,156.603 306.535,157.647 306.235 C 158.614 305.957,161.835 306.298,162.260 306.722 M183.913 310.075 C 184.472 310.634,183.746 310.728,177.779 310.872 C 172.586 310.998,171.613 311.123,170.916 311.753 C 170.125 312.469,170.064 312.466,168.563 311.623 C 167.716 311.147,166.734 310.757,166.380 310.757 C 165.402 310.757,165.613 310.033,166.633 309.888 C 168.422 309.634,183.636 309.799,183.913 310.075 " stroke="none" fill="#3453a3" fill-rule="evenodd"></path><path id="path2" d="M0.000 88.645 C 0.000 164.668,0.080 177.291,0.562 177.291 C 0.984 177.291,1.185 176.423,1.370 173.805 C 1.506 171.887,1.954 168.974,2.366 167.331 C 2.778 165.687,3.240 163.088,3.393 161.554 C 3.545 160.020,3.910 158.300,4.203 157.732 C 4.497 157.163,4.861 155.729,5.014 154.544 C 5.166 153.360,5.600 151.584,5.978 150.598 C 6.357 149.612,6.798 147.911,6.958 146.818 C 7.118 145.725,7.478 144.381,7.759 143.830 C 8.040 143.279,8.476 141.855,8.728 140.665 C 8.980 139.474,9.384 138.262,9.625 137.971 C 9.867 137.680,10.214 136.641,10.397 135.661 C 10.580 134.681,11.095 133.080,11.540 132.101 C 11.986 131.123,12.351 129.978,12.351 129.558 C 12.351 129.137,12.709 128.337,13.147 127.780 C 13.586 127.223,13.946 126.347,13.948 125.834 C 13.950 125.320,14.392 124.004,14.931 122.908 C 15.470 121.813,15.917 120.716,15.924 120.472 C 15.931 120.228,16.271 119.600,16.681 119.078 C 17.091 118.555,17.562 117.500,17.729 116.733 C 17.896 115.966,18.367 114.911,18.777 114.389 C 19.187 113.866,19.522 113.128,19.522 112.749 C 19.522 112.370,19.856 111.632,20.264 111.110 C 20.672 110.587,21.118 109.801,21.255 109.363 C 21.393 108.924,22.044 107.580,22.702 106.375 C 23.360 105.169,24.261 103.466,24.704 102.590 C 25.147 101.713,25.943 100.279,26.473 99.402 C 27.003 98.526,27.807 97.181,28.258 96.414 C 30.489 92.626,35.138 85.521,36.536 83.763 C 36.929 83.269,38.058 81.786,39.044 80.467 C 47.177 69.594,55.558 60.254,64.793 51.771 C 68.925 47.976,71.264 45.928,72.505 45.020 C 73.254 44.472,75.351 42.859,77.165 41.434 C 78.980 40.010,81.096 38.396,81.868 37.849 C 82.640 37.301,83.584 36.630,83.966 36.359 C 87.606 33.773,90.004 32.195,90.829 31.844 C 91.372 31.613,91.910 31.301,92.024 31.150 C 92.375 30.686,96.019 28.287,96.372 28.287 C 96.555 28.287,97.141 27.944,97.673 27.526 C 98.205 27.107,99.763 26.166,101.136 25.434 C 102.508 24.702,104.472 23.621,105.501 23.031 C 106.529 22.440,107.639 21.838,107.968 21.692 C 108.297 21.546,109.462 21.012,110.558 20.506 C 115.712 18.122,117.124 17.530,117.651 17.530 C 117.963 17.530,118.675 17.171,119.232 16.733 C 119.789 16.295,120.577 15.936,120.982 15.936 C 121.388 15.936,122.561 15.488,123.590 14.940 C 124.620 14.392,125.845 13.944,126.313 13.944 C 126.782 13.944,127.621 13.586,128.178 13.147 C 128.735 12.709,129.570 12.349,130.034 12.348 C 130.497 12.347,131.403 12.071,132.047 11.736 C 132.690 11.400,134.013 10.947,134.985 10.729 C 135.958 10.511,137.493 10.000,138.397 9.593 C 139.301 9.186,140.847 8.723,141.833 8.563 C 142.819 8.403,144.074 8.048,144.622 7.774 C 145.169 7.499,146.514 7.146,147.610 6.989 C 148.705 6.832,150.627 6.361,151.880 5.942 C 153.133 5.522,154.772 5.179,155.523 5.179 C 156.274 5.179,158.028 4.831,159.420 4.406 C 160.813 3.980,163.118 3.515,164.542 3.371 C 165.966 3.227,168.316 2.769,169.764 2.352 C 171.212 1.935,173.470 1.594,174.783 1.594 C 179.896 1.594,184.462 1.096,184.462 0.538 C 184.462 0.088,169.403 0.000,92.231 0.000 L 0.000 0.000 0.000 88.645 M219.522 0.598 C 219.522 0.948,219.893 1.200,220.418 1.207 C 224.015 1.256,231.191 2.030,232.669 2.528 C 233.655 2.860,235.986 3.258,237.849 3.411 C 239.711 3.564,241.683 3.915,242.231 4.191 C 242.779 4.467,244.482 4.888,246.016 5.127 C 247.550 5.365,249.831 5.923,251.086 6.366 C 252.340 6.809,253.915 7.171,254.586 7.171 C 255.256 7.171,256.202 7.424,256.687 7.732 C 257.173 8.041,258.638 8.510,259.944 8.774 C 261.250 9.038,262.684 9.483,263.131 9.762 C 263.578 10.041,264.661 10.392,265.538 10.543 C 266.414 10.693,267.518 11.065,267.991 11.369 C 268.464 11.673,269.719 12.134,270.780 12.392 C 271.841 12.650,273.157 13.083,273.705 13.353 C 274.253 13.623,275.867 14.332,277.291 14.929 C 278.715 15.526,280.598 16.356,281.474 16.773 C 282.351 17.191,283.247 17.535,283.466 17.539 C 283.880 17.545,295.364 23.201,296.414 23.915 C 297.785 24.848,299.958 26.120,302.390 27.416 C 303.815 28.175,305.966 29.457,307.171 30.266 C 308.376 31.075,310.169 32.251,311.155 32.879 C 312.141 33.508,313.396 34.413,313.944 34.890 C 314.492 35.368,316.195 36.626,317.729 37.686 C 319.262 38.746,320.966 40.000,321.514 40.474 C 323.908 42.543,327.022 45.217,328.597 46.557 C 329.534 47.355,330.982 48.635,331.815 49.402 C 332.647 50.169,334.032 51.405,334.891 52.149 C 339.058 55.754,342.887 59.675,349.310 66.910 C 349.807 67.470,350.941 68.735,351.830 69.721 C 353.571 71.651,354.293 72.526,358.332 77.600 C 359.775 79.413,360.956 81.000,360.956 81.127 C 360.956 81.254,361.808 82.399,362.849 83.671 C 363.889 84.943,365.509 87.121,366.449 88.510 C 370.069 93.865,371.713 96.446,371.713 96.773 C 371.713 96.960,371.969 97.326,372.281 97.585 C 374.898 99.757,377.384 108.558,376.508 112.550 C 375.478 117.246,370.642 124.303,368.455 124.303 C 368.208 124.303,367.017 124.770,365.810 125.341 C 363.250 126.552,353.213 126.933,350.797 125.911 C 350.139 125.633,348.436 125.084,347.012 124.690 C 340.681 122.944,336.713 121.097,323.307 113.660 C 321.554 112.687,319.851 111.732,319.522 111.536 C 319.193 111.341,317.938 110.669,316.733 110.043 C 305.658 104.288,303.453 103.187,303.004 103.187 C 302.720 103.187,302.274 102.930,302.013 102.615 C 301.752 102.301,301.010 101.927,300.365 101.785 C 299.719 101.644,297.625 100.738,295.711 99.774 C 293.797 98.809,291.942 98.017,291.588 98.014 C 291.234 98.011,290.488 97.649,289.931 97.211 C 289.374 96.773,288.675 96.414,288.377 96.414 C 288.080 96.414,287.171 96.058,286.358 95.622 C 285.544 95.186,284.202 94.663,283.375 94.460 C 282.549 94.258,280.124 93.360,277.986 92.464 C 275.849 91.569,273.874 90.837,273.598 90.837 C 273.322 90.837,272.471 90.502,271.707 90.093 C 270.944 89.684,269.691 89.215,268.924 89.050 C 268.157 88.885,267.171 88.557,266.733 88.320 C 265.045 87.409,260.667 85.983,258.725 85.713 C 257.608 85.557,256.264 85.148,255.737 84.805 C 255.211 84.462,253.889 84.048,252.798 83.885 C 251.708 83.722,250.146 83.248,249.328 82.831 C 248.510 82.413,247.251 82.068,246.530 82.063 C 245.809 82.058,244.412 81.686,243.426 81.236 C 240.348 79.831,230.508 79.192,224.303 79.995 C 219.426 80.626,218.327 80.907,218.327 81.524 C 218.327 82.197,217.846 82.089,222.330 82.424 C 225.490 82.660,226.284 82.857,227.012 83.585 C 227.494 84.068,228.157 84.462,228.486 84.462 C 228.815 84.462,229.084 84.635,229.084 84.847 C 229.084 85.509,230.743 86.158,233.788 86.687 C 235.740 87.026,237.451 87.637,238.890 88.509 L 241.056 89.822 240.150 90.520 C 239.651 90.903,238.974 91.224,238.645 91.232 C 238.114 91.246,238.114 91.290,238.645 91.633 C 239.712 92.323,241.303 92.083,241.945 91.135 C 242.435 90.414,242.654 90.336,243.070 90.737 C 243.353 91.011,243.896 91.235,244.274 91.235 C 244.653 91.235,245.202 91.474,245.493 91.765 C 246.098 92.370,247.604 92.799,250.199 93.108 C 252.427 93.372,252.575 93.499,251.246 94.005 C 250.518 94.281,249.580 94.265,248.228 93.953 C 246.756 93.613,245.568 93.616,243.475 93.961 C 241.939 94.215,237.894 94.422,234.485 94.422 C 230.619 94.422,228.287 94.572,228.287 94.821 C 228.287 95.066,230.387 95.224,233.765 95.232 C 239.741 95.246,247.508 96.110,247.733 96.786 C 247.811 97.020,248.801 97.217,249.934 97.224 C 251.409 97.232,252.444 97.514,253.586 98.218 C 254.690 98.898,255.760 99.200,257.072 99.201 C 258.413 99.203,259.190 99.429,259.739 99.978 C 260.165 100.404,261.196 100.874,262.030 101.022 C 262.864 101.171,264.105 101.629,264.788 102.041 C 265.471 102.452,266.279 102.789,266.584 102.789 C 267.296 102.789,270.876 104.663,271.912 105.579 C 272.351 105.966,273.113 106.405,273.606 106.555 C 274.099 106.704,274.502 107.083,274.502 107.397 C 274.502 107.711,274.771 107.968,275.100 107.968 C 275.428 107.968,275.697 108.156,275.697 108.386 C 275.697 108.615,276.169 109.240,276.746 109.775 C 278.114 111.043,279.457 116.731,278.523 117.308 C 278.284 117.456,278.087 117.880,278.086 118.251 C 278.082 119.574,273.203 124.020,270.972 124.734 C 270.174 124.989,269.163 125.523,268.725 125.920 C 268.287 126.317,266.981 126.767,265.822 126.920 C 264.433 127.103,263.589 127.435,263.344 127.894 C 263.063 128.419,262.214 128.660,259.885 128.879 C 258.019 129.054,256.637 129.386,256.388 129.719 C 256.110 130.091,254.651 130.356,251.905 130.533 C 249.667 130.677,247.929 130.948,248.044 131.135 C 248.358 131.643,256.334 131.555,256.851 131.038 C 257.091 130.797,258.381 130.526,259.717 130.435 C 261.053 130.343,263.268 130.072,264.639 129.831 C 266.010 129.590,268.566 129.345,270.319 129.285 C 272.072 129.226,273.820 129.156,274.203 129.131 C 274.744 129.094,274.900 128.724,274.900 127.478 C 274.900 125.487,275.672 125.088,277.557 126.104 C 278.763 126.753,278.980 126.768,279.511 126.237 C 280.232 125.517,279.893 124.424,278.848 124.092 C 277.777 123.752,277.901 123.108,279.037 123.108 C 279.663 123.108,280.060 123.389,280.203 123.934 C 280.322 124.388,280.791 124.858,281.245 124.976 C 282.307 125.254,282.312 126.165,281.253 126.501 C 280.803 126.644,280.506 126.970,280.593 127.225 C 280.827 127.909,279.310 129.084,278.193 129.084 C 277.560 129.084,277.305 129.256,277.457 129.582 C 277.584 129.856,277.799 130.393,277.935 130.777 C 278.070 131.160,278.525 131.474,278.945 131.474 C 279.982 131.474,281.673 132.628,281.673 133.336 C 281.673 133.653,281.853 133.801,282.072 133.665 C 282.291 133.530,282.470 133.620,282.470 133.865 C 282.470 134.110,282.637 134.207,282.841 134.081 C 283.045 133.955,283.301 133.996,283.411 134.173 C 283.843 134.873,286.532 134.679,287.871 133.851 C 288.617 133.389,289.395 133.115,289.599 133.241 C 289.803 133.367,290.339 132.976,290.789 132.373 C 291.272 131.725,291.613 131.510,291.621 131.849 C 291.630 132.269,291.781 132.222,292.181 131.675 C 292.709 130.953,292.737 130.957,293.004 131.798 C 293.156 132.277,293.459 132.669,293.677 132.669 C 294.342 132.669,293.599 136.319,292.575 138.087 C 291.335 140.226,291.605 142.127,293.173 142.309 C 294.276 142.437,296.942 141.169,296.630 140.665 C 296.223 140.006,297.849 140.422,298.329 141.099 C 299.444 142.669,301.670 141.894,301.159 140.113 C 300.686 138.463,300.699 137.450,301.195 137.450 C 301.414 137.450,301.594 137.876,301.594 138.397 C 301.594 139.328,302.462 140.433,302.871 140.024 C 302.986 139.909,303.307 140.363,303.584 141.033 C 303.862 141.702,304.347 142.395,304.663 142.571 C 304.979 142.748,305.337 143.685,305.459 144.653 C 305.580 145.622,305.982 146.773,306.352 147.211 C 308.065 149.242,312.113 156.944,312.540 158.983 C 312.698 159.740,313.051 160.717,313.325 161.155 C 313.599 161.594,314.051 162.669,314.329 163.546 C 314.607 164.422,315.058 165.677,315.330 166.335 C 316.139 168.287,317.472 173.738,317.733 176.158 C 317.867 177.397,318.341 179.369,318.788 180.540 C 320.698 185.551,320.521 211.953,318.526 219.721 C 317.963 221.912,317.233 225.373,316.904 227.412 C 316.342 230.895,315.575 233.385,314.057 236.653 C 313.701 237.420,313.258 238.855,313.073 239.841 C 312.650 242.097,309.402 249.735,307.711 252.452 C 307.008 253.582,306.264 255.117,306.058 255.864 C 305.852 256.611,305.062 258.107,304.304 259.189 C 303.545 260.270,302.432 262.187,301.831 263.448 C 301.229 264.709,300.504 265.972,300.221 266.256 C 299.937 266.540,299.408 267.346,299.045 268.047 C 298.683 268.749,298.233 269.323,298.046 269.323 C 297.859 269.323,297.502 269.816,297.252 270.418 C 297.002 271.021,295.727 272.679,294.418 274.104 C 293.109 275.528,292.036 276.820,292.035 276.974 C 292.032 277.243,287.433 282.236,283.665 286.059 C 282.679 287.060,281.379 288.190,280.777 288.570 C 278.325 290.118,279.785 291.631,283.739 291.638 C 285.123 291.641,287.636 291.982,289.324 292.396 C 291.011 292.811,294.149 293.271,296.296 293.419 C 298.443 293.568,301.345 293.862,302.745 294.072 C 305.995 294.561,317.151 293.525,320.319 292.439 C 321.524 292.027,323.141 291.586,323.912 291.461 C 324.683 291.336,325.982 290.875,326.799 290.438 C 327.616 290.000,328.570 289.641,328.920 289.641 C 329.269 289.641,330.011 289.283,330.569 288.845 C 331.126 288.406,331.806 288.048,332.080 288.048 C 332.354 288.048,334.133 287.241,336.034 286.255 C 337.935 285.269,339.669 284.462,339.888 284.462 C 340.251 284.462,342.842 282.581,344.142 281.375 C 344.437 281.101,344.861 280.876,345.085 280.876 C 345.309 280.876,345.968 280.509,346.551 280.060 C 347.133 279.611,348.775 278.348,350.199 277.254 C 353.607 274.637,355.870 272.723,358.260 270.439 C 359.337 269.410,360.967 267.878,361.882 267.034 C 363.457 265.582,368.018 260.825,371.510 256.993 C 373.199 255.138,374.598 253.421,375.896 251.605 C 376.335 250.992,377.903 248.992,379.382 247.159 C 380.862 245.326,382.072 243.716,382.072 243.580 C 382.072 243.444,382.565 242.754,383.167 242.048 C 383.770 241.341,384.532 240.351,384.861 239.848 C 385.189 239.345,385.862 238.439,386.355 237.835 C 386.848 237.232,387.251 236.573,387.251 236.372 C 387.251 236.171,387.591 235.642,388.005 235.197 C 388.420 234.752,389.055 233.866,389.416 233.229 C 389.776 232.593,390.504 231.355,391.032 230.478 C 391.561 229.602,392.219 228.436,392.495 227.888 C 392.771 227.341,393.368 226.432,393.822 225.870 C 394.276 225.307,395.179 223.827,395.829 222.580 C 396.480 221.333,397.325 220.213,397.708 220.090 C 398.091 219.968,398.514 219.431,398.648 218.898 C 398.782 218.365,399.141 217.928,399.446 217.928 C 399.918 217.928,400.000 201.783,400.000 108.964 L 400.000 0.000 309.761 0.000 C 229.814 0.000,219.522 0.068,219.522 0.598 M213.661 83.267 C 213.547 83.705,213.126 84.064,212.726 84.064 C 211.787 84.064,211.385 84.710,212.142 85.001 C 212.463 85.124,212.962 84.989,213.250 84.701 C 213.538 84.413,214.440 83.936,215.254 83.642 C 217.127 82.964,217.147 82.470,215.301 82.470 C 214.205 82.470,213.821 82.657,213.661 83.267 M208.765 87.450 C 208.765 88.195,208.975 88.446,209.599 88.446 C 210.085 88.446,210.516 88.764,210.632 89.206 C 210.831 89.968,212.195 90.581,212.825 90.192 C 213.344 89.871,212.786 89.243,211.980 89.243 C 211.583 89.243,210.832 88.617,210.310 87.851 C 209.188 86.203,208.765 86.093,208.765 87.450 M222.112 91.829 C 221.892 91.902,221.240 92.066,220.661 92.193 C 218.222 92.728,219.014 93.625,221.925 93.625 C 224.792 93.625,225.371 93.225,224.004 92.188 C 223.309 91.661,222.868 91.577,222.112 91.829 M89.243 104.653 C 85.036 104.962,80.844 105.642,79.804 106.185 C 79.189 106.505,78.147 106.771,77.490 106.774 C 76.833 106.778,75.336 107.227,74.164 107.773 C 72.991 108.318,71.716 108.765,71.329 108.765 C 70.942 108.765,70.184 109.112,69.644 109.537 C 69.104 109.962,68.139 110.437,67.498 110.594 C 66.858 110.750,65.907 111.210,65.385 111.615 C 64.862 112.019,64.127 112.351,63.752 112.351 C 63.377 112.351,62.663 112.704,62.165 113.136 C 61.667 113.567,60.881 114.041,60.419 114.188 C 59.956 114.334,59.125 114.760,58.573 115.133 C 58.021 115.506,56.763 116.327,55.777 116.957 C 54.791 117.587,53.715 118.331,53.386 118.611 C 51.698 120.048,50.252 121.116,49.995 121.116 C 49.382 121.116,41.484 128.266,35.471 134.264 C 30.953 138.770,29.665 140.164,26.494 143.981 C 25.618 145.036,24.183 146.761,23.307 147.814 C 22.430 148.868,21.265 150.385,20.717 151.185 C 20.169 151.985,19.001 153.570,18.121 154.706 C 17.241 155.843,16.019 157.490,15.406 158.367 C 14.793 159.243,13.687 160.767,12.947 161.753 C 12.207 162.739,11.238 164.212,10.794 165.027 C 10.078 166.339,9.420 167.377,7.171 170.742 C 5.877 172.678,3.586 176.847,3.586 177.265 C 3.586 177.508,3.151 177.904,2.620 178.146 C 2.089 178.388,1.548 179.012,1.417 179.532 C 1.287 180.052,0.915 180.478,0.590 180.478 C 0.070 180.478,0.000 193.474,0.000 289.442 L 0.000 398.406 91.235 398.406 C 144.397 398.406,182.470 398.258,182.470 398.051 C 182.470 397.481,181.030 397.273,175.100 396.984 C 171.514 396.810,168.739 396.459,167.331 396.003 C 166.125 395.612,163.963 395.196,162.524 395.079 C 161.086 394.961,158.579 394.496,156.954 394.046 C 155.330 393.596,153.498 393.227,152.884 393.227 C 152.270 393.227,151.101 392.947,150.286 392.605 C 149.471 392.264,147.563 391.722,146.046 391.401 C 144.528 391.080,143.094 390.663,142.858 390.474 C 142.623 390.285,141.624 390.000,140.637 389.841 C 139.651 389.683,138.127 389.230,137.251 388.836 C 136.375 388.442,134.940 387.994,134.064 387.840 C 133.187 387.686,132.073 387.311,131.588 387.007 C 131.102 386.703,130.516 386.454,130.284 386.454 C 129.746 386.454,123.288 383.928,121.713 383.102 C 121.056 382.757,120.277 382.474,119.982 382.473 C 119.687 382.471,118.970 382.141,118.388 381.738 C 117.807 381.335,116.524 380.725,115.538 380.381 C 112.394 379.286,110.991 378.674,109.562 377.773 C 108.795 377.291,108.002 376.895,107.800 376.894 C 107.598 376.893,107.150 376.642,106.804 376.336 C 106.458 376.030,104.438 374.880,102.315 373.781 C 98.969 372.049,96.301 370.411,88.645 365.388 C 87.769 364.813,86.991 364.204,86.916 364.035 C 86.842 363.866,86.231 363.444,85.559 363.097 C 84.887 362.749,84.142 362.298,83.902 362.095 C 83.662 361.891,82.111 360.700,80.454 359.448 C 76.433 356.408,72.178 352.874,69.319 350.199 C 68.031 348.994,64.859 346.036,62.269 343.625 C 58.271 339.903,55.586 337.065,48.606 329.181 C 48.058 328.563,46.892 327.192,46.016 326.134 C 45.139 325.077,43.616 323.260,42.629 322.095 C 40.253 319.289,37.940 316.225,36.365 313.795 C 35.659 312.705,34.938 311.710,34.763 311.584 C 34.587 311.458,34.104 310.821,33.688 310.170 C 33.272 309.518,32.781 308.801,32.596 308.576 C 31.618 307.385,28.304 302.129,28.296 301.755 C 28.291 301.515,27.963 301.026,27.567 300.667 C 24.616 297.996,22.395 287.840,24.067 284.661 C 24.413 284.004,24.697 283.156,24.699 282.777 C 24.701 282.118,26.596 278.972,28.223 276.925 C 29.155 275.753,31.163 274.629,35.333 272.946 C 37.938 271.894,46.572 271.763,49.203 272.736 C 50.080 273.060,51.648 273.495,52.688 273.704 C 53.728 273.912,55.377 274.446,56.351 274.890 C 57.326 275.334,58.333 275.697,58.589 275.697 C 59.029 275.697,59.739 276.030,64.202 278.329 C 65.220 278.854,66.313 279.283,66.630 279.283 C 66.948 279.283,67.532 279.641,67.928 280.080 C 68.325 280.518,69.048 280.876,69.535 280.876 C 70.022 280.876,70.656 281.160,70.943 281.507 C 71.467 282.137,72.096 282.504,76.205 284.570 C 77.413 285.178,79.029 286.101,79.797 286.622 C 80.564 287.143,81.615 287.701,82.130 287.861 C 82.646 288.021,83.516 288.467,84.064 288.852 C 84.612 289.237,87.122 290.574,89.641 291.824 C 92.161 293.074,94.671 294.345,95.219 294.649 C 95.767 294.954,97.291 295.668,98.606 296.238 C 101.910 297.670,105.177 299.172,106.436 299.838 C 107.018 300.146,107.798 300.398,108.170 300.398 C 108.542 300.398,109.770 300.876,110.897 301.460 C 114.283 303.214,114.903 303.506,116.550 304.125 C 117.418 304.451,119.382 305.194,120.916 305.776 C 122.450 306.358,124.691 307.107,125.896 307.440 C 127.102 307.773,128.181 308.196,128.295 308.380 C 128.612 308.893,130.601 309.562,131.810 309.562 C 132.404 309.562,133.244 309.803,133.676 310.097 C 134.109 310.392,135.359 310.852,136.454 311.119 C 137.550 311.387,138.807 311.839,139.247 312.124 C 139.687 312.409,141.020 312.850,142.208 313.105 C 143.396 313.360,144.559 313.726,144.794 313.919 C 145.028 314.111,146.246 314.458,147.500 314.689 C 148.755 314.920,150.278 315.361,150.886 315.670 C 151.495 315.979,152.886 316.361,153.979 316.521 C 155.072 316.680,156.439 317.055,157.018 317.354 C 159.753 318.769,172.559 319.662,177.500 318.783 C 182.722 317.854,182.587 317.249,177.046 316.758 C 174.880 316.566,172.570 316.124,171.912 315.776 C 171.255 315.428,170.090 315.042,169.323 314.917 C 168.556 314.792,167.480 314.501,166.932 314.270 C 166.384 314.039,164.814 313.611,163.443 313.320 C 162.071 313.028,160.552 312.511,160.067 312.171 C 159.582 311.832,158.822 311.553,158.377 311.551 C 157.933 311.550,157.032 311.192,156.375 310.757 C 155.717 310.322,154.910 309.965,154.582 309.966 C 153.447 309.966,138.441 302.243,136.628 300.725 C 135.628 299.888,134.658 299.203,134.473 299.203 C 134.288 299.203,133.223 298.515,132.108 297.675 C 130.992 296.834,129.676 295.931,129.182 295.668 C 128.688 295.405,127.679 294.585,126.940 293.845 C 126.200 293.106,125.080 292.226,124.451 291.890 C 123.822 291.554,122.460 290.507,121.425 289.564 C 120.390 288.621,118.437 286.863,117.083 285.657 C 115.730 284.452,114.336 283.130,113.985 282.719 C 112.808 281.342,110.169 278.364,109.163 277.278 C 108.616 276.687,107.809 275.694,107.371 275.072 C 106.548 273.906,104.372 271.268,103.941 270.916 C 103.807 270.807,103.384 270.106,103.001 269.360 C 102.619 268.614,102.148 267.807,101.956 267.567 C 99.981 265.108,99.600 264.580,99.591 264.285 C 99.585 264.098,98.772 262.873,97.783 261.564 C 96.795 260.255,95.879 258.731,95.748 258.178 C 95.618 257.624,95.296 256.902,95.035 256.574 C 94.029 255.310,92.808 252.866,92.091 250.682 C 91.680 249.430,90.781 247.519,90.094 246.436 C 89.407 245.352,88.845 244.133,88.845 243.726 C 88.845 243.319,88.503 242.324,88.085 241.513 C 86.302 238.055,85.450 235.292,83.701 227.291 C 83.317 225.538,82.795 223.476,82.541 222.709 C 80.159 215.542,80.382 181.209,82.840 176.536 C 83.184 175.883,84.168 171.575,85.034 166.932 C 85.300 165.508,85.818 163.769,86.185 163.068 C 86.552 162.366,86.853 161.557,86.853 161.269 C 86.853 160.981,87.198 160.100,87.621 159.311 C 88.044 158.522,88.513 157.219,88.664 156.415 C 88.815 155.611,89.343 154.356,89.838 153.627 C 90.333 152.898,91.214 151.066,91.797 149.557 C 92.379 148.048,93.022 146.512,93.225 146.145 C 93.429 145.778,94.342 144.075,95.256 142.360 C 96.169 140.646,97.521 138.298,98.259 137.144 C 98.997 135.989,99.602 134.909,99.602 134.745 C 99.602 133.954,105.363 126.621,110.852 120.424 C 116.035 114.573,118.116 112.489,120.452 110.807 L 122.319 109.462 121.267 108.487 C 120.572 107.843,119.455 107.395,117.976 107.167 C 107.612 105.571,104.261 105.143,99.380 104.789 C 93.923 104.393,92.965 104.380,89.243 104.653 M294.381 127.338 C 294.635 127.556,292.659 128.210,292.331 128.017 C 292.166 127.921,292.032 127.580,292.032 127.260 C 292.032 126.743,293.752 126.801,294.381 127.338 M271.707 127.390 C 271.699 127.772,270.931 128.975,270.922 128.618 C 270.919 128.472,270.808 128.068,270.675 127.722 C 270.516 127.308,270.653 127.092,271.073 127.092 C 271.425 127.092,271.710 127.226,271.707 127.390 M399.065 221.017 C 398.963 221.181,398.760 223.019,398.613 225.100 C 398.466 227.182,398.016 230.319,397.613 232.072 C 397.210 233.825,396.790 236.270,396.680 237.505 C 396.571 238.740,396.201 240.294,395.858 240.957 C 395.515 241.620,395.116 243.209,394.972 244.488 C 394.828 245.766,394.465 247.300,394.164 247.895 C 393.864 248.490,393.365 250.104,393.054 251.481 C 392.744 252.858,392.215 254.701,391.880 255.578 C 391.545 256.454,391.256 257.620,391.239 258.167 C 391.222 258.715,390.862 259.880,390.438 260.757 C 390.015 261.633,389.662 262.716,389.655 263.163 C 389.648 263.609,389.293 264.658,388.868 265.493 C 388.442 266.327,387.976 267.575,387.833 268.266 C 387.689 268.957,387.293 269.960,386.954 270.495 C 386.614 271.030,386.196 272.016,386.026 272.686 C 385.484 274.813,383.946 278.647,383.195 279.743 C 382.796 280.324,382.470 280.987,382.470 281.216 C 382.470 281.444,382.022 282.474,381.474 283.504 C 380.926 284.535,380.478 285.688,380.478 286.066 C 380.478 286.445,380.218 286.971,379.901 287.234 C 379.583 287.498,379.109 288.371,378.847 289.175 C 378.585 289.979,378.038 291.065,377.631 291.588 C 377.225 292.110,376.892 292.696,376.892 292.888 C 376.892 293.209,375.709 295.342,373.426 299.139 C 372.943 299.941,372.323 301.046,372.047 301.594 C 371.771 302.141,370.866 303.633,370.036 304.909 C 369.205 306.184,368.526 307.302,368.526 307.394 C 368.526 307.790,365.538 311.952,365.254 311.952 C 365.081 311.952,364.940 312.198,364.940 312.499 C 364.940 312.800,364.089 314.136,363.048 315.469 C 362.007 316.801,360.707 318.538,360.159 319.328 C 359.612 320.118,358.977 320.978,358.749 321.239 C 358.521 321.500,358.072 322.091,357.753 322.553 C 357.433 323.014,356.185 324.517,354.980 325.892 C 353.775 327.267,352.520 328.782,352.191 329.259 C 351.489 330.279,349.586 332.391,346.813 335.230 C 345.717 336.352,343.818 338.341,342.592 339.651 C 340.002 342.417,334.395 347.602,330.677 350.668 C 329.253 351.843,327.550 353.316,326.892 353.942 C 326.235 354.567,325.070 355.485,324.303 355.980 C 323.536 356.476,322.382 357.440,321.738 358.122 C 321.095 358.804,320.362 359.363,320.109 359.363 C 319.634 359.363,318.232 360.343,314.550 363.247 C 313.370 364.178,312.272 364.940,312.110 364.940 C 311.948 364.940,311.500 365.226,311.115 365.575 C 310.729 365.924,309.867 366.506,309.199 366.870 C 308.530 367.233,306.348 368.561,304.349 369.821 C 302.351 371.081,300.492 372.112,300.220 372.112 C 299.948 372.112,299.415 372.454,299.036 372.873 C 298.658 373.291,297.868 373.753,297.281 373.900 C 296.695 374.046,295.946 374.399,295.618 374.684 C 294.882 375.321,291.169 377.291,290.702 377.291 C 290.515 377.291,289.886 377.623,289.305 378.030 C 288.723 378.436,287.723 378.895,287.083 379.050 C 286.443 379.205,285.478 379.680,284.938 380.104 C 284.398 380.529,283.662 380.876,283.302 380.876 C 282.942 380.876,282.283 381.132,281.837 381.444 C 281.392 381.756,280.052 382.361,278.860 382.789 C 277.668 383.217,275.707 383.968,274.502 384.458 C 273.297 384.948,271.504 385.610,270.518 385.928 C 269.532 386.246,268.187 386.756,267.530 387.061 C 266.873 387.367,265.618 387.740,264.741 387.891 C 263.865 388.041,262.535 388.490,261.786 388.889 C 261.037 389.287,259.603 389.732,258.598 389.877 C 257.594 390.023,256.469 390.299,256.097 390.492 C 255.725 390.684,254.074 391.100,252.427 391.415 C 250.780 391.730,249.042 392.197,248.564 392.453 C 248.086 392.708,246.421 393.077,244.863 393.273 C 243.306 393.468,241.155 393.919,240.084 394.275 C 239.013 394.630,236.682 395.058,234.905 395.225 C 233.128 395.393,230.687 395.802,229.482 396.135 C 228.277 396.468,225.050 396.860,222.311 397.005 C 216.906 397.293,215.538 397.504,215.538 398.051 C 215.538 398.258,254.023 398.406,307.769 398.406 L 400.000 398.406 400.000 309.562 C 400.000 254.312,399.858 220.717,399.625 220.717 C 399.419 220.717,399.167 220.852,399.065 221.017 " stroke="none" fill="#fafbfb" fill-rule="evenodd"></path></g></svg>