<svg id="svg" version="1.1" xmlns="http://www.w3.org/2000/svg" xmlns:xlink="http://www.w3.org/1999/xlink" width="400" height="400" viewBox="0, 0, 400,400"><g id="svgg"><path id="path0" d="M178.300 0.274 C 176.375 0.360,174.800 0.604,174.800 0.816 C 174.800 1.027,173.461 1.200,171.824 1.200 C 170.187 1.200,168.736 1.380,168.600 1.600 C 168.464 1.820,167.478 2.000,166.410 2.000 C 165.341 2.000,164.407 2.170,164.333 2.378 C 164.260 2.586,163.255 2.798,162.100 2.849 C 160.945 2.901,160.000 3.091,160.000 3.271 C 160.000 3.452,159.201 3.600,158.224 3.600 C 157.247 3.600,156.336 3.780,156.200 4.000 C 156.064 4.220,155.243 4.400,154.376 4.400 C 153.509 4.400,152.800 4.580,152.800 4.800 C 152.800 5.020,152.080 5.200,151.200 5.200 C 150.320 5.200,149.600 5.380,149.600 5.600 C 149.600 5.820,149.071 6.000,148.424 6.000 C 147.777 6.000,147.136 6.180,147.000 6.400 C 146.864 6.620,146.234 6.800,145.600 6.800 C 144.966 6.800,144.336 6.980,144.200 7.200 C 144.064 7.420,143.333 7.600,142.576 7.600 C 141.819 7.600,141.200 7.780,141.200 8.000 C 141.200 8.220,140.771 8.400,140.246 8.400 C 139.355 8.400,136.018 9.285,134.200 10.003 C 133.760 10.177,132.770 10.536,132.000 10.800 C 130.307 11.382,128.840 11.971,127.905 12.447 C 127.523 12.641,126.848 12.800,126.405 12.800 C 125.962 12.800,125.600 12.980,125.600 13.200 C 125.600 13.420,125.240 13.600,124.800 13.600 C 124.360 13.600,124.000 13.780,124.000 14.000 C 124.000 14.220,123.550 14.400,123.000 14.400 C 122.450 14.400,122.000 14.580,122.000 14.800 C 122.000 15.020,121.550 15.200,121.000 15.200 C 120.450 15.200,120.000 15.380,120.000 15.600 C 120.000 15.820,119.640 16.000,119.200 16.000 C 118.760 16.000,118.400 16.180,118.400 16.400 C 118.400 16.620,118.164 16.800,117.875 16.800 C 117.586 16.800,116.371 17.265,115.175 17.834 C 113.979 18.403,112.010 19.342,110.800 19.920 C 109.590 20.498,108.540 21.112,108.467 21.285 C 108.393 21.458,107.988 21.600,107.567 21.600 C 107.145 21.600,106.800 21.780,106.800 22.000 C 106.800 22.220,106.440 22.400,106.000 22.400 C 105.560 22.400,105.200 22.580,105.200 22.800 C 105.200 23.020,104.930 23.200,104.600 23.200 C 104.270 23.200,104.000 23.380,104.000 23.600 C 104.000 23.820,103.730 24.000,103.400 24.000 C 103.070 24.000,102.800 24.180,102.800 24.400 C 102.800 24.620,102.536 24.800,102.214 24.800 C 101.401 24.800,98.800 26.076,98.800 26.474 C 98.800 26.653,98.440 26.800,98.000 26.800 C 97.560 26.800,97.200 26.980,97.200 27.200 C 97.200 27.420,96.964 27.600,96.675 27.600 C 96.387 27.600,95.802 27.915,95.375 28.300 C 94.949 28.685,94.060 29.269,93.400 29.597 C 92.740 29.926,91.909 30.511,91.553 30.897 C 91.197 31.284,90.652 31.600,90.341 31.600 C 90.031 31.600,89.517 31.960,89.200 32.400 C 88.883 32.840,88.343 33.200,88.000 33.200 C 87.657 33.200,87.117 33.560,86.800 34.000 C 86.483 34.440,85.991 34.800,85.708 34.800 C 85.425 34.800,84.628 35.340,83.937 36.000 C 83.246 36.660,82.478 37.200,82.229 37.200 C 81.980 37.200,81.517 37.560,81.200 38.000 C 80.883 38.440,80.293 38.800,79.888 38.800 C 79.484 38.800,79.247 38.953,79.363 39.140 C 79.478 39.327,79.129 39.717,78.586 40.007 C 78.044 40.298,77.600 40.685,77.600 40.868 C 77.600 41.050,77.396 41.200,77.147 41.200 C 76.898 41.200,76.358 41.588,75.947 42.061 C 75.536 42.535,75.200 42.803,75.200 42.658 C 75.200 42.512,74.633 42.935,73.941 43.597 C 73.248 44.258,72.535 44.800,72.356 44.800 C 72.177 44.800,71.349 45.481,70.515 46.314 C 69.682 47.147,68.370 48.269,67.600 48.807 C 66.830 49.346,64.439 51.590,62.287 53.793 C 57.571 58.623,58.617 57.577,53.700 62.373 C 51.445 64.573,49.600 66.466,49.600 66.581 C 49.600 66.881,48.485 68.197,46.300 70.473 C 45.255 71.562,44.400 72.613,44.400 72.808 C 44.400 73.004,43.942 73.622,43.382 74.182 C 42.822 74.742,42.489 75.200,42.643 75.200 C 42.797 75.200,42.535 75.536,42.061 75.947 C 41.588 76.358,41.200 76.898,41.200 77.147 C 41.200 77.396,41.050 77.600,40.868 77.600 C 40.685 77.600,40.298 78.044,40.007 78.586 C 39.717 79.129,39.327 79.478,39.140 79.363 C 38.953 79.247,38.800 79.457,38.800 79.829 C 38.800 80.202,38.484 80.797,38.097 81.153 C 37.711 81.509,37.140 82.295,36.830 82.900 C 36.519 83.505,36.115 84.000,35.932 84.000 C 35.750 84.000,35.600 84.281,35.600 84.624 C 35.600 84.993,35.412 85.131,35.138 84.962 C 34.862 84.791,34.785 84.851,34.946 85.112 C 35.094 85.352,34.762 86.002,34.208 86.556 C 33.653 87.110,33.200 87.842,33.200 88.182 C 33.200 88.522,33.050 88.800,32.868 88.800 C 32.685 88.800,32.281 89.295,31.970 89.900 C 31.660 90.505,31.089 91.291,30.703 91.647 C 30.316 92.003,30.000 92.588,30.000 92.947 C 30.000 93.306,29.820 93.600,29.600 93.600 C 29.380 93.600,29.200 93.870,29.200 94.200 C 29.200 94.530,29.050 94.800,28.868 94.800 C 28.685 94.800,28.280 95.295,27.968 95.900 C 27.656 96.505,27.310 97.090,27.198 97.200 C 26.670 97.718,24.800 101.582,24.800 102.154 C 24.800 102.509,24.620 102.800,24.400 102.800 C 24.180 102.800,24.000 103.070,24.000 103.400 C 24.000 103.730,23.854 104.000,23.675 104.000 C 23.496 104.000,23.102 104.630,22.800 105.400 C 22.498 106.170,22.104 106.800,21.925 106.800 C 21.746 106.800,21.600 107.145,21.600 107.567 C 21.600 107.988,21.465 108.393,21.300 108.467 C 20.868 108.659,19.200 111.972,19.200 112.638 C 19.200 112.947,19.065 113.201,18.900 113.203 C 18.541 113.207,17.600 115.144,17.600 115.880 C 17.600 116.166,17.420 116.400,17.200 116.400 C 16.980 116.400,16.800 116.850,16.800 117.400 C 16.800 117.950,16.620 118.400,16.400 118.400 C 16.180 118.400,16.000 118.760,16.000 119.200 C 16.000 119.640,15.853 120.000,15.672 120.000 C 15.492 120.000,15.100 120.900,14.800 122.000 C 14.500 123.100,14.108 124.000,13.928 124.000 C 13.747 124.000,13.600 124.360,13.600 124.800 C 13.600 125.240,13.420 125.600,13.200 125.600 C 12.980 125.600,12.800 125.962,12.800 126.405 C 12.800 126.848,12.641 127.523,12.447 127.905 C 11.971 128.840,11.382 130.307,10.800 132.000 C 10.536 132.770,10.177 133.760,10.003 134.200 C 9.292 136.000,8.400 139.351,8.400 140.222 C 8.400 140.734,8.220 141.264,8.000 141.400 C 7.780 141.536,7.600 142.166,7.600 142.800 C 7.600 143.434,7.420 144.064,7.200 144.200 C 6.980 144.336,6.800 144.876,6.800 145.400 C 6.800 145.924,6.620 146.464,6.400 146.600 C 6.180 146.736,6.000 147.467,6.000 148.224 C 6.000 148.981,5.820 149.600,5.600 149.600 C 5.380 149.600,5.200 150.320,5.200 151.200 C 5.200 152.080,5.020 152.800,4.800 152.800 C 4.580 152.800,4.400 153.509,4.400 154.376 C 4.400 155.243,4.220 156.064,4.000 156.200 C 3.780 156.336,3.600 157.247,3.600 158.224 C 3.600 159.201,3.420 160.000,3.200 160.000 C 2.980 160.000,2.800 160.889,2.800 161.976 C 2.800 163.063,2.620 164.064,2.400 164.200 C 2.180 164.336,2.000 165.416,2.000 166.600 C 2.000 167.784,1.820 168.864,1.600 169.000 C 1.380 169.136,1.200 170.371,1.200 171.744 C 1.200 173.207,0.993 174.447,0.700 174.740 C 0.311 175.129,0.200 180.743,0.200 200.087 C 0.200 219.608,0.307 224.969,0.700 225.100 C 1.036 225.212,1.200 226.176,1.200 228.033 C 1.200 229.611,1.372 230.800,1.600 230.800 C 1.822 230.800,2.000 231.859,2.000 233.176 C 2.000 234.483,2.180 235.664,2.400 235.800 C 2.620 235.936,2.800 236.836,2.800 237.800 C 2.800 238.764,2.980 239.664,3.200 239.800 C 3.420 239.936,3.600 240.757,3.600 241.624 C 3.600 242.491,3.780 243.200,4.000 243.200 C 4.220 243.200,4.400 244.085,4.400 245.167 C 4.400 246.248,4.563 247.193,4.763 247.267 C 4.963 247.340,5.184 248.030,5.254 248.800 C 5.325 249.570,5.521 250.300,5.690 250.423 C 5.859 250.545,6.049 251.175,6.112 251.823 C 6.175 252.470,6.551 253.605,6.947 254.344 C 7.342 255.083,7.471 255.568,7.233 255.420 C 6.995 255.273,6.800 255.364,6.800 255.623 C 6.800 255.901,7.137 256.005,7.623 255.878 C 8.214 255.723,8.341 255.795,8.073 256.131 C 7.638 256.678,7.703 258.246,8.180 258.692 C 8.361 258.861,8.416 258.484,8.301 257.853 C 8.114 256.820,9.042 255.200,9.822 255.200 C 9.944 255.200,11.104 254.120,12.400 252.800 C 13.696 251.480,14.957 250.400,15.204 250.400 C 15.450 250.400,16.529 249.500,17.600 248.400 C 18.671 247.300,19.746 246.400,19.987 246.400 C 20.229 246.400,21.031 245.815,21.770 245.100 C 22.509 244.385,23.669 243.378,24.347 242.863 C 25.025 242.348,26.304 241.223,27.190 240.363 C 28.076 239.503,28.992 238.800,29.226 238.800 C 29.460 238.800,30.529 237.900,31.600 236.800 C 32.671 235.700,33.750 234.800,33.996 234.800 C 34.243 234.800,35.504 233.720,36.800 232.400 C 38.096 231.080,39.352 230.000,39.591 230.000 C 39.831 230.000,40.636 229.415,41.381 228.700 C 42.125 227.985,43.387 226.860,44.185 226.200 C 44.982 225.540,46.251 224.415,47.004 223.700 C 47.757 222.985,48.571 222.400,48.813 222.400 C 49.054 222.400,50.129 221.500,51.200 220.400 C 52.271 219.300,53.350 218.400,53.596 218.400 C 53.843 218.400,55.104 217.320,56.400 216.000 C 57.696 214.680,58.870 213.600,59.009 213.600 C 59.149 213.600,59.927 212.909,60.739 212.064 C 61.551 211.218,62.650 210.294,63.182 210.009 C 64.328 209.396,64.797 209.026,66.608 207.300 C 67.359 206.585,68.165 206.000,68.400 206.000 C 68.635 206.000,69.430 205.397,70.167 204.659 C 72.282 202.545,72.397 201.303,72.428 180.280 C 72.444 169.896,72.579 161.094,72.728 160.721 C 73.026 159.977,73.820 160.692,87.002 173.564 C 94.372 180.760,96.400 182.460,96.400 181.441 C 96.400 180.803,92.299 176.386,81.400 165.283 C 77.880 161.697,74.938 158.484,74.863 158.143 C 74.778 157.758,82.419 149.843,94.991 137.293 L 115.255 117.063 123.528 125.264 C 132.820 134.476,139.587 141.003,141.449 142.548 L 142.697 143.585 143.945 142.392 C 144.631 141.737,145.384 141.200,145.619 141.200 C 145.853 141.200,147.104 140.120,148.400 138.800 C 149.696 137.480,150.957 136.400,151.204 136.400 C 151.450 136.400,152.529 135.500,153.600 134.400 C 154.671 133.300,155.751 132.400,156.000 132.400 C 156.249 132.400,157.329 131.500,158.400 130.400 C 159.471 129.300,160.456 128.400,160.588 128.400 C 160.813 128.400,161.309 127.981,163.786 125.700 C 164.324 125.205,164.964 124.800,165.208 124.800 C 165.452 124.800,166.529 123.900,167.600 122.800 C 168.671 121.700,169.750 120.800,169.996 120.800 C 170.243 120.800,171.504 119.720,172.800 118.400 C 174.096 117.080,175.267 116.000,175.404 116.000 C 175.540 116.000,176.529 115.100,177.600 114.000 C 178.671 112.900,179.746 112.000,179.988 112.000 C 180.398 112.000,180.804 111.677,183.386 109.300 C 183.924 108.805,184.564 108.400,184.808 108.400 C 185.052 108.400,186.129 107.500,187.200 106.400 C 188.271 105.300,189.364 104.400,189.627 104.400 C 190.150 104.400,191.600 102.885,191.600 102.339 C 191.600 102.152,191.804 102.000,192.053 102.000 C 192.556 102.000,194.000 100.471,194.000 99.939 C 194.000 99.752,194.282 99.600,194.626 99.600 C 194.970 99.600,196.129 98.700,197.200 97.600 C 198.271 96.500,199.346 95.600,199.588 95.600 C 199.830 95.600,200.427 95.236,200.914 94.791 C 203.514 92.419,204.518 91.600,204.832 91.600 C 205.023 91.600,205.989 90.790,206.979 89.800 C 207.969 88.810,208.885 88.000,209.015 88.000 C 209.146 88.000,210.129 87.100,211.200 86.000 C 212.271 84.900,213.350 84.000,213.596 84.000 C 213.843 84.000,215.104 82.920,216.400 81.600 C 217.696 80.280,218.954 79.200,219.196 79.200 C 219.438 79.200,220.067 78.795,220.593 78.300 C 221.119 77.805,222.120 76.950,222.816 76.400 C 223.513 75.850,224.598 74.905,225.228 74.300 C 225.858 73.695,226.547 73.200,226.760 73.200 C 226.972 73.200,227.260 72.840,227.400 72.400 C 227.540 71.960,227.923 71.600,228.253 71.600 C 228.582 71.600,229.729 70.700,230.800 69.600 C 231.871 68.500,232.951 67.600,233.200 67.600 C 233.449 67.600,234.529 66.700,235.600 65.600 C 236.671 64.500,237.744 63.600,237.985 63.600 C 238.225 63.600,239.202 62.835,240.156 61.900 C 241.110 60.965,242.399 59.840,243.022 59.400 C 243.644 58.960,244.924 57.835,245.866 56.900 C 246.808 55.965,247.775 55.200,248.015 55.200 C 248.256 55.200,249.329 54.300,250.400 53.200 C 251.471 52.100,252.551 51.200,252.800 51.200 C 253.049 51.200,254.129 50.300,255.200 49.200 C 256.271 48.100,257.430 47.200,257.774 47.200 C 258.118 47.200,258.400 47.026,258.400 46.813 C 258.400 46.186,261.068 43.730,263.628 42.000 C 264.116 41.670,265.114 40.815,265.845 40.100 C 266.575 39.385,267.371 38.800,267.613 38.800 C 267.854 38.800,268.929 37.900,270.000 36.800 C 271.071 35.700,272.151 34.800,272.400 34.800 C 272.649 34.800,273.729 33.900,274.800 32.800 C 275.871 31.700,276.864 30.800,277.005 30.800 C 277.147 30.800,277.927 30.109,278.739 29.264 C 279.551 28.418,280.645 27.497,281.170 27.216 C 282.125 26.705,282.805 26.139,285.394 23.700 C 286.152 22.985,286.967 22.400,287.203 22.400 C 287.835 22.400,289.047 21.090,289.022 20.434 C 288.997 19.794,286.523 18.277,286.015 18.591 C 285.833 18.703,285.581 18.526,285.454 18.198 C 285.328 17.869,284.769 17.600,284.213 17.600 C 283.656 17.600,283.200 17.420,283.200 17.200 C 283.200 16.980,282.840 16.800,282.400 16.800 C 281.960 16.800,281.600 16.620,281.600 16.400 C 281.600 16.180,281.240 16.000,280.800 16.000 C 280.360 16.000,280.000 15.809,280.000 15.576 C 280.000 15.343,279.847 15.248,279.659 15.364 C 279.471 15.480,278.976 15.316,278.559 15.000 C 278.142 14.684,277.395 14.420,276.900 14.413 C 276.405 14.406,276.000 14.220,276.000 14.000 C 276.000 13.780,275.640 13.600,275.200 13.600 C 274.760 13.600,274.400 13.420,274.400 13.200 C 274.400 12.980,273.961 12.800,273.424 12.800 C 272.887 12.800,272.336 12.620,272.200 12.400 C 272.064 12.180,271.637 12.000,271.252 12.000 C 270.866 12.000,269.805 11.640,268.894 11.200 C 267.984 10.760,267.048 10.400,266.814 10.400 C 266.580 10.400,266.077 10.237,265.695 10.037 C 264.553 9.440,260.778 8.400,259.754 8.400 C 259.229 8.400,258.800 8.220,258.800 8.000 C 258.800 7.780,258.181 7.600,257.424 7.600 C 256.667 7.600,255.936 7.420,255.800 7.200 C 255.664 6.980,255.124 6.800,254.600 6.800 C 254.076 6.800,253.536 6.620,253.400 6.400 C 253.264 6.180,252.533 6.000,251.776 6.000 C 251.019 6.000,250.400 5.820,250.400 5.600 C 250.400 5.380,249.680 5.200,248.800 5.200 C 247.920 5.200,247.200 5.020,247.200 4.800 C 247.200 4.580,246.491 4.400,245.624 4.400 C 244.757 4.400,243.936 4.220,243.800 4.000 C 243.664 3.780,242.753 3.600,241.776 3.600 C 240.799 3.600,240.000 3.420,240.000 3.200 C 240.000 2.980,239.111 2.800,238.024 2.800 C 236.937 2.800,235.936 2.620,235.800 2.400 C 235.664 2.180,234.584 2.000,233.400 2.000 C 232.216 2.000,231.136 1.820,231.000 1.600 C 230.864 1.380,229.518 1.200,228.010 1.200 C 226.210 1.200,225.211 1.033,225.104 0.713 C 224.944 0.232,187.144 -0.123,178.300 0.274 M93.100 135.900 L 72.800 156.199 72.800 115.600 L 72.800 75.001 93.100 95.300 L 113.399 115.600 93.100 135.900 " stroke="none" fill="#3ec2e9" fill-rule="evenodd"></path><path id="path1" d="M72.800 115.600 L 72.800 156.197 92.625 136.398 C 103.528 125.509,112.607 116.318,112.799 115.973 C 113.074 115.482,108.785 110.982,92.975 95.175 L 72.800 75.003 72.800 115.600 M306.803 95.397 L 286.610 115.593 306.904 135.897 L 327.198 156.200 327.199 115.700 C 327.199 93.425,327.154 75.200,327.099 75.200 C 327.043 75.200,317.910 84.288,306.803 95.397 M94.800 137.800 L 74.603 158.000 94.800 178.200 C 105.908 189.310,115.127 198.400,115.286 198.400 C 115.678 198.400,155.600 158.339,155.600 157.945 C 155.600 157.583,115.602 117.600,115.240 117.600 C 115.106 117.600,105.908 126.690,94.800 137.800 M264.400 137.800 L 244.203 158.000 264.400 178.200 C 275.508 189.310,284.781 198.400,285.006 198.400 C 285.583 198.400,325.200 158.673,325.200 158.094 C 325.200 157.571,285.440 117.600,284.920 117.600 C 284.742 117.600,275.508 126.690,264.400 137.800 M72.800 200.400 L 72.800 240.999 93.100 220.700 L 113.399 200.400 93.100 180.100 L 72.800 159.801 72.800 200.400 M137.200 180.200 L 117.003 200.400 137.200 220.600 C 148.308 231.710,157.578 240.800,157.800 240.800 C 158.022 240.800,167.292 231.710,178.400 220.600 L 198.597 200.400 178.400 180.200 C 167.292 169.090,158.022 160.000,157.800 160.000 C 157.578 160.000,148.308 169.090,137.200 180.200 M222.000 180.200 L 201.803 200.400 222.000 220.600 C 233.108 231.710,242.378 240.800,242.600 240.800 C 243.254 240.800,282.800 201.054,282.800 200.397 C 282.800 199.742,243.249 160.000,242.597 160.000 C 242.377 160.000,233.108 169.090,222.000 180.200 M306.811 180.213 L 286.626 200.425 306.913 220.712 L 327.200 240.999 327.200 200.500 C 327.200 178.225,327.154 160.000,327.098 160.000 C 327.042 160.000,317.913 169.096,306.811 180.213 M94.899 222.501 C 83.844 233.557,74.800 242.742,74.800 242.913 C 74.800 243.461,114.724 283.200,115.271 283.197 C 115.854 283.193,155.600 243.535,155.600 242.957 C 155.600 242.590,115.562 202.400,115.197 202.400 C 115.087 202.400,105.953 211.446,94.899 222.501 M179.604 222.596 L 159.411 242.792 179.600 262.996 C 190.704 274.108,199.972 283.200,200.196 283.200 C 200.769 283.200,240.400 243.500,240.400 242.926 C 240.400 242.421,200.602 202.400,200.099 202.400 C 199.933 202.400,190.710 211.488,179.604 222.596 M264.499 222.501 C 253.444 233.557,244.400 242.723,244.400 242.870 C 244.400 243.334,284.491 283.200,284.958 283.200 C 285.637 283.200,325.321 243.362,325.150 242.852 C 324.983 242.354,285.136 202.400,284.806 202.400 C 284.691 202.400,275.553 211.446,264.499 222.501 M72.800 285.481 L 72.800 325.762 74.443 324.181 C 75.774 322.900,112.560 286.043,113.179 285.370 C 113.391 285.139,73.549 245.200,73.105 245.200 C 72.937 245.200,72.800 263.327,72.800 285.481 M306.899 265.301 L 286.800 285.403 307.000 305.600 L 327.200 325.797 327.200 285.499 C 327.200 263.334,327.154 245.200,327.099 245.200 C 327.043 245.200,317.953 254.246,306.899 265.301 " stroke="none" fill="#fbfbfb" fill-rule="evenodd"></path><path id="path2" d="M370.400 93.847 C 370.400 94.067,370.664 94.596,370.987 95.024 C 371.310 95.451,371.575 95.620,371.575 95.400 C 371.575 95.180,371.310 94.651,370.987 94.224 C 370.664 93.796,370.400 93.627,370.400 93.847 M371.600 96.253 C 371.600 96.392,371.975 97.112,372.433 97.853 C 372.891 98.594,373.109 99.200,372.918 99.200 C 372.727 99.200,372.544 99.550,372.512 99.977 C 372.470 100.527,372.650 100.699,373.127 100.565 C 373.497 100.461,373.350 100.603,372.800 100.881 C 372.250 101.159,371.139 102.064,370.331 102.893 C 369.524 103.722,368.657 104.400,368.405 104.400 C 368.154 104.400,367.071 105.300,366.000 106.400 C 364.929 107.500,363.852 108.400,363.608 108.400 C 363.364 108.400,362.714 108.850,362.164 109.400 C 361.614 109.950,361.004 110.400,360.809 110.400 C 360.614 110.400,360.340 110.760,360.200 111.200 C 360.060 111.640,359.677 112.000,359.347 112.000 C 359.018 112.000,357.871 112.900,356.800 114.000 C 355.729 115.100,354.650 116.000,354.404 116.000 C 354.157 116.000,352.896 117.080,351.600 118.400 C 350.304 119.720,349.043 120.800,348.796 120.800 C 348.550 120.800,347.471 121.700,346.400 122.800 C 345.329 123.900,344.305 124.801,344.126 124.803 C 343.947 124.805,342.990 125.607,342.000 126.585 C 341.010 127.563,339.963 128.372,339.674 128.382 C 339.385 128.392,338.271 129.300,337.200 130.400 C 336.129 131.500,335.050 132.400,334.804 132.400 C 334.557 132.400,333.296 133.480,332.000 134.800 C 330.704 136.120,329.397 137.200,329.094 137.200 C 328.336 137.200,327.595 143.877,327.598 150.676 C 327.601 157.631,328.347 157.739,319.669 149.524 C 315.132 145.230,315.827 147.011,320.800 152.423 C 322.670 154.458,324.604 156.590,325.099 157.161 L 325.997 158.200 305.700 178.500 C 294.537 189.665,285.215 198.800,284.985 198.800 C 284.527 198.800,283.488 197.873,277.181 191.838 C 271.859 186.746,271.247 186.220,270.968 186.499 C 270.662 186.805,271.687 187.968,277.892 194.354 C 280.802 197.349,283.187 200.075,283.192 200.411 C 283.206 201.482,242.969 241.334,242.270 240.941 C 241.938 240.753,238.031 237.045,233.589 232.700 C 229.146 228.355,225.362 224.800,225.179 224.800 C 223.993 224.800,225.025 226.202,229.942 231.272 C 239.011 240.625,240.800 242.555,240.800 242.990 C 240.800 243.507,200.736 283.600,200.219 283.600 C 200.011 283.600,197.761 281.574,195.220 279.099 C 179.994 264.264,177.600 262.207,177.600 263.958 C 177.600 264.497,175.346 266.800,174.817 266.800 C 174.563 266.800,173.296 267.880,172.000 269.200 C 170.704 270.520,169.450 271.600,169.212 271.600 C 168.974 271.600,167.969 272.410,166.979 273.400 C 165.989 274.390,165.023 275.200,164.832 275.200 C 164.518 275.200,163.514 276.019,160.914 278.391 C 160.427 278.836,159.920 279.200,159.788 279.200 C 159.656 279.200,158.671 280.100,157.600 281.200 C 156.529 282.300,155.449 283.200,155.200 283.200 C 154.951 283.200,153.871 284.100,152.800 285.200 C 151.729 286.300,150.656 287.200,150.417 287.200 C 150.178 287.200,148.993 288.190,147.783 289.400 C 146.573 290.610,145.431 291.600,145.246 291.600 C 145.060 291.600,143.994 292.500,142.877 293.600 C 141.759 294.700,140.643 295.600,140.397 295.600 C 140.150 295.600,139.071 296.500,138.000 297.600 C 136.929 298.700,135.849 299.600,135.600 299.600 C 135.351 299.600,134.271 300.500,133.200 301.600 C 132.129 302.700,131.046 303.600,130.795 303.600 C 130.323 303.600,127.851 306.052,126.812 307.552 C 126.488 308.018,125.985 308.400,125.694 308.400 C 125.402 308.400,124.724 308.805,124.186 309.300 C 121.604 311.677,121.198 312.000,120.788 312.000 C 120.546 312.000,119.471 312.900,118.400 314.000 C 117.329 315.100,116.249 316.000,116.000 316.000 C 115.751 316.000,114.671 316.900,113.600 318.000 C 112.529 319.100,111.370 320.000,111.026 320.000 C 110.682 320.000,110.400 320.165,110.400 320.367 C 110.400 320.899,107.344 324.000,106.821 324.000 C 106.578 324.000,105.584 324.765,104.613 325.700 C 102.241 327.983,101.712 328.400,101.191 328.400 C 100.947 328.400,99.871 329.300,98.800 330.400 C 97.729 331.500,96.642 332.400,96.386 332.400 C 95.913 332.400,94.279 334.025,93.212 335.556 C 92.888 336.020,92.381 336.400,92.086 336.400 C 91.790 336.400,90.671 337.300,89.600 338.400 C 88.529 339.500,87.456 340.400,87.215 340.400 C 86.975 340.400,85.969 341.210,84.979 342.200 C 83.989 343.190,82.904 344.000,82.567 344.000 C 82.231 344.000,80.896 345.080,79.600 346.400 C 78.304 347.720,77.133 348.800,76.996 348.800 C 76.860 348.800,75.886 349.685,74.832 350.767 C 72.717 352.939,70.695 353.655,70.030 352.468 C 69.827 352.104,69.539 351.928,69.390 352.077 C 68.973 352.494,71.948 355.279,72.468 354.958 C 72.748 354.785,72.814 354.854,72.638 355.138 C 72.481 355.392,72.561 355.600,72.816 355.600 C 73.071 355.600,73.910 356.230,74.680 357.000 C 75.450 357.770,76.236 358.400,76.427 358.400 C 76.617 358.400,77.403 359.030,78.173 359.800 C 78.943 360.570,79.810 361.200,80.098 361.200 C 80.387 361.200,80.883 361.560,81.200 362.000 C 81.517 362.440,81.980 362.800,82.229 362.800 C 82.478 362.800,83.246 363.340,83.937 364.000 C 84.628 364.660,85.425 365.200,85.708 365.200 C 85.991 365.200,86.483 365.560,86.800 366.000 C 87.117 366.440,87.657 366.800,88.000 366.800 C 88.343 366.800,88.883 367.160,89.200 367.600 C 89.517 368.040,90.057 368.400,90.400 368.400 C 90.743 368.400,91.283 368.760,91.600 369.200 C 91.917 369.640,92.329 370.000,92.516 370.000 C 92.703 370.000,93.641 370.540,94.600 371.200 C 95.559 371.860,96.537 372.400,96.772 372.400 C 97.007 372.400,97.200 372.580,97.200 372.800 C 97.200 373.020,97.397 373.200,97.638 373.200 C 97.879 373.200,98.565 373.548,99.163 373.973 C 99.760 374.399,100.772 374.878,101.411 375.039 C 102.050 375.199,102.928 375.661,103.362 376.065 C 103.796 376.469,104.387 376.800,104.675 376.800 C 104.964 376.800,105.200 376.980,105.200 377.200 C 105.200 377.420,105.560 377.600,106.000 377.600 C 106.440 377.600,106.800 377.780,106.800 378.000 C 106.800 378.220,107.160 378.400,107.600 378.400 C 108.040 378.400,108.400 378.580,108.400 378.800 C 108.400 379.020,108.745 379.200,109.167 379.200 C 109.588 379.200,109.993 379.335,110.067 379.500 C 110.140 379.665,111.100 380.225,112.200 380.744 C 113.300 381.263,114.513 381.848,114.895 382.044 C 115.277 382.240,115.862 382.400,116.195 382.400 C 116.528 382.400,116.800 382.580,116.800 382.800 C 116.800 383.020,117.160 383.200,117.600 383.200 C 118.040 383.200,118.400 383.380,118.400 383.600 C 118.400 383.820,118.760 384.000,119.200 384.000 C 119.640 384.000,120.000 384.180,120.000 384.400 C 120.000 384.620,120.349 384.800,120.776 384.800 C 121.203 384.800,121.664 384.980,121.800 385.200 C 121.936 385.420,122.487 385.600,123.024 385.600 C 123.561 385.600,124.000 385.780,124.000 386.000 C 124.000 386.220,124.360 386.400,124.800 386.400 C 125.240 386.400,125.600 386.580,125.600 386.800 C 125.600 387.020,125.962 387.200,126.405 387.200 C 126.848 387.200,127.523 387.359,127.905 387.553 C 128.840 388.029,130.307 388.618,132.000 389.200 C 132.770 389.464,133.760 389.823,134.200 389.997 C 136.018 390.715,139.355 391.600,140.246 391.600 C 140.771 391.600,141.200 391.780,141.200 392.000 C 141.200 392.220,141.830 392.400,142.600 392.400 C 143.370 392.400,144.000 392.580,144.000 392.800 C 144.000 393.020,144.529 393.200,145.176 393.200 C 145.823 393.200,146.464 393.380,146.600 393.600 C 146.736 393.820,147.467 394.000,148.224 394.000 C 148.981 394.000,149.600 394.180,149.600 394.400 C 149.600 394.620,150.320 394.800,151.200 394.800 C 152.080 394.800,152.800 394.980,152.800 395.200 C 152.800 395.420,153.509 395.600,154.376 395.600 C 155.243 395.600,156.064 395.780,156.200 396.000 C 156.336 396.220,157.247 396.400,158.224 396.400 C 159.201 396.400,160.000 396.580,160.000 396.800 C 160.000 397.020,160.990 397.200,162.200 397.200 C 163.410 397.200,164.400 397.380,164.400 397.600 C 164.400 397.820,165.379 398.000,166.576 398.000 C 167.773 398.000,168.864 398.180,169.000 398.400 C 169.136 398.620,170.482 398.800,171.990 398.800 C 173.829 398.800,174.788 398.965,174.900 399.300 C 175.144 400.032,224.856 400.032,225.100 399.300 C 225.212 398.965,226.171 398.800,228.010 398.800 C 229.518 398.800,230.864 398.620,231.000 398.400 C 231.136 398.180,232.216 398.000,233.400 398.000 C 234.584 398.000,235.664 397.820,235.800 397.600 C 235.936 397.380,236.937 397.200,238.024 397.200 C 239.111 397.200,240.000 397.020,240.000 396.800 C 240.000 396.580,240.709 396.400,241.576 396.400 C 242.443 396.400,243.264 396.220,243.400 396.000 C 243.536 395.780,244.447 395.600,245.424 395.600 C 246.401 395.600,247.200 395.420,247.200 395.200 C 247.200 394.980,247.920 394.800,248.800 394.800 C 249.680 394.800,250.400 394.620,250.400 394.400 C 250.400 394.180,251.019 394.000,251.776 394.000 C 252.533 394.000,253.264 393.820,253.400 393.600 C 253.536 393.380,254.177 393.200,254.824 393.200 C 255.471 393.200,256.000 393.020,256.000 392.800 C 256.000 392.580,256.630 392.400,257.400 392.400 C 258.170 392.400,258.800 392.241,258.800 392.046 C 258.800 391.851,259.787 391.569,260.994 391.418 C 262.200 391.267,263.291 390.977,263.417 390.772 C 263.544 390.567,264.076 390.400,264.600 390.400 C 265.124 390.400,265.664 390.220,265.800 390.000 C 265.936 389.780,266.399 389.600,266.829 389.600 C 267.259 389.600,267.923 389.441,268.305 389.247 C 268.687 389.052,269.540 388.671,270.200 388.400 C 270.860 388.129,271.713 387.748,272.095 387.553 C 272.477 387.359,273.152 387.200,273.595 387.200 C 274.038 387.200,274.400 387.020,274.400 386.800 C 274.400 386.580,274.760 386.400,275.200 386.400 C 275.640 386.400,276.000 386.220,276.000 386.000 C 276.000 385.780,276.540 385.600,277.200 385.600 C 277.860 385.600,278.400 385.420,278.400 385.200 C 278.400 384.980,278.760 384.800,279.200 384.800 C 279.640 384.800,280.000 384.620,280.000 384.400 C 280.000 384.180,280.360 384.000,280.800 384.000 C 281.240 384.000,281.600 383.820,281.600 383.600 C 281.600 383.380,281.872 383.200,282.205 383.200 C 282.538 383.200,283.168 383.020,283.605 382.800 C 284.042 382.580,284.758 382.220,285.195 382.000 C 285.632 381.780,286.262 381.600,286.595 381.600 C 286.928 381.600,287.201 381.465,287.201 381.300 C 287.202 381.135,288.192 380.550,289.400 380.000 C 290.608 379.450,291.598 378.865,291.599 378.700 C 291.599 378.535,291.960 378.400,292.400 378.400 C 292.840 378.400,293.200 378.220,293.200 378.000 C 293.200 377.780,293.560 377.600,294.000 377.600 C 294.440 377.600,294.800 377.420,294.800 377.200 C 294.800 376.980,295.036 376.800,295.325 376.800 C 295.613 376.800,296.236 376.440,296.708 376.000 C 297.180 375.560,297.775 375.200,298.029 375.200 C 298.611 375.200,302.553 373.105,302.733 372.700 C 302.807 372.535,303.044 372.400,303.261 372.400 C 303.478 372.400,304.441 371.860,305.400 371.200 C 306.359 370.540,307.297 370.000,307.484 370.000 C 307.671 370.000,308.083 369.640,308.400 369.200 C 308.717 368.760,309.257 368.400,309.600 368.400 C 309.943 368.400,310.483 368.040,310.800 367.600 C 311.117 367.160,311.657 366.800,312.000 366.800 C 312.343 366.800,312.883 366.440,313.200 366.000 C 313.517 365.560,314.009 365.200,314.292 365.200 C 314.575 365.200,315.372 364.660,316.063 364.000 C 316.754 363.340,317.522 362.800,317.771 362.800 C 318.020 362.800,318.483 362.440,318.800 362.000 C 319.117 361.560,319.625 361.200,319.928 361.200 C 320.231 361.200,320.983 360.660,321.600 360.000 C 322.217 359.340,322.874 358.800,323.061 358.800 C 323.247 358.800,324.188 358.080,325.151 357.200 C 326.113 356.320,327.054 355.600,327.240 355.600 C 327.426 355.600,328.349 354.833,329.289 353.895 C 330.230 352.957,331.630 351.745,332.400 351.201 C 333.170 350.658,335.561 348.410,337.713 346.207 C 342.418 341.389,341.389 342.418,346.207 337.713 C 348.410 335.561,350.658 333.170,351.201 332.400 C 351.745 331.630,352.957 330.230,353.895 329.289 C 354.833 328.349,355.600 327.426,355.600 327.240 C 355.600 327.054,356.320 326.113,357.200 325.151 C 358.080 324.188,358.800 323.247,358.800 323.061 C 358.800 322.874,359.340 322.217,360.000 321.600 C 360.660 320.983,361.200 320.231,361.200 319.928 C 361.200 319.625,361.560 319.117,362.000 318.800 C 362.440 318.483,362.800 318.020,362.800 317.771 C 362.800 317.522,363.340 316.754,364.000 316.063 C 364.660 315.372,365.200 314.575,365.200 314.292 C 365.200 314.009,365.560 313.517,366.000 313.200 C 366.440 312.883,366.800 312.343,366.800 312.000 C 366.800 311.657,367.160 311.117,367.600 310.800 C 368.040 310.483,368.400 309.943,368.400 309.600 C 368.400 309.257,368.760 308.717,369.200 308.400 C 369.640 308.083,370.000 307.671,370.000 307.484 C 370.000 307.297,370.540 306.359,371.200 305.400 C 371.860 304.441,372.400 303.478,372.400 303.261 C 372.400 303.044,372.535 302.807,372.700 302.733 C 373.105 302.553,375.200 298.611,375.200 298.029 C 375.200 297.775,375.560 297.180,376.000 296.708 C 376.440 296.236,376.800 295.613,376.800 295.325 C 376.800 295.036,376.980 294.800,377.200 294.800 C 377.420 294.800,377.600 294.440,377.600 294.000 C 377.600 293.560,377.780 293.200,378.000 293.200 C 378.220 293.200,378.400 292.855,378.400 292.433 C 378.400 292.012,378.537 291.607,378.704 291.533 C 378.871 291.460,379.789 289.780,380.745 287.800 C 381.700 285.820,382.643 283.887,382.841 283.505 C 383.038 283.123,383.200 282.538,383.200 282.205 C 383.200 281.872,383.380 281.600,383.600 281.600 C 383.820 281.600,384.000 281.240,384.000 280.800 C 384.000 280.360,384.180 280.000,384.400 280.000 C 384.620 280.000,384.800 279.651,384.800 279.224 C 384.800 278.797,384.980 278.336,385.200 278.200 C 385.420 278.064,385.600 277.513,385.600 276.976 C 385.600 276.439,385.780 276.000,386.000 276.000 C 386.220 276.000,386.400 275.640,386.400 275.200 C 386.400 274.760,386.580 274.400,386.800 274.400 C 387.020 274.400,387.200 274.038,387.200 273.595 C 387.200 273.152,387.359 272.477,387.553 272.095 C 387.748 271.713,388.129 270.860,388.400 270.200 C 388.671 269.540,389.052 268.687,389.247 268.305 C 389.441 267.923,389.600 267.259,389.600 266.829 C 389.600 266.399,389.780 265.936,390.000 265.800 C 390.220 265.664,390.400 265.124,390.400 264.600 C 390.400 264.076,390.567 263.544,390.772 263.417 C 390.977 263.291,391.267 262.200,391.418 260.994 C 391.569 259.787,391.851 258.800,392.046 258.800 C 392.241 258.800,392.400 258.170,392.400 257.400 C 392.400 256.630,392.580 256.000,392.800 256.000 C 393.020 256.000,393.200 255.471,393.200 254.824 C 393.200 254.177,393.380 253.536,393.600 253.400 C 393.820 253.264,394.000 252.533,394.000 251.776 C 394.000 251.019,394.180 250.400,394.400 250.400 C 394.620 250.400,394.800 249.680,394.800 248.800 C 394.800 247.920,394.980 247.200,395.200 247.200 C 395.420 247.200,395.600 246.491,395.600 245.624 C 395.600 244.757,395.780 243.936,396.000 243.800 C 396.220 243.664,396.400 242.753,396.400 241.776 C 396.400 240.799,396.580 240.000,396.800 240.000 C 397.020 240.000,397.200 239.111,397.200 238.024 C 397.200 236.937,397.380 235.936,397.600 235.800 C 397.820 235.664,398.000 234.584,398.000 233.400 C 398.000 232.216,398.180 231.136,398.400 231.000 C 398.620 230.864,398.800 229.518,398.800 228.010 C 398.800 226.171,398.965 225.212,399.300 225.100 C 399.693 224.969,399.800 219.591,399.800 200.000 C 399.800 180.409,399.693 175.031,399.300 174.900 C 398.965 174.788,398.800 173.829,398.800 171.990 C 398.800 170.482,398.620 169.136,398.400 169.000 C 398.180 168.864,398.000 167.784,398.000 166.600 C 398.000 165.416,397.820 164.336,397.600 164.200 C 397.380 164.064,397.200 163.063,397.200 161.976 C 397.200 160.889,397.020 160.000,396.800 160.000 C 396.580 160.000,396.400 159.201,396.400 158.224 C 396.400 157.247,396.220 156.336,396.000 156.200 C 395.780 156.064,395.600 155.243,395.600 154.376 C 395.600 153.509,395.420 152.800,395.200 152.800 C 394.980 152.800,394.800 152.080,394.800 151.200 C 394.800 150.320,394.620 149.600,394.400 149.600 C 394.180 149.600,394.000 148.981,394.000 148.224 C 394.000 147.467,393.820 146.736,393.600 146.600 C 393.380 146.464,393.200 145.823,393.200 145.176 C 393.200 144.529,393.020 144.000,392.800 144.000 C 392.580 144.000,392.400 143.370,392.400 142.600 C 392.400 141.830,392.241 141.200,392.046 141.200 C 391.851 141.200,391.569 140.213,391.418 139.006 C 391.267 137.800,390.977 136.709,390.772 136.583 C 390.567 136.456,390.400 135.924,390.400 135.400 C 390.400 134.876,390.220 134.336,390.000 134.200 C 389.780 134.064,389.600 133.601,389.600 133.171 C 389.600 132.741,389.441 132.077,389.247 131.695 C 389.052 131.313,388.671 130.460,388.400 129.800 C 388.129 129.140,387.748 128.287,387.553 127.905 C 387.359 127.523,387.200 126.848,387.200 126.405 C 387.200 125.962,387.020 125.600,386.800 125.600 C 386.580 125.600,386.400 125.240,386.400 124.800 C 386.400 124.360,386.220 124.000,386.000 124.000 C 385.780 124.000,385.600 123.561,385.600 123.024 C 385.600 122.487,385.420 121.936,385.200 121.800 C 384.980 121.664,384.800 121.203,384.800 120.776 C 384.800 120.349,384.620 120.000,384.400 120.000 C 384.180 120.000,384.000 119.640,384.000 119.200 C 384.000 118.760,383.820 118.400,383.600 118.400 C 383.380 118.400,383.200 118.040,383.200 117.600 C 383.200 117.160,383.020 116.800,382.800 116.800 C 382.580 116.800,382.401 116.485,382.403 116.100 C 382.407 115.325,379.186 108.678,378.704 108.467 C 378.537 108.393,378.400 107.988,378.400 107.567 C 378.400 107.145,378.220 106.800,378.000 106.800 C 377.780 106.800,377.600 106.440,377.600 106.000 C 377.600 105.560,377.420 105.200,377.200 105.200 C 376.980 105.200,376.800 104.964,376.800 104.675 C 376.800 104.387,376.440 103.764,376.000 103.292 C 375.560 102.820,375.200 102.156,375.200 101.817 C 375.200 101.478,375.009 101.200,374.776 101.200 C 374.543 101.200,374.465 101.019,374.602 100.797 C 374.834 100.421,373.679 98.473,372.509 97.268 C 372.225 96.975,372.095 96.570,372.220 96.368 C 372.345 96.165,372.257 96.000,372.024 96.000 C 371.791 96.000,371.600 96.114,371.600 96.253 M327.545 184.300 C 327.515 197.665,327.380 215.827,327.245 224.661 L 327.000 240.722 306.900 220.761 C 295.845 209.783,286.800 200.618,286.800 200.396 C 286.800 199.808,326.505 160.015,327.100 160.007 C 327.495 160.001,327.589 165.094,327.545 184.300 M305.056 222.232 C 316.025 233.360,325.067 242.652,325.150 242.881 C 325.355 243.452,285.528 283.241,284.885 283.107 C 284.049 282.933,244.400 243.539,244.400 242.882 C 244.400 242.320,284.298 202.003,284.856 202.001 C 284.997 202.000,294.087 211.105,305.056 222.232 M327.200 285.499 L 327.200 325.797 307.000 305.600 L 286.800 285.403 306.899 265.301 C 317.953 254.246,327.043 245.200,327.099 245.200 C 327.154 245.200,327.200 263.334,327.200 285.499 M65.200 349.025 C 65.200 349.491,66.355 350.397,66.549 350.083 C 66.658 349.905,66.400 349.543,65.974 349.277 C 65.548 349.011,65.200 348.898,65.200 349.025 M67.594 351.182 C 68.141 351.602,68.668 351.866,68.765 351.769 C 68.991 351.542,67.529 350.427,67.000 350.422 C 66.780 350.420,67.047 350.761,67.594 351.182 " stroke="none" fill="#d23c90" fill-rule="evenodd"></path><path id="path3" d="M322.976 41.813 C 323.404 42.136,323.909 42.400,324.100 42.400 C 324.291 42.400,324.336 42.580,324.200 42.800 C 324.064 43.020,324.143 43.200,324.376 43.200 C 324.609 43.200,324.800 43.391,324.800 43.624 C 324.800 43.857,324.616 43.933,324.390 43.794 C 324.165 43.655,324.030 43.768,324.090 44.047 C 324.151 44.325,323.855 44.627,323.433 44.719 C 323.011 44.810,321.808 45.765,320.759 46.842 C 319.710 47.919,318.649 48.800,318.400 48.800 C 318.151 48.800,317.071 49.700,316.000 50.800 C 314.929 51.900,313.849 52.800,313.600 52.800 C 313.351 52.800,312.271 53.700,311.200 54.800 C 310.129 55.900,309.142 56.800,309.008 56.800 C 308.874 56.800,308.324 57.205,307.786 57.700 C 305.206 60.076,304.799 60.400,304.392 60.400 C 304.152 60.400,302.896 61.480,301.600 62.800 C 300.304 64.120,299.043 65.200,298.796 65.200 C 298.550 65.200,297.471 66.100,296.400 67.200 C 295.329 68.300,294.242 69.200,293.986 69.200 C 293.513 69.200,291.879 70.825,290.812 72.356 C 290.488 72.820,289.985 73.200,289.694 73.200 C 289.402 73.200,288.724 73.605,288.186 74.100 C 285.606 76.476,285.199 76.800,284.792 76.800 C 284.552 76.800,283.296 77.880,282.000 79.200 C 280.704 80.520,279.443 81.600,279.196 81.600 C 278.950 81.600,277.871 82.500,276.800 83.600 C 275.729 84.700,274.739 85.600,274.600 85.600 C 274.461 85.600,273.471 86.500,272.400 87.600 C 271.329 88.700,270.254 89.600,270.012 89.600 C 269.602 89.600,269.196 89.923,266.614 92.300 C 266.076 92.795,265.436 93.200,265.192 93.200 C 264.948 93.200,263.871 94.100,262.800 95.200 C 261.729 96.300,260.610 97.200,260.314 97.200 C 260.019 97.200,259.512 97.582,259.188 98.048 C 258.149 99.548,255.677 102.000,255.205 102.000 C 254.954 102.000,253.871 102.900,252.800 104.000 C 251.729 105.100,250.654 106.000,250.413 106.000 C 250.171 106.000,249.359 106.585,248.608 107.300 C 246.624 109.190,246.086 109.600,245.591 109.600 C 245.347 109.600,244.271 110.500,243.200 111.600 C 242.129 112.700,241.139 113.600,241.000 113.600 C 240.861 113.600,239.871 114.500,238.800 115.600 C 237.729 116.700,236.650 117.600,236.404 117.600 C 236.157 117.600,234.896 118.680,233.600 120.000 C 232.304 121.320,231.048 122.400,230.809 122.400 C 230.569 122.400,229.759 122.985,229.008 123.700 C 226.928 125.681,226.486 126.000,225.817 126.000 C 225.478 126.000,225.200 126.165,225.200 126.367 C 225.200 126.908,222.140 130.000,221.605 130.000 C 221.354 130.000,220.271 130.900,219.200 132.000 C 218.129 133.100,217.050 134.000,216.804 134.000 C 216.557 134.000,215.296 135.080,214.000 136.400 C 212.704 137.720,211.442 138.800,211.195 138.800 C 210.948 138.800,209.969 139.610,209.021 140.600 C 208.072 141.590,207.083 142.400,206.822 142.400 C 206.561 142.400,205.471 143.300,204.400 144.400 C 203.329 145.500,202.249 146.400,202.000 146.400 C 201.751 146.400,200.671 147.300,199.600 148.400 C 198.529 149.500,197.449 150.400,197.200 150.400 C 196.951 150.400,195.871 151.300,194.800 152.400 C 193.729 153.500,192.570 154.400,192.226 154.400 C 191.882 154.400,191.600 154.575,191.600 154.789 C 191.600 155.423,188.033 158.800,187.364 158.800 C 187.025 158.800,185.871 159.700,184.800 160.800 C 183.729 161.900,182.649 162.800,182.400 162.800 C 182.151 162.800,181.071 163.700,180.000 164.800 C 178.929 165.900,177.842 166.800,177.586 166.800 C 177.113 166.800,175.479 168.425,174.412 169.956 C 174.088 170.420,173.503 170.800,173.112 170.800 C 172.720 170.800,172.400 170.980,172.400 171.200 C 172.400 172.430,170.211 171.412,167.507 168.926 C 165.908 167.455,172.249 173.935,181.598 183.326 L 198.597 200.400 178.400 220.600 C 167.292 231.710,158.023 240.800,157.803 240.800 C 157.583 240.800,149.138 232.565,139.037 222.500 C 128.935 212.435,121.780 205.458,123.135 206.994 C 125.715 209.919,125.980 210.400,125.014 210.400 C 124.339 210.400,122.635 209.017,118.400 205.032 C 116.750 203.479,124.445 211.297,135.500 222.406 C 146.555 233.514,155.600 242.763,155.600 242.960 C 155.600 243.539,115.850 283.193,115.266 283.197 C 114.973 283.198,106.376 274.830,96.164 264.600 C 85.951 254.370,77.512 246.000,77.410 246.000 C 77.308 246.000,77.669 246.655,78.212 247.456 C 80.188 250.367,79.385 250.310,76.030 247.300 C 72.599 244.223,72.643 244.192,72.342 249.800 C 72.047 255.292,71.743 256.800,70.935 256.800 C 70.621 256.800,69.924 257.205,69.386 257.700 C 66.804 260.077,66.398 260.400,65.988 260.400 C 65.746 260.400,64.671 261.300,63.600 262.400 C 62.529 263.500,61.442 264.400,61.186 264.400 C 60.713 264.400,59.079 266.025,58.012 267.556 C 57.688 268.020,57.183 268.400,56.890 268.400 C 56.596 268.400,55.296 269.480,54.000 270.800 C 52.704 272.120,51.446 273.200,51.204 273.200 C 50.962 273.200,50.324 273.605,49.786 274.100 C 47.204 276.477,46.798 276.800,46.388 276.800 C 46.146 276.800,45.071 277.700,44.000 278.800 C 42.929 279.900,41.939 280.800,41.800 280.800 C 41.661 280.800,40.671 281.700,39.600 282.800 C 38.529 283.900,37.449 284.800,37.200 284.800 C 36.951 284.800,35.871 285.700,34.800 286.800 C 33.729 287.900,32.654 288.800,32.413 288.800 C 32.171 288.800,31.352 289.385,30.594 290.100 C 27.817 292.716,27.219 293.200,26.767 293.200 C 25.809 293.200,24.015 295.735,24.526 296.367 C 24.911 296.843,24.887 296.891,24.400 296.618 C 23.912 296.345,23.893 296.383,24.300 296.821 C 24.575 297.118,24.800 297.695,24.800 298.104 C 24.800 298.513,24.980 298.736,25.200 298.600 C 25.572 298.370,25.781 298.932,25.629 299.755 C 25.593 299.950,25.933 300.503,26.385 300.984 C 26.837 301.466,27.086 301.981,26.937 302.130 C 26.788 302.278,26.877 302.400,27.133 302.400 C 27.390 302.400,27.600 302.732,27.600 303.138 C 27.600 303.544,27.934 304.178,28.342 304.548 C 28.750 304.917,29.498 306.025,30.005 307.010 C 30.511 307.994,31.056 308.800,31.214 308.800 C 31.373 308.800,31.727 309.340,32.000 310.000 C 32.273 310.660,32.655 311.200,32.849 311.200 C 33.042 311.200,33.200 311.520,33.200 311.912 C 33.200 312.303,33.560 312.883,34.000 313.200 C 34.440 313.517,34.800 313.980,34.800 314.229 C 34.800 314.478,35.340 315.246,36.000 315.937 C 36.660 316.628,37.200 317.425,37.200 317.708 C 37.200 317.991,37.560 318.483,38.000 318.800 C 38.440 319.117,38.800 319.585,38.800 319.840 C 38.800 320.095,39.520 321.045,40.400 321.952 C 41.280 322.859,42.000 323.704,42.000 323.829 C 42.000 323.954,42.225 324.292,42.500 324.580 C 42.775 324.867,43.270 325.498,43.600 325.982 C 44.530 327.346,46.081 329.219,47.400 330.571 C 48.060 331.247,49.223 332.594,49.985 333.565 C 51.171 335.076,56.505 340.516,58.086 341.826 C 58.369 342.060,59.050 342.824,59.600 343.522 C 60.150 344.221,60.743 344.794,60.918 344.796 C 61.433 344.802,63.174 346.693,62.909 346.958 C 62.776 347.091,62.955 347.200,63.306 347.200 C 63.658 347.200,64.046 347.515,64.168 347.900 C 64.291 348.285,64.934 348.841,65.598 349.135 C 66.261 349.429,66.703 349.834,66.579 350.035 C 66.454 350.236,66.599 350.400,66.901 350.400 C 67.202 350.400,67.836 350.760,68.308 351.200 C 68.780 351.640,69.273 352.000,69.402 352.000 C 69.532 352.000,70.083 352.495,70.626 353.100 C 71.169 353.705,71.566 353.941,71.507 353.624 C 71.448 353.307,71.745 352.973,72.167 352.881 C 72.589 352.790,73.792 351.835,74.841 350.758 C 75.890 349.681,76.860 348.800,76.996 348.800 C 77.133 348.800,78.304 347.720,79.600 346.400 C 80.896 345.080,82.231 344.000,82.567 344.000 C 82.904 344.000,83.989 343.190,84.979 342.200 C 85.969 341.210,86.975 340.400,87.215 340.400 C 87.456 340.400,88.529 339.500,89.600 338.400 C 90.671 337.300,91.790 336.400,92.086 336.400 C 92.381 336.400,92.888 336.020,93.212 335.556 C 94.279 334.025,95.913 332.400,96.386 332.400 C 96.642 332.400,97.729 331.500,98.800 330.400 C 99.871 329.300,100.947 328.400,101.191 328.400 C 101.712 328.400,102.241 327.983,104.613 325.700 C 105.584 324.765,106.578 324.000,106.821 324.000 C 107.344 324.000,110.400 320.899,110.400 320.367 C 110.400 320.165,110.682 320.000,111.026 320.000 C 111.370 320.000,112.529 319.100,113.600 318.000 C 114.671 316.900,115.751 316.000,116.000 316.000 C 116.249 316.000,117.329 315.100,118.400 314.000 C 119.471 312.900,120.548 312.000,120.792 312.000 C 121.036 312.000,121.676 311.595,122.214 311.100 C 124.818 308.702,125.208 308.400,125.697 308.400 C 125.987 308.400,126.488 308.018,126.812 307.552 C 127.851 306.052,130.323 303.600,130.795 303.600 C 131.046 303.600,132.129 302.700,133.200 301.600 C 134.271 300.500,135.351 299.600,135.600 299.600 C 135.849 299.600,136.929 298.700,138.000 297.600 C 139.071 296.500,140.150 295.600,140.397 295.600 C 140.643 295.600,141.759 294.700,142.877 293.600 C 143.994 292.500,145.060 291.600,145.246 291.600 C 145.431 291.600,146.573 290.610,147.783 289.400 C 148.993 288.190,150.178 287.200,150.417 287.200 C 150.656 287.200,151.729 286.300,152.800 285.200 C 153.871 284.100,154.951 283.200,155.200 283.200 C 155.449 283.200,156.529 282.300,157.600 281.200 C 158.671 280.100,159.656 279.200,159.788 279.200 C 159.920 279.200,160.427 278.836,160.914 278.391 C 163.514 276.019,164.518 275.200,164.832 275.200 C 165.023 275.200,165.989 274.390,166.979 273.400 C 167.969 272.410,168.974 271.600,169.212 271.600 C 169.450 271.600,170.704 270.520,172.000 269.200 C 173.296 267.880,174.563 266.800,174.817 266.800 C 175.346 266.800,177.600 264.497,177.600 263.958 C 177.600 262.207,179.994 264.264,195.220 279.099 C 197.761 281.574,200.012 283.600,200.222 283.600 C 200.756 283.600,240.800 243.495,240.800 242.961 C 240.800 242.720,240.395 242.181,239.900 241.762 C 239.001 241.001,239.001 241.001,239.700 241.831 C 240.085 242.289,240.400 242.829,240.400 243.033 C 240.400 243.539,200.699 283.200,200.193 283.200 C 199.971 283.200,190.704 274.108,179.600 262.996 L 159.411 242.792 179.604 222.596 C 190.710 211.488,199.934 202.400,200.101 202.400 C 200.268 202.400,208.332 210.342,218.021 220.048 C 227.710 229.754,235.701 237.629,235.779 237.548 C 235.857 237.467,233.325 234.734,230.152 231.475 C 225.042 226.227,223.980 224.800,225.186 224.800 C 225.372 224.800,227.476 226.707,229.862 229.039 C 232.248 231.370,236.000 235.014,238.200 237.136 C 240.400 239.258,233.111 231.860,222.001 220.697 L 201.803 200.400 222.000 180.200 C 233.108 169.090,242.378 160.000,242.600 160.000 C 243.252 160.000,282.800 199.745,282.800 200.400 C 282.800 200.728,275.465 208.377,266.500 217.398 L 250.200 233.800 266.700 217.402 C 275.775 208.383,283.196 200.733,283.192 200.402 C 283.187 200.071,280.802 197.349,277.892 194.354 C 271.687 187.968,270.662 186.805,270.968 186.499 C 271.247 186.220,271.859 186.746,277.181 191.838 C 283.488 197.873,284.527 198.800,284.985 198.800 C 286.185 198.800,325.957 158.194,325.437 157.500 C 325.148 157.115,324.761 156.800,324.576 156.800 C 324.391 156.800,324.456 157.016,324.720 157.280 C 324.984 157.544,325.200 157.942,325.200 158.165 C 325.200 158.697,285.538 198.400,285.006 198.400 C 284.781 198.400,275.508 189.310,264.400 178.200 L 244.203 158.000 264.400 137.800 C 275.508 126.690,284.742 117.600,284.918 117.600 C 285.095 117.600,293.974 126.346,304.650 137.036 C 322.860 155.269,328.516 160.681,321.128 152.800 C 316.001 147.332,315.016 145.120,319.669 149.524 C 328.347 157.739,327.601 157.631,327.598 150.676 C 327.595 143.877,328.336 137.200,329.094 137.200 C 329.397 137.200,330.704 136.120,332.000 134.800 C 333.296 133.480,334.557 132.400,334.804 132.400 C 335.050 132.400,336.129 131.500,337.200 130.400 C 338.271 129.300,339.385 128.392,339.674 128.382 C 339.963 128.372,341.010 127.563,342.000 126.585 C 342.990 125.607,343.947 124.805,344.126 124.803 C 344.305 124.801,345.329 123.900,346.400 122.800 C 347.471 121.700,348.550 120.800,348.796 120.800 C 349.043 120.800,350.304 119.720,351.600 118.400 C 352.896 117.080,354.157 116.000,354.404 116.000 C 354.650 116.000,355.729 115.100,356.800 114.000 C 357.871 112.900,359.018 112.000,359.347 112.000 C 359.677 112.000,360.060 111.640,360.200 111.200 C 360.340 110.760,360.614 110.400,360.809 110.400 C 361.004 110.400,361.614 109.950,362.164 109.400 C 362.714 108.850,363.364 108.400,363.608 108.400 C 363.852 108.400,364.929 107.500,366.000 106.400 C 367.071 105.300,368.154 104.400,368.405 104.400 C 368.657 104.400,369.524 103.722,370.331 102.893 C 371.139 102.064,372.250 101.159,372.800 100.881 C 373.350 100.603,373.497 100.461,373.127 100.565 C 372.650 100.699,372.470 100.527,372.512 99.977 C 372.544 99.550,372.718 99.200,372.899 99.200 C 373.080 99.200,373.048 98.864,372.828 98.453 C 372.608 98.042,372.557 97.563,372.714 97.388 C 372.871 97.214,372.794 97.190,372.542 97.334 C 372.035 97.623,371.466 96.540,371.822 95.964 C 371.946 95.764,371.853 95.600,371.615 95.600 C 371.377 95.600,370.962 95.106,370.691 94.502 C 370.208 93.423,367.983 89.864,367.200 88.917 C 366.980 88.651,366.800 88.228,366.800 87.977 C 366.800 87.726,366.305 87.044,365.700 86.460 C 365.095 85.877,364.345 84.905,364.032 84.300 C 363.720 83.695,363.315 83.200,363.132 83.200 C 362.950 83.200,362.800 82.964,362.800 82.675 C 362.800 82.387,362.440 81.764,362.000 81.292 C 361.560 80.820,361.200 80.331,361.200 80.206 C 361.200 80.081,360.673 79.398,360.029 78.689 C 359.384 77.980,358.384 76.702,357.806 75.849 C 357.227 74.995,356.495 74.037,356.177 73.720 C 355.860 73.403,355.600 73.009,355.600 72.845 C 355.600 72.681,354.565 71.452,353.300 70.114 C 350.649 67.308,349.600 66.079,349.600 65.778 C 349.600 65.661,347.935 63.958,345.900 61.993 C 341.564 57.808,342.456 58.695,337.963 54.100 C 335.973 52.065,334.269 50.400,334.177 50.400 C 333.930 50.400,332.483 49.184,330.947 47.687 C 330.206 46.964,329.600 46.469,329.600 46.586 C 329.600 46.703,328.948 46.183,328.150 45.431 C 327.353 44.679,326.467 44.153,326.181 44.263 C 325.895 44.372,325.446 44.043,325.184 43.531 C 324.654 42.498,323.219 41.216,322.600 41.222 C 322.380 41.224,322.549 41.490,322.976 41.813 M327.199 115.700 L 327.198 156.200 306.904 135.897 L 286.610 115.593 306.803 95.397 C 317.910 84.288,327.043 75.200,327.099 75.200 C 327.154 75.200,327.199 93.425,327.199 115.700 M327.389 186.200 C 327.389 200.720,327.439 206.602,327.500 199.271 C 327.561 191.940,327.561 180.060,327.500 172.871 C 327.439 165.682,327.389 171.680,327.389 186.200 M318.994 167.684 C 316.137 170.591,314.880 171.986,316.200 170.784 C 318.782 168.434,324.660 162.400,324.367 162.400 C 324.269 162.400,321.851 164.778,318.994 167.684 M302.589 184.100 L 299.800 187.000 302.700 184.211 C 304.295 182.677,305.600 181.372,305.600 181.311 C 305.600 181.017,305.180 181.406,302.589 184.100 M298.370 188.300 L 297.400 189.400 298.600 188.400 C 299.260 187.850,299.875 187.355,299.967 187.300 C 300.058 187.245,299.955 187.200,299.736 187.200 C 299.518 187.200,298.903 187.695,298.370 188.300 M286.800 200.925 C 286.800 200.994,287.385 201.579,288.100 202.225 L 289.400 203.400 288.225 202.100 C 287.130 200.888,286.800 200.616,286.800 200.925 M280.792 205.900 L 277.000 209.800 280.899 206.009 L 284.799 202.217 288.099 205.409 L 291.400 208.600 288.209 205.300 C 284.361 201.320,285.321 201.242,280.792 205.900 M111.600 205.400 C 110.628 206.390,109.923 207.200,110.033 207.200 C 110.143 207.200,111.028 206.390,112.000 205.400 C 112.972 204.410,113.677 203.600,113.567 203.600 C 113.457 203.600,112.572 204.410,111.600 205.400 M297.600 215.000 C 301.005 218.410,303.880 221.200,303.990 221.200 C 304.100 221.200,301.405 218.410,298.000 215.000 C 294.595 211.590,291.720 208.800,291.610 208.800 C 291.500 208.800,294.195 211.590,297.600 215.000 M89.398 227.700 L 74.200 243.000 89.500 227.802 C 103.720 213.677,104.980 212.400,104.698 212.400 C 104.642 212.400,97.757 219.285,89.398 227.700 M268.200 218.400 C 264.906 221.700,262.300 224.400,262.410 224.400 C 262.520 224.400,265.306 221.700,268.600 218.400 C 271.894 215.100,274.500 212.400,274.390 212.400 C 274.280 212.400,271.494 215.100,268.200 218.400 M252.594 234.100 L 247.400 239.400 252.700 234.206 C 257.623 229.381,258.181 228.800,257.894 228.800 C 257.836 228.800,255.451 231.185,252.594 234.100 M81.781 232.100 L 80.200 233.800 81.900 232.219 C 83.481 230.748,83.784 230.400,83.481 230.400 C 83.416 230.400,82.651 231.165,81.781 232.100 M246.800 237.000 C 245.161 238.650,243.910 240.000,244.020 240.000 C 244.130 240.000,245.561 238.650,247.200 237.000 C 248.839 235.350,250.090 234.000,249.980 234.000 C 249.870 234.000,248.439 235.350,246.800 237.000 M72.514 238.600 C 72.517 239.700,72.595 240.103,72.687 239.495 C 72.779 238.886,72.777 237.986,72.682 237.495 C 72.587 237.003,72.511 237.500,72.514 238.600 M93.384 265.188 C 104.369 276.181,113.277 285.263,113.179 285.370 C 112.560 286.043,75.774 322.900,74.443 324.181 L 72.800 325.762 72.800 285.481 C 72.800 263.327,72.937 245.200,73.105 245.200 C 73.273 245.200,82.399 254.195,93.384 265.188 " stroke="none" fill="#798bca" fill-rule="evenodd"></path><path id="path4" d="M289.150 20.200 C 289.123 20.310,289.078 20.548,289.050 20.729 C 288.971 21.245,287.704 22.400,287.215 22.400 C 286.972 22.400,286.152 22.985,285.394 23.700 C 282.805 26.139,282.125 26.705,281.170 27.216 C 280.645 27.497,279.551 28.418,278.739 29.264 C 277.927 30.109,277.147 30.800,277.005 30.800 C 276.864 30.800,275.871 31.700,274.800 32.800 C 273.729 33.900,272.649 34.800,272.400 34.800 C 272.151 34.800,271.071 35.700,270.000 36.800 C 268.929 37.900,267.854 38.800,267.613 38.800 C 267.371 38.800,266.567 39.385,265.827 40.100 C 264.484 41.396,263.655 42.063,261.972 43.200 C 260.653 44.091,258.400 46.370,258.400 46.813 C 258.400 47.026,258.118 47.200,257.774 47.200 C 257.430 47.200,256.271 48.100,255.200 49.200 C 254.129 50.300,253.049 51.200,252.800 51.200 C 252.551 51.200,251.471 52.100,250.400 53.200 C 249.329 54.300,248.256 55.200,248.015 55.200 C 247.775 55.200,246.808 55.965,245.866 56.900 C 244.924 57.835,243.644 58.960,243.022 59.400 C 242.399 59.840,241.110 60.965,240.156 61.900 C 239.202 62.835,238.225 63.600,237.985 63.600 C 237.744 63.600,236.671 64.500,235.600 65.600 C 234.529 66.700,233.449 67.600,233.200 67.600 C 232.951 67.600,231.871 68.500,230.800 69.600 C 229.729 70.700,228.582 71.600,228.253 71.600 C 227.923 71.600,227.540 71.960,227.400 72.400 C 227.260 72.840,226.972 73.200,226.760 73.200 C 226.547 73.200,225.858 73.695,225.228 74.300 C 224.598 74.905,223.513 75.850,222.816 76.400 C 222.120 76.950,221.119 77.805,220.593 78.300 C 220.067 78.795,219.438 79.200,219.196 79.200 C 218.954 79.200,217.696 80.280,216.400 81.600 C 215.104 82.920,213.843 84.000,213.596 84.000 C 213.350 84.000,212.271 84.900,211.200 86.000 C 210.129 87.100,209.146 88.000,209.015 88.000 C 208.885 88.000,207.969 88.810,206.979 89.800 C 205.989 90.790,205.023 91.600,204.832 91.600 C 204.518 91.600,203.514 92.419,200.914 94.791 C 200.427 95.236,199.830 95.600,199.588 95.600 C 199.346 95.600,198.271 96.500,197.200 97.600 C 196.129 98.700,194.970 99.600,194.626 99.600 C 194.282 99.600,194.000 99.752,194.000 99.939 C 194.000 100.471,192.556 102.000,192.053 102.000 C 191.804 102.000,191.600 102.152,191.600 102.339 C 191.600 102.885,190.150 104.400,189.627 104.400 C 189.364 104.400,188.271 105.300,187.200 106.400 C 186.129 107.500,185.052 108.400,184.808 108.400 C 184.564 108.400,183.924 108.805,183.386 109.300 C 180.804 111.677,180.398 112.000,179.988 112.000 C 179.746 112.000,178.671 112.900,177.600 114.000 C 176.529 115.100,175.540 116.000,175.404 116.000 C 175.267 116.000,174.096 117.080,172.800 118.400 C 171.504 119.720,170.243 120.800,169.996 120.800 C 169.750 120.800,168.671 121.700,167.600 122.800 C 166.529 123.900,165.452 124.800,165.208 124.800 C 164.964 124.800,164.324 125.205,163.786 125.700 C 161.309 127.981,160.813 128.400,160.588 128.400 C 160.456 128.400,159.471 129.300,158.400 130.400 C 157.329 131.500,156.249 132.400,156.000 132.400 C 155.751 132.400,154.671 133.300,153.600 134.400 C 152.529 135.500,151.450 136.400,151.204 136.400 C 150.957 136.400,149.696 137.480,148.400 138.800 C 147.104 140.120,145.853 141.200,145.619 141.200 C 145.384 141.200,144.631 141.737,143.945 142.392 L 142.697 143.585 141.449 142.551 C 140.762 141.983,138.535 139.891,136.500 137.903 C 134.465 135.915,132.800 134.427,132.800 134.597 C 132.800 134.767,137.930 140.015,144.200 146.259 C 150.470 152.503,155.600 157.750,155.600 157.919 C 155.600 158.407,115.849 198.409,115.369 198.404 C 115.132 198.402,105.952 189.441,94.969 178.491 C 83.986 167.541,77.620 161.286,80.822 164.591 C 85.988 169.922,89.003 173.069,94.756 179.133 C 95.660 180.086,96.400 181.133,96.400 181.460 C 96.400 182.562,94.715 181.117,85.200 171.851 C 82.010 168.745,87.045 173.894,96.390 183.293 L 113.379 200.383 111.790 202.025 C 102.481 211.640,73.127 240.861,72.953 240.686 C 72.828 240.561,72.707 222.581,72.684 200.729 C 72.649 167.716,72.601 164.415,72.399 181.200 C 72.265 192.310,72.000 201.842,71.810 202.381 C 71.420 203.487,69.053 206.000,68.400 206.000 C 68.165 206.000,67.359 206.585,66.608 207.300 C 64.797 209.026,64.328 209.396,63.182 210.009 C 62.650 210.294,61.551 211.218,60.739 212.064 C 59.927 212.909,59.149 213.600,59.009 213.600 C 58.870 213.600,57.696 214.680,56.400 216.000 C 55.104 217.320,53.843 218.400,53.596 218.400 C 53.350 218.400,52.271 219.300,51.200 220.400 C 50.129 221.500,49.054 222.400,48.813 222.400 C 48.571 222.400,47.757 222.985,47.004 223.700 C 46.251 224.415,44.982 225.540,44.185 226.200 C 43.387 226.860,42.125 227.985,41.381 228.700 C 40.636 229.415,39.831 230.000,39.591 230.000 C 39.352 230.000,38.096 231.080,36.800 232.400 C 35.504 233.720,34.243 234.800,33.996 234.800 C 33.750 234.800,32.671 235.700,31.600 236.800 C 30.529 237.900,29.460 238.800,29.226 238.800 C 28.992 238.800,28.076 239.503,27.190 240.363 C 26.304 241.223,25.025 242.348,24.347 242.863 C 23.669 243.378,22.509 244.385,21.770 245.100 C 21.031 245.815,20.229 246.400,19.987 246.400 C 19.746 246.400,18.671 247.300,17.600 248.400 C 16.529 249.500,15.450 250.400,15.204 250.400 C 14.957 250.400,13.696 251.480,12.400 252.800 C 11.104 254.120,9.874 255.200,9.665 255.200 C 9.456 255.200,9.182 255.470,9.055 255.800 C 8.929 256.130,8.629 256.400,8.389 256.400 C 8.149 256.400,8.082 256.175,8.241 255.900 C 8.399 255.625,8.380 255.535,8.198 255.699 C 8.017 255.864,7.815 256.492,7.751 257.095 C 7.664 257.910,7.731 258.039,8.011 257.596 C 8.281 257.168,8.389 257.480,8.394 258.700 C 8.397 259.635,8.574 260.400,8.787 260.400 C 9.001 260.400,9.085 260.633,8.976 260.918 C 8.867 261.203,9.054 262.221,9.393 263.180 C 9.732 264.140,9.918 265.015,9.808 265.126 C 9.697 265.236,9.755 265.523,9.936 265.763 C 10.117 266.003,10.666 267.370,11.157 268.800 C 12.073 271.472,12.629 272.881,13.247 274.095 C 13.441 274.477,13.600 275.062,13.600 275.395 C 13.600 275.728,13.780 276.000,14.000 276.000 C 14.220 276.000,14.400 276.355,14.400 276.788 C 14.400 277.221,14.760 278.217,15.200 279.000 C 15.640 279.783,16.000 280.689,16.000 281.012 C 16.000 281.335,16.180 281.600,16.400 281.600 C 16.620 281.600,16.800 281.872,16.800 282.205 C 16.800 282.538,16.968 283.123,17.174 283.505 C 17.379 283.887,17.783 284.785,18.071 285.500 C 18.360 286.215,18.731 286.800,18.898 286.800 C 19.064 286.800,19.200 287.160,19.200 287.600 C 19.200 288.040,19.380 288.400,19.600 288.400 C 19.820 288.400,20.000 288.634,20.000 288.920 C 20.000 289.656,20.941 291.593,21.300 291.597 C 21.465 291.599,21.600 291.941,21.600 292.357 C 21.600 292.774,21.881 293.222,22.225 293.354 C 22.569 293.486,22.738 293.777,22.600 294.000 C 22.330 294.437,23.295 295.600,23.926 295.600 C 24.137 295.600,24.735 295.062,25.255 294.404 C 25.775 293.746,26.431 293.206,26.714 293.204 C 27.217 293.200,27.787 292.744,30.594 290.100 C 31.352 289.385,32.171 288.800,32.413 288.800 C 32.654 288.800,33.729 287.900,34.800 286.800 C 35.871 285.700,36.951 284.800,37.200 284.800 C 37.449 284.800,38.529 283.900,39.600 282.800 C 40.671 281.700,41.661 280.800,41.800 280.800 C 41.939 280.800,42.929 279.900,44.000 278.800 C 45.071 277.700,46.148 276.800,46.392 276.800 C 46.636 276.800,47.276 276.395,47.814 275.900 C 50.394 273.524,50.801 273.200,51.208 273.200 C 51.448 273.200,52.704 272.120,54.000 270.800 C 55.296 269.480,56.596 268.400,56.890 268.400 C 57.183 268.400,57.688 268.020,58.012 267.556 C 59.079 266.025,60.713 264.400,61.186 264.400 C 61.442 264.400,62.529 263.500,63.600 262.400 C 64.671 261.300,65.748 260.400,65.992 260.400 C 66.236 260.400,66.876 259.995,67.414 259.500 C 67.951 259.005,68.837 258.195,69.381 257.700 C 69.926 257.205,70.627 256.800,70.939 256.800 C 71.743 256.800,72.047 255.285,72.342 249.800 C 72.635 244.343,72.713 244.258,75.276 246.600 C 78.224 249.295,78.796 249.737,79.032 249.501 C 79.413 249.121,78.151 247.052,76.502 245.353 C 75.643 244.468,74.834 243.466,74.703 243.125 C 74.444 242.448,114.247 202.400,115.180 202.400 C 115.456 202.400,117.419 204.044,119.541 206.053 C 123.314 209.625,124.945 210.789,125.459 210.275 C 125.724 210.010,123.791 207.660,119.639 203.200 C 118.308 201.770,117.215 200.507,117.210 200.392 C 117.188 199.922,157.251 160.200,157.748 160.200 C 158.045 160.200,160.746 162.522,163.751 165.361 C 170.508 171.745,172.400 173.022,172.400 171.200 C 172.400 170.980,172.720 170.800,173.112 170.800 C 173.503 170.800,174.088 170.420,174.412 169.956 C 175.479 168.425,177.113 166.800,177.586 166.800 C 177.842 166.800,178.929 165.900,180.000 164.800 C 181.071 163.700,182.151 162.800,182.400 162.800 C 182.649 162.800,183.729 161.900,184.800 160.800 C 185.871 159.700,187.025 158.800,187.364 158.800 C 188.033 158.800,191.600 155.423,191.600 154.789 C 191.600 154.575,191.882 154.400,192.226 154.400 C 192.570 154.400,193.729 153.500,194.800 152.400 C 195.871 151.300,196.951 150.400,197.200 150.400 C 197.449 150.400,198.529 149.500,199.600 148.400 C 200.671 147.300,201.751 146.400,202.000 146.400 C 202.249 146.400,203.329 145.500,204.400 144.400 C 205.471 143.300,206.561 142.400,206.822 142.400 C 207.083 142.400,208.072 141.590,209.021 140.600 C 209.969 139.610,210.948 138.800,211.195 138.800 C 211.442 138.800,212.704 137.720,214.000 136.400 C 215.296 135.080,216.557 134.000,216.804 134.000 C 217.050 134.000,218.129 133.100,219.200 132.000 C 220.271 130.900,221.354 130.000,221.605 130.000 C 222.140 130.000,225.200 126.908,225.200 126.367 C 225.200 126.165,225.478 126.000,225.817 126.000 C 226.486 126.000,226.928 125.681,229.008 123.700 C 229.759 122.985,230.569 122.400,230.809 122.400 C 231.048 122.400,232.304 121.320,233.600 120.000 C 234.896 118.680,236.157 117.600,236.404 117.600 C 236.650 117.600,237.729 116.700,238.800 115.600 C 239.871 114.500,240.861 113.600,241.000 113.600 C 241.139 113.600,242.129 112.700,243.200 111.600 C 244.271 110.500,245.347 109.600,245.591 109.600 C 246.086 109.600,246.624 109.190,248.608 107.300 C 249.359 106.585,250.171 106.000,250.413 106.000 C 250.654 106.000,251.729 105.100,252.800 104.000 C 253.871 102.900,254.954 102.000,255.205 102.000 C 255.677 102.000,258.149 99.548,259.188 98.048 C 259.512 97.582,260.019 97.200,260.314 97.200 C 260.610 97.200,261.729 96.300,262.800 95.200 C 263.871 94.100,264.948 93.200,265.192 93.200 C 265.436 93.200,266.076 92.795,266.614 92.300 C 269.196 89.923,269.602 89.600,270.012 89.600 C 270.254 89.600,271.329 88.700,272.400 87.600 C 273.471 86.500,274.461 85.600,274.600 85.600 C 274.739 85.600,275.729 84.700,276.800 83.600 C 277.871 82.500,278.950 81.600,279.196 81.600 C 279.443 81.600,280.704 80.520,282.000 79.200 C 283.296 77.880,284.554 76.800,284.796 76.800 C 285.038 76.800,285.676 76.395,286.214 75.900 C 288.818 73.502,289.208 73.200,289.697 73.200 C 289.987 73.200,290.488 72.820,290.812 72.356 C 291.879 70.825,293.513 69.200,293.986 69.200 C 294.242 69.200,295.329 68.300,296.400 67.200 C 297.471 66.100,298.550 65.200,298.796 65.200 C 299.043 65.200,300.304 64.120,301.600 62.800 C 302.896 61.480,304.152 60.400,304.392 60.400 C 304.799 60.400,305.206 60.076,307.786 57.700 C 308.324 57.205,308.874 56.800,309.008 56.800 C 309.142 56.800,310.129 55.900,311.200 54.800 C 312.271 53.700,313.351 52.800,313.600 52.800 C 313.849 52.800,314.929 51.900,316.000 50.800 C 317.071 49.700,318.151 48.800,318.400 48.800 C 318.649 48.800,319.729 47.900,320.800 46.800 C 321.871 45.700,323.020 44.800,323.351 44.800 C 323.683 44.800,324.212 44.432,324.528 43.982 C 325.010 43.293,325.138 43.262,325.338 43.782 C 325.468 44.122,325.788 44.400,326.049 44.400 C 326.338 44.400,326.250 44.097,325.824 43.627 C 325.422 43.182,324.858 42.956,324.497 43.095 C 324.123 43.238,323.971 43.170,324.122 42.926 C 324.261 42.701,323.931 42.315,323.387 42.067 C 322.844 41.820,322.400 41.420,322.400 41.180 C 322.400 40.608,321.382 39.600,320.805 39.600 C 320.556 39.600,320.464 39.420,320.600 39.200 C 320.736 38.980,320.557 38.800,320.202 38.800 C 319.847 38.800,318.981 38.261,318.278 37.602 C 317.575 36.943,316.775 36.403,316.500 36.402 C 316.225 36.401,316.000 36.250,316.000 36.068 C 316.000 35.885,315.505 35.480,314.900 35.168 C 314.295 34.855,313.451 34.285,313.025 33.900 C 312.598 33.515,312.053 33.200,311.813 33.200 C 311.573 33.200,311.117 32.840,310.800 32.400 C 310.483 31.960,309.903 31.600,309.512 31.600 C 309.120 31.600,308.800 31.442,308.800 31.249 C 308.800 31.055,308.260 30.673,307.600 30.400 C 306.940 30.127,306.400 29.764,306.400 29.595 C 306.400 29.425,305.995 29.183,305.500 29.056 C 305.005 28.929,304.144 28.398,303.586 27.876 C 303.029 27.355,302.263 26.973,301.884 27.029 C 301.506 27.084,301.298 26.966,301.422 26.765 C 301.546 26.564,301.444 26.400,301.195 26.400 C 300.946 26.400,300.471 26.128,300.139 25.796 C 299.807 25.464,299.370 25.295,299.168 25.420 C 298.965 25.545,298.800 25.457,298.800 25.224 C 298.800 24.991,298.440 24.800,298.000 24.800 C 297.560 24.800,297.200 24.663,297.200 24.496 C 297.200 24.329,296.821 23.956,296.358 23.667 C 295.895 23.378,295.625 23.317,295.759 23.533 C 295.892 23.749,295.564 23.719,295.030 23.467 C 294.495 23.215,294.132 22.934,294.223 22.844 C 294.484 22.583,292.387 21.600,291.568 21.600 C 291.161 21.600,290.635 21.240,290.400 20.800 C 290.009 20.069,289.271 19.715,289.150 20.200 M124.600 126.800 C 127.012 129.220,129.076 131.200,129.186 131.200 C 129.296 131.200,127.412 129.220,125.000 126.800 C 122.588 124.380,120.524 122.400,120.414 122.400 C 120.304 122.400,122.188 124.380,124.600 126.800 M107.781 124.500 L 106.200 126.200 107.900 124.619 C 109.481 123.148,109.784 122.800,109.481 122.800 C 109.416 122.800,108.651 123.565,107.781 124.500 M90.985 141.300 L 89.000 143.400 91.100 141.415 C 93.051 139.571,93.383 139.200,93.085 139.200 C 93.022 139.200,92.077 140.145,90.985 141.300 M76.400 155.800 C 75.428 156.790,74.723 157.600,74.833 157.600 C 74.943 157.600,75.828 156.790,76.800 155.800 C 77.772 154.810,78.477 154.000,78.367 154.000 C 78.257 154.000,77.372 154.810,76.400 155.800 " stroke="none" fill="#649cd6" fill-rule="evenodd"></path></g></svg>