<svg id="svg" version="1.1" xmlns="http://www.w3.org/2000/svg" xmlns:xlink="http://www.w3.org/1999/xlink" width="400" height="400" viewBox="0, 0, 400,400"><g id="svgg"><path id="path0" d="M205.000 71.016 C 195.917 71.980,181.803 75.058,170.200 78.605 C 153.443 83.727,143.118 86.546,137.800 87.448 C 135.185 87.892,131.714 89.970,129.383 92.488 C 113.640 109.492,144.498 163.817,189.200 197.795 C 199.013 205.254,199.214 205.574,195.000 207.029 C 184.595 210.623,176.910 218.233,170.474 231.313 C 164.695 243.060,166.007 245.064,177.348 241.809 C 198.790 235.655,217.280 236.345,219.269 243.374 C 219.993 245.932,219.858 261.298,219.089 263.800 C 218.751 264.900,218.206 266.737,217.878 267.882 C 209.711 296.393,175.497 300.294,134.251 277.419 C 121.559 270.379,121.788 270.613,124.120 267.086 C 128.704 260.152,130.096 255.574,131.829 241.743 C 132.160 239.096,130.568 225.187,129.408 220.600 C 125.628 205.651,123.714 202.764,120.322 206.900 C 116.092 212.058,111.800 215.855,105.400 220.100 C 94.371 227.415,90.400 232.719,90.400 240.134 C 90.400 240.891,88.703 240.510,85.716 239.081 L 82.200 237.400 77.200 237.427 L 72.200 237.455 64.776 239.917 C 55.461 243.006,52.573 243.621,46.718 243.760 C 38.736 243.951,38.804 245.498,47.288 256.831 C 59.960 273.757,73.449 282.499,89.187 283.983 L 92.973 284.340 96.370 288.070 C 106.990 299.734,118.037 309.960,127.077 316.497 C 145.872 330.087,165.224 338.083,188.000 341.667 C 194.946 342.760,212.642 342.997,219.000 342.082 C 227.113 340.914,228.438 340.671,233.927 339.344 C 273.422 329.802,307.606 302.241,326.127 265.008 C 328.667 259.903,329.717 257.403,332.631 249.521 C 336.425 239.261,339.559 220.971,339.591 208.900 C 339.602 204.775,340.170 204.000,343.179 204.000 C 347.726 204.000,354.747 207.329,360.400 212.165 C 365.757 216.748,367.015 214.472,365.021 203.800 C 361.035 182.468,346.787 161.863,327.400 149.395 C 323.119 146.641,323.363 146.918,318.771 139.600 C 287.837 90.295,248.245 66.427,205.000 71.016 M236.400 106.451 C 246.759 109.244,257.641 115.793,267.722 125.301 C 270.419 127.844,269.537 129.521,264.688 131.068 C 261.177 132.188,252.474 132.389,248.784 131.435 C 247.583 131.125,245.700 130.741,244.600 130.581 C 238.323 129.673,227.565 123.781,223.161 118.840 C 217.256 112.215,218.476 107.465,226.600 105.453 C 228.060 105.092,233.357 105.631,236.400 106.451 M172.227 122.166 C 173.312 122.478,175.010 122.849,176.000 122.991 C 179.707 123.524,190.362 127.018,197.000 129.878 C 203.871 132.838,213.300 137.813,218.800 141.380 C 220.230 142.308,222.390 143.658,223.600 144.380 C 227.335 146.610,236.324 153.351,242.554 158.595 C 252.045 166.583,265.946 181.309,272.400 190.213 C 273.390 191.578,275.038 193.844,276.062 195.248 C 318.655 253.622,294.262 312.666,222.200 325.622 C 213.779 327.136,196.842 327.464,191.200 326.222 C 189.550 325.859,186.891 325.394,185.290 325.190 C 183.690 324.985,181.170 324.469,179.690 324.042 C 178.211 323.616,175.306 322.802,173.236 322.233 C 158.176 318.092,140.752 308.121,125.735 295.051 C 116.986 287.436,117.915 286.643,128.800 292.432 C 133.818 295.101,140.351 298.149,146.800 300.830 C 151.594 302.823,163.122 306.156,167.600 306.844 C 209.802 313.324,237.555 290.088,235.733 249.800 C 234.541 223.458,221.008 200.799,195.854 183.032 C 186.267 176.260,167.783 156.813,158.686 143.928 C 144.972 124.502,145.402 121.627,162.027 121.609 C 167.951 121.602,170.807 121.759,172.227 122.166 " stroke="none" fill="#060505" fill-rule="evenodd"></path><path id="path1" d="M0.000 91.400 C 0.000 141.670,0.083 182.800,0.185 182.800 C 0.571 182.800,1.178 179.606,1.781 174.400 C 2.125 171.430,2.671 167.830,2.995 166.400 C 3.319 164.970,3.587 163.293,3.592 162.674 C 3.609 160.305,7.606 145.167,10.476 136.600 C 25.767 90.959,57.584 51.718,98.861 27.591 C 111.036 20.475,131.206 11.609,141.800 8.717 C 156.045 4.829,167.042 2.553,176.144 1.611 C 180.073 1.205,183.484 0.676,183.724 0.436 C 184.039 0.121,158.522 0.000,92.080 0.000 L 0.000 0.000 0.000 91.400 M216.276 0.436 C 216.516 0.676,219.932 1.198,223.867 1.597 C 227.802 1.996,232.547 2.623,234.411 2.990 C 239.494 3.992,246.670 5.602,249.600 6.398 C 251.030 6.787,253.730 7.506,255.600 7.997 C 279.830 14.358,310.011 30.666,330.363 48.394 C 353.088 68.190,370.328 91.446,382.999 119.400 C 387.261 128.800,393.469 147.206,394.602 153.800 C 394.754 154.680,395.213 156.750,395.624 158.400 C 396.729 162.841,397.860 169.692,398.788 177.564 C 399.032 179.634,399.399 181.614,399.604 181.964 C 399.834 182.357,399.980 147.795,399.988 91.300 L 400.000 0.000 307.920 0.000 C 241.478 0.000,215.961 0.121,216.276 0.436 M224.708 107.131 C 212.986 111.276,228.677 126.850,247.800 130.050 C 258.017 131.759,268.000 130.560,268.000 127.623 C 268.000 126.379,261.386 120.629,255.506 116.763 C 243.406 108.806,230.969 104.917,224.708 107.131 M155.760 122.780 C 148.237 123.648,148.288 126.476,156.033 138.077 C 168.504 156.756,182.649 171.632,201.794 186.200 C 225.697 204.390,237.577 228.368,236.672 256.600 C 235.724 286.149,217.554 305.490,187.237 309.221 C 178.895 310.248,164.177 307.987,152.121 303.827 C 143.938 301.004,142.235 300.298,133.816 296.233 C 125.073 292.012,124.005 291.756,127.000 294.599 C 144.829 311.526,168.546 322.211,195.800 325.596 C 210.720 327.450,232.963 323.713,248.453 316.752 C 250.352 315.898,252.069 315.200,252.269 315.200 C 255.064 315.200,271.218 304.283,276.627 298.738 C 306.564 268.051,301.426 223.905,262.832 180.202 C 247.744 163.118,227.001 146.206,211.027 137.967 C 210.352 137.619,208.035 136.408,205.877 135.277 C 201.399 132.929,195.534 130.253,192.600 129.218 C 175.908 123.331,165.999 121.600,155.760 122.780 M0.000 308.600 L 0.000 400.000 92.100 399.988 C 149.001 399.980,183.957 399.834,183.565 399.604 C 183.215 399.400,180.875 399.031,178.365 398.785 C 171.349 398.098,161.580 396.533,158.600 395.620 C 157.940 395.418,156.320 395.045,155.000 394.792 C 153.680 394.539,151.430 394.003,150.000 393.601 C 148.570 393.199,145.870 392.472,144.000 391.984 C 125.813 387.244,102.966 376.116,83.400 362.470 C 49.385 338.746,20.139 297.813,8.615 257.800 C 6.573 250.711,4.595 242.920,3.943 239.400 C 2.553 231.896,1.951 228.076,1.580 224.400 C 1.170 220.330,0.563 217.200,0.185 217.200 C 0.083 217.200,0.000 258.330,0.000 308.600 M399.467 218.170 C 399.346 218.484,399.040 220.599,398.787 222.870 C 398.533 225.142,397.981 228.890,397.560 231.200 C 397.139 233.510,396.620 236.684,396.406 238.252 C 396.192 239.821,395.822 241.616,395.585 242.240 C 395.347 242.865,394.893 244.642,394.576 246.188 C 394.046 248.774,393.194 251.965,391.207 258.800 C 376.888 308.064,337.923 354.561,291.400 377.901 C 281.097 383.070,261.222 391.200,258.889 391.200 C 258.622 391.200,257.367 391.540,256.102 391.956 C 252.857 393.022,245.337 394.830,238.400 396.212 C 236.750 396.540,234.133 397.084,232.584 397.419 C 231.035 397.754,227.728 398.195,225.235 398.397 C 219.649 398.851,217.181 399.198,216.400 399.638 C 216.070 399.824,257.245 399.981,307.900 399.988 L 400.000 400.000 400.000 308.800 C 400.000 258.640,399.929 217.600,399.843 217.600 C 399.756 217.600,399.587 217.857,399.467 218.170 " stroke="none" fill="#fbfbfa" fill-rule="evenodd"></path><path id="path2" d="M183.724 0.436 C 183.484 0.676,180.073 1.205,176.144 1.611 C 167.042 2.553,156.045 4.829,141.800 8.717 C 131.206 11.609,111.036 20.475,98.861 27.591 C 57.584 51.718,25.767 90.959,10.476 136.600 C 7.606 145.167,3.609 160.305,3.592 162.674 C 3.587 163.293,3.319 164.970,2.995 166.400 C 2.671 167.830,2.130 171.430,1.793 174.400 C 1.455 177.370,0.913 180.644,0.589 181.675 C -0.250 184.345,-0.270 215.788,0.566 218.200 C 0.871 219.080,1.328 221.870,1.582 224.400 C 1.836 226.930,2.379 230.800,2.788 233.000 C 3.198 235.200,3.707 237.990,3.919 239.200 C 4.923 244.938,8.477 257.972,11.006 265.200 C 22.556 298.199,42.051 327.224,68.201 350.353 C 89.216 368.940,119.586 385.621,144.000 391.984 C 145.870 392.472,148.570 393.199,150.000 393.601 C 151.430 394.003,153.680 394.539,155.000 394.792 C 156.320 395.045,157.940 395.418,158.600 395.620 C 160.375 396.164,168.527 397.625,172.200 398.058 C 173.960 398.265,177.290 398.723,179.600 399.075 C 184.933 399.888,215.003 400.056,218.116 399.290 C 219.170 399.030,222.221 398.641,224.897 398.424 C 227.572 398.208,231.030 397.756,232.581 397.420 C 234.131 397.084,236.750 396.540,238.400 396.212 C 245.337 394.830,252.857 393.022,256.102 391.956 C 257.367 391.540,258.622 391.200,258.889 391.200 C 261.222 391.200,281.097 383.070,291.400 377.901 C 337.923 354.561,376.888 308.064,391.207 258.800 C 393.194 251.965,394.046 248.774,394.576 246.188 C 394.893 244.642,395.347 242.865,395.585 242.240 C 395.822 241.616,396.193 239.821,396.408 238.252 C 396.623 236.684,397.148 233.420,397.574 231.000 C 399.709 218.869,399.718 218.751,399.725 200.000 C 399.730 185.396,399.617 181.590,399.095 178.800 C 398.745 176.930,398.284 173.960,398.071 172.200 C 397.527 167.710,396.502 161.930,395.624 158.400 C 395.213 156.750,394.754 154.680,394.602 153.800 C 393.918 149.820,389.244 134.768,386.591 128.000 C 371.750 90.143,345.875 57.502,312.881 35.016 C 295.720 23.319,272.820 12.518,255.600 7.997 C 253.730 7.506,251.030 6.787,249.600 6.398 C 246.670 5.602,239.494 3.992,234.411 2.990 C 232.547 2.623,227.802 1.996,223.867 1.597 C 219.932 1.198,216.516 0.676,216.276 0.436 C 215.665 -0.175,184.335 -0.175,183.724 0.436 M226.600 70.989 C 260.750 74.806,293.339 99.064,318.771 139.600 C 323.363 146.918,323.119 146.641,327.400 149.395 C 346.787 161.863,361.035 182.468,365.021 203.800 C 367.015 214.472,365.757 216.748,360.400 212.165 C 354.747 207.329,347.726 204.000,343.179 204.000 C 340.170 204.000,339.602 204.775,339.591 208.900 C 339.559 220.971,336.425 239.261,332.631 249.521 C 329.717 257.403,328.667 259.903,326.127 265.008 C 307.606 302.241,273.422 329.802,233.927 339.344 C 228.438 340.671,227.113 340.914,219.000 342.082 C 212.642 342.997,194.946 342.760,188.000 341.667 C 165.224 338.083,145.872 330.087,127.077 316.497 C 118.037 309.960,106.990 299.734,96.370 288.070 L 92.973 284.340 89.187 283.983 C 73.449 282.499,59.960 273.757,47.288 256.831 C 38.804 245.498,38.736 243.951,46.718 243.760 C 52.573 243.621,55.461 243.006,64.776 239.917 L 72.200 237.455 77.200 237.427 L 82.200 237.400 85.716 239.081 C 88.703 240.510,90.400 240.891,90.400 240.134 C 90.400 232.719,94.371 227.415,105.400 220.100 C 111.800 215.855,116.092 212.058,120.322 206.900 C 123.714 202.764,125.628 205.651,129.408 220.600 C 130.568 225.187,132.160 239.096,131.829 241.743 C 130.096 255.574,128.704 260.152,124.120 267.086 C 121.788 270.613,121.559 270.379,134.251 277.419 C 175.497 300.294,209.711 296.393,217.878 267.882 C 218.206 266.737,218.751 264.900,219.089 263.800 C 219.858 261.298,219.993 245.932,219.269 243.374 C 217.280 236.345,198.790 235.655,177.348 241.809 C 166.007 245.064,164.695 243.060,170.474 231.313 C 176.910 218.233,184.595 210.623,195.000 207.029 C 199.214 205.574,199.013 205.254,189.200 197.795 C 144.498 163.817,113.640 109.492,129.383 92.488 C 131.714 89.970,135.185 87.892,137.800 87.448 C 143.118 86.546,153.443 83.727,170.200 78.605 C 192.500 71.788,211.179 69.265,226.600 70.989 M226.600 105.453 C 218.476 107.465,217.256 112.215,223.161 118.840 C 227.565 123.781,238.323 129.673,244.600 130.581 C 245.700 130.741,247.583 131.125,248.784 131.435 C 254.478 132.907,265.818 131.737,268.388 129.411 C 270.228 127.746,269.744 126.991,263.072 121.112 C 252.296 111.616,233.793 103.672,226.600 105.453 M233.674 107.008 C 247.139 109.808,271.221 125.475,267.300 128.885 C 263.350 132.321,245.675 131.087,236.400 126.729 C 217.281 117.744,215.268 103.182,233.674 107.008 M152.169 122.359 C 146.807 124.794,148.026 128.829,158.686 143.928 C 167.783 156.813,186.267 176.260,195.854 183.032 C 215.987 197.252,226.449 211.143,232.589 231.805 C 243.660 269.061,225.395 302.996,191.881 307.438 C 182.558 308.674,178.941 308.585,167.600 306.844 C 163.122 306.156,151.594 302.823,146.800 300.830 C 140.351 298.149,133.818 295.101,128.800 292.432 C 117.915 286.643,116.986 287.436,125.735 295.051 C 140.752 308.121,158.176 318.092,173.236 322.233 C 175.306 322.802,178.211 323.616,179.690 324.042 C 181.170 324.469,183.690 324.985,185.290 325.190 C 186.891 325.394,189.550 325.859,191.200 326.222 C 202.515 328.713,224.545 326.374,240.400 321.000 C 299.287 301.038,314.391 247.778,276.062 195.248 C 275.038 193.844,273.390 191.578,272.400 190.213 C 265.946 181.309,252.045 166.583,242.554 158.595 C 236.324 153.351,227.335 146.610,223.600 144.380 C 222.390 143.658,220.230 142.308,218.800 141.380 C 213.300 137.813,203.871 132.838,197.000 129.878 C 190.362 127.018,179.707 123.524,176.000 122.991 C 175.010 122.849,173.312 122.478,172.227 122.166 C 169.014 121.244,154.313 121.384,152.169 122.359 M172.600 123.410 C 178.011 124.423,183.625 126.053,192.600 129.218 C 195.534 130.253,201.399 132.929,205.877 135.277 C 208.035 136.408,210.352 137.619,211.027 137.967 C 231.936 148.752,258.021 171.997,273.684 193.800 C 308.078 241.680,302.297 287.541,258.816 311.756 C 255.414 313.650,252.468 315.200,252.269 315.200 C 252.069 315.200,250.352 315.898,248.453 316.752 C 235.522 322.563,219.351 325.952,204.400 325.983 C 177.812 326.038,146.921 313.513,127.000 294.599 C 124.005 291.756,125.073 292.012,133.816 296.233 C 153.921 305.939,174.079 310.841,187.237 309.221 C 217.554 305.490,235.724 286.149,236.672 256.600 C 237.577 228.368,225.697 204.390,201.794 186.200 C 182.649 171.632,168.504 156.756,156.033 138.077 C 148.288 126.476,148.237 123.648,155.760 122.780 C 159.857 122.308,168.419 122.628,172.600 123.410 " stroke="none" fill="#f3c35b" fill-rule="evenodd"></path></g></svg>