<svg id="svg" version="1.1" xmlns="http://www.w3.org/2000/svg" xmlns:xlink="http://www.w3.org/1999/xlink" width="400" height="400" viewBox="0, 0, 400,400"><g id="svgg"><path id="path0" d="M296.231 24.470 C 296.139 24.762,295.975 29.515,295.866 35.034 C 295.666 45.221,295.031 51.588,293.596 57.800 C 293.190 59.560,292.734 61.630,292.583 62.400 C 292.431 63.170,292.173 63.980,292.009 64.200 C 291.845 64.420,291.585 65.140,291.432 65.800 C 291.279 66.460,290.726 68.080,290.204 69.400 C 284.350 84.191,273.440 95.699,258.200 103.158 C 250.535 106.910,247.653 107.983,236.400 111.276 C 234.970 111.695,232.630 112.381,231.200 112.800 C 229.770 113.219,227.430 113.906,226.000 114.325 C 224.570 114.745,221.960 115.504,220.200 116.012 C 215.250 117.442,198.476 123.117,196.600 123.997 C 179.825 131.862,162.595 125.244,152.345 107.000 C 150.416 103.566,147.202 97.015,147.198 96.508 C 147.196 96.339,146.946 95.722,146.641 95.139 C 146.337 94.555,145.864 93.385,145.592 92.539 C 145.319 91.692,144.963 90.820,144.800 90.600 C 144.637 90.380,144.277 89.480,144.000 88.600 C 143.723 87.720,143.363 86.820,143.200 86.600 C 143.037 86.380,142.677 85.480,142.400 84.600 C 142.123 83.720,141.763 82.820,141.600 82.600 C 141.437 82.380,141.077 81.480,140.800 80.600 C 140.523 79.720,140.153 78.818,139.978 78.595 C 139.803 78.372,139.392 77.112,139.065 75.795 C 136.869 66.950,136.580 67.121,132.324 79.800 C 130.544 85.102,129.801 87.924,128.377 94.800 C 127.177 100.592,127.540 117.166,129.000 123.232 C 129.886 126.917,131.664 132.931,132.005 133.400 C 132.165 133.620,132.520 134.496,132.794 135.346 C 133.068 136.197,134.527 139.326,136.036 142.300 C 137.546 145.275,138.690 147.854,138.580 148.033 C 138.391 148.338,135.424 149.275,128.400 151.247 C 126.750 151.710,124.500 152.362,123.400 152.695 C 122.300 153.028,120.500 153.534,119.400 153.819 C 118.300 154.105,116.050 154.720,114.400 155.186 C 107.132 157.241,101.494 158.689,95.600 160.015 C 93.730 160.435,91.030 161.045,89.600 161.369 C 80.170 163.510,77.325 168.868,79.613 180.184 C 82.687 195.390,92.065 206.336,106.800 211.917 C 113.324 214.388,118.269 215.140,133.600 215.991 C 137.230 216.192,141.460 216.545,143.000 216.776 C 144.540 217.006,147.870 217.466,150.400 217.797 C 157.107 218.675,166.005 220.311,170.200 221.438 C 171.300 221.733,173.280 222.259,174.600 222.607 C 175.920 222.955,177.900 223.480,179.000 223.772 C 181.765 224.508,190.727 227.514,192.260 228.220 C 192.954 228.539,193.697 228.800,193.912 228.800 C 194.127 228.800,195.360 229.264,196.652 229.832 C 197.943 230.399,199.360 231.015,199.800 231.200 C 200.240 231.385,201.988 232.184,203.684 232.976 C 205.381 233.767,207.541 234.769,208.484 235.201 C 209.428 235.633,211.640 236.790,213.400 237.772 C 215.160 238.754,217.140 239.837,217.800 240.178 C 218.460 240.519,219.540 241.153,220.200 241.587 C 220.860 242.021,221.900 242.658,222.511 243.004 C 230.806 247.694,238.417 254.056,251.360 267.121 C 260.973 276.825,261.280 277.237,259.941 278.663 C 258.671 280.014,258.341 279.887,255.533 276.957 C 239.975 260.722,229.343 252.561,216.800 247.228 C 215.150 246.527,213.440 245.790,213.000 245.590 C 210.033 244.245,200.219 241.600,198.195 241.600 C 196.479 241.600,196.407 242.290,197.574 247.526 C 199.514 256.231,199.502 268.647,197.548 275.000 C 197.142 276.320,196.807 277.670,196.803 278.000 C 196.799 278.330,196.546 279.078,196.241 279.661 C 195.937 280.245,195.474 281.369,195.214 282.158 C 194.781 283.470,193.804 285.469,192.356 288.005 C 181.432 307.144,156.872 317.829,134.400 313.218 C 128.670 312.042,125.082 311.188,122.600 310.409 C 116.624 308.534,116.417 308.657,119.111 312.483 C 120.150 313.959,121.535 315.939,122.189 316.883 C 122.843 317.828,123.743 319.070,124.189 319.644 C 124.635 320.219,125.270 321.098,125.600 321.598 C 129.031 326.795,141.046 340.692,147.364 346.771 C 149.324 348.657,151.304 350.570,151.764 351.022 C 154.512 353.723,164.808 361.429,168.302 363.401 C 168.906 363.742,170.120 364.459,171.000 364.995 C 171.880 365.531,174.490 366.892,176.800 368.019 C 179.110 369.146,181.478 370.323,182.062 370.634 C 182.646 370.945,183.366 371.201,183.662 371.202 C 183.958 371.204,184.715 371.473,185.344 371.801 C 186.475 372.391,187.582 372.732,194.600 374.653 C 207.892 378.290,228.015 377.810,241.302 373.540 C 242.567 373.133,243.884 372.800,244.227 372.800 C 244.571 372.800,245.695 372.465,246.726 372.055 C 247.757 371.645,249.680 370.909,251.000 370.419 C 255.863 368.615,266.303 363.769,269.390 361.883 C 285.102 352.282,295.946 341.790,304.616 327.800 C 306.928 324.069,312.000 313.891,312.000 312.982 C 312.000 312.839,312.259 312.154,312.575 311.460 C 315.516 305.016,319.033 289.854,320.012 279.400 C 321.054 268.271,320.853 249.542,319.594 240.400 C 317.356 224.152,313.850 209.935,308.597 195.800 C 308.025 194.260,307.368 192.370,307.137 191.600 C 306.906 190.830,306.578 190.020,306.407 189.800 C 306.237 189.580,305.966 188.950,305.804 188.400 C 305.643 187.850,305.276 186.860,304.989 186.200 C 300.211 175.221,297.542 169.526,291.547 157.510 C 287.534 149.466,284.518 142.959,284.647 142.622 C 284.773 142.293,286.704 140.170,288.938 137.904 C 298.088 128.623,304.967 118.586,309.707 107.600 C 310.039 106.830,310.443 105.750,310.604 105.200 C 310.766 104.650,311.030 104.020,311.192 103.800 C 311.354 103.580,311.980 101.690,312.583 99.600 C 313.187 97.510,313.917 94.990,314.205 94.000 C 317.206 83.685,317.170 66.025,314.126 55.600 C 310.667 43.750,306.996 36.363,299.915 27.005 C 297.854 24.281,296.569 23.397,296.231 24.470 M239.600 135.335 C 239.600 137.369,233.746 143.492,229.464 145.938 C 223.872 149.133,211.886 150.029,210.152 147.383 C 209.251 146.008,210.071 145.133,213.341 143.976 C 216.544 142.842,219.152 141.893,222.600 140.603 C 224.140 140.028,226.030 139.368,226.800 139.137 C 227.570 138.906,228.380 138.574,228.600 138.400 C 228.820 138.226,229.630 137.894,230.400 137.663 C 232.584 137.008,237.262 135.272,237.510 135.024 C 237.961 134.572,239.600 134.816,239.600 135.335 " stroke="none" fill="#f9f9f9" fill-rule="evenodd"></path><path id="path1" d="M0.000 200.000 L 0.000 400.000 200.000 400.000 L 400.000 400.000 400.000 200.000 L 400.000 0.000 200.000 0.000 L 0.000 0.000 0.000 200.000 M299.915 27.005 C 306.996 36.363,310.667 43.750,314.126 55.600 C 317.170 66.025,317.206 83.685,314.205 94.000 C 313.917 94.990,313.187 97.510,312.583 99.600 C 311.980 101.690,311.354 103.580,311.192 103.800 C 311.030 104.020,310.766 104.650,310.604 105.200 C 310.443 105.750,310.039 106.830,309.707 107.600 C 304.967 118.586,298.088 128.623,288.938 137.904 C 286.704 140.170,284.773 142.293,284.647 142.622 C 284.518 142.959,287.534 149.466,291.547 157.510 C 297.542 169.526,300.211 175.221,304.989 186.200 C 305.276 186.860,305.643 187.850,305.804 188.400 C 305.966 188.950,306.237 189.580,306.407 189.800 C 306.578 190.020,306.906 190.830,307.137 191.600 C 307.368 192.370,308.025 194.260,308.597 195.800 C 313.850 209.935,317.356 224.152,319.594 240.400 C 320.853 249.542,321.054 268.271,320.012 279.400 C 319.033 289.854,315.516 305.016,312.575 311.460 C 312.259 312.154,312.000 312.839,312.000 312.982 C 312.000 313.891,306.928 324.069,304.616 327.800 C 295.946 341.790,285.102 352.282,269.390 361.883 C 266.303 363.769,255.863 368.615,251.000 370.419 C 249.680 370.909,247.757 371.645,246.726 372.055 C 245.695 372.465,244.571 372.800,244.227 372.800 C 243.884 372.800,242.567 373.133,241.302 373.540 C 228.015 377.810,207.892 378.290,194.600 374.653 C 187.582 372.732,186.475 372.391,185.344 371.801 C 184.715 371.473,183.958 371.204,183.662 371.202 C 183.366 371.201,182.646 370.945,182.062 370.634 C 181.478 370.323,179.110 369.146,176.800 368.019 C 174.490 366.892,171.880 365.531,171.000 364.995 C 170.120 364.459,168.906 363.742,168.302 363.401 C 164.808 361.429,154.512 353.723,151.764 351.022 C 151.304 350.570,149.324 348.657,147.364 346.771 C 141.046 340.692,129.031 326.795,125.600 321.598 C 125.270 321.098,124.635 320.219,124.189 319.644 C 123.743 319.070,122.843 317.828,122.189 316.883 C 121.535 315.939,120.150 313.959,119.111 312.483 C 116.417 308.657,116.624 308.534,122.600 310.409 C 125.082 311.188,128.670 312.042,134.400 313.218 C 156.872 317.829,181.432 307.144,192.356 288.005 C 193.804 285.469,194.781 283.470,195.214 282.158 C 195.474 281.369,195.937 280.245,196.241 279.661 C 196.546 279.078,196.799 278.330,196.803 278.000 C 196.807 277.670,197.142 276.320,197.548 275.000 C 199.502 268.647,199.514 256.231,197.574 247.526 C 196.407 242.290,196.479 241.600,198.195 241.600 C 200.219 241.600,210.033 244.245,213.000 245.590 C 213.440 245.790,215.150 246.527,216.800 247.228 C 229.343 252.561,239.975 260.722,255.533 276.957 C 258.341 279.887,258.671 280.014,259.941 278.663 C 261.280 277.237,260.973 276.825,251.360 267.121 C 238.417 254.056,230.806 247.694,222.511 243.004 C 221.900 242.658,220.860 242.021,220.200 241.587 C 219.540 241.153,218.460 240.519,217.800 240.178 C 217.140 239.837,215.160 238.754,213.400 237.772 C 211.640 236.790,209.428 235.633,208.484 235.201 C 207.541 234.769,205.381 233.767,203.684 232.976 C 201.988 232.184,200.240 231.385,199.800 231.200 C 199.360 231.015,197.943 230.399,196.652 229.832 C 195.360 229.264,194.127 228.800,193.912 228.800 C 193.697 228.800,192.954 228.539,192.260 228.220 C 190.727 227.514,181.765 224.508,179.000 223.772 C 177.900 223.480,175.920 222.955,174.600 222.607 C 173.280 222.259,171.300 221.733,170.200 221.438 C 166.005 220.311,157.107 218.675,150.400 217.797 C 147.870 217.466,144.540 217.006,143.000 216.776 C 141.460 216.545,137.230 216.192,133.600 215.991 C 118.269 215.140,113.324 214.388,106.800 211.917 C 92.065 206.336,82.687 195.390,79.613 180.184 C 77.325 168.868,80.170 163.510,89.600 161.369 C 91.030 161.045,93.730 160.435,95.600 160.015 C 101.494 158.689,107.132 157.241,114.400 155.186 C 116.050 154.720,118.300 154.105,119.400 153.819 C 120.500 153.534,122.300 153.028,123.400 152.695 C 124.500 152.362,126.750 151.710,128.400 151.247 C 135.424 149.275,138.391 148.338,138.580 148.033 C 138.690 147.854,137.546 145.275,136.036 142.300 C 134.527 139.326,133.068 136.197,132.794 135.346 C 132.520 134.496,132.165 133.620,132.005 133.400 C 131.664 132.931,129.886 126.917,129.000 123.232 C 127.540 117.166,127.177 100.592,128.377 94.800 C 129.801 87.924,130.544 85.102,132.324 79.800 C 136.580 67.121,136.869 66.950,139.065 75.795 C 139.392 77.112,139.803 78.372,139.978 78.595 C 140.153 78.818,140.523 79.720,140.800 80.600 C 141.077 81.480,141.437 82.380,141.600 82.600 C 141.763 82.820,142.123 83.720,142.400 84.600 C 142.677 85.480,143.037 86.380,143.200 86.600 C 143.363 86.820,143.723 87.720,144.000 88.600 C 144.277 89.480,144.637 90.380,144.800 90.600 C 144.963 90.820,145.319 91.692,145.592 92.539 C 145.864 93.385,146.337 94.555,146.641 95.139 C 146.946 95.722,147.196 96.339,147.198 96.508 C 147.202 97.015,150.416 103.566,152.345 107.000 C 162.595 125.244,179.825 131.862,196.600 123.997 C 198.476 123.117,215.250 117.442,220.200 116.012 C 221.960 115.504,224.570 114.745,226.000 114.325 C 227.430 113.906,229.770 113.219,231.200 112.800 C 232.630 112.381,234.970 111.695,236.400 111.276 C 247.653 107.983,250.535 106.910,258.200 103.158 C 273.440 95.699,284.350 84.191,290.204 69.400 C 290.726 68.080,291.279 66.460,291.432 65.800 C 291.585 65.140,291.845 64.420,292.009 64.200 C 292.173 63.980,292.431 63.170,292.583 62.400 C 292.734 61.630,293.190 59.560,293.596 57.800 C 295.031 51.588,295.666 45.221,295.866 35.034 C 296.122 22.033,296.135 22.008,299.915 27.005 M237.510 135.024 C 237.262 135.272,232.584 137.008,230.400 137.663 C 229.630 137.894,228.820 138.226,228.600 138.400 C 228.380 138.574,227.570 138.906,226.800 139.137 C 226.030 139.368,224.140 140.028,222.600 140.603 C 219.152 141.893,216.544 142.842,213.341 143.976 C 210.071 145.133,209.251 146.008,210.152 147.383 C 211.886 150.029,223.872 149.133,229.464 145.938 C 233.746 143.492,239.600 137.369,239.600 135.335 C 239.600 134.816,237.961 134.572,237.510 135.024 " stroke="none" fill="#040404" fill-rule="evenodd"></path></g></svg>