<svg id="svg" version="1.1" xmlns="http://www.w3.org/2000/svg" xmlns:xlink="http://www.w3.org/1999/xlink" width="400" height="400" viewBox="0, 0, 400,400"><g id="svgg"><path id="path0" d="M153.278 61.614 C 152.771 61.821,151.826 62.031,151.178 62.080 C 150.530 62.130,150.000 62.312,150.000 62.485 C 150.000 62.658,149.375 62.800,148.612 62.800 C 147.849 62.800,146.583 63.160,145.800 63.600 C 145.017 64.040,144.011 64.400,143.564 64.400 C 143.118 64.400,142.864 64.580,143.000 64.800 C 143.140 65.027,142.804 65.200,142.224 65.200 C 141.661 65.200,141.200 65.380,141.200 65.600 C 141.200 65.820,140.840 66.000,140.400 66.000 C 139.960 66.000,139.600 66.180,139.600 66.400 C 139.600 66.620,139.283 66.800,138.896 66.800 C 138.509 66.800,137.968 67.160,137.693 67.600 C 137.418 68.040,136.874 68.400,136.485 68.400 C 136.095 68.400,135.517 68.760,135.200 69.200 C 134.883 69.640,134.293 70.000,133.888 70.000 C 133.484 70.000,133.264 70.180,133.400 70.400 C 133.536 70.620,133.478 70.800,133.270 70.800 C 133.063 70.800,131.657 71.969,130.146 73.397 C 126.138 77.186,125.897 77.429,124.800 78.761 C 124.250 79.429,123.666 79.981,123.502 79.988 C 123.339 79.995,122.403 80.790,121.424 81.755 C 120.445 82.721,119.544 83.411,119.422 83.289 C 119.300 83.167,119.200 83.257,119.200 83.490 C 119.200 83.902,115.328 88.000,114.939 88.000 C 114.522 88.000,113.651 89.118,113.886 89.352 C 114.022 89.489,113.910 89.600,113.638 89.600 C 113.366 89.600,112.873 89.870,112.543 90.200 C 112.213 90.530,112.054 90.800,112.190 90.800 C 112.325 90.800,111.986 91.250,111.436 91.800 C 110.886 92.350,110.260 92.800,110.045 92.800 C 109.830 92.800,109.535 93.174,109.390 93.630 C 109.246 94.087,109.032 94.365,108.916 94.249 C 108.622 93.956,107.600 95.035,107.600 95.638 C 107.600 95.910,107.493 96.027,107.363 95.897 C 107.233 95.766,102.195 100.596,96.166 106.630 C 90.138 112.663,85.080 117.600,84.926 117.600 C 84.772 117.600,83.715 118.545,82.577 119.700 C 81.440 120.855,80.170 122.093,79.755 122.450 C 79.340 122.808,78.490 123.663,77.866 124.350 C 77.242 125.038,76.578 125.600,76.389 125.600 C 76.200 125.600,75.746 126.106,75.381 126.725 C 75.015 127.344,74.196 128.199,73.559 128.625 C 72.923 129.051,72.402 129.655,72.401 129.967 C 72.401 130.278,72.301 130.434,72.180 130.314 C 71.912 130.046,47.600 154.249,47.600 154.784 C 47.600 154.993,47.195 155.585,46.700 156.100 C 46.205 156.615,45.748 157.275,45.684 157.566 C 45.621 157.857,45.138 158.659,44.613 159.348 C 43.472 160.843,42.000 164.159,42.000 165.233 C 42.000 165.655,41.820 166.000,41.600 166.000 C 41.380 166.000,41.200 166.540,41.200 167.200 C 41.200 167.860,41.020 168.400,40.800 168.400 C 40.580 168.400,40.400 168.940,40.400 169.600 C 40.400 170.260,40.220 170.800,40.000 170.800 C 39.780 170.800,39.600 171.700,39.600 172.800 C 39.600 173.900,39.420 174.800,39.200 174.800 C 38.947 174.800,38.800 177.733,38.800 182.800 C 38.800 187.867,38.947 190.800,39.200 190.800 C 39.420 190.800,39.600 191.599,39.600 192.576 C 39.600 193.553,39.780 194.464,40.000 194.600 C 40.220 194.736,40.400 195.377,40.400 196.024 C 40.400 196.671,40.580 197.200,40.800 197.200 C 41.020 197.200,41.200 197.645,41.200 198.188 C 41.200 198.731,41.557 199.811,41.993 200.588 C 42.429 201.365,42.709 202.000,42.614 202.000 C 42.240 202.000,43.745 205.057,44.646 206.127 C 45.171 206.751,45.601 207.473,45.602 207.731 C 45.603 207.989,46.143 208.775,46.802 209.478 C 47.461 210.181,48.000 210.940,48.000 211.163 C 48.000 211.614,56.702 220.429,58.685 221.987 C 59.375 222.529,59.853 223.114,59.747 223.287 C 59.640 223.459,59.844 223.600,60.200 223.600 C 60.556 223.600,60.736 223.779,60.601 223.998 C 60.466 224.217,60.809 224.604,61.365 224.857 C 61.920 225.110,62.280 225.471,62.164 225.658 C 62.048 225.846,62.244 226.000,62.600 226.000 C 62.956 226.000,63.136 226.180,63.000 226.400 C 62.864 226.620,63.063 226.800,63.443 226.800 C 63.823 226.800,64.034 226.899,63.912 227.021 C 63.616 227.317,73.564 237.200,74.158 237.200 C 74.414 237.200,74.888 237.592,75.212 238.070 C 75.535 238.549,76.407 239.494,77.149 240.170 C 77.891 240.847,85.232 248.060,93.462 256.200 C 101.693 264.340,109.413 271.900,110.618 273.000 C 111.822 274.100,118.554 280.698,125.576 287.661 C 132.598 294.625,138.447 300.220,138.572 300.095 C 138.697 299.969,138.800 300.051,138.800 300.275 C 138.800 300.844,142.288 304.379,142.570 304.097 C 142.697 303.970,142.800 304.177,142.800 304.557 C 142.800 304.937,142.980 305.136,143.200 305.000 C 143.420 304.864,143.600 305.021,143.600 305.350 C 143.600 305.678,144.455 306.633,145.500 307.472 C 147.518 309.091,148.242 309.816,149.188 311.163 C 149.512 311.623,149.996 312.000,150.263 312.000 C 150.531 312.000,156.604 317.844,163.759 324.987 C 170.915 332.130,176.877 337.800,177.008 337.587 C 177.140 337.374,177.057 337.200,176.824 337.200 C 176.591 337.200,176.400 336.930,176.400 336.600 C 176.400 336.270,176.220 336.000,176.000 336.000 C 175.780 336.000,175.600 335.713,175.600 335.362 C 175.600 335.011,175.249 334.230,174.819 333.627 C 171.642 329.165,170.705 319.189,172.882 313.000 C 174.707 307.813,175.387 306.956,186.209 296.200 C 191.964 290.480,196.792 285.471,196.936 285.068 C 197.217 284.288,194.665 281.465,193.282 281.026 C 192.895 280.903,192.313 280.410,191.989 279.929 C 191.665 279.448,190.620 278.323,189.666 277.427 C 180.546 268.868,164.400 252.384,164.400 251.632 C 164.400 251.148,164.535 250.826,164.700 250.916 C 165.078 251.122,167.577 248.510,167.283 248.216 C 167.164 248.097,167.291 248.000,167.565 248.000 C 168.040 248.000,169.210 246.870,172.488 243.245 C 173.306 242.340,174.149 241.600,174.361 241.600 C 174.573 241.600,174.860 241.240,175.000 240.800 C 175.140 240.360,175.377 239.997,175.527 239.994 C 176.019 239.982,178.400 237.706,178.400 237.247 C 178.400 237.001,178.578 236.800,178.796 236.800 C 179.269 236.800,196.800 219.316,196.800 218.845 C 196.800 218.501,160.991 182.678,160.462 182.493 C 160.147 182.382,159.639 182.851,157.636 185.100 C 157.000 185.815,156.275 186.400,156.026 186.400 C 155.446 186.400,152.800 189.033,152.800 189.610 C 152.800 189.851,152.620 189.936,152.400 189.800 C 152.180 189.664,152.000 189.839,152.000 190.189 C 152.000 190.539,151.685 190.936,151.300 191.072 C 150.915 191.208,146.524 195.387,141.542 200.359 C 136.560 205.332,131.124 210.706,129.461 212.302 L 126.439 215.204 123.059 211.802 C 121.201 209.931,119.452 208.400,119.173 208.400 C 118.895 208.400,118.768 208.299,118.891 208.176 C 119.153 207.914,117.328 206.000,116.816 206.000 C 116.624 206.000,111.222 200.766,104.810 194.369 L 93.152 182.738 99.276 176.777 C 102.644 173.498,105.536 170.677,105.702 170.508 C 110.318 165.805,117.931 158.203,119.251 156.977 C 120.213 156.084,121.562 154.734,122.248 153.977 C 122.935 153.220,123.835 152.300,124.248 151.934 C 124.662 151.567,125.450 150.718,126.000 150.046 C 126.550 149.374,127.228 148.819,127.507 148.812 C 127.786 148.805,133.400 143.445,139.981 136.900 C 146.563 130.355,153.445 123.518,155.274 121.707 C 157.103 119.896,159.280 117.670,160.110 116.759 L 161.621 115.104 166.604 120.052 C 169.344 122.773,172.534 125.933,173.693 127.074 C 174.852 128.215,177.330 130.758,179.200 132.725 C 181.070 134.692,182.735 136.223,182.900 136.127 C 183.065 136.031,183.202 136.188,183.205 136.476 C 183.208 136.764,183.845 137.411,184.620 137.914 C 185.489 138.477,185.923 139.014,185.751 139.314 C 185.597 139.581,185.611 139.675,185.780 139.522 C 186.106 139.229,194.000 147.028,194.000 147.642 C 194.000 149.545,196.505 147.642,204.971 139.308 C 236.422 108.344,233.004 112.210,230.774 110.124 C 227.204 106.784,215.200 94.592,215.200 94.306 C 215.200 94.138,215.032 94.000,214.827 94.000 C 214.622 94.000,212.201 91.795,209.449 89.100 C 206.696 86.405,202.444 82.310,200.001 80.000 C 197.557 77.690,194.401 74.675,192.986 73.300 C 191.572 71.925,190.271 70.800,190.096 70.800 C 189.920 70.800,189.517 70.440,189.200 70.000 C 188.883 69.560,188.393 69.200,188.112 69.200 C 187.830 69.200,187.600 69.020,187.600 68.800 C 187.600 68.580,187.330 68.400,187.000 68.400 C 186.670 68.400,186.400 68.220,186.400 68.000 C 186.400 67.780,186.040 67.600,185.600 67.600 C 185.160 67.600,184.800 67.420,184.800 67.200 C 184.800 66.980,184.519 66.800,184.176 66.800 C 183.833 66.800,183.664 66.620,183.800 66.400 C 183.936 66.180,183.677 66.000,183.224 66.000 C 182.771 66.000,182.400 65.820,182.400 65.600 C 182.400 65.380,182.040 65.200,181.600 65.200 C 181.160 65.200,180.800 65.020,180.800 64.800 C 180.800 64.580,180.260 64.400,179.600 64.400 C 178.940 64.400,178.400 64.258,178.400 64.085 C 178.400 63.912,177.998 63.740,177.507 63.703 C 176.687 63.641,175.737 63.285,173.905 62.353 C 173.523 62.159,172.488 62.000,171.605 62.000 C 170.722 62.000,170.000 61.834,170.000 61.630 C 170.000 61.139,154.477 61.124,153.278 61.614 " stroke="none" fill="#3bebac" fill-rule="evenodd"></path><path id="path1" d="M261.380 95.978 C 261.171 96.185,260.134 96.399,259.077 96.454 C 258.019 96.508,257.063 96.698,256.953 96.876 C 256.843 97.054,256.259 97.200,255.656 97.200 C 255.053 97.200,254.386 97.374,254.173 97.587 C 253.961 97.799,253.205 98.017,252.493 98.072 C 251.782 98.126,251.200 98.312,251.200 98.485 C 251.200 98.658,250.840 98.800,250.400 98.800 C 249.960 98.800,249.600 98.980,249.600 99.200 C 249.600 99.420,249.375 99.605,249.100 99.611 C 248.210 99.631,243.164 102.230,243.453 102.520 C 243.607 102.674,243.460 102.800,243.126 102.800 C 242.792 102.800,241.984 103.295,241.332 103.900 C 240.679 104.505,239.925 105.047,239.656 105.105 C 239.388 105.163,238.361 106.018,237.374 107.005 C 236.387 107.992,235.404 108.800,235.189 108.800 C 234.975 108.800,234.800 108.978,234.800 109.197 C 234.800 109.415,234.260 110.109,233.600 110.740 C 232.940 111.371,232.400 112.187,232.400 112.554 C 232.400 113.147,225.169 120.437,203.200 141.990 L 196.600 148.464 197.800 149.473 C 198.460 150.028,202.240 153.574,206.200 157.354 C 210.160 161.134,214.556 165.300,215.969 166.613 C 217.383 167.926,220.893 171.262,223.769 174.026 C 226.646 176.791,229.900 179.892,231.000 180.917 L 233.000 182.781 225.800 189.891 C 221.840 193.801,213.785 201.743,207.900 207.541 C 196.311 218.958,196.389 218.843,198.800 220.907 C 199.680 221.660,200.400 222.407,200.400 222.567 C 200.400 222.727,200.670 223.127,201.000 223.457 C 201.330 223.787,201.600 223.944,201.600 223.806 C 201.600 223.668,202.635 224.609,203.900 225.897 C 205.165 227.185,206.515 228.360,206.900 228.507 C 207.285 228.654,207.600 228.971,207.600 229.211 C 207.600 229.451,207.784 229.533,208.010 229.394 C 208.235 229.255,208.394 229.289,208.363 229.470 C 208.216 230.315,208.464 230.766,209.206 231.002 C 209.649 231.143,209.908 231.425,209.782 231.629 C 209.656 231.833,209.805 232.000,210.112 232.000 C 210.420 232.000,210.877 232.450,211.127 233.000 C 211.378 233.550,211.773 234.000,212.005 234.000 C 212.584 234.000,217.592 239.075,217.301 239.366 C 217.172 239.495,217.283 239.600,217.548 239.600 C 218.085 239.600,218.484 239.944,222.900 244.207 C 224.605 245.853,226.000 247.380,226.000 247.600 C 226.000 247.820,226.177 248.000,226.394 248.000 C 226.788 248.000,230.400 251.535,230.400 251.920 C 230.400 252.394,221.440 260.748,221.135 260.560 C 220.951 260.446,220.800 260.644,220.800 261.000 C 220.800 261.356,220.620 261.536,220.400 261.400 C 220.180 261.264,220.000 261.366,220.000 261.627 C 220.000 262.197,210.329 271.840,209.900 271.699 C 209.735 271.644,209.645 271.741,209.700 271.914 C 209.836 272.342,205.709 276.376,205.426 276.092 C 205.302 275.968,205.200 276.177,205.200 276.557 C 205.200 276.937,205.020 277.136,204.800 277.000 C 204.580 276.864,204.400 277.033,204.400 277.376 C 204.400 277.719,204.254 278.000,204.075 278.000 C 203.261 278.000,197.200 284.492,197.200 285.363 C 197.200 286.036,194.677 288.726,187.750 295.440 C 177.324 305.546,175.091 308.380,173.282 313.800 C 172.502 316.136,171.889 320.751,172.143 322.364 C 172.284 323.264,172.504 324.765,172.631 325.700 C 172.758 326.635,173.052 327.850,173.284 328.400 C 173.517 328.950,173.848 329.760,174.020 330.200 C 175.052 332.838,175.428 333.600,175.698 333.600 C 175.864 333.600,176.000 333.797,176.000 334.038 C 176.000 334.279,176.389 335.023,176.864 335.690 C 177.568 336.679,177.642 337.042,177.261 337.652 C 176.928 338.184,176.921 338.400,177.236 338.400 C 177.480 338.400,178.183 338.940,178.800 339.600 C 179.417 340.260,180.079 340.800,180.272 340.800 C 180.465 340.800,180.883 341.160,181.200 341.600 C 181.517 342.040,182.057 342.400,182.400 342.400 C 182.743 342.400,183.283 342.760,183.600 343.200 C 183.917 343.640,184.497 344.000,184.888 344.000 C 185.280 344.000,185.600 344.180,185.600 344.400 C 185.600 344.620,185.962 344.800,186.405 344.800 C 186.848 344.800,187.568 344.980,188.005 345.200 C 188.442 345.420,189.158 345.780,189.595 346.000 C 190.032 346.220,191.292 346.400,192.395 346.400 C 193.498 346.400,194.400 346.580,194.400 346.800 C 194.400 347.029,195.600 347.200,197.200 347.200 C 198.800 347.200,200.000 347.029,200.000 346.800 C 200.000 346.580,200.900 346.400,202.000 346.400 C 203.100 346.400,204.000 346.220,204.000 346.000 C 204.000 345.780,204.641 345.600,205.424 345.600 C 206.271 345.600,206.747 345.438,206.600 345.200 C 206.464 344.980,206.598 344.800,206.897 344.800 C 207.651 344.800,209.593 343.865,209.597 343.500 C 209.599 343.335,209.894 343.200,210.253 343.200 C 210.612 343.200,211.197 342.873,211.553 342.472 C 212.214 341.729,213.561 341.022,214.100 341.136 C 214.265 341.171,214.400 340.900,214.400 340.533 C 214.400 340.167,214.501 339.968,214.624 340.091 C 214.897 340.363,216.800 338.518,216.800 337.982 C 216.800 337.772,216.980 337.600,217.200 337.600 C 217.421 337.600,218.726 336.410,220.100 334.956 C 226.287 328.413,232.929 322.032,233.308 322.267 C 233.549 322.416,233.604 322.330,233.438 322.062 C 233.267 321.785,233.413 321.600,233.800 321.600 C 234.156 321.600,234.356 321.452,234.244 321.271 C 234.057 320.968,237.895 317.247,240.500 315.204 C 241.105 314.730,241.600 314.074,241.600 313.747 C 241.600 313.420,241.760 313.251,241.955 313.372 C 242.150 313.492,242.403 313.233,242.517 312.796 C 242.631 312.358,243.023 312.000,243.386 312.000 C 243.750 312.000,243.936 311.820,243.800 311.600 C 243.664 311.380,243.833 311.200,244.176 311.200 C 244.519 311.200,244.800 310.900,244.800 310.533 C 244.800 310.167,244.897 309.964,245.016 310.083 C 245.135 310.201,246.240 309.286,247.472 308.049 C 248.704 306.812,249.867 305.845,250.056 305.900 C 250.245 305.955,250.355 305.865,250.300 305.700 C 250.159 305.278,255.099 300.400,255.667 300.400 C 255.923 300.400,256.030 300.296,255.903 300.170 C 255.626 299.892,264.258 291.200,264.811 291.200 C 265.025 291.200,265.200 290.930,265.200 290.600 C 265.200 290.270,265.352 290.000,265.539 290.000 C 265.725 290.000,267.026 288.845,268.429 287.432 C 269.833 286.020,271.120 284.951,271.291 285.056 C 271.461 285.161,271.600 284.956,271.600 284.600 C 271.600 284.213,271.785 284.067,272.062 284.238 C 272.335 284.407,272.416 284.349,272.259 284.095 C 272.005 283.685,274.994 280.800,275.672 280.800 C 275.852 280.800,276.000 280.524,276.000 280.187 C 276.000 279.851,276.315 279.456,276.700 279.310 C 277.645 278.952,278.419 278.152,278.114 277.848 C 277.978 277.711,278.167 277.600,278.533 277.600 C 278.900 277.600,279.200 277.313,279.200 276.963 C 279.200 276.612,279.554 276.233,279.987 276.119 C 280.419 276.006,280.886 275.559,281.023 275.127 C 281.161 274.694,281.368 274.435,281.484 274.551 C 281.756 274.823,282.800 273.785,282.800 273.243 C 282.800 272.682,284.216 271.957,284.612 272.314 C 284.786 272.471,284.799 272.375,284.641 272.100 C 284.463 271.791,284.591 271.600,284.976 271.600 C 285.319 271.600,285.555 271.375,285.500 271.100 C 285.445 270.825,285.625 270.645,285.900 270.700 C 286.175 270.755,286.355 270.642,286.300 270.448 C 286.162 269.963,288.289 268.022,288.609 268.342 C 288.751 268.484,288.807 268.345,288.733 268.033 C 288.660 267.721,289.004 267.255,289.498 266.997 C 289.991 266.739,290.276 266.410,290.131 266.264 C 289.986 266.119,290.167 266.000,290.533 266.000 C 290.900 266.000,291.200 265.829,291.200 265.620 C 291.200 265.162,312.365 244.000,312.824 244.000 C 313.001 244.000,313.530 243.460,314.000 242.800 C 314.470 242.140,315.100 241.600,315.400 241.600 C 315.701 241.600,316.633 240.761,317.473 239.735 C 318.313 238.709,319.990 236.920,321.200 235.759 C 323.518 233.536,336.379 221.057,336.910 220.516 C 342.420 214.901,346.400 210.545,346.400 210.131 C 346.400 209.839,346.568 209.600,346.773 209.600 C 346.978 209.600,347.254 209.260,347.386 208.845 C 347.518 208.429,348.075 207.574,348.624 206.945 C 350.046 205.314,350.184 205.094,350.337 204.200 C 350.412 203.760,350.637 203.340,350.837 203.267 C 351.036 203.193,351.200 202.698,351.200 202.167 C 351.200 201.635,351.380 201.200,351.600 201.200 C 351.820 201.200,352.000 200.919,352.000 200.576 C 352.000 200.233,352.180 200.064,352.400 200.200 C 352.630 200.342,352.803 199.970,352.806 199.324 C 352.813 198.056,353.755 195.088,354.055 195.389 C 354.163 195.496,354.295 194.739,354.349 193.706 C 354.402 192.672,354.596 191.641,354.780 191.413 C 354.963 191.186,355.222 189.560,355.356 187.800 C 355.703 183.217,355.717 182.072,355.457 179.600 C 355.330 178.390,355.175 176.455,355.113 175.300 C 355.051 174.145,354.865 173.200,354.700 173.200 C 354.535 173.200,354.400 172.748,354.400 172.195 C 354.400 171.642,354.238 170.877,354.039 170.495 C 353.840 170.113,353.449 168.990,353.169 168.000 C 352.890 167.010,352.512 166.029,352.330 165.820 C 352.149 165.611,352.000 165.116,352.000 164.720 C 352.000 164.324,351.820 164.000,351.600 164.000 C 351.380 164.000,351.200 163.651,351.200 163.224 C 351.200 162.797,351.017 162.334,350.793 162.196 C 350.570 162.058,350.476 161.800,350.585 161.624 C 350.694 161.448,350.432 160.899,350.004 160.404 C 349.575 159.910,349.103 159.125,348.956 158.661 C 348.808 158.196,348.173 157.335,347.544 156.748 C 346.915 156.160,346.400 155.475,346.400 155.226 C 346.400 154.977,345.785 154.158,345.033 153.407 C 344.282 152.655,343.552 151.680,343.413 151.240 C 343.273 150.801,342.808 150.330,342.380 150.194 C 341.951 150.057,341.600 149.683,341.600 149.360 C 341.600 149.038,341.285 148.664,340.900 148.529 C 339.776 148.134,338.006 146.317,338.278 145.839 C 338.416 145.597,338.371 145.544,338.178 145.719 C 337.986 145.895,337.192 145.408,336.414 144.637 C 335.636 143.867,332.610 140.888,329.689 138.018 C 326.768 135.148,324.486 132.800,324.618 132.800 C 324.749 132.800,324.587 132.530,324.257 132.200 C 323.927 131.870,323.454 131.600,323.205 131.600 C 322.956 131.600,322.840 131.459,322.947 131.287 C 323.053 131.114,322.570 130.529,321.874 129.987 C 321.178 129.444,316.400 124.815,311.257 119.700 C 306.115 114.585,301.793 110.400,301.654 110.400 C 301.514 110.401,300.860 109.861,300.200 109.201 C 297.410 106.412,295.037 104.400,294.536 104.400 C 294.241 104.400,294.000 104.250,294.000 104.068 C 294.000 103.885,293.505 103.480,292.900 103.168 C 292.295 102.855,291.565 102.285,291.277 101.900 C 290.990 101.515,290.515 101.200,290.223 101.200 C 289.363 101.200,287.586 100.147,287.906 99.827 C 288.068 99.666,288.020 99.593,287.800 99.665 C 287.291 99.833,284.000 98.756,284.000 98.421 C 284.000 98.283,283.427 98.127,282.727 98.073 C 282.026 98.020,281.261 97.824,281.027 97.638 C 280.792 97.453,280.060 97.201,279.400 97.078 C 278.740 96.956,276.760 96.577,275.000 96.236 C 271.470 95.552,261.989 95.372,261.380 95.978 M270.664 153.000 C 272.287 154.650,273.701 156.000,273.805 156.000 C 274.353 156.000,275.937 157.784,275.722 158.160 C 275.584 158.402,275.619 158.467,275.799 158.303 C 276.247 157.898,277.254 158.789,276.934 159.307 C 276.792 159.536,276.852 159.615,277.067 159.482 C 277.510 159.209,278.860 160.606,278.500 160.966 C 278.372 161.095,278.497 161.200,278.778 161.200 C 279.059 161.200,281.949 163.900,285.200 167.200 C 288.451 170.500,291.311 173.200,291.555 173.200 C 291.800 173.200,292.000 173.386,292.000 173.613 C 292.000 173.839,292.306 174.143,292.680 174.286 C 293.054 174.430,293.999 175.263,294.780 176.139 C 295.561 177.014,297.370 178.902,298.800 180.333 C 300.230 181.765,301.175 182.805,300.900 182.645 C 300.567 182.450,300.400 182.629,300.400 183.176 C 300.400 183.741,300.141 184.000,299.576 184.000 C 299.123 184.000,298.864 184.180,299.000 184.400 C 299.136 184.620,298.937 184.800,298.557 184.800 C 298.177 184.800,297.988 184.922,298.137 185.070 C 298.439 185.372,296.864 187.200,296.302 187.200 C 295.762 187.200,294.802 188.268,295.086 188.552 C 295.222 188.689,295.078 188.802,294.767 188.804 C 294.455 188.806,293.750 189.379,293.200 190.077 C 291.984 191.622,290.318 193.200,289.904 193.200 C 289.737 193.200,289.600 193.388,289.600 193.618 C 289.600 193.848,289.150 194.486,288.600 195.036 C 288.050 195.586,287.600 195.909,287.600 195.754 C 287.600 195.598,287.026 196.143,286.324 196.965 C 285.622 197.787,284.082 199.391,282.902 200.530 C 281.722 201.668,277.896 205.435,274.400 208.900 C 267.203 216.035,267.767 215.725,265.848 213.600 C 265.053 212.720,264.284 212.000,264.139 212.000 C 263.994 212.000,263.184 211.272,262.338 210.383 C 261.492 209.494,260.800 208.887,260.800 209.033 C 260.800 209.180,260.305 208.726,259.700 208.024 C 258.415 206.533,252.198 200.279,243.538 191.766 C 240.162 188.447,237.085 185.305,236.700 184.785 C 236.315 184.264,236.000 183.992,236.000 184.181 C 236.000 184.369,235.652 184.209,235.227 183.824 C 234.766 183.407,234.553 182.857,234.699 182.462 C 235.041 181.541,238.260 178.393,238.557 178.690 C 238.691 178.824,238.800 178.623,238.800 178.243 C 238.800 177.863,238.980 177.664,239.200 177.800 C 239.420 177.936,239.600 177.819,239.600 177.539 C 239.600 176.931,243.905 172.897,244.900 172.573 C 245.285 172.448,245.600 172.078,245.600 171.749 C 245.600 171.421,245.780 171.264,246.000 171.400 C 246.220 171.536,246.400 171.427,246.400 171.157 C 246.400 170.551,252.668 164.400,253.286 164.400 C 253.532 164.400,253.635 164.301,253.514 164.181 C 253.394 164.060,255.080 162.215,257.262 160.081 C 259.444 157.946,262.616 154.805,264.311 153.100 C 267.999 149.390,267.125 149.403,270.664 153.000 " stroke="none" fill="#04bbe4" fill-rule="evenodd"></path><path id="path2" d="M304.000 112.525 C 304.000 112.594,304.585 113.179,305.300 113.825 L 306.600 115.000 305.425 113.700 C 304.330 112.488,304.000 112.216,304.000 112.525 M188.700 154.012 C 185.455 157.310,182.800 159.926,182.800 159.825 C 182.800 159.724,181.659 160.757,180.264 162.121 C 178.869 163.484,177.767 164.653,177.814 164.717 C 177.913 164.850,167.569 175.179,163.134 179.376 C 161.520 180.903,160.503 182.039,160.874 181.899 C 161.245 181.759,161.606 181.817,161.676 182.028 C 161.746 182.239,169.799 190.407,179.570 200.179 L 197.336 217.947 207.968 207.473 C 213.816 201.713,221.840 193.801,225.800 189.891 L 233.000 182.781 231.000 180.917 C 229.900 179.892,226.646 176.791,223.769 174.026 C 220.893 171.262,217.383 167.926,215.969 166.613 C 214.556 165.300,210.160 161.132,206.200 157.350 C 194.311 145.994,196.227 146.360,188.700 154.012 M275.481 157.787 C 275.877 158.331,276.366 158.781,276.570 158.787 C 276.773 158.794,276.517 158.350,276.000 157.800 C 274.801 156.523,274.557 156.518,275.481 157.787 M281.764 164.200 C 282.314 164.750,282.893 165.200,283.052 165.200 C 283.210 165.200,282.917 164.750,282.400 164.200 C 281.883 163.650,281.304 163.200,281.112 163.200 C 280.920 163.200,281.214 163.650,281.764 164.200 M247.462 169.531 C 247.098 169.934,246.800 170.411,246.800 170.593 C 246.800 170.774,247.160 170.507,247.600 170.000 C 248.040 169.493,248.400 169.015,248.400 168.939 C 248.400 168.639,248.095 168.832,247.462 169.531 M355.646 184.667 C 355.621 184.924,355.484 185.464,355.341 185.867 C 355.140 186.436,355.194 186.497,355.579 186.142 C 355.852 185.891,355.989 185.351,355.884 184.942 C 355.779 184.534,355.672 184.410,355.646 184.667 M296.860 186.242 C 296.562 186.578,296.399 186.932,296.495 187.029 C 296.592 187.126,296.998 186.844,297.398 186.402 C 297.797 185.961,297.961 185.607,297.762 185.615 C 297.563 185.624,297.157 185.905,296.860 186.242 M322.870 234.126 C 322.391 234.635,322.000 235.188,322.000 235.354 C 322.000 235.669,322.603 235.102,323.549 233.898 C 324.343 232.889,323.889 233.040,322.870 234.126 M212.263 234.304 C 212.165 234.467,212.326 234.823,212.621 235.096 C 212.916 235.369,213.238 235.459,213.337 235.296 C 213.435 235.133,213.274 234.777,212.979 234.504 C 212.684 234.231,212.362 234.141,212.263 234.304 M214.051 236.300 C 214.803 237.259,216.838 239.200,217.091 239.200 C 217.372 239.200,216.449 238.035,215.110 236.700 C 213.880 235.473,213.202 235.217,214.051 236.300 M319.888 237.047 C 318.368 238.481,317.844 239.339,319.093 238.349 C 320.355 237.349,321.687 235.954,321.530 235.797 C 321.446 235.712,320.706 236.274,319.888 237.047 M310.889 245.427 C 310.167 246.182,309.736 246.800,309.929 246.800 C 310.301 246.800,312.800 244.533,312.800 244.197 C 312.800 243.710,312.098 244.162,310.889 245.427 M308.493 248.000 C 308.218 248.440,308.131 248.800,308.300 248.800 C 308.469 248.800,308.832 248.440,309.107 248.000 C 309.382 247.560,309.469 247.200,309.300 247.200 C 309.131 247.200,308.768 247.560,308.493 248.000 M283.606 272.382 C 283.059 272.802,282.699 273.224,282.806 273.321 C 282.913 273.417,283.446 273.069,283.992 272.548 C 285.182 271.410,284.982 271.324,283.606 272.382 M178.378 339.704 C 179.137 340.527,179.914 341.200,180.107 341.200 C 180.473 341.200,180.139 340.854,178.182 339.204 C 177.162 338.344,177.188 338.412,178.378 339.704 " stroke="none" fill="#04a4e3" fill-rule="evenodd"></path><path id="path3" d="M300.488 109.413 C 301.086 110.043,301.647 110.477,301.735 110.379 C 301.823 110.280,301.333 109.765,300.647 109.234 L 299.400 108.269 300.488 109.413 M211.588 133.500 L 209.000 136.200 211.700 133.612 C 213.185 132.188,214.400 130.973,214.400 130.912 C 214.400 130.617,213.993 130.992,211.588 133.500 M338.400 146.600 C 339.146 147.370,339.847 148.000,339.957 148.000 C 340.067 148.000,339.546 147.370,338.800 146.600 C 338.054 145.830,337.353 145.200,337.243 145.200 C 337.133 145.200,337.654 145.830,338.400 146.600 M160.943 181.886 C 160.731 181.956,163.429 184.846,166.939 188.307 C 170.449 191.768,177.357 198.622,182.289 203.538 C 187.222 208.453,191.329 212.404,191.416 212.317 C 191.503 212.230,185.448 206.048,177.959 198.579 C 170.471 191.111,163.665 184.270,162.836 183.379 C 162.007 182.487,161.155 181.815,160.943 181.886 M194.364 215.500 C 195.814 216.985,197.080 218.150,197.178 218.089 C 197.394 217.954,192.325 212.800,191.976 212.800 C 191.840 212.800,192.914 214.015,194.364 215.500 M191.789 291.300 L 189.000 294.200 191.900 291.411 C 194.594 288.820,194.983 288.400,194.689 288.400 C 194.628 288.400,193.323 289.705,191.789 291.300 " stroke="none" fill="#0db8d4" fill-rule="evenodd"></path><path id="path4" d="M232.032 112.231 C 232.002 112.633,227.982 116.656,204.971 139.308 C 200.115 144.089,196.311 148.000,196.519 148.000 C 196.726 148.000,200.699 144.245,205.348 139.655 C 209.997 135.066,218.007 127.168,223.150 122.104 C 229.017 116.326,232.418 112.693,232.281 112.349 C 232.161 112.047,232.049 111.994,232.032 112.231 M178.714 200.400 C 188.468 210.190,196.615 218.470,196.818 218.800 C 197.111 219.276,197.189 219.286,197.194 218.846 C 197.199 218.348,183.064 204.126,166.990 188.458 C 163.684 185.236,168.960 190.610,178.714 200.400 M196.800 285.269 C 196.800 285.526,192.063 290.431,186.273 296.169 C 175.375 306.967,174.711 307.801,172.882 313.000 C 170.705 319.189,171.642 329.165,174.819 333.627 C 175.249 334.230,175.600 335.011,175.600 335.362 C 175.600 335.713,175.780 336.000,176.000 336.000 C 176.220 336.000,176.400 336.270,176.400 336.600 C 176.400 336.930,176.580 337.200,176.800 337.200 C 177.378 337.200,177.291 336.366,176.638 335.631 C 172.663 331.164,170.812 319.275,173.177 313.400 C 175.812 306.854,176.597 305.930,193.164 289.892 C 196.568 286.597,197.921 284.800,197.000 284.800 C 196.890 284.800,196.800 285.011,196.800 285.269 " stroke="none" fill="#1cd0c8" fill-rule="evenodd"></path></g></svg>