<svg id="svg" version="1.1" xmlns="http://www.w3.org/2000/svg" xmlns:xlink="http://www.w3.org/1999/xlink" width="400" height="327.41935483870964" viewBox="0, 0, 400,327.41935483870964"><g id="svgg"><path id="path0" d="M193.027 106.530 C 192.448 107.283,191.974 108.148,191.974 108.451 C 191.974 108.754,191.702 109.354,191.369 109.784 C 191.037 110.214,190.670 111.056,190.553 111.656 C 190.437 112.257,190.045 113.124,189.683 113.584 C 189.322 114.044,189.025 114.561,189.025 114.731 C 189.025 115.097,187.365 119.034,186.222 121.381 C 185.782 122.284,185.422 123.219,185.422 123.458 C 185.422 123.698,185.127 124.268,184.767 124.726 C 184.406 125.184,184.111 125.849,184.111 126.204 C 184.111 126.558,183.764 127.534,183.339 128.371 C 181.678 131.644,180.835 133.527,180.835 133.965 C 180.835 134.217,180.488 135.025,180.063 135.762 C 179.638 136.498,179.186 137.531,179.060 138.058 C 178.933 138.584,178.543 139.378,178.194 139.822 C 177.845 140.266,177.559 140.958,177.559 141.360 C 177.559 141.761,177.277 142.450,176.931 142.889 C 176.586 143.328,176.200 144.234,176.075 144.902 C 175.950 145.569,175.578 146.457,175.249 146.876 C 174.921 147.294,174.548 148.066,174.421 148.593 C 174.294 149.119,173.860 150.139,173.457 150.860 C 173.053 151.581,172.620 152.613,172.495 153.153 C 172.369 153.694,172.071 154.357,171.831 154.627 C 171.592 154.898,171.234 155.728,171.035 156.473 C 170.837 157.218,170.473 157.994,170.227 158.199 C 169.980 158.404,169.689 159.133,169.579 159.819 C 169.469 160.506,169.082 161.410,168.719 161.829 C 168.356 162.247,168.059 162.798,168.059 163.052 C 168.059 163.480,167.213 165.442,165.251 169.566 C 164.813 170.485,164.455 171.460,164.455 171.733 C 164.455 172.006,164.182 172.581,163.848 173.011 C 163.513 173.440,163.141 174.330,163.020 174.988 C 162.899 175.645,162.597 176.351,162.349 176.557 C 162.102 176.763,161.801 177.330,161.681 177.819 C 161.456 178.735,160.393 181.148,159.018 183.866 C 158.585 184.722,158.231 185.697,158.231 186.033 C 158.231 186.369,157.950 187.001,157.607 187.437 C 157.264 187.873,156.818 188.845,156.616 189.596 C 156.413 190.348,156.115 191.045,155.953 191.146 C 155.791 191.246,155.484 191.878,155.271 192.552 C 155.058 193.225,154.547 194.513,154.134 195.414 C 153.722 196.314,153.013 197.862,152.559 198.853 C 152.104 199.844,151.629 201.024,151.503 201.474 C 151.377 201.925,151.084 202.514,150.852 202.785 C 150.619 203.055,150.266 203.866,150.066 204.586 C 149.866 205.307,149.484 206.183,149.217 206.533 C 148.949 206.882,148.731 207.387,148.731 207.653 C 148.731 208.133,147.332 211.322,146.095 213.660 C 145.743 214.327,145.455 215.042,145.455 215.251 C 145.455 215.459,145.099 216.337,144.665 217.202 C 143.824 218.875,143.968 219.561,145.401 220.721 C 146.006 221.210,166.866 221.319,168.126 220.839 C 168.547 220.679,169.110 220.126,169.376 219.611 C 169.642 219.095,169.948 218.600,170.057 218.509 C 170.461 218.174,171.007 216.893,171.007 216.282 C 171.007 215.934,171.302 215.275,171.663 214.816 C 172.023 214.358,172.318 213.797,172.318 213.570 C 172.318 213.200,172.833 212.015,174.939 207.535 C 177.081 202.977,177.559 201.860,177.559 201.417 C 177.559 201.143,177.854 200.579,178.215 200.164 C 178.575 199.748,178.870 199.017,178.870 198.539 C 178.870 198.061,179.238 197.171,179.689 196.560 C 180.139 195.950,180.508 195.221,180.509 194.940 C 180.510 194.660,180.782 193.985,181.114 193.440 C 181.447 192.895,181.889 191.937,182.097 191.311 C 182.304 190.684,182.843 189.447,183.293 188.560 C 183.743 187.674,184.111 186.679,184.111 186.349 C 184.111 186.019,184.235 185.749,184.386 185.749 C 184.740 185.749,185.422 184.259,185.422 183.485 C 185.422 183.157,185.696 182.538,186.032 182.108 C 186.367 181.678,186.742 180.958,186.865 180.508 C 187.088 179.688,188.094 177.454,189.557 174.529 C 189.985 173.673,190.336 172.698,190.336 172.362 C 190.336 172.026,190.616 171.394,190.959 170.958 C 191.302 170.522,191.746 169.561,191.945 168.823 C 192.143 168.084,192.526 167.297,192.795 167.074 C 193.064 166.851,193.284 166.431,193.284 166.140 C 193.284 165.849,193.638 164.872,194.070 163.969 C 195.520 160.936,196.492 158.728,196.732 157.925 C 196.863 157.487,197.320 156.470,197.748 155.665 C 198.176 154.861,198.526 153.947,198.526 153.636 C 198.526 151.564,201.129 152.250,201.750 154.486 C 201.998 155.375,202.394 156.323,202.630 156.593 C 202.867 156.863,203.168 157.527,203.298 158.067 C 203.429 158.608,203.799 159.428,204.121 159.889 C 204.443 160.350,204.811 161.161,204.939 161.691 C 205.066 162.220,205.518 163.256,205.943 163.993 C 206.368 164.729,206.716 165.633,206.716 166.000 C 206.716 166.368,206.936 166.851,207.206 167.075 C 207.475 167.299,207.872 168.091,208.087 168.835 C 208.302 169.579,208.745 170.540,209.071 170.970 C 209.397 171.399,209.664 171.987,209.664 172.275 C 209.664 172.564,210.020 173.539,210.455 174.442 C 212.563 178.818,213.268 180.438,213.268 180.903 C 213.268 181.182,213.482 181.588,213.744 181.806 C 214.006 182.023,214.452 182.999,214.736 183.975 C 215.020 184.951,215.383 185.749,215.544 185.749 C 215.705 185.749,215.938 186.229,216.062 186.814 C 216.186 187.400,216.549 188.395,216.868 189.025 C 218.102 191.465,219.458 194.467,219.679 195.250 C 219.806 195.700,220.185 196.420,220.520 196.850 C 220.856 197.280,221.130 198.036,221.130 198.530 C 221.130 199.024,221.351 199.612,221.621 199.835 C 221.890 200.059,222.315 200.929,222.564 201.769 C 222.814 202.608,223.329 203.807,223.711 204.432 C 224.092 205.058,224.404 205.807,224.405 206.098 C 224.406 206.389,224.692 206.991,225.041 207.435 C 225.390 207.879,225.780 208.672,225.907 209.199 C 226.033 209.725,226.485 210.758,226.910 211.495 C 227.335 212.231,227.682 213.093,227.682 213.410 C 227.682 213.727,227.956 214.377,228.290 214.855 C 228.624 215.334,229.004 216.164,229.134 216.700 C 229.486 218.153,231.259 220.719,232.060 220.933 C 233.572 221.339,254.073 221.146,254.599 220.721 C 255.922 219.650,256.139 218.889,255.486 217.608 C 255.149 216.947,254.873 216.217,254.873 215.988 C 254.873 215.607,253.833 213.354,252.225 210.255 C 251.880 209.588,251.597 208.850,251.597 208.614 C 251.597 208.378,251.250 207.523,250.825 206.713 C 250.400 205.904,249.946 204.799,249.817 204.259 C 249.687 203.718,249.388 203.055,249.153 202.785 C 248.918 202.514,248.629 201.925,248.510 201.474 C 248.391 201.024,247.947 199.918,247.524 199.017 C 245.388 194.472,245.044 193.675,245.035 193.251 C 245.029 192.999,244.661 192.203,244.217 191.482 C 243.774 190.762,243.410 189.900,243.409 189.567 C 243.408 189.235,243.122 188.562,242.774 188.073 C 242.425 187.584,242.035 186.750,241.907 186.221 C 241.779 185.691,241.406 184.742,241.079 184.111 C 240.752 183.481,240.020 181.859,239.451 180.508 C 238.882 179.156,238.066 177.312,237.636 176.408 C 237.207 175.505,236.855 174.570,236.855 174.330 C 236.855 174.091,236.560 173.520,236.200 173.062 C 235.839 172.604,235.545 172.006,235.545 171.733 C 235.545 171.460,235.160 170.411,234.689 169.402 C 234.218 168.393,233.558 166.978,233.221 166.257 C 232.885 165.536,232.390 164.314,232.121 163.541 C 231.853 162.767,231.425 161.927,231.171 161.673 C 230.917 161.419,230.606 160.659,230.479 159.984 C 230.353 159.309,229.966 158.398,229.621 157.959 C 229.275 157.519,228.993 156.877,228.993 156.532 C 228.993 156.186,228.710 155.359,228.364 154.692 C 227.080 152.220,225.733 149.195,225.532 148.334 C 225.418 147.846,225.128 147.283,224.887 147.083 C 224.646 146.883,224.347 146.251,224.223 145.678 C 224.099 145.104,223.648 143.973,223.219 143.164 C 222.791 142.355,222.441 141.453,222.441 141.161 C 222.441 140.868,222.158 140.269,221.812 139.830 C 221.467 139.391,221.083 138.492,220.959 137.832 C 220.835 137.172,220.536 136.468,220.294 136.267 C 220.052 136.066,219.686 135.361,219.482 134.699 C 219.278 134.038,218.836 132.907,218.501 132.187 C 216.481 127.840,215.889 126.445,215.889 126.033 C 215.889 125.779,215.594 125.231,215.233 124.816 C 214.873 124.400,214.578 123.827,214.578 123.542 C 214.578 123.257,214.227 122.284,213.797 121.381 C 213.368 120.477,212.545 118.632,211.969 117.281 C 211.393 115.930,210.565 114.085,210.129 113.181 C 209.693 112.278,209.337 111.343,209.337 111.103 C 209.337 110.864,209.042 110.294,208.681 109.836 C 208.321 109.377,208.026 108.718,208.026 108.369 C 208.026 108.021,207.547 107.159,206.962 106.454 L 205.897 105.172 199.988 105.166 L 194.080 105.160 193.027 106.530 M0.000 326.945 C 0.000 327.600,0.218 327.600,200.000 327.600 C 399.782 327.600,400.000 327.600,400.000 326.945 C 400.000 326.291,399.782 326.290,200.000 326.290 C 0.218 326.290,0.000 326.291,0.000 326.945 " stroke="none" fill="#f3f3f3" fill-rule="evenodd"></path><path id="path1" d="M0.000 163.145 L 0.000 326.290 200.000 326.290 L 400.000 326.290 400.000 163.145 L 400.000 0.000 200.000 0.000 L 0.000 0.000 0.000 163.145 M206.319 105.442 C 206.400 105.687,206.804 106.181,207.216 106.539 C 207.628 106.898,208.057 107.677,208.168 108.272 C 208.280 108.866,208.574 109.521,208.822 109.727 C 209.070 109.932,209.362 110.500,209.471 110.988 C 209.581 111.476,210.018 112.613,210.442 113.514 C 212.321 117.497,212.901 118.806,213.118 119.552 C 213.245 119.990,213.626 120.800,213.963 121.353 C 214.300 121.906,214.576 122.671,214.577 123.052 C 214.578 123.433,214.864 124.108,215.213 124.552 C 215.562 124.996,215.952 125.789,216.080 126.316 C 216.207 126.842,216.577 127.789,216.901 128.419 C 218.124 130.798,219.492 133.965,219.492 134.415 C 219.492 134.672,219.788 135.259,220.150 135.720 C 220.512 136.180,220.904 137.047,221.020 137.647 C 221.137 138.248,221.504 139.090,221.836 139.520 C 222.169 139.950,222.441 140.539,222.442 140.830 C 222.443 141.121,222.884 142.244,223.423 143.325 C 223.963 144.406,224.408 145.512,224.412 145.782 C 224.417 146.052,224.709 146.642,225.061 147.093 C 225.414 147.543,225.705 148.121,225.709 148.377 C 225.717 148.844,227.151 152.093,228.352 154.365 C 228.704 155.031,228.993 155.769,228.993 156.005 C 228.993 156.241,229.361 157.127,229.812 157.973 C 230.262 158.819,230.631 159.784,230.631 160.118 C 230.631 160.452,230.999 161.224,231.450 161.835 C 231.900 162.445,232.269 163.174,232.270 163.454 C 232.271 163.735,232.712 164.848,233.251 165.930 C 233.791 167.011,234.232 168.093,234.233 168.335 C 234.234 168.577,234.529 169.149,234.889 169.608 C 235.250 170.066,235.545 170.769,235.545 171.171 C 235.545 171.573,235.839 172.277,236.200 172.735 C 236.560 173.193,236.855 173.780,236.855 174.041 C 236.855 174.301,237.200 175.163,237.622 175.956 C 238.044 176.750,238.580 177.976,238.812 178.681 C 239.045 179.386,239.496 180.417,239.815 180.973 C 240.134 181.528,240.495 182.461,240.617 183.047 C 240.739 183.632,240.970 184.111,241.131 184.111 C 241.292 184.111,241.655 184.910,241.939 185.886 C 242.223 186.862,242.669 187.838,242.931 188.055 C 243.193 188.273,243.407 188.705,243.407 189.017 C 243.407 189.328,243.751 190.231,244.171 191.024 C 244.592 191.817,245.044 192.898,245.176 193.428 C 245.308 193.958,245.681 194.768,246.004 195.230 C 246.328 195.691,246.690 196.607,246.810 197.264 C 246.930 197.922,247.244 198.639,247.508 198.859 C 247.773 199.078,248.151 199.861,248.350 200.600 C 248.549 201.338,248.992 202.299,249.335 202.735 C 249.678 203.171,249.960 203.840,249.961 204.221 C 249.962 204.602,250.326 205.504,250.770 206.224 C 251.213 206.945,251.581 207.793,251.587 208.108 C 251.592 208.423,251.952 209.381,252.385 210.237 C 254.091 213.607,255.201 216.073,255.201 216.493 C 255.201 216.736,255.439 217.337,255.730 217.829 C 256.217 218.654,256.216 218.806,255.724 219.759 C 254.992 221.174,255.127 221.161,242.616 221.058 L 231.505 220.966 230.440 219.492 C 229.854 218.681,229.270 217.576,229.143 217.035 C 229.015 216.495,228.635 215.661,228.297 215.183 C 227.959 214.705,227.682 214.100,227.682 213.839 C 227.682 213.579,227.338 212.717,226.918 211.924 C 226.497 211.132,226.046 210.053,225.915 209.526 C 225.783 209.000,225.390 208.206,225.041 207.762 C 224.692 207.318,224.406 206.751,224.406 206.502 C 224.406 206.252,223.964 205.219,223.423 204.206 C 222.883 203.194,222.441 202.111,222.441 201.800 C 222.441 201.489,222.167 200.883,221.833 200.454 C 221.499 200.024,221.126 199.134,221.005 198.477 C 220.884 197.819,220.583 197.113,220.335 196.907 C 220.087 196.702,219.791 196.134,219.677 195.646 C 219.563 195.158,219.047 193.874,218.530 192.793 C 218.013 191.712,217.207 190.024,216.739 189.043 C 216.271 188.062,215.889 187.053,215.889 186.801 C 215.889 186.550,215.594 185.969,215.233 185.511 C 214.873 185.053,214.578 184.349,214.578 183.948 C 214.578 183.546,214.283 182.842,213.923 182.384 C 213.563 181.926,213.268 181.353,213.268 181.111 C 213.268 180.869,212.810 179.713,212.250 178.542 C 211.690 177.371,210.881 175.676,210.451 174.775 C 210.022 173.874,209.581 172.737,209.471 172.249 C 209.362 171.761,209.064 171.189,208.810 170.978 C 208.556 170.767,208.258 170.031,208.148 169.342 C 208.037 168.653,207.670 167.838,207.332 167.532 C 206.993 167.225,206.716 166.687,206.716 166.337 C 206.716 165.986,206.360 165.013,205.924 164.176 C 204.850 162.111,203.112 158.093,203.112 157.676 C 203.112 157.489,202.840 156.985,202.508 156.555 C 202.175 156.126,201.806 155.272,201.687 154.659 C 201.151 151.900,198.929 151.842,198.411 154.572 C 198.297 155.172,197.908 156.040,197.546 156.500 C 197.184 156.960,196.888 157.547,196.888 157.804 C 196.888 158.237,196.036 160.200,194.072 164.296 C 193.639 165.200,193.284 166.177,193.284 166.467 C 193.284 166.758,193.064 167.179,192.795 167.402 C 192.526 167.625,192.144 168.417,191.946 169.162 C 191.747 169.907,191.389 170.737,191.150 171.007 C 190.910 171.278,190.608 171.941,190.477 172.482 C 190.347 173.022,189.979 173.980,189.659 174.611 C 188.520 176.857,187.100 180.029,186.873 180.835 C 186.746 181.286,186.367 182.006,186.032 182.436 C 185.696 182.865,185.422 183.616,185.422 184.105 C 185.422 184.593,185.127 185.259,184.767 185.586 C 184.406 185.912,184.111 186.399,184.111 186.669 C 184.111 186.939,183.669 188.096,183.129 189.240 C 182.588 190.384,182.146 191.521,182.146 191.767 C 182.146 192.012,181.865 192.570,181.522 193.006 C 181.179 193.442,180.736 194.403,180.537 195.141 C 180.338 195.880,179.959 196.663,179.695 196.883 C 179.431 197.102,179.116 197.819,178.995 198.477 C 178.874 199.134,178.501 200.024,178.167 200.454 C 177.833 200.883,177.559 201.564,177.559 201.966 C 177.559 202.367,177.285 203.048,176.949 203.478 C 176.614 203.907,176.231 204.627,176.099 205.078 C 175.838 205.967,174.286 209.461,173.334 211.302 C 173.008 211.933,172.637 212.879,172.509 213.406 C 172.381 213.932,171.991 214.726,171.642 215.170 C 171.293 215.614,171.005 216.289,171.001 216.670 C 170.996 217.275,169.728 219.515,168.707 220.721 C 168.277 221.229,146.090 221.318,145.150 220.815 C 143.985 220.192,143.693 218.738,144.449 217.327 C 144.822 216.631,145.127 215.924,145.127 215.756 C 145.127 215.424,146.727 211.885,147.762 209.927 C 148.115 209.261,148.403 208.522,148.403 208.286 C 148.403 208.050,148.750 207.195,149.175 206.386 C 149.600 205.576,150.054 204.472,150.183 203.931 C 150.313 203.391,150.612 202.727,150.847 202.457 C 151.082 202.187,151.371 201.597,151.490 201.147 C 151.609 200.696,152.053 199.590,152.476 198.690 C 154.617 194.132,154.955 193.347,154.957 192.924 C 154.958 192.672,155.322 191.876,155.765 191.155 C 156.209 190.434,156.577 189.536,156.583 189.158 C 156.588 188.781,156.877 188.215,157.224 187.900 C 157.572 187.586,157.954 186.750,158.073 186.041 C 158.193 185.333,158.475 184.569,158.701 184.343 C 158.927 184.117,159.367 183.164,159.679 182.224 C 159.991 181.284,160.372 180.438,160.524 180.344 C 160.677 180.250,161.053 179.400,161.360 178.456 C 161.667 177.513,162.119 176.510,162.364 176.227 C 162.609 175.945,162.908 175.208,163.028 174.589 C 163.148 173.971,163.519 173.113,163.851 172.683 C 164.183 172.253,164.455 171.663,164.455 171.370 C 164.455 171.078,164.803 170.176,165.228 169.367 C 165.652 168.557,166.104 167.462,166.232 166.932 C 166.360 166.403,166.728 165.592,167.050 165.131 C 167.372 164.669,167.740 163.861,167.868 163.335 C 167.995 162.808,168.369 162.036,168.697 161.618 C 169.026 161.200,169.398 160.311,169.523 159.644 C 169.648 158.976,170.034 158.070,170.379 157.631 C 170.725 157.192,171.007 156.503,171.007 156.102 C 171.007 155.700,171.293 155.008,171.642 154.564 C 171.991 154.120,172.381 153.326,172.508 152.800 C 172.634 152.273,173.086 151.240,173.511 150.504 C 173.936 149.767,174.283 148.905,174.283 148.589 C 174.283 148.272,174.568 147.612,174.917 147.123 C 175.265 146.634,175.655 145.800,175.782 145.271 C 175.910 144.741,176.362 143.705,176.787 142.969 C 177.212 142.232,177.559 141.331,177.559 140.965 C 177.559 140.600,177.840 139.945,178.183 139.508 C 178.526 139.072,178.972 138.101,179.175 137.349 C 179.377 136.597,179.675 135.900,179.838 135.800 C 180.000 135.699,180.306 135.067,180.519 134.393 C 180.972 132.960,182.189 130.196,183.315 128.043 C 183.753 127.206,184.111 126.271,184.111 125.966 C 184.111 125.660,184.406 125.036,184.767 124.578 C 185.127 124.119,185.422 123.433,185.423 123.052 C 185.424 122.671,185.696 121.913,186.028 121.368 C 186.361 120.823,186.825 119.791,187.060 119.075 C 187.295 118.358,187.680 117.475,187.916 117.112 C 188.152 116.748,188.576 115.798,188.858 114.999 C 189.140 114.200,189.571 113.318,189.817 113.038 C 190.062 112.759,190.372 112.015,190.506 111.384 C 190.639 110.753,191.024 109.886,191.361 109.456 C 191.698 109.027,191.974 108.408,191.974 108.082 C 191.974 107.346,193.873 105.275,194.758 105.046 C 196.289 104.649,206.167 104.987,206.319 105.442 M218.325 213.561 C 218.424 213.723,218.287 214.276,218.018 214.790 C 217.750 215.304,217.530 215.889,217.529 216.090 C 217.528 216.291,217.255 216.807,216.924 217.237 C 216.592 217.666,216.148 218.524,215.937 219.143 C 215.726 219.762,215.353 220.499,215.110 220.781 C 214.866 221.063,214.564 221.725,214.438 222.251 C 214.313 222.777,213.924 223.571,213.575 224.015 C 213.226 224.459,212.940 225.063,212.940 225.357 C 212.940 225.651,212.595 226.405,212.172 227.033 C 211.750 227.660,211.307 228.569,211.189 229.052 C 211.070 229.535,210.747 230.157,210.469 230.434 C 210.192 230.712,209.801 231.422,209.600 232.013 C 209.400 232.604,208.964 233.479,208.631 233.957 C 208.299 234.435,208.026 235.116,208.026 235.469 C 208.026 235.822,207.741 236.475,207.391 236.919 C 207.042 237.363,206.651 238.156,206.522 238.683 C 206.394 239.209,206.026 239.978,205.706 240.392 C 205.385 240.806,205.030 241.570,204.916 242.089 C 204.801 242.609,204.505 243.203,204.256 243.410 C 204.007 243.616,203.566 244.499,203.276 245.373 C 202.986 246.246,202.540 247.134,202.284 247.346 C 202.028 247.558,201.726 248.228,201.612 248.834 C 201.192 251.075,199.295 251.298,198.605 249.189 C 198.379 248.495,197.900 247.553,197.541 247.097 C 197.182 246.640,196.888 246.021,196.888 245.720 C 196.888 245.419,196.527 244.683,196.086 244.086 C 195.645 243.488,195.193 242.585,195.082 242.079 C 194.971 241.573,194.676 240.990,194.426 240.783 C 194.177 240.576,193.797 239.865,193.581 239.204 C 193.365 238.543,192.916 237.650,192.581 237.220 C 192.247 236.791,191.974 236.184,191.974 235.872 C 191.974 235.560,191.703 234.954,191.371 234.524 C 191.040 234.094,190.595 233.236,190.384 232.618 C 190.173 231.999,189.805 231.261,189.567 230.980 C 189.328 230.698,188.937 229.951,188.698 229.320 C 188.458 228.690,188.067 227.943,187.829 227.661 C 187.591 227.379,187.223 226.642,187.011 226.023 C 186.800 225.404,186.356 224.546,186.025 224.116 C 185.693 223.687,185.422 223.080,185.422 222.768 C 185.422 222.456,185.147 221.850,184.812 221.420 C 184.476 220.990,184.090 220.270,183.954 219.820 C 183.818 219.369,183.527 218.780,183.308 218.509 C 183.088 218.239,182.711 217.502,182.470 216.871 C 182.229 216.241,181.753 215.320,181.413 214.826 C 181.072 214.332,180.886 213.779,180.998 213.598 C 181.258 213.176,218.064 213.140,218.325 213.561 " stroke="none" fill="#0b0b0b" fill-rule="evenodd"></path><path id="path2" d="M197.640 105.076 C 199.045 105.137,201.256 105.137,202.554 105.075 C 203.852 105.013,202.703 104.963,200.000 104.963 C 197.297 104.964,196.235 105.014,197.640 105.076 M180.998 213.598 C 180.886 213.779,181.072 214.332,181.413 214.826 C 181.753 215.320,182.229 216.241,182.470 216.871 C 182.711 217.502,183.088 218.239,183.308 218.509 C 183.527 218.780,183.818 219.369,183.954 219.820 C 184.090 220.270,184.476 220.990,184.812 221.420 C 185.147 221.850,185.422 222.456,185.422 222.768 C 185.422 223.080,185.693 223.687,186.025 224.116 C 186.356 224.546,186.800 225.404,187.011 226.023 C 187.223 226.642,187.591 227.379,187.829 227.661 C 188.067 227.943,188.458 228.690,188.698 229.320 C 188.937 229.951,189.328 230.698,189.567 230.980 C 189.805 231.261,190.173 231.999,190.384 232.618 C 190.595 233.236,191.040 234.094,191.371 234.524 C 191.703 234.954,191.974 235.560,191.974 235.872 C 191.974 236.184,192.247 236.791,192.581 237.220 C 192.916 237.650,193.365 238.543,193.581 239.204 C 193.797 239.865,194.177 240.576,194.426 240.783 C 194.676 240.990,194.971 241.573,195.082 242.079 C 195.193 242.585,195.645 243.488,196.086 244.086 C 196.527 244.683,196.888 245.419,196.888 245.720 C 196.888 246.021,197.182 246.640,197.541 247.097 C 197.900 247.553,198.379 248.495,198.605 249.189 C 199.295 251.298,201.192 251.075,201.612 248.834 C 201.726 248.228,202.028 247.558,202.284 247.346 C 202.540 247.134,202.986 246.246,203.276 245.373 C 203.566 244.499,204.007 243.616,204.256 243.410 C 204.505 243.203,204.801 242.609,204.916 242.089 C 205.030 241.570,205.385 240.806,205.706 240.392 C 206.026 239.978,206.394 239.209,206.522 238.683 C 206.651 238.156,207.042 237.363,207.391 236.919 C 207.741 236.475,208.026 235.822,208.026 235.469 C 208.026 235.116,208.299 234.435,208.631 233.957 C 208.964 233.479,209.400 232.604,209.600 232.013 C 209.801 231.422,210.192 230.712,210.469 230.434 C 210.747 230.157,211.070 229.535,211.189 229.052 C 211.307 228.569,211.750 227.660,212.172 227.033 C 212.595 226.405,212.940 225.651,212.940 225.357 C 212.940 225.063,213.226 224.459,213.575 224.015 C 213.924 223.571,214.313 222.777,214.438 222.251 C 214.564 221.725,214.866 221.063,215.110 220.781 C 215.353 220.499,215.726 219.762,215.937 219.143 C 216.148 218.524,216.592 217.666,216.924 217.237 C 217.255 216.807,217.528 216.291,217.529 216.090 C 217.530 215.889,217.750 215.304,218.018 214.790 C 218.287 214.276,218.424 213.723,218.325 213.561 C 218.064 213.140,181.258 213.176,180.998 213.598 " stroke="none" fill="#33fafa" fill-rule="evenodd"></path></g></svg>