<svg id="svg" version="1.1" xmlns="http://www.w3.org/2000/svg" xmlns:xlink="http://www.w3.org/1999/xlink" width="400" height="400" viewBox="0, 0, 400,400"><g id="svgg"><path id="path0" d="M136.634 22.204 C 136.285 22.736,136.000 23.328,136.000 23.518 C 136.000 23.709,135.505 24.117,134.900 24.424 C 134.295 24.732,133.243 25.392,132.562 25.892 C 131.881 26.391,131.101 26.800,130.829 26.800 C 130.556 26.800,129.751 27.400,129.040 28.132 C 128.328 28.865,127.038 29.810,126.173 30.232 C 125.134 30.739,124.366 31.499,123.911 32.469 C 123.053 34.300,121.806 35.200,120.127 35.200 C 119.397 35.200,118.606 35.489,118.316 35.861 C 116.737 37.883,114.705 39.527,112.967 40.189 C 111.885 40.601,110.525 41.445,109.944 42.064 C 109.363 42.684,108.035 43.556,106.993 44.003 C 105.951 44.450,104.221 45.698,103.148 46.776 C 101.944 47.986,100.700 48.837,99.899 48.998 C 97.576 49.466,97.406 49.573,96.406 51.190 C 95.638 52.433,94.861 53.024,92.897 53.859 C 91.432 54.481,89.654 55.651,88.658 56.648 C 87.487 57.818,86.402 58.485,85.247 58.745 C 84.153 58.991,83.059 59.635,82.157 60.563 C 81.390 61.353,80.612 62.000,80.430 62.000 C 80.247 62.000,79.252 63.027,78.219 64.283 C 76.186 66.752,75.083 67.549,72.592 68.350 C 71.522 68.694,70.678 69.334,70.068 70.264 C 69.184 71.613,67.185 72.784,65.713 72.815 C 64.851 72.833,62.455 74.912,61.233 76.700 C 60.471 77.817,60.110 78.000,58.673 78.003 C 57.232 78.005,56.905 78.172,56.315 79.209 C 55.938 79.872,55.308 80.531,54.915 80.675 C 54.522 80.819,53.691 81.356,53.069 81.868 C 52.447 82.381,51.704 82.800,51.416 82.800 C 51.129 82.800,50.180 83.514,49.307 84.387 C 48.434 85.260,47.246 86.154,46.667 86.374 C 44.963 87.022,47.410 92.800,49.389 92.800 C 49.918 92.800,51.555 94.353,52.600 95.847 C 53.040 96.476,53.823 97.353,54.340 97.795 C 54.858 98.238,55.578 98.943,55.940 99.362 C 56.303 99.781,58.224 101.761,60.208 103.762 C 62.192 105.763,64.352 108.107,65.008 108.971 C 65.664 109.835,66.974 111.034,67.920 111.634 C 69.838 112.852,72.800 116.692,72.800 117.960 C 72.800 118.563,73.413 119.084,75.100 119.913 C 77.196 120.943,77.438 121.199,77.827 122.795 C 78.225 124.423,78.377 124.575,80.004 124.973 C 81.545 125.349,81.876 125.639,82.777 127.400 C 83.340 128.500,84.340 129.959,85.000 130.642 C 85.660 131.325,86.650 132.530,87.200 133.319 C 87.750 134.109,88.631 134.989,89.157 135.275 C 89.683 135.562,90.540 136.472,91.062 137.298 C 91.583 138.124,92.168 138.800,92.361 138.800 C 92.951 138.800,104.583 150.504,105.511 152.031 C 108.238 156.520,111.779 154.043,112.695 147.007 C 112.809 146.130,113.310 144.870,113.809 144.207 C 114.410 143.406,114.813 142.136,115.005 140.433 C 115.334 137.516,117.763 134.291,120.002 133.799 C 120.629 133.662,121.798 132.931,122.599 132.175 L 124.057 130.800 162.783 130.800 C 193.051 130.800,201.758 130.690,202.654 130.296 C 205.037 129.248,206.703 127.824,207.189 126.420 C 207.460 125.639,208.137 124.292,208.695 123.426 C 209.573 122.063,209.701 121.446,209.647 118.826 C 209.607 116.880,209.786 115.421,210.148 114.739 C 210.459 114.155,210.841 112.535,210.998 111.139 C 211.156 109.742,211.607 107.970,212.001 107.200 C 212.395 106.430,213.015 104.959,213.380 103.932 C 214.605 100.475,220.261 100.025,222.157 103.234 C 222.535 103.875,222.989 104.400,223.165 104.400 C 223.340 104.400,224.212 105.435,225.102 106.700 C 227.293 109.812,228.055 110.640,229.013 110.942 C 229.758 111.177,230.476 112.125,231.732 114.527 C 231.989 115.020,233.460 116.712,235.000 118.288 C 236.540 119.863,238.024 121.388,238.298 121.676 C 238.572 121.964,239.202 122.607,239.698 123.105 C 240.194 123.603,242.069 125.538,243.864 127.405 C 245.659 129.272,247.324 130.800,247.564 130.800 C 247.804 130.800,248.000 130.965,248.000 131.167 C 248.000 131.368,249.773 133.310,251.941 135.482 C 256.058 139.608,256.800 140.600,256.800 141.980 C 256.800 142.756,257.896 143.483,260.062 144.144 C 260.426 144.255,261.081 145.303,261.517 146.473 C 262.238 148.406,262.442 148.622,263.759 148.838 C 265.445 149.114,265.289 148.987,266.250 150.875 C 266.662 151.686,267.619 152.766,268.375 153.275 C 269.182 153.818,269.879 154.696,270.062 155.400 C 270.400 156.702,272.822 159.426,273.964 159.789 C 274.353 159.912,274.911 160.460,275.204 161.007 C 275.496 161.553,275.882 162.000,276.060 162.000 C 276.239 162.000,277.334 163.011,278.493 164.247 C 279.652 165.484,281.275 167.208,282.100 168.080 C 282.925 168.952,283.600 169.803,283.600 169.971 C 283.600 170.529,284.982 171.872,286.201 172.500 C 288.020 173.436,288.675 174.402,288.980 176.600 C 289.132 177.700,289.352 178.997,289.467 179.481 C 289.827 180.989,285.402 185.061,283.016 185.418 C 281.222 185.687,281.102 185.791,280.073 187.942 C 279.167 189.836,278.796 190.226,277.690 190.445 C 276.894 190.602,275.529 191.508,274.214 192.752 C 273.023 193.878,271.806 194.800,271.511 194.800 C 270.927 194.800,269.555 195.791,267.022 198.041 C 266.013 198.938,264.825 199.572,263.878 199.720 C 262.731 199.898,261.809 200.504,260.132 202.181 C 258.433 203.880,257.537 204.465,256.336 204.657 C 255.159 204.845,254.621 205.187,254.190 206.019 C 253.398 207.550,251.703 208.800,250.417 208.800 C 249.216 208.800,247.019 210.333,245.399 212.300 C 244.607 213.262,244.001 213.602,243.064 213.606 C 241.548 213.613,241.232 213.812,240.053 215.500 C 239.554 216.215,238.933 216.803,238.673 216.807 C 238.413 216.811,237.798 217.238,237.308 217.755 C 236.817 218.273,235.866 218.807,235.194 218.941 C 234.522 219.076,233.394 219.804,232.686 220.561 C 231.979 221.317,230.736 222.207,229.924 222.538 C 228.900 222.955,228.196 223.631,227.629 224.743 C 226.642 226.678,225.423 227.600,223.852 227.600 C 222.949 227.600,222.215 228.101,220.641 229.790 C 219.518 230.994,217.880 232.274,217.000 232.635 C 216.120 232.995,214.643 233.986,213.717 234.837 C 212.792 235.688,210.857 236.941,209.417 237.621 C 207.978 238.301,206.800 239.021,206.800 239.221 C 206.800 239.706,202.781 241.991,201.919 241.996 C 201.544 241.998,200.683 242.690,200.005 243.534 C 198.730 245.121,196.178 246.800,195.042 246.800 C 194.317 246.800,192.000 248.856,192.000 249.499 C 192.000 249.943,189.154 251.396,187.440 251.826 C 186.864 251.970,186.294 252.249,186.173 252.444 C 186.052 252.640,185.151 252.800,184.171 252.800 C 181.603 252.800,180.665 251.270,180.982 247.600 C 181.732 238.909,181.786 238.594,182.695 237.619 C 183.187 237.092,183.706 236.016,183.848 235.230 C 184.135 233.636,184.659 232.484,185.463 231.680 C 185.967 231.176,186.180 229.235,186.011 226.689 C 185.970 226.077,186.401 224.785,186.969 223.817 C 188.168 221.771,188.292 220.109,187.300 219.357 C 186.471 218.728,118.346 218.534,116.726 219.156 C 116.217 219.351,115.296 219.981,114.679 220.556 C 114.063 221.130,113.294 221.600,112.969 221.600 C 112.645 221.600,111.356 221.960,110.104 222.400 C 108.852 222.840,107.244 223.200,106.531 223.200 C 105.522 223.200,104.986 223.515,104.117 224.619 C 103.503 225.399,102.370 226.429,101.600 226.906 C 99.592 228.151,92.009 236.064,92.004 236.920 C 91.999 237.889,91.064 239.637,90.070 240.537 C 89.624 240.941,89.142 241.957,89.001 242.795 C 88.859 243.634,88.220 244.906,87.580 245.623 C 86.770 246.530,86.483 247.192,86.637 247.803 C 86.900 248.854,85.175 254.339,84.092 255.895 C 83.018 257.437,82.336 259.426,81.999 262.000 C 81.673 264.482,80.176 268.739,78.931 270.723 C 78.411 271.552,77.933 273.345,77.652 275.523 C 77.347 277.887,76.935 279.362,76.364 280.135 C 75.871 280.802,75.358 282.389,75.122 283.980 C 74.844 285.851,74.422 287.036,73.760 287.807 C 73.105 288.570,72.800 289.416,72.800 290.471 C 72.800 291.322,72.286 293.151,71.658 294.536 C 71.030 295.921,70.390 297.762,70.236 298.627 C 70.082 299.492,69.528 301.100,69.005 302.200 C 67.884 304.555,66.473 309.316,65.993 312.357 C 65.806 313.544,65.114 315.614,64.455 316.957 C 62.384 321.179,60.813 326.074,60.805 328.327 C 60.802 329.109,60.402 330.176,59.829 330.927 C 59.208 331.741,58.688 333.210,58.387 335.000 C 58.128 336.540,57.660 338.206,57.347 338.702 C 57.034 339.199,56.600 340.545,56.382 341.693 C 56.165 342.842,55.524 344.479,54.960 345.332 C 54.293 346.340,53.856 347.674,53.712 349.142 C 53.589 350.384,53.225 351.924,52.902 352.563 C 52.578 353.203,51.964 354.988,51.537 356.529 C 51.110 358.071,50.384 359.861,49.923 360.508 C 49.367 361.289,48.989 362.644,48.798 364.542 C 48.517 367.348,47.534 370.166,45.167 374.964 C 43.705 377.925,43.597 380.199,44.900 380.548 C 47.482 381.240,126.991 380.801,128.165 380.088 C 129.121 379.507,129.837 379.428,132.165 379.645 C 137.541 380.145,138.582 379.492,139.046 375.324 C 139.189 374.046,139.570 372.370,139.892 371.600 C 140.712 369.645,141.168 368.120,141.621 365.816 C 141.836 364.725,142.436 363.375,142.954 362.816 C 143.682 362.032,143.953 361.171,144.139 359.045 C 144.273 357.511,144.680 355.832,145.058 355.256 C 145.430 354.687,145.968 353.110,146.253 351.750 C 146.538 350.390,147.228 348.605,147.786 347.783 C 148.634 346.532,148.801 345.824,148.805 343.444 C 148.809 341.153,149.003 340.262,149.805 338.859 C 150.352 337.902,150.800 336.702,150.800 336.192 C 150.800 335.271,151.791 332.668,153.158 330.000 C 153.553 329.230,154.177 327.689,154.545 326.575 C 154.937 325.390,155.956 323.732,157.005 322.575 C 157.991 321.489,158.797 320.504,158.798 320.386 C 158.812 318.641,159.594 318.601,194.600 318.576 C 212.860 318.563,228.437 318.427,229.216 318.274 C 229.994 318.121,232.398 317.828,234.556 317.624 C 237.640 317.332,238.797 317.043,239.958 316.275 C 240.919 315.639,242.338 315.193,244.018 314.999 C 245.438 314.835,247.006 314.547,247.503 314.359 C 248.000 314.171,250.397 313.920,252.830 313.802 C 257.178 313.589,257.278 313.563,258.621 312.258 C 259.600 311.307,260.642 310.789,262.294 310.430 C 263.562 310.155,265.191 309.676,265.914 309.365 C 266.636 309.054,268.129 308.800,269.232 308.800 C 270.772 308.800,271.449 308.592,272.154 307.900 C 275.035 305.075,276.430 304.306,279.048 304.095 C 281.338 303.912,281.693 303.766,282.282 302.769 C 282.965 301.612,285.531 300.037,288.031 299.240 C 288.818 298.989,289.857 298.249,290.340 297.595 C 291.424 296.129,293.943 294.800,295.639 294.800 C 296.643 294.800,297.254 294.415,298.555 292.961 C 299.460 291.950,300.874 290.777,301.699 290.354 C 302.523 289.931,303.939 288.781,304.845 287.797 C 305.751 286.814,307.242 285.636,308.157 285.178 C 309.199 284.658,310.117 283.796,310.611 282.877 C 311.045 282.068,311.960 281.135,312.645 280.803 C 313.329 280.471,314.641 279.435,315.560 278.500 C 316.479 277.565,317.466 276.800,317.753 276.800 C 318.517 276.800,319.494 275.577,319.832 274.200 C 320.284 272.358,321.077 271.377,322.709 270.641 C 323.619 270.230,324.542 269.374,325.079 268.442 C 326.208 266.479,327.275 265.184,330.053 262.399 C 331.518 260.930,332.410 259.661,332.604 258.770 C 332.768 258.017,333.425 256.770,334.065 256.000 C 335.931 253.753,336.000 253.654,336.000 253.217 C 336.000 252.988,336.135 252.799,336.300 252.799 C 336.465 252.798,336.923 252.011,337.318 251.051 C 337.713 250.091,338.646 248.619,339.393 247.780 C 340.139 246.941,340.865 245.792,341.006 245.227 C 341.147 244.662,341.671 243.660,342.172 243.000 C 342.672 242.340,343.324 241.080,343.622 240.200 C 343.919 239.320,344.563 238.150,345.054 237.600 C 345.544 237.050,346.163 235.700,346.429 234.600 C 346.695 233.500,347.132 232.330,347.400 232.000 C 348.771 230.309,350.801 225.162,350.818 223.331 C 350.827 222.269,351.110 220.680,351.446 219.800 C 351.781 218.920,352.242 217.570,352.468 216.800 C 352.695 216.030,353.431 213.627,354.104 211.461 C 354.810 209.186,355.299 206.777,355.260 205.758 C 355.223 204.788,355.534 202.961,355.950 201.697 C 357.575 196.758,357.626 195.963,357.475 177.600 L 357.329 159.800 356.235 156.823 C 355.557 154.979,355.181 153.228,355.246 152.223 C 355.418 149.550,354.739 145.115,353.938 143.689 C 352.291 140.758,351.146 137.295,350.932 134.600 C 350.778 132.671,350.430 131.364,349.811 130.400 C 349.318 129.630,348.673 128.370,348.380 127.600 C 348.086 126.830,347.725 126.110,347.579 126.000 C 346.984 125.555,346.000 123.173,346.000 122.180 C 346.000 121.527,345.555 120.706,344.840 120.037 C 344.202 119.441,343.498 118.294,343.275 117.488 C 343.053 116.682,342.520 115.523,342.091 114.911 C 341.662 114.300,341.097 113.139,340.835 112.332 C 340.573 111.525,340.108 110.656,339.801 110.401 C 339.495 110.147,338.957 109.097,338.606 108.069 C 337.195 103.936,335.157 101.369,332.700 100.634 C 332.186 100.481,332.000 100.003,332.000 98.832 C 332.000 97.956,331.769 97.096,331.486 96.920 C 331.204 96.744,330.265 95.610,329.401 94.400 C 326.430 90.240,322.676 85.929,318.600 81.998 C 317.720 81.150,315.200 78.720,313.000 76.600 C 310.800 74.479,308.541 72.501,307.980 72.203 C 307.418 71.905,306.622 71.036,306.211 70.272 C 305.646 69.223,305.132 68.829,304.118 68.664 C 302.684 68.432,300.141 66.624,298.276 64.512 C 297.602 63.750,296.589 63.122,295.790 62.972 C 294.984 62.821,293.703 62.021,292.608 60.987 C 291.534 59.973,289.962 58.986,288.811 58.604 C 287.681 58.228,286.149 57.275,285.205 56.359 C 283.278 54.489,282.166 54.000,279.836 54.000 C 278.599 54.000,277.912 53.765,277.362 53.153 C 275.421 50.998,273.153 49.873,270.635 49.820 C 268.050 49.766,266.517 49.151,264.305 47.282 C 262.638 45.873,260.897 45.294,257.400 44.986 C 255.860 44.850,254.240 44.587,253.800 44.401 C 251.700 43.515,248.914 42.800,247.559 42.800 C 246.533 42.800,245.676 42.475,244.837 41.769 C 242.856 40.103,239.561 40.004,186.810 40.036 L 137.420 40.065 136.710 39.188 C 135.606 37.825,135.720 33.331,136.904 31.556 C 138.457 29.226,138.800 28.053,138.800 25.077 C 138.800 21.649,137.836 20.370,136.634 22.204 " stroke="none" fill="#716ff7" fill-rule="evenodd"></path><path id="path1" d="M0.000 200.000 L 0.000 400.000 200.000 400.000 L 400.000 400.000 400.000 200.000 L 400.000 0.000 200.000 0.000 L 0.000 0.000 0.000 200.000 M143.447 16.215 C 144.080 17.182,144.070 17.274,143.215 18.184 C 142.522 18.921,142.235 19.897,141.952 22.469 C 141.326 28.161,140.776 30.545,139.786 31.848 C 138.696 33.284,138.374 36.004,139.179 36.975 C 139.661 37.556,144.213 37.614,188.155 37.603 C 241.153 37.589,241.027 37.585,244.755 39.255 C 246.161 39.885,247.650 40.400,248.065 40.400 C 248.480 40.400,249.850 40.775,251.110 41.233 C 252.537 41.751,255.103 42.191,257.921 42.400 C 261.251 42.647,262.715 42.928,263.482 43.467 C 266.405 45.525,270.238 47.200,272.021 47.200 C 273.519 47.200,274.144 47.444,275.428 48.533 C 277.198 50.033,280.707 51.761,282.779 52.152 C 284.465 52.469,286.000 53.428,286.000 54.164 C 286.000 54.696,288.262 56.000,289.186 56.000 C 290.503 56.000,293.984 58.178,294.351 59.232 C 294.657 60.109,295.075 60.413,296.271 60.630 C 298.501 61.034,299.634 61.713,301.558 63.800 C 302.750 65.094,303.689 65.730,304.634 65.883 C 305.840 66.079,308.000 67.674,308.000 68.368 C 308.000 68.511,308.585 68.968,309.300 69.383 C 310.706 70.201,313.200 72.642,313.200 73.202 C 313.200 73.391,313.581 73.667,314.047 73.815 C 315.350 74.228,326.325 85.504,328.380 88.540 C 328.721 89.044,329.405 89.883,329.900 90.404 C 330.395 90.925,330.800 91.557,330.800 91.810 C 330.800 92.062,331.520 92.915,332.400 93.705 C 333.494 94.687,334.000 95.473,334.000 96.189 C 334.000 96.765,334.405 97.649,334.900 98.154 C 336.576 99.864,338.347 102.284,339.554 104.516 C 340.215 105.738,341.402 107.636,342.191 108.735 C 343.523 110.589,344.800 114.165,344.800 116.042 C 344.800 116.612,345.334 117.081,346.638 117.658 C 348.413 118.443,348.467 118.517,348.218 119.846 C 348.023 120.886,348.161 121.503,348.788 122.384 C 349.244 123.024,349.876 124.282,350.193 125.180 C 350.510 126.078,351.208 127.395,351.743 128.106 C 352.531 129.152,352.746 129.981,352.863 132.433 C 352.969 134.636,353.199 135.656,353.704 136.161 C 354.086 136.543,354.502 137.338,354.627 137.928 C 354.949 139.439,356.076 142.561,356.386 142.800 C 357.094 143.346,357.583 145.854,357.828 150.200 C 358.049 154.101,358.277 155.353,359.050 156.887 L 360.000 158.773 360.000 177.782 L 360.000 196.792 359.028 199.296 C 358.371 200.990,357.972 203.041,357.796 205.639 C 357.652 207.751,357.287 209.911,356.984 210.439 C 355.923 212.294,355.609 213.243,355.191 215.857 C 354.959 217.307,354.327 219.326,353.785 220.344 C 353.039 221.745,352.795 222.824,352.781 224.797 C 352.768 226.576,352.519 227.843,351.996 228.800 C 350.423 231.679,348.000 236.898,348.000 237.409 C 348.000 237.700,347.405 238.718,346.679 239.670 C 345.952 240.622,345.061 242.307,344.699 243.414 C 343.861 245.975,342.384 248.571,340.631 250.564 C 339.874 251.424,339.138 252.594,338.996 253.164 C 338.854 253.734,338.302 254.773,337.769 255.473 C 337.236 256.174,336.800 256.917,336.800 257.126 C 336.800 257.334,336.265 258.028,335.612 258.667 C 334.930 259.334,334.283 260.501,334.095 261.406 C 333.849 262.591,333.397 263.235,332.278 263.995 C 331.459 264.551,330.441 265.579,330.015 266.279 C 329.590 266.979,328.512 268.237,327.621 269.076 C 326.730 269.914,326.001 270.810,326.001 271.067 C 326.000 271.324,325.325 271.947,324.500 272.450 C 323.675 272.954,322.933 273.531,322.850 273.733 C 322.768 273.935,322.408 274.408,322.050 274.784 C 321.693 275.160,321.127 275.985,320.794 276.617 C 320.461 277.249,319.753 277.869,319.222 277.995 C 318.679 278.123,317.919 278.826,317.486 279.601 C 316.631 281.132,315.525 282.203,313.956 283.019 C 313.382 283.318,312.703 284.069,312.446 284.689 C 312.165 285.368,311.023 286.413,309.573 287.320 C 308.249 288.147,307.056 289.134,306.922 289.512 C 306.469 290.793,305.496 291.583,304.045 291.851 C 303.250 291.998,302.217 292.496,301.749 292.959 C 298.455 296.214,297.615 296.800,296.244 296.800 C 294.945 296.800,292.408 298.706,292.402 299.686 C 292.397 300.471,289.308 302.000,287.725 302.000 C 286.179 302.000,285.839 302.206,283.718 304.430 C 281.663 306.584,281.260 306.838,280.164 306.665 C 278.714 306.437,276.159 307.484,275.008 308.777 C 273.956 309.959,271.857 310.800,269.961 310.800 C 269.113 310.800,267.830 311.159,267.110 311.599 C 266.389 312.038,265.170 312.398,264.400 312.399 C 263.032 312.401,261.491 313.065,259.472 314.523 C 258.726 315.062,257.221 315.341,253.583 315.617 C 250.895 315.821,248.470 316.176,248.194 316.405 C 247.918 316.634,246.209 317.082,244.396 317.401 C 242.583 317.719,240.452 318.363,239.660 318.830 C 237.307 320.218,232.999 320.377,197.400 320.394 C 160.402 320.410,161.037 320.382,160.160 322.077 C 159.829 322.718,159.294 323.548,158.972 323.921 C 156.601 326.669,156.047 327.648,155.417 330.200 C 155.037 331.740,154.384 333.370,153.966 333.823 C 153.548 334.275,153.084 335.535,152.936 336.623 C 152.787 337.710,152.246 339.550,151.733 340.711 C 151.203 341.910,150.792 343.639,150.782 344.711 C 150.763 346.800,150.003 349.290,149.069 350.326 C 148.735 350.697,148.343 351.540,148.197 352.200 C 148.051 352.860,147.696 354.031,147.408 354.802 C 147.120 355.574,146.750 357.464,146.586 359.002 C 146.350 361.225,146.053 362.086,145.144 363.191 C 144.515 363.956,144.000 364.998,144.000 365.507 C 144.000 366.016,143.642 367.133,143.205 367.991 C 142.767 368.848,142.135 371.254,141.800 373.337 C 141.099 377.694,139.134 381.382,137.237 381.899 C 135.842 382.279,45.288 382.281,43.934 381.901 C 41.984 381.354,41.739 375.813,43.553 373.267 C 43.981 372.665,44.461 371.459,44.620 370.586 C 44.778 369.714,45.257 368.307,45.683 367.460 C 46.109 366.612,46.629 364.812,46.839 363.460 C 47.287 360.569,47.808 359.111,49.074 357.207 C 49.589 356.432,50.006 355.190,50.014 354.407 C 50.022 353.633,50.286 352.550,50.600 352.000 C 50.942 351.402,51.177 349.866,51.186 348.178 C 51.199 345.483,51.263 345.296,52.611 343.990 C 53.398 343.226,54.218 341.911,54.467 341.011 C 54.712 340.125,55.157 338.629,55.456 337.686 C 55.755 336.743,56.000 335.259,56.000 334.387 C 56.000 333.457,56.496 331.753,57.200 330.262 C 57.860 328.865,58.401 327.470,58.402 327.161 C 58.402 326.853,58.942 325.520,59.600 324.200 C 60.273 322.850,60.798 321.158,60.798 320.333 C 60.799 319.441,61.326 317.874,62.143 316.333 C 62.976 314.760,63.598 312.893,63.783 311.405 C 63.947 310.088,64.513 308.200,65.041 307.209 C 65.597 306.164,66.000 304.728,66.000 303.792 C 66.000 302.386,66.757 300.628,67.632 300.000 C 68.034 299.712,68.795 296.788,68.798 295.523 C 68.799 294.930,69.143 293.850,69.562 293.123 C 69.981 292.395,70.454 290.991,70.614 290.002 C 70.773 289.012,71.326 287.302,71.843 286.202 C 73.280 283.140,74.843 278.049,75.096 275.600 C 75.222 274.390,75.546 273.040,75.818 272.600 C 76.089 272.160,76.520 271.141,76.775 270.335 C 77.030 269.530,77.494 268.773,77.807 268.653 C 78.747 268.292,79.525 265.837,79.814 262.321 C 79.994 260.117,80.358 258.529,80.896 257.600 C 81.895 255.876,83.886 250.166,84.526 247.195 C 84.787 245.983,85.495 244.151,86.100 243.124 C 86.705 242.098,87.200 241.071,87.200 240.843 C 87.200 240.614,87.738 239.580,88.395 238.543 C 89.052 237.507,89.709 236.016,89.855 235.229 C 90.053 234.158,90.913 232.999,93.291 230.600 C 95.035 228.840,96.733 227.101,97.064 226.735 C 97.395 226.369,98.127 225.954,98.690 225.813 C 99.254 225.672,100.570 224.669,101.615 223.584 C 103.712 221.409,104.915 220.801,107.126 220.799 C 107.937 220.798,109.189 220.438,109.910 219.999 C 110.630 219.559,111.540 219.200,111.931 219.200 C 112.322 219.200,113.438 218.615,114.410 217.900 L 116.177 216.600 151.988 216.395 C 177.793 216.248,188.191 216.315,189.200 216.637 L 190.600 217.085 190.468 219.842 C 190.390 221.478,190.024 223.262,189.568 224.226 C 189.095 225.227,188.800 226.715,188.800 228.095 C 188.800 229.976,188.510 230.892,187.000 233.778 C 186.010 235.671,185.194 237.620,185.186 238.110 C 185.178 238.599,184.914 239.450,184.600 240.000 C 184.286 240.550,184.022 241.862,184.014 242.916 C 184.005 244.131,183.722 245.229,183.241 245.916 C 181.324 248.655,182.019 250.664,184.757 250.297 C 187.063 249.987,190.280 248.073,191.449 246.314 C 191.928 245.594,192.779 245.034,193.800 244.769 C 194.680 244.540,195.715 244.261,196.100 244.149 C 196.485 244.038,196.800 243.612,196.800 243.204 C 196.800 242.265,199.033 240.000,199.960 240.000 C 201.663 240.000,204.226 238.719,205.000 237.481 C 205.543 236.612,206.709 235.768,208.626 234.857 C 210.425 234.002,211.732 233.078,212.226 232.313 C 212.703 231.574,213.922 230.692,215.400 230.018 C 216.847 229.358,218.016 228.519,218.344 227.906 C 218.938 226.795,220.342 226.000,221.708 226.000 C 222.249 226.000,223.422 225.114,224.807 223.658 C 226.228 222.165,227.609 221.129,228.618 220.800 C 229.499 220.513,230.755 219.641,231.453 218.834 C 232.229 217.934,233.862 216.854,235.746 215.991 C 237.417 215.226,238.789 214.412,238.793 214.181 C 238.805 213.500,241.695 210.966,243.081 210.422 C 243.785 210.145,244.655 209.471,245.014 208.923 C 245.373 208.375,246.626 207.502,247.798 206.984 C 248.970 206.465,250.593 205.324,251.404 204.447 C 252.475 203.291,253.435 202.711,254.907 202.334 C 256.612 201.897,257.153 201.511,258.305 199.907 C 259.481 198.270,259.994 197.913,261.937 197.379 C 265.162 196.493,266.000 196.095,266.000 195.450 C 266.000 194.604,268.562 192.516,269.984 192.204 C 270.690 192.048,271.610 191.409,272.114 190.724 C 272.601 190.061,273.810 189.098,274.800 188.584 C 276.776 187.558,278.359 186.220,279.041 184.998 C 279.297 184.540,280.423 183.922,281.716 183.528 C 287.252 181.842,288.429 178.332,284.610 174.892 C 283.455 173.851,282.319 172.640,282.087 172.200 C 281.854 171.760,279.929 169.612,277.808 167.428 C 275.577 165.130,273.863 163.013,273.741 162.407 C 273.574 161.571,273.062 161.172,271.211 160.437 C 268.873 159.508,268.000 158.509,268.000 156.759 C 268.000 156.192,267.475 155.723,266.224 155.169 C 264.870 154.571,264.240 153.968,263.574 152.633 C 263.093 151.670,262.247 150.676,261.694 150.425 C 261.141 150.173,260.309 149.479,259.846 148.883 C 259.382 148.287,258.174 146.900,257.161 145.800 C 256.148 144.700,253.357 141.648,250.959 139.019 C 248.562 136.389,245.822 133.509,244.870 132.619 C 243.919 131.728,242.886 130.518,242.575 129.930 C 242.264 129.341,241.305 128.353,240.444 127.734 C 239.583 127.115,238.579 126.066,238.213 125.404 C 237.847 124.742,236.639 123.496,235.528 122.635 C 234.418 121.774,233.195 120.553,232.811 119.921 C 232.426 119.290,231.388 118.153,230.502 117.395 C 229.445 116.490,228.806 115.559,228.642 114.683 C 228.443 113.623,228.076 113.211,226.846 112.668 C 225.421 112.040,223.036 109.274,220.694 105.535 C 218.181 101.522,214.340 104.571,213.807 111.000 C 213.653 112.860,213.311 114.164,212.788 114.884 C 212.186 115.712,212.000 116.616,212.000 118.711 C 212.000 121.934,211.137 125.171,210.004 126.196 C 209.562 126.597,209.200 127.184,209.200 127.502 C 209.200 128.822,207.894 130.746,206.672 131.226 C 205.972 131.500,204.425 132.158,203.234 132.687 L 201.067 133.650 165.034 133.484 C 126.320 133.306,124.275 133.376,123.004 134.927 C 122.562 135.467,121.421 136.299,120.470 136.778 C 118.556 137.740,117.600 139.401,117.600 141.768 C 117.600 143.185,116.895 145.200,116.399 145.200 C 116.249 145.200,115.809 146.325,115.420 147.700 C 115.031 149.075,114.382 150.839,113.976 151.620 C 113.570 152.401,113.116 154.291,112.967 155.820 C 112.662 158.940,112.004 160.000,110.369 160.000 C 109.176 160.000,106.800 158.268,106.800 157.398 C 106.800 157.106,106.090 156.305,105.222 155.617 C 104.354 154.930,103.535 154.027,103.403 153.611 C 103.271 153.195,102.377 152.394,101.416 151.830 C 100.108 151.064,99.437 150.296,98.752 148.780 C 97.937 146.975,97.645 146.702,96.098 146.288 C 94.611 145.891,94.251 145.579,93.614 144.138 C 93.185 143.170,92.277 142.064,91.480 141.542 C 90.716 141.041,89.684 139.886,89.186 138.975 C 88.688 138.064,87.710 137.010,87.012 136.635 C 86.315 136.259,85.411 135.377,85.004 134.676 C 84.187 133.267,81.813 130.623,78.300 127.208 C 77.035 125.978,76.004 124.798,76.009 124.586 C 76.014 124.374,74.917 123.120,73.571 121.800 C 66.737 115.097,58.800 106.683,58.800 106.141 C 58.800 105.471,57.275 104.035,56.541 104.013 C 56.289 104.006,55.517 103.325,54.826 102.500 C 52.899 100.200,50.140 97.152,48.580 95.600 C 42.990 90.038,42.875 89.895,42.622 88.208 C 42.283 85.944,42.582 85.374,44.516 84.600 C 45.426 84.236,46.628 83.479,47.186 82.918 C 48.793 81.301,50.511 80.126,51.667 79.853 C 52.253 79.715,53.470 78.893,54.372 78.027 C 55.273 77.161,56.998 75.888,58.205 75.197 C 59.412 74.506,60.400 73.786,60.400 73.595 C 60.400 72.743,62.709 70.843,64.044 70.598 C 64.982 70.425,66.242 69.641,67.644 68.357 C 68.830 67.270,70.445 66.206,71.233 65.993 C 72.143 65.747,73.318 64.887,74.449 63.641 C 75.704 62.257,76.727 61.543,77.908 61.225 C 78.831 60.976,79.775 60.421,80.005 59.990 C 80.537 58.997,84.281 56.187,85.600 55.792 C 86.150 55.627,87.049 54.954,87.598 54.298 C 88.147 53.641,89.497 52.698,90.598 52.203 C 91.699 51.708,93.449 50.479,94.486 49.472 C 95.594 48.395,97.056 47.436,98.031 47.143 C 99.225 46.786,100.042 46.164,100.945 44.927 C 101.941 43.563,102.634 43.077,104.300 42.575 C 105.947 42.080,106.760 41.517,108.064 39.970 C 109.289 38.518,110.161 37.887,111.364 37.581 C 113.747 36.977,114.523 36.508,115.258 35.227 C 115.677 34.499,116.909 33.598,118.657 32.742 C 120.166 32.004,121.587 31.014,121.816 30.543 C 122.512 29.106,123.212 28.450,125.004 27.555 C 125.948 27.084,127.273 26.112,127.948 25.396 C 128.707 24.591,129.750 23.986,130.675 23.812 C 132.583 23.454,133.973 22.459,135.359 20.459 C 136.286 19.121,136.816 18.785,138.730 18.319 C 140.541 17.878,141.162 17.510,141.800 16.499 C 142.770 14.961,142.640 14.984,143.447 16.215 " stroke="none" fill="#fbfbfc" fill-rule="evenodd"></path><path id="path2" d="M141.800 16.499 C 141.162 17.510,140.541 17.878,138.730 18.319 C 136.816 18.785,136.286 19.121,135.359 20.459 C 133.973 22.459,132.583 23.454,130.675 23.812 C 129.750 23.986,128.707 24.591,127.948 25.396 C 127.273 26.112,125.948 27.084,125.004 27.555 C 123.212 28.450,122.512 29.106,121.816 30.543 C 121.587 31.014,120.166 32.004,118.657 32.742 C 116.909 33.598,115.677 34.499,115.258 35.227 C 114.523 36.508,113.747 36.977,111.364 37.581 C 110.161 37.887,109.289 38.518,108.064 39.970 C 106.760 41.517,105.947 42.080,104.300 42.575 C 102.634 43.077,101.941 43.563,100.945 44.927 C 100.042 46.164,99.225 46.786,98.031 47.143 C 97.056 47.436,95.594 48.395,94.486 49.472 C 93.449 50.479,91.699 51.708,90.598 52.203 C 89.497 52.698,88.147 53.641,87.598 54.298 C 87.049 54.954,86.150 55.627,85.600 55.792 C 84.281 56.187,80.537 58.997,80.005 59.990 C 79.775 60.421,78.831 60.976,77.908 61.225 C 76.727 61.543,75.704 62.257,74.449 63.641 C 73.318 64.887,72.143 65.747,71.233 65.993 C 70.445 66.206,68.830 67.270,67.644 68.357 C 66.242 69.641,64.982 70.425,64.044 70.598 C 62.709 70.843,60.400 72.743,60.400 73.595 C 60.400 73.786,59.412 74.506,58.205 75.197 C 56.998 75.888,55.273 77.161,54.372 78.027 C 53.470 78.893,52.253 79.715,51.667 79.853 C 50.511 80.126,48.793 81.301,47.186 82.918 C 46.628 83.479,45.426 84.236,44.516 84.600 C 42.582 85.374,42.283 85.944,42.622 88.208 C 42.875 89.895,42.990 90.038,48.580 95.600 C 50.140 97.152,52.899 100.200,54.826 102.500 C 55.517 103.325,56.289 104.006,56.541 104.013 C 57.275 104.035,58.800 105.471,58.800 106.141 C 58.800 106.683,66.737 115.097,73.571 121.800 C 74.917 123.120,76.014 124.374,76.009 124.586 C 76.004 124.798,77.035 125.978,78.300 127.208 C 81.813 130.623,84.187 133.267,85.004 134.676 C 85.411 135.377,86.315 136.259,87.012 136.635 C 87.710 137.010,88.688 138.064,89.186 138.975 C 89.684 139.886,90.716 141.041,91.480 141.542 C 92.277 142.064,93.185 143.170,93.614 144.138 C 94.251 145.579,94.611 145.891,96.098 146.288 C 97.645 146.702,97.937 146.975,98.752 148.780 C 99.437 150.296,100.108 151.064,101.416 151.830 C 102.377 152.394,103.271 153.195,103.403 153.611 C 103.535 154.027,104.354 154.930,105.222 155.617 C 106.090 156.305,106.800 157.106,106.800 157.398 C 106.800 158.268,109.176 160.000,110.369 160.000 C 112.004 160.000,112.662 158.940,112.967 155.820 C 113.116 154.291,113.570 152.401,113.976 151.620 C 114.382 150.839,115.031 149.075,115.420 147.700 C 115.809 146.325,116.249 145.200,116.399 145.200 C 116.895 145.200,117.600 143.185,117.600 141.768 C 117.600 139.401,118.556 137.740,120.470 136.778 C 121.421 136.299,122.562 135.467,123.004 134.927 C 124.275 133.376,126.320 133.306,165.034 133.484 L 201.067 133.650 203.234 132.687 C 204.425 132.158,205.972 131.500,206.672 131.226 C 207.894 130.746,209.200 128.822,209.200 127.502 C 209.200 127.184,209.562 126.597,210.004 126.196 C 211.137 125.171,212.000 121.934,212.000 118.711 C 212.000 116.616,212.186 115.712,212.788 114.884 C 213.311 114.164,213.653 112.860,213.807 111.000 C 214.340 104.571,218.181 101.522,220.694 105.535 C 223.036 109.274,225.421 112.040,226.846 112.668 C 228.076 113.211,228.443 113.623,228.642 114.683 C 228.806 115.559,229.445 116.490,230.502 117.395 C 231.388 118.153,232.426 119.290,232.811 119.921 C 233.195 120.553,234.418 121.774,235.528 122.635 C 236.639 123.496,237.847 124.742,238.213 125.404 C 238.579 126.066,239.583 127.115,240.444 127.734 C 241.305 128.353,242.264 129.341,242.575 129.930 C 242.886 130.518,243.919 131.728,244.870 132.619 C 245.822 133.509,248.562 136.389,250.959 139.019 C 253.357 141.648,256.148 144.700,257.161 145.800 C 258.174 146.900,259.382 148.287,259.846 148.883 C 260.309 149.479,261.141 150.173,261.694 150.425 C 262.247 150.676,263.093 151.670,263.574 152.633 C 264.240 153.968,264.870 154.571,266.224 155.169 C 267.475 155.723,268.000 156.192,268.000 156.759 C 268.000 158.509,268.873 159.508,271.211 160.437 C 273.062 161.172,273.574 161.571,273.741 162.407 C 273.863 163.013,275.577 165.130,277.808 167.428 C 279.929 169.612,281.854 171.760,282.087 172.200 C 282.319 172.640,283.455 173.851,284.610 174.892 C 288.429 178.332,287.252 181.842,281.716 183.528 C 280.423 183.922,279.297 184.540,279.041 184.998 C 278.359 186.220,276.776 187.558,274.800 188.584 C 273.810 189.098,272.601 190.061,272.114 190.724 C 271.610 191.409,270.690 192.048,269.984 192.204 C 268.562 192.516,266.000 194.604,266.000 195.450 C 266.000 196.095,265.162 196.493,261.937 197.379 C 259.994 197.913,259.481 198.270,258.305 199.907 C 257.153 201.511,256.612 201.897,254.907 202.334 C 253.435 202.711,252.475 203.291,251.404 204.447 C 250.593 205.324,248.970 206.465,247.798 206.984 C 246.626 207.502,245.373 208.375,245.014 208.923 C 244.655 209.471,243.785 210.145,243.081 210.422 C 241.695 210.966,238.805 213.500,238.793 214.181 C 238.789 214.412,237.417 215.226,235.746 215.991 C 233.862 216.854,232.229 217.934,231.453 218.834 C 230.755 219.641,229.499 220.513,228.618 220.800 C 227.609 221.129,226.228 222.165,224.807 223.658 C 223.422 225.114,222.249 226.000,221.708 226.000 C 220.342 226.000,218.938 226.795,218.344 227.906 C 218.016 228.519,216.847 229.358,215.400 230.018 C 213.922 230.692,212.703 231.574,212.226 232.313 C 211.732 233.078,210.425 234.002,208.626 234.857 C 206.709 235.768,205.543 236.612,205.000 237.481 C 204.226 238.719,201.663 240.000,199.960 240.000 C 199.033 240.000,196.800 242.265,196.800 243.204 C 196.800 243.612,196.485 244.038,196.100 244.149 C 195.715 244.261,194.680 244.540,193.800 244.769 C 192.779 245.034,191.928 245.594,191.449 246.314 C 190.280 248.073,187.063 249.987,184.757 250.297 C 182.019 250.664,181.324 248.655,183.241 245.916 C 183.722 245.229,184.005 244.131,184.014 242.916 C 184.022 241.862,184.286 240.550,184.600 240.000 C 184.914 239.450,185.178 238.599,185.186 238.110 C 185.194 237.620,186.010 235.671,187.000 233.778 C 188.510 230.892,188.800 229.976,188.800 228.095 C 188.800 226.715,189.095 225.227,189.568 224.226 C 190.024 223.262,190.390 221.478,190.468 219.842 L 190.600 217.085 189.200 216.637 C 188.191 216.315,177.793 216.248,151.988 216.395 L 116.177 216.600 114.410 217.900 C 113.438 218.615,112.322 219.200,111.931 219.200 C 111.540 219.200,110.630 219.559,109.910 219.999 C 109.189 220.438,107.937 220.798,107.126 220.799 C 104.915 220.801,103.712 221.409,101.615 223.584 C 100.570 224.669,99.254 225.672,98.690 225.813 C 98.127 225.954,97.395 226.369,97.064 226.735 C 96.733 227.101,95.035 228.840,93.291 230.600 C 90.913 232.999,90.053 234.158,89.855 235.229 C 89.709 236.016,89.052 237.507,88.395 238.543 C 87.738 239.580,87.200 240.614,87.200 240.843 C 87.200 241.071,86.705 242.098,86.100 243.124 C 85.495 244.151,84.787 245.983,84.526 247.195 C 83.886 250.166,81.895 255.876,80.896 257.600 C 80.358 258.529,79.994 260.117,79.814 262.321 C 79.525 265.837,78.747 268.292,77.807 268.653 C 77.494 268.773,77.030 269.530,76.775 270.335 C 76.520 271.141,76.089 272.160,75.818 272.600 C 75.546 273.040,75.222 274.390,75.096 275.600 C 74.843 278.049,73.280 283.140,71.843 286.202 C 71.326 287.302,70.773 289.012,70.614 290.002 C 70.454 290.991,69.981 292.395,69.562 293.123 C 69.143 293.850,68.799 294.930,68.798 295.523 C 68.795 296.788,68.034 299.712,67.632 300.000 C 66.757 300.628,66.000 302.386,66.000 303.792 C 66.000 304.728,65.597 306.164,65.041 307.209 C 64.513 308.200,63.947 310.088,63.783 311.405 C 63.598 312.893,62.976 314.760,62.143 316.333 C 61.326 317.874,60.799 319.441,60.798 320.333 C 60.798 321.158,60.273 322.850,59.600 324.200 C 58.942 325.520,58.402 326.853,58.402 327.161 C 58.401 327.470,57.860 328.865,57.200 330.262 C 56.496 331.753,56.000 333.457,56.000 334.387 C 56.000 335.259,55.755 336.743,55.456 337.686 C 55.157 338.629,54.712 340.125,54.467 341.011 C 54.218 341.911,53.398 343.226,52.611 343.990 C 51.263 345.296,51.199 345.483,51.186 348.178 C 51.177 349.866,50.942 351.402,50.600 352.000 C 50.286 352.550,50.022 353.633,50.014 354.407 C 50.006 355.190,49.589 356.432,49.074 357.207 C 47.808 359.111,47.287 360.569,46.839 363.460 C 46.629 364.812,46.109 366.612,45.683 367.460 C 45.257 368.307,44.778 369.714,44.620 370.586 C 44.461 371.459,43.981 372.665,43.553 373.267 C 41.739 375.813,41.984 381.354,43.934 381.901 C 45.288 382.281,135.842 382.279,137.237 381.899 C 139.134 381.382,141.099 377.694,141.800 373.337 C 142.135 371.254,142.767 368.848,143.205 367.991 C 143.642 367.133,144.000 366.016,144.000 365.507 C 144.000 364.998,144.515 363.956,145.144 363.191 C 146.053 362.086,146.350 361.225,146.586 359.002 C 146.750 357.464,147.120 355.574,147.408 354.802 C 147.696 354.031,148.051 352.860,148.197 352.200 C 148.343 351.540,148.735 350.697,149.069 350.326 C 150.003 349.290,150.763 346.800,150.782 344.711 C 150.792 343.639,151.203 341.910,151.733 340.711 C 152.246 339.550,152.787 337.710,152.936 336.623 C 153.084 335.535,153.548 334.275,153.966 333.823 C 154.384 333.370,155.037 331.740,155.417 330.200 C 156.047 327.648,156.601 326.669,158.972 323.921 C 159.294 323.548,159.829 322.718,160.160 322.077 C 161.037 320.382,160.402 320.410,197.400 320.394 C 232.999 320.377,237.307 320.218,239.660 318.830 C 240.452 318.363,242.583 317.719,244.396 317.401 C 246.209 317.082,247.918 316.634,248.194 316.405 C 248.470 316.176,250.895 315.821,253.583 315.617 C 257.221 315.341,258.726 315.062,259.472 314.523 C 261.491 313.065,263.032 312.401,264.400 312.399 C 265.170 312.398,266.389 312.038,267.110 311.599 C 267.830 311.159,269.113 310.800,269.961 310.800 C 271.857 310.800,273.956 309.959,275.008 308.777 C 276.159 307.484,278.714 306.437,280.164 306.665 C 281.260 306.838,281.663 306.584,283.718 304.430 C 285.839 302.206,286.179 302.000,287.725 302.000 C 289.308 302.000,292.397 300.471,292.402 299.686 C 292.408 298.706,294.945 296.800,296.244 296.800 C 297.615 296.800,298.455 296.214,301.749 292.959 C 302.217 292.496,303.250 291.998,304.045 291.851 C 305.496 291.583,306.469 290.793,306.922 289.512 C 307.056 289.134,308.249 288.147,309.573 287.320 C 311.023 286.413,312.165 285.368,312.446 284.689 C 312.703 284.069,313.382 283.318,313.956 283.019 C 315.525 282.203,316.631 281.132,317.486 279.601 C 317.919 278.826,318.679 278.123,319.222 277.995 C 319.753 277.869,320.461 277.249,320.794 276.617 C 321.127 275.985,321.693 275.160,322.050 274.784 C 322.408 274.408,322.768 273.935,322.850 273.733 C 322.933 273.531,323.675 272.954,324.500 272.450 C 325.325 271.947,326.000 271.324,326.001 271.067 C 326.001 270.810,326.730 269.914,327.621 269.076 C 328.512 268.237,329.590 266.979,330.015 266.279 C 330.441 265.579,331.459 264.551,332.278 263.995 C 333.397 263.235,333.849 262.591,334.095 261.406 C 334.283 260.501,334.930 259.334,335.612 258.667 C 336.265 258.028,336.800 257.334,336.800 257.126 C 336.800 256.917,337.236 256.174,337.769 255.473 C 338.302 254.773,338.854 253.734,338.996 253.164 C 339.138 252.594,339.874 251.424,340.631 250.564 C 342.384 248.571,343.861 245.975,344.699 243.414 C 345.061 242.307,345.952 240.622,346.679 239.670 C 347.405 238.718,348.000 237.700,348.000 237.409 C 348.000 236.898,350.423 231.679,351.996 228.800 C 352.519 227.843,352.768 226.576,352.781 224.797 C 352.795 222.824,353.039 221.745,353.785 220.344 C 354.327 219.326,354.959 217.307,355.191 215.857 C 355.609 213.243,355.923 212.294,356.984 210.439 C 357.287 209.911,357.652 207.751,357.796 205.639 C 357.972 203.041,358.371 200.990,359.028 199.296 L 360.000 196.792 360.000 177.782 L 360.000 158.773 359.050 156.887 C 358.277 155.353,358.049 154.101,357.828 150.200 C 357.583 145.854,357.094 143.346,356.386 142.800 C 356.076 142.561,354.949 139.439,354.627 137.928 C 354.502 137.338,354.086 136.543,353.704 136.161 C 353.199 135.656,352.969 134.636,352.863 132.433 C 352.746 129.981,352.531 129.152,351.743 128.106 C 351.208 127.395,350.510 126.078,350.193 125.180 C 349.876 124.282,349.244 123.024,348.788 122.384 C 348.161 121.503,348.023 120.886,348.218 119.846 C 348.467 118.517,348.413 118.443,346.638 117.658 C 345.334 117.081,344.800 116.612,344.800 116.042 C 344.800 114.165,343.523 110.589,342.191 108.735 C 341.402 107.636,340.215 105.738,339.554 104.516 C 338.347 102.284,336.576 99.864,334.900 98.154 C 334.405 97.649,334.000 96.765,334.000 96.189 C 334.000 95.473,333.494 94.687,332.400 93.705 C 331.520 92.915,330.800 92.062,330.800 91.810 C 330.800 91.557,330.395 90.925,329.900 90.404 C 329.405 89.883,328.721 89.044,328.380 88.540 C 326.325 85.504,315.350 74.228,314.047 73.815 C 313.581 73.667,313.200 73.391,313.200 73.202 C 313.200 72.642,310.706 70.201,309.300 69.383 C 308.585 68.968,308.000 68.511,308.000 68.368 C 308.000 67.674,305.840 66.079,304.634 65.883 C 303.689 65.730,302.750 65.094,301.558 63.800 C 299.634 61.713,298.501 61.034,296.271 60.630 C 295.075 60.413,294.657 60.109,294.351 59.232 C 293.984 58.178,290.503 56.000,289.186 56.000 C 288.262 56.000,286.000 54.696,286.000 54.164 C 286.000 53.428,284.465 52.469,282.779 52.152 C 280.707 51.761,277.198 50.033,275.428 48.533 C 274.144 47.444,273.519 47.200,272.021 47.200 C 270.238 47.200,266.405 45.525,263.482 43.467 C 262.715 42.928,261.251 42.647,257.921 42.400 C 255.103 42.191,252.537 41.751,251.110 41.233 C 249.850 40.775,248.480 40.400,248.065 40.400 C 247.650 40.400,246.161 39.885,244.755 39.255 C 241.027 37.585,241.153 37.589,188.155 37.603 C 144.213 37.614,139.661 37.556,139.179 36.975 C 138.374 36.004,138.696 33.284,139.786 31.848 C 140.776 30.545,141.326 28.161,141.952 22.469 C 142.235 19.897,142.522 18.921,143.215 18.184 C 144.070 17.274,144.080 17.182,143.447 16.215 C 142.640 14.984,142.770 14.961,141.800 16.499 M138.800 25.077 C 138.800 28.053,138.457 29.226,136.904 31.556 C 135.720 33.331,135.606 37.825,136.710 39.188 L 137.420 40.065 186.810 40.036 C 239.561 40.004,242.856 40.103,244.837 41.769 C 245.676 42.475,246.533 42.800,247.559 42.800 C 248.914 42.800,251.700 43.515,253.800 44.401 C 254.240 44.587,255.860 44.850,257.400 44.986 C 260.897 45.294,262.638 45.873,264.305 47.282 C 266.517 49.151,268.050 49.766,270.635 49.820 C 273.153 49.873,275.421 50.998,277.362 53.153 C 277.912 53.765,278.599 54.000,279.836 54.000 C 282.166 54.000,283.278 54.489,285.205 56.359 C 286.149 57.275,287.681 58.228,288.811 58.604 C 289.962 58.986,291.534 59.973,292.608 60.987 C 293.703 62.021,294.984 62.821,295.790 62.972 C 296.589 63.122,297.602 63.750,298.276 64.512 C 300.141 66.624,302.684 68.432,304.118 68.664 C 305.132 68.829,305.646 69.223,306.211 70.272 C 306.622 71.036,307.418 71.905,307.980 72.203 C 308.541 72.501,310.800 74.479,313.000 76.600 C 315.200 78.720,317.720 81.150,318.600 81.998 C 322.676 85.929,326.430 90.240,329.401 94.400 C 330.265 95.610,331.204 96.744,331.486 96.920 C 331.769 97.096,332.000 97.956,332.000 98.832 C 332.000 100.003,332.186 100.481,332.700 100.634 C 335.157 101.369,337.195 103.936,338.606 108.069 C 338.957 109.097,339.495 110.147,339.801 110.401 C 340.108 110.656,340.573 111.525,340.835 112.332 C 341.097 113.139,341.662 114.300,342.091 114.911 C 342.520 115.523,343.053 116.682,343.275 117.488 C 343.498 118.294,344.202 119.441,344.840 120.037 C 345.555 120.706,346.000 121.527,346.000 122.180 C 346.000 123.173,346.984 125.555,347.579 126.000 C 347.725 126.110,348.086 126.830,348.380 127.600 C 348.673 128.370,349.318 129.630,349.811 130.400 C 350.430 131.364,350.778 132.671,350.932 134.600 C 351.146 137.295,352.291 140.758,353.938 143.689 C 354.739 145.115,355.418 149.550,355.246 152.223 C 355.181 153.228,355.557 154.979,356.235 156.823 L 357.329 159.800 357.475 177.600 C 357.626 195.963,357.575 196.758,355.950 201.697 C 355.534 202.961,355.223 204.788,355.260 205.758 C 355.299 206.777,354.810 209.186,354.104 211.461 C 353.431 213.627,352.695 216.030,352.468 216.800 C 352.242 217.570,351.781 218.920,351.446 219.800 C 351.110 220.680,350.827 222.269,350.818 223.331 C 350.801 225.162,348.771 230.309,347.400 232.000 C 347.132 232.330,346.695 233.500,346.429 234.600 C 346.163 235.700,345.544 237.050,345.054 237.600 C 344.563 238.150,343.919 239.320,343.622 240.200 C 343.324 241.080,342.672 242.340,342.172 243.000 C 341.671 243.660,341.147 244.662,341.006 245.227 C 340.865 245.792,340.139 246.941,339.393 247.780 C 338.646 248.619,337.713 250.091,337.318 251.051 C 336.923 252.011,336.465 252.798,336.300 252.799 C 336.135 252.799,336.000 252.988,336.000 253.217 C 336.000 253.654,335.931 253.753,334.065 256.000 C 333.425 256.770,332.768 258.017,332.604 258.770 C 332.410 259.661,331.518 260.930,330.053 262.399 C 327.275 265.184,326.208 266.479,325.079 268.442 C 324.542 269.374,323.619 270.230,322.709 270.641 C 321.077 271.377,320.284 272.358,319.832 274.200 C 319.494 275.577,318.517 276.800,317.753 276.800 C 317.466 276.800,316.479 277.565,315.560 278.500 C 314.641 279.435,313.329 280.471,312.645 280.803 C 311.960 281.135,311.045 282.068,310.611 282.877 C 310.117 283.796,309.199 284.658,308.157 285.178 C 307.242 285.636,305.751 286.814,304.845 287.797 C 303.939 288.781,302.523 289.931,301.699 290.354 C 300.874 290.777,299.460 291.950,298.555 292.961 C 297.254 294.415,296.643 294.800,295.639 294.800 C 293.943 294.800,291.424 296.129,290.340 297.595 C 289.857 298.249,288.818 298.989,288.031 299.240 C 285.531 300.037,282.965 301.612,282.282 302.769 C 281.693 303.766,281.338 303.912,279.048 304.095 C 276.430 304.306,275.035 305.075,272.154 307.900 C 271.449 308.592,270.772 308.800,269.232 308.800 C 268.129 308.800,266.636 309.054,265.914 309.365 C 265.191 309.676,263.562 310.155,262.294 310.430 C 260.642 310.789,259.600 311.307,258.621 312.258 C 257.278 313.563,257.178 313.589,252.830 313.802 C 250.397 313.920,248.000 314.171,247.503 314.359 C 247.006 314.547,245.438 314.835,244.018 314.999 C 242.338 315.193,240.919 315.639,239.958 316.275 C 238.797 317.043,237.640 317.332,234.556 317.624 C 232.398 317.828,229.994 318.121,229.216 318.274 C 228.437 318.427,212.860 318.563,194.600 318.576 C 159.594 318.601,158.812 318.641,158.798 320.386 C 158.797 320.504,157.991 321.489,157.005 322.575 C 155.956 323.732,154.937 325.390,154.545 326.575 C 154.177 327.689,153.553 329.230,153.158 330.000 C 151.791 332.668,150.800 335.271,150.800 336.192 C 150.800 336.702,150.352 337.902,149.805 338.859 C 149.003 340.262,148.809 341.153,148.805 343.444 C 148.801 345.824,148.634 346.532,147.786 347.783 C 147.228 348.605,146.538 350.390,146.253 351.750 C 145.968 353.110,145.430 354.687,145.058 355.256 C 144.680 355.832,144.273 357.511,144.139 359.045 C 143.953 361.171,143.682 362.032,142.954 362.816 C 142.436 363.375,141.836 364.725,141.621 365.816 C 141.168 368.120,140.712 369.645,139.892 371.600 C 139.570 372.370,139.189 374.046,139.046 375.324 C 138.582 379.492,137.541 380.145,132.165 379.645 C 129.837 379.428,129.121 379.507,128.165 380.088 C 126.991 380.801,47.482 381.240,44.900 380.548 C 43.597 380.199,43.705 377.925,45.167 374.964 C 47.534 370.166,48.517 367.348,48.798 364.542 C 48.989 362.644,49.367 361.289,49.923 360.508 C 50.384 359.861,51.110 358.071,51.537 356.529 C 51.964 354.988,52.578 353.203,52.902 352.563 C 53.225 351.924,53.589 350.384,53.712 349.142 C 53.856 347.674,54.293 346.340,54.960 345.332 C 55.524 344.479,56.165 342.842,56.382 341.693 C 56.600 340.545,57.034 339.199,57.347 338.702 C 57.660 338.206,58.128 336.540,58.387 335.000 C 58.688 333.210,59.208 331.741,59.829 330.927 C 60.402 330.176,60.802 329.109,60.805 328.327 C 60.813 326.074,62.384 321.179,64.455 316.957 C 65.114 315.614,65.806 313.544,65.993 312.357 C 66.473 309.316,67.884 304.555,69.005 302.200 C 69.528 301.100,70.082 299.492,70.236 298.627 C 70.390 297.762,71.030 295.921,71.658 294.536 C 72.286 293.151,72.800 291.322,72.800 290.471 C 72.800 289.416,73.105 288.570,73.760 287.807 C 74.422 287.036,74.844 285.851,75.122 283.980 C 75.358 282.389,75.871 280.802,76.364 280.135 C 76.935 279.362,77.347 277.887,77.652 275.523 C 77.933 273.345,78.411 271.552,78.931 270.723 C 80.176 268.739,81.673 264.482,81.999 262.000 C 82.336 259.426,83.018 257.437,84.092 255.895 C 85.175 254.339,86.900 248.854,86.637 247.803 C 86.483 247.192,86.770 246.530,87.580 245.623 C 88.220 244.906,88.859 243.634,89.001 242.795 C 89.142 241.957,89.624 240.941,90.070 240.537 C 91.064 239.637,91.999 237.889,92.004 236.920 C 92.009 236.064,99.592 228.151,101.600 226.906 C 102.370 226.429,103.503 225.399,104.117 224.619 C 104.986 223.515,105.522 223.200,106.531 223.200 C 107.244 223.200,108.852 222.840,110.104 222.400 C 111.356 221.960,112.645 221.600,112.969 221.600 C 113.294 221.600,114.063 221.130,114.679 220.556 C 115.296 219.981,116.217 219.351,116.726 219.156 C 118.346 218.534,186.471 218.728,187.300 219.357 C 188.292 220.109,188.168 221.771,186.969 223.817 C 186.401 224.785,185.970 226.077,186.011 226.689 C 186.180 229.235,185.967 231.176,185.463 231.680 C 184.659 232.484,184.135 233.636,183.848 235.230 C 183.706 236.016,183.187 237.092,182.695 237.619 C 181.786 238.594,181.732 238.909,180.982 247.600 C 180.665 251.270,181.603 252.800,184.171 252.800 C 185.151 252.800,186.052 252.640,186.173 252.444 C 186.294 252.249,186.864 251.970,187.440 251.826 C 189.154 251.396,192.000 249.943,192.000 249.499 C 192.000 248.856,194.317 246.800,195.042 246.800 C 196.178 246.800,198.730 245.121,200.005 243.534 C 200.683 242.690,201.544 241.998,201.919 241.996 C 202.781 241.991,206.800 239.706,206.800 239.221 C 206.800 239.021,207.978 238.301,209.417 237.621 C 210.857 236.941,212.792 235.688,213.717 234.837 C 214.643 233.986,216.120 232.995,217.000 232.635 C 217.880 232.274,219.518 230.994,220.641 229.790 C 222.215 228.101,222.949 227.600,223.852 227.600 C 225.423 227.600,226.642 226.678,227.629 224.743 C 228.196 223.631,228.900 222.955,229.924 222.538 C 230.736 222.207,231.979 221.317,232.686 220.561 C 233.394 219.804,234.522 219.076,235.194 218.941 C 235.866 218.807,236.817 218.273,237.308 217.755 C 237.798 217.238,238.413 216.811,238.673 216.807 C 238.933 216.803,239.554 216.215,240.053 215.500 C 241.232 213.812,241.548 213.613,243.064 213.606 C 244.001 213.602,244.607 213.262,245.399 212.300 C 247.019 210.333,249.216 208.800,250.417 208.800 C 251.703 208.800,253.398 207.550,254.190 206.019 C 254.621 205.187,255.159 204.845,256.336 204.657 C 257.537 204.465,258.433 203.880,260.132 202.181 C 261.809 200.504,262.731 199.898,263.878 199.720 C 264.825 199.572,266.013 198.938,267.022 198.041 C 269.555 195.791,270.927 194.800,271.511 194.800 C 271.806 194.800,273.023 193.878,274.214 192.752 C 275.529 191.508,276.894 190.602,277.690 190.445 C 278.796 190.226,279.167 189.836,280.073 187.942 C 281.102 185.791,281.222 185.687,283.016 185.418 C 285.402 185.061,289.827 180.989,289.467 179.481 C 289.352 178.997,289.132 177.700,288.980 176.600 C 288.675 174.402,288.020 173.436,286.201 172.500 C 284.982 171.872,283.600 170.529,283.600 169.971 C 283.600 169.803,282.925 168.952,282.100 168.080 C 281.275 167.208,279.652 165.484,278.493 164.247 C 277.334 163.011,276.239 162.000,276.060 162.000 C 275.882 162.000,275.496 161.553,275.204 161.007 C 274.911 160.460,274.353 159.912,273.964 159.789 C 272.822 159.426,270.400 156.702,270.062 155.400 C 269.879 154.696,269.182 153.818,268.375 153.275 C 267.619 152.766,266.662 151.686,266.250 150.875 C 265.289 148.987,265.445 149.114,263.759 148.838 C 262.442 148.622,262.238 148.406,261.517 146.473 C 261.081 145.303,260.426 144.255,260.062 144.144 C 257.896 143.483,256.800 142.756,256.800 141.980 C 256.800 140.600,256.058 139.608,251.941 135.482 C 249.773 133.310,248.000 131.368,248.000 131.167 C 248.000 130.965,247.804 130.800,247.564 130.800 C 247.324 130.800,245.659 129.272,243.864 127.405 C 242.069 125.538,240.194 123.603,239.698 123.105 C 239.202 122.607,238.572 121.964,238.298 121.676 C 238.024 121.388,236.540 119.863,235.000 118.288 C 233.460 116.712,231.989 115.020,231.732 114.527 C 230.476 112.125,229.758 111.177,229.013 110.942 C 228.055 110.640,227.293 109.812,225.102 106.700 C 224.212 105.435,223.340 104.400,223.165 104.400 C 222.989 104.400,222.535 103.875,222.157 103.234 C 220.261 100.025,214.605 100.475,213.380 103.932 C 213.015 104.959,212.395 106.430,212.001 107.200 C 211.607 107.970,211.156 109.742,210.998 111.139 C 210.841 112.535,210.459 114.155,210.148 114.739 C 209.786 115.421,209.607 116.880,209.647 118.826 C 209.701 121.446,209.573 122.063,208.695 123.426 C 208.137 124.292,207.460 125.639,207.189 126.420 C 206.703 127.824,205.037 129.248,202.654 130.296 C 201.758 130.690,193.051 130.800,162.783 130.800 L 124.057 130.800 122.599 132.175 C 121.798 132.931,120.629 133.662,120.002 133.799 C 117.763 134.291,115.334 137.516,115.005 140.433 C 114.813 142.136,114.410 143.406,113.809 144.207 C 113.310 144.870,112.809 146.130,112.695 147.007 C 111.779 154.043,108.238 156.520,105.511 152.031 C 104.583 150.504,92.951 138.800,92.361 138.800 C 92.168 138.800,91.583 138.124,91.062 137.298 C 90.540 136.472,89.683 135.562,89.157 135.275 C 88.631 134.989,87.750 134.109,87.200 133.319 C 86.650 132.530,85.660 131.325,85.000 130.642 C 84.340 129.959,83.340 128.500,82.777 127.400 C 81.876 125.639,81.545 125.349,80.004 124.973 C 78.377 124.575,78.225 124.423,77.827 122.795 C 77.438 121.199,77.196 120.943,75.100 119.913 C 73.413 119.084,72.800 118.563,72.800 117.960 C 72.800 116.692,69.838 112.852,67.920 111.634 C 66.974 111.034,65.664 109.835,65.008 108.971 C 64.352 108.107,62.192 105.763,60.208 103.762 C 58.224 101.761,56.303 99.781,55.940 99.362 C 55.578 98.943,54.858 98.238,54.340 97.795 C 53.823 97.353,53.040 96.476,52.600 95.847 C 51.555 94.353,49.918 92.800,49.389 92.800 C 47.410 92.800,44.963 87.022,46.667 86.374 C 47.246 86.154,48.434 85.260,49.307 84.387 C 50.180 83.514,51.129 82.800,51.416 82.800 C 51.704 82.800,52.447 82.381,53.069 81.868 C 53.691 81.356,54.522 80.819,54.915 80.675 C 55.308 80.531,55.938 79.872,56.315 79.209 C 56.905 78.172,57.232 78.005,58.673 78.003 C 60.110 78.000,60.471 77.817,61.233 76.700 C 62.455 74.912,64.851 72.833,65.713 72.815 C 67.185 72.784,69.184 71.613,70.068 70.264 C 70.678 69.334,71.522 68.694,72.592 68.350 C 75.083 67.549,76.186 66.752,78.219 64.283 C 79.252 63.027,80.247 62.000,80.430 62.000 C 80.612 62.000,81.390 61.353,82.157 60.563 C 83.059 59.635,84.153 58.991,85.247 58.745 C 86.402 58.485,87.487 57.818,88.658 56.648 C 89.654 55.651,91.432 54.481,92.897 53.859 C 94.861 53.024,95.638 52.433,96.406 51.190 C 97.406 49.573,97.576 49.466,99.899 48.998 C 100.700 48.837,101.944 47.986,103.148 46.776 C 104.221 45.698,105.951 44.450,106.993 44.003 C 108.035 43.556,109.363 42.684,109.944 42.064 C 110.525 41.445,111.885 40.601,112.967 40.189 C 114.705 39.527,116.737 37.883,118.316 35.861 C 118.606 35.489,119.397 35.200,120.127 35.200 C 121.806 35.200,123.053 34.300,123.911 32.469 C 124.366 31.499,125.134 30.739,126.173 30.232 C 127.038 29.810,128.328 28.865,129.040 28.132 C 129.751 27.400,130.556 26.800,130.829 26.800 C 131.101 26.800,131.881 26.391,132.562 25.892 C 133.243 25.392,134.295 24.732,134.900 24.424 C 135.505 24.117,136.000 23.709,136.000 23.518 C 136.000 23.328,136.285 22.736,136.634 22.204 C 137.836 20.370,138.800 21.649,138.800 25.077 " stroke="none" fill="#bbb6f8" fill-rule="evenodd"></path></g></svg>