<svg id="svg" version="1.1" xmlns="http://www.w3.org/2000/svg" xmlns:xlink="http://www.w3.org/1999/xlink" width="400" height="400" viewBox="0, 0, 400,400"><g id="svgg"><path id="path0" d="M233.147 21.582 C 228.167 26.635,222.407 32.694,220.347 35.047 C 218.286 37.400,214.440 41.786,211.800 44.793 C 204.263 53.378,195.406 64.011,190.636 70.200 C 188.941 72.400,185.899 76.339,183.877 78.954 C 181.855 81.568,179.390 84.852,178.400 86.252 C 177.410 87.651,174.245 92.081,171.367 96.098 C 161.400 110.005,152.938 122.672,147.651 131.600 C 146.674 133.250,145.473 135.140,144.982 135.800 C 144.491 136.460,143.594 137.990,142.988 139.200 C 142.382 140.410,141.482 141.940,140.988 142.600 C 139.416 144.699,124.000 172.591,124.000 173.335 C 124.000 173.419,122.218 177.157,120.041 181.643 C 116.264 189.425,114.824 192.649,110.680 202.600 C 106.546 212.527,101.031 228.370,99.751 233.997 C 99.426 235.429,98.543 238.670,97.790 241.200 C 96.967 243.966,96.192 247.794,95.847 250.800 C 95.496 253.863,94.958 256.500,94.460 257.606 C 94.012 258.599,93.450 260.990,93.210 262.919 C 92.970 264.849,92.600 267.346,92.387 268.468 C 91.243 274.503,92.140 278.000,94.833 278.000 C 95.511 278.000,97.296 278.540,98.800 279.200 C 100.304 279.860,102.134 280.403,102.867 280.407 C 105.805 280.423,112.478 281.624,114.029 282.415 C 114.930 282.875,117.446 283.590,119.620 284.004 C 121.793 284.418,124.703 285.236,126.086 285.822 C 127.469 286.408,129.797 287.035,131.260 287.215 C 132.723 287.395,134.613 287.895,135.460 288.325 C 137.727 289.477,143.437 291.200,144.987 291.200 C 145.750 291.200,147.449 291.792,148.907 292.565 C 150.323 293.316,152.812 294.324,154.440 294.804 C 156.068 295.284,158.660 296.270,160.200 296.994 C 161.740 297.718,164.333 298.707,165.962 299.191 C 167.591 299.675,169.571 300.492,170.362 301.006 C 171.153 301.520,172.610 302.152,173.600 302.410 C 174.590 302.668,176.480 303.474,177.800 304.200 C 179.120 304.927,180.830 305.644,181.600 305.794 C 182.370 305.944,183.761 306.600,184.691 307.252 C 185.621 307.904,187.407 308.789,188.659 309.220 C 189.911 309.651,191.776 310.543,192.803 311.202 C 193.830 311.861,194.822 312.400,195.009 312.400 C 195.379 312.400,197.609 313.396,201.513 315.305 C 204.855 316.938,205.365 316.509,203.892 313.304 C 202.409 310.078,200.930 306.417,199.372 302.116 C 198.638 300.090,197.757 297.890,197.414 297.227 C 197.071 296.563,196.354 294.391,195.821 292.399 C 195.288 290.408,194.489 288.192,194.046 287.474 C 193.602 286.757,192.863 284.467,192.404 282.385 C 191.944 280.303,191.220 277.430,190.795 276.000 C 188.837 269.409,188.400 267.829,188.400 267.334 C 188.400 267.042,188.060 265.767,187.645 264.502 C 186.919 262.291,186.418 259.999,184.804 251.502 C 184.397 249.358,183.879 247.018,183.654 246.302 C 183.429 245.586,183.048 243.306,182.807 241.236 C 182.565 239.166,182.285 237.338,182.184 237.174 C 182.083 237.010,181.730 234.474,181.401 231.538 C 181.072 228.602,180.624 224.670,180.405 222.800 C 178.602 207.340,178.828 176.535,180.839 163.800 C 181.256 161.160,181.601 158.190,181.605 157.200 C 181.610 156.210,181.895 154.140,182.239 152.600 C 182.582 151.060,183.107 148.090,183.405 146.000 C 183.908 142.470,184.220 140.948,185.865 134.000 C 186.203 132.570,186.639 130.590,186.833 129.600 C 187.187 127.795,188.153 124.002,189.686 118.400 C 192.902 106.649,199.167 89.526,204.629 77.558 C 206.340 73.810,215.114 56.349,216.067 54.796 C 216.403 54.248,217.704 52.000,218.959 49.800 C 220.213 47.600,221.972 44.630,222.866 43.200 C 223.761 41.770,225.311 39.250,226.311 37.600 C 227.915 34.953,232.285 28.513,236.083 23.200 C 243.606 12.678,243.774 12.403,242.700 12.397 C 242.425 12.396,238.126 16.529,233.147 21.582 M75.400 302.388 C 68.307 303.146,60.267 307.152,56.108 312.000 C 53.615 314.906,49.600 322.359,49.600 324.081 C 49.600 324.382,49.222 325.701,48.759 327.014 C 47.308 331.129,47.225 350.611,48.656 351.086 C 48.906 351.169,49.896 349.672,50.856 347.758 C 54.261 340.967,59.688 336.961,68.200 334.954 C 75.366 333.265,93.968 334.067,101.400 336.386 C 102.720 336.798,105.240 337.439,107.000 337.810 C 108.760 338.182,112.000 339.078,114.200 339.802 C 116.400 340.527,118.830 341.242,119.600 341.391 C 121.146 341.692,131.388 344.894,133.600 345.768 C 134.370 346.073,137.063 346.983,139.585 347.792 C 142.107 348.601,144.528 349.455,144.966 349.689 C 145.405 349.924,146.581 350.349,147.582 350.635 C 148.582 350.920,151.200 351.801,153.400 352.591 C 155.600 353.381,158.930 354.562,160.800 355.215 C 162.670 355.867,165.460 356.871,167.000 357.445 C 172.971 359.671,192.032 366.479,204.600 370.875 C 214.299 374.267,231.669 380.048,235.000 380.992 C 236.760 381.491,239.910 382.386,242.000 382.982 C 252.067 385.852,256.279 386.932,260.800 387.803 C 262.230 388.078,264.480 388.583,265.800 388.925 C 270.289 390.087,276.836 391.234,281.128 391.611 C 283.482 391.818,287.116 392.167,289.204 392.386 C 325.688 396.228,352.885 379.937,361.796 348.904 C 363.696 342.287,362.621 341.493,358.797 346.688 C 340.793 371.147,313.918 377.477,276.000 366.190 C 273.250 365.371,270.460 364.563,269.800 364.394 C 268.644 364.098,266.776 363.473,256.800 360.045 C 252.683 358.630,244.062 355.592,239.200 353.842 C 238.210 353.486,237.040 353.023,236.600 352.813 C 236.160 352.603,234.090 351.784,232.000 350.993 C 229.910 350.201,227.300 349.205,226.200 348.778 C 225.100 348.352,222.040 347.180,219.400 346.175 C 211.255 343.074,206.373 341.172,202.000 339.395 C 199.690 338.457,197.530 337.592,197.200 337.473 C 196.870 337.355,195.070 336.600,193.200 335.796 C 191.330 334.993,189.350 334.182,188.800 333.995 C 188.250 333.808,186.360 333.093,184.600 332.405 C 182.840 331.718,179.510 330.458,177.200 329.606 C 174.890 328.755,171.830 327.580,170.400 326.996 C 168.970 326.412,166.900 325.599,165.800 325.190 C 164.700 324.781,161.370 323.531,158.400 322.412 C 152.031 320.012,134.121 313.855,130.400 312.785 C 128.970 312.374,125.952 311.399,123.693 310.619 C 121.435 309.839,119.252 309.200,118.842 309.200 C 118.433 309.200,117.491 308.950,116.749 308.644 C 116.007 308.338,113.330 307.604,110.800 307.014 C 108.270 306.423,104.850 305.598,103.200 305.180 C 101.550 304.762,99.300 304.305,98.200 304.164 C 97.100 304.023,94.760 303.584,93.000 303.188 C 89.354 302.369,79.693 301.929,75.400 302.388 M70.400 348.375 C 61.076 349.775,56.930 358.800,60.047 370.911 C 61.418 376.238,62.075 376.695,63.205 373.106 C 64.272 369.716,67.089 365.678,69.477 364.113 C 73.812 361.272,86.151 360.153,93.225 361.960 C 94.861 362.378,97.268 362.845,98.574 362.998 C 99.880 363.151,101.409 363.451,101.973 363.666 C 102.536 363.880,104.708 364.419,106.799 364.864 C 108.889 365.309,112.130 366.000,114.000 366.399 C 115.870 366.798,118.840 367.420,120.600 367.782 C 124.107 368.502,128.831 369.552,135.000 370.982 C 137.200 371.492,140.890 372.311,143.200 372.802 C 145.510 373.293,148.660 374.026,150.200 374.432 C 153.108 375.197,157.255 376.086,162.400 377.046 C 164.050 377.354,166.210 377.860,167.200 378.170 C 168.190 378.480,169.720 378.842,170.600 378.975 C 171.480 379.108,173.550 379.556,175.200 379.971 C 180.889 381.401,183.808 382.084,186.400 382.590 C 187.830 382.869,190.170 383.375,191.600 383.714 C 195.190 384.564,201.396 385.902,203.800 386.344 C 204.900 386.546,206.970 386.994,208.400 387.340 C 209.830 387.687,212.890 388.351,215.200 388.817 C 217.510 389.282,220.570 389.938,222.000 390.273 C 223.430 390.608,225.500 391.049,226.600 391.253 C 228.803 391.660,233.949 392.789,239.200 394.015 C 241.070 394.451,243.950 394.922,245.600 395.060 C 247.250 395.198,249.086 395.556,249.680 395.856 C 250.882 396.461,255.029 396.600,255.372 396.045 C 255.716 395.489,254.745 394.896,253.000 394.598 C 252.120 394.448,250.320 393.995,249.000 393.592 C 244.711 392.282,239.823 390.869,238.800 390.643 C 238.250 390.522,236.180 389.979,234.200 389.436 C 232.220 388.893,229.520 388.164,228.200 387.814 C 226.880 387.464,224.630 386.844,223.200 386.436 C 221.770 386.027,219.790 385.478,218.800 385.216 C 217.810 384.953,215.830 384.409,214.400 384.006 C 212.970 383.603,210.450 382.913,208.800 382.472 C 203.694 381.108,194.320 378.440,191.800 377.634 C 190.480 377.211,188.707 376.749,187.860 376.607 C 187.013 376.465,185.753 376.105,185.060 375.806 C 184.367 375.508,182.630 374.983,181.200 374.640 C 179.770 374.297,177.340 373.643,175.800 373.185 C 174.260 372.728,171.470 371.938,169.600 371.431 C 167.730 370.923,164.670 370.027,162.800 369.439 C 160.930 368.851,158.500 368.130,157.400 367.837 C 156.300 367.544,153.780 366.811,151.800 366.208 C 149.820 365.605,146.040 364.501,143.400 363.754 C 140.760 363.008,137.790 362.107,136.800 361.753 C 135.810 361.399,134.010 360.874,132.800 360.585 C 131.590 360.297,128.710 359.488,126.400 358.787 C 124.090 358.086,121.300 357.274,120.200 356.982 C 116.189 355.919,112.243 354.750,111.854 354.510 C 111.635 354.375,110.184 353.942,108.628 353.549 C 107.073 353.156,104.450 352.470,102.800 352.023 C 90.612 348.727,77.723 347.276,70.400 348.375 " stroke="none" fill="#093c82" fill-rule="evenodd"></path><path id="path1" d="M0.000 200.000 L 0.000 400.000 200.000 400.000 L 400.000 400.000 400.000 200.000 L 400.000 0.000 200.000 0.000 L 0.000 0.000 0.000 200.000 M243.377 12.763 C 243.500 12.962,242.797 14.113,241.813 15.320 C 240.830 16.527,238.985 19.047,237.713 20.920 C 236.441 22.793,233.935 26.368,232.145 28.863 C 230.355 31.358,227.846 35.110,226.569 37.200 C 225.291 39.290,223.570 42.080,222.743 43.400 C 221.227 45.820,217.919 51.538,215.685 55.600 C 214.396 57.943,205.459 75.780,204.060 78.800 C 199.477 88.696,192.721 107.310,189.686 118.400 C 188.153 124.002,187.187 127.795,186.833 129.600 C 186.639 130.590,186.203 132.570,185.865 134.000 C 184.220 140.948,183.908 142.470,183.405 146.000 C 183.107 148.090,182.582 151.060,182.239 152.600 C 181.895 154.140,181.610 156.210,181.605 157.200 C 181.601 158.190,181.256 161.160,180.839 163.800 C 178.828 176.535,178.602 207.340,180.405 222.800 C 180.624 224.670,181.072 228.602,181.401 231.538 C 181.730 234.474,182.083 237.010,182.184 237.174 C 182.285 237.338,182.565 239.166,182.807 241.236 C 183.048 243.306,183.429 245.586,183.654 246.302 C 183.879 247.018,184.397 249.358,184.804 251.502 C 186.418 259.999,186.919 262.291,187.645 264.502 C 188.060 265.767,188.400 267.042,188.400 267.334 C 188.400 267.829,188.837 269.409,190.795 276.000 C 191.220 277.430,191.944 280.303,192.404 282.385 C 192.863 284.467,193.602 286.757,194.046 287.474 C 194.489 288.192,195.288 290.408,195.821 292.399 C 196.354 294.391,197.071 296.563,197.414 297.227 C 197.757 297.890,198.638 300.090,199.372 302.116 C 200.930 306.417,202.409 310.078,203.892 313.304 C 205.365 316.509,204.855 316.938,201.513 315.305 C 197.609 313.396,195.379 312.400,195.009 312.400 C 194.822 312.400,193.830 311.861,192.803 311.202 C 191.776 310.543,189.911 309.651,188.659 309.220 C 187.407 308.789,185.621 307.904,184.691 307.252 C 183.761 306.600,182.370 305.944,181.600 305.794 C 180.830 305.644,179.120 304.927,177.800 304.200 C 176.480 303.474,174.590 302.668,173.600 302.410 C 172.610 302.152,171.153 301.520,170.362 301.006 C 169.571 300.492,167.591 299.675,165.962 299.191 C 164.333 298.707,161.740 297.718,160.200 296.994 C 158.660 296.270,156.068 295.284,154.440 294.804 C 152.812 294.324,150.323 293.316,148.907 292.565 C 147.449 291.792,145.750 291.200,144.987 291.200 C 143.437 291.200,137.727 289.477,135.460 288.325 C 134.613 287.895,132.723 287.395,131.260 287.215 C 129.797 287.035,127.469 286.408,126.086 285.822 C 124.703 285.236,121.793 284.418,119.620 284.004 C 117.446 283.590,114.930 282.875,114.029 282.415 C 112.478 281.624,105.805 280.423,102.867 280.407 C 102.134 280.403,100.304 279.860,98.800 279.200 C 97.296 278.540,95.511 278.000,94.833 278.000 C 92.140 278.000,91.243 274.503,92.387 268.468 C 92.600 267.346,92.970 264.849,93.210 262.919 C 93.450 260.990,94.012 258.599,94.460 257.606 C 94.958 256.500,95.496 253.863,95.847 250.800 C 96.192 247.794,96.967 243.966,97.790 241.200 C 98.543 238.670,99.426 235.429,99.751 233.997 C 101.031 228.370,106.546 212.527,110.680 202.600 C 114.824 192.649,116.264 189.425,120.041 181.643 C 122.218 177.157,124.000 173.419,124.000 173.335 C 124.000 172.591,139.416 144.699,140.988 142.600 C 141.482 141.940,142.382 140.410,142.988 139.200 C 143.594 137.990,144.491 136.460,144.982 135.800 C 145.473 135.140,146.674 133.250,147.651 131.600 C 152.938 122.672,161.400 110.005,171.367 96.098 C 174.245 92.081,177.410 87.651,178.400 86.252 C 179.390 84.852,181.855 81.568,183.877 78.954 C 185.899 76.339,188.941 72.400,190.636 70.200 C 195.406 64.011,204.263 53.378,211.800 44.793 C 214.440 41.786,218.241 37.452,220.246 35.163 C 225.166 29.546,242.081 12.370,242.676 12.387 C 242.938 12.394,243.254 12.563,243.377 12.763 M235.680 67.463 C 233.501 71.829,230.994 76.930,230.108 78.800 C 229.222 80.670,227.855 83.550,227.070 85.200 C 226.284 86.850,225.252 89.640,224.776 91.400 C 224.300 93.160,223.495 95.596,222.987 96.813 C 222.479 98.030,221.680 101.090,221.212 103.613 C 220.744 106.136,220.027 109.190,219.619 110.400 C 219.211 111.610,218.759 113.680,218.615 115.000 C 218.471 116.320,218.102 119.110,217.795 121.200 C 216.801 127.972,216.218 140.672,216.209 155.800 C 216.199 171.614,215.511 186.708,214.577 191.600 C 213.897 195.158,213.067 203.861,213.361 204.338 C 213.914 205.231,214.434 211.989,214.012 212.778 C 213.363 213.991,214.207 222.935,215.248 225.879 C 215.699 227.155,216.196 229.018,216.352 230.018 C 216.508 231.018,217.004 232.548,217.454 233.418 C 219.550 237.471,221.762 241.455,222.218 242.000 C 222.494 242.330,223.017 243.320,223.380 244.200 C 223.743 245.080,224.548 246.340,225.168 247.000 C 226.253 248.155,227.600 251.390,227.600 252.842 C 227.600 253.792,229.289 255.053,230.989 255.372 C 232.317 255.621,234.400 257.645,234.400 258.686 C 234.400 259.283,239.577 266.943,240.233 267.317 C 240.539 267.491,241.107 267.465,241.495 267.259 C 243.874 265.996,248.341 268.963,250.225 273.056 C 251.038 274.822,252.179 276.501,253.215 277.456 C 254.137 278.305,255.295 279.910,255.789 281.021 C 256.283 282.133,257.230 283.663,257.895 284.421 C 258.560 285.180,260.114 287.330,261.349 289.200 C 262.584 291.070,264.631 294.011,265.897 295.735 C 267.164 297.460,269.100 300.286,270.200 302.016 C 272.851 306.185,281.940 319.573,284.175 322.600 C 286.643 325.943,288.465 328.472,291.118 332.238 C 294.488 337.021,299.871 343.892,302.212 346.400 C 307.383 351.939,306.891 353.727,300.490 352.654 C 298.570 352.332,296.010 351.942,294.800 351.788 C 293.590 351.633,291.160 351.100,289.400 350.603 C 285.139 349.400,284.602 349.282,281.157 348.795 C 279.530 348.565,274.060 347.041,269.000 345.408 C 263.940 343.775,259.080 342.276,258.200 342.077 C 256.540 341.701,246.173 337.676,244.152 336.622 C 241.722 335.355,233.753 331.684,232.800 331.393 C 227.795 329.862,219.600 324.451,219.600 322.677 C 219.600 322.391,219.082 321.340,218.449 320.342 C 217.373 318.645,213.200 308.201,213.200 307.204 C 213.200 306.956,212.406 304.814,211.436 302.445 C 210.466 300.076,209.405 297.252,209.079 296.169 C 208.752 295.086,208.098 293.227,207.624 292.038 C 207.151 290.849,206.510 288.689,206.201 287.238 C 205.892 285.787,205.075 282.980,204.385 281.000 C 203.695 279.020,202.870 276.320,202.550 275.000 C 202.231 273.680,201.352 270.530,200.596 268.000 C 199.841 265.470,198.967 262.140,198.654 260.600 C 198.341 259.060,197.355 254.470,196.463 250.400 C 195.570 246.330,194.390 240.120,193.839 236.600 C 193.289 233.080,192.573 229.120,192.249 227.800 C 189.854 218.043,190.289 163.604,192.816 156.959 C 193.032 156.390,193.464 154.367,193.777 152.462 C 195.097 144.416,195.656 141.626,196.555 138.600 C 197.077 136.840,197.905 133.960,198.394 132.200 C 198.883 130.440,199.970 126.930,200.810 124.400 C 201.650 121.870,202.545 118.990,202.799 118.000 C 203.352 115.844,207.712 105.983,210.669 100.200 C 213.153 95.342,214.037 93.689,216.233 89.800 C 219.682 83.690,221.254 81.215,225.400 75.369 C 227.380 72.577,229.568 69.461,230.263 68.446 C 232.015 65.884,239.266 58.497,239.473 59.063 C 239.566 59.318,237.859 63.098,235.680 67.463 M93.000 303.188 C 94.760 303.584,97.100 304.023,98.200 304.164 C 99.300 304.305,101.550 304.762,103.200 305.180 C 104.850 305.598,108.270 306.423,110.800 307.014 C 113.330 307.604,116.007 308.338,116.749 308.644 C 117.491 308.950,118.433 309.200,118.842 309.200 C 119.252 309.200,121.435 309.839,123.693 310.619 C 125.952 311.399,128.970 312.374,130.400 312.785 C 134.121 313.855,152.031 320.012,158.400 322.412 C 161.370 323.531,164.700 324.781,165.800 325.190 C 166.900 325.599,168.970 326.412,170.400 326.996 C 171.830 327.580,174.890 328.755,177.200 329.606 C 179.510 330.458,182.840 331.718,184.600 332.405 C 186.360 333.093,188.250 333.810,188.800 334.000 C 189.350 334.189,191.150 334.918,192.800 335.620 C 196.390 337.147,198.971 338.181,202.200 339.387 C 203.520 339.880,207.030 341.267,210.000 342.470 C 215.421 344.666,218.858 345.997,232.000 350.988 C 234.090 351.782,236.160 352.603,236.600 352.813 C 237.040 353.023,238.210 353.486,239.200 353.842 C 244.062 355.592,252.683 358.630,256.800 360.045 C 266.776 363.473,268.644 364.098,269.800 364.394 C 270.460 364.563,273.160 365.336,275.800 366.112 C 281.640 367.827,285.558 368.828,291.600 370.147 C 318.445 376.005,345.244 366.502,359.005 346.243 C 362.394 341.255,363.909 342.303,362.004 348.318 C 361.536 349.793,360.786 352.170,360.337 353.600 C 356.185 366.806,345.110 379.502,332.165 385.895 C 316.406 393.677,288.713 394.944,265.800 388.933 C 264.480 388.587,262.230 388.078,260.800 387.803 C 256.279 386.932,252.067 385.852,242.000 382.982 C 239.910 382.386,236.760 381.491,235.000 380.992 C 230.333 379.670,198.786 369.024,192.000 366.482 C 190.790 366.029,187.460 364.821,184.600 363.797 C 173.779 359.924,169.715 358.457,167.000 357.445 C 165.460 356.871,162.670 355.867,160.800 355.215 C 158.930 354.562,155.600 353.381,153.400 352.591 C 151.200 351.801,148.582 350.920,147.582 350.635 C 146.581 350.349,145.405 349.924,144.966 349.689 C 144.528 349.455,142.107 348.601,139.585 347.792 C 137.063 346.983,134.370 346.073,133.600 345.768 C 131.388 344.894,121.146 341.692,119.600 341.391 C 118.830 341.242,116.400 340.527,114.200 339.802 C 112.000 339.078,108.760 338.182,107.000 337.810 C 105.240 337.439,102.720 336.798,101.400 336.386 C 93.968 334.067,75.366 333.265,68.200 334.954 C 59.688 336.961,54.261 340.967,50.856 347.758 C 49.896 349.672,48.906 351.169,48.656 351.086 C 47.225 350.611,47.308 331.129,48.759 327.014 C 49.222 325.701,49.600 324.382,49.600 324.081 C 49.600 322.359,53.615 314.906,56.108 312.000 C 63.293 303.625,78.639 299.959,93.000 303.188 M93.200 349.792 C 96.830 350.573,101.150 351.577,102.800 352.023 C 104.450 352.470,107.073 353.156,108.628 353.549 C 110.184 353.942,111.635 354.375,111.854 354.510 C 112.304 354.788,116.123 355.882,122.600 357.587 C 125.020 358.225,127.810 359.048,128.800 359.418 C 129.790 359.788,131.590 360.332,132.800 360.627 C 134.794 361.113,142.250 363.304,151.800 366.209 C 153.780 366.811,156.300 367.544,157.400 367.837 C 158.500 368.130,160.930 368.850,162.800 369.437 C 164.670 370.024,167.190 370.750,168.400 371.051 C 169.610 371.353,171.770 371.956,173.200 372.392 C 174.630 372.828,176.970 373.539,178.400 373.973 C 179.830 374.406,181.720 374.884,182.600 375.034 C 183.480 375.184,184.656 375.537,185.214 375.819 C 185.771 376.101,186.941 376.452,187.814 376.599 C 188.686 376.746,190.480 377.211,191.800 377.634 C 194.320 378.440,203.694 381.108,208.800 382.472 C 210.450 382.913,212.970 383.603,214.400 384.006 C 215.830 384.409,217.810 384.945,218.800 385.197 C 219.790 385.450,221.770 386.001,223.200 386.422 C 226.708 387.456,230.146 388.373,232.800 388.984 C 234.010 389.262,236.080 389.807,237.400 390.195 C 244.385 392.249,248.266 393.274,252.800 394.262 C 255.241 394.795,256.847 395.686,256.318 396.215 C 255.616 396.917,251.653 396.814,249.248 396.031 C 247.844 395.574,246.134 395.200,245.448 395.200 C 244.762 395.200,242.220 394.741,239.800 394.181 C 231.773 392.321,228.622 391.622,226.400 391.209 C 225.190 390.984,223.216 390.530,222.013 390.200 C 220.810 389.870,219.479 389.600,219.055 389.600 C 218.318 389.600,213.979 388.678,208.400 387.336 C 206.970 386.992,204.900 386.546,203.800 386.344 C 201.396 385.902,195.190 384.564,191.600 383.714 C 190.170 383.375,187.830 382.869,186.400 382.590 C 183.808 382.084,180.889 381.401,175.200 379.971 C 173.550 379.556,171.480 379.108,170.600 378.975 C 169.720 378.842,168.190 378.480,167.200 378.170 C 166.210 377.860,164.050 377.354,162.400 377.046 C 157.220 376.079,153.099 375.195,150.200 374.428 C 148.660 374.021,145.870 373.387,144.000 373.019 C 142.130 372.652,139.070 371.984,137.200 371.534 C 131.114 370.071,127.459 369.245,124.200 368.595 C 122.440 368.244,119.470 367.616,117.600 367.200 C 115.730 366.783,112.400 366.050,110.200 365.570 C 108.000 365.090,105.210 364.445,104.000 364.138 C 102.790 363.830,100.270 363.326,98.400 363.017 C 96.530 362.709,93.927 362.174,92.616 361.828 C 90.924 361.382,88.370 361.200,83.813 361.200 C 71.685 361.200,65.901 364.541,63.205 373.106 C 62.075 376.695,61.418 376.238,60.047 370.911 C 55.045 351.479,66.658 344.081,93.200 349.792 M261.800 397.400 C 261.800 397.905,260.219 398.142,258.959 397.826 C 257.257 397.398,257.901 396.750,259.900 396.878 C 260.945 396.945,261.800 397.180,261.800 397.400 " stroke="none" fill="#fbfbfb" fill-rule="evenodd"></path><path id="path2" d="M235.414 62.600 C 233.276 64.800,230.957 67.431,230.263 68.446 C 229.568 69.461,227.380 72.577,225.400 75.369 C 221.254 81.215,219.682 83.690,216.233 89.800 C 214.037 93.689,213.153 95.342,210.669 100.200 C 207.712 105.983,203.352 115.844,202.799 118.000 C 202.545 118.990,201.650 121.870,200.810 124.400 C 199.970 126.930,198.883 130.440,198.394 132.200 C 197.905 133.960,197.077 136.840,196.555 138.600 C 195.656 141.626,195.097 144.416,193.777 152.462 C 193.464 154.367,193.032 156.390,192.816 156.959 C 190.289 163.604,189.854 218.043,192.249 227.800 C 192.573 229.120,193.289 233.080,193.839 236.600 C 194.390 240.120,195.570 246.330,196.463 250.400 C 197.355 254.470,198.341 259.060,198.654 260.600 C 198.967 262.140,199.841 265.470,200.596 268.000 C 201.352 270.530,202.231 273.680,202.550 275.000 C 202.870 276.320,203.695 279.020,204.385 281.000 C 205.075 282.980,205.892 285.787,206.201 287.238 C 206.510 288.689,207.151 290.849,207.624 292.038 C 208.098 293.227,208.752 295.086,209.079 296.169 C 209.405 297.252,210.466 300.076,211.436 302.445 C 212.406 304.814,213.200 306.956,213.200 307.204 C 213.200 308.201,217.373 318.645,218.449 320.342 C 219.082 321.340,219.600 322.391,219.600 322.677 C 219.600 324.451,227.795 329.862,232.800 331.393 C 233.753 331.684,241.722 335.355,244.152 336.622 C 246.173 337.676,256.540 341.701,258.200 342.077 C 259.080 342.276,263.940 343.775,269.000 345.408 C 274.060 347.041,279.530 348.565,281.157 348.795 C 284.602 349.282,285.139 349.400,289.400 350.603 C 291.160 351.100,293.590 351.633,294.800 351.788 C 296.010 351.942,298.570 352.332,300.490 352.654 C 306.891 353.727,307.383 351.939,302.212 346.400 C 299.871 343.892,294.488 337.021,291.118 332.238 C 288.465 328.472,286.643 325.943,284.175 322.600 C 281.940 319.573,272.851 306.185,270.200 302.016 C 269.100 300.286,267.164 297.460,265.897 295.735 C 264.631 294.011,262.584 291.070,261.349 289.200 C 260.114 287.330,258.560 285.180,257.895 284.421 C 257.230 283.663,256.283 282.133,255.789 281.021 C 255.295 279.910,254.137 278.305,253.215 277.456 C 252.179 276.501,251.038 274.822,250.225 273.056 C 248.341 268.963,243.874 265.996,241.495 267.259 C 241.107 267.465,240.539 267.491,240.233 267.317 C 239.577 266.943,234.400 259.283,234.400 258.686 C 234.400 257.645,232.317 255.621,230.989 255.372 C 229.289 255.053,227.600 253.792,227.600 252.842 C 227.600 251.390,226.253 248.155,225.168 247.000 C 224.548 246.340,223.743 245.080,223.380 244.200 C 223.017 243.320,222.494 242.330,222.218 242.000 C 221.762 241.455,219.550 237.471,217.454 233.418 C 217.004 232.548,216.508 231.018,216.352 230.018 C 216.196 229.018,215.699 227.155,215.248 225.879 C 214.207 222.935,213.363 213.991,214.012 212.778 C 214.434 211.989,213.914 205.231,213.361 204.338 C 213.067 203.861,213.897 195.158,214.577 191.600 C 215.511 186.708,216.199 171.614,216.209 155.800 C 216.218 140.672,216.801 127.972,217.795 121.200 C 218.102 119.110,218.471 116.320,218.615 115.000 C 218.759 113.680,219.211 111.610,219.619 110.400 C 220.027 109.190,220.744 106.136,221.212 103.613 C 221.680 101.090,222.479 98.030,222.987 96.813 C 223.495 95.596,224.300 93.160,224.776 91.400 C 225.252 89.640,226.284 86.850,227.070 85.200 C 227.855 83.550,229.222 80.670,230.108 78.800 C 230.994 76.930,233.501 71.829,235.680 67.463 C 240.451 57.907,240.426 57.446,235.414 62.600 M255.148 395.337 C 255.393 395.632,255.475 395.992,255.330 396.137 C 255.185 396.282,255.367 396.400,255.733 396.400 C 256.518 396.400,256.592 395.952,255.920 395.280 C 255.262 394.622,254.595 394.671,255.148 395.337 M248.600 395.812 C 250.604 396.534,250.878 396.530,249.600 395.800 C 249.050 395.486,248.240 395.230,247.800 395.232 C 247.360 395.234,247.720 395.495,248.600 395.812 M252.105 396.687 C 252.714 396.779,253.614 396.777,254.105 396.682 C 254.597 396.587,254.100 396.511,253.000 396.514 C 251.900 396.517,251.497 396.595,252.105 396.687 M258.000 397.170 C 258.000 397.684,259.601 398.111,260.859 397.933 C 262.504 397.700,261.872 397.005,259.900 396.878 C 258.778 396.806,258.000 396.926,258.000 397.170 " stroke="none" fill="#faa61d" fill-rule="evenodd"></path></g></svg>