<svg id="svg" version="1.1" xmlns="http://www.w3.org/2000/svg" xmlns:xlink="http://www.w3.org/1999/xlink" width="400" height="400" viewBox="0, 0, 400,400"><g id="svgg"><path id="path0" d="M117.100 238.270 C 112.755 242.593,109.200 246.260,109.200 246.417 C 109.200 246.574,108.885 246.949,108.500 247.251 C 107.854 247.758,107.844 247.738,108.374 247.000 C 108.690 246.560,106.405 248.708,103.296 251.773 C 100.187 254.838,97.751 257.521,97.883 257.735 C 98.016 257.949,97.949 258.016,97.735 257.883 C 97.083 257.480,85.843 269.014,86.138 269.783 C 86.305 270.217,86.235 270.345,85.935 270.160 C 85.607 269.957,85.544 270.365,85.709 271.600 C 85.947 273.369,91.631 279.875,92.481 279.350 C 92.667 279.235,92.773 279.289,92.716 279.470 C 92.659 279.652,94.025 281.195,95.753 282.900 C 97.481 284.605,98.746 286.000,98.566 286.000 C 98.385 286.000,98.941 286.720,99.800 287.600 C 100.659 288.480,101.585 289.200,101.858 289.200 C 102.130 289.200,102.481 289.408,102.638 289.662 C 102.831 289.973,102.741 290.016,102.362 289.793 C 102.053 289.611,102.143 289.853,102.562 290.331 C 103.381 291.265,103.828 291.492,103.362 290.738 C 103.179 290.443,103.253 290.385,103.565 290.578 C 103.833 290.744,103.953 290.981,103.830 291.103 C 103.454 291.480,104.461 292.408,104.945 292.131 C 105.195 291.989,105.267 292.019,105.103 292.199 C 104.729 292.612,105.569 293.666,106.041 293.375 C 106.233 293.256,106.284 293.438,106.153 293.779 C 105.929 294.363,106.419 294.612,107.400 294.414 C 107.620 294.370,107.667 294.467,107.503 294.630 C 107.088 295.045,107.999 296.048,108.507 295.734 C 108.748 295.585,108.804 295.670,108.640 295.936 C 108.348 296.407,118.869 307.400,119.610 307.400 C 119.825 307.400,119.955 307.507,119.900 307.639 C 119.722 308.064,120.880 309.198,121.255 308.966 C 121.456 308.842,121.570 308.971,121.510 309.252 C 121.449 309.533,121.625 309.772,121.900 309.782 C 122.175 309.792,122.355 309.907,122.300 310.039 C 122.108 310.497,123.294 311.589,123.707 311.334 C 123.936 311.192,124.006 311.267,123.862 311.499 C 123.719 311.732,130.781 319.185,139.557 328.061 C 148.332 336.937,155.532 344.290,155.556 344.400 C 155.580 344.510,155.780 344.600,156.000 344.600 C 156.220 344.600,156.403 344.780,156.407 345.000 C 156.417 345.674,164.918 353.974,165.334 353.717 C 165.559 353.578,165.594 353.686,165.417 353.972 C 165.215 354.300,168.097 357.462,173.921 363.301 L 182.732 372.135 184.866 372.438 C 187.728 372.845,213.282 372.837,215.771 372.429 C 217.728 372.107,217.884 371.962,239.510 350.253 C 251.482 338.234,261.126 328.387,260.939 328.372 C 260.753 328.356,260.870 328.221,261.200 328.072 C 262.763 327.364,266.021 323.316,265.426 322.821 C 264.782 322.287,262.838 323.353,262.813 324.253 C 262.806 324.503,262.395 324.827,261.900 324.974 L 261.000 325.241 261.990 325.641 C 262.797 325.967,262.871 326.109,262.390 326.408 C 262.025 326.634,261.749 326.626,261.667 326.387 C 261.486 325.863,260.400 325.893,260.400 326.423 C 260.400 326.655,259.865 327.334,259.212 327.931 C 258.558 328.528,257.968 329.374,257.902 329.812 C 257.738 330.885,256.502 332.600,255.892 332.600 C 255.622 332.600,255.397 332.780,255.394 333.000 C 255.379 333.972,254.754 334.403,253.967 333.983 C 253.061 333.498,252.255 333.844,252.543 334.595 C 252.675 334.940,252.486 335.043,251.970 334.908 C 251.343 334.744,251.199 334.920,251.194 335.853 C 251.190 336.662,251.085 336.838,250.839 336.449 C 250.647 336.146,250.297 336.016,250.062 336.162 C 249.493 336.513,249.969 337.697,250.585 337.461 C 250.850 337.359,251.067 337.529,251.067 337.838 C 251.067 338.147,250.978 338.312,250.870 338.203 C 250.762 338.095,250.398 338.230,250.062 338.503 C 249.553 338.917,249.492 338.889,249.698 338.339 C 250.207 336.978,249.436 337.284,247.761 339.109 C 246.809 340.145,245.978 341.355,245.915 341.797 C 245.837 342.339,245.443 342.641,244.700 342.727 C 243.717 342.840,243.415 343.195,243.548 344.086 C 243.571 344.243,243.323 344.268,242.995 344.143 C 242.464 343.939,242.210 344.396,242.353 345.300 C 242.396 345.576,241.792 345.751,241.124 345.655 C 240.973 345.634,240.736 345.973,240.597 346.408 C 240.459 346.844,240.149 347.200,239.909 347.200 C 239.422 347.200,237.200 349.556,237.200 350.072 C 237.200 350.252,237.402 350.400,237.649 350.400 C 237.979 350.400,237.980 350.542,237.652 350.937 C 237.407 351.232,237.340 351.621,237.503 351.801 C 237.667 351.981,237.547 351.982,237.238 351.802 C 236.835 351.569,236.768 351.624,237.000 352.000 C 237.219 352.354,237.168 352.427,236.842 352.226 C 236.470 351.996,236.469 351.799,236.838 351.355 C 237.100 351.039,237.210 350.677,237.084 350.550 C 236.727 350.194,236.000 350.780,236.000 351.424 C 236.000 351.741,235.730 352.000,235.400 352.000 C 235.070 352.000,234.845 352.203,234.900 352.450 C 234.955 352.698,234.750 352.991,234.444 353.102 C 234.104 353.226,233.997 353.129,234.168 352.852 C 234.322 352.603,234.338 352.400,234.204 352.400 C 233.590 352.400,232.875 355.009,233.327 355.600 C 233.580 355.930,233.385 355.857,232.894 355.439 C 232.002 354.678,232.001 354.679,231.561 355.939 C 231.320 356.632,230.923 357.200,230.681 357.200 C 230.381 357.200,230.394 357.046,230.720 356.720 C 230.984 356.456,231.200 356.070,231.200 355.862 C 231.200 355.653,230.750 355.969,230.200 356.562 C 229.174 357.669,228.837 358.672,229.662 358.162 C 229.933 357.994,230.016 358.051,229.861 358.301 C 229.717 358.534,229.239 358.631,228.800 358.516 C 228.244 358.370,228.000 358.504,228.000 358.953 C 228.000 359.309,227.775 359.555,227.500 359.500 C 227.225 359.445,226.974 359.760,226.943 360.200 C 226.911 360.640,226.866 361.157,226.843 361.349 C 226.819 361.541,226.530 361.474,226.200 361.200 C 225.712 360.795,225.600 360.815,225.600 361.308 C 225.600 361.642,225.330 362.018,225.000 362.145 C 224.208 362.449,224.226 363.600,225.024 363.600 C 225.367 363.600,225.529 363.792,225.384 364.026 C 225.210 364.308,224.883 364.237,224.418 363.816 C 223.709 363.175,222.968 363.536,222.808 364.600 C 222.775 364.820,222.492 364.948,222.180 364.884 C 221.814 364.809,221.697 364.986,221.849 365.384 C 222.016 365.819,221.837 366.000,221.243 366.000 C 220.489 366.000,220.211 366.405,220.353 367.300 C 220.379 367.465,220.158 367.600,219.862 367.600 C 219.129 367.600,217.863 369.055,218.167 369.547 C 218.302 369.766,218.202 370.075,217.945 370.234 C 217.652 370.415,217.584 370.350,217.762 370.062 C 217.952 369.755,217.671 369.600,216.924 369.599 C 215.695 369.599,208.192 362.171,165.400 318.590 C 153.960 306.938,139.321 292.058,132.870 285.521 C 123.426 275.953,121.165 273.457,121.270 272.718 L 121.400 271.800 148.600 271.588 C 163.560 271.471,176.237 271.250,176.770 271.097 C 177.320 270.939,177.974 271.013,178.280 271.266 C 178.702 271.616,178.764 271.572,178.569 271.063 C 178.336 270.457,179.880 268.604,184.163 264.349 C 184.803 263.713,185.237 263.104,185.129 262.996 C 185.020 262.887,184.208 263.564,183.323 264.499 C 179.826 268.196,178.204 269.407,178.500 268.100 C 179.180 265.103,176.676 264.316,166.858 264.443 C 162.756 264.496,152.965 264.485,145.100 264.419 C 136.667 264.349,130.800 264.450,130.800 264.665 C 130.800 264.866,130.440 265.057,130.000 265.090 C 128.397 265.211,130.537 261.563,134.505 257.412 C 139.509 252.178,141.380 249.454,138.131 252.132 C 136.088 253.816,132.429 253.284,131.891 251.225 C 131.785 250.821,130.528 249.923,129.051 249.195 C 127.593 248.477,126.400 247.744,126.400 247.565 C 126.400 247.169,119.933 243.759,119.470 243.911 C 119.289 243.971,119.255 243.835,119.394 243.610 C 119.533 243.384,119.457 243.178,119.224 243.150 C 118.991 243.123,118.613 243.078,118.385 243.050 C 116.951 242.877,117.276 241.273,119.200 239.038 C 119.750 238.399,119.930 238.023,119.600 238.202 C 119.270 238.382,119.133 238.381,119.297 238.201 C 119.460 238.021,119.370 237.601,119.097 237.267 C 118.770 236.867,119.005 236.923,119.785 237.430 C 120.436 237.854,120.838 237.988,120.679 237.729 C 120.504 237.446,120.702 237.158,121.174 237.008 C 121.606 236.871,122.061 236.437,122.186 236.044 C 122.311 235.650,122.860 235.089,123.407 234.796 C 123.953 234.504,124.400 234.108,124.400 233.916 C 124.400 233.724,124.762 233.178,125.205 232.702 C 125.907 231.949,125.931 231.793,125.397 231.494 C 125.059 231.305,124.888 230.982,125.015 230.775 C 125.556 229.900,124.609 230.797,117.100 238.270 M124.800 232.067 C 124.800 232.543,124.686 232.820,124.547 232.681 C 124.002 232.136,122.874 233.197,123.044 234.095 C 123.203 234.927,123.187 234.935,122.854 234.200 C 122.517 233.456,122.472 233.476,122.202 234.500 C 122.018 235.202,121.644 235.600,121.169 235.600 C 120.685 235.600,120.503 235.802,120.647 236.178 C 120.800 236.578,120.610 236.736,120.030 236.692 C 119.335 236.640,119.653 236.163,121.885 233.915 C 124.953 230.823,124.800 230.920,124.800 232.067 M118.000 238.200 C 117.483 238.750,117.209 239.200,117.390 239.200 C 117.860 239.200,115.082 241.797,114.600 241.809 C 114.380 241.814,114.259 242.153,114.330 242.563 C 114.422 243.088,114.282 243.240,113.859 243.078 C 113.173 242.815,112.255 243.706,112.703 244.201 C 112.867 244.381,112.795 244.411,112.544 244.268 C 112.293 244.124,111.794 244.455,111.435 245.003 C 111.075 245.552,110.564 246.000,110.298 246.000 C 110.031 246.000,111.788 244.020,114.200 241.600 C 116.612 239.180,118.666 237.200,118.763 237.200 C 118.860 237.200,118.517 237.650,118.000 238.200 M104.000 251.725 C 104.000 251.794,103.415 252.379,102.700 253.025 L 101.400 254.200 102.575 252.900 C 103.670 251.688,104.000 251.416,104.000 251.725 M92.267 263.771 C 92.015 264.305,91.726 264.660,91.626 264.560 C 91.526 264.459,90.264 265.507,88.822 266.888 C 86.807 268.818,86.938 268.635,89.391 266.099 C 91.145 264.285,92.614 262.800,92.653 262.800 C 92.692 262.800,92.519 263.237,92.267 263.771 M178.400 269.327 C 178.400 270.002,176.901 270.886,176.595 270.392 C 176.462 270.176,176.653 270.000,177.019 270.000 C 177.427 270.000,177.602 269.782,177.470 269.439 C 177.352 269.131,177.358 268.776,177.483 268.650 C 177.810 268.324,178.400 268.760,178.400 269.327 M179.739 272.732 C 180.103 273.135,180.311 273.585,180.201 273.732 C 180.090 273.880,180.123 273.907,180.274 273.793 C 180.424 273.679,181.189 274.173,181.974 274.890 C 182.758 275.607,182.507 275.251,181.415 274.097 C 179.589 272.168,178.217 271.051,179.739 272.732 M183.600 276.525 C 183.600 276.594,184.185 277.179,184.900 277.825 L 186.200 279.000 185.025 277.700 C 183.930 276.488,183.600 276.216,183.600 276.525 M199.432 291.948 C 199.309 292.147,199.477 292.532,199.804 292.804 C 200.289 293.206,200.400 293.181,200.400 292.673 C 200.400 291.926,199.748 291.438,199.432 291.948 M203.753 296.076 C 203.591 296.338,203.671 296.624,203.932 296.711 C 204.192 296.797,204.316 297.013,204.206 297.190 C 204.097 297.366,205.941 299.383,208.304 301.671 C 210.667 303.959,214.817 308.119,217.526 310.916 C 223.341 316.918,224.195 317.050,226.636 312.330 C 226.958 311.708,227.375 311.200,227.564 311.200 C 227.752 311.200,227.998 310.852,228.109 310.426 C 228.321 309.615,227.729 309.200,226.358 309.200 C 225.931 309.200,224.821 308.506,223.891 307.658 C 222.177 306.096,221.881 305.912,217.730 303.834 C 216.448 303.192,214.860 302.277,214.200 301.800 C 213.540 301.323,211.817 300.276,210.371 299.472 C 208.925 298.668,207.247 297.456,206.644 296.778 C 205.701 295.720,205.455 295.621,204.896 296.073 C 204.421 296.459,204.327 296.466,204.547 296.100 C 204.712 295.825,204.667 295.600,204.447 295.600 C 204.227 295.600,203.915 295.814,203.753 296.076 M129.600 316.731 C 129.710 316.828,129.440 316.718,129.000 316.485 C 128.560 316.252,127.390 315.198,126.400 314.143 L 124.600 312.225 127.000 314.389 C 128.320 315.579,129.490 316.633,129.600 316.731 M265.600 323.388 C 265.600 323.418,264.933 324.063,264.117 324.822 C 263.302 325.580,262.874 325.885,263.166 325.500 C 263.459 325.115,263.558 324.800,263.387 324.800 C 263.216 324.800,263.375 324.470,263.740 324.067 C 264.244 323.510,265.600 323.015,265.600 323.388 M256.400 330.200 C 255.984 330.701,256.040 330.800,256.738 330.800 C 257.318 330.800,257.504 330.615,257.345 330.200 C 257.218 329.870,257.066 329.600,257.006 329.600 C 256.947 329.600,256.674 329.870,256.400 330.200 M254.054 332.934 C 253.681 333.384,253.707 333.555,254.177 333.736 C 254.904 334.015,255.260 333.544,254.838 332.862 C 254.597 332.471,254.426 332.487,254.054 332.934 M250.800 338.514 C 250.800 339.164,246.561 342.675,246.515 342.062 C 246.450 341.207,249.001 338.630,249.567 338.979 C 249.775 339.108,250.058 339.030,250.196 338.807 C 250.428 338.430,250.800 338.250,250.800 338.514 M247.978 340.700 L 246.600 342.200 248.100 340.822 C 249.496 339.538,249.784 339.200,249.478 339.200 C 249.412 339.200,248.737 339.875,247.978 340.700 M161.200 349.400 C 163.281 351.490,164.894 353.200,164.784 353.200 C 164.674 353.200,162.881 351.490,160.800 349.400 C 158.719 347.310,157.106 345.600,157.216 345.600 C 157.326 345.600,159.119 347.310,161.200 349.400 M243.600 345.722 C 243.600 345.788,243.006 346.419,242.280 347.122 C 240.964 348.398,240.960 348.399,240.960 347.427 C 240.960 346.890,241.104 346.541,241.280 346.649 C 241.456 346.758,241.603 346.612,241.606 346.324 C 241.611 345.896,241.673 345.895,241.941 346.319 C 242.204 346.733,242.374 346.713,242.784 346.219 C 243.263 345.642,243.600 345.437,243.600 345.722 M239.467 349.393 C 239.467 349.719,239.018 350.394,238.469 350.893 C 237.920 351.392,237.631 351.530,237.826 351.200 C 238.021 350.870,238.131 350.300,238.070 349.933 C 238.010 349.564,238.282 349.183,238.680 349.079 C 239.076 348.977,239.415 348.872,239.433 348.846 C 239.452 348.821,239.467 349.067,239.467 349.393 M236.800 352.519 C 236.800 352.584,236.037 353.349,235.105 354.219 C 233.965 355.283,233.736 355.412,234.405 354.611 C 235.627 353.152,236.800 352.127,236.800 352.519 M229.613 359.787 C 227.538 361.870,225.777 363.511,225.699 363.433 C 225.496 363.229,232.522 356.121,232.992 356.055 C 233.208 356.025,231.687 357.704,229.613 359.787 M224.800 364.508 C 224.800 364.568,223.135 366.233,221.100 368.208 L 217.400 371.800 220.992 368.100 C 224.328 364.664,224.800 364.218,224.800 364.508 M180.400 369.000 C 181.595 370.210,182.483 371.200,182.373 371.200 C 182.263 371.200,181.195 370.210,180.000 369.000 C 178.805 367.790,177.917 366.800,178.027 366.800 C 178.137 366.800,179.205 367.790,180.400 369.000 " stroke="none" fill="#9e27d7" fill-rule="evenodd"></path><path id="path1" d="M140.486 188.201 C 141.523 189.279,142.433 190.080,142.507 189.981 C 142.581 189.881,141.733 188.999,140.621 188.020 L 138.600 186.240 140.486 188.201 M130.987 224.484 C 128.666 226.899,128.656 226.918,130.629 225.184 C 132.383 223.643,133.859 222.000,133.491 222.000 C 133.427 222.000,132.301 223.118,130.987 224.484 M123.003 232.704 C 120.144 235.727,118.119 237.953,118.503 237.651 C 118.886 237.349,119.214 237.169,119.231 237.251 C 119.485 238.490,119.408 238.850,118.761 239.436 C 118.342 239.814,118.000 240.271,118.000 240.451 C 118.000 240.630,118.596 240.197,119.325 239.489 C 120.053 238.780,120.588 238.119,120.512 238.021 C 120.437 237.922,120.786 237.595,121.287 237.293 C 122.007 236.861,122.031 236.802,121.400 237.017 C 120.162 237.438,119.801 237.434,119.788 237.000 C 119.782 236.780,120.031 236.659,120.342 236.730 C 120.715 236.815,120.826 236.644,120.667 236.230 C 120.500 235.796,120.656 235.600,121.169 235.600 C 121.644 235.600,122.018 235.202,122.202 234.500 C 122.466 233.498,122.518 233.471,122.791 234.200 C 122.968 234.671,122.908 235.121,122.645 235.294 C 122.362 235.481,122.439 235.590,122.857 235.594 C 123.219 235.597,123.622 235.321,123.753 234.979 C 123.884 234.638,123.833 234.456,123.641 234.575 C 123.448 234.694,123.197 234.431,123.082 233.990 C 122.871 233.186,124.024 232.157,124.547 232.681 C 124.686 232.820,124.800 232.563,124.800 232.110 C 124.800 231.657,125.627 230.367,126.637 229.243 C 130.070 225.425,128.219 227.188,123.003 232.704 M113.600 242.200 C 111.519 244.290,110.033 246.000,110.299 246.000 C 110.564 246.000,111.075 245.552,111.435 245.003 C 111.794 244.455,112.293 244.124,112.544 244.268 C 112.795 244.411,112.867 244.381,112.703 244.201 C 112.255 243.706,113.173 242.815,113.859 243.078 C 114.282 243.240,114.422 243.088,114.330 242.563 C 114.259 242.153,114.388 241.814,114.618 241.809 C 115.445 241.791,118.268 238.400,117.457 238.400 C 117.417 238.400,115.681 240.110,113.600 242.200 M203.144 249.475 C 203.599 250.302,209.200 255.907,209.200 255.535 C 209.200 255.402,207.748 253.820,205.972 252.021 C 204.197 250.222,202.925 249.076,203.144 249.475 M130.709 250.016 C 131.210 250.217,131.783 250.790,131.984 251.291 C 132.219 251.876,132.358 251.973,132.375 251.562 C 132.405 250.793,131.159 249.590,130.369 249.625 C 130.056 249.639,130.209 249.815,130.709 250.016 M210.773 257.328 C 211.528 258.131,212.221 258.713,212.313 258.621 C 212.600 258.333,212.025 257.671,210.688 256.752 L 209.400 255.867 210.773 257.328 M212.800 259.142 C 212.800 259.326,213.160 259.802,213.600 260.200 C 214.040 260.598,214.400 260.756,214.400 260.551 C 214.400 260.346,214.040 259.870,213.600 259.493 C 213.160 259.116,212.800 258.958,212.800 259.142 M90.981 264.495 C 90.112 265.427,89.863 265.785,90.430 265.291 C 90.996 264.797,91.538 264.471,91.634 264.567 C 91.730 264.663,92.015 264.305,92.267 263.771 C 92.870 262.492,92.827 262.516,90.981 264.495 M87.375 268.100 L 86.200 269.400 87.500 268.225 C 88.712 267.130,88.984 266.800,88.675 266.800 C 88.606 266.800,88.021 267.385,87.375 268.100 M277.000 270.679 C 274.580 270.744,272.167 270.898,271.637 271.022 C 270.648 271.253,268.849 272.918,254.000 287.347 C 244.925 296.165,231.479 308.400,230.863 308.400 C 230.662 308.400,230.295 308.645,230.046 308.944 C 229.798 309.243,229.101 309.422,228.497 309.342 C 227.894 309.262,227.606 309.296,227.858 309.417 C 228.363 309.662,228.109 311.200,227.564 311.200 C 227.375 311.200,226.958 311.708,226.636 312.330 C 224.195 317.050,223.341 316.918,217.526 310.916 C 214.817 308.119,210.667 303.959,208.304 301.671 C 205.941 299.383,204.097 297.366,204.206 297.190 C 204.316 297.013,204.192 296.797,203.932 296.711 C 203.398 296.533,203.831 295.600,204.447 295.600 C 204.667 295.600,204.719 295.808,204.562 296.062 C 204.385 296.348,204.452 296.415,204.738 296.238 C 204.992 296.081,205.200 295.804,205.200 295.623 C 205.200 295.107,203.246 294.863,203.072 295.358 C 202.976 295.631,202.587 295.507,202.054 295.034 L 201.191 294.268 201.995 293.518 C 203.157 292.436,202.985 292.197,201.746 293.171 C 200.682 294.008,199.918 294.253,200.097 293.700 C 200.273 293.154,199.012 291.778,198.300 291.739 C 196.770 291.654,196.675 291.579,197.418 291.036 C 198.289 290.399,197.265 288.647,196.250 289.036 C 195.989 289.136,195.167 288.591,194.424 287.825 C 193.681 287.058,192.934 286.517,192.764 286.622 C 192.594 286.727,192.325 286.602,192.166 286.345 C 191.975 286.035,192.051 285.984,192.390 286.194 C 192.735 286.407,192.837 286.328,192.702 285.956 C 192.591 285.650,192.319 285.438,192.097 285.484 C 191.875 285.531,191.718 285.263,191.747 284.889 C 191.776 284.515,191.395 284.029,190.900 283.809 C 190.405 283.590,190.000 283.223,190.000 282.995 C 190.000 282.766,189.100 281.706,188.000 280.639 C 186.900 279.572,186.000 278.818,186.000 278.963 C 186.000 279.109,185.460 278.675,184.800 278.000 C 184.140 277.325,183.600 276.644,183.599 276.486 C 183.599 276.329,182.793 275.660,181.808 275.000 C 180.823 274.340,180.014 273.594,180.009 273.343 C 179.997 272.711,178.993 272.383,178.452 272.835 C 178.207 273.039,178.094 273.087,178.200 272.940 C 178.306 272.794,178.170 272.397,177.897 272.060 C 177.500 271.571,177.501 271.507,177.900 271.747 C 178.175 271.912,178.400 271.857,178.400 271.624 C 178.400 271.391,178.130 271.200,177.800 271.200 C 177.470 271.200,177.200 271.335,177.200 271.500 C 177.200 271.665,164.645 271.800,149.300 271.800 L 121.400 271.800 121.270 272.718 C 121.165 273.457,123.426 275.953,132.870 285.521 C 139.321 292.058,153.960 306.938,165.400 318.590 C 208.192 362.171,215.695 369.599,216.924 369.599 C 217.671 369.600,217.952 369.755,217.762 370.062 C 217.584 370.350,217.652 370.415,217.945 370.234 C 218.202 370.075,218.302 369.766,218.167 369.547 C 217.863 369.055,219.129 367.600,219.862 367.600 C 220.158 367.600,220.379 367.465,220.353 367.300 C 220.211 366.405,220.489 366.000,221.243 366.000 C 221.837 366.000,222.016 365.819,221.849 365.384 C 221.686 364.958,221.824 364.804,222.297 364.884 C 222.674 364.948,222.989 364.820,222.997 364.600 C 223.005 364.380,223.161 363.966,223.342 363.681 C 223.761 363.020,224.920 363.854,224.543 364.545 C 224.406 364.795,226.568 362.753,229.347 360.006 C 233.870 355.536,235.462 353.820,233.836 355.170 C 233.525 355.428,233.181 355.493,233.071 355.315 C 232.844 354.947,233.834 352.400,234.204 352.400 C 234.338 352.400,234.322 352.603,234.168 352.852 C 233.997 353.129,234.104 353.226,234.444 353.102 C 234.750 352.991,234.955 352.697,234.900 352.450 C 234.845 352.202,235.070 352.000,235.400 352.000 C 235.730 352.000,236.000 351.741,236.000 351.424 C 236.000 350.780,236.727 350.194,237.084 350.550 C 237.210 350.677,237.063 351.100,236.757 351.490 C 236.262 352.120,236.271 352.144,236.837 351.703 C 237.187 351.430,237.607 351.340,237.770 351.503 C 237.933 351.667,238.007 351.538,237.933 351.218 C 237.860 350.898,238.010 350.628,238.267 350.618 C 238.866 350.595,239.335 350.121,239.436 349.437 C 239.487 349.091,239.243 348.968,238.757 349.095 C 238.341 349.204,238.000 349.542,238.000 349.847 C 238.000 350.151,237.820 350.400,237.600 350.400 C 237.380 350.400,237.200 350.252,237.200 350.072 C 237.200 349.556,239.422 347.200,239.909 347.200 C 240.149 347.200,240.459 346.844,240.597 346.408 C 240.736 345.973,240.973 345.634,241.124 345.655 C 241.792 345.751,242.396 345.576,242.353 345.300 C 242.210 344.396,242.464 343.939,242.995 344.143 C 243.323 344.268,243.571 344.243,243.548 344.086 C 243.415 343.195,243.717 342.840,244.700 342.727 C 245.443 342.641,245.837 342.339,245.915 341.797 C 246.063 340.769,249.458 337.047,249.777 337.564 C 249.910 337.778,249.249 338.692,248.309 339.594 C 246.865 340.981,245.763 343.241,246.862 342.562 C 247.055 342.442,247.117 342.190,247.000 342.000 C 246.775 341.636,247.523 341.016,248.200 341.006 C 248.420 341.003,248.608 340.730,248.618 340.400 C 248.628 340.070,248.853 339.845,249.118 339.900 C 249.383 339.955,249.555 339.783,249.500 339.518 C 249.445 339.253,249.610 339.028,249.867 339.018 C 250.472 338.995,250.936 338.520,251.039 337.816 C 251.084 337.508,250.892 337.343,250.612 337.451 C 249.978 337.694,249.478 336.523,250.062 336.162 C 250.297 336.016,250.647 336.146,250.839 336.449 C 251.085 336.838,251.190 336.662,251.194 335.853 C 251.199 334.920,251.343 334.744,251.970 334.908 C 252.486 335.043,252.675 334.940,252.543 334.595 C 252.246 333.820,253.067 333.507,254.092 334.004 C 254.899 334.395,254.924 334.383,254.314 333.888 C 253.804 333.475,253.744 333.216,254.080 332.880 C 254.416 332.544,254.653 332.594,255.005 333.075 C 255.381 333.589,255.544 333.614,255.801 333.199 C 256.031 332.827,255.962 332.767,255.562 332.991 C 255.253 333.164,255.614 332.775,256.364 332.127 C 257.114 331.478,257.795 330.513,257.876 329.982 C 257.957 329.451,258.558 328.528,259.212 327.931 C 259.865 327.334,260.400 326.655,260.400 326.423 C 260.400 326.190,260.670 326.000,261.000 326.000 C 261.330 326.000,261.600 326.191,261.600 326.424 C 261.600 326.657,261.780 326.736,262.000 326.600 C 262.618 326.218,262.474 325.679,261.700 325.472 C 261.107 325.313,261.138 325.241,261.900 324.996 C 262.395 324.837,262.806 324.503,262.813 324.253 C 262.830 323.635,264.718 322.302,265.176 322.585 C 265.379 322.710,265.658 322.630,265.796 322.407 C 265.934 322.183,265.857 322.000,265.624 322.000 C 265.391 322.000,265.200 321.640,265.200 321.200 C 265.200 320.249,265.708 320.167,266.404 321.005 C 267.248 322.022,268.095 320.954,267.811 319.231 C 267.576 317.806,267.617 317.758,278.339 307.072 C 284.259 301.172,289.259 295.997,289.451 295.571 C 289.643 295.146,294.795 289.677,300.900 283.417 C 312.346 271.682,312.500 271.496,311.262 270.833 C 310.582 270.469,288.505 270.370,277.000 270.679 M216.100 278.209 C 214.725 279.619,213.600 280.874,213.600 280.998 C 213.600 281.492,216.097 279.336,217.626 277.523 C 219.934 274.786,219.050 275.184,216.100 278.209 M207.171 287.136 C 203.251 291.097,202.999 291.437,203.693 291.836 C 203.972 291.997,204.067 291.981,203.903 291.801 C 203.740 291.621,203.807 291.232,204.052 290.937 C 204.597 290.281,205.360 290.218,204.962 290.862 C 204.784 291.150,204.852 291.215,205.145 291.034 C 205.402 290.875,205.509 290.576,205.381 290.369 C 205.134 289.969,209.473 285.200,210.084 285.200 C 210.284 285.200,210.319 285.408,210.162 285.662 C 209.984 285.950,210.052 286.015,210.345 285.834 C 210.602 285.675,210.721 285.396,210.609 285.214 C 210.496 285.033,210.685 284.776,211.028 284.645 C 211.611 284.421,211.481 283.557,210.876 283.636 C 210.724 283.656,209.057 285.231,207.171 287.136 M288.774 300.106 C 287.990 300.818,287.001 301.850,286.575 302.400 C 286.149 302.950,286.836 302.411,288.101 301.203 C 289.365 299.995,290.400 298.960,290.400 298.903 C 290.400 298.674,290.139 298.867,288.774 300.106 M283.000 305.952 C 282.340 306.573,281.082 307.873,280.204 308.840 C 279.326 309.808,279.911 309.345,281.504 307.811 C 283.097 306.277,284.400 304.972,284.400 304.911 C 284.400 304.681,284.167 304.854,283.000 305.952 M277.000 311.746 C 275.819 313.118,275.596 313.661,276.603 312.712 C 277.238 312.114,277.677 311.547,277.579 311.452 C 277.480 311.358,277.220 311.490,277.000 311.746 M126.383 314.100 C 128.041 315.866,128.400 316.184,128.400 315.883 C 128.400 315.819,127.545 314.964,126.500 313.983 L 124.600 312.200 126.383 314.100 M263.967 323.840 C 263.097 324.888,263.095 325.819,263.964 325.033 C 264.350 324.683,264.667 324.127,264.667 323.798 C 264.667 323.050,264.620 323.053,263.967 323.840 M257.345 330.200 C 257.504 330.615,257.318 330.800,256.738 330.800 C 256.040 330.800,255.984 330.701,256.400 330.200 C 256.674 329.870,256.947 329.600,257.006 329.600 C 257.066 329.600,257.218 329.870,257.345 330.200 M242.784 346.219 C 242.374 346.713,242.204 346.733,241.941 346.319 C 241.673 345.895,241.611 345.896,241.606 346.324 C 241.603 346.612,241.456 346.758,241.280 346.649 C 241.104 346.541,240.960 346.890,240.960 347.427 C 240.960 348.399,240.964 348.398,242.280 347.122 C 243.006 346.419,243.600 345.788,243.600 345.722 C 243.600 345.437,243.263 345.642,242.784 346.219 M161.200 349.725 C 161.200 349.794,161.785 350.379,162.500 351.025 L 163.800 352.200 162.625 350.900 C 161.530 349.688,161.200 349.416,161.200 349.725 M229.243 359.655 C 227.059 361.825,225.076 363.600,224.836 363.600 C 224.179 363.600,224.313 362.408,225.000 362.145 C 225.330 362.018,225.600 361.642,225.600 361.308 C 225.600 360.815,225.712 360.795,226.200 361.200 C 226.530 361.474,226.819 361.541,226.843 361.349 C 226.866 361.157,226.911 360.640,226.943 360.200 C 226.974 359.760,227.225 359.445,227.500 359.500 C 227.775 359.555,228.000 359.309,228.000 358.953 C 228.000 358.504,228.244 358.370,228.800 358.516 C 229.239 358.631,229.717 358.534,229.861 358.301 C 230.016 358.051,229.933 357.994,229.662 358.162 C 228.837 358.672,229.174 357.669,230.200 356.562 C 230.750 355.969,231.200 355.653,231.200 355.862 C 231.200 356.070,230.984 356.456,230.720 356.720 C 230.394 357.046,230.381 357.200,230.681 357.200 C 230.923 357.200,231.318 356.637,231.558 355.949 C 231.928 354.888,232.087 354.774,232.604 355.203 C 233.129 355.639,232.663 356.256,229.243 359.655 M220.189 368.900 L 217.400 371.800 220.300 369.011 C 222.994 366.420,223.383 366.000,223.089 366.000 C 223.028 366.000,221.723 367.305,220.189 368.900 " stroke="none" fill="#c177ed" fill-rule="evenodd"></path><path id="path2" d="M183.000 31.591 C 182.035 32.001,174.818 39.233,174.807 39.800 C 174.803 40.020,174.575 40.208,174.300 40.218 C 174.025 40.228,173.860 40.498,173.933 40.818 C 174.007 41.138,173.927 41.261,173.757 41.090 C 173.411 40.745,169.600 44.326,169.600 44.996 C 169.600 45.337,167.367 47.600,167.030 47.600 C 166.774 47.600,163.200 51.234,163.202 51.493 C 163.204 51.662,161.885 53.060,160.272 54.600 C 158.659 56.140,157.893 56.954,158.570 56.409 C 159.246 55.864,158.094 57.169,156.008 59.309 C 152.344 63.068,150.618 64.567,153.023 61.900 C 153.872 60.958,153.727 61.036,152.497 62.181 C 150.889 63.679,150.373 64.311,151.151 63.831 C 151.343 63.711,149.004 66.072,145.952 69.075 C 142.900 72.079,140.466 74.599,140.543 74.676 C 140.619 74.753,136.937 78.533,132.360 83.077 C 127.784 87.621,124.148 91.516,124.281 91.731 C 124.415 91.947,124.347 92.014,124.131 91.881 C 123.914 91.747,122.672 92.750,121.369 94.110 C 120.066 95.469,119.540 96.137,120.200 95.593 C 120.860 95.050,120.327 95.684,119.015 97.003 C 117.703 98.321,116.533 99.405,116.415 99.412 C 115.939 99.438,102.239 113.657,102.158 114.209 C 102.110 114.536,102.237 114.701,102.442 114.574 C 102.646 114.448,102.692 114.149,102.545 113.911 C 102.381 113.645,102.463 113.592,102.758 113.774 C 103.386 114.162,102.586 115.197,101.651 115.206 C 101.137 115.211,101.113 115.284,101.539 115.554 C 101.934 115.804,101.747 116.010,100.839 116.327 C 99.956 116.634,99.600 117.013,99.600 117.646 C 99.600 118.134,99.489 118.422,99.352 118.286 C 99.045 117.978,98.247 118.758,97.880 119.725 C 97.729 120.124,97.424 120.339,97.203 120.202 C 96.981 120.065,96.800 120.214,96.800 120.533 C 96.800 120.852,96.343 121.228,95.784 121.368 C 95.225 121.509,94.863 121.778,94.979 121.966 C 95.096 122.155,94.889 122.555,94.519 122.855 C 93.944 123.321,93.897 123.316,94.195 122.821 C 94.685 122.010,92.426 123.672,91.200 125.025 C 90.650 125.632,90.425 125.999,90.700 125.841 C 90.975 125.682,91.200 125.754,91.200 126.000 C 91.200 126.246,91.408 126.319,91.662 126.162 C 91.926 125.998,92.016 126.051,91.872 126.284 C 91.733 126.509,91.184 126.644,90.652 126.586 C 89.775 126.490,86.390 129.259,86.700 129.819 C 86.988 130.340,86.736 130.811,86.300 130.565 C 85.921 130.351,85.911 130.403,86.257 130.778 C 86.601 131.151,86.581 131.530,86.178 132.308 C 85.615 133.393,85.849 134.481,86.444 133.543 C 86.697 133.143,86.789 133.132,86.794 133.500 C 86.797 133.775,86.991 134.000,87.224 134.000 C 87.457 134.000,87.519 133.792,87.362 133.538 C 87.184 133.250,87.252 133.185,87.545 133.366 C 88.167 133.750,87.671 134.513,86.972 134.245 C 86.109 133.913,85.894 134.715,86.728 135.161 C 87.233 135.432,87.612 135.428,87.889 135.151 C 88.171 134.869,88.285 135.032,88.250 135.670 C 88.209 136.426,88.398 136.596,89.257 136.579 C 89.963 136.566,90.248 136.731,90.115 137.077 C 90.006 137.362,89.727 137.479,89.496 137.336 C 89.249 137.183,89.195 137.269,89.366 137.545 C 89.525 137.802,89.795 137.927,89.966 137.821 C 90.414 137.544,92.471 139.795,92.106 140.161 C 91.938 140.329,91.980 140.423,92.200 140.370 C 92.792 140.226,94.000 140.828,94.000 141.266 C 94.000 141.476,93.775 141.534,93.500 141.395 C 93.225 141.256,93.530 141.594,94.177 142.147 C 94.824 142.700,95.527 143.045,95.739 142.914 C 95.950 142.783,96.012 142.857,95.876 143.077 C 95.740 143.297,96.162 143.989,96.814 144.614 C 97.466 145.238,98.000 145.951,98.000 146.196 C 98.000 146.794,100.578 149.270,100.926 149.007 C 101.077 148.893,101.110 148.920,100.999 149.068 C 100.710 149.453,102.021 150.800,102.686 150.800 C 103.028 150.800,103.130 150.995,102.947 151.300 C 102.772 151.591,102.961 151.550,103.400 151.200 C 103.814 150.870,104.031 150.804,103.882 151.054 C 103.722 151.321,104.064 151.695,104.716 151.965 C 105.324 152.217,106.066 152.823,106.364 153.312 C 106.873 154.147,106.837 154.141,105.753 153.207 C 105.119 152.660,105.402 153.065,106.383 154.107 C 107.364 155.148,108.329 156.000,108.528 156.000 C 108.726 156.000,108.464 155.629,107.944 155.176 L 107.000 154.353 108.097 155.020 C 108.700 155.387,109.095 155.845,108.976 156.039 C 108.589 156.666,110.193 157.994,111.122 157.815 C 111.745 157.695,112.002 157.842,112.006 158.323 C 112.011 158.906,112.066 158.917,112.400 158.400 C 112.800 157.781,113.024 158.317,112.819 159.400 C 112.777 159.620,112.958 159.589,113.221 159.330 C 113.807 158.755,114.810 159.509,114.507 160.298 C 114.401 160.575,114.609 160.800,114.973 160.800 C 115.516 160.800,115.541 160.898,115.116 161.358 C 114.676 161.835,114.566 161.825,114.372 161.292 C 114.246 160.949,113.824 160.621,113.434 160.564 C 112.987 160.498,113.589 161.381,115.063 162.954 C 116.410 164.391,117.686 165.407,118.074 165.352 C 118.445 165.299,118.985 165.548,119.274 165.905 C 119.720 166.455,119.709 166.501,119.200 166.208 C 118.773 165.962,118.802 166.094,119.301 166.664 C 119.686 167.104,119.866 167.600,119.701 167.766 C 119.535 167.931,119.662 168.007,119.982 167.933 C 120.302 167.860,120.573 168.070,120.584 168.400 C 120.596 168.765,120.958 168.981,121.508 168.952 C 122.231 168.913,122.321 169.013,121.957 169.452 C 121.707 169.753,121.614 170.023,121.751 170.050 C 121.888 170.078,122.135 170.125,122.300 170.156 C 123.038 170.294,123.590 170.893,123.345 171.289 C 123.183 171.551,123.263 171.608,123.545 171.434 C 123.802 171.275,123.920 170.994,123.806 170.810 C 123.692 170.626,124.048 170.683,124.596 170.937 C 125.205 171.220,125.595 171.735,125.597 172.260 C 125.599 172.800,126.708 174.204,128.579 176.032 C 130.218 177.634,131.449 179.137,131.315 179.372 C 131.181 179.607,131.219 179.667,131.399 179.503 C 131.860 179.086,132.846 179.994,132.531 180.545 C 132.389 180.795,132.418 180.868,132.596 180.707 C 132.774 180.545,133.344 180.870,133.862 181.429 C 134.389 181.997,135.006 182.320,135.264 182.161 C 135.548 181.985,135.615 182.053,135.438 182.338 C 135.281 182.592,135.331 182.800,135.549 182.800 C 135.768 182.800,136.060 182.440,136.200 182.000 C 136.340 181.560,136.577 181.186,136.727 181.169 C 136.877 181.153,137.315 181.078,137.700 181.005 C 138.085 180.931,138.400 181.023,138.400 181.208 C 138.400 181.394,138.763 181.661,139.206 181.802 C 139.649 181.943,139.908 182.225,139.782 182.429 C 139.656 182.633,139.853 182.800,140.219 182.800 C 140.645 182.800,140.803 183.015,140.657 183.395 C 140.532 183.723,140.591 183.948,140.789 183.895 C 140.987 183.843,141.656 184.395,142.275 185.122 C 142.894 185.849,143.793 186.471,144.272 186.505 C 144.752 186.539,145.048 186.722,144.930 186.914 C 144.688 187.305,146.416 189.055,146.892 188.900 C 147.062 188.845,147.200 188.992,147.200 189.227 C 147.200 189.480,147.546 189.544,148.050 189.384 C 148.622 189.203,148.811 189.259,148.626 189.557 C 148.476 189.801,148.551 190.000,148.794 190.000 C 149.036 190.000,150.109 190.818,151.177 191.818 C 152.790 193.326,153.298 193.591,154.164 193.373 C 155.032 193.155,155.479 193.391,156.818 194.771 C 157.813 195.797,160.103 197.282,162.814 198.660 C 165.226 199.887,167.200 201.032,167.200 201.204 C 167.200 201.377,168.505 202.153,170.100 202.930 C 171.695 203.706,173.523 204.908,174.162 205.600 C 174.801 206.293,176.441 207.387,177.807 208.033 C 179.172 208.678,180.773 209.654,181.364 210.202 C 182.380 211.144,185.537 212.800,186.316 212.800 C 186.514 212.800,187.019 213.179,187.438 213.643 C 187.857 214.106,188.842 214.813,189.627 215.213 C 190.411 215.614,191.294 216.231,191.587 216.585 C 191.881 216.938,193.962 218.118,196.212 219.206 C 198.779 220.447,200.759 221.703,201.527 222.578 C 202.201 223.345,203.214 224.089,203.780 224.231 C 204.345 224.373,204.908 224.651,205.031 224.850 C 205.154 225.049,205.837 225.456,206.550 225.753 C 207.262 226.051,208.356 226.768,208.981 227.347 C 209.606 227.926,210.553 228.400,211.087 228.400 C 212.068 228.400,213.200 229.219,213.200 229.929 C 213.200 230.408,214.176 230.800,215.371 230.800 C 215.869 230.800,216.619 231.179,217.038 231.643 C 217.457 232.106,218.442 232.813,219.227 233.213 C 220.011 233.614,220.896 234.234,221.192 234.591 C 221.489 234.948,223.052 235.884,224.666 236.671 C 226.279 237.458,227.600 238.255,227.600 238.443 C 227.600 238.630,228.313 239.148,229.185 239.592 C 230.056 240.037,231.091 240.746,231.485 241.168 C 231.878 241.590,232.688 242.058,233.285 242.207 C 233.882 242.357,234.789 242.898,235.301 243.410 C 235.813 243.922,237.935 245.217,240.016 246.287 C 242.097 247.357,244.160 248.541,244.600 248.918 C 245.572 249.751,250.400 252.071,250.400 251.705 C 250.400 251.561,248.547 249.544,246.283 247.222 C 244.019 244.900,241.544 242.196,240.783 241.214 C 240.022 240.231,238.365 238.346,237.099 237.025 C 235.833 235.704,234.696 234.303,234.572 233.912 C 234.448 233.520,234.148 233.200,233.906 233.200 C 233.665 233.200,233.585 233.082,233.730 232.937 C 233.875 232.792,233.793 232.432,233.548 232.137 C 233.303 231.842,233.220 231.600,233.365 231.600 C 233.510 231.600,233.445 231.258,233.221 230.840 C 232.913 230.265,232.959 230.025,233.407 229.853 C 233.733 229.727,234.004 229.394,234.008 229.113 C 234.013 228.831,235.363 227.263,237.008 225.629 C 239.240 223.412,240.000 222.386,240.000 221.591 C 240.000 220.158,241.063 219.286,243.000 219.130 C 244.441 219.013,244.613 218.882,244.735 217.814 C 244.809 217.161,245.301 216.227,245.828 215.739 C 246.355 215.251,247.079 214.118,247.438 213.222 C 247.912 212.037,248.377 211.530,249.145 211.363 C 250.984 210.962,251.090 210.887,251.291 209.835 C 251.409 209.219,251.259 208.615,250.917 208.331 C 250.435 207.931,250.490 207.777,251.273 207.343 C 252.526 206.648,252.673 206.672,252.919 207.611 C 253.036 208.058,253.282 208.396,253.466 208.364 C 254.508 208.181,255.002 208.411,254.400 208.800 C 253.917 209.112,253.981 209.189,254.724 209.194 C 255.238 209.197,255.537 209.378,255.400 209.601 C 255.263 209.821,255.590 210.168,256.125 210.372 C 256.669 210.578,257.213 211.195,257.357 211.771 C 257.608 212.770,258.400 213.230,258.400 212.376 C 258.400 212.143,258.615 212.086,258.879 212.249 C 259.828 212.835,257.577 210.065,256.106 208.835 C 255.278 208.143,254.483 207.447,254.340 207.288 C 251.459 204.099,250.385 203.159,249.926 203.425 C 249.637 203.592,249.537 203.578,249.704 203.394 C 250.029 203.035,248.509 201.200,247.886 201.200 C 247.680 201.200,247.936 201.565,248.456 202.012 L 249.400 202.824 247.888 202.012 C 247.056 201.565,245.891 201.200,245.299 201.200 C 244.128 201.200,241.380 198.512,215.666 172.216 C 201.526 157.757,201.497 157.717,203.795 155.730 C 207.864 152.212,208.801 152.237,212.757 155.967 C 213.943 157.085,215.040 158.000,215.195 158.000 C 215.350 158.000,216.099 158.585,216.859 159.300 C 219.238 161.538,222.487 164.160,223.565 164.713 C 224.134 165.005,225.500 166.115,226.600 167.179 C 227.700 168.244,229.140 169.396,229.800 169.741 C 230.460 170.085,232.241 171.524,233.757 172.939 C 236.195 175.213,236.639 175.475,237.591 175.203 C 240.304 174.424,248.447 168.309,252.319 164.142 C 253.924 162.414,261.783 154.413,269.782 146.362 L 284.328 131.723 289.519 131.449 C 292.374 131.299,299.050 131.193,304.355 131.214 L 314.000 131.253 314.000 132.226 C 314.000 132.825,313.769 133.200,313.400 133.200 C 313.070 133.200,312.798 133.335,312.795 133.500 C 312.789 133.876,309.722 137.200,309.382 137.200 C 309.244 137.200,308.562 137.858,307.866 138.661 C 307.170 139.465,306.076 140.590,305.436 141.161 C 302.367 143.899,286.800 159.625,286.800 159.987 C 286.800 160.214,286.629 160.400,286.421 160.400 C 285.870 160.400,284.000 162.212,284.000 162.746 C 284.000 162.996,283.820 163.200,283.600 163.200 C 283.380 163.200,283.200 163.470,283.200 163.800 C 283.200 164.130,282.949 164.400,282.643 164.400 C 282.336 164.400,281.982 164.670,281.855 165.000 C 281.713 165.372,281.857 165.600,282.236 165.600 C 282.572 165.600,282.746 165.763,282.623 165.962 C 282.500 166.162,282.018 166.225,281.552 166.103 C 280.728 165.888,280.723 165.911,281.377 166.909 C 282.059 167.950,281.669 168.195,280.497 167.463 C 279.898 167.089,277.481 168.684,277.819 169.231 C 277.944 169.434,277.767 169.600,277.424 169.600 C 276.632 169.600,276.602 171.038,277.387 171.340 C 277.710 171.464,278.098 171.365,278.249 171.121 C 278.427 170.833,278.339 170.790,278.000 171.000 C 277.654 171.214,277.573 171.167,277.762 170.862 C 277.919 170.608,278.307 170.400,278.624 170.400 C 278.941 170.400,279.200 170.220,279.200 170.000 C 279.200 169.780,279.391 169.600,279.624 169.600 C 279.857 169.600,279.919 169.808,279.762 170.062 C 279.581 170.355,279.653 170.415,279.958 170.226 C 280.329 169.997,280.320 169.782,279.919 169.288 C 279.485 168.751,279.493 168.703,279.968 168.989 C 280.390 169.243,280.472 169.166,280.288 168.686 C 280.115 168.234,280.213 168.107,280.618 168.262 C 280.936 168.384,281.079 168.690,280.936 168.942 C 280.793 169.194,281.206 168.908,281.852 168.307 C 282.499 167.706,283.057 166.837,283.092 166.375 C 283.161 165.461,283.989 164.255,284.320 164.587 C 284.434 164.700,284.803 164.570,285.140 164.297 C 285.648 163.885,285.696 163.903,285.421 164.400 C 285.237 164.730,288.056 162.120,291.685 158.600 C 295.313 155.080,298.309 151.975,298.341 151.700 C 298.373 151.425,298.588 151.200,298.817 151.200 C 299.047 151.200,300.262 150.173,301.517 148.918 C 302.773 147.663,303.170 147.167,302.400 147.817 L 301.000 148.998 302.378 147.499 C 303.137 146.675,303.947 145.993,304.178 145.984 C 304.410 145.975,306.850 143.706,309.600 140.940 C 312.350 138.175,314.330 136.056,314.000 136.233 C 313.484 136.508,313.477 136.459,313.945 135.881 C 314.245 135.511,314.650 135.307,314.845 135.428 C 315.040 135.549,315.223 135.457,315.250 135.224 C 315.278 134.991,315.322 134.613,315.350 134.385 C 315.378 134.157,315.647 133.818,315.948 133.632 C 316.389 133.359,316.350 133.209,315.748 132.859 C 315.187 132.533,315.150 132.420,315.600 132.406 C 316.082 132.391,316.095 132.321,315.666 132.050 C 315.240 131.779,315.266 131.660,315.795 131.457 C 316.798 131.072,310.550 123.600,309.225 123.600 C 308.965 123.600,308.851 123.440,308.972 123.245 C 309.259 122.780,308.215 121.919,307.830 122.303 C 307.667 122.467,307.593 122.413,307.667 122.185 C 307.813 121.730,299.410 113.200,298.816 113.200 C 298.613 113.200,298.319 112.992,298.162 112.738 C 297.973 112.433,298.054 112.386,298.400 112.600 C 298.746 112.814,298.827 112.767,298.638 112.462 C 298.481 112.208,298.083 112.000,297.753 112.000 C 297.423 112.000,297.242 111.856,297.350 111.681 C 297.459 111.505,279.514 93.325,257.473 71.281 L 217.398 31.200 200.599 31.225 C 191.360 31.239,183.440 31.404,183.000 31.591 M155.375 59.300 L 154.200 60.600 155.500 59.425 C 156.712 58.330,156.984 58.000,156.675 58.000 C 156.606 58.000,156.021 58.585,155.375 59.300 M201.143 107.791 C 201.038 107.895,206.091 113.111,212.371 119.380 L 223.791 130.779 221.795 132.868 C 220.698 134.018,220.160 134.707,220.600 134.401 C 221.040 134.094,220.424 134.860,219.232 136.103 C 218.039 137.346,216.910 138.268,216.722 138.152 C 216.534 138.036,216.430 138.099,216.490 138.293 C 216.621 138.712,210.735 144.869,210.464 144.597 C 210.361 144.494,209.748 145.128,209.103 146.007 C 208.457 146.885,207.777 147.509,207.592 147.395 C 207.407 147.281,207.125 147.398,206.966 147.655 C 206.785 147.948,206.850 148.016,207.138 147.838 C 207.892 147.372,207.665 147.819,206.731 148.638 C 206.253 149.057,205.994 149.175,206.155 148.900 C 206.316 148.625,206.342 148.400,206.214 148.400 C 206.085 148.400,205.807 148.855,205.596 149.410 C 205.385 149.966,204.937 150.526,204.600 150.655 C 203.700 151.001,201.383 153.264,201.506 153.678 C 201.800 154.671,199.303 152.349,189.722 142.725 C 179.701 132.658,177.981 130.553,179.174 129.816 C 179.416 129.667,179.492 129.349,179.345 129.111 C 179.183 128.849,179.263 128.792,179.545 128.966 C 179.802 129.125,179.901 129.436,179.765 129.657 C 179.628 129.878,179.887 129.828,180.340 129.545 C 180.793 129.262,181.083 128.950,180.985 128.852 C 180.652 128.518,181.689 127.607,182.107 127.866 C 182.336 128.008,182.414 127.947,182.281 127.731 C 182.147 127.515,182.843 126.665,183.826 125.843 C 184.819 125.013,185.495 124.154,185.346 123.912 C 185.198 123.672,185.257 123.588,185.477 123.724 C 185.697 123.860,186.400 123.410,187.039 122.724 C 187.677 122.038,187.930 121.631,187.600 121.819 C 187.270 122.008,188.080 121.114,189.400 119.832 C 190.720 118.550,191.440 117.733,191.000 118.016 C 190.560 118.299,191.100 117.631,192.200 116.531 C 193.300 115.430,195.640 112.992,197.400 111.112 C 199.160 109.232,200.765 107.673,200.967 107.647 C 201.168 107.621,201.248 107.686,201.143 107.791 M104.800 111.800 C 103.828 112.790,102.943 113.600,102.833 113.600 C 102.723 113.600,103.428 112.790,104.400 111.800 C 105.372 110.810,106.257 110.000,106.367 110.000 C 106.477 110.000,105.772 110.810,104.800 111.800 M89.630 127.364 C 89.309 127.750,89.294 128.011,89.581 128.188 C 89.811 128.331,90.000 128.287,90.000 128.090 C 90.000 127.894,90.305 127.733,90.677 127.733 C 91.192 127.733,91.124 127.884,90.391 128.367 C 89.862 128.715,89.158 129.315,88.826 129.700 C 88.494 130.085,88.008 130.400,87.746 130.400 C 86.971 130.400,87.365 129.289,88.598 128.002 C 89.771 126.778,90.480 126.339,89.630 127.364 M88.236 128.760 C 87.719 129.332,87.669 129.596,88.036 129.822 C 88.328 130.003,88.421 129.957,88.266 129.707 C 87.946 129.189,88.953 128.298,89.401 128.703 C 89.581 128.867,89.599 128.775,89.441 128.500 C 89.070 127.856,89.050 127.860,88.236 128.760 M218.175 136.500 L 217.000 137.800 218.300 136.625 C 219.015 135.979,219.600 135.394,219.600 135.325 C 219.600 135.016,219.270 135.288,218.175 136.500 M95.800 144.400 C 96.659 145.280,97.452 146.000,97.562 146.000 C 97.672 146.000,97.059 145.280,96.200 144.400 C 95.341 143.520,94.548 142.800,94.438 142.800 C 94.328 142.800,94.941 143.520,95.800 144.400 M116.600 162.607 C 116.600 163.043,116.764 163.670,116.965 164.000 C 117.165 164.330,116.880 164.192,116.331 163.693 C 115.210 162.674,114.997 161.501,115.967 161.691 C 116.315 161.759,116.600 162.172,116.600 162.607 M274.071 171.800 C 273.639 172.350,273.145 172.800,272.974 172.800 C 272.305 172.800,267.755 177.867,267.928 178.420 C 268.028 178.739,267.966 178.867,267.792 178.703 C 267.323 178.266,266.400 179.177,266.400 180.078 C 266.400 180.798,266.449 180.808,267.052 180.206 C 267.410 179.847,267.965 179.654,268.284 179.777 C 268.604 179.900,268.951 180.000,269.056 180.000 C 269.161 180.000,269.134 180.225,268.995 180.500 C 268.856 180.775,269.196 180.468,269.752 179.818 C 270.565 178.865,270.668 178.521,270.281 178.048 C 269.878 177.556,269.946 177.499,270.700 177.693 C 271.194 177.821,271.717 177.734,271.861 177.501 C 272.027 177.233,271.930 177.196,271.600 177.400 C 271.254 177.614,271.173 177.567,271.362 177.262 C 271.519 177.008,271.867 176.800,272.136 176.800 C 273.252 176.800,277.362 172.077,276.818 171.421 C 276.062 170.511,274.967 170.662,274.071 171.800 M136.800 184.119 C 136.800 184.267,137.999 185.515,139.465 186.894 C 140.931 188.272,142.416 189.729,142.765 190.132 C 144.538 192.176,145.200 192.805,145.200 192.444 C 145.200 192.226,145.017 191.934,144.793 191.796 C 144.570 191.658,144.493 191.373,144.623 191.162 C 144.753 190.952,144.621 190.830,144.330 190.890 C 144.036 190.951,143.860 190.732,143.933 190.400 C 144.007 190.070,143.947 189.920,143.800 190.067 C 143.481 190.386,141.752 188.743,141.910 188.270 C 141.970 188.089,141.867 188.035,141.681 188.150 C 141.341 188.360,139.819 186.859,139.807 186.300 C 139.803 186.135,139.648 186.018,139.463 186.039 C 139.277 186.060,138.602 185.577,137.963 184.964 C 137.323 184.352,136.800 183.971,136.800 184.119 M260.575 188.900 L 259.400 190.200 260.700 189.025 C 261.415 188.379,262.000 187.794,262.000 187.725 C 262.000 187.416,261.670 187.688,260.575 188.900 M215.394 261.610 C 215.255 261.835,215.289 261.970,215.470 261.910 C 215.652 261.849,215.856 261.980,215.924 262.200 C 216.144 262.909,217.693 264.367,218.135 264.282 C 218.371 264.237,218.572 264.425,218.582 264.700 C 218.592 264.975,218.707 265.155,218.839 265.100 C 218.970 265.045,219.420 265.260,219.839 265.578 C 220.257 265.895,219.526 265.040,218.213 263.678 C 215.549 260.913,215.738 261.052,215.394 261.610 M311.570 276.632 C 311.036 277.200,310.600 277.785,310.600 277.932 C 310.600 278.080,310.495 278.165,310.366 278.122 C 309.948 277.983,305.454 282.753,305.352 283.444 C 305.292 283.856,305.928 283.452,307.006 282.394 C 307.970 281.448,308.723 280.478,308.679 280.237 C 308.636 279.997,308.797 279.836,309.039 279.880 C 309.603 279.982,312.523 277.002,312.640 276.206 C 312.758 275.404,312.702 275.427,311.570 276.632 M308.400 280.522 C 308.400 280.588,307.725 281.263,306.900 282.022 L 305.400 283.400 306.778 281.900 C 308.062 280.504,308.400 280.216,308.400 280.522 M301.627 286.571 C 300.946 287.297,300.875 287.518,301.346 287.449 C 302.134 287.333,302.532 286.947,302.643 286.188 C 302.757 285.411,302.695 285.434,301.627 286.571 M299.689 288.567 C 299.537 288.805,299.401 289.180,299.388 289.400 C 299.375 289.620,299.177 289.765,298.948 289.722 C 298.720 289.679,298.533 289.911,298.533 290.236 C 298.533 290.618,299.006 290.370,299.867 289.535 C 300.600 288.825,301.200 288.218,301.200 288.188 C 301.200 287.909,299.900 288.235,299.689 288.567 M294.094 294.167 C 293.413 295.254,293.733 295.615,294.629 294.773 C 295.163 294.271,295.600 293.832,295.600 293.797 C 295.600 293.511,294.305 293.829,294.094 294.167 M279.781 308.900 L 278.200 310.600 279.900 309.019 C 280.835 308.149,281.600 307.384,281.600 307.319 C 281.600 307.016,281.252 307.319,279.781 308.900 " stroke="none" fill="#5ba9c9" fill-rule="evenodd"></path><path id="path3" d="M180.575 33.300 L 179.400 34.600 180.700 33.425 C 181.415 32.779,182.000 32.194,182.000 32.125 C 182.000 31.816,181.670 32.088,180.575 33.300 M168.000 46.274 C 167.230 47.000,166.724 47.595,166.875 47.597 C 167.262 47.601,169.794 45.251,169.577 45.088 C 169.480 45.015,168.770 45.549,168.000 46.274 M164.975 49.300 L 163.800 50.600 165.100 49.425 C 166.312 48.330,166.584 48.000,166.275 48.000 C 166.206 48.000,165.621 48.585,164.975 49.300 M161.711 52.675 C 161.003 53.404,160.564 54.000,160.737 54.000 C 161.134 54.000,163.401 51.653,163.171 51.480 C 163.077 51.409,162.420 51.947,161.711 52.675 M142.575 72.100 L 141.400 73.400 142.700 72.225 C 143.912 71.130,144.184 70.800,143.875 70.800 C 143.806 70.800,143.221 71.385,142.575 72.100 M117.911 97.593 C 116.999 98.469,116.335 99.268,116.435 99.368 C 116.535 99.468,117.371 98.751,118.294 97.775 C 120.380 95.568,120.138 95.453,117.911 97.593 M112.575 102.900 L 111.400 104.200 112.700 103.025 C 113.912 101.930,114.184 101.600,113.875 101.600 C 113.806 101.600,113.221 102.185,112.575 102.900 M197.200 111.314 C 195.960 112.413,193.787 114.800,194.028 114.800 C 194.126 114.800,195.177 113.810,196.364 112.600 C 198.584 110.337,198.964 109.752,197.200 111.314 M97.200 118.600 C 94.677 121.130,92.768 123.200,92.958 123.200 C 93.402 123.200,100.227 116.545,101.265 115.100 C 102.551 113.309,102.022 113.765,97.200 118.600 M210.800 118.125 C 210.800 118.194,211.385 118.779,212.100 119.425 L 213.400 120.600 212.225 119.300 C 211.130 118.088,210.800 117.816,210.800 118.125 M188.600 120.668 C 187.720 121.457,187.360 121.916,187.800 121.688 C 188.541 121.304,190.751 119.179,190.370 119.217 C 190.276 119.226,189.480 119.879,188.600 120.668 M182.977 126.567 C 182.550 126.879,182.307 127.240,182.436 127.370 C 182.566 127.499,182.998 127.244,183.398 126.802 C 184.248 125.863,184.073 125.766,182.977 126.567 M180.419 129.580 C 180.100 129.782,179.707 129.866,179.547 129.767 C 179.099 129.490,178.815 130.178,179.153 130.723 C 179.367 131.070,179.722 130.921,180.396 130.204 C 181.385 129.151,181.392 128.964,180.419 129.580 M287.600 131.564 L 284.200 131.800 269.720 146.400 C 261.755 154.430,253.925 162.414,252.320 164.142 C 248.446 168.310,240.303 174.425,237.591 175.203 C 236.639 175.475,236.195 175.213,233.757 172.939 C 232.241 171.524,230.460 170.085,229.800 169.741 C 229.140 169.396,227.700 168.244,226.600 167.179 C 225.500 166.115,224.134 165.005,223.565 164.713 C 222.487 164.160,219.238 161.538,216.859 159.300 C 216.099 158.585,215.350 158.000,215.195 158.000 C 215.040 158.000,213.943 157.085,212.757 155.967 C 209.206 152.619,209.110 152.578,207.067 153.568 C 204.144 154.982,202.230 156.867,202.524 158.039 C 202.752 158.950,215.708 172.439,236.390 193.300 L 244.222 201.200 246.297 201.200 C 248.064 201.200,248.555 201.379,249.600 202.400 C 251.279 204.041,251.671 203.924,250.061 202.263 C 248.920 201.086,248.839 200.865,249.383 200.414 C 249.722 200.133,250.000 199.564,250.000 199.151 C 250.000 198.738,250.191 198.400,250.424 198.400 C 250.657 198.400,250.719 198.625,250.562 198.900 C 250.405 199.175,250.844 198.871,251.538 198.225 C 252.232 197.579,252.800 196.803,252.800 196.502 C 252.800 196.200,252.960 196.051,253.155 196.172 C 253.630 196.466,254.473 195.415,254.097 194.999 C 253.933 194.819,254.042 194.812,254.338 194.983 C 254.980 195.354,258.901 191.687,258.520 191.071 C 258.386 190.854,258.453 190.785,258.668 190.919 C 259.081 191.174,267.600 182.820,267.600 182.161 C 267.600 181.950,267.985 181.449,268.454 181.046 C 269.147 180.453,269.204 180.248,268.754 179.963 C 267.982 179.474,267.747 179.510,267.029 180.229 C 266.457 180.800,266.400 180.786,266.400 180.078 C 266.400 179.177,267.323 178.266,267.792 178.703 C 267.966 178.867,268.028 178.739,267.928 178.420 C 267.755 177.867,272.305 172.800,272.974 172.800 C 273.145 172.800,273.647 172.340,274.089 171.778 C 274.903 170.743,276.697 170.532,276.505 171.495 C 276.446 171.788,276.678 171.876,277.105 171.724 C 277.940 171.427,276.378 173.237,273.260 176.180 C 272.084 177.291,270.753 178.740,270.303 179.400 C 269.854 180.060,271.622 178.489,274.232 175.909 C 277.708 172.473,278.859 171.099,278.534 170.774 C 278.216 170.456,278.014 170.453,277.822 170.765 C 277.385 171.472,276.800 171.263,276.800 170.400 C 276.800 169.942,277.067 169.600,277.424 169.600 C 277.767 169.600,277.944 169.434,277.819 169.231 C 277.520 168.747,279.874 167.075,280.397 167.398 C 280.619 167.535,280.803 167.412,280.806 167.124 C 280.811 166.743,280.918 166.764,281.200 167.200 C 281.413 167.530,281.591 167.611,281.594 167.380 C 281.597 167.149,281.375 166.720,281.100 166.426 C 280.690 165.988,280.762 165.930,281.500 166.108 C 281.994 166.227,282.500 166.162,282.623 165.962 C 282.746 165.763,282.572 165.600,282.236 165.600 C 281.857 165.600,281.713 165.372,281.855 165.000 C 281.982 164.670,282.336 164.400,282.643 164.400 C 282.949 164.400,283.200 164.130,283.200 163.800 C 283.200 163.470,283.380 163.200,283.600 163.200 C 283.820 163.200,284.000 162.996,284.000 162.746 C 284.000 162.212,285.870 160.400,286.421 160.400 C 286.629 160.400,286.800 160.214,286.800 159.987 C 286.800 159.625,302.367 143.899,305.436 141.161 C 306.076 140.590,307.170 139.465,307.866 138.661 C 308.562 137.858,309.244 137.200,309.382 137.200 C 309.722 137.200,312.789 133.876,312.795 133.500 C 312.798 133.335,313.070 133.200,313.400 133.200 C 313.770 133.200,314.000 132.825,314.000 132.223 L 314.000 131.245 302.500 131.286 C 296.175 131.309,289.470 131.434,287.600 131.564 M316.110 132.400 C 316.077 132.840,316.219 133.200,316.425 133.200 C 316.631 133.200,316.800 132.840,316.800 132.400 C 316.800 131.960,316.658 131.600,316.485 131.600 C 316.312 131.600,316.143 131.960,316.110 132.400 M180.600 133.600 C 181.459 134.480,182.252 135.200,182.362 135.200 C 182.472 135.200,181.859 134.480,181.000 133.600 C 180.141 132.720,179.348 132.000,179.238 132.000 C 179.128 132.000,179.741 132.720,180.600 133.600 M90.600 139.600 C 94.071 143.087,95.073 143.952,93.962 142.500 C 92.818 141.005,87.779 136.013,87.408 136.006 C 87.193 136.003,88.629 137.620,90.600 139.600 M185.200 138.110 C 185.200 138.171,186.595 139.566,188.300 141.210 L 191.400 144.200 188.410 141.100 C 185.633 138.221,185.200 137.817,185.200 138.110 M214.756 139.913 C 213.962 140.731,213.174 141.670,213.007 142.000 C 212.839 142.330,213.533 141.730,214.551 140.666 C 216.184 138.959,216.642 138.368,216.300 138.413 C 216.245 138.420,215.550 139.095,214.756 139.913 M208.086 146.599 C 206.143 148.734,205.497 149.720,206.775 148.600 C 207.769 147.729,210.174 144.800,209.895 144.800 C 209.800 144.800,208.986 145.610,208.086 146.599 M302.962 146.862 L 302.200 147.724 303.300 147.016 C 304.434 146.286,304.649 146.000,304.062 146.000 C 303.876 146.000,303.381 146.388,302.962 146.862 M198.000 151.000 C 199.417 152.430,200.667 153.600,200.777 153.600 C 200.887 153.600,199.817 152.430,198.400 151.000 C 196.983 149.570,195.733 148.400,195.623 148.400 C 195.513 148.400,196.583 149.570,198.000 151.000 M204.630 150.052 C 204.207 150.463,204.049 150.800,204.281 150.800 C 204.743 150.800,205.809 149.665,205.557 149.442 C 205.471 149.366,205.054 149.640,204.630 150.052 M109.186 157.786 C 112.583 161.188,115.439 163.895,115.533 163.801 C 115.737 163.596,103.704 151.600,103.294 151.600 C 103.138 151.600,105.789 154.384,109.186 157.786 M295.188 155.100 L 292.600 157.800 295.300 155.212 C 296.785 153.788,298.000 152.573,298.000 152.512 C 298.000 152.217,297.593 152.592,295.188 155.100 M118.379 166.578 C 119.520 167.792,119.774 167.873,119.225 166.847 C 119.004 166.433,118.506 165.973,118.121 165.825 C 117.598 165.624,117.663 165.816,118.379 166.578 M123.600 171.448 C 123.600 171.650,125.310 173.519,127.400 175.600 C 129.490 177.681,131.197 179.208,131.192 178.992 C 131.183 178.491,123.600 170.956,123.600 171.448 M132.800 180.742 C 132.800 180.926,133.160 181.402,133.600 181.800 C 134.040 182.198,134.400 182.356,134.400 182.151 C 134.400 181.946,134.040 181.470,133.600 181.093 C 133.160 180.716,132.800 180.558,132.800 180.742 M262.000 187.725 C 262.000 187.794,261.415 188.379,260.700 189.025 L 259.400 190.200 260.575 188.900 C 261.670 187.688,262.000 187.416,262.000 187.725 M142.400 190.330 C 142.400 190.512,142.879 191.097,143.463 191.630 L 144.527 192.600 143.588 191.300 C 142.612 189.948,142.400 189.775,142.400 190.330 M146.242 193.532 C 146.107 193.750,146.852 194.681,147.898 195.599 C 148.944 196.518,149.897 197.537,150.016 197.864 C 150.134 198.191,150.340 198.401,150.474 198.330 C 150.607 198.258,151.140 198.545,151.658 198.966 C 152.176 199.387,151.677 198.810,150.549 197.684 C 149.420 196.558,148.564 195.570,148.644 195.489 C 148.725 195.408,148.273 194.845,147.640 194.238 C 146.991 193.616,146.381 193.308,146.242 193.532 M153.215 200.942 C 153.778 201.545,152.971 202.466,143.815 211.669 C 134.410 221.124,131.638 224.173,138.308 217.728 C 140.290 215.813,141.500 214.926,141.940 215.066 C 142.507 215.246,142.515 215.215,142.000 214.852 C 141.473 214.481,141.485 214.343,142.100 213.729 C 142.567 213.262,142.800 213.198,142.800 213.538 C 142.800 213.818,142.943 213.959,143.117 213.851 C 143.291 213.744,143.471 214.144,143.517 214.742 C 143.597 215.792,143.362 216.157,140.306 219.723 C 139.079 221.156,138.978 221.756,139.700 223.334 C 140.060 224.122,140.416 224.373,140.975 224.232 C 142.544 223.835,153.878 235.695,153.392 237.225 C 152.997 238.470,148.762 243.368,146.551 245.137 C 143.959 247.211,139.272 251.825,137.825 253.727 C 137.186 254.567,135.622 256.319,134.349 257.620 C 130.596 261.456,128.410 265.210,130.000 265.090 C 130.440 265.057,130.800 264.866,130.800 264.665 C 130.800 264.450,136.667 264.349,145.100 264.419 C 152.965 264.485,162.756 264.496,166.858 264.443 C 176.676 264.316,179.180 265.103,178.500 268.100 C 178.347 268.776,178.991 269.110,179.271 268.500 C 179.346 268.335,179.989 267.673,180.700 267.029 C 182.779 265.145,182.619 266.120,180.516 268.145 C 179.462 269.160,178.803 269.993,179.051 269.995 C 179.299 269.998,180.507 268.905,181.735 267.567 C 183.998 265.101,195.369 253.107,198.075 250.331 C 198.886 249.500,199.716 248.522,199.919 248.160 C 200.239 247.588,200.515 247.706,202.008 249.050 C 203.184 250.109,203.581 250.321,203.261 249.721 C 203.004 249.237,202.419 248.579,201.961 248.258 C 201.310 247.802,201.090 247.131,200.955 245.185 C 200.732 241.983,201.505 242.957,191.600 233.383 C 186.870 228.811,178.016 220.153,171.924 214.144 C 159.813 202.196,159.079 201.604,156.389 201.601 C 155.376 201.601,154.142 201.310,153.589 200.941 C 152.670 200.328,152.643 200.328,153.215 200.942 M150.165 206.500 C 146.682 210.130,143.391 213.200,142.983 213.200 C 142.800 213.200,153.751 202.426,153.949 202.411 C 154.031 202.405,152.328 204.245,150.165 206.500 M258.022 210.650 C 261.134 213.923,286.340 239.059,287.233 239.781 C 287.765 240.210,281.181 233.505,272.602 224.881 C 264.023 216.256,256.923 209.200,256.823 209.200 C 256.724 209.200,257.263 209.852,258.022 210.650 M132.370 222.697 C 131.682 223.475,131.640 223.593,132.225 223.103 C 132.888 222.548,133.161 222.509,133.606 222.905 C 134.069 223.318,134.082 223.294,133.684 222.763 C 133.422 222.413,133.325 222.008,133.470 221.863 C 133.615 221.718,133.645 221.600,133.536 221.600 C 133.428 221.600,132.903 222.094,132.370 222.697 M122.400 232.600 C 121.428 233.590,120.723 234.400,120.833 234.400 C 120.943 234.400,121.828 233.590,122.800 232.600 C 123.772 231.610,124.477 230.800,124.367 230.800 C 124.257 230.800,123.372 231.610,122.400 232.600 M118.975 236.100 L 117.800 237.400 119.100 236.225 C 120.312 235.130,120.584 234.800,120.275 234.800 C 120.206 234.800,119.621 235.385,118.975 236.100 M114.987 240.100 L 112.600 242.600 115.023 240.289 C 116.355 239.018,117.599 238.118,117.787 238.289 C 117.975 238.460,117.999 238.375,117.841 238.100 C 117.458 237.436,117.681 237.279,114.987 240.100 M288.400 241.071 C 288.400 241.280,288.910 241.939,289.533 242.536 C 290.314 243.284,290.667 243.437,290.667 243.029 C 290.667 242.702,290.531 242.519,290.365 242.621 C 290.200 242.724,289.690 242.332,289.232 241.750 C 288.774 241.168,288.400 240.863,288.400 241.071 M110.778 244.300 L 109.400 245.800 110.900 244.422 C 112.296 243.138,112.584 242.800,112.278 242.800 C 112.212 242.800,111.537 243.475,110.778 244.300 M291.733 244.578 C 291.733 244.908,292.213 245.638,292.800 246.200 C 293.561 246.929,293.867 247.050,293.867 246.622 C 293.867 246.292,293.387 245.562,292.800 245.000 C 292.039 244.271,291.733 244.150,291.733 244.578 M294.400 247.284 C 294.400 247.624,294.715 248.149,295.100 248.451 C 295.747 248.958,295.754 248.942,295.200 248.239 C 294.870 247.820,294.660 247.400,294.733 247.305 C 294.807 247.211,294.762 247.028,294.633 246.900 C 294.505 246.772,294.400 246.945,294.400 247.284 M205.200 251.400 C 205.946 252.170,206.647 252.800,206.757 252.800 C 206.867 252.800,206.346 252.170,205.600 251.400 C 204.854 250.630,204.153 250.000,204.043 250.000 C 203.933 250.000,204.454 250.630,205.200 251.400 M299.583 252.511 C 300.564 253.550,301.554 254.395,301.783 254.388 C 302.012 254.381,301.875 254.187,301.478 253.956 C 301.081 253.724,300.581 253.075,300.367 252.512 C 300.153 251.949,299.862 251.604,299.721 251.745 C 299.580 251.886,299.090 251.691,298.632 251.312 C 298.175 250.933,298.602 251.473,299.583 252.511 M302.552 255.352 C 302.605 255.713,302.850 256.210,303.096 256.456 C 303.427 256.787,303.519 256.733,303.448 256.248 C 303.395 255.887,303.150 255.390,302.904 255.144 C 302.573 254.813,302.481 254.867,302.552 255.352 M306.013 258.630 C 306.006 258.867,306.490 259.497,307.088 260.030 C 307.686 260.564,307.958 260.713,307.691 260.363 C 307.425 260.013,307.295 259.608,307.403 259.463 C 307.512 259.318,307.483 259.287,307.340 259.394 C 307.196 259.500,306.842 259.275,306.552 258.894 C 306.263 258.512,306.020 258.394,306.013 258.630 M183.853 264.627 C 183.054 265.426,182.400 265.936,182.400 265.759 C 182.400 265.312,184.904 262.771,185.126 262.993 C 185.225 263.092,184.653 263.827,183.853 264.627 M222.133 268.197 C 222.133 268.527,222.433 269.068,222.800 269.400 C 223.391 269.935,223.467 269.935,223.467 269.403 C 223.467 269.073,223.167 268.532,222.800 268.200 C 222.209 267.665,222.133 267.665,222.133 268.197 M177.483 268.650 C 177.358 268.776,177.352 269.131,177.470 269.439 C 177.594 269.760,177.439 270.000,177.109 270.000 C 176.202 270.000,176.438 271.033,177.362 271.102 C 178.009 271.151,178.062 271.086,177.606 270.804 C 177.110 270.497,177.126 270.403,177.711 270.179 C 178.090 270.033,178.400 269.674,178.400 269.381 C 178.400 268.770,177.823 268.310,177.483 268.650 M315.613 268.676 C 315.606 268.938,315.787 269.269,316.016 269.410 C 316.245 269.552,316.328 269.997,316.200 270.400 C 316.072 270.803,316.155 271.248,316.384 271.390 C 317.022 271.784,316.886 269.866,316.213 268.976 C 315.890 268.549,315.620 268.414,315.613 268.676 M220.188 273.612 C 218.445 275.365,217.170 276.800,217.355 276.800 C 217.805 276.800,223.760 270.827,223.535 270.601 C 223.437 270.504,221.931 271.859,220.188 273.612 M314.600 274.132 C 314.380 274.407,313.844 275.075,313.409 275.616 C 312.968 276.164,313.278 275.989,314.109 275.222 C 314.929 274.463,315.600 273.788,315.600 273.722 C 315.600 273.417,314.961 273.679,314.600 274.132 M212.446 281.353 C 211.499 282.318,210.898 283.213,211.109 283.344 C 211.575 283.632,212.912 282.246,212.534 281.868 C 212.387 281.720,212.597 281.600,213.000 281.600 C 213.403 281.600,213.613 281.480,213.466 281.332 C 213.319 281.185,213.497 280.735,213.861 280.332 C 215.169 278.887,214.132 279.635,212.446 281.353 M96.000 283.800 C 97.195 285.010,98.263 286.000,98.373 286.000 C 98.483 286.000,97.595 285.010,96.400 283.800 C 95.205 282.590,94.137 281.600,94.027 281.600 C 93.917 281.600,94.805 282.590,96.000 283.800 M303.775 285.300 L 302.600 286.600 303.900 285.425 C 304.615 284.779,305.200 284.194,305.200 284.125 C 305.200 283.816,304.870 284.088,303.775 285.300 M206.399 287.402 C 205.883 287.951,205.582 288.400,205.730 288.400 C 206.118 288.400,207.699 286.765,207.502 286.568 C 207.411 286.477,206.914 286.852,206.399 287.402 M197.820 290.109 C 197.928 290.388,198.417 290.862,198.908 291.161 C 199.759 291.680,199.755 291.656,198.830 290.653 C 197.748 289.477,197.534 289.362,197.820 290.109 M202.770 291.044 C 202.236 291.618,201.440 292.236,201.000 292.418 C 200.353 292.686,200.329 292.754,200.876 292.775 C 201.248 292.789,201.666 292.617,201.804 292.393 C 201.942 292.170,202.215 292.086,202.411 292.207 C 202.606 292.327,203.048 291.880,203.393 291.213 C 204.162 289.727,204.027 289.691,202.770 291.044 M107.578 295.704 C 108.882 297.118,109.811 297.818,108.852 296.663 C 108.607 296.368,108.495 296.008,108.603 295.863 C 108.712 295.718,108.678 295.692,108.530 295.804 C 108.381 295.916,107.796 295.602,107.230 295.107 C 106.663 294.613,106.820 294.881,107.578 295.704 M293.000 295.200 C 292.864 295.420,292.881 295.600,293.038 295.600 C 293.195 295.600,292.981 296.005,292.562 296.500 C 291.800 297.399,291.801 297.400,292.633 296.698 C 293.092 296.312,293.467 295.727,293.467 295.398 C 293.467 294.699,293.342 294.646,293.000 295.200 M287.283 302.016 C 287.003 302.464,286.620 302.736,286.432 302.620 C 286.244 302.504,285.882 302.661,285.626 302.969 C 285.300 303.362,285.289 303.608,285.590 303.794 C 285.827 303.940,285.970 303.821,285.910 303.530 C 285.849 303.238,286.001 303.037,286.247 303.082 C 286.493 303.128,287.109 302.723,287.617 302.182 C 288.124 301.642,288.371 301.200,288.166 301.200 C 287.961 301.200,287.563 301.567,287.283 302.016 M282.140 306.674 C 282.291 306.824,281.826 307.589,281.107 308.374 L 279.800 309.800 281.284 308.437 C 282.572 307.254,282.918 306.400,282.110 306.400 C 281.976 306.400,281.990 306.523,282.140 306.674 M278.218 311.018 C 276.783 312.454,276.945 312.794,278.400 311.400 C 279.060 310.768,279.600 310.194,279.600 310.125 C 279.600 309.796,279.148 310.088,278.218 311.018 M126.386 314.900 C 128.896 317.540,128.667 317.369,128.667 316.600 C 128.667 316.270,128.572 316.094,128.457 316.210 C 128.342 316.325,127.337 315.560,126.224 314.510 L 124.200 312.600 126.386 314.900 M270.616 318.620 C 269.525 319.788,268.486 320.653,268.306 320.542 C 268.127 320.431,268.030 320.579,268.090 320.870 C 268.151 321.162,267.962 321.351,267.670 321.290 C 267.379 321.230,267.255 321.366,267.396 321.593 C 267.536 321.820,267.324 322.122,266.925 322.264 C 265.924 322.620,264.781 323.646,264.997 323.995 C 265.180 324.291,263.343 326.200,262.877 326.200 C 262.734 326.200,262.580 326.456,262.534 326.769 C 262.488 327.082,264.869 324.925,267.825 321.975 C 270.781 319.025,273.200 316.564,273.200 316.506 C 273.200 316.077,272.313 316.803,270.616 318.620 M253.969 334.567 C 253.377 335.212,253.797 335.946,254.430 335.373 C 254.854 334.989,255.200 334.644,255.200 334.605 C 255.200 334.536,254.031 334.499,253.969 334.567 M231.200 358.600 C 230.228 359.590,229.523 360.400,229.633 360.400 C 229.743 360.400,230.628 359.590,231.600 358.600 C 232.572 357.610,233.277 356.800,233.167 356.800 C 233.057 356.800,232.172 357.610,231.200 358.600 M179.787 369.514 C 181.101 370.881,182.261 372.000,182.366 372.000 C 182.471 372.000,181.978 371.403,181.271 370.674 C 180.564 369.944,180.124 369.209,180.293 369.040 C 180.462 368.871,180.330 368.793,180.000 368.867 C 179.636 368.947,179.453 368.764,179.533 368.400 C 179.607 368.070,179.531 367.935,179.366 368.101 C 179.200 368.266,178.690 368.093,178.232 367.715 C 177.775 367.337,178.474 368.146,179.787 369.514 M220.187 369.700 L 217.800 372.200 220.300 369.813 C 221.675 368.499,222.800 367.374,222.800 367.313 C 222.800 367.017,222.405 367.378,220.187 369.700 " stroke="none" fill="#6d60b2" fill-rule="evenodd"></path><path id="path4" d="M155.392 59.700 L 151.800 63.400 155.500 59.808 C 158.936 56.472,159.382 56.000,159.092 56.000 C 159.032 56.000,157.367 57.665,155.392 59.700 M104.175 112.100 L 103.000 113.400 104.300 112.225 C 105.512 111.130,105.784 110.800,105.475 110.800 C 105.406 110.800,104.821 111.385,104.175 112.100 M101.545 114.667 C 101.209 115.071,101.247 115.200,101.702 115.200 C 102.032 115.200,102.501 114.960,102.745 114.667 C 103.080 114.263,103.042 114.133,102.587 114.133 C 102.257 114.133,101.788 114.373,101.545 114.667 M97.111 119.562 C 95.837 120.882,95.479 121.452,96.011 121.313 C 96.445 121.199,96.800 120.847,96.800 120.530 C 96.800 120.212,96.981 120.065,97.203 120.202 C 97.424 120.339,97.729 120.124,97.880 119.725 C 98.247 118.758,99.045 117.978,99.352 118.286 C 99.489 118.422,99.600 118.323,99.600 118.067 C 99.600 117.230,99.031 117.572,97.111 119.562 M87.661 128.937 C 86.461 130.175,85.537 132.334,86.448 131.771 C 86.671 131.633,86.758 131.424,86.641 131.307 C 86.524 131.190,86.621 130.734,86.857 130.293 C 87.187 129.677,87.361 129.613,87.611 130.018 C 87.866 130.430,88.141 130.354,88.868 129.671 C 89.381 129.191,90.139 128.558,90.553 128.266 C 91.192 127.814,91.207 127.733,90.653 127.733 C 90.294 127.733,90.000 127.905,90.000 128.116 C 90.000 128.330,89.767 128.304,89.470 128.058 C 89.064 127.721,88.640 127.927,87.661 128.937 M89.441 128.500 C 89.599 128.775,89.581 128.867,89.401 128.703 C 88.953 128.298,87.946 129.189,88.266 129.707 C 88.421 129.957,88.328 130.003,88.036 129.822 C 87.669 129.596,87.719 129.332,88.236 128.760 C 89.050 127.860,89.070 127.856,89.441 128.500 M86.432 133.476 C 86.386 134.159,87.198 134.562,87.670 134.090 C 87.936 133.824,87.904 133.588,87.573 133.383 C 87.253 133.185,87.178 133.241,87.362 133.538 C 87.519 133.792,87.472 134.000,87.257 134.000 C 87.042 134.000,86.776 133.775,86.665 133.500 C 86.519 133.139,86.454 133.133,86.432 133.476 M87.846 135.125 C 87.736 135.304,88.805 136.651,90.223 138.118 C 91.640 139.585,92.800 140.999,92.800 141.259 C 92.800 141.520,92.918 141.615,93.063 141.470 C 93.208 141.325,93.576 141.414,93.880 141.667 C 94.301 142.016,94.550 142.001,94.917 141.604 C 95.297 141.194,95.290 141.145,94.884 141.375 C 94.296 141.708,87.891 135.699,88.237 135.139 C 88.353 134.953,88.357 134.800,88.247 134.800 C 88.137 134.800,87.957 134.946,87.846 135.125 M217.785 137.300 L 215.800 139.400 217.900 137.415 C 219.851 135.571,220.183 135.200,219.885 135.200 C 219.822 135.200,218.877 136.145,217.785 137.300 M95.781 143.919 C 96.651 144.844,97.450 145.600,97.556 145.600 C 97.663 145.600,97.263 145.093,96.669 144.472 C 96.075 143.852,95.726 143.177,95.894 142.972 C 96.062 142.768,96.037 142.733,95.837 142.897 C 95.637 143.060,95.187 142.978,94.837 142.715 C 94.487 142.453,94.912 142.994,95.781 143.919 M103.639 151.649 C 104.167 152.043,105.116 152.764,105.746 153.252 C 106.890 154.136,106.891 154.136,106.357 153.281 C 106.063 152.809,105.324 152.217,104.716 151.965 C 104.108 151.713,103.690 151.378,103.787 151.220 C 103.885 151.062,103.675 150.933,103.321 150.933 C 102.848 150.933,102.932 151.123,103.639 151.649 M107.883 155.127 C 108.369 155.552,108.639 156.042,108.483 156.214 C 108.327 156.387,108.425 156.399,108.700 156.241 C 109.384 155.847,109.354 155.786,108.100 155.022 L 107.000 154.353 107.883 155.127 M110.594 158.009 C 110.406 158.313,113.405 160.848,113.875 160.782 C 114.037 160.759,114.266 161.005,114.384 161.329 C 114.569 161.831,114.675 161.835,115.116 161.358 C 115.541 160.898,115.516 160.800,114.973 160.800 C 114.609 160.800,114.401 160.575,114.507 160.298 C 114.810 159.509,113.807 158.755,113.221 159.330 C 112.958 159.589,112.777 159.620,112.819 159.400 C 113.024 158.317,112.800 157.781,112.400 158.400 C 112.060 158.926,112.011 158.922,112.006 158.367 C 112.000 157.743,110.927 157.471,110.594 158.009 M115.333 162.176 C 115.333 162.512,115.782 163.194,116.331 163.693 C 116.880 164.192,117.165 164.330,116.965 164.000 C 116.764 163.670,116.600 163.043,116.600 162.607 C 116.600 162.172,116.315 161.759,115.967 161.691 C 115.612 161.622,115.333 161.835,115.333 162.176 M284.385 164.902 C 283.827 165.396,282.930 166.340,282.393 167.000 C 281.855 167.660,282.357 167.307,283.508 166.215 C 284.658 165.123,285.600 164.178,285.600 164.115 C 285.600 163.880,285.376 164.026,284.385 164.902 M117.792 165.587 C 117.899 165.761,118.376 166.005,118.851 166.129 C 119.495 166.298,119.600 166.240,119.262 165.902 C 118.739 165.379,117.499 165.113,117.792 165.587 M121.177 168.894 C 122.374 170.151,123.435 171.098,123.536 170.997 C 123.637 170.897,124.142 171.306,124.659 171.907 C 125.544 172.936,125.599 172.950,125.600 172.147 C 125.600 171.409,124.805 170.842,123.942 170.964 C 123.397 171.040,122.031 169.471,122.274 169.047 C 122.414 168.801,122.376 168.738,122.190 168.907 C 122.005 169.076,121.211 168.628,120.426 167.911 C 119.642 167.194,119.979 167.636,121.177 168.894 M280.596 168.807 C 280.458 169.030,280.149 169.092,279.911 168.945 C 279.661 168.791,279.591 168.861,279.745 169.111 C 279.893 169.350,279.610 169.828,279.118 170.173 C 278.625 170.518,278.408 170.800,278.636 170.800 C 278.864 170.800,279.568 170.260,280.200 169.600 C 280.832 168.940,281.237 168.400,281.098 168.400 C 280.960 168.400,280.734 168.583,280.596 168.807 M271.000 177.600 C 270.602 178.040,270.394 178.400,270.538 178.400 C 270.682 178.400,271.160 178.040,271.600 177.600 C 272.040 177.160,272.248 176.800,272.062 176.800 C 271.876 176.800,271.398 177.160,271.000 177.600 M136.562 181.495 C 135.635 182.422,138.280 186.541,139.519 186.100 C 139.674 186.045,139.803 186.135,139.807 186.300 C 139.819 186.859,141.341 188.360,141.681 188.150 C 141.867 188.035,141.975 188.089,141.920 188.270 C 141.779 188.734,144.015 191.024,144.478 190.890 C 144.688 190.830,144.750 190.958,144.615 191.175 C 144.481 191.393,146.560 193.760,149.235 196.435 L 154.099 201.299 156.398 201.570 C 159.556 201.942,159.553 201.940,171.973 214.192 C 178.038 220.175,186.870 228.811,191.600 233.383 C 201.511 242.963,200.762 242.015,200.896 245.154 C 200.953 246.496,201.172 247.595,201.382 247.597 C 201.592 247.598,203.787 249.670,206.259 252.200 C 208.731 254.730,210.944 256.800,211.177 256.800 C 211.410 256.800,211.600 256.942,211.600 257.115 C 211.600 257.289,213.085 258.959,214.900 260.828 C 216.715 262.696,217.576 263.499,216.812 262.612 C 216.049 261.726,216.810 262.350,218.502 264.000 C 220.194 265.650,221.584 267.191,221.590 267.425 C 221.607 268.114,223.823 270.039,224.215 269.706 C 224.670 269.318,223.598 270.756,222.800 271.602 C 222.470 271.952,221.120 273.490,219.800 275.019 C 218.480 276.549,216.590 278.610,215.601 279.600 C 214.612 280.590,213.841 281.517,213.887 281.659 C 213.934 281.801,213.616 281.825,213.180 281.711 C 212.574 281.552,212.447 281.656,212.637 282.152 C 212.774 282.508,212.686 282.822,212.443 282.850 C 212.199 282.877,211.820 282.945,211.600 283.000 C 211.380 283.055,211.088 283.123,210.951 283.150 C 210.814 283.178,210.924 283.468,211.196 283.795 C 211.596 284.277,211.568 284.437,211.047 284.637 C 210.694 284.773,210.496 285.033,210.609 285.214 C 210.721 285.396,210.602 285.675,210.345 285.834 C 210.052 286.015,209.984 285.950,210.162 285.662 C 210.673 284.834,210.007 285.174,208.589 286.464 C 207.275 287.660,206.664 288.778,207.662 288.162 C 207.941 287.989,208.015 288.052,207.849 288.321 C 207.698 288.565,207.329 288.671,207.029 288.556 C 206.451 288.334,205.101 289.916,205.423 290.438 C 205.528 290.606,205.402 290.875,205.145 291.034 C 204.852 291.215,204.784 291.150,204.962 290.862 C 205.360 290.218,204.597 290.281,204.052 290.937 C 203.807 291.232,203.740 291.621,203.903 291.801 C 204.067 291.981,203.976 291.999,203.702 291.842 C 203.389 291.661,203.030 291.935,202.737 292.577 C 202.481 293.140,202.120 293.600,201.936 293.600 C 201.482 293.600,201.512 293.066,201.999 292.479 C 202.218 292.214,202.120 292.237,201.782 292.529 C 201.310 292.938,201.258 293.301,201.559 294.092 C 202.003 295.259,202.881 295.957,203.096 295.313 C 203.245 294.864,204.689 295.074,205.437 295.654 C 205.677 295.841,205.992 295.875,206.137 295.730 C 206.282 295.585,206.400 295.739,206.400 296.071 C 206.400 296.931,207.404 297.727,210.552 299.364 C 212.066 300.151,213.755 301.246,214.307 301.797 C 214.858 302.349,215.549 302.800,215.842 302.800 C 216.417 302.800,219.671 304.384,220.000 304.824 C 220.110 304.972,220.560 305.205,221.000 305.343 C 221.440 305.481,222.651 306.387,223.692 307.358 C 225.725 309.254,229.112 310.071,230.083 308.900 C 230.311 308.625,230.662 308.400,230.863 308.400 C 231.481 308.400,244.936 296.154,254.200 287.159 C 268.396 273.376,270.148 271.728,271.172 271.198 C 272.521 270.500,309.897 270.103,311.150 270.773 C 312.516 271.505,312.502 271.522,300.900 283.417 C 294.795 289.677,289.643 295.146,289.451 295.571 C 289.259 295.997,284.264 301.171,278.351 307.071 C 272.438 312.970,267.600 318.011,267.600 318.273 C 267.600 318.534,267.782 319.226,268.004 319.809 L 268.407 320.871 270.404 318.957 C 271.502 317.905,272.405 316.854,272.411 316.622 C 272.417 316.390,276.590 312.060,281.685 307.000 C 286.780 301.940,290.911 297.652,290.864 297.470 C 290.818 297.289,290.934 297.236,291.122 297.352 C 291.607 297.652,295.686 293.426,295.310 293.013 C 295.140 292.825,295.207 292.790,295.460 292.935 C 295.930 293.203,298.400 290.706,298.400 289.962 C 298.400 289.737,298.580 289.664,298.800 289.800 C 299.020 289.936,299.204 289.812,299.208 289.524 C 299.212 289.236,300.065 288.190,301.102 287.200 C 302.139 286.210,302.546 285.940,302.006 286.600 C 301.466 287.260,303.044 285.823,305.512 283.407 C 307.981 280.991,310.000 278.926,310.000 278.819 C 310.000 278.712,308.875 279.699,307.500 281.012 L 305.000 283.400 307.569 280.719 C 308.983 279.245,310.288 278.130,310.469 278.243 C 310.651 278.355,310.800 278.198,310.800 277.893 C 310.800 277.589,311.294 276.903,311.897 276.370 L 312.994 275.400 312.223 276.400 C 311.799 276.950,312.196 276.680,313.106 275.800 C 314.016 274.920,314.770 273.990,314.780 273.733 C 314.791 273.477,315.014 273.195,315.276 273.108 C 315.905 272.898,316.055 269.325,315.462 268.674 C 315.208 268.395,314.800 267.814,314.556 267.383 C 314.312 266.952,313.862 266.600,313.556 266.600 C 313.250 266.600,313.000 266.415,313.000 266.188 C 313.000 265.961,311.875 264.648,310.500 263.268 C 309.125 261.889,308.000 260.883,308.000 261.032 C 308.000 261.182,307.264 260.380,306.365 259.251 C 305.465 258.121,304.537 257.315,304.303 257.460 C 304.064 257.608,303.992 257.536,304.140 257.297 C 304.285 257.063,303.188 255.820,301.702 254.535 C 300.216 253.251,298.858 251.979,298.685 251.709 C 298.512 251.439,297.543 250.359,296.532 249.309 C 295.520 248.259,294.942 247.760,295.247 248.200 C 295.755 248.936,295.744 248.956,295.100 248.451 C 294.715 248.149,294.400 247.708,294.400 247.471 C 294.400 247.049,287.077 239.781,285.058 238.200 C 284.496 237.760,284.029 237.257,284.018 237.082 C 283.999 236.749,276.813 229.625,274.051 227.200 C 273.174 226.430,272.444 225.633,272.428 225.429 C 272.393 224.968,265.706 218.462,264.257 217.479 C 263.673 217.083,262.488 215.802,261.624 214.633 C 260.216 212.727,258.400 211.490,258.400 212.437 C 258.400 213.243,257.598 212.731,257.357 211.771 C 257.213 211.195,256.669 210.578,256.125 210.372 C 255.590 210.168,255.263 209.821,255.400 209.601 C 255.536 209.380,255.277 209.200,254.824 209.200 C 254.371 209.200,254.045 208.975,254.100 208.700 C 254.155 208.425,253.959 208.250,253.666 208.311 C 253.372 208.373,253.036 208.058,252.919 207.611 C 252.673 206.672,252.526 206.648,251.273 207.343 C 250.490 207.777,250.435 207.931,250.917 208.331 C 251.259 208.615,251.409 209.219,251.291 209.835 C 251.090 210.887,250.984 210.962,249.145 211.363 C 248.377 211.530,247.912 212.037,247.438 213.222 C 247.079 214.118,246.355 215.251,245.828 215.739 C 245.301 216.227,244.809 217.161,244.735 217.814 C 244.613 218.882,244.441 219.013,243.000 219.130 C 241.063 219.286,240.000 220.158,240.000 221.591 C 240.000 222.386,239.240 223.412,237.008 225.629 C 235.363 227.263,234.013 228.831,234.008 229.113 C 234.004 229.394,233.733 229.727,233.407 229.853 C 232.959 230.025,232.913 230.265,233.221 230.840 C 233.445 231.258,233.510 231.600,233.365 231.600 C 233.220 231.600,233.303 231.842,233.548 232.137 C 233.793 232.432,233.875 232.792,233.730 232.937 C 233.585 233.082,233.665 233.200,233.906 233.200 C 234.148 233.200,234.448 233.520,234.572 233.912 C 234.696 234.303,235.833 235.704,237.099 237.025 C 238.365 238.346,240.022 240.231,240.783 241.214 C 241.544 242.196,244.019 244.900,246.283 247.222 C 248.547 249.544,250.400 251.561,250.400 251.705 C 250.400 252.071,245.572 249.751,244.600 248.918 C 244.160 248.541,242.097 247.357,240.016 246.287 C 237.935 245.217,235.813 243.922,235.301 243.410 C 234.789 242.898,233.882 242.357,233.285 242.207 C 232.688 242.058,231.878 241.590,231.485 241.168 C 231.091 240.746,230.056 240.037,229.185 239.592 C 228.313 239.148,227.600 238.630,227.600 238.443 C 227.600 238.255,226.279 237.458,224.666 236.671 C 223.052 235.884,221.489 234.948,221.192 234.591 C 220.896 234.234,220.011 233.614,219.227 233.213 C 218.442 232.813,217.457 232.106,217.038 231.643 C 216.619 231.179,215.869 230.800,215.371 230.800 C 214.176 230.800,213.200 230.408,213.200 229.929 C 213.200 229.219,212.068 228.400,211.087 228.400 C 210.553 228.400,209.606 227.926,208.981 227.347 C 208.356 226.768,207.262 226.051,206.550 225.753 C 205.837 225.456,205.154 225.049,205.031 224.850 C 204.908 224.651,204.345 224.373,203.780 224.231 C 203.214 224.089,202.201 223.345,201.527 222.578 C 200.759 221.703,198.779 220.447,196.212 219.206 C 193.962 218.118,191.881 216.938,191.587 216.585 C 191.294 216.231,190.411 215.614,189.627 215.213 C 188.842 214.813,187.857 214.106,187.438 213.643 C 187.019 213.179,186.514 212.800,186.316 212.800 C 185.537 212.800,182.380 211.144,181.364 210.202 C 180.773 209.654,179.172 208.678,177.807 208.033 C 176.441 207.387,174.801 206.293,174.162 205.600 C 173.523 204.908,171.695 203.706,170.100 202.930 C 168.505 202.153,167.200 201.377,167.200 201.204 C 167.200 201.032,165.226 199.887,162.814 198.660 C 160.103 197.282,157.813 195.797,156.818 194.771 C 155.479 193.391,155.032 193.155,154.164 193.373 C 153.298 193.591,152.790 193.326,151.177 191.818 C 150.109 190.818,149.036 190.000,148.794 190.000 C 148.551 190.000,148.476 189.801,148.626 189.557 C 148.811 189.259,148.622 189.203,148.050 189.384 C 147.546 189.544,147.200 189.480,147.200 189.227 C 147.200 188.992,147.062 188.845,146.892 188.900 C 146.416 189.055,144.688 187.305,144.930 186.914 C 145.048 186.722,144.752 186.539,144.272 186.505 C 143.793 186.471,142.894 185.849,142.275 185.122 C 141.656 184.395,140.987 183.843,140.789 183.895 C 140.591 183.948,140.532 183.723,140.657 183.395 C 140.803 183.015,140.645 182.800,140.219 182.800 C 139.853 182.800,139.656 182.633,139.782 182.429 C 139.908 182.225,139.649 181.943,139.206 181.802 C 138.763 181.661,138.400 181.408,138.400 181.240 C 138.400 180.726,137.159 180.898,136.562 181.495 M147.600 194.200 C 148.346 194.970,148.867 195.600,148.757 195.600 C 148.647 195.600,147.946 194.970,147.200 194.200 C 146.454 193.430,145.933 192.800,146.043 192.800 C 146.153 192.800,146.854 193.430,147.600 194.200 M246.800 201.371 C 246.800 201.465,247.385 201.823,248.100 202.166 L 249.400 202.792 248.456 201.996 C 247.582 201.260,246.800 200.964,246.800 201.371 M146.514 209.880 C 146.027 210.386,145.774 210.800,145.952 210.800 C 146.342 210.800,147.798 209.245,147.564 209.077 C 147.474 209.013,147.001 209.374,146.514 209.880 M143.151 212.788 C 141.672 214.130,141.493 214.446,142.000 214.826 C 142.521 215.217,142.515 215.248,141.950 215.069 C 141.063 214.788,133.374 222.111,133.812 222.820 C 134.002 223.126,133.961 223.223,133.709 223.068 C 133.172 222.735,127.139 228.778,127.471 229.315 C 127.610 229.540,127.530 229.604,127.294 229.458 C 127.057 229.312,126.477 229.685,126.003 230.287 C 125.503 230.923,125.322 231.441,125.571 231.524 C 126.229 231.743,126.080 233.200,125.400 233.200 C 125.070 233.200,124.800 233.380,124.800 233.600 C 124.800 234.119,123.319 235.600,122.800 235.600 C 122.580 235.600,122.400 235.754,122.400 235.942 C 122.400 236.130,121.320 237.402,120.000 238.767 C 117.284 241.577,116.994 242.603,118.800 243.000 C 119.460 243.145,120.000 243.417,120.000 243.605 C 120.000 243.793,120.405 244.072,120.900 244.226 C 121.395 244.379,122.278 244.841,122.862 245.252 C 123.446 245.664,124.166 246.001,124.462 246.002 C 124.758 246.003,125.567 246.535,126.259 247.184 C 126.952 247.833,127.987 248.482,128.559 248.626 C 129.132 248.769,129.600 249.047,129.600 249.243 C 129.600 249.440,129.932 249.600,130.338 249.600 C 131.121 249.600,132.400 250.773,132.400 251.491 C 132.400 252.422,135.585 253.656,136.572 253.108 C 138.666 251.947,140.759 250.362,143.400 247.937 C 144.940 246.523,146.702 244.982,147.316 244.513 C 148.800 243.378,153.061 238.267,153.392 237.225 C 153.878 235.695,142.544 223.835,140.975 224.232 C 140.416 224.373,140.060 224.122,139.700 223.334 C 138.978 221.756,139.079 221.156,140.306 219.723 C 143.362 216.157,143.597 215.792,143.517 214.742 C 143.471 214.144,143.291 213.744,143.117 213.851 C 142.268 214.376,142.953 213.328,144.100 212.345 C 144.815 211.733,145.288 211.225,145.151 211.216 C 145.015 211.207,144.115 211.915,143.151 212.788 M293.025 246.100 L 294.200 247.400 292.900 246.225 C 292.185 245.579,291.600 244.994,291.600 244.925 C 291.600 244.616,291.930 244.888,293.025 246.100 M174.833 271.344 C 175.311 271.756,177.200 271.966,177.200 271.608 C 177.200 271.383,176.630 271.200,175.933 271.200 C 175.237 271.200,174.742 271.265,174.833 271.344 M177.974 272.169 C 178.205 272.446,178.260 272.837,178.097 273.037 C 177.933 273.237,177.963 273.267,178.163 273.103 C 178.363 272.940,178.754 272.995,179.031 273.226 C 179.583 273.684,179.616 272.682,179.067 272.133 C 178.518 271.584,177.516 271.617,177.974 272.169 M192.645 285.766 C 192.870 286.357,192.807 286.456,192.368 286.201 C 192.031 286.006,191.936 286.020,192.133 286.236 C 192.317 286.436,192.660 286.600,192.895 286.600 C 193.131 286.600,193.372 286.931,193.432 287.337 C 193.564 288.235,194.000 288.742,194.000 287.997 C 194.000 287.656,194.364 287.803,195.000 288.400 C 196.799 290.090,196.048 288.613,194.177 286.783 C 193.160 285.788,192.483 285.338,192.645 285.766 M197.423 290.837 C 197.546 291.037,197.427 291.200,197.157 291.200 C 196.299 291.200,197.151 291.721,198.095 291.773 C 198.593 291.801,199.270 291.984,199.600 292.181 C 199.998 292.418,199.956 292.259,199.474 291.709 C 198.755 290.888,196.991 290.139,197.423 290.837 M265.200 321.200 C 265.200 321.640,265.391 322.000,265.624 322.000 C 265.857 322.000,265.944 322.168,265.817 322.372 C 265.691 322.577,265.798 322.875,266.055 323.034 C 266.330 323.204,266.417 323.151,266.266 322.907 C 266.125 322.678,266.401 322.388,266.881 322.263 C 267.746 322.037,267.745 322.029,266.713 321.218 C 265.418 320.199,265.200 320.196,265.200 321.200 " stroke="none" fill="#8285d9" fill-rule="evenodd"></path></g></svg>