<svg id="svg" version="1.1" xmlns="http://www.w3.org/2000/svg" xmlns:xlink="http://www.w3.org/1999/xlink" width="400" height="400" viewBox="0, 0, 400,400"><g id="svgg"><path id="path0" d="M148.987 140.724 C 126.673 153.557,124.456 154.879,124.132 155.543 C 123.955 155.905,123.719 166.062,123.606 178.115 C 123.428 197.001,123.317 200.084,122.800 200.419 C 122.470 200.632,116.530 204.076,109.600 208.072 C 87.358 220.896,85.975 221.725,86.119 222.158 C 86.197 222.392,87.237 223.145,88.431 223.831 C 89.624 224.517,95.280 227.786,101.000 231.094 C 117.371 240.563,140.176 253.736,160.400 265.404 C 170.630 271.307,183.410 278.688,188.800 281.806 C 201.148 288.951,201.049 288.901,202.120 288.566 C 203.084 288.264,205.779 286.758,212.800 282.595 C 228.931 273.030,237.033 268.500,237.384 268.851 C 237.516 268.983,237.664 278.341,237.712 289.646 L 237.800 310.200 239.076 310.144 C 239.909 310.107,243.172 308.452,248.476 305.377 C 252.944 302.786,260.650 298.343,265.600 295.502 C 270.550 292.661,275.275 289.899,276.100 289.363 L 277.600 288.389 277.594 244.894 C 277.587 195.351,278.023 200.266,273.398 197.591 C 254.695 186.774,235.960 175.962,208.600 160.194 C 202.440 156.644,193.710 151.613,189.200 149.014 C 164.309 134.668,162.405 133.600,161.703 133.600 C 161.522 133.600,155.800 136.806,148.987 140.724 " stroke="none" fill="#fab95c" fill-rule="evenodd"></path><path id="path1" d="M199.600 67.492 C 199.270 67.619,196.030 69.437,192.400 71.533 C 188.770 73.629,181.750 77.671,176.800 80.516 C 163.588 88.109,163.258 88.324,162.178 90.034 L 161.200 91.584 161.200 111.332 C 161.200 133.384,161.176 133.163,163.744 134.473 C 165.318 135.276,170.595 138.290,189.200 149.014 C 193.710 151.613,202.440 156.644,208.600 160.194 C 232.673 174.067,249.116 183.555,260.600 190.198 C 265.440 192.997,270.965 196.183,272.878 197.277 C 274.791 198.370,276.591 199.548,276.878 199.894 C 277.297 200.399,277.439 209.019,277.600 243.756 C 277.778 282.170,277.868 287.002,278.413 287.107 C 278.750 287.172,282.350 285.311,286.413 282.971 C 290.476 280.632,298.518 276.004,304.285 272.686 C 310.052 269.369,314.865 266.407,314.982 266.104 C 315.098 265.800,315.202 235.818,315.213 199.476 L 315.232 133.400 314.199 132.609 C 313.631 132.174,310.698 130.398,307.683 128.662 C 301.192 124.925,288.154 117.405,282.800 114.309 C 280.710 113.101,274.950 109.779,270.000 106.928 C 262.353 102.523,238.752 88.888,225.600 81.278 C 207.157 70.605,201.088 67.195,200.600 67.233 C 200.380 67.249,199.930 67.366,199.600 67.492 " stroke="none" fill="#0bc5a4" fill-rule="evenodd"></path><path id="path2" d="M0.000 200.000 L 0.000 400.000 200.000 400.000 L 400.000 400.000 400.000 200.000 L 400.000 0.000 200.000 0.000 L 0.000 0.000 0.000 200.000 M205.800 68.526 C 208.220 69.912,213.890 73.178,218.400 75.782 C 229.260 82.054,294.161 119.522,305.600 126.125 C 316.784 132.580,315.865 131.985,316.372 133.097 C 316.982 134.436,316.974 265.180,316.364 266.519 C 315.931 267.469,314.802 268.174,300.400 276.495 C 296.770 278.593,290.470 282.234,286.400 284.587 C 282.330 286.940,278.550 289.288,278.000 289.803 C 277.450 290.319,274.120 292.399,270.600 294.425 C 250.195 306.170,248.287 307.273,233.600 315.809 C 230.630 317.535,226.400 319.961,224.200 321.201 C 222.000 322.441,217.320 325.133,213.800 327.184 C 199.302 335.632,201.013 335.128,196.200 332.364 C 194.220 331.227,190.800 329.274,188.600 328.025 C 186.400 326.776,180.460 323.357,175.400 320.428 C 154.347 308.238,145.593 303.174,142.000 301.104 C 132.224 295.474,115.164 285.603,105.317 279.880 C 102.412 278.191,98.992 276.245,97.717 275.556 C 91.740 272.323,85.112 268.214,84.385 267.290 C 83.595 266.286,83.585 265.864,83.793 243.834 C 83.911 231.495,84.140 201.690,84.303 177.600 C 84.466 153.510,84.738 133.526,84.908 133.191 C 85.323 132.371,84.804 132.682,107.200 119.799 C 111.490 117.331,119.140 112.916,124.200 109.988 C 129.260 107.059,139.543 101.120,147.052 96.789 C 154.560 92.458,161.310 88.458,162.052 87.900 C 162.793 87.342,166.460 85.124,170.200 82.972 C 173.940 80.820,182.112 76.121,188.359 72.529 C 201.489 64.982,200.152 65.289,205.800 68.526 " stroke="none" fill="#040404" fill-rule="evenodd"></path><path id="path3" d="M85.606 243.838 C 85.609 255.917,85.750 266.017,85.919 266.282 C 86.087 266.547,90.720 269.351,96.213 272.513 C 105.722 277.987,110.046 280.486,122.100 287.472 C 125.015 289.161,133.700 294.169,141.400 298.601 C 149.100 303.032,161.880 310.405,169.800 314.985 C 203.848 334.674,200.325 332.870,202.520 331.742 C 203.224 331.381,210.550 327.176,218.800 322.399 C 227.050 317.621,235.311 312.893,237.158 311.891 C 240.144 310.271,240.366 310.077,239.158 310.135 L 237.800 310.200 237.712 289.646 C 237.664 278.341,237.516 268.983,237.384 268.851 C 237.033 268.500,228.931 273.030,212.800 282.595 C 205.779 286.758,203.084 288.264,202.120 288.566 C 201.049 288.901,201.148 288.951,188.800 281.806 C 183.410 278.688,170.630 271.307,160.400 265.404 C 139.874 253.561,116.964 240.328,101.000 231.094 C 95.280 227.785,89.790 224.625,88.800 224.071 C 87.810 223.518,86.685 222.797,86.300 222.470 C 85.635 221.905,85.600 222.962,85.606 243.838 " stroke="none" fill="#da4c04" fill-rule="evenodd"></path><path id="path4" d="M162.015 89.216 C 161.253 89.867,160.508 90.400,160.358 90.400 C 160.208 90.400,156.242 92.620,151.543 95.334 C 146.844 98.048,138.680 102.757,133.400 105.798 C 123.269 111.634,114.903 116.470,99.800 125.221 C 94.740 128.152,89.675 131.060,88.544 131.682 C 87.413 132.304,86.287 133.054,86.042 133.349 C 85.719 133.738,85.625 146.009,85.698 177.873 L 85.800 221.859 91.400 218.595 C 94.480 216.800,102.670 212.063,109.600 208.069 C 116.530 204.075,122.470 200.632,122.800 200.419 C 123.317 200.084,123.428 197.005,123.600 178.115 C 123.730 163.843,123.947 155.953,124.221 155.491 C 124.602 154.849,146.340 142.036,157.491 135.879 C 160.927 133.982,161.914 133.259,161.691 132.800 C 161.531 132.470,161.350 123.053,161.289 111.874 L 161.179 91.548 162.376 89.774 C 163.034 88.798,163.534 88.007,163.486 88.016 C 163.439 88.025,162.777 88.565,162.015 89.216 M315.299 200.667 C 315.244 236.344,315.096 265.864,314.970 266.267 C 314.764 266.923,314.785 266.930,315.171 266.333 C 315.476 265.862,315.572 246.658,315.500 200.733 L 315.398 135.800 315.299 200.667 M303.500 273.029 C 302.005 273.840,302.096 274.178,303.600 273.400 C 304.260 273.059,304.800 272.694,304.800 272.590 C 304.800 272.332,304.757 272.347,303.500 273.029 M279.867 286.646 C 279.244 286.984,278.479 287.162,278.167 287.043 C 277.800 286.902,277.600 287.093,277.600 287.584 C 277.600 288.294,277.719 288.277,279.400 287.338 C 280.390 286.784,281.200 286.257,281.200 286.166 C 281.200 285.934,281.141 285.956,279.867 286.646 " stroke="none" fill="#297792" fill-rule="evenodd"></path><path id="path5" d="M188.359 72.529 C 182.112 76.121,173.940 80.820,170.200 82.972 C 166.460 85.124,162.793 87.342,162.052 87.900 C 161.310 88.458,154.560 92.458,147.052 96.789 C 139.543 101.120,129.260 107.059,124.200 109.988 C 119.140 112.916,111.490 117.331,107.200 119.799 C 83.798 133.261,85.331 132.317,84.807 133.589 C 84.154 135.177,84.441 221.280,85.100 221.500 C 85.498 221.633,85.600 212.692,85.600 177.682 C 85.600 138.766,85.670 133.640,86.210 133.192 C 86.545 132.914,88.120 131.938,89.710 131.023 C 91.299 130.109,98.630 125.876,106.000 121.617 C 113.370 117.358,123.630 111.451,128.800 108.489 C 133.970 105.527,139.640 102.249,141.400 101.203 C 145.168 98.964,156.931 92.200,159.800 90.623 C 160.900 90.018,162.160 89.197,162.600 88.797 C 163.266 88.191,169.802 84.368,197.871 68.165 C 200.438 66.683,200.945 66.847,210.077 72.130 C 220.464 78.137,253.838 97.395,261.000 101.513 C 263.860 103.158,270.160 106.796,275.000 109.599 C 279.840 112.402,288.120 117.181,293.400 120.219 C 311.707 130.752,314.602 132.473,315.100 133.111 C 316.102 134.397,315.799 265.837,314.793 266.699 C 314.348 267.079,308.633 270.466,302.093 274.226 C 275.268 289.643,275.478 289.515,277.829 289.077 C 278.504 288.951,282.374 286.927,286.429 284.579 C 290.483 282.230,296.770 278.593,300.400 276.495 C 314.802 268.174,315.931 267.469,316.364 266.519 C 316.974 265.180,316.982 134.436,316.372 133.097 C 315.865 131.985,316.784 132.580,305.600 126.125 C 294.161 119.522,229.260 82.054,218.400 75.782 C 202.802 66.775,201.396 66.004,200.559 66.002 C 200.097 66.001,194.607 68.938,188.359 72.529 " stroke="none" fill="#1a6954" fill-rule="evenodd"></path><path id="path6" d="M84.400 243.736 C 84.400 261.130,84.514 266.396,84.900 266.901 C 85.175 267.260,88.190 269.158,91.600 271.118 C 101.156 276.611,121.083 288.097,128.200 292.214 C 196.563 331.768,199.967 333.700,200.954 333.511 C 201.463 333.414,210.321 328.477,220.639 322.541 C 230.958 316.605,243.450 309.433,248.400 306.603 C 266.632 296.179,277.410 289.931,277.780 289.570 C 279.582 287.814,273.940 290.777,258.039 299.937 C 247.787 305.842,238.140 311.361,236.600 312.201 C 235.060 313.041,227.050 317.634,218.800 322.407 C 210.550 327.180,203.224 331.381,202.520 331.742 C 200.325 332.870,203.848 334.674,169.800 314.985 C 161.880 310.405,149.100 303.032,141.400 298.601 C 133.700 294.169,125.060 289.187,122.200 287.530 C 110.197 280.573,105.689 277.968,96.213 272.513 C 90.720 269.351,86.087 266.547,85.919 266.282 C 85.750 266.017,85.609 255.874,85.606 243.743 C 85.601 224.509,85.523 221.656,85.000 221.455 C 84.471 221.252,84.400 223.891,84.400 243.736 " stroke="none" fill="#5e2a11" fill-rule="evenodd"></path><path id="path7" d="M83.900 221.950 C 83.116 225.477,83.560 266.242,84.394 267.302 C 85.113 268.216,91.766 272.338,97.717 275.556 C 98.992 276.245,102.412 278.191,105.317 279.880 C 115.164 285.603,132.224 295.474,142.000 301.104 C 145.593 303.174,154.347 308.238,175.400 320.428 C 180.460 323.357,186.400 326.776,188.600 328.025 C 190.800 329.274,194.220 331.227,196.200 332.364 C 201.013 335.128,199.302 335.632,213.800 327.184 C 217.320 325.133,222.000 322.441,224.200 321.201 C 226.400 319.961,230.630 317.535,233.600 315.809 C 248.421 307.196,253.580 304.214,270.600 294.430 C 274.120 292.406,277.450 290.274,278.000 289.691 C 278.550 289.108,278.640 288.925,278.200 289.283 C 277.429 289.910,267.319 295.786,248.400 306.603 C 243.450 309.433,230.958 316.605,220.639 322.541 C 210.321 328.477,201.463 333.414,200.954 333.511 C 199.967 333.700,196.563 331.768,128.200 292.214 C 122.463 288.895,109.257 281.280,91.600 271.110 C 88.190 269.146,85.220 267.364,85.000 267.150 C 84.747 266.904,84.526 258.271,84.400 243.680 C 84.290 230.986,84.065 221.207,83.900 221.950 " stroke="none" fill="#310a04" fill-rule="evenodd"></path></g></svg>