<svg id="svg" version="1.1" xmlns="http://www.w3.org/2000/svg" xmlns:xlink="http://www.w3.org/1999/xlink" width="400" height="400" viewBox="0, 0, 400,400"><g id="svgg"><path id="path0" d="M181.200 0.553 C 181.200 1.543,184.502 1.900,188.544 1.346 C 192.436 0.812,190.780 0.000,185.800 0.000 C 182.150 0.000,181.200 0.114,181.200 0.553 M209.600 0.546 C 209.600 1.401,215.554 1.977,217.900 1.348 C 220.511 0.648,218.732 0.000,214.200 0.000 C 210.581 0.000,209.600 0.116,209.600 0.546 M165.200 2.213 C 165.200 4.259,168.886 4.316,169.127 2.274 C 169.249 1.233,169.190 1.200,167.227 1.200 C 165.325 1.200,165.200 1.262,165.200 2.213 M230.800 2.161 C 230.800 3.310,232.502 4.076,233.902 3.558 C 235.845 2.839,235.079 1.200,232.800 1.200 C 230.955 1.200,230.800 1.274,230.800 2.161 M155.200 4.173 C 155.200 5.257,156.292 5.815,157.600 5.400 C 159.238 4.880,158.627 3.200,156.800 3.200 C 155.372 3.200,155.200 3.304,155.200 4.173 M241.888 3.985 C 241.614 5.034,242.553 5.749,243.795 5.437 C 244.530 5.252,244.800 4.919,244.800 4.192 C 244.800 2.873,242.227 2.690,241.888 3.985 M147.200 6.153 C 147.200 7.086,148.492 7.837,149.269 7.357 C 150.217 6.772,149.583 5.200,148.400 5.200 C 147.402 5.200,147.200 5.361,147.200 6.153 M250.400 6.176 C 250.400 7.344,250.922 7.742,252.004 7.399 C 253.388 6.960,253.065 5.200,251.600 5.200 C 250.594 5.200,250.400 5.358,250.400 6.176 M139.200 8.153 C 139.200 9.135,140.212 9.594,141.700 9.286 C 143.298 8.956,142.540 7.200,140.800 7.200 C 139.381 7.200,139.200 7.308,139.200 8.153 M258.000 8.167 C 258.000 9.270,258.451 9.513,260.064 9.276 C 262.062 8.983,261.664 7.200,259.600 7.200 C 258.175 7.200,258.000 7.306,258.000 8.167 M133.200 10.192 C 133.200 11.216,134.673 11.973,135.577 11.414 C 136.699 10.721,136.028 9.200,134.600 9.200 C 133.376 9.200,133.200 9.325,133.200 10.192 M264.000 10.213 C 264.000 11.373,264.762 11.797,266.201 11.436 C 268.049 10.972,267.573 9.200,265.600 9.200 C 264.155 9.200,264.000 9.298,264.000 10.213 M123.200 14.153 C 123.200 15.086,124.492 15.837,125.269 15.357 C 126.217 14.772,125.583 13.200,124.400 13.200 C 123.402 13.200,123.200 13.361,123.200 14.153 M274.400 14.176 C 274.400 15.386,274.867 15.699,276.182 15.369 C 277.906 14.936,277.601 13.200,275.800 13.200 C 274.582 13.200,274.400 13.327,274.400 14.176 M109.200 20.200 C 109.200 21.000,109.400 21.200,110.200 21.200 C 111.000 21.200,111.200 21.000,111.200 20.200 C 111.200 19.400,111.000 19.200,110.200 19.200 C 109.400 19.200,109.200 19.400,109.200 20.200 M288.800 20.173 C 288.800 21.053,288.976 21.200,290.028 21.200 C 291.072 21.200,291.237 21.066,291.128 20.300 C 290.927 18.885,288.800 18.770,288.800 20.173 M105.200 22.200 C 105.200 23.000,105.400 23.200,106.200 23.200 C 107.000 23.200,107.200 23.000,107.200 22.200 C 107.200 21.400,107.000 21.200,106.200 21.200 C 105.400 21.200,105.200 21.400,105.200 22.200 M292.800 22.173 C 292.800 23.053,292.976 23.200,294.028 23.200 C 295.072 23.200,295.237 23.066,295.128 22.300 C 294.927 20.885,292.800 20.770,292.800 22.173 M101.200 24.173 C 101.200 25.165,102.392 25.899,103.196 25.402 C 104.202 24.781,103.630 23.200,102.400 23.200 C 101.396 23.200,101.200 23.359,101.200 24.173 M296.400 24.176 C 296.400 25.386,296.867 25.699,298.182 25.369 C 299.906 24.936,299.601 23.200,297.800 23.200 C 296.582 23.200,296.400 23.327,296.400 24.176 M97.200 26.173 C 97.200 27.165,98.392 27.899,99.196 27.402 C 100.202 26.781,99.630 25.200,98.400 25.200 C 97.396 25.200,97.200 25.359,97.200 26.173 M300.400 26.176 C 300.400 27.386,300.867 27.699,302.182 27.369 C 303.906 26.936,303.601 25.200,301.800 25.200 C 300.582 25.200,300.400 25.327,300.400 26.176 M91.200 30.153 C 91.200 31.086,92.492 31.837,93.269 31.357 C 94.217 30.772,93.583 29.200,92.400 29.200 C 91.402 29.200,91.200 29.361,91.200 30.153 M306.406 29.900 C 306.416 31.056,306.971 31.585,307.914 31.338 C 309.385 30.954,309.127 29.200,307.600 29.200 C 306.721 29.200,306.402 29.388,306.406 29.900 M85.200 34.153 C 85.200 35.055,86.795 35.872,87.391 35.276 C 88.156 34.510,87.531 33.200,86.400 33.200 C 85.402 33.200,85.200 33.361,85.200 34.153 M312.800 34.345 C 312.800 35.350,312.922 35.466,313.800 35.298 C 314.533 35.158,314.800 34.853,314.800 34.153 C 314.800 33.403,314.587 33.200,313.800 33.200 C 312.966 33.200,312.800 33.390,312.800 34.345 M79.200 38.400 C 79.200 39.467,79.333 39.600,80.400 39.600 C 81.467 39.600,81.600 39.467,81.600 38.400 C 81.600 37.333,81.467 37.200,80.400 37.200 C 79.333 37.200,79.200 37.333,79.200 38.400 M318.473 38.300 C 318.674 40.043,320.800 40.158,320.800 38.427 C 320.800 37.324,320.676 37.200,319.573 37.200 C 318.471 37.200,318.360 37.312,318.473 38.300 M69.200 46.200 C 69.200 47.000,69.000 47.200,68.200 47.200 C 67.400 47.200,67.200 47.400,67.200 48.200 C 67.200 49.353,68.934 49.671,69.347 48.594 C 69.475 48.261,70.034 47.815,70.590 47.604 C 72.160 47.007,72.017 45.200,70.400 45.200 C 69.387 45.200,69.200 45.356,69.200 46.200 M328.400 46.221 C 328.400 46.995,328.689 47.343,329.600 47.660 C 330.260 47.890,330.800 48.331,330.800 48.639 C 330.800 48.971,331.209 49.200,331.800 49.200 C 332.600 49.200,332.800 49.000,332.800 48.200 C 332.800 47.400,332.600 47.200,331.800 47.200 C 331.000 47.200,330.800 47.000,330.800 46.200 C 330.800 45.356,330.613 45.200,329.600 45.200 C 328.580 45.200,328.400 45.353,328.400 46.221 M57.200 58.192 C 57.200 59.149,58.855 60.079,59.467 59.467 C 59.593 59.340,59.581 58.779,59.440 58.219 C 59.076 56.768,57.200 56.746,57.200 58.192 M340.587 58.040 C 340.266 59.052,340.841 59.727,341.858 59.534 C 342.324 59.446,342.647 58.985,342.727 58.297 C 342.890 56.882,341.026 56.658,340.587 58.040 M47.200 68.200 C 47.200 69.000,47.000 69.200,46.200 69.200 C 45.356 69.200,45.200 69.387,45.200 70.400 C 45.200 72.017,47.007 72.160,47.604 70.590 C 47.815 70.034,48.261 69.475,48.594 69.347 C 49.671 68.934,49.353 67.200,48.200 67.200 C 47.400 67.200,47.200 67.400,47.200 68.200 M350.800 68.173 C 350.800 68.784,351.088 69.238,351.575 69.392 C 352.001 69.527,352.406 70.034,352.475 70.519 C 352.695 72.071,354.800 71.987,354.800 70.427 C 354.800 69.385,354.649 69.200,353.800 69.200 C 353.000 69.200,352.800 69.000,352.800 68.200 C 352.800 67.400,352.600 67.200,351.800 67.200 C 351.007 67.200,350.800 67.402,350.800 68.173 M37.200 80.400 C 37.200 81.467,37.333 81.600,38.400 81.600 C 39.467 81.600,39.600 81.467,39.600 80.400 C 39.600 79.333,39.467 79.200,38.400 79.200 C 37.333 79.200,37.200 79.333,37.200 80.400 M360.473 80.300 C 360.674 82.043,362.800 82.158,362.800 80.427 C 362.800 79.324,362.676 79.200,361.573 79.200 C 360.471 79.200,360.360 79.312,360.473 80.300 M33.200 86.400 C 33.200 87.390,33.363 87.600,34.133 87.600 C 35.348 87.600,35.525 87.386,35.296 86.191 C 34.995 84.614,33.200 84.793,33.200 86.400 M364.800 86.400 C 364.800 87.413,364.956 87.600,365.800 87.600 C 366.644 87.600,366.800 87.413,366.800 86.400 C 366.800 85.387,366.644 85.200,365.800 85.200 C 364.956 85.200,364.800 85.387,364.800 86.400 M29.200 92.400 C 29.200 93.406,29.358 93.600,30.176 93.600 C 31.352 93.600,31.636 93.225,31.334 92.069 C 30.953 90.613,29.200 90.885,29.200 92.400 M368.800 92.400 C 368.800 93.413,368.956 93.600,369.800 93.600 C 370.644 93.600,370.800 93.413,370.800 92.400 C 370.800 91.387,370.644 91.200,369.800 91.200 C 368.956 91.200,368.800 91.387,368.800 92.400 M25.200 98.400 C 25.200 99.406,25.358 99.600,26.176 99.600 C 27.344 99.600,27.742 99.078,27.399 97.996 C 26.960 96.612,25.200 96.935,25.200 98.400 M372.666 98.069 C 372.364 99.225,372.648 99.600,373.824 99.600 C 374.642 99.600,374.800 99.406,374.800 98.400 C 374.800 96.885,373.047 96.613,372.666 98.069 M52.000 98.270 C 47.123 98.575,47.180 98.153,50.593 108.600 C 50.952 109.700,51.601 112.107,52.035 113.948 C 52.469 115.790,52.990 117.608,53.194 117.989 C 53.398 118.370,53.837 119.988,54.170 121.585 C 54.503 123.182,54.943 124.693,55.149 124.944 C 55.354 125.195,55.734 126.210,55.993 127.200 C 56.253 128.190,56.761 129.450,57.122 130.000 C 58.158 131.577,59.586 135.149,60.400 138.200 C 61.694 143.054,62.695 146.235,63.305 147.437 C 63.630 148.077,64.027 149.496,64.186 150.591 C 64.346 151.685,64.819 153.253,65.238 154.075 C 65.657 154.896,66.000 156.021,66.000 156.575 C 66.000 157.129,66.423 158.711,66.940 160.091 C 67.458 161.471,68.004 163.267,68.155 164.083 C 68.306 164.898,68.771 166.338,69.189 167.283 C 69.606 168.227,70.076 169.990,70.233 171.200 C 70.390 172.410,70.852 174.027,71.260 174.794 C 71.667 175.561,72.000 176.593,72.000 177.088 C 72.000 177.583,72.540 179.613,73.200 181.600 C 73.860 183.587,74.400 185.619,74.400 186.117 C 74.400 186.615,74.658 187.390,74.972 187.839 C 75.287 188.289,75.849 189.994,76.221 191.628 C 76.593 193.263,77.146 195.167,77.449 195.860 C 77.752 196.554,78.000 197.371,78.000 197.676 C 78.000 197.981,78.362 198.941,78.805 199.809 C 79.247 200.677,79.806 202.560,80.047 203.994 C 80.287 205.427,80.730 206.990,81.030 207.467 C 81.330 207.944,81.872 209.654,82.235 211.267 C 82.597 212.880,83.039 214.382,83.216 214.603 C 83.393 214.825,83.827 216.253,84.180 217.776 C 84.533 219.299,84.983 220.739,85.180 220.976 C 85.377 221.213,85.823 222.637,86.172 224.140 C 86.520 225.643,87.074 227.256,87.403 227.725 C 87.731 228.194,88.002 229.123,88.005 229.789 C 88.009 230.945,88.652 233.616,89.549 236.200 C 89.777 236.860,90.518 239.290,91.194 241.600 C 91.871 243.910,92.702 246.610,93.042 247.600 C 93.382 248.590,93.894 250.435,94.180 251.699 C 94.466 252.963,94.935 254.280,95.221 254.625 C 95.507 254.970,95.876 256.246,96.041 257.462 C 96.206 258.677,96.591 259.970,96.896 260.336 C 97.201 260.701,97.679 262.160,97.957 263.578 C 98.236 264.997,98.809 266.834,99.232 267.662 C 99.654 268.491,100.000 269.621,100.000 270.175 C 100.000 270.729,100.423 272.311,100.940 273.691 C 101.458 275.071,102.010 276.899,102.169 277.754 C 102.327 278.609,102.794 279.938,103.206 280.707 C 103.618 281.476,104.072 283.117,104.213 284.353 C 104.355 285.589,104.905 287.890,105.436 289.467 C 105.966 291.044,106.403 292.574,106.406 292.867 C 106.409 293.160,107.018 294.930,107.759 296.800 C 109.849 302.074,111.447 303.621,118.400 307.099 L 120.600 308.200 139.400 308.200 L 158.200 308.200 160.919 306.800 C 165.326 304.530,167.923 301.418,170.598 295.200 C 170.930 294.430,171.819 292.810,172.575 291.600 C 173.331 290.390,174.161 288.500,174.418 287.400 C 174.675 286.300,175.433 284.230,176.101 282.800 C 177.269 280.303,179.934 273.644,181.783 268.600 C 182.268 267.280,182.949 265.654,183.298 264.986 C 183.646 264.319,184.056 263.110,184.208 262.300 C 184.359 261.491,184.725 260.628,185.020 260.383 C 185.315 260.139,185.857 259.032,186.225 257.924 C 186.593 256.816,187.142 255.435,187.445 254.855 C 187.747 254.275,187.997 253.440,187.999 253.000 C 188.001 252.560,188.542 251.120,189.200 249.800 C 189.858 248.480,190.398 247.100,190.398 246.734 C 190.399 246.368,191.188 244.478,192.151 242.534 C 193.753 239.301,195.989 233.732,197.505 229.200 C 198.872 225.114,200.749 220.603,201.063 220.647 C 201.551 220.714,203.871 225.557,204.192 227.178 C 204.343 227.936,205.183 230.276,206.059 232.378 C 206.936 234.480,207.916 237.047,208.237 238.083 C 208.558 239.118,208.984 240.067,209.184 240.190 C 209.384 240.314,209.834 241.401,210.185 242.607 C 210.536 243.813,210.997 244.800,211.211 244.800 C 211.425 244.800,211.600 245.182,211.600 245.650 C 211.600 246.117,212.230 247.895,213.000 249.600 C 213.770 251.305,214.400 252.911,214.400 253.169 C 214.400 253.426,215.194 255.293,216.165 257.318 C 217.135 259.343,218.046 261.450,218.189 262.000 C 218.332 262.550,219.139 264.620,219.982 266.600 C 222.316 272.081,223.920 276.091,224.220 277.200 C 224.369 277.750,224.811 278.740,225.202 279.400 C 225.594 280.060,226.033 281.163,226.178 281.851 C 226.323 282.539,226.882 283.699,227.421 284.428 C 227.959 285.158,228.400 285.980,228.400 286.255 C 228.400 286.530,228.744 287.350,229.164 288.077 C 229.584 288.805,230.205 290.235,230.544 291.255 C 230.883 292.275,231.889 294.729,232.780 296.708 C 233.671 298.687,234.400 300.474,234.400 300.680 C 234.400 301.197,238.631 304.933,241.244 306.723 L 243.400 308.200 262.408 308.200 L 281.417 308.200 284.408 307.014 C 287.629 305.738,291.216 303.357,292.215 301.833 C 294.009 299.095,296.742 290.949,297.662 285.600 C 297.870 284.390,298.458 282.500,298.969 281.400 C 299.481 280.300,300.021 278.680,300.170 277.800 C 300.412 276.368,301.734 271.845,302.857 268.600 C 303.086 267.940,303.676 265.870,304.169 263.999 C 304.662 262.129,305.276 260.206,305.533 259.726 C 305.790 259.246,306.000 258.519,306.000 258.111 C 306.000 257.703,306.368 256.656,306.819 255.785 C 307.269 254.913,307.883 253.030,308.183 251.600 C 308.483 250.170,309.008 248.190,309.349 247.200 C 310.801 242.985,311.688 240.050,312.192 237.800 C 312.487 236.480,313.001 234.881,313.334 234.248 C 313.667 233.614,314.062 232.174,314.213 231.048 C 314.363 229.921,314.756 228.695,315.085 228.322 C 315.414 227.949,315.942 226.160,316.256 224.346 C 316.571 222.532,316.987 220.856,317.181 220.623 C 317.375 220.389,317.898 218.849,318.344 217.199 C 320.172 210.434,320.777 208.391,321.165 207.665 C 322.013 206.082,322.469 203.090,321.917 202.740 C 321.276 202.333,273.163 202.300,272.570 202.706 C 272.023 203.081,270.895 206.269,270.153 209.542 C 269.836 210.940,269.333 212.560,269.034 213.142 C 268.736 213.724,268.270 215.280,267.999 216.600 C 267.728 217.920,267.167 219.478,266.753 220.062 C 266.339 220.646,266.000 221.492,266.000 221.942 C 266.000 222.393,265.712 223.805,265.360 225.080 C 265.008 226.356,264.478 228.371,264.183 229.557 C 263.439 232.543,262.990 232.855,262.167 230.959 C 261.795 230.101,261.155 228.745,260.745 227.946 C 260.335 227.146,260.000 226.197,260.000 225.838 C 260.000 225.479,259.567 224.334,259.039 223.293 C 257.802 220.858,256.980 218.998,256.256 217.000 C 255.391 214.610,253.665 210.417,252.781 208.556 C 252.351 207.652,252.000 206.749,252.000 206.549 C 252.000 206.349,251.578 205.559,251.063 204.793 C 250.548 204.027,250.014 202.825,249.878 202.123 C 249.741 201.420,248.902 199.309,248.015 197.431 C 247.127 195.553,246.400 193.781,246.400 193.493 C 246.400 193.205,246.044 192.271,245.609 191.417 C 245.174 190.564,244.609 189.221,244.355 188.433 C 244.100 187.645,243.488 186.280,242.994 185.400 C 242.501 184.520,241.984 183.187,241.846 182.438 C 241.708 181.689,241.384 180.821,241.125 180.509 C 240.408 179.646,238.785 175.688,238.045 173.000 C 237.428 170.760,236.801 169.455,234.072 164.743 C 232.660 162.304,229.265 158.474,228.224 158.146 C 227.771 158.003,226.500 157.136,225.400 156.219 C 221.149 152.674,215.786 150.030,209.800 148.525 C 203.641 146.977,188.656 148.591,185.445 151.148 C 185.200 151.343,184.560 151.637,184.022 151.803 C 182.777 152.186,179.388 154.264,178.223 155.360 C 176.127 157.331,172.635 160.235,171.847 160.661 C 170.057 161.631,164.800 169.915,164.800 171.766 C 164.800 172.592,162.873 177.281,161.251 180.400 C 160.622 181.610,159.789 183.590,159.401 184.800 C 159.012 186.010,158.202 188.006,157.599 189.236 C 156.997 190.466,156.284 192.141,156.014 192.958 C 155.744 193.776,154.730 195.999,153.762 197.897 C 152.793 199.796,152.000 201.563,152.000 201.825 C 152.000 202.086,151.103 204.258,150.006 206.650 C 148.909 209.043,148.009 211.234,148.006 211.521 C 148.003 211.807,147.650 212.707,147.223 213.521 C 145.494 216.813,144.379 219.272,142.997 222.845 C 142.198 224.910,141.196 227.332,140.772 228.226 C 140.347 229.121,140.000 230.121,140.000 230.450 C 140.000 232.448,138.911 232.517,138.181 230.565 C 137.778 229.484,137.223 228.240,136.948 227.800 C 136.674 227.360,136.241 225.740,135.987 224.200 C 135.733 222.660,135.288 220.950,134.999 220.400 C 134.710 219.850,134.339 218.680,134.175 217.800 C 134.011 216.920,133.455 214.988,132.939 213.508 C 132.422 212.027,132.000 210.475,132.000 210.058 C 132.000 209.642,131.650 208.511,131.223 207.544 C 130.795 206.578,130.249 204.890,130.008 203.794 C 129.768 202.697,129.237 200.900,128.828 199.800 C 128.418 198.700,127.875 196.990,127.620 196.000 C 126.838 192.962,125.684 189.081,125.063 187.400 C 124.737 186.520,124.242 184.720,123.961 183.400 C 123.681 182.080,123.232 180.640,122.964 180.200 C 122.696 179.760,122.354 178.590,122.204 177.600 C 122.055 176.610,121.614 175.170,121.225 174.400 C 120.835 173.630,120.388 171.920,120.229 170.600 C 119.947 168.248,118.678 163.772,117.169 159.800 C 116.750 158.700,116.209 156.720,115.966 155.401 C 115.677 153.836,115.070 152.376,114.220 151.201 C 113.352 150.001,112.752 148.539,112.423 146.821 C 112.151 145.403,111.513 143.153,111.005 141.821 C 110.497 140.490,109.601 137.690,109.015 135.600 C 108.428 133.510,107.517 130.450,106.990 128.800 C 106.462 127.150,105.906 125.080,105.755 124.200 C 105.603 123.320,105.250 122.240,104.971 121.800 C 104.691 121.360,104.335 120.100,104.179 119.000 C 104.023 117.900,103.555 116.326,103.140 115.501 C 102.725 114.677,102.273 113.147,102.136 112.101 C 102.000 111.056,101.636 109.701,101.328 109.090 C 101.021 108.480,100.582 106.950,100.353 105.690 C 99.845 102.891,98.150 98.970,97.257 98.526 C 96.627 98.213,56.532 97.986,52.000 98.270 M306.881 98.273 C 304.351 98.476,303.650 99.342,302.599 103.559 C 302.237 105.012,301.603 107.100,301.191 108.200 C 300.779 109.300,300.328 110.920,300.190 111.800 C 300.051 112.680,299.501 114.707,298.968 116.304 C 298.436 117.900,297.999 119.520,297.999 119.904 C 297.998 120.287,297.638 121.189,297.199 121.910 C 296.759 122.630,296.400 123.564,296.400 123.985 C 296.400 124.406,295.940 126.247,295.377 128.075 C 293.029 135.703,292.410 137.882,292.158 139.400 C 292.012 140.280,291.581 141.630,291.200 142.400 C 290.820 143.170,289.937 145.870,289.239 148.400 C 287.979 152.968,287.225 154.946,285.427 158.400 C 284.912 159.390,284.290 161.154,284.045 162.320 C 283.800 163.486,283.343 164.937,283.028 165.545 C 282.714 166.153,282.160 167.989,281.798 169.625 C 281.435 171.261,280.952 173.249,280.724 174.043 C 279.657 177.759,278.526 177.600,306.150 177.599 C 332.554 177.597,331.149 177.792,331.960 174.010 C 332.202 172.883,332.400 171.621,332.400 171.205 C 332.400 170.482,333.938 165.117,334.867 162.600 C 335.111 161.940,335.708 159.960,336.193 158.200 C 336.679 156.440,337.284 154.493,337.538 153.874 C 337.792 153.255,338.000 152.528,338.000 152.259 C 338.000 151.989,338.362 151.059,338.805 150.191 C 339.247 149.323,339.803 147.499,340.040 146.138 C 340.318 144.541,340.959 142.906,341.846 141.531 C 342.602 140.359,343.399 138.680,343.617 137.800 C 343.835 136.920,344.357 135.300,344.777 134.200 C 345.197 133.100,345.665 131.570,345.818 130.800 C 345.970 130.030,346.524 128.254,347.048 126.852 C 347.571 125.451,348.000 123.849,348.000 123.291 C 348.000 122.733,348.464 121.295,349.032 120.095 C 349.600 118.895,350.165 117.258,350.289 116.457 C 350.412 115.656,350.757 114.514,351.056 113.920 C 351.355 113.326,351.600 112.458,351.600 111.990 C 351.600 111.523,352.071 109.759,352.647 108.071 C 354.657 102.179,355.203 98.904,354.230 98.584 C 353.316 98.283,310.277 98.001,306.881 98.273 M23.200 102.400 C 23.200 103.406,23.358 103.600,24.176 103.600 C 25.344 103.600,25.742 103.078,25.399 101.996 C 24.960 100.612,23.200 100.935,23.200 102.400 M374.666 102.069 C 374.364 103.225,374.648 103.600,375.824 103.600 C 376.642 103.600,376.800 103.406,376.800 102.400 C 376.800 100.885,375.047 100.613,374.666 102.069 M21.200 106.200 C 21.200 107.000,21.400 107.200,22.200 107.200 C 23.000 107.200,23.200 107.000,23.200 106.200 C 23.200 105.400,23.000 105.200,22.200 105.200 C 21.400 105.200,21.200 105.400,21.200 106.200 M376.800 106.200 C 376.800 107.000,377.000 107.200,377.800 107.200 C 378.600 107.200,378.800 107.000,378.800 106.200 C 378.800 105.400,378.600 105.200,377.800 105.200 C 377.000 105.200,376.800 105.400,376.800 106.200 M19.200 110.200 C 19.200 111.000,19.400 111.200,20.200 111.200 C 21.000 111.200,21.200 111.000,21.200 110.200 C 21.200 109.400,21.000 109.200,20.200 109.200 C 19.400 109.200,19.200 109.400,19.200 110.200 M378.800 110.200 C 378.800 111.000,379.000 111.200,379.800 111.200 C 380.600 111.200,380.800 111.000,380.800 110.200 C 380.800 109.400,380.600 109.200,379.800 109.200 C 379.000 109.200,378.800 109.400,378.800 110.200 M13.200 124.400 C 13.200 125.406,13.358 125.600,14.176 125.600 C 15.352 125.600,15.636 125.225,15.334 124.069 C 14.953 122.613,13.200 122.885,13.200 124.400 M384.704 124.191 C 384.475 125.386,384.652 125.600,385.867 125.600 C 386.637 125.600,386.800 125.390,386.800 124.400 C 386.800 122.793,385.005 122.614,384.704 124.191 M9.200 134.600 C 9.200 135.818,9.327 136.000,10.176 136.000 C 11.377 136.000,11.751 135.456,11.430 134.177 C 11.004 132.480,9.200 132.822,9.200 134.600 M388.570 134.177 C 388.249 135.456,388.623 136.000,389.824 136.000 C 390.673 136.000,390.800 135.818,390.800 134.600 C 390.800 132.822,388.996 132.480,388.570 134.177 M7.200 140.800 C 7.200 142.227,7.305 142.400,8.171 142.400 C 9.203 142.400,9.552 141.670,9.269 140.100 C 8.948 138.320,7.200 138.912,7.200 140.800 M390.800 140.800 C 390.800 142.240,390.900 142.400,391.800 142.400 C 392.700 142.400,392.800 142.240,392.800 140.800 C 392.800 139.360,392.700 139.200,391.800 139.200 C 390.900 139.200,390.800 139.360,390.800 140.800 M5.200 148.400 C 5.200 149.406,5.358 149.600,6.176 149.600 C 7.352 149.600,7.636 149.225,7.334 148.069 C 6.953 146.613,5.200 146.885,5.200 148.400 M392.704 148.191 C 392.475 149.386,392.652 149.600,393.867 149.600 C 394.637 149.600,394.800 149.390,394.800 148.400 C 394.800 146.793,393.005 146.614,392.704 148.191 M3.200 156.800 C 3.200 158.228,3.304 158.400,4.173 158.400 C 5.257 158.400,5.815 157.308,5.400 156.000 C 4.880 154.362,3.200 154.973,3.200 156.800 M394.644 156.168 C 394.294 157.563,394.743 158.400,395.843 158.400 C 396.693 158.400,396.800 158.221,396.800 156.800 C 396.800 154.857,395.098 154.358,394.644 156.168 M1.200 167.227 C 1.200 169.190,1.233 169.249,2.274 169.127 C 4.316 168.886,4.259 165.200,2.213 165.200 C 1.262 165.200,1.200 165.325,1.200 167.227 M396.564 166.200 C 396.139 167.893,396.681 169.200,397.808 169.200 C 398.732 169.200,398.800 169.063,398.800 167.200 C 398.800 164.867,397.091 164.102,396.564 166.200 M0.000 185.800 C 0.000 190.780,0.812 192.436,1.346 188.544 C 1.900 184.502,1.543 181.200,0.553 181.200 C 0.114 181.200,0.000 182.150,0.000 185.800 M398.601 182.796 C 398.192 185.215,398.769 190.400,399.447 190.400 C 399.886 190.400,400.000 189.448,400.000 185.800 C 400.000 180.923,399.205 179.217,398.601 182.796 M0.000 214.200 C 0.000 217.850,0.114 218.800,0.553 218.800 C 1.543 218.800,1.900 215.498,1.346 211.456 C 0.812 207.564,0.000 209.220,0.000 214.200 M398.612 212.604 C 398.279 216.167,398.628 218.800,399.435 218.800 C 399.889 218.800,400.000 217.895,400.000 214.200 C 400.000 208.538,399.091 207.493,398.612 212.604 M1.200 232.800 C 1.200 234.673,1.264 234.800,2.213 234.800 C 3.465 234.800,4.055 233.478,3.506 231.902 C 2.766 229.780,1.200 230.390,1.200 232.800 M396.602 231.991 C 396.217 233.742,396.679 234.800,397.827 234.800 C 398.728 234.800,398.800 234.652,398.800 232.800 C 398.800 230.336,397.103 229.712,396.602 231.991 M3.900 241.896 C 2.673 242.181,2.937 244.800,4.192 244.800 C 4.926 244.800,5.252 244.530,5.444 243.766 C 5.744 242.572,4.979 241.646,3.900 241.896 M395.046 242.211 C 393.940 243.317,394.410 244.800,395.867 244.800 C 396.753 244.800,396.836 244.658,396.724 243.331 C 396.583 241.662,395.991 241.266,395.046 242.211 M5.200 251.600 C 5.200 253.065,6.960 253.388,7.399 252.004 C 7.742 250.922,7.344 250.400,6.176 250.400 C 5.358 250.400,5.200 250.594,5.200 251.600 M392.643 250.731 C 392.163 251.508,392.914 252.800,393.847 252.800 C 394.639 252.800,394.800 252.598,394.800 251.600 C 394.800 250.417,393.228 249.783,392.643 250.731 M391.500 257.900 C 390.267 258.180,390.538 260.800,391.800 260.800 C 392.673 260.800,392.800 260.625,392.800 259.424 C 392.800 257.927,392.570 257.657,391.500 257.900 M7.200 259.400 C 7.200 261.125,8.966 261.537,9.282 259.885 C 9.544 258.514,9.239 258.000,8.167 258.000 C 7.329 258.000,7.200 258.186,7.200 259.400 M9.200 265.400 C 9.200 266.749,9.279 266.844,10.300 266.727 C 11.227 266.620,11.400 266.412,11.400 265.400 C 11.400 264.388,11.227 264.180,10.300 264.073 C 9.279 263.956,9.200 264.051,9.200 265.400 M388.618 264.744 C 388.252 265.897,388.789 266.800,389.843 266.800 C 390.670 266.800,390.800 266.610,390.800 265.400 C 390.800 263.795,389.083 263.278,388.618 264.744 M13.200 275.600 C 13.200 277.065,14.960 277.388,15.399 276.004 C 15.742 274.922,15.344 274.400,14.176 274.400 C 13.358 274.400,13.200 274.594,13.200 275.600 M384.643 274.731 C 384.163 275.508,384.914 276.800,385.847 276.800 C 386.639 276.800,386.800 276.598,386.800 275.600 C 386.800 274.417,385.228 273.783,384.643 274.731 M19.200 289.800 C 19.200 290.600,19.400 290.800,20.200 290.800 C 21.000 290.800,21.200 290.600,21.200 289.800 C 21.200 289.000,21.000 288.800,20.200 288.800 C 19.400 288.800,19.200 289.000,19.200 289.800 M378.800 289.800 C 378.800 290.600,379.000 290.800,379.800 290.800 C 380.600 290.800,380.800 290.600,380.800 289.800 C 380.800 289.000,380.600 288.800,379.800 288.800 C 379.000 288.800,378.800 289.000,378.800 289.800 M21.200 293.800 C 21.200 294.600,21.400 294.800,22.200 294.800 C 23.000 294.800,23.200 294.600,23.200 293.800 C 23.200 293.000,23.000 292.800,22.200 292.800 C 21.400 292.800,21.200 293.000,21.200 293.800 M376.800 293.800 C 376.800 294.600,377.000 294.800,377.800 294.800 C 378.600 294.800,378.800 294.600,378.800 293.800 C 378.800 293.000,378.600 292.800,377.800 292.800 C 377.000 292.800,376.800 293.000,376.800 293.800 M23.200 297.600 C 23.200 299.065,24.960 299.388,25.399 298.004 C 25.742 296.922,25.344 296.400,24.176 296.400 C 23.358 296.400,23.200 296.594,23.200 297.600 M374.643 296.731 C 374.163 297.508,374.914 298.800,375.847 298.800 C 376.639 298.800,376.800 298.598,376.800 297.600 C 376.800 296.417,375.228 295.783,374.643 296.731 M25.200 301.600 C 25.200 303.065,26.960 303.388,27.399 302.004 C 27.742 300.922,27.344 300.400,26.176 300.400 C 25.358 300.400,25.200 300.594,25.200 301.600 M372.643 300.731 C 372.163 301.508,372.914 302.800,373.847 302.800 C 374.639 302.800,374.800 302.598,374.800 301.600 C 374.800 300.417,373.228 299.783,372.643 300.731 M29.200 307.600 C 29.200 308.598,29.361 308.800,30.153 308.800 C 31.224 308.800,31.918 307.250,31.085 306.720 C 29.976 306.015,29.200 306.377,29.200 307.600 M369.067 306.667 C 368.337 307.396,368.820 308.800,369.800 308.800 C 370.644 308.800,370.800 308.613,370.800 307.600 C 370.800 306.441,369.820 305.913,369.067 306.667 M33.200 313.800 C 33.200 314.587,33.403 314.800,34.153 314.800 C 34.853 314.800,35.158 314.533,35.298 313.800 C 35.466 312.922,35.350 312.800,34.345 312.800 C 33.390 312.800,33.200 312.966,33.200 313.800 M364.800 313.800 C 364.800 314.600,365.000 314.800,365.800 314.800 C 366.600 314.800,366.800 314.600,366.800 313.800 C 366.800 313.000,366.600 312.800,365.800 312.800 C 365.000 312.800,364.800 313.000,364.800 313.800 M37.200 319.573 C 37.200 320.676,37.324 320.800,38.427 320.800 C 40.158 320.800,40.043 318.674,38.300 318.473 C 37.312 318.360,37.200 318.471,37.200 319.573 M360.667 318.667 C 359.852 319.481,360.429 320.800,361.600 320.800 C 362.667 320.800,362.800 320.667,362.800 319.600 C 362.800 318.429,361.481 317.852,360.667 318.667 M45.200 329.600 C 45.200 330.613,45.356 330.800,46.200 330.800 C 47.000 330.800,47.200 331.000,47.200 331.800 C 47.200 332.600,47.400 332.800,48.200 332.800 C 49.000 332.800,49.200 332.600,49.200 331.800 C 49.200 331.209,48.971 330.800,48.639 330.800 C 48.331 330.800,47.890 330.260,47.660 329.600 C 47.343 328.689,46.995 328.400,46.221 328.400 C 45.353 328.400,45.200 328.580,45.200 329.600 M352.667 328.667 C 352.520 328.813,352.400 329.280,352.400 329.704 C 352.400 330.138,352.051 330.566,351.600 330.684 C 350.342 331.013,350.511 332.800,351.800 332.800 C 352.600 332.800,352.800 332.600,352.800 331.800 C 352.800 331.000,353.000 330.800,353.800 330.800 C 354.644 330.800,354.800 330.613,354.800 329.600 C 354.800 328.429,353.481 327.852,352.667 328.667 M57.700 340.660 C 56.608 341.111,57.117 342.863,58.300 342.727 C 59.171 342.626,59.400 342.393,59.400 341.605 C 59.400 340.621,58.716 340.241,57.700 340.660 M340.598 340.804 C 340.101 341.608,340.835 342.800,341.827 342.800 C 342.587 342.800,342.800 342.590,342.800 341.843 C 342.800 340.630,341.178 339.864,340.598 340.804 M67.200 351.800 C 67.200 352.600,67.400 352.800,68.200 352.800 C 69.000 352.800,69.200 353.000,69.200 353.800 C 69.200 354.649,69.385 354.800,70.427 354.800 C 71.987 354.800,72.071 352.695,70.519 352.475 C 70.034 352.406,69.527 352.001,69.392 351.575 C 69.001 350.344,67.200 350.529,67.200 351.800 M330.693 351.566 C 330.582 351.989,330.068 352.392,329.546 352.466 C 327.938 352.694,327.963 354.800,329.573 354.800 C 330.615 354.800,330.800 354.649,330.800 353.800 C 330.800 353.000,331.000 352.800,331.800 352.800 C 332.600 352.800,332.800 352.600,332.800 351.800 C 332.800 350.536,331.014 350.338,330.693 351.566 M79.200 361.573 C 79.200 362.676,79.324 362.800,80.427 362.800 C 82.158 362.800,82.043 360.674,80.300 360.473 C 79.312 360.360,79.200 360.471,79.200 361.573 M318.667 360.667 C 317.852 361.481,318.429 362.800,319.600 362.800 C 320.667 362.800,320.800 362.667,320.800 361.600 C 320.800 360.429,319.481 359.852,318.667 360.667 M85.200 365.800 C 85.200 366.644,85.387 366.800,86.400 366.800 C 87.413 366.800,87.600 366.644,87.600 365.800 C 87.600 364.956,87.413 364.800,86.400 364.800 C 85.387 364.800,85.200 364.956,85.200 365.800 M312.800 365.800 C 312.800 366.600,313.000 366.800,313.800 366.800 C 314.600 366.800,314.800 366.600,314.800 365.800 C 314.800 365.000,314.600 364.800,313.800 364.800 C 313.000 364.800,312.800 365.000,312.800 365.800 M91.200 369.800 C 91.200 370.644,91.387 370.800,92.400 370.800 C 93.413 370.800,93.600 370.644,93.600 369.800 C 93.600 368.956,93.413 368.800,92.400 368.800 C 91.387 368.800,91.200 368.956,91.200 369.800 M306.667 369.067 C 305.913 369.820,306.441 370.800,307.600 370.800 C 308.613 370.800,308.800 370.644,308.800 369.800 C 308.800 368.820,307.396 368.337,306.667 369.067 M97.900 372.678 C 96.569 373.021,97.010 374.800,98.427 374.800 C 99.521 374.800,99.639 374.685,99.527 373.731 C 99.393 372.605,99.049 372.382,97.900 372.678 M300.679 372.654 C 299.782 373.551,300.421 374.849,301.700 374.725 C 303.076 374.593,303.970 372.800,302.661 372.800 C 302.333 372.800,301.816 372.704,301.512 372.588 C 301.207 372.471,300.833 372.501,300.679 372.654 M101.900 374.678 C 100.569 375.021,101.010 376.800,102.427 376.800 C 103.521 376.800,103.639 376.685,103.527 375.731 C 103.393 374.605,103.049 374.382,101.900 374.678 M296.679 374.654 C 295.778 375.556,296.428 376.800,297.800 376.800 C 299.027 376.800,299.200 376.676,299.200 375.800 C 299.200 375.203,298.971 374.800,298.633 374.800 C 298.321 374.800,297.816 374.704,297.512 374.588 C 297.207 374.471,296.833 374.501,296.679 374.654 M105.200 377.800 C 105.200 378.600,105.400 378.800,106.200 378.800 C 107.000 378.800,107.200 378.600,107.200 377.800 C 107.200 377.000,107.000 376.800,106.200 376.800 C 105.400 376.800,105.200 377.000,105.200 377.800 M292.800 377.800 C 292.800 378.644,292.987 378.800,294.000 378.800 C 295.013 378.800,295.200 378.644,295.200 377.800 C 295.200 376.956,295.013 376.800,294.000 376.800 C 292.987 376.800,292.800 376.956,292.800 377.800 M109.200 379.800 C 109.200 380.600,109.400 380.800,110.200 380.800 C 111.000 380.800,111.200 380.600,111.200 379.800 C 111.200 379.000,111.000 378.800,110.200 378.800 C 109.400 378.800,109.200 379.000,109.200 379.800 M288.800 379.800 C 288.800 380.644,288.987 380.800,290.000 380.800 C 291.013 380.800,291.200 380.644,291.200 379.800 C 291.200 378.956,291.013 378.800,290.000 378.800 C 288.987 378.800,288.800 378.956,288.800 379.800 M124.100 384.707 C 122.591 384.956,122.855 386.800,124.400 386.800 C 125.406 386.800,125.600 386.642,125.600 385.824 C 125.600 384.694,125.342 384.503,124.100 384.707 M274.885 384.705 C 273.636 385.121,274.369 386.800,275.800 386.800 C 277.008 386.800,277.200 386.670,277.200 385.847 C 277.200 384.897,276.034 384.322,274.885 384.705 M133.700 388.658 C 132.450 389.180,133.151 390.800,134.627 390.800 C 135.947 390.800,136.044 390.718,135.927 389.700 C 135.801 388.606,134.868 388.169,133.700 388.658 M264.500 388.665 C 263.149 389.210,263.969 390.800,265.600 390.800 C 267.019 390.800,267.200 390.692,267.200 389.847 C 267.200 388.718,265.841 388.124,264.500 388.665 M139.200 391.800 C 139.200 392.700,139.360 392.800,140.800 392.800 C 142.240 392.800,142.400 392.700,142.400 391.800 C 142.400 390.900,142.240 390.800,140.800 390.800 C 139.360 390.800,139.200 390.900,139.200 391.800 M257.890 391.577 C 257.616 392.625,257.871 392.800,259.667 392.800 C 261.036 392.800,261.200 392.693,261.200 391.800 C 261.200 390.466,258.233 390.266,257.890 391.577 M148.100 392.707 C 146.591 392.956,146.855 394.800,148.400 394.800 C 149.406 394.800,149.600 394.642,149.600 393.824 C 149.600 392.694,149.342 392.503,148.100 392.707 M250.679 392.654 C 249.854 393.479,250.421 394.800,251.600 394.800 C 252.613 394.800,252.800 394.644,252.800 393.800 C 252.800 393.250,252.635 392.800,252.433 392.800 C 252.231 392.800,251.816 392.704,251.512 392.588 C 251.207 392.471,250.833 392.501,250.679 392.654 M155.900 394.676 C 154.328 395.087,155.054 396.800,156.800 396.800 C 158.510 396.800,159.227 395.203,157.767 394.643 C 157.098 394.386,157.003 394.387,155.900 394.676 M242.211 395.046 C 241.266 395.991,241.662 396.583,243.331 396.724 C 244.658 396.836,244.800 396.753,244.800 395.867 C 244.800 394.410,243.317 393.940,242.211 395.046 M165.700 396.665 C 164.143 397.293,165.201 398.800,167.200 398.800 C 169.043 398.800,169.200 398.725,169.200 397.843 C 169.200 396.579,167.408 395.976,165.700 396.665 M231.500 396.676 C 229.687 397.150,230.697 398.800,232.800 398.800 C 234.643 398.800,234.800 398.725,234.800 397.843 C 234.800 396.554,233.595 396.128,231.500 396.676 M182.100 398.682 C 181.605 398.778,181.200 399.113,181.200 399.428 C 181.200 399.891,182.077 400.000,185.800 400.000 C 189.408 400.000,190.400 399.883,190.400 399.457 C 190.400 398.660,184.887 398.145,182.100 398.682 M211.300 398.693 C 210.156 398.796,209.600 399.035,209.600 399.423 C 209.600 399.892,210.459 400.000,214.200 400.000 C 217.836 400.000,218.800 399.885,218.800 399.450 C 218.800 398.513,216.207 398.251,211.300 398.693 " stroke="none" fill="#f8f8f8" fill-rule="evenodd"></path><path id="path1" d="M190.400 0.547 C 190.400 1.402,187.898 1.558,178.181 1.308 L 169.265 1.078 169.132 2.223 C 168.982 3.523,167.638 4.099,166.074 3.534 C 163.686 2.672,158.400 3.131,158.400 4.200 C 158.400 5.370,158.520 5.345,153.531 5.215 L 149.661 5.114 149.531 6.246 L 149.400 7.378 145.900 7.255 L 142.400 7.132 142.400 8.166 C 142.400 9.305,142.430 9.297,138.529 9.205 C 136.101 9.148,136.056 9.166,135.929 10.273 L 135.800 11.400 132.500 11.256 L 129.200 11.111 129.200 12.156 C 129.200 13.124,129.072 13.200,127.427 13.200 C 125.791 13.200,125.643 13.285,125.527 14.296 L 125.400 15.392 122.300 15.261 L 119.200 15.129 119.200 16.165 C 119.200 17.140,119.085 17.200,117.200 17.200 C 115.333 17.200,115.200 17.267,115.200 18.200 C 115.200 19.133,115.067 19.200,113.200 19.200 C 111.333 19.200,111.200 19.267,111.200 20.200 C 111.200 21.133,111.067 21.200,109.200 21.200 C 107.333 21.200,107.200 21.267,107.200 22.200 C 107.200 23.116,107.052 23.200,105.427 23.200 C 103.789 23.200,103.643 23.284,103.527 24.300 C 103.406 25.347,103.310 25.394,101.529 25.270 C 99.738 25.145,99.653 25.187,99.529 26.270 C 99.403 27.370,99.345 27.396,97.300 27.263 C 95.272 27.131,95.200 27.162,95.200 28.163 C 95.200 28.921,94.992 29.200,94.427 29.200 C 93.880 29.200,93.616 29.523,93.527 30.300 C 93.404 31.365,93.332 31.396,91.300 31.263 C 89.272 31.131,89.200 31.162,89.200 32.163 C 89.200 32.921,88.992 33.200,88.427 33.200 C 87.883 33.200,87.615 33.523,87.527 34.284 C 87.405 35.326,87.318 35.363,85.300 35.254 C 83.281 35.145,83.200 35.180,83.200 36.170 C 83.200 36.933,82.993 37.200,82.400 37.200 C 81.771 37.200,81.600 37.467,81.600 38.446 L 81.600 39.692 79.400 39.417 C 77.232 39.146,77.200 39.158,77.200 40.171 C 77.200 41.002,77.007 41.200,76.200 41.200 C 75.400 41.200,75.200 41.400,75.200 42.200 C 75.200 43.000,75.000 43.200,74.200 43.200 C 73.400 43.200,73.200 43.400,73.200 44.200 C 73.200 44.933,72.987 45.200,72.400 45.200 C 71.811 45.200,71.600 45.467,71.600 46.210 C 71.600 46.922,71.302 47.333,70.590 47.604 C 70.034 47.815,69.475 48.261,69.347 48.594 C 69.183 49.021,68.537 49.200,67.157 49.200 C 65.336 49.200,65.200 49.270,65.200 50.200 C 65.200 51.000,65.000 51.200,64.200 51.200 C 63.400 51.200,63.200 51.400,63.200 52.200 C 63.200 53.000,63.000 53.200,62.200 53.200 C 61.400 53.200,61.200 53.400,61.200 54.200 C 61.200 55.014,61.004 55.200,60.145 55.200 C 59.101 55.200,59.093 55.224,59.349 57.404 L 59.608 59.608 57.404 59.349 C 55.224 59.093,55.200 59.101,55.200 60.145 C 55.200 61.004,55.014 61.200,54.200 61.200 C 53.400 61.200,53.200 61.400,53.200 62.200 C 53.200 63.000,53.000 63.200,52.200 63.200 C 51.400 63.200,51.200 63.400,51.200 64.200 C 51.200 65.000,51.000 65.200,50.200 65.200 C 49.270 65.200,49.200 65.336,49.200 67.157 C 49.200 68.537,49.021 69.183,48.594 69.347 C 48.261 69.475,47.815 70.034,47.604 70.590 C 47.333 71.302,46.922 71.600,46.210 71.600 C 45.467 71.600,45.200 71.811,45.200 72.400 C 45.200 72.987,44.933 73.200,44.200 73.200 C 43.400 73.200,43.200 73.400,43.200 74.200 C 43.200 75.000,43.000 75.200,42.200 75.200 C 41.400 75.200,41.200 75.400,41.200 76.200 C 41.200 77.007,41.002 77.200,40.171 77.200 C 39.158 77.200,39.146 77.232,39.417 79.400 L 39.692 81.600 38.446 81.600 C 37.467 81.600,37.200 81.771,37.200 82.400 C 37.200 82.993,36.933 83.200,36.170 83.200 C 35.180 83.200,35.145 83.281,35.254 85.300 C 35.363 87.318,35.326 87.405,34.284 87.527 C 33.523 87.615,33.200 87.883,33.200 88.427 C 33.200 88.992,32.921 89.200,32.163 89.200 C 31.162 89.200,31.131 89.272,31.263 91.300 C 31.396 93.332,31.365 93.404,30.300 93.527 C 29.523 93.616,29.200 93.880,29.200 94.427 C 29.200 94.992,28.921 95.200,28.163 95.200 C 27.162 95.200,27.131 95.272,27.263 97.300 C 27.396 99.345,27.370 99.403,26.270 99.529 C 25.187 99.653,25.145 99.738,25.270 101.529 C 25.394 103.310,25.347 103.406,24.300 103.527 C 23.284 103.643,23.200 103.789,23.200 105.427 C 23.200 107.052,23.116 107.200,22.200 107.200 C 21.267 107.200,21.200 107.333,21.200 109.200 C 21.200 111.067,21.133 111.200,20.200 111.200 C 19.267 111.200,19.200 111.333,19.200 113.200 C 19.200 115.067,19.133 115.200,18.200 115.200 C 17.267 115.200,17.200 115.333,17.200 117.200 C 17.200 119.085,17.140 119.200,16.165 119.200 L 15.129 119.200 15.261 122.300 L 15.392 125.400 14.296 125.527 C 13.285 125.643,13.200 125.791,13.200 127.427 C 13.200 129.072,13.124 129.200,12.156 129.200 L 11.111 129.200 11.256 132.500 L 11.400 135.800 10.273 135.929 C 9.166 136.056,9.148 136.101,9.205 138.529 C 9.297 142.430,9.305 142.400,8.166 142.400 L 7.132 142.400 7.255 145.900 L 7.378 149.400 6.246 149.531 L 5.114 149.661 5.215 153.531 C 5.345 158.520,5.370 158.400,4.200 158.400 C 3.131 158.400,2.672 163.686,3.534 166.074 C 4.099 167.638,3.523 168.982,2.223 169.132 L 1.078 169.265 1.308 178.181 C 1.558 187.898,1.402 190.400,0.547 190.400 C 0.099 190.400,0.000 192.144,0.000 200.000 C 0.000 207.856,0.099 209.600,0.547 209.600 C 1.403 209.600,1.558 212.103,1.307 221.851 L 1.076 230.800 2.099 230.800 C 3.280 230.800,4.096 232.463,3.570 233.800 C 2.876 235.568,3.139 242.060,3.900 241.935 C 5.313 241.703,5.485 242.251,5.288 246.355 L 5.096 250.337 6.248 250.468 L 7.400 250.600 7.260 254.300 L 7.120 258.000 8.160 258.000 C 9.303 258.000,9.288 257.949,9.205 261.471 C 9.148 263.899,9.166 263.944,10.273 264.071 L 11.400 264.200 11.256 267.500 L 11.112 270.800 12.156 270.800 C 13.124 270.800,13.200 270.928,13.200 272.573 C 13.200 274.211,13.284 274.357,14.300 274.473 L 15.400 274.600 15.259 277.700 L 15.117 280.800 16.159 280.800 C 17.142 280.800,17.200 280.912,17.200 282.800 C 17.200 284.667,17.267 284.800,18.200 284.800 C 19.133 284.800,19.200 284.933,19.200 286.800 C 19.200 288.667,19.267 288.800,20.200 288.800 C 21.133 288.800,21.200 288.933,21.200 290.800 C 21.200 292.667,21.267 292.800,22.200 292.800 C 23.116 292.800,23.200 292.948,23.200 294.573 C 23.200 296.211,23.284 296.357,24.300 296.473 C 25.347 296.594,25.394 296.690,25.270 298.471 C 25.145 300.262,25.187 300.347,26.270 300.471 C 27.370 300.597,27.396 300.655,27.263 302.700 C 27.131 304.728,27.162 304.800,28.163 304.800 C 28.910 304.800,29.200 305.010,29.200 305.550 C 29.200 306.055,29.573 306.375,30.343 306.529 C 31.454 306.751,31.481 306.816,31.292 308.779 C 31.104 310.743,31.128 310.800,32.149 310.800 C 33.003 310.800,33.200 310.987,33.200 311.800 C 33.200 312.624,33.393 312.800,34.300 312.800 C 35.372 312.800,35.396 312.851,35.261 314.800 C 35.128 316.722,35.163 316.800,36.161 316.800 C 36.921 316.800,37.200 317.007,37.200 317.573 C 37.200 318.120,37.523 318.384,38.300 318.473 C 39.361 318.596,39.396 318.675,39.288 320.700 C 39.181 322.709,39.220 322.800,40.188 322.800 C 41.001 322.800,41.200 322.997,41.200 323.800 C 41.200 324.600,41.400 324.800,42.200 324.800 C 43.000 324.800,43.200 325.000,43.200 325.800 C 43.200 326.600,43.400 326.800,44.200 326.800 C 44.933 326.800,45.200 327.013,45.200 327.600 C 45.200 328.191,45.467 328.400,46.221 328.400 C 46.995 328.400,47.343 328.689,47.660 329.600 C 47.890 330.260,48.331 330.800,48.639 330.800 C 49.046 330.800,49.200 331.351,49.200 332.800 C 49.200 334.667,49.267 334.800,50.200 334.800 C 51.000 334.800,51.200 335.000,51.200 335.800 C 51.200 336.600,51.400 336.800,52.200 336.800 C 53.000 336.800,53.200 337.000,53.200 337.800 C 53.200 338.600,53.400 338.800,54.200 338.800 C 55.009 338.800,55.200 338.998,55.200 339.837 C 55.200 340.838,55.272 340.869,57.300 340.737 L 59.400 340.600 59.271 342.700 C 59.148 344.722,59.181 344.800,60.171 344.800 C 61.002 344.800,61.200 344.993,61.200 345.800 C 61.200 346.600,61.400 346.800,62.200 346.800 C 63.000 346.800,63.200 347.000,63.200 347.800 C 63.200 348.600,63.400 348.800,64.200 348.800 C 65.000 348.800,65.200 349.000,65.200 349.800 C 65.200 350.732,65.335 350.800,67.173 350.800 C 68.773 350.800,69.193 350.946,69.392 351.575 C 69.527 352.001,70.034 352.406,70.519 352.475 C 71.143 352.563,71.437 352.920,71.527 353.700 C 71.616 354.477,71.880 354.800,72.427 354.800 C 72.985 354.800,73.200 355.078,73.200 355.800 C 73.200 356.600,73.400 356.800,74.200 356.800 C 75.000 356.800,75.200 357.000,75.200 357.800 C 75.200 358.600,75.400 358.800,76.200 358.800 C 77.003 358.800,77.200 358.999,77.200 359.812 C 77.200 360.780,77.291 360.819,79.300 360.712 C 81.325 360.604,81.404 360.639,81.527 361.700 C 81.616 362.477,81.880 362.800,82.427 362.800 C 82.985 362.800,83.200 363.078,83.200 363.800 C 83.200 364.745,83.320 364.800,85.400 364.800 C 87.480 364.800,87.600 364.855,87.600 365.800 C 87.600 366.533,87.813 366.800,88.400 366.800 C 88.987 366.800,89.200 367.067,89.200 367.800 C 89.200 368.745,89.320 368.800,91.400 368.800 C 93.480 368.800,93.600 368.855,93.600 369.800 C 93.600 370.533,93.813 370.800,94.400 370.800 C 94.994 370.800,95.200 371.067,95.200 371.837 C 95.200 372.838,95.272 372.869,97.300 372.737 C 99.347 372.603,99.403 372.629,99.530 373.734 C 99.654 374.821,99.736 374.862,101.530 374.734 C 103.311 374.606,103.406 374.652,103.527 375.700 C 103.643 376.716,103.789 376.800,105.427 376.800 C 107.052 376.800,107.200 376.884,107.200 377.800 C 107.200 378.733,107.333 378.800,109.200 378.800 C 111.067 378.800,111.200 378.867,111.200 379.800 C 111.200 380.733,111.333 380.800,113.200 380.800 C 115.067 380.800,115.200 380.867,115.200 381.800 C 115.200 382.733,115.333 382.800,117.200 382.800 C 119.080 382.800,119.200 382.861,119.200 383.826 C 119.200 384.847,119.215 384.852,122.300 384.759 C 125.387 384.667,125.401 384.671,125.527 385.733 C 125.642 386.709,125.804 386.800,127.427 386.800 C 129.072 386.800,129.200 386.876,129.200 387.844 L 129.200 388.889 132.500 388.744 L 135.800 388.600 135.927 389.700 C 136.053 390.797,136.062 390.800,139.227 390.800 C 142.365 390.800,142.400 390.811,142.400 391.825 L 142.400 392.849 145.900 392.763 L 149.400 392.677 149.530 393.776 L 149.660 394.876 153.530 394.790 C 158.588 394.679,158.400 394.638,158.400 395.858 L 158.400 396.916 163.300 396.714 C 168.973 396.480,169.200 396.525,169.200 397.889 L 169.200 398.912 177.790 398.714 C 187.650 398.486,190.400 398.647,190.400 399.451 C 190.400 399.901,192.129 400.000,200.000 400.000 C 207.871 400.000,209.600 399.901,209.600 399.451 C 209.600 398.647,212.350 398.486,222.210 398.714 L 230.800 398.912 230.800 397.856 C 230.800 396.610,230.582 396.647,237.105 396.787 C 241.113 396.873,241.974 396.792,241.809 396.346 C 241.293 394.943,242.237 394.608,246.352 394.737 L 250.341 394.862 250.470 393.745 L 250.600 392.628 254.311 392.748 C 256.352 392.813,257.996 392.717,257.964 392.534 C 257.687 390.955,257.958 390.800,261.000 390.800 C 263.933 390.800,264.000 390.778,264.000 389.800 C 264.000 388.654,263.969 388.661,268.100 388.787 C 271.197 388.882,271.200 388.881,271.200 387.841 C 271.200 386.893,271.343 386.800,272.800 386.800 C 274.240 386.800,274.400 386.700,274.400 385.800 C 274.400 384.688,274.276 384.720,278.300 384.797 C 281.161 384.851,281.200 384.838,281.200 383.826 C 281.200 382.861,281.320 382.800,283.200 382.800 C 285.067 382.800,285.200 382.733,285.200 381.800 C 285.200 380.881,285.347 380.800,287.000 380.800 C 288.653 380.800,288.800 380.719,288.800 379.800 C 288.800 378.867,288.933 378.800,290.800 378.800 C 292.667 378.800,292.800 378.733,292.800 377.800 C 292.800 376.884,292.948 376.800,294.573 376.800 C 296.211 376.800,296.357 376.716,296.473 375.700 C 296.594 374.652,296.689 374.606,298.470 374.734 C 300.264 374.862,300.346 374.821,300.470 373.734 C 300.597 372.629,300.653 372.603,302.700 372.737 C 304.728 372.869,304.800 372.838,304.800 371.837 C 304.800 371.079,305.008 370.800,305.572 370.800 C 306.068 370.800,306.390 370.478,306.472 369.900 C 306.584 369.116,306.871 368.984,308.700 368.879 C 310.628 368.768,310.800 368.678,310.800 367.779 C 310.800 367.001,311.006 366.800,311.800 366.800 C 312.600 366.800,312.800 366.600,312.800 365.800 C 312.800 364.867,312.933 364.800,314.800 364.800 C 316.667 364.800,316.800 364.733,316.800 363.800 C 316.800 363.078,317.015 362.800,317.573 362.800 C 318.120 362.800,318.384 362.477,318.473 361.700 C 318.596 360.639,318.675 360.604,320.700 360.712 C 322.709 360.819,322.800 360.780,322.800 359.812 C 322.800 358.999,322.997 358.800,323.800 358.800 C 324.600 358.800,324.800 358.600,324.800 357.800 C 324.800 357.000,325.000 356.800,325.800 356.800 C 326.600 356.800,326.800 356.600,326.800 355.800 C 326.800 355.078,327.015 354.800,327.573 354.800 C 328.120 354.800,328.384 354.477,328.473 353.700 C 328.566 352.894,328.853 352.564,329.546 352.466 C 330.068 352.392,330.582 351.989,330.693 351.566 C 330.856 350.943,331.259 350.800,332.847 350.800 C 334.664 350.800,334.800 350.730,334.800 349.800 C 334.800 349.000,335.000 348.800,335.800 348.800 C 336.600 348.800,336.800 348.600,336.800 347.800 C 336.800 347.000,337.000 346.800,337.800 346.800 C 338.600 346.800,338.800 346.600,338.800 345.800 C 338.800 344.991,338.998 344.800,339.837 344.800 C 340.838 344.800,340.869 344.728,340.737 342.700 L 340.600 340.600 342.700 340.737 C 344.728 340.869,344.800 340.838,344.800 339.837 C 344.800 338.998,344.991 338.800,345.800 338.800 C 346.600 338.800,346.800 338.600,346.800 337.800 C 346.800 337.000,347.000 336.800,347.800 336.800 C 348.600 336.800,348.800 336.600,348.800 335.800 C 348.800 335.000,349.000 334.800,349.800 334.800 C 350.730 334.800,350.800 334.664,350.800 332.847 C 350.800 331.259,350.943 330.856,351.566 330.693 C 351.989 330.582,352.392 330.068,352.466 329.546 C 352.564 328.853,352.894 328.566,353.700 328.473 C 354.477 328.384,354.800 328.120,354.800 327.573 C 354.800 327.015,355.078 326.800,355.800 326.800 C 356.600 326.800,356.800 326.600,356.800 325.800 C 356.800 325.000,357.000 324.800,357.800 324.800 C 358.600 324.800,358.800 324.600,358.800 323.800 C 358.800 322.997,358.999 322.800,359.812 322.800 C 360.780 322.800,360.819 322.709,360.712 320.700 C 360.604 318.675,360.639 318.596,361.700 318.473 C 362.477 318.384,362.800 318.120,362.800 317.573 C 362.800 317.015,363.078 316.800,363.800 316.800 C 364.733 316.800,364.800 316.667,364.800 314.800 C 364.800 312.933,364.867 312.800,365.800 312.800 C 366.600 312.800,366.800 312.600,366.800 311.800 C 366.800 311.006,367.001 310.800,367.779 310.800 C 368.678 310.800,368.768 310.628,368.879 308.700 C 368.984 306.871,369.116 306.584,369.900 306.472 C 370.478 306.390,370.800 306.068,370.800 305.572 C 370.800 305.008,371.079 304.800,371.837 304.800 C 372.838 304.800,372.869 304.728,372.737 302.700 C 372.603 300.653,372.629 300.597,373.734 300.470 C 374.821 300.346,374.862 300.264,374.734 298.470 C 374.606 296.689,374.652 296.594,375.700 296.473 C 376.716 296.357,376.800 296.211,376.800 294.573 C 376.800 292.948,376.884 292.800,377.800 292.800 C 378.733 292.800,378.800 292.667,378.800 290.800 C 378.800 288.933,378.867 288.800,379.800 288.800 C 380.733 288.800,380.800 288.667,380.800 286.800 C 380.800 284.933,380.867 284.800,381.800 284.800 C 382.733 284.800,382.800 284.667,382.800 282.800 C 382.800 280.915,382.860 280.800,383.835 280.800 L 384.871 280.800 384.739 277.700 L 384.608 274.600 385.704 274.473 C 386.715 274.357,386.800 274.209,386.800 272.573 C 386.800 270.930,386.876 270.800,387.841 270.800 C 388.876 270.800,388.882 270.782,388.786 267.900 C 388.656 264.005,388.657 264.000,389.800 264.000 C 390.778 264.000,390.800 263.933,390.800 261.000 C 390.800 257.958,390.955 257.687,392.534 257.964 C 392.717 257.996,392.813 256.352,392.748 254.311 L 392.628 250.600 393.745 250.470 L 394.862 250.341 394.737 246.352 C 394.608 242.237,394.943 241.293,396.346 241.809 C 396.792 241.974,396.873 241.113,396.787 237.105 C 396.647 230.582,396.610 230.800,397.856 230.800 L 398.912 230.800 398.714 222.210 C 398.486 212.350,398.647 209.600,399.451 209.600 C 399.901 209.600,400.000 207.871,400.000 200.000 C 400.000 192.129,399.901 190.400,399.451 190.400 C 398.647 190.400,398.486 187.650,398.714 177.790 L 398.912 169.200 397.889 169.200 C 396.525 169.200,396.480 168.973,396.714 163.300 L 396.916 158.400 395.858 158.400 C 394.638 158.400,394.679 158.588,394.790 153.530 L 394.876 149.660 393.776 149.530 L 392.677 149.400 392.763 145.900 L 392.849 142.400 391.825 142.400 C 390.811 142.400,390.800 142.365,390.800 139.227 C 390.800 136.062,390.797 136.053,389.700 135.927 L 388.600 135.800 388.744 132.500 L 388.889 129.200 387.844 129.200 C 386.876 129.200,386.800 129.072,386.800 127.427 C 386.800 125.804,386.709 125.642,385.733 125.527 C 384.671 125.401,384.667 125.387,384.759 122.300 C 384.852 119.215,384.847 119.200,383.826 119.200 C 382.861 119.200,382.800 119.080,382.800 117.200 C 382.800 115.333,382.733 115.200,381.800 115.200 C 380.867 115.200,380.800 115.067,380.800 113.200 C 380.800 111.333,380.733 111.200,379.800 111.200 C 378.867 111.200,378.800 111.067,378.800 109.200 C 378.800 107.333,378.733 107.200,377.800 107.200 C 376.884 107.200,376.800 107.052,376.800 105.427 C 376.800 103.789,376.716 103.643,375.700 103.527 C 374.652 103.406,374.606 103.311,374.734 101.530 C 374.862 99.736,374.821 99.654,373.734 99.530 C 372.629 99.403,372.603 99.347,372.737 97.300 C 372.869 95.272,372.838 95.200,371.837 95.200 C 371.067 95.200,370.800 94.994,370.800 94.400 C 370.800 93.813,370.533 93.600,369.800 93.600 C 368.855 93.600,368.800 93.480,368.800 91.400 C 368.800 89.320,368.745 89.200,367.800 89.200 C 367.067 89.200,366.800 88.987,366.800 88.400 C 366.800 87.813,366.533 87.600,365.800 87.600 C 364.855 87.600,364.800 87.480,364.800 85.400 C 364.800 83.320,364.745 83.200,363.800 83.200 C 363.078 83.200,362.800 82.985,362.800 82.427 C 362.800 81.880,362.477 81.616,361.700 81.527 C 360.639 81.404,360.604 81.325,360.712 79.300 C 360.819 77.291,360.780 77.200,359.812 77.200 C 358.999 77.200,358.800 77.003,358.800 76.200 C 358.800 75.400,358.600 75.200,357.800 75.200 C 357.000 75.200,356.800 75.000,356.800 74.200 C 356.800 73.400,356.600 73.200,355.800 73.200 C 355.078 73.200,354.800 72.985,354.800 72.427 C 354.800 71.880,354.477 71.616,353.700 71.527 C 352.920 71.437,352.563 71.143,352.475 70.519 C 352.406 70.034,352.001 69.527,351.575 69.392 C 350.946 69.193,350.800 68.773,350.800 67.173 C 350.800 65.335,350.732 65.200,349.800 65.200 C 349.000 65.200,348.800 65.000,348.800 64.200 C 348.800 63.400,348.600 63.200,347.800 63.200 C 347.000 63.200,346.800 63.000,346.800 62.200 C 346.800 61.400,346.600 61.200,345.800 61.200 C 344.993 61.200,344.800 61.002,344.800 60.171 C 344.800 59.181,344.722 59.148,342.700 59.271 L 340.600 59.400 340.737 57.300 C 340.869 55.272,340.838 55.200,339.837 55.200 C 338.998 55.200,338.800 55.009,338.800 54.200 C 338.800 53.400,338.600 53.200,337.800 53.200 C 337.000 53.200,336.800 53.000,336.800 52.200 C 336.800 51.400,336.600 51.200,335.800 51.200 C 335.000 51.200,334.800 51.000,334.800 50.200 C 334.800 49.267,334.667 49.200,332.800 49.200 C 331.351 49.200,330.800 49.046,330.800 48.639 C 330.800 48.331,330.260 47.890,329.600 47.660 C 328.689 47.343,328.400 46.995,328.400 46.221 C 328.400 45.467,328.191 45.200,327.600 45.200 C 327.013 45.200,326.800 44.933,326.800 44.200 C 326.800 43.400,326.600 43.200,325.800 43.200 C 325.000 43.200,324.800 43.000,324.800 42.200 C 324.800 41.400,324.600 41.200,323.800 41.200 C 322.997 41.200,322.800 41.001,322.800 40.188 C 322.800 39.220,322.709 39.181,320.700 39.288 C 318.675 39.396,318.596 39.361,318.473 38.300 C 318.384 37.523,318.120 37.200,317.573 37.200 C 317.007 37.200,316.800 36.921,316.800 36.161 C 316.800 35.163,316.722 35.128,314.800 35.261 C 312.851 35.396,312.800 35.372,312.800 34.300 C 312.800 33.393,312.624 33.200,311.800 33.200 C 310.987 33.200,310.800 33.003,310.800 32.149 C 310.800 31.128,310.743 31.104,308.779 31.292 C 306.816 31.481,306.751 31.454,306.529 30.343 C 306.375 29.573,306.055 29.200,305.550 29.200 C 305.010 29.200,304.800 28.910,304.800 28.163 C 304.800 27.162,304.728 27.131,302.700 27.263 C 300.655 27.396,300.597 27.370,300.471 26.270 C 300.347 25.187,300.262 25.145,298.471 25.270 C 296.690 25.394,296.594 25.347,296.473 24.300 C 296.357 23.284,296.211 23.200,294.573 23.200 C 292.948 23.200,292.800 23.116,292.800 22.200 C 292.800 21.267,292.667 21.200,290.800 21.200 C 288.933 21.200,288.800 21.133,288.800 20.200 C 288.800 19.281,288.653 19.200,287.000 19.200 C 285.347 19.200,285.200 19.119,285.200 18.200 C 285.200 17.267,285.067 17.200,283.200 17.200 C 281.312 17.200,281.200 17.142,281.200 16.159 L 281.200 15.118 277.900 15.259 L 274.600 15.400 274.473 14.300 C 274.359 13.308,274.193 13.200,272.773 13.200 C 271.344 13.200,271.200 13.105,271.200 12.155 L 271.200 11.109 267.700 11.255 L 264.200 11.400 264.071 10.273 C 263.944 9.166,263.899 9.148,261.471 9.205 C 257.949 9.288,258.000 9.303,258.000 8.160 L 258.000 7.120 254.300 7.260 L 250.600 7.400 250.468 6.248 L 250.337 5.096 246.355 5.288 C 242.251 5.485,241.703 5.313,241.935 3.900 C 242.060 3.139,235.568 2.876,233.800 3.570 C 232.463 4.096,230.800 3.280,230.800 2.099 L 230.800 1.076 221.851 1.307 C 212.103 1.558,209.600 1.403,209.600 0.547 C 209.600 0.099,207.856 0.000,200.000 0.000 C 192.144 0.000,190.400 0.099,190.400 0.547 M97.257 98.526 C 98.150 98.970,99.845 102.891,100.353 105.690 C 100.582 106.950,101.021 108.480,101.328 109.090 C 101.636 109.701,102.000 111.056,102.136 112.101 C 102.273 113.147,102.725 114.677,103.140 115.501 C 103.555 116.326,104.023 117.900,104.179 119.000 C 104.335 120.100,104.691 121.360,104.971 121.800 C 105.250 122.240,105.603 123.320,105.755 124.200 C 105.906 125.080,106.462 127.150,106.990 128.800 C 107.517 130.450,108.428 133.510,109.015 135.600 C 109.601 137.690,110.497 140.490,111.005 141.821 C 111.513 143.153,112.151 145.403,112.423 146.821 C 112.752 148.539,113.352 150.001,114.220 151.201 C 115.070 152.376,115.677 153.836,115.966 155.401 C 116.209 156.720,116.750 158.700,117.169 159.800 C 118.678 163.772,119.947 168.248,120.229 170.600 C 120.388 171.920,120.835 173.630,121.225 174.400 C 121.614 175.170,122.055 176.610,122.204 177.600 C 122.354 178.590,122.696 179.760,122.964 180.200 C 123.232 180.640,123.681 182.080,123.961 183.400 C 124.242 184.720,124.737 186.520,125.063 187.400 C 125.684 189.081,126.838 192.962,127.620 196.000 C 127.875 196.990,128.418 198.700,128.828 199.800 C 129.237 200.900,129.768 202.697,130.008 203.794 C 130.249 204.890,130.795 206.578,131.223 207.544 C 131.650 208.511,132.000 209.642,132.000 210.058 C 132.000 210.475,132.422 212.027,132.939 213.508 C 133.455 214.988,134.011 216.920,134.175 217.800 C 134.339 218.680,134.710 219.850,134.999 220.400 C 135.288 220.950,135.733 222.660,135.987 224.200 C 136.241 225.740,136.674 227.360,136.948 227.800 C 137.223 228.240,137.778 229.484,138.181 230.565 C 138.911 232.517,140.000 232.448,140.000 230.450 C 140.000 230.121,140.347 229.121,140.772 228.226 C 141.196 227.332,142.198 224.910,142.997 222.845 C 144.379 219.272,145.494 216.813,147.223 213.521 C 147.650 212.707,148.003 211.807,148.006 211.521 C 148.009 211.234,148.909 209.043,150.006 206.650 C 151.103 204.258,152.000 202.086,152.000 201.825 C 152.000 201.563,152.793 199.796,153.762 197.897 C 154.730 195.999,155.744 193.776,156.014 192.958 C 156.284 192.141,156.997 190.466,157.599 189.236 C 158.202 188.006,159.012 186.010,159.401 184.800 C 159.789 183.590,160.622 181.610,161.251 180.400 C 162.873 177.281,164.800 172.592,164.800 171.766 C 164.800 169.915,170.057 161.631,171.847 160.661 C 172.635 160.235,176.127 157.331,178.223 155.360 C 179.388 154.264,182.777 152.186,184.022 151.803 C 184.560 151.637,185.200 151.343,185.445 151.148 C 188.656 148.591,203.641 146.977,209.800 148.525 C 215.786 150.030,221.149 152.674,225.400 156.219 C 226.500 157.136,227.771 158.003,228.224 158.146 C 230.658 158.913,236.670 168.008,238.045 173.000 C 238.785 175.688,240.408 179.646,241.125 180.509 C 241.384 180.821,241.708 181.689,241.846 182.438 C 241.984 183.187,242.501 184.520,242.994 185.400 C 243.488 186.280,244.100 187.645,244.355 188.433 C 244.609 189.221,245.174 190.564,245.609 191.417 C 246.044 192.271,246.400 193.205,246.400 193.493 C 246.400 193.781,247.127 195.553,248.015 197.431 C 248.902 199.309,249.741 201.420,249.878 202.123 C 250.014 202.825,250.548 204.027,251.063 204.793 C 251.578 205.559,252.000 206.349,252.000 206.549 C 252.000 206.749,252.351 207.652,252.781 208.556 C 253.665 210.417,255.391 214.610,256.256 217.000 C 256.980 218.998,257.802 220.858,259.039 223.293 C 259.567 224.334,260.000 225.479,260.000 225.838 C 260.000 226.197,260.335 227.146,260.745 227.946 C 261.155 228.745,261.795 230.101,262.167 230.959 C 262.990 232.855,263.439 232.543,264.183 229.557 C 264.478 228.371,265.008 226.356,265.360 225.080 C 265.712 223.805,266.000 222.393,266.000 221.942 C 266.000 221.492,266.339 220.646,266.753 220.062 C 267.167 219.478,267.728 217.920,267.999 216.600 C 268.270 215.280,268.736 213.724,269.034 213.142 C 269.333 212.560,269.836 210.940,270.153 209.542 C 270.895 206.269,272.023 203.081,272.570 202.706 C 273.163 202.300,321.276 202.333,321.917 202.740 C 322.469 203.090,322.013 206.082,321.165 207.665 C 320.777 208.391,320.172 210.434,318.344 217.199 C 317.898 218.849,317.375 220.389,317.181 220.623 C 316.987 220.856,316.571 222.532,316.256 224.346 C 315.942 226.160,315.414 227.949,315.085 228.322 C 314.756 228.695,314.363 229.921,314.213 231.048 C 314.062 232.174,313.667 233.614,313.334 234.248 C 313.001 234.881,312.487 236.480,312.192 237.800 C 311.688 240.050,310.801 242.985,309.349 247.200 C 309.008 248.190,308.483 250.170,308.183 251.600 C 307.883 253.030,307.269 254.913,306.819 255.785 C 306.368 256.656,306.000 257.703,306.000 258.111 C 306.000 258.519,305.790 259.246,305.533 259.726 C 305.276 260.206,304.662 262.129,304.169 263.999 C 303.676 265.870,303.086 267.940,302.857 268.600 C 301.734 271.845,300.412 276.368,300.170 277.800 C 300.021 278.680,299.481 280.300,298.969 281.400 C 298.458 282.500,297.870 284.390,297.662 285.600 C 296.742 290.949,294.009 299.095,292.215 301.833 C 291.216 303.357,287.629 305.738,284.408 307.014 L 281.417 308.200 262.408 308.200 L 243.400 308.200 241.244 306.723 C 238.631 304.933,234.400 301.197,234.400 300.680 C 234.400 300.474,233.671 298.687,232.780 296.708 C 231.889 294.729,230.883 292.275,230.544 291.255 C 230.205 290.235,229.584 288.805,229.164 288.077 C 228.744 287.350,228.400 286.530,228.400 286.255 C 228.400 285.980,227.959 285.158,227.421 284.428 C 226.882 283.699,226.323 282.539,226.178 281.851 C 226.033 281.163,225.594 280.060,225.202 279.400 C 224.811 278.740,224.369 277.750,224.220 277.200 C 223.920 276.091,222.316 272.081,219.982 266.600 C 219.139 264.620,218.332 262.550,218.189 262.000 C 218.046 261.450,217.135 259.343,216.165 257.318 C 215.194 255.293,214.400 253.426,214.400 253.169 C 214.400 252.911,213.770 251.305,213.000 249.600 C 212.230 247.895,211.600 246.117,211.600 245.650 C 211.600 245.182,211.425 244.800,211.211 244.800 C 210.997 244.800,210.536 243.813,210.185 242.607 C 209.834 241.401,209.384 240.314,209.184 240.190 C 208.984 240.067,208.558 239.118,208.237 238.083 C 207.916 237.047,206.936 234.480,206.059 232.378 C 205.183 230.276,204.343 227.936,204.192 227.178 C 203.871 225.557,201.551 220.714,201.063 220.647 C 200.749 220.603,198.872 225.114,197.505 229.200 C 195.989 233.732,193.753 239.301,192.151 242.534 C 191.188 244.478,190.399 246.368,190.398 246.734 C 190.398 247.100,189.858 248.480,189.200 249.800 C 188.542 251.120,188.001 252.560,187.999 253.000 C 187.997 253.440,187.747 254.275,187.445 254.855 C 187.142 255.435,186.593 256.816,186.225 257.924 C 185.857 259.032,185.315 260.139,185.020 260.383 C 184.725 260.628,184.359 261.491,184.208 262.300 C 184.056 263.110,183.646 264.319,183.298 264.986 C 182.949 265.654,182.268 267.280,181.783 268.600 C 179.934 273.644,177.269 280.303,176.101 282.800 C 175.433 284.230,174.675 286.300,174.418 287.400 C 174.161 288.500,173.331 290.390,172.575 291.600 C 171.819 292.810,170.930 294.430,170.598 295.200 C 167.923 301.418,165.326 304.530,160.919 306.800 L 158.200 308.200 139.400 308.200 L 120.600 308.200 118.400 307.099 C 111.447 303.621,109.849 302.074,107.759 296.800 C 107.018 294.930,106.409 293.160,106.406 292.867 C 106.403 292.574,105.966 291.044,105.436 289.467 C 104.905 287.890,104.355 285.589,104.213 284.353 C 104.072 283.117,103.618 281.476,103.206 280.707 C 102.794 279.938,102.327 278.609,102.169 277.754 C 102.010 276.899,101.458 275.071,100.940 273.691 C 100.423 272.311,100.000 270.729,100.000 270.175 C 100.000 269.621,99.654 268.491,99.232 267.662 C 98.809 266.834,98.236 264.997,97.957 263.578 C 97.679 262.160,97.201 260.701,96.896 260.336 C 96.591 259.970,96.206 258.677,96.041 257.462 C 95.876 256.246,95.507 254.970,95.221 254.625 C 94.935 254.280,94.466 252.963,94.180 251.699 C 93.894 250.435,93.382 248.590,93.042 247.600 C 92.702 246.610,91.871 243.910,91.194 241.600 C 90.518 239.290,89.777 236.860,89.549 236.200 C 88.652 233.616,88.009 230.945,88.005 229.789 C 88.002 229.123,87.731 228.194,87.403 227.725 C 87.074 227.256,86.520 225.643,86.172 224.140 C 85.823 222.637,85.377 221.213,85.180 220.976 C 84.983 220.739,84.533 219.299,84.180 217.776 C 83.827 216.253,83.393 214.825,83.216 214.603 C 83.039 214.382,82.597 212.880,82.235 211.267 C 81.872 209.654,81.330 207.944,81.030 207.467 C 80.730 206.990,80.287 205.427,80.047 203.994 C 79.806 202.560,79.247 200.677,78.805 199.809 C 78.362 198.941,78.000 197.981,78.000 197.676 C 78.000 197.371,77.752 196.554,77.449 195.860 C 77.146 195.167,76.593 193.263,76.221 191.628 C 75.849 189.994,75.287 188.289,74.972 187.839 C 74.658 187.390,74.400 186.615,74.400 186.117 C 74.400 185.619,73.860 183.587,73.200 181.600 C 72.540 179.613,72.000 177.583,72.000 177.088 C 72.000 176.593,71.667 175.561,71.260 174.794 C 70.852 174.027,70.390 172.410,70.233 171.200 C 70.076 169.990,69.606 168.227,69.189 167.283 C 68.771 166.338,68.306 164.898,68.155 164.083 C 68.004 163.267,67.458 161.471,66.940 160.091 C 66.423 158.711,66.000 157.129,66.000 156.575 C 66.000 156.021,65.657 154.896,65.238 154.075 C 64.819 153.253,64.346 151.685,64.186 150.591 C 64.027 149.496,63.630 148.077,63.305 147.437 C 62.695 146.235,61.694 143.054,60.400 138.200 C 59.586 135.149,58.158 131.577,57.122 130.000 C 56.761 129.450,56.253 128.190,55.993 127.200 C 55.734 126.210,55.354 125.195,55.149 124.944 C 54.943 124.693,54.503 123.182,54.170 121.585 C 53.837 119.988,53.398 118.370,53.194 117.989 C 52.990 117.608,52.469 115.790,52.035 113.948 C 51.601 112.107,50.952 109.700,50.593 108.600 C 47.796 100.038,47.600 98.908,48.859 98.622 C 51.447 98.032,96.086 97.944,97.257 98.526 M354.230 98.584 C 355.203 98.904,354.657 102.179,352.647 108.071 C 352.071 109.759,351.600 111.523,351.600 111.990 C 351.600 112.458,351.355 113.326,351.056 113.920 C 350.757 114.514,350.412 115.656,350.289 116.457 C 350.165 117.258,349.600 118.895,349.032 120.095 C 348.464 121.295,348.000 122.733,348.000 123.291 C 348.000 123.849,347.571 125.451,347.048 126.852 C 346.524 128.254,345.970 130.030,345.818 130.800 C 345.665 131.570,345.197 133.100,344.777 134.200 C 344.357 135.300,343.835 136.920,343.617 137.800 C 343.399 138.680,342.602 140.359,341.846 141.531 C 340.959 142.906,340.318 144.541,340.040 146.138 C 339.803 147.499,339.247 149.323,338.805 150.191 C 338.362 151.059,338.000 151.989,338.000 152.259 C 338.000 152.528,337.792 153.255,337.538 153.874 C 337.284 154.493,336.679 156.440,336.193 158.200 C 335.708 159.960,335.111 161.940,334.867 162.600 C 333.938 165.117,332.400 170.482,332.400 171.205 C 332.400 171.621,332.202 172.883,331.960 174.010 C 331.149 177.792,332.554 177.597,306.150 177.599 C 278.526 177.600,279.657 177.759,280.724 174.043 C 280.952 173.249,281.435 171.261,281.798 169.625 C 282.160 167.989,282.714 166.153,283.028 165.545 C 283.343 164.937,283.800 163.486,284.045 162.320 C 284.290 161.154,284.912 159.390,285.427 158.400 C 287.225 154.946,287.979 152.968,289.239 148.400 C 289.937 145.870,290.820 143.170,291.200 142.400 C 291.581 141.630,292.012 140.280,292.158 139.400 C 292.410 137.882,293.029 135.703,295.377 128.075 C 295.940 126.247,296.400 124.406,296.400 123.985 C 296.400 123.564,296.759 122.630,297.199 121.910 C 297.638 121.189,297.998 120.287,297.999 119.904 C 297.999 119.520,298.436 117.900,298.968 116.304 C 299.501 114.707,300.051 112.680,300.190 111.800 C 300.328 110.920,300.779 109.300,301.191 108.200 C 301.603 107.100,302.237 105.012,302.599 103.559 C 303.650 99.342,304.351 98.476,306.881 98.273 C 310.277 98.001,353.316 98.283,354.230 98.584 " stroke="none" fill="#131b23" fill-rule="evenodd"></path></g></svg>